  0
SECTION
  2
HEADER
  9
$ACADVER
  1
AC1014
  9
$HANDSEED
  5
FFFF
  9
$MEASUREMENT
 70
     1
  0
ENDSEC
  0
SECTION
  2
TABLES
  0
TABLE
  2
VPORT
  5
8
330
0
100
AcDbSymbolTable
 70
     4
  0
VPORT
  5
2E
330
8
100
AcDbSymbolTableRecord
100
AcDbViewportTableRecord
  2
*ACTIVE
 70
     0
 10
0.0
 20
0.0
 11
1.0
 21
1.0
 12
210.0
 22
148.5
 13
0.0
 23
0.0
 14
10.0
 24
10.0
 15
10.0
 25
10.0
 16
0.0
 26
0.0
 36
1.0
 17
0.0
 27
0.0
 37
0.0
 40
341.0
 41
1.24
 42
50.0
 43
0.0
 44
0.0
 50
0.0
 51
0.0
 71
     0
 72
   100
 73
     1
 74
     3
 75
     0
 76
     0
 77
     0
 78
     0
  0
ENDTAB
  0
TABLE
  2
LTYPE
  5
5
330
0
100
AcDbSymbolTable
 70
     1
  0
LTYPE
  5
14
330
5
100
AcDbSymbolTableRecord
100
AcDbLinetypeTableRecord
  2
BYBLOCK
 70
     0
  3

 72
    65
 73
     0
 40
0.0
  0
LTYPE
  5
15
330
5
100
AcDbSymbolTableRecord
100
AcDbLinetypeTableRecord
  2
BYLAYER
 70
     0
  3

 72
    65
 73
     0
 40
0.0
  0
LTYPE
  5
16
330
5
100
AcDbSymbolTableRecord
100
AcDbLinetypeTableRecord
  2
CONTINUOUS
 70
     0
  3
Solid line
 72
    65
 73
     0
 40
0.0
  0
ENDTAB
  0
TABLE
  2
LAYER
  5
2
100
AcDbSymbolTable
 70
4
  0
LAYER
  5
50
100
AcDbSymbolTableRecord
100
AcDbLayerTableRecord
  2
0
 70
0
  6
CONTINUOUS
  0
LAYER
  5
51
100
AcDbSymbolTableRecord
100
AcDbLayerTableRecord
  2
Board
 70
0
  6
CONTINUOUS
  0
LAYER
  5
52
100
AcDbSymbolTableRecord
100
AcDbLayerTableRecord
  2
Holes
 70
0
  6
CONTINUOUS
  0
LAYER
  5
53
100
AcDbSymbolTableRecord
100
AcDbLayerTableRecord
  2
Raster_fill
 70
0
  6
CONTINUOUS
  0
ENDTAB
  0
TABLE
  2
STYLE
  5
3
330
0
100
AcDbSymbolTable
 70
     1
  0
STYLE
  5
11
330
3
100
AcDbSymbolTableRecord
100
AcDbTextStyleTableRecord
  2
STANDARD
 70
     0
 40
0.0
 41
1.0
 50
0.0
 71
     0
 42
2.5
  3
txt
  4

  0
ENDTAB
  0
TABLE
  2
VIEW
  5
6
330
0
100
AcDbSymbolTable
 70
     0
  0
ENDTAB
  0
TABLE
  2
UCS
  5
7
330
0
100
AcDbSymbolTable
 70
     0
  0
ENDTAB
  0
TABLE
  2
APPID
  5
9
330
0
100
AcDbSymbolTable
 70
     2
  0
APPID
  5
12
330
9
100
AcDbSymbolTableRecord
100
AcDbRegAppTableRecord
  2
ACAD
 70
     0
  0
ENDTAB
  0
TABLE
  2
DIMSTYLE
  5
A
330
0
100
AcDbSymbolTable
 70
     1
  0
DIMSTYLE
105
27
330
A
100
AcDbSymbolTableRecord
100
AcDbDimStyleTableRecord
  2
ISO-25
 70
     0
  3

  4

  5

  6

  7

 40
1.0
 41
2.5
 42
0.625
 43
3.75
 44
1.25
 45
0.0
 46
0.0
 47
0.0
 48
0.0
140
2.5
141
2.5
142
0.0
143
0.03937007874016
144
1.0
145
0.0
146
1.0
147
0.625
 71
     0
 72
     0
 73
     0
 74
     0
 75
     0
 76
     0
 77
     1
 78
     8
170
     0
171
     3
172
     1
173
     0
174
     0
175
     0
176
     0
177
     0
178
     0
270
     2
271
     2
272
     2
273
     2
274
     3
340
11
275
     0
280
     0
281
     0
282
     0
283
     0
284
     8
285
     0
286
     0
287
     3
288
     0
  0
ENDTAB
  0
TABLE
  2
BLOCK_RECORD
  5
1
330
0
100
AcDbSymbolTable
 70
     1
  0
BLOCK_RECORD
  5
1F
330
1
100
AcDbSymbolTableRecord
100
AcDbBlockTableRecord
  2
*MODEL_SPACE
  0
BLOCK_RECORD
  5
1B
330
1
100
AcDbSymbolTableRecord
100
AcDbBlockTableRecord
  2
*PAPER_SPACE
  0
ENDTAB
  0
ENDSEC
  0
SECTION
  2
BLOCKS
  0
BLOCK
  5
20
330
1F
100
AcDbEntity
  8
0
100
AcDbBlockBegin
  2
*MODEL_SPACE
 70
     0
 10
0.0
 20
0.0
 30
0.0
  3
*MODEL_SPACE
  1

  0
ENDBLK
  5
21
330
1F
100
AcDbEntity
  8
0
100
AcDbBlockEnd
  0
BLOCK
  5
1C
330
1B
100
AcDbEntity
 67
     1
  8
0
100
AcDbBlockBegin
  2
*PAPER_SPACE
  1

  0
ENDBLK
  5
1D
330
1B
100
AcDbEntity
 67
     1
  8
0
100
AcDbBlockEnd
  0
ENDSEC
  0
SECTION
  2
ENTITIES
  0
LWPOLYLINE
  5
100
100
AcDbEntity
  8
Raster_fill
 62
7
100
AcDbPolyline
 90
421
 70
1
 10
-64.089629
 20
21.421986
 30
0.0
 10
-65.162949
 20
21.390474
 30
0.0
 10
-66.157718
 20
21.310887
 30
0.0
 10
-67.155073
 20
21.182220
 30
0.0
 10
-68.153463
 20
21.002886
 30
0.0
 10
-69.151852
 20
20.772407
 30
0.0
 10
-70.148172
 20
20.490255
 30
0.0
 10
-71.141394
 20
20.154870
 30
0.0
 10
-72.129965
 20
19.765747
 30
0.0
 10
-73.112334
 20
19.321855
 30
0.0
 10
-73.314388
 20
19.154427
 30
0.0
 10
-73.403272
 20
18.907412
 30
0.0
 10
-73.355729
 20
18.649549
 30
0.0
 10
-73.183647
 20
18.451641
 30
0.0
 10
-72.935084
 20
18.367398
 30
0.0
 10
-72.678250
 20
18.421134
 30
0.0
 10
-71.426131
 20
18.974590
 30
0.0
 10
-70.164709
 20
19.436076
 30
0.0
 10
-68.898119
 20
19.807630
 30
0.0
 10
-67.628431
 20
20.090814
 30
0.0
 10
-66.359257
 20
20.288220
 30
0.0
 10
-65.094218
 20
20.400853
 30
0.0
 10
-63.835896
 20
20.431862
 30
0.0
 10
-62.587910
 20
20.382782
 30
0.0
 10
-61.352845
 20
20.255649
 30
0.0
 10
-60.134831
 20
20.052053
 30
0.0
 10
-58.936453
 20
19.775060
 30
0.0
 10
-57.760814
 20
19.425202
 30
0.0
 10
-56.611531
 20
19.006128
 30
0.0
 10
-55.491703
 20
18.518289
 30
0.0
 10
-54.404432
 20
17.964834
 30
0.0
 10
-53.352816
 20
17.347296
 30
0.0
 10
-52.340476
 20
16.668270
 30
0.0
 10
-51.369992
 20
15.928786
 30
0.0
 10
-50.444982
 20
15.130908
 30
0.0
 10
-49.568034
 20
14.277733
 30
0.0
 10
-48.743277
 20
13.370291
 30
0.0
 10
-47.973300
 20
12.410648
 30
0.0
 10
-47.261714
 20
11.401421
 30
0.0
 10
-46.611625
 20
10.344120
 30
0.0
 10
-46.025615
 20
9.241336
 30
0.0
 10
-45.507299
 20
8.094129
 30
0.0
 10
-45.060298
 20
6.905039
 30
0.0
 10
-44.687194
 20
5.676182
 30
0.0
 10
-44.391606
 20
4.409595
 30
0.0
 10
-44.176633
 20
3.106839
 30
0.0
 10
-44.044857
 20
1.770482
 30
0.0
 10
-44.000415
 20
0.402083
 30
0.0
 10
-44.041756
 20
-0.881569
 30
0.0
 10
-44.163713
 20
-2.150722
 30
0.0
 10
-44.365251
 20
-3.401831
 30
0.0
 10
-44.643786
 20
-4.631720
 30
0.0
 10
-44.997770
 20
-5.836818
 30
0.0
 10
-45.426167
 20
-7.014505
 30
0.0
 10
-45.925878
 20
-8.160706
 30
0.0
 10
-46.495869
 20
-9.272777
 30
0.0
 10
-47.134074
 20
-10.346615
 30
0.0
 10
-47.838939
 20
-11.380130
 30
0.0
 10
-48.607885
 20
-12.368719
 30
0.0
 10
-49.440394
 20
-13.310265
 30
0.0
 10
-50.333362
 20
-14.200641
 30
0.0
 10
-51.285241
 20
-15.036248
 30
0.0
 10
-52.294999
 20
-15.815023
 30
0.0
 10
-53.360050
 20
-16.532811
 30
0.0
 10
-54.469027
 20
-17.180829
 30
0.0
 10
-55.608493
 20
-17.752884
 30
0.0
 10
-56.774829
 20
-18.247946
 30
0.0
 10
-57.964419
 20
-18.666014
 30
0.0
 10
-59.173131
 20
-19.007062
 30
0.0
 10
-60.397864
 20
-19.271143
 30
0.0
 10
-61.634481
 20
-19.457674
 30
0.0
 10
-62.879367
 20
-19.566735
 30
0.0
 10
-64.128385
 20
-19.597718
 30
0.0
 10
-65.377923
 20
-19.550701
 30
0.0
 10
-66.624356
 20
-19.425659
 30
0.0
 10
-67.864075
 20
-19.221533
 30
0.0
 10
-69.092940
 20
-18.938852
 30
0.0
 10
-70.307338
 20
-18.577643
 30
0.0
 10
-71.503646
 20
-18.136847
 30
0.0
 10
-72.678250
 20
-17.616968
 30
0.0
 10
-72.932499
 20
-17.568919
 30
0.0
 10
-73.176929
 20
-17.654168
 30
0.0
 10
-73.345910
 20
-17.850542
 30
0.0
 10
-73.393969
 20
-18.104806
 30
0.0
 10
-73.308705
 20
-18.349229
 30
0.0
 10
-73.112334
 20
-18.518218
 30
0.0
 10
-71.879333
 20
-19.063921
 30
0.0
 10
-70.623597
 20
-19.526413
 30
0.0
 10
-69.348223
 20
-19.906249
 30
0.0
 10
-68.057861
 20
-20.202873
 30
0.0
 10
-66.756132
 20
-20.416789
 30
0.0
 10
-65.447169
 20
-20.548048
 30
0.0
 10
-64.135103
 20
-20.597658
 30
0.0
 10
-62.823040
 20
-20.564585
 30
0.0
 10
-61.516141
 20
-20.450391
 30
0.0
 10
-60.217513
 20
-20.254546
 30
0.0
 10
-58.931805
 20
-19.977025
 30
0.0
 10
-57.662114
 20
-19.618911
 30
0.0
 10
-56.413093
 20
-19.179676
 30
0.0
 10
-55.188363
 20
-18.659796
 30
0.0
 10
-53.992052
 20
-18.059827
 30
0.0
 10
-52.827783
 20
-17.379266
 30
0.0
 10
-51.709505
 20
-16.625812
 30
0.0
 10
-50.649621
 20
-15.808302
 30
0.0
 10
-49.650200
 20
-14.930309
 30
0.0
 10
-48.712273
 20
-13.995483
 30
0.0
 10
-47.838939
 20
-13.007423
 30
0.0
 10
-47.031238
 20
-11.968749
 30
0.0
 10
-46.291230
 20
-10.884036
 30
0.0
 10
-45.620988
 20
-9.755959
 30
0.0
 10
-45.022574
 20
-8.588591
 30
0.0
 10
-44.497543
 20
-7.384525
 30
0.0
 10
-44.075345
 20
-6.223348
 30
0.0
 10
-37.317103
 20
-6.223348
 30
0.0
 10
-48.013091
 20
-21.849269
 30
0.0
 10
-54.975456
 20
-21.849269
 30
0.0
 10
-59.178301
 20
-21.849269
 30
0.0
 10
-59.229461
 20
-21.845644
 30
0.0
 10
-59.229461
 20
-21.844612
 30
0.0
 10
-59.424279
 20
-21.899910
 30
0.0
 10
-59.562257
 20
-22.048236
 30
0.0
 10
-59.572591
 20
-22.069932
 30
0.0
 10
-59.578274
 20
-22.082341
 30
0.0
 10
-59.578793
 20
-22.084907
 30
0.0
 10
-59.605148
 20
-22.205319
 30
0.0
 10
-59.591713
 20
-22.325202
 30
0.0
 10
-59.541069
 20
-22.434236
 30
0.0
 10
-59.456320
 20
-22.523639
 30
0.0
 10
-57.375309
 20
-24.604666
 30
0.0
 10
-57.375309
 20
-25.698136
 30
0.0
 10
-73.800147
 20
-25.698136
 30
0.0
 10
-73.987731
 20
-25.748249
 30
0.0
 10
-74.125190
 20
-25.885726
 30
0.0
 10
-74.175318
 20
-26.073316
 30
0.0
 10
-74.125190
 20
-26.260879
 30
0.0
 10
-73.987731
 20
-26.398356
 30
0.0
 10
-74.000135
 20
-26.398356
 30
0.0
 10
-73.150574
 20
-56.123156
 30
0.0
 10
-69.546661
 20
-59.727072
 30
0.0
 10
-69.540459
 20
-59.738423
 30
0.0
 10
-45.205510
 20
-84.073369
 30
0.0
 10
-45.196726
 20
-84.087339
 30
0.0
 10
-45.194141
 20
-84.089905
 30
0.0
 10
-45.190008
 20
-84.094562
 30
0.0
 10
-45.041180
 20
-84.181901
 30
0.0
 10
-44.868579
 20
-84.193781
 30
0.0
 10
-12.295374
 20
-84.193781
 30
0.0
 10
-12.132076
 20
-84.193781
 30
0.0
 10
-12.009603
 20
-84.193781
 30
0.0
 10
-11.893848
 20
-84.154517
 30
0.0
 10
-11.885063
 20
-84.150389
 30
0.0
 10
-11.785844
 20
-84.074401
 30
0.0
 10
-11.718148
 20
-83.973118
 30
0.0
 10
-11.686625
 20
-83.855299
 30
0.0
 10
-11.695410
 20
-83.730760
 30
0.0
 10
-11.695410
 20
-82.583024
 30
0.0
 10
-9.735323
 20
-83.957111
 30
0.0
 10
-9.689848
 20
-83.973647
 30
0.0
 10
-9.687264
 20
-83.976240
 30
0.0
 10
-9.674345
 20
-83.979336
 30
0.0
 10
-9.552905
 20
-84.023760
 30
0.0
 10
-9.518282
 20
-84.017568
 30
0.0
 10
-9.495544
 20
-84.023257
 30
0.0
 10
-0.000517
 20
-84.023257
 30
0.0
 10
9.472290
 20
-84.023257
 30
0.0
 10
9.609749
 20
-84.013944
 30
0.0
 10
9.734806
 20
-83.955550
 30
0.0
 10
11.694893
 20
-82.581992
 30
0.0
 10
11.694893
 20
-83.755578
 30
0.0
 10
11.707296
 20
-83.929727
 30
0.0
 10
11.797213
 20
-84.079587
 30
0.0
 10
11.807548
 20
-84.090435
 30
0.0
 10
11.951209
 20
-84.177774
 30
0.0
 10
12.118123
 20
-84.193781
 30
0.0
 10
12.129492
 20
-84.191214
 30
0.0
 10
44.868063
 20
-84.191214
 30
0.0
 10
44.928007
 20
-84.186558
 30
0.0
 10
45.026191
 20
-84.184997
 30
0.0
 10
45.037560
 20
-84.178276
 30
0.0
 10
45.047897
 20
-84.177244
 30
0.0
 10
45.200342
 20
-84.081121
 30
0.0
 10
45.209643
 20
-84.071305
 30
0.0
 10
45.213778
 20
-84.064082
 30
0.0
 10
69.539940
 20
-59.738423
 30
0.0
 10
69.546661
 20
-59.726040
 30
0.0
 10
73.149539
 20
-56.123156
 30
0.0
 10
73.999617
 20
-26.398356
 30
0.0
 10
73.987216
 20
-26.398356
 30
0.0
 10
74.124674
 20
-26.260879
 30
0.0
 10
74.174800
 20
-26.073316
 30
0.0
 10
74.124674
 20
-25.885726
 30
0.0
 10
73.987216
 20
-25.748249
 30
0.0
 10
73.799629
 20
-25.698136
 30
0.0
 10
57.374793
 20
-25.698136
 30
0.0
 10
57.374793
 20
-24.605698
 30
0.0
 10
59.458386
 20
-22.522105
 30
0.0
 10
59.543654
 20
-22.430109
 30
0.0
 10
59.592744
 20
-22.318481
 30
0.0
 10
59.603598
 20
-22.197064
 30
0.0
 10
59.573626
 20
-22.075620
 30
0.0
 10
59.573107
 20
-22.073027
 30
0.0
 10
59.568456
 20
-22.063740
 30
0.0
 10
59.556571
 20
-22.039452
 30
0.0
 10
59.396373
 20
-21.885438
 30
0.0
 10
59.177267
 20
-21.849269
 30
0.0
 10
54.974940
 20
-21.849269
 30
0.0
 10
48.012056
 20
-21.849269
 30
0.0
 10
37.316069
 20
-6.223348
 30
0.0
 10
44.074829
 20
-6.223348
 30
0.0
 10
44.497024
 20
-7.384525
 30
0.0
 10
45.022058
 20
-8.588061
 30
0.0
 10
45.620472
 20
-9.755959
 30
0.0
 10
46.290714
 20
-10.884036
 30
0.0
 10
47.030722
 20
-11.968749
 30
0.0
 10
47.838423
 20
-13.006921
 30
0.0
 10
48.711755
 20
-13.995483
 30
0.0
 10
49.649682
 20
-14.930309
 30
0.0
 10
50.649105
 20
-15.808302
 30
0.0
 10
51.708989
 20
-16.625812
 30
0.0
 10
52.827267
 20
-17.379266
 30
0.0
 10
53.991536
 20
-18.059325
 30
0.0
 10
55.187845
 20
-18.659796
 30
0.0
 10
56.412577
 20
-19.179676
 30
0.0
 10
57.661596
 20
-19.618911
 30
0.0
 10
58.931286
 20
-19.977025
 30
0.0
 10
60.216997
 20
-20.254546
 30
0.0
 10
61.515625
 20
-20.450391
 30
0.0
 10
62.822521
 20
-20.564585
 30
0.0
 10
64.134587
 20
-20.597155
 30
0.0
 10
65.446651
 20
-20.548048
 30
0.0
 10
66.755616
 20
-20.416286
 30
0.0
 10
68.057345
 20
-20.202344
 30
0.0
 10
69.347704
 20
-19.905719
 30
0.0
 10
70.623081
 20
-19.526413
 30
0.0
 10
71.878817
 20
-19.063921
 30
0.0
 10
73.111815
 20
-18.518218
 30
0.0
 10
73.308186
 20
-18.349229
 30
0.0
 10
73.393453
 20
-18.104806
 30
0.0
 10
73.345395
 20
-17.850542
 30
0.0
 10
73.176413
 20
-17.654168
 30
0.0
 10
72.931983
 20
-17.568919
 30
0.0
 10
72.677734
 20
-17.616968
 30
0.0
 10
71.503130
 20
-18.136847
 30
0.0
 10
70.306819
 20
-18.577643
 30
0.0
 10
69.092424
 20
-18.938852
 30
0.0
 10
67.863559
 20
-19.221533
 30
0.0
 10
66.623840
 20
-19.425130
 30
0.0
 10
65.377404
 20
-19.550701
 30
0.0
 10
64.127869
 20
-19.597718
 30
0.0
 10
62.878848
 20
-19.566735
 30
0.0
 10
61.633965
 20
-19.457674
 30
0.0
 10
60.397348
 20
-19.271143
 30
0.0
 10
59.172615
 20
-19.007062
 30
0.0
 10
57.963903
 20
-18.666014
 30
0.0
 10
56.774313
 20
-18.247417
 30
0.0
 10
55.607977
 20
-17.752355
 30
0.0
 10
54.468509
 20
-17.180829
 30
0.0
 10
53.359534
 20
-16.532811
 30
0.0
 10
52.294483
 20
-15.815023
 30
0.0
 10
51.284725
 20
-15.036248
 30
0.0
 10
50.332846
 20
-14.200139
 30
0.0
 10
49.439878
 20
-13.309736
 30
0.0
 10
48.607369
 20
-12.368719
 30
0.0
 10
47.838423
 20
-11.379627
 30
0.0
 10
47.133558
 20
-10.346615
 30
0.0
 10
46.495354
 20
-9.272777
 30
0.0
 10
45.925362
 20
-8.160706
 30
0.0
 10
45.425651
 20
-7.014002
 30
0.0
 10
44.997254
 20
-5.836818
 30
0.0
 10
44.643270
 20
-4.631191
 30
0.0
 10
44.364733
 20
-3.401831
 30
0.0
 10
44.163197
 20
-2.150722
 30
0.0
 10
44.041240
 20
-0.881569
 30
0.0
 10
43.999899
 20
0.402083
 30
0.0
 10
44.044341
 20
1.770482
 30
0.0
 10
44.176114
 20
3.106839
 30
0.0
 10
44.391088
 20
4.409595
 30
0.0
 10
44.686678
 20
5.676684
 30
0.0
 10
45.059783
 20
6.905568
 30
0.0
 10
45.506783
 20
8.094129
 30
0.0
 10
46.025096
 20
9.241336
 30
0.0
 10
46.611109
 20
10.344622
 30
0.0
 10
47.261198
 20
11.401924
 30
0.0
 10
47.972782
 20
12.411177
 30
0.0
 10
48.742761
 20
13.370291
 30
0.0
 10
49.567518
 20
14.277733
 30
0.0
 10
50.444466
 20
15.131411
 30
0.0
 10
51.369473
 20
15.928786
 30
0.0
 10
52.339957
 20
16.668270
 30
0.0
 10
53.352298
 20
17.347826
 30
0.0
 10
54.403913
 20
17.965363
 30
0.0
 10
55.491187
 20
18.518819
 30
0.0
 10
56.611015
 20
19.006128
 30
0.0
 10
57.760298
 20
19.425731
 30
0.0
 10
58.935938
 20
19.775060
 30
0.0
 10
60.134315
 20
20.052555
 30
0.0
 10
61.352327
 20
20.255649
 30
0.0
 10
62.587394
 20
20.382782
 30
0.0
 10
63.835381
 20
20.431862
 30
0.0
 10
65.093702
 20
20.401382
 30
0.0
 10
66.358741
 20
20.288220
 30
0.0
 10
67.627913
 20
20.090814
 30
0.0
 10
68.897603
 20
19.807630
 30
0.0
 10
70.164193
 20
19.436579
 30
0.0
 10
71.425615
 20
18.975119
 30
0.0
 10
72.677734
 20
18.421134
 30
0.0
 10
72.934565
 20
18.367900
 30
0.0
 10
73.183131
 20
18.451641
 30
0.0
 10
73.355213
 20
18.650078
 30
0.0
 10
73.402754
 20
18.907941
 30
0.0
 10
73.313872
 20
19.154427
 30
0.0
 10
73.111815
 20
19.321855
 30
0.0
 10
72.129446
 20
19.765747
 30
0.0
 10
71.140878
 20
20.154870
 30
0.0
 10
70.147656
 20
20.490255
 30
0.0
 10
69.151336
 20
20.772407
 30
0.0
 10
68.152947
 20
21.002886
 30
0.0
 10
67.154557
 20
21.182220
 30
0.0
 10
66.157202
 20
21.310887
 30
0.0
 10
65.162430
 20
21.390474
 30
0.0
 10
64.089111
 20
21.421986
 30
0.0
 10
63.022509
 20
21.397697
 30
0.0
 10
61.963660
 20
21.319142
 30
0.0
 10
60.915145
 20
21.186850
 30
0.0
 10
59.878516
 20
21.002383
 30
0.0
 10
58.855840
 20
20.766745
 30
0.0
 10
57.848148
 20
20.480969
 30
0.0
 10
56.858027
 20
20.146085
 30
0.0
 10
55.887027
 20
19.763683
 30
0.0
 10
54.937216
 20
19.334264
 30
0.0
 10
54.009623
 20
18.859866
 30
0.0
 10
53.106836
 20
18.341045
 30
0.0
 10
52.230404
 20
17.778805
 30
0.0
 10
51.382393
 20
17.174709
 30
0.0
 10
50.563838
 20
16.529258
 30
0.0
 10
49.777840
 20
15.844543
 30
0.0
 10
49.024916
 20
15.121092
 30
0.0
 10
48.307646
 20
14.359886
 30
0.0
 10
47.627585
 20
13.562009
 30
0.0
 10
46.986280
 20
12.729497
 30
0.0
 10
46.386316
 20
11.862881
 30
0.0
 10
45.828728
 20
10.962689
 30
0.0
 10
45.315579
 20
10.031461
 30
0.0
 10
44.848941
 20
9.068749
 30
0.0
 10
44.430363
 20
8.077064
 30
0.0
 10
44.061909
 20
7.056963
 30
0.0
 10
43.962174
 20
6.726763
 30
0.0
 10
41.066228
 20
6.726763
 30
0.0
 10
43.025280
 20
9.152965
 30
0.0
 10
38.224539
 20
9.152965
 30
0.0
 10
36.625154
 20
6.726763
 30
0.0
 10
28.451492
 20
6.726763
 30
0.0
 10
26.640750
 20
9.372067
 30
0.0
 10
26.502775
 20
9.496606
 30
0.0
 10
26.322424
 20
9.539522
 30
0.0
 10
26.129671
 20
9.482663
 30
0.0
 10
25.993762
 20
9.334364
 30
0.0
 10
25.953971
 20
9.137461
 30
0.0
 10
26.021667
 20
8.948337
 30
0.0
 10
27.542506
 20
6.726763
 30
0.0
 10
14.257528
 20
6.726763
 30
0.0
 10
13.393498
 20
9.275441
 30
0.0
 10
13.337170
 20
9.384476
 30
0.0
 10
13.250871
 20
9.467687
 30
0.0
 10
13.142867
 20
9.519863
 30
0.0
 10
13.020911
 20
9.534865
 30
0.0
 10
12.853479
 20
9.487822
 30
0.0
 10
12.725838
 20
9.370003
 30
0.0
 10
12.664343
 20
9.207231
 30
0.0
 10
12.682947
 20
9.034644
 30
0.0
 10
13.465328
 20
6.726763
 30
0.0
 10
-0.000517
 20
6.726763
 30
0.0
 10
-13.466361
 20
6.726763
 30
0.0
 10
-12.683980
 20
9.034644
 30
0.0
 10
-12.665894
 20
9.209824
 30
0.0
 10
-12.729972
 20
9.374157
 30
0.0
 10
-12.861747
 20
9.491447
 30
0.0
 10
-13.032796
 20
9.534865
 30
0.0
 10
-13.256038
 20
9.464592
 30
0.0
 10
-13.394015
 20
9.275441
 30
0.0
 10
-14.258044
 20
6.726763
 30
0.0
 10
-27.543022
 20
6.726763
 30
0.0
 10
-26.022184
 20
8.948337
 30
0.0
 10
-25.954488
 20
9.140556
 30
0.0
 10
-25.996863
 20
9.339523
 30
0.0
 10
-26.137423
 20
9.487319
 30
0.0
 10
-26.334310
 20
9.539522
 30
0.0
 10
-26.508459
 20
9.493511
 30
0.0
 10
-26.641269
 20
9.372067
 30
0.0
 10
-28.452011
 20
6.726763
 30
0.0
 10
-36.625670
 20
6.726763
 30
0.0
 10
-38.225058
 20
9.152965
 30
0.0
 10
-43.025798
 20
9.152965
 30
0.0
 10
-41.062092
 20
6.726763
 30
0.0
 10
-43.962690
 20
6.726763
 30
0.0
 10
-44.062428
 20
7.056460
 30
0.0
 10
-44.430879
 20
8.077064
 30
0.0
 10
-44.849460
 20
9.068749
 30
0.0
 10
-45.316098
 20
10.030959
 30
0.0
 10
-45.829244
 20
10.962689
 30
0.0
 10
-46.386832
 20
11.862378
 30
0.0
 10
-46.986796
 20
12.729497
 30
0.0
 10
-47.628101
 20
13.562009
 30
0.0
 10
-48.308162
 20
14.359383
 30
0.0
 10
-49.025432
 20
15.120563
 30
0.0
 10
-49.778356
 20
15.844543
 30
0.0
 10
-50.564357
 20
16.529258
 30
0.0
 10
-51.382909
 20
17.174709
 30
0.0
 10
-52.230920
 20
17.778805
 30
0.0
 10
-53.107352
 20
18.341045
 30
0.0
 10
-54.010139
 20
18.859866
 30
0.0
 10
-54.937216
 20
19.334264
 30
0.0
 10
-55.887546
 20
19.763180
 30
0.0
 10
-56.858546
 20
20.146085
 30
0.0
 10
-57.848664
 20
20.480439
 30
0.0
 10
-58.856356
 20
20.766216
 30
0.0
 10
-59.879032
 20
21.002383
 30
0.0
 10
-60.915661
 20
21.186850
 30
0.0
 10
-61.964176
 20
21.319142
 30
0.0
 10
-63.023028
 20
21.397697
 30
0.0
 10
-64.089629
 20
21.421986
 30
0.0
  0
LWPOLYLINE
  5
101
100
AcDbEntity
  8
Raster_fill
 62
7
100
AcDbPolyline
 90
132
 70
1
 10
-63.194076
 20
18.525010
 30
0.0
 10
-63.194076
 20
18.523978
 30
0.0
 10
-64.790360
 20
18.523978
 30
0.0
 10
-66.403183
 20
18.377214
 30
0.0
 10
-68.026338
 20
18.080086
 30
0.0
 10
-69.651562
 20
17.626882
 30
0.0
 10
-69.738896
 20
17.532293
 30
0.0
 10
-69.699105
 20
17.409818
 30
0.0
 10
-69.572497
 20
17.385555
 30
0.0
 10
-68.503829
 20
17.700780
 30
0.0
 10
-67.434643
 20
17.947266
 30
0.0
 10
-66.368041
 20
18.126071
 30
0.0
 10
-65.306091
 20
18.238731
 30
0.0
 10
-64.249824
 20
18.287308
 30
0.0
 10
-63.202860
 20
18.272306
 30
0.0
 10
-62.166749
 20
18.196344
 30
0.0
 10
-61.143555
 20
18.060428
 30
0.0
 10
-60.135347
 20
17.866647
 30
0.0
 10
-59.144710
 20
17.615505
 30
0.0
 10
-58.173194
 20
17.309064
 30
0.0
 10
-57.223898
 20
16.949390
 30
0.0
 10
-56.298372
 20
16.537010
 30
0.0
 10
-55.398686
 20
16.073989
 30
0.0
 10
-54.527421
 20
15.562391
 30
0.0
 10
-53.686128
 20
15.002744
 30
0.0
 10
-52.877910
 20
14.397086
 30
0.0
 10
-52.104314
 20
13.746476
 30
0.0
 10
-51.367407
 20
13.053506
 30
0.0
 10
-50.669775
 20
12.318679
 30
0.0
 10
-50.012968
 20
11.544031
 30
0.0
 10
-49.400084
 20
10.731179
 30
0.0
 10
-48.832161
 20
9.881099
 30
0.0
 10
-48.312298
 20
8.995882
 30
0.0
 10
-47.842559
 20
8.077064
 30
0.0
 10
-47.424496
 20
7.125701
 30
0.0
 10
-47.061210
 20
6.143330
 30
0.0
 10
-46.753735
 20
5.132040
 30
0.0
 10
-46.505172
 20
4.093338
 30
0.0
 10
-46.317585
 20
3.028285
 30
0.0
 10
-46.192530
 20
1.938413
 30
0.0
 10
-46.132586
 20
0.825840
 30
0.0
 10
-46.139820
 20
-0.288823
 30
0.0
 10
-46.213199
 20
-1.382822
 30
0.0
 10
-46.350658
 20
-2.455628
 30
0.0
 10
-46.549614
 20
-3.505177
 30
0.0
 10
-46.808512
 20
-4.529909
 30
0.0
 10
-47.125805
 20
-5.528314
 30
0.0
 10
-47.497876
 20
-6.498276
 30
0.0
 10
-47.924207
 20
-7.438262
 30
0.0
 10
-48.401698
 20
-8.347264
 30
0.0
 10
-48.928279
 20
-9.223167
 30
0.0
 10
-49.502404
 20
-10.064463
 30
0.0
 10
-50.121489
 20
-10.869061
 30
0.0
 10
-50.783979
 20
-11.635929
 30
0.0
 10
-51.487298
 20
-12.363031
 30
0.0
 10
-52.229369
 20
-13.049280
 30
0.0
 10
-53.008133
 20
-13.692668
 30
0.0
 10
-53.821520
 20
-14.291076
 30
0.0
 10
-54.667981
 20
-14.844002
 30
0.0
 10
-55.544413
 20
-15.348880
 30
0.0
 10
-56.449786
 20
-15.804175
 30
0.0
 10
-57.380994
 20
-16.208776
 30
0.0
 10
-58.337008
 20
-16.560698
 30
0.0
 10
-59.314726
 20
-16.857852
 30
0.0
 10
-60.312080
 20
-17.099681
 30
0.0
 10
-61.328041
 20
-17.283672
 30
0.0
 10
-62.359500
 20
-17.408714
 30
0.0
 10
-63.404914
 20
-17.472796
 30
0.0
 10
-64.461700
 20
-17.475389
 30
0.0
 10
-65.528301
 20
-17.412842
 30
0.0
 10
-66.602136
 20
-17.284704
 30
0.0
 10
-67.681139
 20
-17.088833
 30
0.0
 10
-68.763761
 20
-16.824250
 30
0.0
 10
-68.891920
 20
-16.852666
 30
0.0
 10
-68.927059
 20
-16.978766
 30
0.0
 10
-68.831457
 20
-17.068672
 30
0.0
 10
-67.734368
 20
-17.336880
 30
0.0
 10
-66.639861
 20
-17.535317
 30
0.0
 10
-65.551555
 20
-17.665042
 30
0.0
 10
-64.469968
 20
-17.728066
 30
0.0
 10
-63.398715
 20
-17.725500
 30
0.0
 10
-62.338831
 20
-17.660386
 30
0.0
 10
-61.292899
 20
-17.533254
 30
0.0
 10
-60.262471
 20
-17.346696
 30
0.0
 10
-59.250646
 20
-17.101242
 30
0.0
 10
-58.258977
 20
-16.799458
 30
0.0
 10
-57.290044
 20
-16.442376
 30
0.0
 10
-56.345397
 20
-16.032061
 30
0.0
 10
-55.427107
 20
-15.570072
 30
0.0
 10
-54.538274
 20
-15.057441
 30
0.0
 10
-53.679929
 20
-14.497266
 30
0.0
 10
-52.854138
 20
-13.889544
 30
0.0
 10
-52.064005
 20
-13.237399
 30
0.0
 10
-51.311080
 20
-12.541307
 30
0.0
 10
-50.597946
 20
-11.803887
 30
0.0
 10
-49.926153
 20
-11.026170
 30
0.0
 10
-49.297767
 20
-10.209666
 30
0.0
 10
-48.715372
 20
-9.357020
 30
0.0
 10
-48.180522
 20
-8.468681
 30
0.0
 10
-47.696313
 20
-7.547296
 30
0.0
 10
-47.264299
 20
-6.593870
 30
0.0
 10
-46.886027
 20
-5.610467
 30
0.0
 10
-46.564600
 20
-4.598118
 30
0.0
 10
-46.301567
 20
-3.559444
 30
0.0
 10
-46.099513
 20
-2.495422
 30
0.0
 10
-45.959985
 20
-1.407614
 30
0.0
 10
-45.885571
 20
-0.298639
 30
0.0
 10
-45.878337
 20
0.830999
 30
0.0
 10
-45.922779
 20
1.749289
 30
0.0
 10
-46.010629
 20
2.652603
 30
0.0
 10
-46.141370
 20
3.539354
 30
0.0
 10
-46.313968
 20
4.409595
 30
0.0
 10
-46.526360
 20
5.261738
 30
0.0
 10
-46.778024
 20
6.095282
 30
0.0
 10
-47.067928
 20
6.909696
 30
0.0
 10
-47.394524
 20
7.703975
 30
0.0
 10
-47.756776
 20
8.477034
 30
0.0
 10
-48.153132
 20
9.228425
 30
0.0
 10
-48.583080
 20
9.957061
 30
0.0
 10
-49.045069
 20
10.661911
 30
0.0
 10
-50.060511
 20
11.997765
 30
0.0
 10
-51.189641
 20
13.229216
 30
0.0
 10
-52.423158
 20
14.350070
 30
0.0
 10
-53.752274
 20
15.352603
 30
0.0
 10
-55.167175
 20
16.231601
 30
0.0
 10
-56.658039
 20
16.978838
 30
0.0
 10
-58.215567
 20
17.588623
 30
0.0
 10
-59.830457
 20
18.054237
 30
0.0
 10
-60.656245
 20
18.230449
 30
0.0
 10
-61.492887
 20
18.368429
 30
0.0
 10
-62.339347
 20
18.467119
 30
0.0
 10
-63.194076
 20
18.525010
 30
0.0
  0
LWPOLYLINE
  5
102
100
AcDbEntity
  8
Raster_fill
 62
7
100
AcDbPolyline
 90
133
 70
1
 10
63.193041
 20
18.523978
 30
0.0
 10
62.338315
 20
18.465584
 30
0.0
 10
61.491855
 20
18.367398
 30
0.0
 10
60.655213
 20
18.229417
 30
0.0
 10
59.829422
 20
18.053205
 30
0.0
 10
58.214535
 20
17.587591
 30
0.0
 10
56.657007
 20
16.977806
 30
0.0
 10
55.166141
 20
16.230067
 30
0.0
 10
53.751758
 20
15.351571
 30
0.0
 10
52.422639
 20
14.348509
 30
0.0
 10
51.188607
 20
13.228184
 30
0.0
 10
50.059476
 20
11.996734
 30
0.0
 10
49.044550
 20
10.660879
 30
0.0
 10
48.582564
 20
9.956029
 30
0.0
 10
48.152616
 20
9.227393
 30
0.0
 10
47.756257
 20
8.476003
 30
0.0
 10
47.394006
 20
7.702943
 30
0.0
 10
47.067412
 20
6.908664
 30
0.0
 10
46.777508
 20
6.094250
 30
0.0
 10
46.525841
 20
5.260706
 30
0.0
 10
46.313452
 20
4.408034
 30
0.0
 10
46.140852
 20
3.538322
 30
0.0
 10
46.010110
 20
2.651042
 30
0.0
 10
45.922261
 20
1.748257
 30
0.0
 10
45.877819
 20
0.829968
 30
0.0
 10
45.885055
 20
-0.299671
 30
0.0
 10
45.959469
 20
-1.409175
 30
0.0
 10
46.098994
 20
-2.496454
 30
0.0
 10
46.301049
 20
-3.560475
 30
0.0
 10
46.564082
 20
-4.599150
 30
0.0
 10
46.885511
 20
-5.611499
 30
0.0
 10
47.263783
 20
-6.594902
 30
0.0
 10
47.695797
 20
-7.548328
 30
0.0
 10
48.180006
 20
-8.469713
 30
0.0
 10
48.714856
 20
-9.358052
 30
0.0
 10
49.297249
 20
-10.211227
 30
0.0
 10
49.925634
 20
-11.027202
 30
0.0
 10
50.597430
 20
-11.804919
 30
0.0
 10
51.310564
 20
-12.542339
 30
0.0
 10
52.063489
 20
-13.238431
 30
0.0
 10
52.853622
 20
-13.891105
 30
0.0
 10
53.679410
 20
-14.498297
 30
0.0
 10
54.537756
 20
-15.058976
 30
0.0
 10
55.426591
 20
-15.571104
 30
0.0
 10
56.344881
 20
-16.033092
 30
0.0
 10
57.289525
 20
-16.443408
 30
0.0
 10
58.258459
 20
-16.800490
 30
0.0
 10
59.250130
 20
-17.102274
 30
0.0
 10
60.261955
 20
-17.347728
 30
0.0
 10
61.292383
 20
-17.534815
 30
0.0
 10
62.338315
 20
-17.661418
 30
0.0
 10
63.398196
 20
-17.726532
 30
0.0
 10
64.469449
 20
-17.729098
 30
0.0
 10
65.551037
 20
-17.666074
 30
0.0
 10
66.639342
 20
-17.536349
 30
0.0
 10
67.733849
 20
-17.337912
 30
0.0
 10
68.830941
 20
-17.070233
 30
0.0
 10
68.926543
 20
-16.979798
 30
0.0
 10
68.891401
 20
-16.853724
 30
0.0
 10
68.763245
 20
-16.825811
 30
0.0
 10
67.680623
 20
-17.090394
 30
0.0
 10
66.601620
 20
-17.285736
 30
0.0
 10
65.527783
 20
-17.413874
 30
0.0
 10
64.461181
 20
-17.476421
 30
0.0
 10
63.404398
 20
-17.473828
 30
0.0
 10
62.358984
 20
-17.409746
 30
0.0
 10
61.327522
 20
-17.284704
 30
0.0
 10
60.311564
 20
-17.100713
 30
0.0
 10
59.313691
 20
-16.859386
 30
0.0
 10
58.335974
 20
-16.561730
 30
0.0
 10
57.380476
 20
-16.209834
 30
0.0
 10
56.449267
 20
-15.805207
 30
0.0
 10
55.543897
 20
-15.349938
 30
0.0
 10
54.667465
 20
-14.845060
 30
0.0
 10
53.821005
 20
-14.292637
 30
0.0
 10
53.007101
 20
-13.693700
 30
0.0
 10
52.228337
 20
-13.050339
 30
0.0
 10
51.486263
 20
-12.364592
 30
0.0
 10
50.782948
 20
-11.636987
 30
0.0
 10
50.120455
 20
-10.870093
 30
0.0
 10
49.501372
 20
-10.065495
 30
0.0
 10
48.927247
 20
-9.224199
 30
0.0
 10
48.400663
 20
-8.348296
 30
0.0
 10
47.923172
 20
-7.439823
 30
0.0
 10
47.496841
 20
-6.499308
 30
0.0
 10
47.124773
 20
-5.529346
 30
0.0
 10
46.807996
 20
-4.531470
 30
0.0
 10
46.548580
 20
-3.506712
 30
0.0
 10
46.349626
 20
-2.457163
 30
0.0
 10
46.212167
 20
-1.384383
 30
0.0
 10
46.138785
 20
-0.289855
 30
0.0
 10
46.131551
 20
0.824279
 30
0.0
 10
46.191495
 20
1.937381
 30
0.0
 10
46.316553
 20
3.027253
 30
0.0
 10
46.504138
 20
4.092306
 30
0.0
 10
46.752701
 20
5.130981
 30
0.0
 10
47.060175
 20
6.142298
 30
0.0
 10
47.423462
 20
7.124140
 30
0.0
 10
47.841524
 20
8.075529
 30
0.0
 10
48.311263
 20
8.994850
 30
0.0
 10
48.831127
 20
9.880067
 30
0.0
 10
49.399052
 20
10.730147
 30
0.0
 10
50.011933
 20
11.543000
 30
0.0
 10
50.668743
 20
12.317647
 30
0.0
 10
51.366372
 20
13.052474
 30
0.0
 10
52.103279
 20
13.745444
 30
0.0
 10
52.876876
 20
14.395552
 30
0.0
 10
53.685096
 20
15.001183
 30
0.0
 10
54.526386
 20
15.560856
 30
0.0
 10
55.397651
 20
16.072957
 30
0.0
 10
56.297338
 20
16.535978
 30
0.0
 10
57.222864
 20
16.947855
 30
0.0
 10
58.172159
 20
17.308032
 30
0.0
 10
59.143678
 20
17.614473
 30
0.0
 10
60.134315
 20
17.865113
 30
0.0
 10
61.142520
 20
18.059396
 30
0.0
 10
62.165714
 20
18.195313
 30
0.0
 10
63.201828
 20
18.271274
 30
0.0
 10
64.248792
 20
18.285747
 30
0.0
 10
65.305059
 20
18.237699
 30
0.0
 10
66.367009
 20
18.125039
 30
0.0
 10
67.433611
 20
17.945705
 30
0.0
 10
68.502795
 20
17.699748
 30
0.0
 10
69.571465
 20
17.383994
 30
0.0
 10
69.668615
 20
17.391217
 30
0.0
 10
69.731660
 20
17.465115
 30
0.0
 10
69.724942
 20
17.561768
 30
0.0
 10
69.651047
 20
17.625321
 30
0.0
 10
68.025822
 20
18.078525
 30
0.0
 10
66.402664
 20
18.376182
 30
0.0
 10
64.789328
 20
18.522946
 30
0.0
 10
63.193041
 20
18.522946
 30
0.0
 10
63.193041
 20
18.523978
 30
0.0
  0
LWPOLYLINE
  5
103
100
AcDbEntity
  8
Raster_fill
 62
7
100
AcDbPolyline
 90
318
 70
1
 10
-64.007979
 20
17.732821
 30
0.0
 10
-64.201765
 20
17.690435
 30
0.0
 10
-64.359380
 20
17.581400
 30
0.0
 10
-64.463766
 20
17.420692
 30
0.0
 10
-64.500456
 20
17.225853
 30
0.0
 10
-64.500456
 20
14.923687
 30
0.0
 10
-64.496320
 20
14.907150
 30
0.0
 10
-65.068379
 20
14.890085
 30
0.0
 10
-66.327218
 20
14.741786
 30
0.0
 10
-66.714275
 20
14.661670
 30
0.0
 10
-66.917364
 20
15.683835
 30
0.0
 10
-66.961803
 20
15.758765
 30
0.0
 10
-67.043969
 20
15.787710
 30
0.0
 10
-67.141638
 20
15.740164
 30
0.0
 10
-67.166961
 20
15.634225
 30
0.0
 10
-66.962838
 20
14.609997
 30
0.0
 10
-67.569519
 20
14.484425
 30
0.0
 10
-68.787015
 20
14.118560
 30
0.0
 10
-69.442272
 20
13.857072
 30
0.0
 10
-69.864470
 20
14.876644
 30
0.0
 10
-69.911494
 20
14.935037
 30
0.0
 10
-69.983842
 20
14.956760
 30
0.0
 10
-70.088744
 20
14.898869
 30
0.0
 10
-70.099081
 20
14.779489
 30
0.0
 10
-69.677918
 20
13.763013
 30
0.0
 10
-69.972989
 20
13.645194
 30
0.0
 10
-71.119690
 20
13.065915
 30
0.0
 10
-71.695881
 20
12.706769
 30
0.0
 10
-72.298946
 20
13.609025
 30
0.0
 10
-72.406433
 20
13.667419
 30
0.0
 10
-72.518572
 20
13.599209
 30
0.0
 10
-72.510303
 20
13.467949
 30
0.0
 10
-71.911890
 20
12.572388
 30
0.0
 10
-72.219881
 20
12.380670
 30
0.0
 10
-73.265295
 20
11.591577
 30
0.0
 10
-73.343844
 20
11.486167
 30
0.0
 10
-73.357796
 20
11.355410
 30
0.0
 10
-73.303535
 20
11.235527
 30
0.0
 10
-73.196048
 20
11.160095
 30
0.0
 10
-73.064791
 20
11.149220
 30
0.0
 10
-72.946450
 20
11.206582
 30
0.0
 10
-72.142884
 20
11.824649
 30
0.0
 10
-71.305208
 20
12.378104
 30
0.0
 10
-70.436528
 20
12.866445
 30
0.0
 10
-69.541491
 20
13.289673
 30
0.0
 10
-68.622685
 20
13.646755
 30
0.0
 10
-67.684240
 20
13.937690
 30
0.0
 10
-66.729777
 20
14.161978
 30
0.0
 10
-65.762910
 20
14.318558
 30
0.0
 10
-64.787777
 20
14.407934
 30
0.0
 10
-64.033818
 20
14.423968
 30
0.0
 10
-64.000227
 20
14.414655
 30
0.0
 10
-63.960954
 20
14.425529
 30
0.0
 10
-63.807475
 20
14.428625
 30
0.0
 10
-62.826138
 20
14.381079
 30
0.0
 10
-61.847389
 20
14.264292
 30
0.0
 10
-60.874836
 20
14.077734
 30
0.0
 10
-59.912104
 20
13.820903
 30
0.0
 10
-58.962809
 20
13.493799
 30
0.0
 10
-58.030565
 20
13.095892
 30
0.0
 10
-57.129331
 20
12.631839
 30
0.0
 10
-56.272017
 20
12.109367
 30
0.0
 10
-55.460696
 20
11.531120
 30
0.0
 10
-54.696402
 20
10.900671
 30
0.0
 10
-53.982234
 20
10.221644
 30
0.0
 10
-53.319744
 20
9.496104
 30
0.0
 10
-52.710477
 20
8.727674
 30
0.0
 10
-52.157540
 20
7.919981
 30
0.0
 10
-51.661962
 20
7.075060
 30
0.0
 10
-51.225815
 20
6.197067
 30
0.0
 10
-50.851160
 20
5.288620
 30
0.0
 10
-50.540584
 20
4.353265
 30
0.0
 10
-50.295122
 20
3.393621
 30
0.0
 10
-50.117872
 20
2.413340
 30
0.0
 10
-50.009867
 20
1.414935
 30
0.0
 10
-49.973177
 20
0.402083
 30
0.0
 10
-50.009867
 20
-0.610768
 30
0.0
 10
-50.117872
 20
-1.609173
 30
0.0
 10
-50.295122
 20
-2.589455
 30
0.0
 10
-50.540584
 20
-3.549098
 30
0.0
 10
-50.851160
 20
-4.484453
 30
0.0
 10
-51.225815
 20
-5.392900
 30
0.0
 10
-51.661962
 20
-6.270894
 30
0.0
 10
-52.157540
 20
-7.115814
 30
0.0
 10
-52.710477
 20
-7.923507
 30
0.0
 10
-53.319744
 20
-8.691937
 30
0.0
 10
-53.982234
 20
-9.417477
 30
0.0
 10
-54.696402
 20
-10.096504
 30
0.0
 10
-55.460696
 20
-10.726953
 30
0.0
 10
-56.272017
 20
-11.305200
 30
0.0
 10
-57.129331
 20
-11.827673
 30
0.0
 10
-58.030565
 20
-12.291725
 30
0.0
 10
-58.962809
 20
-12.689632
 30
0.0
 10
-59.912104
 20
-13.016737
 30
0.0
 10
-60.874836
 20
-13.273568
 30
0.0
 10
-61.847389
 20
-13.460125
 30
0.0
 10
-62.826138
 20
-13.576912
 30
0.0
 10
-63.807475
 20
-13.624458
 30
0.0
 10
-63.961986
 20
-13.621362
 30
0.0
 10
-64.007979
 20
-13.612578
 30
0.0
 10
-64.040020
 20
-13.619801
 30
0.0
 10
-64.787777
 20
-13.603768
 30
0.0
 10
-65.762910
 20
-13.514894
 30
0.0
 10
-66.729777
 20
-13.357811
 30
0.0
 10
-67.684240
 20
-13.134053
 30
0.0
 10
-68.622685
 20
-12.843091
 30
0.0
 10
-69.541491
 20
-12.486009
 30
0.0
 10
-70.436528
 20
-12.062781
 30
0.0
 10
-71.305208
 20
-11.574440
 30
0.0
 10
-72.142884
 20
-11.020985
 30
0.0
 10
-72.946450
 20
-10.402944
 30
0.0
 10
-73.064791
 20
-10.345583
 30
0.0
 10
-73.196048
 20
-10.355928
 30
0.0
 10
-73.303535
 20
-10.431890
 30
0.0
 10
-73.357796
 20
-10.551772
 30
0.0
 10
-73.343844
 20
-10.682503
 30
0.0
 10
-73.265295
 20
-10.787940
 30
0.0
 10
-72.433304
 20
-11.427676
 30
0.0
 10
-71.913440
 20
-11.770814
 30
0.0
 10
-72.510303
 20
-12.664312
 30
0.0
 10
-72.518572
 20
-12.790915
 30
0.0
 10
-72.412635
 20
-12.861717
 30
0.0
 10
-72.298946
 20
-12.805387
 30
0.0
 10
-71.701567
 20
-11.910858
 30
0.0
 10
-71.565659
 20
-12.000790
 30
0.0
 10
-70.666488
 20
-12.506699
 30
0.0
 10
-69.738896
 20
-12.944400
 30
0.0
 10
-69.681534
 20
-12.966598
 30
0.0
 10
-70.484587
 20
-14.905518
 30
0.0
 10
-70.468051
 20
-15.031592
 30
0.0
 10
-70.350227
 20
-15.080169
 30
0.0
 10
-70.249460
 20
-15.002673
 30
0.0
 10
-69.444857
 20
-13.058594
 30
0.0
 10
-68.787534
 20
-13.314393
 30
0.0
 10
-67.815500
 20
-13.615674
 30
0.0
 10
-66.964904
 20
-13.815143
 30
0.0
 10
-67.166961
 20
-14.830059
 30
0.0
 10
-67.147840
 20
-14.925652
 30
0.0
 10
-67.066708
 20
-14.979416
 30
0.0
 10
-66.971622
 20
-14.960816
 30
0.0
 10
-66.917364
 20
-14.879668
 30
0.0
 10
-66.715825
 20
-13.865785
 30
0.0
 10
-65.825439
 20
-14.010485
 30
0.0
 10
-64.815683
 20
-14.102454
 30
0.0
 10
-64.498389
 20
-14.109175
 30
0.0
 10
-64.500456
 20
-14.119520
 30
0.0
 10
-64.500456
 20
-16.421686
 30
0.0
 10
-64.436376
 20
-16.675421
 30
0.0
 10
-64.252925
 20
-16.861979
 30
0.0
 10
-64.000227
 20
-16.930718
 30
0.0
 10
-63.748047
 20
-16.861979
 30
0.0
 10
-63.564595
 20
-16.675421
 30
0.0
 10
-63.500516
 20
-16.421686
 30
0.0
 10
-63.500516
 20
-14.119520
 30
0.0
 10
-63.502585
 20
-14.109704
 30
0.0
 10
-62.784281
 20
-14.075070
 30
0.0
 10
-61.770390
 20
-13.954155
 30
0.0
 10
-61.285665
 20
-13.861128
 30
0.0
 10
-61.083092
 20
-14.879668
 30
0.0
 10
-60.999894
 20
-14.977352
 30
0.0
 10
-60.873804
 20
-14.952534
 30
0.0
 10
-60.834013
 20
-14.830059
 30
0.0
 10
-61.036068
 20
-13.813582
 30
0.0
 10
-60.762700
 20
-13.760877
 30
0.0
 10
-59.765861
 20
-13.495262
 30
0.0
 10
-58.782977
 20
-13.156781
 30
0.0
 10
-58.555599
 20
-13.059626
 30
0.0
 10
-57.750996
 20
-15.002673
 30
0.0
 10
-57.650227
 20
-15.083265
 30
0.0
 10
-57.530854
 20
-15.033655
 30
0.0
 10
-57.516387
 20
-14.905518
 30
0.0
 10
-58.322022
 20
-12.959904
 30
0.0
 10
-57.817660
 20
-12.744401
 30
0.0
 10
-56.884901
 20
-12.263812
 30
0.0
 10
-56.334546
 20
-11.928426
 30
0.0
 10
-55.701509
 20
-12.876164
 30
0.0
 10
-55.587821
 20
-12.932493
 30
0.0
 10
-55.481884
 20
-12.861717
 30
0.0
 10
-55.490152
 20
-12.735088
 30
0.0
 10
-56.117506
 20
-11.796134
 30
0.0
 10
-55.997099
 20
-11.722765
 30
0.0
 10
-55.156322
 20
-11.123828
 30
0.0
 10
-54.365157
 20
-10.471154
 30
0.0
 10
-54.250952
 20
-10.362622
 30
0.0
 10
-54.230281
 20
-10.399849
 30
0.0
 10
-52.601958
 20
-12.027645
 30
0.0
 10
-52.433493
 20
-12.129959
 30
0.0
 10
-52.236087
 20
-12.132552
 30
0.0
 10
-52.064523
 20
-12.034894
 30
0.0
 10
-51.966855
 20
-11.863312
 30
0.0
 10
-51.969437
 20
-11.665906
 30
0.0
 10
-52.071757
 20
-11.497446
 30
0.0
 10
-53.699563
 20
-9.869650
 30
0.0
 10
-53.719201
 20
-9.856209
 30
0.0
 10
-53.625668
 20
-9.767309
 30
0.0
 10
-52.939405
 20
-9.015946
 30
0.0
 10
-52.308435
 20
-8.220132
 30
0.0
 10
-52.194746
 20
-8.054238
 30
0.0
 10
-51.364825
 20
-8.609255
 30
0.0
 10
-51.236666
 20
-8.619600
 30
0.0
 10
-51.165353
 20
-8.513131
 30
0.0
 10
-51.223230
 20
-8.398408
 30
0.0
 10
-52.051604
 20
-7.844953
 30
0.0
 10
-51.735344
 20
-7.383493
 30
0.0
 10
-51.222196
 20
-6.508595
 30
0.0
 10
-50.770544
 20
-5.599090
 30
0.0
 10
-50.632569
 20
-5.264233
 30
0.0
 10
-48.657494
 20
-6.082272
 30
0.0
 10
-48.529338
 20
-6.067799
 30
0.0
 10
-48.479729
 20
-5.948446
 30
0.0
 10
-48.560344
 20
-5.847666
 30
0.0
 10
-50.535417
 20
-5.029627
 30
0.0
 10
-50.382456
 20
-4.658602
 30
0.0
 10
-50.060511
 20
-3.689645
 30
0.0
 10
-49.806778
 20
-2.695923
 30
0.0
 10
-49.781457
 20
-2.555879
 30
0.0
 10
-48.732427
 20
-2.764662
 30
0.0
 10
-48.608919
 20
-2.725371
 30
0.0
 10
-48.584115
 20
-2.598768
 30
0.0
 10
-48.683333
 20
-2.515556
 30
0.0
 10
-49.735983
 20
-2.305768
 30
0.0
 10
-49.622811
 20
-1.680479
 30
0.0
 10
-49.510672
 20
-0.646937
 30
0.0
 10
-49.490519
 20
-0.086258
 30
0.0
 10
-49.443494
 20
-0.098138
 30
0.0
 10
-47.176449
 20
-0.098138
 30
0.0
 10
-46.922716
 20
-0.034056
 30
0.0
 10
-46.736164
 20
0.149380
 30
0.0
 10
-46.667436
 20
0.402083
 30
0.0
 10
-46.736164
 20
0.654258
 30
0.0
 10
-46.922716
 20
0.837720
 30
0.0
 10
-47.176449
 20
0.901802
 30
0.0
 10
-49.443494
 20
0.901802
 30
0.0
 10
-49.490519
 20
0.889922
 30
0.0
 10
-49.510672
 20
1.451103
 30
0.0
 10
-49.622811
 20
2.484645
 30
0.0
 10
-49.735983
 20
3.109935
 30
0.0
 10
-48.683333
 20
3.319220
 30
0.0
 10
-48.605302
 20
3.368830
 30
0.0
 10
-48.581014
 20
3.457703
 30
0.0
 10
-48.623905
 20
3.539883
 30
0.0
 10
-48.711239
 20
3.570892
 30
0.0
 10
-48.732427
 20
3.568299
 30
0.0
 10
-49.781457
 20
3.359516
 30
0.0
 10
-49.806778
 20
3.500090
 30
0.0
 10
-50.060511
 20
4.493812
 30
0.0
 10
-50.382456
 20
5.462769
 30
0.0
 10
-50.535417
 20
5.833265
 30
0.0
 10
-48.560344
 20
6.651304
 30
0.0
 10
-48.495230
 20
6.709194
 30
0.0
 10
-48.482829
 20
6.795501
 30
0.0
 10
-48.529338
 20
6.869400
 30
0.0
 10
-48.612020
 20
6.896255
 30
0.0
 10
-48.657494
 20
6.885936
 30
0.0
 10
-50.632050
 20
6.067897
 30
0.0
 10
-50.770544
 20
6.403257
 30
0.0
 10
-51.222196
 20
7.312762
 30
0.0
 10
-51.735344
 20
8.187660
 30
0.0
 10
-52.051088
 20
8.648617
 30
0.0
 10
-51.223230
 20
9.202072
 30
0.0
 10
-51.172586
 20
9.265625
 30
0.0
 10
-51.171036
 20
9.346746
 30
0.0
 10
-51.219095
 20
9.412389
 30
0.0
 10
-51.296610
 20
9.435646
 30
0.0
 10
-51.364825
 20
9.413421
 30
0.0
 10
-52.194746
 20
8.858405
 30
0.0
 10
-52.308435
 20
9.024299
 30
0.0
 10
-52.939405
 20
9.820112
 30
0.0
 10
-53.625668
 20
10.571476
 30
0.0
 10
-53.720235
 20
10.661408
 30
0.0
 10
-53.699563
 20
10.673288
 30
0.0
 10
-52.071757
 20
12.301613
 30
0.0
 10
-51.965820
 20
12.496426
 30
0.0
 10
-51.988559
 20
12.716585
 30
0.0
 10
-52.131185
 20
12.886078
 30
0.0
 10
-52.344608
 20
12.944974
 30
0.0
 10
-52.484134
 20
12.913462
 30
0.0
 10
-52.601958
 20
12.831811
 30
0.0
 10
-54.230281
 20
11.204015
 30
0.0
 10
-54.251468
 20
11.166789
 30
0.0
 10
-54.365157
 20
11.274818
 30
0.0
 10
-55.156322
 20
11.927995
 30
0.0
 10
-55.997099
 20
12.526403
 30
0.0
 10
-56.117506
 20
12.599798
 30
0.0
 10
-55.490152
 20
13.538752
 30
0.0
 10
-55.482919
 20
13.671546
 30
0.0
 10
-55.598158
 20
13.738221
 30
0.0
 10
-55.701509
 20
13.680330
 30
0.0
 10
-56.335062
 20
12.732090
 30
0.0
 10
-56.884901
 20
13.067449
 30
0.0
 10
-57.817660
 20
13.548039
 30
0.0
 10
-58.319956
 20
13.768198
 30
0.0
 10
-57.516387
 20
15.709155
 30
0.0
 10
-57.527754
 20
15.830070
 30
0.0
 10
-57.635759
 20
15.886400
 30
0.0
 10
-57.705522
 20
15.863672
 30
0.0
 10
-57.750996
 20
15.806310
 30
0.0
 10
-58.553014
 20
13.869481
 30
0.0
 10
-59.272350
 20
14.138721
 30
0.0
 10
-60.013908
 20
14.372295
 30
0.0
 10
-60.762700
 20
14.564515
 30
0.0
 10
-61.035552
 20
14.619310
 30
0.0
 10
-60.834013
 20
15.634225
 30
0.0
 10
-60.860368
 20
15.741725
 30
0.0
 10
-60.960619
 20
15.787710
 30
0.0
 10
-61.040201
 20
15.757733
 30
0.0
 10
-61.083092
 20
15.683835
 30
0.0
 10
-61.284631
 20
14.669422
 30
0.0
 10
-61.517691
 20
14.716465
 30
0.0
 10
-62.276302
 20
14.827564
 30
0.0
 10
-63.038014
 20
14.897837
 30
0.0
 10
-63.502585
 20
14.916437
 30
0.0
 10
-63.500516
 20
14.923687
 30
0.0
 10
-63.500516
 20
17.225853
 30
0.0
 10
-63.537206
 20
17.421195
 30
0.0
 10
-63.647278
 20
17.586559
 30
0.0
 10
-63.812642
 20
17.696123
 30
0.0
 10
-64.007979
 20
17.732821
 30
0.0
  0
LWPOLYLINE
  5
104
100
AcDbEntity
  8
Raster_fill
 62
7
100
AcDbPolyline
 90
317
 70
1
 10
63.991961
 20
17.732821
 30
0.0
 10
63.798172
 20
17.690435
 30
0.0
 10
63.640560
 20
17.581400
 30
0.0
 10
63.536174
 20
17.420692
 30
0.0
 10
63.499484
 20
17.225853
 30
0.0
 10
63.499484
 20
14.923687
 30
0.0
 10
63.501550
 20
14.916437
 30
0.0
 10
63.037495
 20
14.897837
 30
0.0
 10
62.275786
 20
14.827564
 30
0.0
 10
61.517175
 20
14.716465
 30
0.0
 10
61.284115
 20
14.669422
 30
0.0
 10
61.082576
 20
15.683835
 30
0.0
 10
61.038134
 20
15.758765
 30
0.0
 10
60.955970
 20
15.787710
 30
0.0
 10
60.858299
 20
15.740164
 30
0.0
 10
60.833497
 20
15.634225
 30
0.0
 10
61.035033
 20
14.619310
 30
0.0
 10
60.762182
 20
14.564515
 30
0.0
 10
60.013392
 20
14.372295
 30
0.0
 10
59.271834
 20
14.138721
 30
0.0
 10
58.552498
 20
13.869481
 30
0.0
 10
57.750480
 20
15.806310
 30
0.0
 10
57.703455
 20
15.864704
 30
0.0
 10
57.631108
 20
15.886400
 30
0.0
 10
57.526206
 20
15.828535
 30
0.0
 10
57.515868
 20
15.709155
 30
0.0
 10
58.319437
 20
13.768198
 30
0.0
 10
57.817142
 20
13.548039
 30
0.0
 10
56.884382
 20
13.067449
 30
0.0
 10
56.334546
 20
12.732090
 30
0.0
 10
55.700993
 20
13.680330
 30
0.0
 10
55.593507
 20
13.738221
 30
0.0
 10
55.481368
 20
13.670011
 30
0.0
 10
55.489636
 20
13.538752
 30
0.0
 10
56.116987
 20
12.599798
 30
0.0
 10
55.996581
 20
12.526403
 30
0.0
 10
55.155806
 20
11.927466
 30
0.0
 10
54.364641
 20
11.274818
 30
0.0
 10
54.250952
 20
11.166789
 30
0.0
 10
54.229249
 20
11.204015
 30
0.0
 10
52.601439
 20
12.831811
 30
0.0
 10
52.478451
 20
12.916055
 30
0.0
 10
52.332723
 20
12.945503
 30
0.0
 10
52.123433
 20
12.881421
 30
0.0
 10
51.985458
 20
12.711400
 30
0.0
 10
51.965820
 20
12.493330
 30
0.0
 10
52.071241
 20
12.301613
 30
0.0
 10
53.699048
 20
10.673288
 30
0.0
 10
53.719719
 20
10.661408
 30
0.0
 10
53.625149
 20
10.571476
 30
0.0
 10
52.938886
 20
9.820112
 30
0.0
 10
52.307919
 20
9.024299
 30
0.0
 10
52.194230
 20
8.858405
 30
0.0
 10
51.363790
 20
9.413421
 30
0.0
 10
51.292477
 20
9.435646
 30
0.0
 10
51.215996
 20
9.410828
 30
0.0
 10
51.170004
 20
9.345212
 30
0.0
 10
51.172586
 20
9.265096
 30
0.0
 10
51.222714
 20
9.202072
 30
0.0
 10
52.051088
 20
8.648617
 30
0.0
 10
51.734826
 20
8.187130
 30
0.0
 10
51.221680
 20
7.312762
 30
0.0
 10
50.770028
 20
6.403257
 30
0.0
 10
50.631535
 20
6.067897
 30
0.0
 10
48.656978
 20
6.885936
 30
0.0
 10
48.607369
 20
6.896255
 30
0.0
 10
48.526237
 20
6.867309
 30
0.0
 10
48.482311
 20
6.793411
 30
0.0
 10
48.495230
 20
6.708665
 30
0.0
 10
48.559826
 20
6.651304
 30
0.0
 10
50.534901
 20
5.832762
 30
0.0
 10
50.381937
 20
5.462769
 30
0.0
 10
50.059992
 20
4.493812
 30
0.0
 10
49.806262
 20
3.500090
 30
0.0
 10
49.780941
 20
3.359516
 30
0.0
 10
48.731908
 20
3.568299
 30
0.0
 10
48.707104
 20
3.571395
 30
0.0
 10
48.619772
 20
3.539883
 30
0.0
 10
48.577397
 20
3.456671
 30
0.0
 10
48.602717
 20
3.367269
 30
0.0
 10
48.682299
 20
3.319220
 30
0.0
 10
49.735465
 20
3.109935
 30
0.0
 10
49.622295
 20
2.484645
 30
0.0
 10
49.510156
 20
1.451103
 30
0.0
 10
49.490003
 20
0.889922
 30
0.0
 10
49.442460
 20
0.901802
 30
0.0
 10
47.175931
 20
0.901802
 30
0.0
 10
46.922201
 20
0.837720
 30
0.0
 10
46.735648
 20
0.654258
 30
0.0
 10
46.666920
 20
0.402083
 30
0.0
 10
46.735648
 20
0.149380
 30
0.0
 10
46.922201
 20
-0.034056
 30
0.0
 10
47.175931
 20
-0.098138
 30
0.0
 10
49.442460
 20
-0.098138
 30
0.0
 10
49.490003
 20
-0.086258
 30
0.0
 10
49.510156
 20
-0.646937
 30
0.0
 10
49.622295
 20
-1.680479
 30
0.0
 10
49.735465
 20
-2.305768
 30
0.0
 10
48.682299
 20
-2.515556
 30
0.0
 10
48.585149
 20
-2.599297
 30
0.0
 10
48.609954
 20
-2.724868
 30
0.0
 10
48.731908
 20
-2.764662
 30
0.0
 10
49.780941
 20
-2.555879
 30
0.0
 10
49.806262
 20
-2.695923
 30
0.0
 10
50.059992
 20
-3.689645
 30
0.0
 10
50.381937
 20
-4.658602
 30
0.0
 10
50.534901
 20
-5.029098
 30
0.0
 10
48.559826
 20
-5.847666
 30
0.0
 10
48.479213
 20
-5.948446
 30
0.0
 10
48.528822
 20
-6.067799
 30
0.0
 10
48.656978
 20
-6.082272
 30
0.0
 10
50.632050
 20
-5.264233
 30
0.0
 10
50.770028
 20
-5.599090
 30
0.0
 10
51.221680
 20
-6.508595
 30
0.0
 10
51.734826
 20
-7.383493
 30
0.0
 10
52.051088
 20
-7.844953
 30
0.0
 10
51.222714
 20
-8.398408
 30
0.0
 10
51.161217
 20
-8.513661
 30
0.0
 10
51.233565
 20
-8.622166
 30
0.0
 10
51.363790
 20
-8.609255
 30
0.0
 10
52.194230
 20
-8.054238
 30
0.0
 10
52.307919
 20
-8.220132
 30
0.0
 10
52.938886
 20
-9.015946
 30
0.0
 10
53.625149
 20
-9.767309
 30
0.0
 10
53.718685
 20
-9.856209
 30
0.0
 10
53.699048
 20
-9.869650
 30
0.0
 10
52.071241
 20
-11.497446
 30
0.0
 10
51.968921
 20
-11.665906
 30
0.0
 10
51.966336
 20
-11.863312
 30
0.0
 10
52.064005
 20
-12.034894
 30
0.0
 10
52.235571
 20
-12.132552
 30
0.0
 10
52.432977
 20
-12.129959
 30
0.0
 10
52.601439
 20
-12.027645
 30
0.0
 10
54.229249
 20
-10.399849
 30
0.0
 10
54.249918
 20
-10.362119
 30
0.0
 10
54.364641
 20
-10.471154
 30
0.0
 10
55.155806
 20
-11.123828
 30
0.0
 10
55.996581
 20
-11.722765
 30
0.0
 10
56.116987
 20
-11.796134
 30
0.0
 10
55.489636
 20
-12.735088
 30
0.0
 10
55.481368
 20
-12.861717
 30
0.0
 10
55.587305
 20
-12.932493
 30
0.0
 10
55.700993
 20
-12.876164
 30
0.0
 10
56.334030
 20
-11.928426
 30
0.0
 10
56.884382
 20
-12.263812
 30
0.0
 10
57.817142
 20
-12.744401
 30
0.0
 10
58.321504
 20
-12.959904
 30
0.0
 10
57.515868
 20
-14.905518
 30
0.0
 10
57.530339
 20
-15.033655
 30
0.0
 10
57.649711
 20
-15.083265
 30
0.0
 10
57.750480
 20
-15.002673
 30
0.0
 10
58.555083
 20
-13.059626
 30
0.0
 10
58.782458
 20
-13.156781
 30
0.0
 10
59.765345
 20
-13.495262
 30
0.0
 10
60.762182
 20
-13.760877
 30
0.0
 10
61.035552
 20
-13.813582
 30
0.0
 10
60.833497
 20
-14.830059
 30
0.0
 10
60.873288
 20
-14.952534
 30
0.0
 10
60.999378
 20
-14.977352
 30
0.0
 10
61.082576
 20
-14.879668
 30
0.0
 10
61.285149
 20
-13.861128
 30
0.0
 10
61.769874
 20
-13.954155
 30
0.0
 10
62.783765
 20
-14.075070
 30
0.0
 10
63.501550
 20
-14.109704
 30
0.0
 10
63.499484
 20
-14.119520
 30
0.0
 10
63.499484
 20
-16.421686
 30
0.0
 10
63.566662
 20
-16.671797
 30
0.0
 10
63.749597
 20
-16.854756
 30
0.0
 10
63.999711
 20
-16.921934
 30
0.0
 10
64.249824
 20
-16.854756
 30
0.0
 10
64.432759
 20
-16.671797
 30
0.0
 10
64.499940
 20
-16.421686
 30
0.0
 10
64.499940
 20
-14.119520
 30
0.0
 10
64.497871
 20
-14.109175
 30
0.0
 10
64.815164
 20
-14.102454
 30
0.0
 10
65.824923
 20
-14.010485
 30
0.0
 10
66.715307
 20
-13.865785
 30
0.0
 10
66.916845
 20
-14.879668
 30
0.0
 10
67.000046
 20
-14.977352
 30
0.0
 10
67.126136
 20
-14.952005
 30
0.0
 10
67.165926
 20
-14.830059
 30
0.0
 10
66.963872
 20
-13.815143
 30
0.0
 10
67.814981
 20
-13.615674
 30
0.0
 10
68.787015
 20
-13.314393
 30
0.0
 10
69.444341
 20
-13.059123
 30
0.0
 10
70.248941
 20
-15.002673
 30
0.0
 10
70.349711
 20
-15.083265
 30
0.0
 10
70.469083
 20
-15.033655
 30
0.0
 10
70.483553
 20
-14.905518
 30
0.0
 10
69.681019
 20
-12.967127
 30
0.0
 10
69.738378
 20
-12.944902
 30
0.0
 10
70.665970
 20
-12.506699
 30
0.0
 10
71.565140
 20
-12.000790
 30
0.0
 10
71.701049
 20
-11.910858
 30
0.0
 10
72.298430
 20
-12.805387
 30
0.0
 10
72.412117
 20
-12.861717
 30
0.0
 10
72.518053
 20
-12.790915
 30
0.0
 10
72.509785
 20
-12.664312
 30
0.0
 10
71.912925
 20
-11.770814
 30
0.0
 10
72.432788
 20
-11.427676
 30
0.0
 10
73.264779
 20
-10.787940
 30
0.0
 10
73.343326
 20
-10.682503
 30
0.0
 10
73.357280
 20
-10.551772
 30
0.0
 10
73.303019
 20
-10.431890
 30
0.0
 10
73.195532
 20
-10.355928
 30
0.0
 10
73.064275
 20
-10.345583
 30
0.0
 10
72.945935
 20
-10.402944
 30
0.0
 10
72.142366
 20
-11.020985
 30
0.0
 10
71.304692
 20
-11.574440
 30
0.0
 10
70.436010
 20
-12.062781
 30
0.0
 10
69.540459
 20
-12.486009
 30
0.0
 10
68.621651
 20
-12.843091
 30
0.0
 10
67.683208
 20
-13.134053
 30
0.0
 10
66.728742
 20
-13.357811
 30
0.0
 10
65.762394
 20
-13.514894
 30
0.0
 10
64.786743
 20
-13.603768
 30
0.0
 10
64.032784
 20
-13.620304
 30
0.0
 10
63.991961
 20
-13.612578
 30
0.0
 10
63.949069
 20
-13.621865
 30
0.0
 10
63.806959
 20
-13.624961
 30
0.0
 10
62.825622
 20
-13.576912
 30
0.0
 10
61.846354
 20
-13.460125
 30
0.0
 10
60.873804
 20
-13.273568
 30
0.0
 10
59.911073
 20
-13.016737
 30
0.0
 10
58.961777
 20
-12.689632
 30
0.0
 10
58.029533
 20
-12.291725
 30
0.0
 10
57.128296
 20
-11.827673
 30
0.0
 10
56.270983
 20
-11.305200
 30
0.0
 10
55.459664
 20
-10.726953
 30
0.0
 10
54.695370
 20
-10.097007
 30
0.0
 10
53.981202
 20
-9.417477
 30
0.0
 10
53.318709
 20
-8.691937
 30
0.0
 10
52.709961
 20
-7.923507
 30
0.0
 10
52.156506
 20
-7.115814
 30
0.0
 10
51.660930
 20
-6.270894
 30
0.0
 10
51.224781
 20
-5.392900
 30
0.0
 10
50.850644
 20
-4.484453
 30
0.0
 10
50.540068
 20
-3.549098
 30
0.0
 10
50.294604
 20
-2.589455
 30
0.0
 10
50.117354
 20
-1.609173
 30
0.0
 10
50.009351
 20
-0.610768
 30
0.0
 10
49.972661
 20
0.402083
 30
0.0
 10
50.009351
 20
1.414935
 30
0.0
 10
50.117354
 20
2.413340
 30
0.0
 10
50.294604
 20
3.393621
 30
0.0
 10
50.540068
 20
4.353265
 30
0.0
 10
50.850644
 20
5.288620
 30
0.0
 10
51.224781
 20
6.197067
 30
0.0
 10
51.660930
 20
7.075060
 30
0.0
 10
52.156506
 20
7.919981
 30
0.0
 10
52.709961
 20
8.727674
 30
0.0
 10
53.318709
 20
9.496104
 30
0.0
 10
53.981202
 20
10.221644
 30
0.0
 10
54.695370
 20
10.900671
 30
0.0
 10
55.459664
 20
11.531120
 30
0.0
 10
56.270983
 20
12.109367
 30
0.0
 10
57.128296
 20
12.631839
 30
0.0
 10
58.029533
 20
13.095892
 30
0.0
 10
58.961777
 20
13.493799
 30
0.0
 10
59.911073
 20
13.820903
 30
0.0
 10
60.873804
 20
14.077734
 30
0.0
 10
61.846354
 20
14.264292
 30
0.0
 10
62.825622
 20
14.381079
 30
0.0
 10
63.806959
 20
14.428625
 30
0.0
 10
63.995059
 20
14.424471
 30
0.0
 10
63.999711
 20
14.423439
 30
0.0
 10
64.003327
 20
14.424471
 30
0.0
 10
64.786743
 20
14.407934
 30
0.0
 10
65.762394
 20
14.318558
 30
0.0
 10
66.728742
 20
14.161978
 30
0.0
 10
67.683208
 20
13.937690
 30
0.0
 10
68.621651
 20
13.646755
 30
0.0
 10
69.540459
 20
13.289673
 30
0.0
 10
70.436010
 20
12.866445
 30
0.0
 10
71.304692
 20
12.378104
 30
0.0
 10
72.142366
 20
11.824649
 30
0.0
 10
72.945935
 20
11.206582
 30
0.0
 10
73.064275
 20
11.149220
 30
0.0
 10
73.195532
 20
11.159565
 30
0.0
 10
73.303019
 20
11.235527
 30
0.0
 10
73.357280
 20
11.355410
 30
0.0
 10
73.343326
 20
11.486167
 30
0.0
 10
73.264779
 20
11.591577
 30
0.0
 10
72.219365
 20
12.380670
 30
0.0
 10
71.911374
 20
12.572388
 30
0.0
 10
72.509785
 20
13.467949
 30
0.0
 10
72.517021
 20
13.600770
 30
0.0
 10
72.401782
 20
13.666916
 30
0.0
 10
72.298430
 20
13.609025
 30
0.0
 10
71.695366
 20
12.706769
 30
0.0
 10
71.119174
 20
13.065915
 30
0.0
 10
69.972473
 20
13.645194
 30
0.0
 10
69.677402
 20
13.763013
 30
0.0
 10
70.098563
 20
14.779489
 30
0.0
 10
70.087194
 20
14.900430
 30
0.0
 10
69.979191
 20
14.956760
 30
0.0
 10
69.909428
 20
14.934005
 30
0.0
 10
69.863951
 20
14.876644
 30
0.0
 10
69.441756
 20
13.857072
 30
0.0
 10
68.786499
 20
14.118560
 30
0.0
 10
67.569003
 20
14.484425
 30
0.0
 10
66.962322
 20
14.609997
 30
0.0
 10
67.165926
 20
15.634225
 30
0.0
 10
67.139571
 20
15.741725
 30
0.0
 10
67.039318
 20
15.787710
 30
0.0
 10
66.959737
 20
15.757733
 30
0.0
 10
66.916845
 20
15.683835
 30
0.0
 10
66.713756
 20
14.661670
 30
0.0
 10
66.326700
 20
14.741786
 30
0.0
 10
65.067863
 20
14.890085
 30
0.0
 10
64.495804
 20
14.907150
 30
0.0
 10
64.499940
 20
14.923687
 30
0.0
 10
64.499940
 20
17.225853
 30
0.0
 10
64.463247
 20
17.421195
 30
0.0
 10
64.353178
 20
17.586559
 30
0.0
 10
64.187298
 20
17.696626
 30
0.0
 10
63.991961
 20
17.732821
 30
0.0
  0
LWPOLYLINE
  5
105
100
AcDbEntity
  8
Raster_fill
 62
7
100
AcDbPolyline
 90
15
 70
1
 10
-43.737898
 20
5.976934
 30
0.0
 10
-40.455411
 20
5.976934
 30
0.0
 10
-34.230469
 20
-1.714583
 30
0.0
 10
-36.803438
 20
-5.473519
 30
0.0
 10
-43.849520
 20
-5.473519
 30
0.0
 10
-43.675887
 20
-4.882863
 30
0.0
 10
-43.383398
 20
-3.591485
 30
0.0
 10
-43.172041
 20
-2.277855
 30
0.0
 10
-43.043885
 20
-0.945651
 30
0.0
 10
-43.000475
 20
0.402083
 30
0.0
 10
-43.031481
 20
1.568949
 30
0.0
 10
-43.123466
 20
2.714092
 30
0.0
 10
-43.273845
 20
3.836507
 30
0.0
 10
-43.482101
 20
4.935137
 30
0.0
 10
-43.737898
 20
5.976934
 30
0.0
  0
LWPOLYLINE
  5
106
100
AcDbEntity
  8
Raster_fill
 62
7
100
AcDbPolyline
 90
4
 70
1
 10
-36.131127
 20
5.976934
 30
0.0
 10
-28.965157
 20
5.976934
 30
0.0
 10
-32.615579
 20
0.644442
 30
0.0
 10
-36.131127
 20
5.976934
 30
0.0
  0
LWPOLYLINE
  5
107
100
AcDbEntity
  8
Raster_fill
 62
7
100
AcDbPolyline
 90
6
 70
1
 10
-28.056168
 20
5.976934
 30
0.0
 10
-14.512292
 20
5.976934
 30
0.0
 10
-18.393709
 20
-5.473519
 30
0.0
 10
-28.582234
 20
-5.473519
 30
0.0
 10
-32.169613
 20
-0.031992
 30
0.0
 10
-28.056168
 20
5.976934
 30
0.0
  0
LWPOLYLINE
  5
108
100
AcDbEntity
  8
Raster_fill
 62
7
100
AcDbPolyline
 90
7
 70
1
 10
-13.720610
 20
5.976934
 30
0.0
 10
-0.000517
 20
5.976934
 30
0.0
 10
13.719576
 20
5.976934
 30
0.0
 10
17.600993
 20
-5.473519
 30
0.0
 10
-0.000517
 20
-5.473519
 30
0.0
 10
-17.602026
 20
-5.473519
 30
0.0
 10
-13.720610
 20
5.976934
 30
0.0
  0
LWPOLYLINE
  5
109
100
AcDbEntity
  8
Raster_fill
 62
7
100
AcDbPolyline
 90
6
 70
1
 10
14.511776
 20
5.976934
 30
0.0
 10
28.055652
 20
5.976934
 30
0.0
 10
32.169095
 20
-0.031992
 30
0.0
 10
28.581718
 20
-5.473519
 30
0.0
 10
18.393193
 20
-5.473519
 30
0.0
 10
14.511776
 20
5.976934
 30
0.0
  0
LWPOLYLINE
  5
10a
100
AcDbEntity
  8
Raster_fill
 62
7
100
AcDbPolyline
 90
4
 70
1
 10
28.964641
 20
5.976934
 30
0.0
 10
36.130611
 20
5.976934
 30
0.0
 10
32.615063
 20
0.644442
 30
0.0
 10
28.964641
 20
5.976934
 30
0.0
  0
LWPOLYLINE
  5
10b
100
AcDbEntity
  8
Raster_fill
 62
7
100
AcDbPolyline
 90
15
 70
1
 10
40.460581
 20
5.976934
 30
0.0
 10
43.737382
 20
5.976934
 30
0.0
 10
43.481583
 20
4.935666
 30
0.0
 10
43.273326
 20
3.837010
 30
0.0
 10
43.122951
 20
2.714092
 30
0.0
 10
43.030966
 20
1.568949
 30
0.0
 10
42.999959
 20
0.402083
 30
0.0
 10
43.043367
 20
-0.945651
 30
0.0
 10
43.171525
 20
-2.277855
 30
0.0
 10
43.382883
 20
-3.591485
 30
0.0
 10
43.675371
 20
-4.882863
 30
0.0
 10
43.849004
 20
-5.473519
 30
0.0
 10
36.802404
 20
-5.473519
 30
0.0
 10
34.238737
 20
-1.728024
 30
0.0
 10
40.460581
 20
5.976934
 30
0.0
  0
LWPOLYLINE
  5
10c
100
AcDbEntity
  8
Raster_fill
 62
7
100
AcDbPolyline
 90
4
 70
1
 10
-33.737476
 20
-2.322807
 30
0.0
 10
-31.187760
 20
-5.473519
 30
0.0
 10
-35.894449
 20
-5.473519
 30
0.0
 10
-33.737476
 20
-2.322807
 30
0.0
  0
LWPOLYLINE
  5
10d
100
AcDbEntity
  8
Raster_fill
 62
7
100
AcDbPolyline
 90
4
 70
1
 10
33.746779
 20
-2.337280
 30
0.0
 10
35.893417
 20
-5.473519
 30
0.0
 10
31.214116
 20
-5.473519
 30
0.0
 10
33.746779
 20
-2.337280
 30
0.0
  0
LWPOLYLINE
  5
10e
100
AcDbEntity
  8
Raster_fill
 62
7
100
AcDbPolyline
 90
8
 70
1
 10
-36.407598
 20
-6.223348
 30
0.0
 10
-30.580563
 20
-6.223348
 30
0.0
 10
-25.935885
 20
-11.962531
 30
0.0
 10
-20.593058
 20
-11.962531
 30
0.0
 10
-23.944275
 20
-21.849269
 30
0.0
 10
-40.894146
 20
-21.849269
 30
0.0
 10
-47.104102
 20
-21.849269
 30
0.0
 10
-36.407598
 20
-6.223348
 30
0.0
  0
LWPOLYLINE
  5
10f
100
AcDbEntity
  8
Raster_fill
 62
7
100
AcDbPolyline
 90
5
 70
1
 10
-28.088209
 20
-6.223348
 30
0.0
 10
-18.647957
 20
-6.223348
 30
0.0
 10
-20.015316
 20
-10.257741
 30
0.0
 10
-25.428422
 20
-10.257741
 30
0.0
 10
-28.088209
 20
-6.223348
 30
0.0
  0
LWPOLYLINE
  5
110
100
AcDbEntity
  8
Raster_fill
 62
7
100
AcDbPolyline
 90
6
 70
1
 10
-17.856274
 20
-6.223348
 30
0.0
 10
-0.000517
 20
-6.223348
 30
0.0
 10
17.855241
 20
-6.223348
 30
0.0
 10
19.222599
 20
-10.257741
 30
0.0
 10
-19.223633
 20
-10.257741
 30
0.0
 10
-17.856274
 20
-6.223348
 30
0.0
  0
LWPOLYLINE
  5
111
100
AcDbEntity
  8
Raster_fill
 62
7
100
AcDbPolyline
 90
5
 70
1
 10
18.647441
 20
-6.223348
 30
0.0
 10
28.087690
 20
-6.223348
 30
0.0
 10
25.427905
 20
-10.257741
 30
0.0
 10
20.014799
 20
-10.257741
 30
0.0
 10
18.647441
 20
-6.223348
 30
0.0
  0
LWPOLYLINE
  5
112
100
AcDbEntity
  8
Raster_fill
 62
7
100
AcDbPolyline
 90
8
 70
1
 10
30.608468
 20
-6.223348
 30
0.0
 10
36.407079
 20
-6.223348
 30
0.0
 10
47.103586
 20
-21.849269
 30
0.0
 10
40.893627
 20
-21.849269
 30
0.0
 10
23.943758
 20
-21.849269
 30
0.0
 10
20.592541
 20
-11.962531
 30
0.0
 10
25.974125
 20
-11.962531
 30
0.0
 10
30.608468
 20
-6.223348
 30
0.0
  0
LWPOLYLINE
  5
113
100
AcDbEntity
  8
Raster_fill
 62
7
100
AcDbPolyline
 90
6
 70
1
 10
-19.801375
 20
-11.962531
 30
0.0
 10
19.800859
 20
-11.962531
 30
0.0
 10
23.152075
 20
-21.849269
 30
0.0
 10
-0.000517
 20
-21.849269
 30
0.0
 10
-23.152592
 20
-21.849269
 30
0.0
 10
-19.801375
 20
-11.962531
 30
0.0
  0
LWPOLYLINE
  5
114
100
AcDbEntity
  8
Raster_fill
 62
7
100
AcDbPolyline
 90
43
 70
1
 10
1.743563
 20
-14.295203
 30
0.0
 10
1.743563
 20
-14.295732
 30
0.0
 10
1.573547
 20
-14.366006
 30
0.0
 10
1.565279
 20
-14.374287
 30
0.0
 10
1.505851
 20
-14.472474
 30
0.0
 10
1.497066
 20
-14.587171
 30
0.0
 10
1.497066
 20
-16.176232
 30
0.0
 10
1.497066
 20
-16.253226
 30
0.0
 10
1.497066
 20
-17.048537
 30
0.0
 10
1.530656
 20
-17.173579
 30
0.0
 10
1.622123
 20
-17.265045
 30
0.0
 10
1.747180
 20
-17.298647
 30
0.0
 10
1.872237
 20
-17.265045
 30
0.0
 10
1.963704
 20
-17.173579
 30
0.0
 10
1.997294
 20
-17.048537
 30
0.0
 10
1.997294
 20
-16.465104
 30
0.0
 10
2.476335
 20
-16.465104
 30
0.0
 10
3.236495
 20
-17.225252
 30
0.0
 10
3.413228
 20
-17.298118
 30
0.0
 10
3.589962
 20
-17.225252
 30
0.0
 10
3.663342
 20
-17.048008
 30
0.0
 10
3.589962
 20
-16.871292
 30
0.0
 10
3.140894
 20
-16.422215
 30
0.0
 10
3.200321
 20
-16.365356
 30
0.0
 10
3.564640
 20
-16.001051
 30
0.0
 10
3.644222
 20
-15.897705
 30
0.0
 10
3.646289
 20
-15.893551
 30
0.0
 10
3.647839
 20
-15.889424
 30
0.0
 10
3.648873
 20
-15.886328
 30
0.0
 10
3.663342
 20
-15.761260
 30
0.0
 10
3.663342
 20
-15.001641
 30
0.0
 10
3.653524
 20
-14.891045
 30
0.0
 10
3.649390
 20
-14.879165
 30
0.0
 10
3.643188
 20
-14.863661
 30
0.0
 10
3.564640
 20
-14.762881
 30
0.0
 10
3.198771
 20
-14.397015
 30
0.0
 10
3.095935
 20
-14.317957
 30
0.0
 10
3.088184
 20
-14.314333
 30
0.0
 10
3.087667
 20
-14.314333
 30
0.0
 10
3.087150
 20
-14.314333
 30
0.0
 10
2.958476
 20
-14.298828
 30
0.0
 10
1.789555
 20
-14.298828
 30
0.0
 10
1.743563
 20
-14.295203
 30
0.0
  0
LWPOLYLINE
  5
115
100
AcDbEntity
  8
Raster_fill
 62
7
100
AcDbPolyline
 90
39
 70
1
 10
-2.421558
 20
-14.295732
 30
0.0
 10
-2.458765
 20
-14.299357
 30
0.0
 10
-3.250964
 20
-14.299357
 30
0.0
 10
-3.380156
 20
-14.329837
 30
0.0
 10
-3.475240
 20
-14.421304
 30
0.0
 10
-3.510380
 20
-14.549468
 30
0.0
 10
-3.475240
 20
-14.677103
 30
0.0
 10
-3.380156
 20
-14.769072
 30
0.0
 10
-3.250964
 20
-14.799049
 30
0.0
 10
-2.668054
 20
-14.799049
 30
0.0
 10
-2.668054
 20
-17.048537
 30
0.0
 10
-2.634465
 20
-17.173579
 30
0.0
 10
-2.542997
 20
-17.265045
 30
0.0
 10
-2.417940
 20
-17.298647
 30
0.0
 10
-2.292883
 20
-17.265045
 30
0.0
 10
-2.201416
 20
-17.173579
 30
0.0
 10
-2.167826
 20
-17.048537
 30
0.0
 10
-2.167826
 20
-14.799049
 30
0.0
 10
-1.584916
 20
-14.799049
 30
0.0
 10
-1.560111
 20
-14.799049
 30
0.0
 10
-1.511019
 20
-14.789762
 30
0.0
 10
-1.487248
 20
-14.782010
 30
0.0
 10
-1.443323
 20
-14.758224
 30
0.0
 10
-1.423169
 20
-14.743751
 30
0.0
 10
-1.388029
 20
-14.708112
 30
0.0
 10
-1.360124
 20
-14.666758
 30
0.0
 10
-1.349788
 20
-14.644030
 30
0.0
 10
-1.332218
 20
-14.571164
 30
0.0
 10
-1.331185
 20
-14.546346
 30
0.0
 10
-1.337386
 20
-14.496736
 30
0.0
 10
-1.343587
 20
-14.472474
 30
0.0
 10
-1.363741
 20
-14.426992
 30
0.0
 10
-1.494482
 20
-14.315894
 30
0.0
 10
-1.542541
 20
-14.302956
 30
0.0
 10
-1.567346
 20
-14.300389
 30
0.0
 10
-1.584916
 20
-14.300389
 30
0.0
 10
-2.375566
 20
-14.300389
 30
0.0
 10
-2.421558
 20
-14.296235
 30
0.0
 10
-2.421558
 20
-14.295732
 30
0.0
  0
LWPOLYLINE
  5
116
100
AcDbEntity
  8
Raster_fill
 62
7
100
AcDbPolyline
 90
39
 70
1
 10
5.075659
 20
-14.295732
 30
0.0
 10
5.038452
 20
-14.299357
 30
0.0
 10
4.246252
 20
-14.299357
 30
0.0
 10
4.117061
 20
-14.329837
 30
0.0
 10
4.021977
 20
-14.421304
 30
0.0
 10
3.986837
 20
-14.549468
 30
0.0
 10
4.021977
 20
-14.677103
 30
0.0
 10
4.117061
 20
-14.769072
 30
0.0
 10
4.246252
 20
-14.799049
 30
0.0
 10
4.829679
 20
-14.799049
 30
0.0
 10
4.829679
 20
-17.048537
 30
0.0
 10
4.860169
 20
-17.177204
 30
0.0
 10
4.951636
 20
-17.272798
 30
0.0
 10
5.079793
 20
-17.307934
 30
0.0
 10
5.207434
 20
-17.272798
 30
0.0
 10
5.298901
 20
-17.177204
 30
0.0
 10
5.329390
 20
-17.048537
 30
0.0
 10
5.329390
 20
-14.799049
 30
0.0
 10
5.912817
 20
-14.799049
 30
0.0
 10
5.937622
 20
-14.799049
 30
0.0
 10
5.986715
 20
-14.789762
 30
0.0
 10
6.010486
 20
-14.782010
 30
0.0
 10
6.054411
 20
-14.758224
 30
0.0
 10
6.074565
 20
-14.743751
 30
0.0
 10
6.109705
 20
-14.708112
 30
0.0
 10
6.137093
 20
-14.666758
 30
0.0
 10
6.147945
 20
-14.644030
 30
0.0
 10
6.165515
 20
-14.571164
 30
0.0
 10
6.166032
 20
-14.546346
 30
0.0
 10
6.160347
 20
-14.496736
 30
0.0
 10
6.153629
 20
-14.472474
 30
0.0
 10
6.133476
 20
-14.426992
 30
0.0
 10
6.003251
 20
-14.315894
 30
0.0
 10
5.954675
 20
-14.302956
 30
0.0
 10
5.929871
 20
-14.300389
 30
0.0
 10
5.912817
 20
-14.300389
 30
0.0
 10
5.121651
 20
-14.300389
 30
0.0
 10
5.075659
 20
-14.296235
 30
0.0
 10
5.075659
 20
-14.295732
 30
0.0
  0
LWPOLYLINE
  5
117
100
AcDbEntity
  8
Raster_fill
 62
7
100
AcDbPolyline
 90
76
 70
1
 10
-5.338692
 20
-14.296764
 30
0.0
 10
-5.407939
 20
-14.309173
 30
0.0
 10
-5.421891
 20
-14.314333
 30
0.0
 10
-5.435327
 20
-14.319492
 30
0.0
 10
-5.535579
 20
-14.397015
 30
0.0
 10
-5.901965
 20
-14.763410
 30
0.0
 10
-5.972245
 20
-14.848156
 30
0.0
 10
-5.980514
 20
-14.865724
 30
0.0
 10
-5.983097
 20
-14.870884
 30
0.0
 10
-5.984648
 20
-14.875011
 30
0.0
 10
-6.000150
 20
-15.002673
 30
0.0
 10
-6.000150
 20
-15.345784
 30
0.0
 10
-5.990332
 20
-15.456380
 30
0.0
 10
-5.985164
 20
-15.470324
 30
0.0
 10
-5.979997
 20
-15.484294
 30
0.0
 10
-5.900932
 20
-15.585576
 30
0.0
 10
-5.534546
 20
-15.952474
 30
0.0
 10
-5.432743
 20
-16.029997
 30
0.0
 10
-5.423958
 20
-16.033595
 30
0.0
 10
-5.296834
 20
-16.049100
 30
0.0
 10
-4.604370
 20
-16.049100
 30
0.0
 10
-4.334102
 20
-16.319372
 30
0.0
 10
-4.334102
 20
-16.528657
 30
0.0
 10
-4.604370
 20
-16.798929
 30
0.0
 10
-5.229655
 20
-16.798929
 30
0.0
 10
-5.573303
 20
-16.455288
 30
0.0
 10
-5.685441
 20
-16.390174
 30
0.0
 10
-5.815149
 20
-16.390703
 30
0.0
 10
-5.927287
 20
-16.455288
 30
0.0
 10
-5.992399
 20
-16.567419
 30
0.0
 10
-5.992399
 20
-16.697144
 30
0.0
 10
-5.927287
 20
-16.809274
 30
0.0
 10
-5.534546
 20
-17.202022
 30
0.0
 10
-5.432743
 20
-17.279518
 30
0.0
 10
-5.423958
 20
-17.283143
 30
0.0
 10
-5.295284
 20
-17.298647
 30
0.0
 10
-4.537191
 20
-17.298647
 30
0.0
 10
-4.426603
 20
-17.288831
 30
0.0
 10
-4.414718
 20
-17.284704
 30
0.0
 10
-4.399215
 20
-17.278486
 30
0.0
 10
-4.298962
 20
-17.200963
 30
0.0
 10
-3.932576
 20
-16.834595
 30
0.0
 10
-3.853512
 20
-16.731249
 30
0.0
 10
-3.851445
 20
-16.727095
 30
0.0
 10
-3.849894
 20
-16.722967
 30
0.0
 10
-3.834391
 20
-16.594300
 30
0.0
 10
-3.834391
 20
-16.252723
 30
0.0
 10
-3.844210
 20
-16.142127
 30
0.0
 10
-3.849377
 20
-16.128184
 30
0.0
 10
-3.854545
 20
-16.114743
 30
0.0
 10
-3.932060
 20
-16.014492
 30
0.0
 10
-4.298446
 20
-15.648097
 30
0.0
 10
-4.383195
 20
-15.577824
 30
0.0
 10
-4.400765
 20
-15.569542
 30
0.0
 10
-4.410067
 20
-15.565415
 30
0.0
 10
-4.539258
 20
-15.549408
 30
0.0
 10
-5.229655
 20
-15.549408
 30
0.0
 10
-5.500439
 20
-15.278607
 30
0.0
 10
-5.500439
 20
-15.069850
 30
0.0
 10
-5.230172
 20
-14.799579
 30
0.0
 10
-4.603853
 20
-14.799579
 30
0.0
 10
-4.260722
 20
-15.142717
 30
0.0
 10
-4.148067
 20
-15.211429
 30
0.0
 10
-4.016809
 20
-15.214022
 30
0.0
 10
-3.902604
 20
-15.148379
 30
0.0
 10
-3.836975
 20
-15.034185
 30
0.0
 10
-3.839042
 20
-14.902925
 30
0.0
 10
-3.907255
 20
-14.790265
 30
0.0
 10
-4.298446
 20
-14.399079
 30
0.0
 10
-4.383195
 20
-14.328805
 30
0.0
 10
-4.400765
 20
-14.320524
 30
0.0
 10
-4.410067
 20
-14.316396
 30
0.0
 10
-4.539258
 20
-14.300892
 30
0.0
 10
-5.297351
 20
-14.300892
 30
0.0
 10
-5.338692
 20
-14.298299
 30
0.0
 10
-5.338692
 20
-14.296764
 30
0.0
  0
LWPOLYLINE
  5
118
100
AcDbEntity
  8
Raster_fill
 62
7
100
AcDbPolyline
 90
51
 70
1
 10
0.074414
 20
-14.296764
 30
0.0
 10
-0.037207
 20
-14.325181
 30
0.0
 10
-0.124023
 20
-14.400640
 30
0.0
 10
-0.903304
 20
-15.179917
 30
0.0
 10
-0.973067
 20
-15.263102
 30
0.0
 10
-0.975134
 20
-15.267256
 30
0.0
 10
-0.978235
 20
-15.272918
 30
0.0
 10
-0.985986
 20
-15.290486
 30
0.0
 10
-0.987020
 20
-15.293079
 30
0.0
 10
-1.002006
 20
-15.417116
 30
0.0
 10
-1.002006
 20
-15.759725
 30
0.0
 10
-1.002006
 20
-15.839814
 30
0.0
 10
-1.002006
 20
-17.048537
 30
0.0
 10
-0.968416
 20
-17.173579
 30
0.0
 10
-0.876949
 20
-17.265045
 30
0.0
 10
-0.751892
 20
-17.298647
 30
0.0
 10
-0.626835
 20
-17.265045
 30
0.0
 10
-0.535368
 20
-17.173579
 30
0.0
 10
-0.501778
 20
-17.048537
 30
0.0
 10
-0.501778
 20
-16.048597
 30
0.0
 10
0.664042
 20
-16.048597
 30
0.0
 10
0.664042
 20
-17.048537
 30
0.0
 10
0.665076
 20
-17.073328
 30
0.0
 10
0.668693
 20
-17.098146
 30
0.0
 10
0.692981
 20
-17.168420
 30
0.0
 10
0.705900
 20
-17.190115
 30
0.0
 10
0.737423
 20
-17.228877
 30
0.0
 10
0.756026
 20
-17.245413
 30
0.0
 10
0.776180
 20
-17.260415
 30
0.0
 10
0.797884
 20
-17.272798
 30
0.0
 10
0.843876
 20
-17.291927
 30
0.0
 10
0.868164
 20
-17.297616
 30
0.0
 10
0.892969
 20
-17.300711
 30
0.0
 10
1.077970
 20
-17.240757
 30
0.0
 10
1.096057
 20
-17.223717
 30
0.0
 10
1.112594
 20
-17.204588
 30
0.0
 10
1.148767
 20
-17.139474
 30
0.0
 10
1.164270
 20
-17.049040
 30
0.0
 10
1.164270
 20
-15.840846
 30
0.0
 10
1.164270
 20
-15.758164
 30
0.0
 10
1.164270
 20
-15.419180
 30
0.0
 10
1.146183
 20
-15.286888
 30
0.0
 10
1.145666
 20
-15.284295
 30
0.0
 10
1.144116
 20
-15.280168
 30
0.0
 10
1.143083
 20
-15.277575
 30
0.0
 10
1.066085
 20
-15.179388
 30
0.0
 10
0.286804
 20
-14.400111
 30
0.0
 10
0.206189
 20
-14.328276
 30
0.0
 10
0.103353
 20
-14.296764
 30
0.0
 10
0.080615
 20
-14.296764
 30
0.0
 10
0.074414
 20
-14.296764
 30
0.0
  0
LWPOLYLINE
  5
119
100
AcDbEntity
  8
Raster_fill
 62
7
100
AcDbPolyline
 90
9
 70
1
 10
1.997294
 20
-14.798547
 30
0.0
 10
2.893363
 20
-14.798547
 30
0.0
 10
3.163631
 20
-15.068819
 30
0.0
 10
3.163631
 20
-15.694082
 30
0.0
 10
2.892847
 20
-15.964883
 30
0.0
 10
2.613277
 20
-15.964883
 30
0.0
 10
2.541964
 20
-15.964883
 30
0.0
 10
1.997294
 20
-15.964883
 30
0.0
 10
1.997294
 20
-14.798547
 30
0.0
  0
LWPOLYLINE
  5
11a
100
AcDbEntity
  8
Raster_fill
 62
7
100
AcDbPolyline
 90
6
 70
1
 10
0.081132
 20
-14.902422
 30
0.0
 10
0.664042
 20
-15.485326
 30
0.0
 10
0.664042
 20
-15.548879
 30
0.0
 10
-0.501778
 20
-15.548879
 30
0.0
 10
-0.501778
 20
-15.485326
 30
0.0
 10
0.081132
 20
-14.902422
 30
0.0
  0
LWPOLYLINE
  5
11b
100
AcDbEntity
  8
Raster_fill
 62
7
100
AcDbPolyline
 90
35
 70
1
 10
61.865992
 20
-22.113852
 30
0.0
 10
61.738351
 20
-22.148989
 30
0.0
 10
61.646366
 20
-22.244080
 30
0.0
 10
61.615878
 20
-22.373276
 30
0.0
 10
61.615878
 20
-24.135428
 30
0.0
 10
60.932716
 20
-24.818609
 30
0.0
 10
60.249551
 20
-24.135428
 30
0.0
 10
60.249551
 20
-22.373276
 30
0.0
 10
60.176688
 20
-22.192910
 30
0.0
 10
59.995821
 20
-22.119541
 30
0.0
 10
59.995821
 20
-22.120573
 30
0.0
 10
59.820122
 20
-22.196535
 30
0.0
 10
59.749841
 20
-22.374308
 30
0.0
 10
59.749841
 20
-24.203637
 30
0.0
 10
59.759660
 20
-24.314233
 30
0.0
 10
59.765345
 20
-24.330267
 30
0.0
 10
59.769994
 20
-24.342147
 30
0.0
 10
59.847509
 20
-24.441868
 30
0.0
 10
60.725492
 20
-25.319332
 30
0.0
 10
60.806108
 20
-25.392728
 30
0.0
 10
60.910494
 20
-25.424769
 30
0.0
 10
60.932716
 20
-25.424769
 30
0.0
 10
60.937883
 20
-25.424769
 30
0.0
 10
60.940466
 20
-25.424769
 30
0.0
 10
61.052088
 20
-25.395824
 30
0.0
 10
61.138387
 20
-25.319862
 30
0.0
 10
62.017402
 20
-24.441366
 30
0.0
 10
62.096986
 20
-24.337490
 30
0.0
 10
62.098534
 20
-24.333865
 30
0.0
 10
62.100084
 20
-24.329738
 30
0.0
 10
62.115589
 20
-24.201071
 30
0.0
 10
62.115589
 20
-22.373276
 30
0.0
 10
62.085617
 20
-22.244080
 30
0.0
 10
61.993632
 20
-22.148989
 30
0.0
 10
61.865992
 20
-22.113852
 30
0.0
  0
LWPOLYLINE
  5
11c
100
AcDbEntity
  8
Raster_fill
 62
7
100
AcDbPolyline
 90
35
 70
1
 10
-73.203800
 20
-22.119541
 30
0.0
 10
-73.203800
 20
-22.120573
 30
0.0
 10
-73.379499
 20
-22.196535
 30
0.0
 10
-73.450297
 20
-22.374308
 30
0.0
 10
-73.450297
 20
-24.203637
 30
0.0
 10
-73.431694
 20
-24.338019
 30
0.0
 10
-73.427558
 20
-24.346804
 30
0.0
 10
-73.352112
 20
-24.441868
 30
0.0
 10
-72.476196
 20
-25.317269
 30
0.0
 10
-72.474130
 20
-25.319862
 30
0.0
 10
-72.393514
 20
-25.392728
 30
0.0
 10
-72.289644
 20
-25.424769
 30
0.0
 10
-72.267424
 20
-25.424769
 30
0.0
 10
-72.262257
 20
-25.424769
 30
0.0
 10
-72.259672
 20
-25.424769
 30
0.0
 10
-72.148052
 20
-25.395824
 30
0.0
 10
-72.061753
 20
-25.319862
 30
0.0
 10
-71.182735
 20
-24.441366
 30
0.0
 10
-71.103154
 20
-24.337490
 30
0.0
 10
-71.101604
 20
-24.333865
 30
0.0
 10
-71.100053
 20
-24.329738
 30
0.0
 10
-71.084033
 20
-24.204696
 30
0.0
 10
-71.084033
 20
-22.373276
 30
0.0
 10
-71.117624
 20
-22.248208
 30
0.0
 10
-71.209091
 20
-22.156239
 30
0.0
 10
-71.334148
 20
-22.123166
 30
0.0
 10
-71.459204
 20
-22.156239
 30
0.0
 10
-71.550670
 20
-22.248208
 30
0.0
 10
-71.584262
 20
-22.373276
 30
0.0
 10
-71.584262
 20
-24.135957
 30
0.0
 10
-72.267424
 20
-24.818609
 30
0.0
 10
-72.950070
 20
-24.135957
 30
0.0
 10
-72.950070
 20
-22.373276
 30
0.0
 10
-73.022934
 20
-22.192407
 30
0.0
 10
-73.203800
 20
-22.119541
 30
0.0
  0
LWPOLYLINE
  5
11d
100
AcDbEntity
  8
Raster_fill
 62
7
100
AcDbPolyline
 90
44
 70
1
 10
-69.939400
 20
-22.120044
 30
0.0
 10
-69.939400
 20
-22.121605
 30
0.0
 10
-70.032417
 20
-22.142798
 30
0.0
 10
-70.041204
 20
-22.146925
 30
0.0
 10
-70.136287
 20
-22.221855
 30
0.0
 10
-70.554350
 20
-22.639924
 30
0.0
 10
-70.631865
 20
-22.741735
 30
0.0
 10
-70.635482
 20
-22.749487
 30
0.0
 10
-70.650984
 20
-22.878154
 30
0.0
 10
-70.650984
 20
-24.669251
 30
0.0
 10
-70.641165
 20
-24.779847
 30
0.0
 10
-70.637032
 20
-24.791727
 30
0.0
 10
-70.630830
 20
-24.807231
 30
0.0
 10
-70.553315
 20
-24.907482
 30
0.0
 10
-70.138353
 20
-25.321925
 30
0.0
 10
-70.032936
 20
-25.403576
 30
0.0
 10
-70.026218
 20
-25.406169
 30
0.0
 10
-70.023633
 20
-25.406169
 30
0.0
 10
-69.898059
 20
-25.421673
 30
0.0
 10
-69.038163
 20
-25.421673
 30
0.0
 10
-68.927575
 20
-25.411857
 30
0.0
 10
-68.915690
 20
-25.407201
 30
0.0
 10
-68.900188
 20
-25.400983
 30
0.0
 10
-68.799935
 20
-25.323486
 30
0.0
 10
-68.383423
 20
-24.906953
 30
0.0
 10
-68.313144
 20
-24.822207
 30
0.0
 10
-68.304876
 20
-24.804639
 30
0.0
 10
-68.302291
 20
-24.799479
 30
0.0
 10
-68.300740
 20
-24.795352
 30
0.0
 10
-68.285238
 20
-24.667717
 30
0.0
 10
-68.285238
 20
-22.875059
 30
0.0
 10
-68.295057
 20
-22.764463
 30
0.0
 10
-68.300224
 20
-22.750519
 30
0.0
 10
-68.305392
 20
-22.737079
 30
0.0
 10
-68.382907
 20
-22.636828
 30
0.0
 10
-68.799419
 20
-22.220321
 30
0.0
 10
-68.884168
 20
-22.150021
 30
0.0
 10
-68.901739
 20
-22.141766
 30
0.0
 10
-68.910007
 20
-22.138141
 30
0.0
 10
-68.911039
 20
-22.138141
 30
0.0
 10
-68.912589
 20
-22.138141
 30
0.0
 10
-69.036613
 20
-22.122637
 30
0.0
 10
-69.898059
 20
-22.122637
 30
0.0
 10
-69.939400
 20
-22.120044
 30
0.0
  0
LWPOLYLINE
  5
11e
100
AcDbEntity
  8
Raster_fill
 62
7
100
AcDbPolyline
 90
22
 70
1
 10
-67.605693
 20
-22.120573
 30
0.0
 10
-67.781392
 20
-22.196535
 30
0.0
 10
-67.852189
 20
-22.374308
 30
0.0
 10
-67.852189
 20
-25.134336
 30
0.0
 10
-67.842371
 20
-25.252155
 30
0.0
 10
-67.779326
 20
-25.352405
 30
0.0
 10
-67.778291
 20
-25.354998
 30
0.0
 10
-67.774674
 20
-25.358094
 30
0.0
 10
-67.675972
 20
-25.416487
 30
0.0
 10
-67.561251
 20
-25.424240
 30
0.0
 10
-65.736039
 20
-25.424240
 30
0.0
 10
-65.606848
 20
-25.394262
 30
0.0
 10
-65.511765
 20
-25.302293
 30
0.0
 10
-65.476623
 20
-25.174658
 30
0.0
 10
-65.511765
 20
-25.046997
 30
0.0
 10
-65.606848
 20
-24.955028
 30
0.0
 10
-65.736039
 20
-24.924548
 30
0.0
 10
-67.351960
 20
-24.924548
 30
0.0
 10
-67.351960
 20
-22.375340
 30
0.0
 10
-67.425342
 20
-22.194974
 30
0.0
 10
-67.605693
 20
-22.121605
 30
0.0
 10
-67.605693
 20
-22.120573
 30
0.0
  0
LWPOLYLINE
  5
11f
100
AcDbEntity
  8
Raster_fill
 62
7
100
AcDbPolyline
 90
22
 70
1
 10
-62.007586
 20
-22.120573
 30
0.0
 10
-62.183285
 20
-22.196535
 30
0.0
 10
-62.254082
 20
-22.374308
 30
0.0
 10
-62.254082
 20
-25.134336
 30
0.0
 10
-62.244264
 20
-25.252155
 30
0.0
 10
-62.181216
 20
-25.352405
 30
0.0
 10
-62.180184
 20
-25.354998
 30
0.0
 10
-62.176567
 20
-25.358094
 30
0.0
 10
-62.077865
 20
-25.416487
 30
0.0
 10
-61.963144
 20
-25.424240
 30
0.0
 10
-60.137932
 20
-25.424240
 30
0.0
 10
-60.008741
 20
-25.394262
 30
0.0
 10
-59.913655
 20
-25.302293
 30
0.0
 10
-59.878516
 20
-25.174658
 30
0.0
 10
-59.913655
 20
-25.046997
 30
0.0
 10
-60.008741
 20
-24.955028
 30
0.0
 10
-60.137932
 20
-24.924548
 30
0.0
 10
-61.753853
 20
-24.924548
 30
0.0
 10
-61.753853
 20
-22.375340
 30
0.0
 10
-61.827233
 20
-22.194974
 30
0.0
 10
-62.007586
 20
-22.121605
 30
0.0
 10
-62.007586
 20
-22.120573
 30
0.0
  0
LWPOLYLINE
  5
120
100
AcDbEntity
  8
Raster_fill
 62
7
100
AcDbPolyline
 90
44
 70
1
 10
63.260221
 20
-22.120573
 30
0.0
 10
63.260221
 20
-22.121605
 30
0.0
 10
63.167720
 20
-22.142798
 30
0.0
 10
63.157902
 20
-22.147455
 30
0.0
 10
63.141365
 20
-22.155710
 30
0.0
 10
63.062818
 20
-22.223416
 30
0.0
 10
62.645787
 20
-22.639924
 30
0.0
 10
62.568275
 20
-22.741735
 30
0.0
 10
62.564656
 20
-22.749487
 30
0.0
 10
62.548638
 20
-22.874530
 30
0.0
 10
62.548638
 20
-24.670812
 30
0.0
 10
62.566725
 20
-24.801543
 30
0.0
 10
62.567757
 20
-24.805168
 30
0.0
 10
62.569826
 20
-24.809295
 30
0.0
 10
62.646822
 20
-24.907482
 30
0.0
 10
63.061784
 20
-25.321925
 30
0.0
 10
63.164104
 20
-25.402015
 30
0.0
 10
63.174954
 20
-25.406671
 30
0.0
 10
63.302078
 20
-25.422705
 30
0.0
 10
64.161974
 20
-25.422705
 30
0.0
 10
64.272562
 20
-25.412889
 30
0.0
 10
64.286516
 20
-25.407201
 30
0.0
 10
64.299952
 20
-25.402015
 30
0.0
 10
64.401237
 20
-25.322455
 30
0.0
 10
64.816199
 20
-24.908011
 30
0.0
 10
64.886996
 20
-24.823239
 30
0.0
 10
64.895264
 20
-24.805670
 30
0.0
 10
64.897847
 20
-24.800511
 30
0.0
 10
64.899397
 20
-24.796384
 30
0.0
 10
64.899916
 20
-24.793791
 30
0.0
 10
64.914902
 20
-24.669780
 30
0.0
 10
64.914902
 20
-22.875059
 30
0.0
 10
64.896296
 20
-22.741206
 30
0.0
 10
64.894746
 20
-22.737079
 30
0.0
 10
64.891647
 20
-22.730861
 30
0.0
 10
64.816715
 20
-22.636299
 30
0.0
 10
64.400721
 20
-22.220824
 30
0.0
 10
64.297367
 20
-22.140734
 30
0.0
 10
64.290649
 20
-22.137639
 30
0.0
 10
64.289099
 20
-22.137639
 30
0.0
 10
64.286516
 20
-22.137639
 30
0.0
 10
64.163525
 20
-22.123166
 30
0.0
 10
63.302078
 20
-22.123166
 30
0.0
 10
63.260221
 20
-22.120573
 30
0.0
  0
LWPOLYLINE
  5
121
100
AcDbEntity
  8
Raster_fill
 62
7
100
AcDbPolyline
 90
23
 70
1
 10
65.593928
 20
-22.120573
 30
0.0
 10
65.418229
 20
-22.196535
 30
0.0
 10
65.347951
 20
-22.374308
 30
0.0
 10
65.347951
 20
-25.131240
 30
0.0
 10
65.353634
 20
-25.239772
 30
0.0
 10
65.404278
 20
-25.335366
 30
0.0
 10
65.419780
 20
-25.351903
 30
0.0
 10
65.421846
 20
-25.354496
 30
0.0
 10
65.425463
 20
-25.357591
 30
0.0
 10
65.524682
 20
-25.415985
 30
0.0
 10
65.638886
 20
-25.423737
 30
0.0
 10
67.464099
 20
-25.423737
 30
0.0
 10
67.593289
 20
-25.393760
 30
0.0
 10
67.688375
 20
-25.301764
 30
0.0
 10
67.723515
 20
-25.174129
 30
0.0
 10
67.688375
 20
-25.045965
 30
0.0
 10
67.593289
 20
-24.954499
 30
0.0
 10
67.464099
 20
-24.924019
 30
0.0
 10
65.847661
 20
-24.924019
 30
0.0
 10
65.847661
 20
-22.374811
 30
0.0
 10
65.774279
 20
-22.194471
 30
0.0
 10
65.593928
 20
-22.121102
 30
0.0
 10
65.593928
 20
-22.120573
 30
0.0
  0
LWPOLYLINE
  5
122
100
AcDbEntity
  8
Raster_fill
 62
7
100
AcDbPolyline
 90
46
 70
1
 10
71.192554
 20
-22.120573
 30
0.0
 10
71.034423
 20
-22.180527
 30
0.0
 10
71.019437
 20
-22.194471
 30
0.0
 10
71.015304
 20
-22.198096
 30
0.0
 10
71.012203
 20
-22.201694
 30
0.0
 10
70.953810
 20
-22.300913
 30
0.0
 10
70.946058
 20
-22.415636
 30
0.0
 10
70.946058
 20
-24.198478
 30
0.0
 10
70.946058
 20
-24.281160
 30
0.0
 10
70.946058
 20
-25.173097
 30
0.0
 10
70.979646
 20
-25.298669
 30
0.0
 10
71.071113
 20
-25.390135
 30
0.0
 10
71.196171
 20
-25.423208
 30
0.0
 10
71.321229
 20
-25.390135
 30
0.0
 10
71.412695
 20
-25.298669
 30
0.0
 10
71.446284
 20
-25.173097
 30
0.0
 10
71.446284
 20
-24.490446
 30
0.0
 10
72.025579
 20
-24.490446
 30
0.0
 10
72.885475
 20
-25.350342
 30
0.0
 10
72.998129
 20
-25.418049
 30
0.0
 10
73.129386
 20
-25.420641
 30
0.0
 10
73.243591
 20
-25.355527
 30
0.0
 10
73.308705
 20
-25.241307
 30
0.0
 10
73.307154
 20
-25.110047
 30
0.0
 10
73.238939
 20
-24.997387
 30
0.0
 10
72.707706
 20
-24.466157
 30
0.0
 10
72.798141
 20
-24.392259
 30
0.0
 10
73.213619
 20
-23.976784
 30
0.0
 10
73.293200
 20
-23.872908
 30
0.0
 10
73.294751
 20
-23.869310
 30
0.0
 10
73.296301
 20
-23.865182
 30
0.0
 10
73.312322
 20
-23.740114
 30
0.0
 10
73.312322
 20
-22.876593
 30
0.0
 10
73.293716
 20
-22.744302
 30
0.0
 10
73.292168
 20
-22.740174
 30
0.0
 10
73.290099
 20
-22.736047
 30
0.0
 10
73.214135
 20
-22.639924
 30
0.0
 10
72.797622
 20
-22.223416
 30
0.0
 10
72.693755
 20
-22.143830
 30
0.0
 10
72.687037
 20
-22.141237
 30
0.0
 10
72.686003
 20
-22.141237
 30
0.0
 10
72.684452
 20
-22.141237
 30
0.0
 10
72.560945
 20
-22.125732
 30
0.0
 10
71.238028
 20
-22.125732
 30
0.0
 10
71.192554
 20
-22.122134
 30
0.0
 10
71.192554
 20
-22.120573
 30
0.0
  0
LWPOLYLINE
  5
123
100
AcDbEntity
  8
Raster_fill
 62
7
100
AcDbPolyline
 90
58
 70
1
 10
-58.320472
 20
-22.599098
 30
0.0
 10
-54.975456
 20
-22.599098
 30
0.0
 10
-40.894146
 20
-22.599098
 30
0.0
 10
-0.000517
 20
-22.599098
 30
0.0
 10
40.893627
 20
-22.599098
 30
0.0
 10
54.974940
 20
-22.599098
 30
0.0
 10
58.319956
 20
-22.599098
 30
0.0
 10
56.773278
 20
-24.145244
 30
0.0
 10
56.654422
 20
-24.298729
 30
0.0
 10
56.648223
 20
-24.313201
 30
0.0
 10
56.624450
 20
-24.500791
 30
0.0
 10
56.624450
 20
-35.462399
 30
0.0
 10
56.592412
 20
-35.621043
 30
0.0
 10
56.624450
 20
-35.710446
 30
0.0
 10
56.624450
 20
-43.198366
 30
0.0
 10
56.651321
 20
-43.393179
 30
0.0
 10
56.653390
 20
-43.397835
 30
0.0
 10
56.656491
 20
-43.405059
 30
0.0
 10
56.772246
 20
-43.552352
 30
0.0
 10
57.624906
 20
-44.404998
 30
0.0
 10
57.624906
 20
-53.593581
 30
0.0
 10
57.492098
 20
-53.726401
 30
0.0
 10
34.542076
 20
-53.726401
 30
0.0
 10
34.457846
 20
-53.716056
 30
0.0
 10
34.440275
 20
-53.721216
 30
0.0
 10
33.450670
 20
-52.732150
 30
0.0
 10
33.292542
 20
-52.610706
 30
0.0
 10
33.286856
 20
-52.608114
 30
0.0
 10
33.282723
 20
-52.605547
 30
0.0
 10
33.278072
 20
-52.602425
 30
0.0
 10
33.092038
 20
-52.580729
 30
0.0
 10
0.040824
 20
-52.580729
 30
0.0
 10
-0.001034
 20
-52.583825
 30
0.0
 10
-0.041341
 20
-52.580729
 30
0.0
 10
-33.092554
 20
-52.580729
 30
0.0
 10
-33.281689
 20
-52.604489
 30
0.0
 10
-33.299776
 20
-52.611209
 30
0.0
 10
-33.450154
 20
-52.728525
 30
0.0
 10
-34.444408
 20
-53.722274
 30
0.0
 10
-34.469731
 20
-53.715554
 30
0.0
 10
-34.495568
 20
-53.723809
 30
0.0
 10
-57.492614
 20
-53.723809
 30
0.0
 10
-57.625424
 20
-53.591014
 30
0.0
 10
-57.625424
 20
-44.402405
 30
0.0
 10
-56.772762
 20
-43.549759
 30
0.0
 10
-56.657007
 20
-43.401434
 30
0.0
 10
-56.648739
 20
-43.382834
 30
0.0
 10
-56.625485
 20
-43.192148
 30
0.0
 10
-56.625485
 20
-35.709414
 30
0.0
 10
-56.592928
 20
-35.616916
 30
0.0
 10
-56.625485
 20
-35.463934
 30
0.0
 10
-56.625485
 20
-24.501823
 30
0.0
 10
-56.651840
 20
-24.302856
 30
0.0
 10
-56.652872
 20
-24.300290
 30
0.0
 10
-56.655457
 20
-24.294601
 30
0.0
 10
-56.658039
 20
-24.288913
 30
0.0
 10
-56.772246
 20
-24.144212
 30
0.0
 10
-58.320472
 20
-22.599098
 30
0.0
  0
LWPOLYLINE
  5
124
100
AcDbEntity
  8
Raster_fill
 62
7
100
AcDbPolyline
 90
9
 70
1
 10
63.368743
 20
-22.623387
 30
0.0
 10
64.094797
 20
-22.623387
 30
0.0
 10
64.414673
 20
-22.943268
 30
0.0
 10
64.414673
 20
-24.602603
 30
0.0
 10
64.094278
 20
-24.922457
 30
0.0
 10
63.369259
 20
-24.922457
 30
0.0
 10
63.048864
 20
-24.602603
 30
0.0
 10
63.048864
 20
-22.943268
 30
0.0
 10
63.368743
 20
-22.623387
 30
0.0
  0
LWPOLYLINE
  5
125
100
AcDbEntity
  8
Raster_fill
 62
7
100
AcDbPolyline
 90
9
 70
1
 10
-69.831397
 20
-22.625451
 30
0.0
 10
-69.104825
 20
-22.625451
 30
0.0
 10
-68.784949
 20
-22.945835
 30
0.0
 10
-68.784949
 20
-24.604137
 30
0.0
 10
-69.105343
 20
-24.924548
 30
0.0
 10
-69.830879
 20
-24.924548
 30
0.0
 10
-70.151273
 20
-24.604666
 30
0.0
 10
-70.151273
 20
-22.945332
 30
0.0
 10
-69.831397
 20
-22.625451
 30
0.0
  0
LWPOLYLINE
  5
126
100
AcDbEntity
  8
Raster_fill
 62
7
100
AcDbPolyline
 90
9
 70
1
 10
71.446284
 20
-22.625980
 30
0.0
 10
72.492216
 20
-22.625980
 30
0.0
 10
72.812092
 20
-22.945835
 30
0.0
 10
72.812092
 20
-23.671904
 30
0.0
 10
72.492216
 20
-23.991786
 30
0.0
 10
72.158386
 20
-23.991786
 30
0.0
 10
72.094307
 20
-23.991786
 30
0.0
 10
71.446284
 20
-23.991786
 30
0.0
 10
71.446284
 20
-22.625980
 30
0.0
  0
LWPOLYLINE
  5
127
100
AcDbEntity
  8
Raster_fill
 62
7
100
AcDbPolyline
 90
15
 70
1
 10
-64.802763
 20
-23.523579
 30
0.0
 10
-64.927819
 20
-23.557181
 30
0.0
 10
-65.019288
 20
-23.648647
 30
0.0
 10
-65.052877
 20
-23.773690
 30
0.0
 10
-65.019288
 20
-23.898758
 30
0.0
 10
-64.927819
 20
-23.990225
 30
0.0
 10
-64.802763
 20
-24.023827
 30
0.0
 10
-62.936726
 20
-24.023827
 30
0.0
 10
-62.811671
 20
-23.990225
 30
0.0
 10
-62.720201
 20
-23.898758
 30
0.0
 10
-62.686613
 20
-23.773690
 30
0.0
 10
-62.720201
 20
-23.648647
 30
0.0
 10
-62.811671
 20
-23.557181
 30
0.0
 10
-62.936726
 20
-23.523579
 30
0.0
 10
-64.802763
 20
-23.523579
 30
0.0
  0
LWPOLYLINE
  5
128
100
AcDbEntity
  8
Raster_fill
 62
7
100
AcDbPolyline
 90
15
 70
1
 10
68.396858
 20
-23.523579
 30
0.0
 10
68.271803
 20
-23.557181
 30
0.0
 10
68.180334
 20
-23.648647
 30
0.0
 10
68.146745
 20
-23.773690
 30
0.0
 10
68.180334
 20
-23.898758
 30
0.0
 10
68.271803
 20
-23.990225
 30
0.0
 10
68.396858
 20
-24.023827
 30
0.0
 10
70.262896
 20
-24.023827
 30
0.0
 10
70.387951
 20
-23.990225
 30
0.0
 10
70.479420
 20
-23.898758
 30
0.0
 10
70.513009
 20
-23.773690
 30
0.0
 10
70.479420
 20
-23.648647
 30
0.0
 10
70.387951
 20
-23.557181
 30
0.0
 10
70.262896
 20
-23.523579
 30
0.0
 10
68.396858
 20
-23.523579
 30
0.0
  0
LWPOLYLINE
  5
129
100
AcDbEntity
  8
Raster_fill
 62
7
100
AcDbPolyline
 90
6
 70
1
 10
-70.697492
 20
-26.448468
 30
0.0
 10
-68.595814
 20
-26.448468
 30
0.0
 10
-68.606149
 20
-26.527023
 30
0.0
 10
-67.140606
 20
-49.791227
 30
0.0
 10
-69.366826
 20
-53.043221
 30
0.0
 10
-70.697492
 20
-26.448468
 30
0.0
  0
LWPOLYLINE
  5
12a
100
AcDbEntity
  8
Raster_fill
 62
7
100
AcDbPolyline
 90
6
 70
1
 10
-67.409322
 20
-26.448468
 30
0.0
 10
-57.375309
 20
-26.448468
 30
0.0
 10
-57.375309
 20
-35.525952
 30
0.0
 10
-66.039897
 20
-48.183063
 30
0.0
 10
-67.408806
 20
-26.451564
 30
0.0
 10
-67.409322
 20
-26.448468
 30
0.0
  0
LWPOLYLINE
  5
12b
100
AcDbEntity
  8
Raster_fill
 62
7
100
AcDbPolyline
 90
6
 70
1
 10
57.374793
 20
-26.448468
 30
0.0
 10
67.408806
 20
-26.448468
 30
0.0
 10
67.408287
 20
-26.451564
 30
0.0
 10
66.039381
 20
-48.184095
 30
0.0
 10
57.374793
 20
-35.526984
 30
0.0
 10
57.374793
 20
-26.448468
 30
0.0
  0
LWPOLYLINE
  5
12c
100
AcDbEntity
  8
Raster_fill
 62
7
100
AcDbPolyline
 90
6
 70
1
 10
68.594780
 20
-26.448468
 30
0.0
 10
70.696976
 20
-26.448468
 30
0.0
 10
69.365791
 20
-53.043750
 30
0.0
 10
67.140087
 20
-49.792259
 30
0.0
 10
68.605633
 20
-26.527023
 30
0.0
 10
68.594780
 20
-26.448468
 30
0.0
  0
LWPOLYLINE
  5
12d
100
AcDbEntity
  8
Raster_fill
 62
7
100
AcDbPolyline
 90
40
 70
1
 10
-57.375309
 20
-36.852996
 30
0.0
 10
-57.375309
 20
-43.094491
 30
0.0
 10
-58.229003
 20
-43.947666
 30
0.0
 10
-58.348377
 20
-44.104749
 30
0.0
 10
-58.349928
 20
-44.108903
 30
0.0
 10
-58.354061
 20
-44.119751
 30
0.0
 10
-58.375248
 20
-44.304245
 30
0.0
 10
-58.375248
 20
-53.694360
 30
0.0
 10
-58.353029
 20
-53.881421
 30
0.0
 10
-58.226420
 20
-54.053506
 30
0.0
 10
-57.949952
 20
-54.329969
 30
0.0
 10
-57.792855
 20
-54.449349
 30
0.0
 10
-57.788720
 20
-54.451942
 30
0.0
 10
-57.777869
 20
-54.456572
 30
0.0
 10
-57.593383
 20
-54.477765
 30
0.0
 10
-35.000449
 20
-54.477765
 30
0.0
 10
-38.944394
 20
-66.147345
 30
0.0
 10
-44.868579
 20
-66.147345
 30
0.0
 10
-44.935759
 20
-66.142689
 30
0.0
 10
-44.935759
 20
-66.143218
 30
0.0
 10
-45.078901
 20
-66.173698
 30
0.0
 10
-45.199308
 20
-66.256909
 30
0.0
 10
-45.201893
 20
-66.259476
 30
0.0
 10
-45.206026
 20
-66.263603
 30
0.0
 10
-45.293875
 20
-66.412961
 30
0.0
 10
-45.305244
 20
-66.585046
 30
0.0
 10
-45.305244
 20
-72.013131
 30
0.0
 10
-45.290258
 20
-72.179528
 30
0.0
 10
-45.283025
 20
-72.200192
 30
0.0
 10
-45.274757
 20
-72.220882
 30
0.0
 10
-45.157967
 20
-72.371245
 30
0.0
 10
-43.950289
 20
-73.578406
 30
0.0
 10
-43.950289
 20
-76.518298
 30
0.0
 10
-44.515630
 20
-77.083104
 30
0.0
 10
-45.159001
 20
-77.726491
 30
0.0
 10
-45.192074
 20
-77.769883
 30
0.0
 10
-50.369018
 20
-59.979749
 30
0.0
 10
-65.784616
 20
-52.233993
 30
0.0
 10
-65.963416
 20
-49.398506
 30
0.0
 10
-57.375309
 20
-36.852996
 30
0.0
  0
LWPOLYLINE
  5
12e
100
AcDbEntity
  8
Raster_fill
 62
7
100
AcDbPolyline
 90
43
 70
1
 10
57.374793
 20
-36.854028
 30
0.0
 10
65.962898
 20
-49.399538
 30
0.0
 10
65.784098
 20
-52.233993
 30
0.0
 10
50.368502
 20
-59.979749
 30
0.0
 10
45.192074
 20
-77.767819
 30
0.0
 10
45.157967
 20
-77.723898
 30
0.0
 10
44.515111
 20
-77.081040
 30
0.0
 10
43.949773
 20
-76.516207
 30
0.0
 10
43.949773
 20
-73.576343
 30
0.0
 10
45.158483
 20
-72.368149
 30
0.0
 10
45.277339
 20
-72.212098
 30
0.0
 10
45.278889
 20
-72.208473
 30
0.0
 10
45.281474
 20
-72.202282
 30
0.0
 10
45.283541
 20
-72.196064
 30
0.0
 10
45.304729
 20
-72.011597
 30
0.0
 10
45.304729
 20
-66.582982
 30
0.0
 10
45.291293
 20
-66.404176
 30
0.0
 10
45.196207
 20
-66.252253
 30
0.0
 10
45.194657
 20
-66.249660
 30
0.0
 10
45.192074
 20
-66.247067
 30
0.0
 10
45.189489
 20
-66.244500
 30
0.0
 10
45.067016
 20
-66.165946
 30
0.0
 10
44.924390
 20
-66.140096
 30
0.0
 10
44.924390
 20
-66.143218
 30
0.0
 10
44.868579
 20
-66.148377
 30
0.0
 10
38.943875
 20
-66.148377
 30
0.0
 10
34.999414
 20
-54.477765
 30
0.0
 10
57.592868
 20
-54.477765
 30
0.0
 10
57.785103
 20
-54.453476
 30
0.0
 10
57.798539
 20
-54.448317
 30
0.0
 10
57.800089
 20
-54.448317
 30
0.0
 10
57.802674
 20
-54.445724
 30
0.0
 10
57.950468
 20
-54.329969
 30
0.0
 10
58.225386
 20
-54.054538
 30
0.0
 10
58.347859
 20
-53.894862
 30
0.0
 10
58.348893
 20
-53.892269
 30
0.0
 10
58.353029
 20
-53.881421
 30
0.0
 10
58.374732
 20
-53.695392
 30
0.0
 10
58.374732
 20
-44.303716
 30
0.0
 10
58.352510
 20
-44.118190
 30
0.0
 10
58.224870
 20
-43.945602
 30
0.0
 10
57.374793
 20
-43.095522
 30
0.0
 10
57.374793
 20
-36.854028
 30
0.0
  0
LWPOLYLINE
  5
12f
100
AcDbEntity
  8
Raster_fill
 62
7
100
AcDbPolyline
 90
52
 70
1
 10
-11.355896
 20
-48.020291
 30
0.0
 10
-11.356413
 20
-48.020794
 30
0.0
 10
-11.526428
 20
-48.091067
 30
0.0
 10
-11.534696
 20
-48.099349
 30
0.0
 10
-11.594124
 20
-48.197536
 30
0.0
 10
-11.602909
 20
-48.312259
 30
0.0
 10
-11.602909
 20
-49.484787
 30
0.0
 10
-11.605493
 20
-49.502355
 30
0.0
 10
-11.602909
 20
-49.561780
 30
0.0
 10
-11.602909
 20
-50.734334
 30
0.0
 10
-11.593091
 20
-50.852153
 30
0.0
 10
-11.530046
 20
-50.952404
 30
0.0
 10
-11.529012
 20
-50.954997
 30
0.0
 10
-11.525395
 20
-50.958092
 30
0.0
 10
-11.426176
 20
-51.016486
 30
0.0
 10
-11.311971
 20
-51.024238
 30
0.0
 10
-10.139950
 20
-51.024238
 30
0.0
 10
-10.028845
 20
-51.014422
 30
0.0
 10
-10.014892
 20
-51.009236
 30
0.0
 10
-10.001457
 20
-51.004077
 30
0.0
 10
-9.899137
 20
-50.923459
 30
0.0
 10
-9.535852
 20
-50.560186
 30
0.0
 10
-9.455754
 20
-50.456839
 30
0.0
 10
-9.453687
 20
-50.452685
 30
0.0
 10
-9.452136
 20
-50.448558
 30
0.0
 10
-9.451103
 20
-50.445965
 30
0.0
 10
-9.436633
 20
-50.320923
 30
0.0
 10
-9.436633
 20
-49.977785
 30
0.0
 10
-9.446452
 20
-49.867189
 30
0.0
 10
-9.451619
 20
-49.852743
 30
0.0
 10
-9.456787
 20
-49.839302
 30
0.0
 10
-9.534818
 20
-49.739051
 30
0.0
 10
-9.749792
 20
-49.524077
 30
0.0
 10
-9.535852
 20
-49.310135
 30
0.0
 10
-9.455754
 20
-49.206762
 30
0.0
 10
-9.453687
 20
-49.202635
 30
0.0
 10
-9.451619
 20
-49.198507
 30
0.0
 10
-9.451103
 20
-49.195915
 30
0.0
 10
-9.436116
 20
-49.070343
 30
0.0
 10
-9.436116
 20
-48.727205
 30
0.0
 10
-9.445935
 20
-48.616636
 30
0.0
 10
-9.451103
 20
-48.602666
 30
0.0
 10
-9.456270
 20
-48.589251
 30
0.0
 10
-9.534302
 20
-48.489001
 30
0.0
 10
-9.900688
 20
-48.122606
 30
0.0
 10
-10.003524
 20
-48.043548
 30
0.0
 10
-10.011275
 20
-48.039394
 30
0.0
 10
-10.011792
 20
-48.039394
 30
0.0
 10
-10.012309
 20
-48.039394
 30
0.0
 10
-10.137366
 20
-48.023387
 30
0.0
 10
-11.313521
 20
-48.023387
 30
0.0
 10
-11.355896
 20
-48.020291
 30
0.0
  0
LWPOLYLINE
  5
130
100
AcDbEntity
  8
Raster_fill
 62
7
100
AcDbPolyline
 90
51
 70
1
 10
-47.504077
 20
-48.020794
 30
0.0
 10
-47.674093
 20
-48.091067
 30
0.0
 10
-47.682362
 20
-48.099349
 30
0.0
 10
-47.741790
 20
-48.199097
 30
0.0
 10
-47.750058
 20
-48.315355
 30
0.0
 10
-47.750058
 20
-49.481188
 30
0.0
 10
-47.753159
 20
-49.502355
 30
0.0
 10
-47.750058
 20
-49.564902
 30
0.0
 10
-47.750058
 20
-50.730710
 30
0.0
 10
-47.742306
 20
-50.846994
 30
0.0
 10
-47.682878
 20
-50.947245
 30
0.0
 10
-47.677194
 20
-50.953436
 30
0.0
 10
-47.675125
 20
-50.956029
 30
0.0
 10
-47.575391
 20
-51.015957
 30
0.0
 10
-47.459119
 20
-51.024238
 30
0.0
 10
-46.287097
 20
-51.024238
 30
0.0
 10
-46.176509
 20
-51.014422
 30
0.0
 10
-46.162558
 20
-51.008734
 30
0.0
 10
-46.149122
 20
-51.004077
 30
0.0
 10
-46.048353
 20
-50.925522
 30
0.0
 10
-45.682482
 20
-50.559656
 30
0.0
 10
-45.603419
 20
-50.456839
 30
0.0
 10
-45.601350
 20
-50.452685
 30
0.0
 10
-45.599800
 20
-50.448055
 30
0.0
 10
-45.584298
 20
-50.320923
 30
0.0
 10
-45.584298
 20
-49.977785
 30
0.0
 10
-45.594117
 20
-49.867189
 30
0.0
 10
-45.599284
 20
-49.853245
 30
0.0
 10
-45.604451
 20
-49.839805
 30
0.0
 10
-45.681966
 20
-49.739554
 30
0.0
 10
-45.896940
 20
-49.524580
 30
0.0
 10
-45.682482
 20
-49.310135
 30
0.0
 10
-45.603419
 20
-49.207292
 30
0.0
 10
-45.601350
 20
-49.203164
 30
0.0
 10
-45.599284
 20
-49.199037
 30
0.0
 10
-45.583782
 20
-49.071904
 30
0.0
 10
-45.583782
 20
-48.728766
 30
0.0
 10
-45.593601
 20
-48.618170
 30
0.0
 10
-45.598768
 20
-48.604227
 30
0.0
 10
-45.603935
 20
-48.590786
 30
0.0
 10
-45.681450
 20
-48.490535
 30
0.0
 10
-46.049385
 20
-48.122606
 30
0.0
 10
-46.151189
 20
-48.045083
 30
0.0
 10
-46.158938
 20
-48.040955
 30
0.0
 10
-46.159457
 20
-48.040955
 30
0.0
 10
-46.159973
 20
-48.040955
 30
0.0
 10
-46.285031
 20
-48.024922
 30
0.0
 10
-47.461186
 20
-48.024922
 30
0.0
 10
-47.503562
 20
-48.021826
 30
0.0
 10
-47.504077
 20
-48.021826
 30
0.0
 10
-47.504077
 20
-48.020794
 30
0.0
  0
LWPOLYLINE
  5
131
100
AcDbEntity
  8
Raster_fill
 62
7
100
AcDbPolyline
 90
39
 70
1
 10
-44.171981
 20
-48.020794
 30
0.0
 10
-44.206086
 20
-48.023890
 30
0.0
 10
-45.000870
 20
-48.023890
 30
0.0
 10
-45.125928
 20
-48.057492
 30
0.0
 10
-45.217395
 20
-48.148958
 30
0.0
 10
-45.250984
 20
-48.274027
 30
0.0
 10
-45.217395
 20
-48.399069
 30
0.0
 10
-45.125928
 20
-48.490535
 30
0.0
 10
-45.000870
 20
-48.524137
 30
0.0
 10
-44.417962
 20
-48.524137
 30
0.0
 10
-44.417962
 20
-50.773096
 30
0.0
 10
-44.387471
 20
-50.901763
 30
0.0
 10
-44.296005
 20
-50.997357
 30
0.0
 10
-44.167846
 20
-51.032493
 30
0.0
 10
-44.040205
 20
-50.997357
 30
0.0
 10
-43.948739
 20
-50.901763
 30
0.0
 10
-43.918248
 20
-50.773096
 30
0.0
 10
-43.918248
 20
-48.524137
 30
0.0
 10
-43.334824
 20
-48.524137
 30
0.0
 10
-43.310019
 20
-48.524137
 30
0.0
 10
-43.260925
 20
-48.514824
 30
0.0
 10
-43.237155
 20
-48.506569
 30
0.0
 10
-43.193229
 20
-48.483312
 30
0.0
 10
-43.173076
 20
-48.468840
 30
0.0
 10
-43.137937
 20
-48.433174
 30
0.0
 10
-43.110031
 20
-48.391846
 30
0.0
 10
-43.099694
 20
-48.369092
 30
0.0
 10
-43.082125
 20
-48.296225
 30
0.0
 10
-43.081607
 20
-48.271434
 30
0.0
 10
-43.087293
 20
-48.221825
 30
0.0
 10
-43.093494
 20
-48.197536
 30
0.0
 10
-43.113648
 20
-48.152054
 30
0.0
 10
-43.244389
 20
-48.040955
 30
0.0
 10
-43.292448
 20
-48.028044
 30
0.0
 10
-43.317253
 20
-48.025451
 30
0.0
 10
-43.334824
 20
-48.025451
 30
0.0
 10
-44.129090
 20
-48.025451
 30
0.0
 10
-44.171981
 20
-48.022355
 30
0.0
 10
-44.171981
 20
-48.020794
 30
0.0
  0
LWPOLYLINE
  5
132
100
AcDbEntity
  8
Raster_fill
 62
7
100
AcDbPolyline
 90
47
 70
1
 10
-18.854146
 20
-48.020794
 30
0.0
 10
-19.024162
 20
-48.091067
 30
0.0
 10
-19.032430
 20
-48.099349
 30
0.0
 10
-19.091858
 20
-48.199097
 30
0.0
 10
-19.100126
 20
-48.315355
 30
0.0
 10
-19.100126
 20
-49.481691
 30
0.0
 10
-19.102710
 20
-49.502355
 30
0.0
 10
-19.100126
 20
-49.564902
 30
0.0
 10
-19.100126
 20
-50.731239
 30
0.0
 10
-19.092375
 20
-50.846994
 30
0.0
 10
-19.032947
 20
-50.947245
 30
0.0
 10
-19.027262
 20
-50.953436
 30
0.0
 10
-19.025195
 20
-50.956029
 30
0.0
 10
-18.925460
 20
-51.015957
 30
0.0
 10
-18.809188
 20
-51.024238
 30
0.0
 10
-17.637166
 20
-51.024238
 30
0.0
 10
-17.526579
 20
-51.014422
 30
0.0
 10
-17.514693
 20
-51.009766
 30
0.0
 10
-17.499190
 20
-51.004077
 30
0.0
 10
-17.398421
 20
-50.925522
 30
0.0
 10
-17.032552
 20
-50.559656
 30
0.0
 10
-16.953487
 20
-50.456839
 30
0.0
 10
-16.951420
 20
-50.452685
 30
0.0
 10
-16.949870
 20
-50.448055
 30
0.0
 10
-16.934367
 20
-50.319362
 30
0.0
 10
-16.934367
 20
-49.977785
 30
0.0
 10
-16.949353
 20
-49.853245
 30
0.0
 10
-16.954521
 20
-49.839805
 30
0.0
 10
-17.032035
 20
-49.739554
 30
0.0
 10
-17.247009
 20
-49.524580
 30
0.0
 10
-17.032552
 20
-49.310135
 30
0.0
 10
-16.953487
 20
-49.207292
 30
0.0
 10
-16.951420
 20
-49.203164
 30
0.0
 10
-16.949353
 20
-49.199037
 30
0.0
 10
-16.933850
 20
-49.070343
 30
0.0
 10
-16.933850
 20
-48.728766
 30
0.0
 10
-16.948836
 20
-48.604227
 30
0.0
 10
-16.954004
 20
-48.590786
 30
0.0
 10
-17.031519
 20
-48.490535
 30
0.0
 10
-17.397904
 20
-48.124140
 30
0.0
 10
-17.482654
 20
-48.053867
 30
0.0
 10
-17.500224
 20
-48.045612
 30
0.0
 10
-17.509525
 20
-48.041485
 30
0.0
 10
-17.635099
 20
-48.024922
 30
0.0
 10
-18.810738
 20
-48.024922
 30
0.0
 10
-18.853629
 20
-48.021826
 30
0.0
 10
-18.854146
 20
-48.020794
 30
0.0
  0
LWPOLYLINE
  5
133
100
AcDbEntity
  8
Raster_fill
 62
7
100
AcDbPolyline
 90
39
 70
1
 10
-15.522050
 20
-48.020794
 30
0.0
 10
-15.556156
 20
-48.023890
 30
0.0
 10
-16.350940
 20
-48.023890
 30
0.0
 10
-16.475997
 20
-48.057492
 30
0.0
 10
-16.567464
 20
-48.148958
 30
0.0
 10
-16.601054
 20
-48.274027
 30
0.0
 10
-16.567464
 20
-48.399069
 30
0.0
 10
-16.475997
 20
-48.490535
 30
0.0
 10
-16.350940
 20
-48.524137
 30
0.0
 10
-15.768030
 20
-48.524137
 30
0.0
 10
-15.768030
 20
-50.773096
 30
0.0
 10
-15.734440
 20
-50.898138
 30
0.0
 10
-15.642973
 20
-50.989604
 30
0.0
 10
-15.517916
 20
-51.023206
 30
0.0
 10
-15.392859
 20
-50.989604
 30
0.0
 10
-15.301392
 20
-50.898138
 30
0.0
 10
-15.267802
 20
-50.773096
 30
0.0
 10
-15.267802
 20
-48.524137
 30
0.0
 10
-14.684892
 20
-48.524137
 30
0.0
 10
-14.660087
 20
-48.524137
 30
0.0
 10
-14.610994
 20
-48.514824
 30
0.0
 10
-14.587223
 20
-48.506569
 30
0.0
 10
-14.543298
 20
-48.483312
 30
0.0
 10
-14.523145
 20
-48.468840
 30
0.0
 10
-14.488004
 20
-48.433174
 30
0.0
 10
-14.460099
 20
-48.391846
 30
0.0
 10
-14.449764
 20
-48.369092
 30
0.0
 10
-14.432194
 20
-48.296225
 30
0.0
 10
-14.431677
 20
-48.271434
 30
0.0
 10
-14.437362
 20
-48.221825
 30
0.0
 10
-14.443563
 20
-48.197536
 30
0.0
 10
-14.463717
 20
-48.152054
 30
0.0
 10
-14.594458
 20
-48.040955
 30
0.0
 10
-14.642517
 20
-48.028044
 30
0.0
 10
-14.667322
 20
-48.025451
 30
0.0
 10
-14.684892
 20
-48.025451
 30
0.0
 10
-15.479158
 20
-48.025451
 30
0.0
 10
-15.522050
 20
-48.022355
 30
0.0
 10
-15.522050
 20
-48.020794
 30
0.0
  0
LWPOLYLINE
  5
134
100
AcDbEntity
  8
Raster_fill
 62
7
100
AcDbPolyline
 90
53
 70
1
 10
9.696049
 20
-48.020794
 30
0.0
 10
9.526033
 20
-48.091067
 30
0.0
 10
9.517765
 20
-48.099349
 30
0.0
 10
9.458337
 20
-48.197536
 30
0.0
 10
9.449552
 20
-48.312259
 30
0.0
 10
9.449552
 20
-49.484787
 30
0.0
 10
9.446969
 20
-49.502355
 30
0.0
 10
9.449552
 20
-49.561780
 30
0.0
 10
9.449552
 20
-50.734334
 30
0.0
 10
9.459371
 20
-50.852153
 30
0.0
 10
9.522416
 20
-50.952404
 30
0.0
 10
9.523450
 20
-50.954997
 30
0.0
 10
9.527067
 20
-50.958092
 30
0.0
 10
9.626286
 20
-51.016486
 30
0.0
 10
9.741007
 20
-51.024238
 30
0.0
 10
10.912512
 20
-51.024238
 30
0.0
 10
11.023100
 20
-51.014422
 30
0.0
 10
11.039119
 20
-51.008205
 30
0.0
 10
11.051005
 20
-51.003574
 30
0.0
 10
11.152291
 20
-50.923988
 30
0.0
 10
11.517126
 20
-50.559154
 30
0.0
 10
11.596708
 20
-50.456310
 30
0.0
 10
11.598775
 20
-50.452183
 30
0.0
 10
11.600326
 20
-50.448055
 30
0.0
 10
11.601359
 20
-50.445462
 30
0.0
 10
11.615829
 20
-50.322457
 30
0.0
 10
11.615829
 20
-49.977282
 30
0.0
 10
11.597742
 20
-49.843932
 30
0.0
 10
11.597225
 20
-49.843932
 30
0.0
 10
11.595675
 20
-49.840334
 30
0.0
 10
11.594124
 20
-49.836709
 30
0.0
 10
11.517643
 20
-49.739554
 30
0.0
 10
11.302669
 20
-49.524580
 30
0.0
 10
11.517126
 20
-49.310638
 30
0.0
 10
11.596708
 20
-49.207292
 30
0.0
 10
11.598775
 20
-49.203164
 30
0.0
 10
11.600326
 20
-49.199037
 30
0.0
 10
11.600842
 20
-49.196444
 30
0.0
 10
11.615829
 20
-49.072936
 30
0.0
 10
11.615829
 20
-48.727734
 30
0.0
 10
11.597742
 20
-48.594411
 30
0.0
 10
11.597225
 20
-48.594411
 30
0.0
 10
11.595675
 20
-48.590786
 30
0.0
 10
11.594641
 20
-48.588220
 30
0.0
 10
11.517643
 20
-48.489504
 30
0.0
 10
11.151257
 20
-48.123109
 30
0.0
 10
11.048421
 20
-48.044051
 30
0.0
 10
11.040670
 20
-48.040426
 30
0.0
 10
11.040153
 20
-48.040426
 30
0.0
 10
11.039636
 20
-48.040426
 30
0.0
 10
10.914579
 20
-48.023890
 30
0.0
 10
9.738424
 20
-48.023890
 30
0.0
 10
9.696049
 20
-48.020794
 30
0.0
  0
LWPOLYLINE
  5
135
100
AcDbEntity
  8
Raster_fill
 62
7
100
AcDbPolyline
 90
39
 70
1
 10
13.028145
 20
-48.020794
 30
0.0
 10
12.994039
 20
-48.023890
 30
0.0
 10
12.198739
 20
-48.023890
 30
0.0
 10
12.073682
 20
-48.057492
 30
0.0
 10
11.982214
 20
-48.148958
 30
0.0
 10
11.948625
 20
-48.274027
 30
0.0
 10
11.982214
 20
-48.399069
 30
0.0
 10
12.073682
 20
-48.490535
 30
0.0
 10
12.198739
 20
-48.524137
 30
0.0
 10
12.782166
 20
-48.524137
 30
0.0
 10
12.782166
 20
-50.773096
 30
0.0
 10
12.812655
 20
-50.901763
 30
0.0
 10
12.904122
 20
-50.997357
 30
0.0
 10
13.032279
 20
-51.032493
 30
0.0
 10
13.159920
 20
-50.997357
 30
0.0
 10
13.251387
 20
-50.901763
 30
0.0
 10
13.281877
 20
-50.773096
 30
0.0
 10
13.281877
 20
-48.524137
 30
0.0
 10
13.864787
 20
-48.524137
 30
0.0
 10
13.890108
 20
-48.524137
 30
0.0
 10
13.939201
 20
-48.514824
 30
0.0
 10
13.962455
 20
-48.506569
 30
0.0
 10
14.006897
 20
-48.483312
 30
0.0
 10
14.027051
 20
-48.468840
 30
0.0
 10
14.062191
 20
-48.433174
 30
0.0
 10
14.089579
 20
-48.391846
 30
0.0
 10
14.100431
 20
-48.369092
 30
0.0
 10
14.117485
 20
-48.296225
 30
0.0
 10
14.118518
 20
-48.271434
 30
0.0
 10
14.112834
 20
-48.221825
 30
0.0
 10
14.106116
 20
-48.197536
 30
0.0
 10
14.085962
 20
-48.152054
 30
0.0
 10
13.955737
 20
-48.040955
 30
0.0
 10
13.907161
 20
-48.028044
 30
0.0
 10
13.882357
 20
-48.025451
 30
0.0
 10
13.864787
 20
-48.025451
 30
0.0
 10
13.070520
 20
-48.025451
 30
0.0
 10
13.028145
 20
-48.022355
 30
0.0
 10
13.028145
 20
-48.020794
 30
0.0
  0
LWPOLYLINE
  5
136
100
AcDbEntity
  8
Raster_fill
 62
7
100
AcDbPolyline
 90
55
 70
1
 10
38.321176
 20
-48.020794
 30
0.0
 10
38.151160
 20
-48.091067
 30
0.0
 10
38.142892
 20
-48.099349
 30
0.0
 10
38.082948
 20
-48.199097
 30
0.0
 10
38.074679
 20
-48.315355
 30
0.0
 10
38.074679
 20
-49.481691
 30
0.0
 10
38.072094
 20
-49.502355
 30
0.0
 10
38.074679
 20
-49.564902
 30
0.0
 10
38.074679
 20
-50.731239
 30
0.0
 10
38.080363
 20
-50.839242
 30
0.0
 10
38.131007
 20
-50.935338
 30
0.0
 10
38.146508
 20
-50.951901
 30
0.0
 10
38.148575
 20
-50.954468
 30
0.0
 10
38.152194
 20
-50.957563
 30
0.0
 10
38.251413
 20
-51.015957
 30
0.0
 10
38.365618
 20
-51.023709
 30
0.0
 10
39.537637
 20
-51.023709
 30
0.0
 10
39.648225
 20
-51.013893
 30
0.0
 10
39.664246
 20
-51.008205
 30
0.0
 10
39.676131
 20
-51.003574
 30
0.0
 10
39.777416
 20
-50.923988
 30
0.0
 10
40.142253
 20
-50.559154
 30
0.0
 10
40.213050
 20
-50.474408
 30
0.0
 10
40.215116
 20
-50.470783
 30
0.0
 10
40.223900
 20
-50.452183
 30
0.0
 10
40.225451
 20
-50.448055
 30
0.0
 10
40.226485
 20
-50.445462
 30
0.0
 10
40.240955
 20
-50.322457
 30
0.0
 10
40.240955
 20
-49.975721
 30
0.0
 10
40.222868
 20
-49.843932
 30
0.0
 10
40.222350
 20
-49.843932
 30
0.0
 10
40.220799
 20
-49.839805
 30
0.0
 10
40.219768
 20
-49.837238
 30
0.0
 10
40.142769
 20
-49.739051
 30
0.0
 10
39.927795
 20
-49.524077
 30
0.0
 10
40.142253
 20
-49.309606
 30
0.0
 10
40.213050
 20
-49.224860
 30
0.0
 10
40.215116
 20
-49.221235
 30
0.0
 10
40.223900
 20
-49.202635
 30
0.0
 10
40.225451
 20
-49.198507
 30
0.0
 10
40.225969
 20
-49.195915
 30
0.0
 10
40.240955
 20
-49.072407
 30
0.0
 10
40.240955
 20
-48.725671
 30
0.0
 10
40.222868
 20
-48.593882
 30
0.0
 10
40.222350
 20
-48.593882
 30
0.0
 10
40.220799
 20
-48.590283
 30
0.0
 10
40.220284
 20
-48.590283
 30
0.0
 10
40.142769
 20
-48.491065
 30
0.0
 10
39.776384
 20
-48.124670
 30
0.0
 10
39.672514
 20
-48.045083
 30
0.0
 10
39.664762
 20
-48.041987
 30
0.0
 10
39.539706
 20
-48.025451
 30
0.0
 10
38.363549
 20
-48.025451
 30
0.0
 10
38.321176
 20
-48.022355
 30
0.0
 10
38.321176
 20
-48.020794
 30
0.0
  0
LWPOLYLINE
  5
137
100
AcDbEntity
  8
Raster_fill
 62
7
100
AcDbPolyline
 90
39
 70
1
 10
41.653272
 20
-48.020794
 30
0.0
 10
41.619165
 20
-48.023890
 30
0.0
 10
40.823864
 20
-48.023890
 30
0.0
 10
40.698809
 20
-48.057492
 30
0.0
 10
40.607340
 20
-48.148958
 30
0.0
 10
40.573751
 20
-48.274027
 30
0.0
 10
40.607340
 20
-48.399069
 30
0.0
 10
40.698809
 20
-48.490535
 30
0.0
 10
40.823864
 20
-48.524137
 30
0.0
 10
41.406776
 20
-48.524137
 30
0.0
 10
41.406776
 20
-50.773096
 30
0.0
 10
41.440365
 20
-50.898138
 30
0.0
 10
41.531831
 20
-50.989604
 30
0.0
 10
41.656889
 20
-51.023206
 30
0.0
 10
41.781947
 20
-50.989604
 30
0.0
 10
41.873413
 20
-50.898138
 30
0.0
 10
41.907002
 20
-50.773096
 30
0.0
 10
41.907002
 20
-48.524137
 30
0.0
 10
42.489914
 20
-48.524137
 30
0.0
 10
42.515234
 20
-48.524137
 30
0.0
 10
42.563809
 20
-48.514824
 30
0.0
 10
42.587582
 20
-48.506569
 30
0.0
 10
42.632024
 20
-48.483312
 30
0.0
 10
42.651659
 20
-48.468840
 30
0.0
 10
42.687317
 20
-48.433174
 30
0.0
 10
42.714706
 20
-48.391846
 30
0.0
 10
42.725041
 20
-48.369092
 30
0.0
 10
42.742612
 20
-48.296225
 30
0.0
 10
42.743644
 20
-48.271434
 30
0.0
 10
42.737961
 20
-48.221825
 30
0.0
 10
42.731243
 20
-48.197536
 30
0.0
 10
42.711087
 20
-48.152054
 30
0.0
 10
42.580864
 20
-48.040955
 30
0.0
 10
42.532287
 20
-48.028044
 30
0.0
 10
42.507482
 20
-48.025451
 30
0.0
 10
42.489914
 20
-48.025451
 30
0.0
 10
41.695645
 20
-48.025451
 30
0.0
 10
41.653272
 20
-48.022355
 30
0.0
 10
41.653272
 20
-48.020794
 30
0.0
  0
LWPOLYLINE
  5
138
100
AcDbEntity
  8
Raster_fill
 62
7
100
AcDbPolyline
 90
31
 70
1
 10
45.818393
 20
-48.020794
 30
0.0
 10
45.648377
 20
-48.091067
 30
0.0
 10
45.640109
 20
-48.099349
 30
0.0
 10
45.580681
 20
-48.199097
 30
0.0
 10
45.572413
 20
-48.315355
 30
0.0
 10
45.572413
 20
-50.731239
 30
0.0
 10
45.581713
 20
-50.851121
 30
0.0
 10
45.645792
 20
-50.953436
 30
0.0
 10
45.648377
 20
-50.956029
 30
0.0
 10
45.748112
 20
-51.014925
 30
0.0
 10
45.863351
 20
-51.023206
 30
0.0
 10
47.035371
 20
-51.023206
 30
0.0
 10
47.145959
 20
-51.013390
 30
0.0
 10
47.157846
 20
-51.009236
 30
0.0
 10
47.173348
 20
-51.003045
 30
0.0
 10
47.274118
 20
-50.924490
 30
0.0
 10
47.639986
 20
-50.558625
 30
0.0
 10
47.719051
 20
-50.455807
 30
0.0
 10
47.721118
 20
-50.451654
 30
0.0
 10
47.722668
 20
-50.447526
 30
0.0
 10
47.738170
 20
-50.318859
 30
0.0
 10
47.738170
 20
-48.727734
 30
0.0
 10
47.723184
 20
-48.603195
 30
0.0
 10
47.640502
 20
-48.489504
 30
0.0
 10
47.274118
 20
-48.123109
 30
0.0
 10
47.189369
 20
-48.052835
 30
0.0
 10
47.171798
 20
-48.044580
 30
0.0
 10
47.162495
 20
-48.040426
 30
0.0
 10
47.036921
 20
-48.023890
 30
0.0
 10
45.861282
 20
-48.023890
 30
0.0
 10
45.818393
 20
-48.020794
 30
0.0
  0
LWPOLYLINE
  5
139
100
AcDbEntity
  8
Raster_fill
 62
7
100
AcDbPolyline
 90
51
 70
1
 10
-39.176420
 20
-48.021826
 30
0.0
 10
-39.288040
 20
-48.050269
 30
0.0
 10
-39.374858
 20
-48.125701
 30
0.0
 10
-40.154138
 20
-48.904979
 30
0.0
 10
-40.224935
 20
-48.989725
 30
0.0
 10
-40.231653
 20
-49.003695
 30
0.0
 10
-40.236820
 20
-49.015575
 30
0.0
 10
-40.237855
 20
-49.018167
 30
0.0
 10
-40.252840
 20
-49.141675
 30
0.0
 10
-40.252840
 20
-49.484787
 30
0.0
 10
-40.252840
 20
-49.563341
 30
0.0
 10
-40.252840
 20
-50.773096
 30
0.0
 10
-40.219252
 20
-50.898138
 30
0.0
 10
-40.127783
 20
-50.989604
 30
0.0
 10
-40.002727
 20
-51.023206
 30
0.0
 10
-39.877669
 20
-50.989604
 30
0.0
 10
-39.786203
 20
-50.898138
 30
0.0
 10
-39.752611
 20
-50.773096
 30
0.0
 10
-39.752611
 20
-49.773659
 30
0.0
 10
-38.586791
 20
-49.773659
 30
0.0
 10
-38.586791
 20
-50.773096
 30
0.0
 10
-38.585759
 20
-50.798416
 30
0.0
 10
-38.582142
 20
-50.823737
 30
0.0
 10
-38.557854
 20
-50.894010
 30
0.0
 10
-38.544934
 20
-50.915706
 30
0.0
 10
-38.513411
 20
-50.953436
 30
0.0
 10
-38.494809
 20
-50.970501
 30
0.0
 10
-38.474655
 20
-50.985477
 30
0.0
 10
-38.452949
 20
-50.998389
 30
0.0
 10
-38.406959
 20
-51.016989
 30
0.0
 10
-38.382670
 20
-51.023206
 30
0.0
 10
-38.357866
 20
-51.026302
 30
0.0
 10
-38.172864
 20
-50.966347
 30
0.0
 10
-38.154777
 20
-50.948779
 30
0.0
 10
-38.138240
 20
-50.929676
 30
0.0
 10
-38.102066
 20
-50.864562
 30
0.0
 10
-38.086564
 20
-50.773599
 30
0.0
 10
-38.086564
 20
-49.565934
 30
0.0
 10
-38.086564
 20
-49.483252
 30
0.0
 10
-38.086564
 20
-49.144241
 30
0.0
 10
-38.104651
 20
-49.010918
 30
0.0
 10
-38.105167
 20
-49.010918
 30
0.0
 10
-38.106718
 20
-49.007293
 30
0.0
 10
-38.107752
 20
-49.004727
 30
0.0
 10
-38.184749
 20
-48.906011
 30
0.0
 10
-38.964029
 20
-48.126733
 30
0.0
 10
-39.044645
 20
-48.054899
 30
0.0
 10
-39.147480
 20
-48.023387
 30
0.0
 10
-39.170218
 20
-48.023387
 30
0.0
 10
-39.176420
 20
-48.023387
 30
0.0
 10
-39.176420
 20
-48.021826
 30
0.0
  0
LWPOLYLINE
  5
13a
100
AcDbEntity
  8
Raster_fill
 62
7
100
AcDbPolyline
 90
50
 70
1
 10
17.608744
 20
-48.021826
 30
0.0
 10
17.516243
 20
-48.042516
 30
0.0
 10
17.507975
 20
-48.046115
 30
0.0
 10
17.411340
 20
-48.123109
 30
0.0
 10
17.045988
 20
-48.488472
 30
0.0
 10
16.965890
 20
-48.592347
 30
0.0
 10
16.963306
 20
-48.599067
 30
0.0
 10
16.962272
 20
-48.601634
 30
0.0
 10
16.947286
 20
-48.725141
 30
0.0
 10
16.947286
 20
-50.319891
 30
0.0
 10
16.965890
 20
-50.454246
 30
0.0
 10
16.970540
 20
-50.464062
 30
0.0
 10
17.047538
 20
-50.560186
 30
0.0
 10
17.409790
 20
-50.922956
 30
0.0
 10
17.514693
 20
-51.004077
 30
0.0
 10
17.521411
 20
-51.007173
 30
0.0
 10
17.525028
 20
-51.007173
 30
0.0
 10
17.650602
 20
-51.022175
 30
0.0
 10
18.410246
 20
-51.022175
 30
0.0
 10
18.520833
 20
-51.013390
 30
0.0
 10
18.536853
 20
-51.007702
 30
0.0
 10
18.548739
 20
-51.002542
 30
0.0
 10
18.648991
 20
-50.923988
 30
0.0
 10
19.040182
 20
-50.532801
 30
0.0
 10
19.108394
 20
-50.420644
 30
0.0
 10
19.110462
 20
-50.288882
 30
0.0
 10
19.044832
 20
-50.174661
 30
0.0
 10
18.930627
 20
-50.109574
 30
0.0
 10
18.799369
 20
-50.112140
 30
0.0
 10
18.686715
 20
-50.180350
 30
0.0
 10
18.343066
 20
-50.524017
 30
0.0
 10
17.717782
 20
-50.524017
 30
0.0
 10
17.447514
 20
-50.253745
 30
0.0
 10
17.447514
 20
-48.794409
 30
0.0
 10
17.717265
 20
-48.524640
 30
0.0
 10
18.343583
 20
-48.524640
 30
0.0
 10
18.686715
 20
-48.867778
 30
0.0
 10
18.799369
 20
-48.935988
 30
0.0
 10
18.930627
 20
-48.938581
 30
0.0
 10
19.044832
 20
-48.873467
 30
0.0
 10
19.110462
 20
-48.759246
 30
0.0
 10
19.108394
 20
-48.627484
 30
0.0
 10
19.040182
 20
-48.515353
 30
0.0
 10
18.648991
 20
-48.124140
 30
0.0
 10
18.545121
 20
-48.044580
 30
0.0
 10
18.537370
 20
-48.041485
 30
0.0
 10
18.412313
 20
-48.024922
 30
0.0
 10
17.646468
 20
-48.024922
 30
0.0
 10
17.608744
 20
-48.022355
 30
0.0
 10
17.608744
 20
-48.021826
 30
0.0
  0
LWPOLYLINE
  5
13b
100
AcDbEntity
  8
Raster_fill
 62
7
100
AcDbPolyline
 90
7
 70
1
 10
38.574906
 20
-48.523106
 30
0.0
 10
39.470976
 20
-48.523106
 30
0.0
 10
39.740726
 20
-48.792848
 30
0.0
 10
39.740726
 20
-49.002663
 30
0.0
 10
39.470460
 20
-49.272908
 30
0.0
 10
38.574906
 20
-49.272908
 30
0.0
 10
38.574906
 20
-48.523106
 30
0.0
  0
LWPOLYLINE
  5
13c
100
AcDbEntity
  8
Raster_fill
 62
7
100
AcDbPolyline
 90
7
 70
1
 10
-11.102165
 20
-48.523608
 30
0.0
 10
-10.206095
 20
-48.523608
 30
0.0
 10
-9.935828
 20
-48.793880
 30
0.0
 10
-9.935828
 20
-49.002663
 30
0.0
 10
-10.206612
 20
-49.273437
 30
0.0
 10
-11.102165
 20
-49.273437
 30
0.0
 10
-11.102165
 20
-48.523608
 30
0.0
  0
LWPOLYLINE
  5
13d
100
AcDbEntity
  8
Raster_fill
 62
7
100
AcDbPolyline
 90
7
 70
1
 10
9.949780
 20
-48.524137
 30
0.0
 10
10.845850
 20
-48.524137
 30
0.0
 10
11.115601
 20
-48.793880
 30
0.0
 10
11.115601
 20
-49.003695
 30
0.0
 10
10.845333
 20
-49.273967
 30
0.0
 10
9.949780
 20
-49.273967
 30
0.0
 10
9.949780
 20
-48.524137
 30
0.0
  0
LWPOLYLINE
  5
13e
100
AcDbEntity
  8
Raster_fill
 62
7
100
AcDbPolyline
 90
7
 70
1
 10
46.072123
 20
-48.524137
 30
0.0
 10
46.968709
 20
-48.524137
 30
0.0
 10
47.238460
 20
-48.793880
 30
0.0
 10
47.238460
 20
-50.253216
 30
0.0
 10
46.968193
 20
-50.523488
 30
0.0
 10
46.072123
 20
-50.523488
 30
0.0
 10
46.072123
 20
-48.524137
 30
0.0
  0
LWPOLYLINE
  5
13f
100
AcDbEntity
  8
Raster_fill
 62
7
100
AcDbPolyline
 90
7
 70
1
 10
-47.250345
 20
-48.525169
 30
0.0
 10
-46.354278
 20
-48.525169
 30
0.0
 10
-46.084008
 20
-48.795441
 30
0.0
 10
-46.084008
 20
-49.004197
 30
0.0
 10
-46.354794
 20
-49.274999
 30
0.0
 10
-47.250345
 20
-49.274999
 30
0.0
 10
-47.250345
 20
-48.525169
 30
0.0
  0
LWPOLYLINE
  5
140
100
AcDbEntity
  8
Raster_fill
 62
7
100
AcDbPolyline
 90
7
 70
1
 10
-18.599898
 20
-48.525169
 30
0.0
 10
-17.703829
 20
-48.525169
 30
0.0
 10
-17.433561
 20
-48.794912
 30
0.0
 10
-17.433561
 20
-49.004727
 30
0.0
 10
-17.704346
 20
-49.274999
 30
0.0
 10
-18.599898
 20
-49.274999
 30
0.0
 10
-18.599898
 20
-48.525169
 30
0.0
  0
LWPOLYLINE
  5
141
100
AcDbEntity
  8
Raster_fill
 62
7
100
AcDbPolyline
 90
6
 70
1
 10
-39.169702
 20
-48.626452
 30
0.0
 10
-38.586791
 20
-49.209355
 30
0.0
 10
-38.586791
 20
-49.272908
 30
0.0
 10
-39.752611
 20
-49.272908
 30
0.0
 10
-39.752611
 20
-49.209355
 30
0.0
 10
-39.169702
 20
-48.626452
 30
0.0
  0
LWPOLYLINE
  5
142
100
AcDbEntity
  8
Raster_fill
 62
7
100
AcDbPolyline
 90
15
 70
1
 10
-42.501799
 20
-49.273967
 30
0.0
 10
-42.630990
 20
-49.304447
 30
0.0
 10
-42.726076
 20
-49.395913
 30
0.0
 10
-42.761215
 20
-49.523548
 30
0.0
 10
-42.726076
 20
-49.651712
 30
0.0
 10
-42.630990
 20
-49.743179
 30
0.0
 10
-42.501799
 20
-49.773659
 30
0.0
 10
-40.835749
 20
-49.773659
 30
0.0
 10
-40.706559
 20
-49.743179
 30
0.0
 10
-40.611475
 20
-49.651712
 30
0.0
 10
-40.576336
 20
-49.523548
 30
0.0
 10
-40.611475
 20
-49.395913
 30
0.0
 10
-40.706559
 20
-49.304447
 30
0.0
 10
-40.835749
 20
-49.273967
 30
0.0
 10
-42.501799
 20
-49.273967
 30
0.0
  0
LWPOLYLINE
  5
143
100
AcDbEntity
  8
Raster_fill
 62
7
100
AcDbPolyline
 90
15
 70
1
 10
-13.851868
 20
-49.273967
 30
0.0
 10
-13.981059
 20
-49.304447
 30
0.0
 10
-14.076143
 20
-49.395913
 30
0.0
 10
-14.111283
 20
-49.523548
 30
0.0
 10
-14.076143
 20
-49.651712
 30
0.0
 10
-13.981059
 20
-49.743179
 30
0.0
 10
-13.851868
 20
-49.773659
 30
0.0
 10
-12.185820
 20
-49.773659
 30
0.0
 10
-12.056628
 20
-49.743179
 30
0.0
 10
-11.961544
 20
-49.651712
 30
0.0
 10
-11.926404
 20
-49.523548
 30
0.0
 10
-11.961544
 20
-49.395913
 30
0.0
 10
-12.056628
 20
-49.304447
 30
0.0
 10
-12.185820
 20
-49.273967
 30
0.0
 10
-13.851868
 20
-49.273967
 30
0.0
  0
LWPOLYLINE
  5
144
100
AcDbEntity
  8
Raster_fill
 62
7
100
AcDbPolyline
 90
15
 70
1
 10
14.698328
 20
-49.273967
 30
0.0
 10
14.569137
 20
-49.304447
 30
0.0
 10
14.474052
 20
-49.395913
 30
0.0
 10
14.438912
 20
-49.523548
 30
0.0
 10
14.474052
 20
-49.651712
 30
0.0
 10
14.569137
 20
-49.743179
 30
0.0
 10
14.698328
 20
-49.773659
 30
0.0
 10
16.364376
 20
-49.773659
 30
0.0
 10
16.493567
 20
-49.743179
 30
0.0
 10
16.588652
 20
-49.651712
 30
0.0
 10
16.623791
 20
-49.523548
 30
0.0
 10
16.588652
 20
-49.395913
 30
0.0
 10
16.493567
 20
-49.304447
 30
0.0
 10
16.364376
 20
-49.273967
 30
0.0
 10
14.698328
 20
-49.273967
 30
0.0
  0
LWPOLYLINE
  5
145
100
AcDbEntity
  8
Raster_fill
 62
7
100
AcDbPolyline
 90
15
 70
1
 10
43.322936
 20
-49.273967
 30
0.0
 10
43.193745
 20
-49.304447
 30
0.0
 10
43.098662
 20
-49.395913
 30
0.0
 10
43.063522
 20
-49.523548
 30
0.0
 10
43.098662
 20
-49.651712
 30
0.0
 10
43.193745
 20
-49.743179
 30
0.0
 10
43.322936
 20
-49.773659
 30
0.0
 10
44.988985
 20
-49.773659
 30
0.0
 10
45.118176
 20
-49.743179
 30
0.0
 10
45.213262
 20
-49.651712
 30
0.0
 10
45.248401
 20
-49.523548
 30
0.0
 10
45.213262
 20
-49.395913
 30
0.0
 10
45.118176
 20
-49.304447
 30
0.0
 10
44.988985
 20
-49.273967
 30
0.0
 10
43.322936
 20
-49.273967
 30
0.0
  0
LWPOLYLINE
  5
146
100
AcDbEntity
  8
Raster_fill
 62
7
100
AcDbPolyline
 90
7
 70
1
 10
38.574906
 20
-49.772627
 30
0.0
 10
39.470976
 20
-49.772627
 30
0.0
 10
39.740726
 20
-50.042370
 30
0.0
 10
39.740726
 20
-50.252184
 30
0.0
 10
39.470460
 20
-50.522456
 30
0.0
 10
38.574906
 20
-50.522456
 30
0.0
 10
38.574906
 20
-49.772627
 30
0.0
  0
LWPOLYLINE
  5
147
100
AcDbEntity
  8
Raster_fill
 62
7
100
AcDbPolyline
 90
7
 70
1
 10
-11.102165
 20
-49.773156
 30
0.0
 10
-10.206095
 20
-49.773156
 30
0.0
 10
-9.935828
 20
-50.043428
 30
0.0
 10
-9.935828
 20
-50.252184
 30
0.0
 10
-10.206612
 20
-50.522985
 30
0.0
 10
-11.102165
 20
-50.522985
 30
0.0
 10
-11.102165
 20
-49.773156
 30
0.0
  0
LWPOLYLINE
  5
148
100
AcDbEntity
  8
Raster_fill
 62
7
100
AcDbPolyline
 90
7
 70
1
 10
9.949780
 20
-49.773659
 30
0.0
 10
10.845850
 20
-49.773659
 30
0.0
 10
11.115601
 20
-50.043428
 30
0.0
 10
11.115601
 20
-50.253216
 30
0.0
 10
10.845333
 20
-50.523488
 30
0.0
 10
9.949780
 20
-50.523488
 30
0.0
 10
9.949780
 20
-49.773659
 30
0.0
  0
LWPOLYLINE
  5
149
100
AcDbEntity
  8
Raster_fill
 62
7
100
AcDbPolyline
 90
7
 70
1
 10
-47.250345
 20
-49.774691
 30
0.0
 10
-46.354278
 20
-49.774691
 30
0.0
 10
-46.084008
 20
-50.044962
 30
0.0
 10
-46.084008
 20
-50.253745
 30
0.0
 10
-46.354794
 20
-50.524520
 30
0.0
 10
-47.250345
 20
-50.524520
 30
0.0
 10
-47.250345
 20
-49.774691
 30
0.0
  0
LWPOLYLINE
  5
14a
100
AcDbEntity
  8
Raster_fill
 62
7
100
AcDbPolyline
 90
7
 70
1
 10
-18.599898
 20
-49.774691
 30
0.0
 10
-17.703312
 20
-49.774691
 30
0.0
 10
-17.433561
 20
-50.044460
 30
0.0
 10
-17.433561
 20
-50.254248
 30
0.0
 10
-17.704346
 20
-50.524520
 30
0.0
 10
-18.599898
 20
-50.524520
 30
0.0
 10
-18.599898
 20
-49.774691
 30
0.0
  0
LWPOLYLINE
  5
14b
100
AcDbEntity
  8
Raster_fill
 62
7
100
AcDbPolyline
 90
10
 70
1
 10
-67.064123
 20
-51.006670
 30
0.0
 10
-66.948886
 20
-52.835999
 30
0.0
 10
-66.942684
 20
-52.871162
 30
0.0
 10
-66.738045
 20
-57.336006
 30
0.0
 10
-45.305244
 20
-78.768288
 30
0.0
 10
-45.305244
 20
-82.912721
 30
0.0
 10
-69.010257
 20
-59.208224
 30
0.0
 10
-69.059867
 20
-59.174119
 30
0.0
 10
-69.304813
 20
-54.279857
 30
0.0
 10
-67.064123
 20
-51.006670
 30
0.0
  0
LWPOLYLINE
  5
14c
100
AcDbEntity
  8
Raster_fill
 62
7
100
AcDbPolyline
 90
10
 70
1
 10
67.063607
 20
-51.007702
 30
0.0
 10
69.303781
 20
-54.280360
 30
0.0
 10
69.058835
 20
-59.174119
 30
0.0
 10
69.009742
 20
-59.208224
 30
0.0
 10
45.304729
 20
-82.912721
 30
0.0
 10
45.304729
 20
-78.768791
 30
0.0
 10
66.737529
 20
-57.336006
 30
0.0
 10
66.942684
 20
-52.868040
 30
0.0
 10
66.948368
 20
-52.835999
 30
0.0
 10
67.063607
 20
-51.007702
 30
0.0
  0
LWPOLYLINE
  5
14d
100
AcDbEntity
  8
Raster_fill
 62
7
100
AcDbPolyline
 90
128
 70
1
 10
0.001550
 20
-53.331061
 30
0.0
 10
0.040824
 20
-53.333654
 30
0.0
 10
32.991269
 20
-53.333654
 30
0.0
 10
33.987073
 20
-54.329466
 30
0.0
 10
34.145201
 20
-54.449878
 30
0.0
 10
34.149337
 20
-54.452445
 30
0.0
 10
34.160190
 20
-54.456572
 30
0.0
 10
34.202563
 20
-54.461229
 30
0.0
 10
38.152194
 20
-66.148377
 30
0.0
 10
37.849887
 20
-66.148377
 30
0.0
 10
31.804777
 20
-66.148377
 30
0.0
 10
31.612541
 20
-66.172666
 30
0.0
 10
31.598587
 20
-66.177825
 30
0.0
 10
31.596005
 20
-66.180418
 30
0.0
 10
31.445626
 20
-66.298237
 30
0.0
 10
30.174385
 20
-67.569481
 30
0.0
 10
26.825236
 20
-67.569481
 30
0.0
 10
25.552446
 20
-66.296676
 30
0.0
 10
25.394316
 20
-66.176291
 30
0.0
 10
25.390182
 20
-66.173698
 30
0.0
 10
25.385530
 20
-66.170602
 30
0.0
 10
25.379329
 20
-66.168009
 30
0.0
 10
25.194844
 20
-66.146816
 30
0.0
 10
19.149735
 20
-66.146816
 30
0.0
 10
12.076265
 20
-66.146816
 30
0.0
 10
12.036475
 20
-66.149409
 30
0.0
 10
12.032340
 20
-66.149409
 30
0.0
 10
12.026656
 20
-66.149409
 30
0.0
 10
12.022005
 20
-66.149409
 30
0.0
 10
11.878345
 20
-66.196955
 30
0.0
 10
11.765173
 20
-66.296676
 30
0.0
 10
11.700578
 20
-66.433122
 30
0.0
 10
11.694893
 20
-66.583485
 30
0.0
 10
11.694893
 20
-72.011597
 30
0.0
 10
11.721248
 20
-72.210537
 30
0.0
 10
11.723315
 20
-72.215194
 30
0.0
 10
11.727450
 20
-72.225010
 30
0.0
 10
11.841654
 20
-72.369710
 30
0.0
 10
13.049850
 20
-73.577904
 30
0.0
 10
13.049850
 20
-76.516737
 30
0.0
 10
12.484509
 20
-77.082072
 30
0.0
 10
11.841138
 20
-77.725459
 30
0.0
 10
11.721765
 20
-77.883071
 30
0.0
 10
11.720215
 20
-77.886670
 30
0.0
 10
11.716081
 20
-77.897518
 30
0.0
 10
11.694893
 20
-78.082012
 30
0.0
 10
11.694893
 20
-81.140754
 30
0.0
 10
9.832475
 20
-79.835405
 30
0.0
 10
9.695532
 20
-79.715496
 30
0.0
 10
9.518282
 20
-79.674168
 30
0.0
 10
9.518282
 20
-79.673639
 30
0.0
 10
1.898592
 20
-79.698457
 30
0.0
 10
1.707389
 20
-79.746003
 30
0.0
 10
1.566313
 20
-79.884486
 30
0.0
 10
1.515153
 20
-80.074668
 30
0.0
 10
1.567863
 20
-80.264824
 30
0.0
 10
1.709456
 20
-80.401772
 30
0.0
 10
1.901176
 20
-80.448286
 30
0.0
 10
9.366353
 20
-80.423997
 30
0.0
 10
11.416358
 20
-81.860606
 30
0.0
 10
9.400977
 20
-83.273428
 30
0.0
 10
-0.000517
 20
-83.273428
 30
0.0
 10
-9.403560
 20
-83.273428
 30
0.0
 10
-11.416874
 20
-81.862140
 30
0.0
 10
-9.401493
 20
-80.449821
 30
0.0
 10
-1.900142
 20
-80.449821
 30
0.0
 10
-1.708423
 20
-80.402804
 30
0.0
 10
-1.567346
 20
-80.265353
 30
0.0
 10
-1.515670
 20
-80.075171
 30
0.0
 10
-1.567346
 20
-79.885015
 30
0.0
 10
-1.708423
 20
-79.747035
 30
0.0
 10
-1.900142
 20
-79.699992
 30
0.0
 10
-9.467122
 20
-79.699992
 30
0.0
 10
-9.499162
 20
-79.696896
 30
0.0
 10
-9.499162
 20
-79.695864
 30
0.0
 10
-9.626803
 20
-79.712930
 30
0.0
 10
-9.642822
 20
-79.718089
 30
0.0
 10
-9.647990
 20
-79.720682
 30
0.0
 10
-9.776664
 20
-79.796644
 30
0.0
 10
-11.695410
 20
-81.141256
 30
0.0
 10
-11.695410
 20
-78.083573
 30
0.0
 10
-11.722282
 20
-77.884103
 30
0.0
 10
-11.722799
 20
-77.880981
 30
0.0
 10
-11.725382
 20
-77.874790
 30
0.0
 10
-11.728483
 20
-77.868599
 30
0.0
 10
-11.842171
 20
-77.724930
 30
0.0
 10
-12.466939
 20
-77.100672
 30
0.0
 10
-12.485026
 20
-77.082601
 30
0.0
 10
-13.050366
 20
-76.517266
 30
0.0
 10
-13.050366
 20
-73.578406
 30
0.0
 10
-11.842688
 20
-72.370742
 30
0.0
 10
-11.726933
 20
-72.222417
 30
0.0
 10
-11.718665
 20
-72.203817
 30
0.0
 10
-11.695410
 20
-72.013131
 30
0.0
 10
-11.695410
 20
-66.584516
 30
0.0
 10
-11.702128
 20
-66.430529
 30
0.0
 10
-11.769824
 20
-66.292549
 30
0.0
 10
-11.887647
 20
-66.192827
 30
0.0
 10
-12.034924
 20
-66.149409
 30
0.0
 10
-12.038542
 20
-66.149409
 30
0.0
 10
-12.040092
 20
-66.149409
 30
0.0
 10
-12.057145
 20
-66.149409
 30
0.0
 10
-12.083500
 20
-66.149409
 30
0.0
 10
-19.150252
 20
-66.149409
 30
0.0
 10
-25.195361
 20
-66.149409
 30
0.0
 10
-25.387598
 20
-66.173698
 30
0.0
 10
-25.401033
 20
-66.178857
 30
0.0
 10
-25.405168
 20
-66.181450
 30
0.0
 10
-25.554512
 20
-66.298766
 30
0.0
 10
-26.825752
 20
-67.569984
 30
0.0
 10
-30.174904
 20
-67.569984
 30
0.0
 10
-31.449243
 20
-66.295142
 30
0.0
 10
-31.605823
 20
-66.176794
 30
0.0
 10
-31.609956
 20
-66.174227
 30
0.0
 10
-31.614607
 20
-66.171105
 30
0.0
 10
-31.620809
 20
-66.168539
 30
0.0
 10
-31.805293
 20
-66.147345
 30
0.0
 10
-37.850403
 20
-66.147345
 30
0.0
 10
-38.152710
 20
-66.147345
 30
0.0
 10
-34.202563
 20
-54.459694
 30
0.0
 10
-34.152954
 20
-54.453476
 30
0.0
 10
-34.139518
 20
-54.447788
 30
0.0
 10
-34.137968
 20
-54.447788
 30
0.0
 10
-34.135383
 20
-54.445221
 30
0.0
 10
-33.986039
 20
-54.327905
 30
0.0
 10
-32.991785
 20
-53.333654
 30
0.0
 10
-0.041341
 20
-53.333654
 30
0.0
 10
0.001550
 20
-53.331061
 30
0.0
  0
LWPOLYLINE
  5
14e
100
AcDbEntity
  8
Raster_fill
 62
7
100
AcDbPolyline
 90
46
 70
1
 10
-33.129244
 20
-62.870534
 30
0.0
 10
-33.287375
 20
-62.930488
 30
0.0
 10
-33.303911
 20
-62.945993
 30
0.0
 10
-33.305978
 20
-62.948559
 30
0.0
 10
-33.309078
 20
-62.952184
 30
0.0
 10
-33.367472
 20
-63.051403
 30
0.0
 10
-33.375224
 20
-63.165624
 30
0.0
 10
-33.375224
 20
-64.332462
 30
0.0
 10
-33.377807
 20
-64.353126
 30
0.0
 10
-33.375224
 20
-64.415145
 30
0.0
 10
-33.375224
 20
-65.623867
 30
0.0
 10
-33.344734
 20
-65.753063
 30
0.0
 10
-33.253267
 20
-65.848128
 30
0.0
 10
-33.125627
 20
-65.883265
 30
0.0
 10
-32.997987
 20
-65.848128
 30
0.0
 10
-32.906002
 20
-65.753063
 30
0.0
 10
-32.875514
 20
-65.623867
 30
0.0
 10
-32.875514
 20
-64.624430
 30
0.0
 10
-32.292086
 20
-64.624430
 30
0.0
 10
-32.194418
 20
-64.606359
 30
0.0
 10
-32.150492
 20
-64.583102
 30
0.0
 10
-32.111736
 20
-64.551564
 30
0.0
 10
-32.095199
 20
-64.532964
 30
0.0
 10
-32.067294
 20
-64.491107
 30
0.0
 10
-32.048691
 20
-64.445122
 30
0.0
 10
-32.038872
 20
-64.370695
 30
0.0
 10
-32.044555
 20
-64.321615
 30
0.0
 10
-32.050757
 20
-64.297326
 30
0.0
 10
-32.060060
 20
-64.274069
 30
0.0
 10
-32.084346
 20
-64.230148
 30
0.0
 10
-32.136022
 20
-64.176411
 30
0.0
 10
-32.156694
 20
-64.161939
 30
0.0
 10
-32.225425
 20
-64.132490
 30
0.0
 10
-32.292086
 20
-64.124738
 30
0.0
 10
-32.875514
 20
-64.124738
 30
0.0
 10
-32.875514
 20
-63.374909
 30
0.0
 10
-31.459062
 20
-63.374909
 30
0.0
 10
-31.330387
 20
-63.344402
 30
0.0
 10
-31.234785
 20
-63.252433
 30
0.0
 10
-31.200164
 20
-63.124798
 30
0.0
 10
-31.234785
 20
-62.997137
 30
0.0
 10
-31.330387
 20
-62.905168
 30
0.0
 10
-31.459062
 20
-62.875190
 30
0.0
 10
-33.083251
 20
-62.875190
 30
0.0
 10
-33.129244
 20
-62.871063
 30
0.0
 10
-33.129244
 20
-62.870534
 30
0.0
  0
LWPOLYLINE
  5
14f
100
AcDbEntity
  8
Raster_fill
 62
7
100
AcDbPolyline
 90
20
 70
1
 10
-25.631510
 20
-62.870534
 30
0.0
 10
-25.807210
 20
-62.946496
 30
0.0
 10
-25.877490
 20
-63.124269
 30
0.0
 10
-25.877490
 20
-65.580978
 30
0.0
 10
-25.869739
 20
-65.696734
 30
0.0
 10
-25.810828
 20
-65.796984
 30
0.0
 10
-25.802559
 20
-65.805239
 30
0.0
 10
-25.704374
 20
-65.864665
 30
0.0
 10
-25.589653
 20
-65.873449
 30
0.0
 10
-23.961845
 20
-65.873449
 30
0.0
 10
-23.836788
 20
-65.839873
 30
0.0
 10
-23.745321
 20
-65.748407
 30
0.0
 10
-23.711731
 20
-65.623338
 30
0.0
 10
-23.745321
 20
-65.498296
 30
0.0
 10
-23.836788
 20
-65.406830
 30
0.0
 10
-23.961845
 20
-65.373227
 30
0.0
 10
-25.377779
 20
-65.373227
 30
0.0
 10
-25.377779
 20
-63.124269
 30
0.0
 10
-25.451160
 20
-62.943929
 30
0.0
 10
-25.631510
 20
-62.870534
 30
0.0
  0
LWPOLYLINE
  5
150
100
AcDbEntity
  8
Raster_fill
 62
7
100
AcDbPolyline
 90
47
 70
1
 10
23.895699
 20
-62.870534
 30
0.0
 10
23.742220
 20
-62.927393
 30
0.0
 10
23.737569
 20
-62.930488
 30
0.0
 10
23.736019
 20
-62.933081
 30
0.0
 10
23.718966
 20
-62.949089
 30
0.0
 10
23.715865
 20
-62.953216
 30
0.0
 10
23.657471
 20
-63.051932
 30
0.0
 10
23.649719
 20
-63.166655
 30
0.0
 10
23.649719
 20
-64.333494
 30
0.0
 10
23.647135
 20
-64.354158
 30
0.0
 10
23.649719
 20
-64.416177
 30
0.0
 10
23.649719
 20
-65.624899
 30
0.0
 10
23.683309
 20
-65.749941
 30
0.0
 10
23.774776
 20
-65.841408
 30
0.0
 10
23.899833
 20
-65.875010
 30
0.0
 10
24.024890
 20
-65.841408
 30
0.0
 10
24.116358
 20
-65.749941
 30
0.0
 10
24.149947
 20
-65.624899
 30
0.0
 10
24.149947
 20
-64.625462
 30
0.0
 10
24.732857
 20
-64.625462
 30
0.0
 10
24.830526
 20
-64.606862
 30
0.0
 10
24.874451
 20
-64.583605
 30
0.0
 10
24.913208
 20
-64.552093
 30
0.0
 10
24.929744
 20
-64.533493
 30
0.0
 10
24.957650
 20
-64.491636
 30
0.0
 10
24.976253
 20
-64.445651
 30
0.0
 10
24.986072
 20
-64.371224
 30
0.0
 10
24.980387
 20
-64.322144
 30
0.0
 10
24.974186
 20
-64.297855
 30
0.0
 10
24.964885
 20
-64.274598
 30
0.0
 10
24.940597
 20
-64.231180
 30
0.0
 10
24.888920
 20
-64.176914
 30
0.0
 10
24.868249
 20
-64.162970
 30
0.0
 10
24.799520
 20
-64.133522
 30
0.0
 10
24.732857
 20
-64.125241
 30
0.0
 10
24.149947
 20
-64.125241
 30
0.0
 10
24.149947
 20
-63.375412
 30
0.0
 10
25.565881
 20
-63.375412
 30
0.0
 10
25.694556
 20
-63.344932
 30
0.0
 10
25.790157
 20
-63.252936
 30
0.0
 10
25.824780
 20
-63.125301
 30
0.0
 10
25.790157
 20
-62.997666
 30
0.0
 10
25.694556
 20
-62.905670
 30
0.0
 10
25.565881
 20
-62.875720
 30
0.0
 10
23.941691
 20
-62.875720
 30
0.0
 10
23.895699
 20
-62.872095
 30
0.0
 10
23.895699
 20
-62.870534
 30
0.0
  0
LWPOLYLINE
  5
151
100
AcDbEntity
  8
Raster_fill
 62
7
100
AcDbPolyline
 90
46
 70
1
 10
31.393432
 20
-62.870534
 30
0.0
 10
31.235303
 20
-62.930488
 30
0.0
 10
31.220317
 20
-62.944432
 30
0.0
 10
31.216182
 20
-62.948057
 30
0.0
 10
31.212565
 20
-62.953216
 30
0.0
 10
31.155203
 20
-63.051403
 30
0.0
 10
31.147454
 20
-63.165094
 30
0.0
 10
31.147454
 20
-64.748970
 30
0.0
 10
31.147454
 20
-64.831652
 30
0.0
 10
31.147454
 20
-65.623338
 30
0.0
 10
31.177942
 20
-65.752534
 30
0.0
 10
31.269408
 20
-65.847625
 30
0.0
 10
31.397567
 20
-65.882762
 30
0.0
 10
31.525207
 20
-65.847625
 30
0.0
 10
31.616674
 20
-65.752534
 30
0.0
 10
31.647164
 20
-65.623338
 30
0.0
 10
31.647164
 20
-65.040435
 30
0.0
 10
32.126722
 20
-65.040435
 30
0.0
 10
32.886883
 20
-65.800582
 30
0.0
 10
32.999537
 20
-65.868819
 30
0.0
 10
33.130794
 20
-65.871385
 30
0.0
 10
33.244999
 20
-65.806271
 30
0.0
 10
33.310629
 20
-65.691548
 30
0.0
 10
33.308560
 20
-65.560288
 30
0.0
 10
33.240348
 20
-65.447655
 30
0.0
 10
32.790762
 20
-64.998048
 30
0.0
 10
32.848640
 20
-64.943280
 30
0.0
 10
33.215027
 20
-64.576885
 30
0.0
 10
33.294608
 20
-64.473036
 30
0.0
 10
33.296159
 20
-64.469411
 30
0.0
 10
33.297709
 20
-64.465283
 30
0.0
 10
33.313211
 20
-64.336590
 30
0.0
 10
33.313211
 20
-63.578506
 30
0.0
 10
33.303393
 20
-63.467407
 30
0.0
 10
33.298225
 20
-63.453464
 30
0.0
 10
33.293058
 20
-63.440023
 30
0.0
 10
33.213477
 20
-63.338211
 30
0.0
 10
32.849674
 20
-62.974409
 30
0.0
 10
32.745804
 20
-62.894320
 30
0.0
 10
32.738571
 20
-62.890695
 30
0.0
 10
32.737536
 20
-62.890695
 30
0.0
 10
32.735986
 20
-62.890695
 30
0.0
 10
32.609896
 20
-62.875720
 30
0.0
 10
31.438908
 20
-62.875720
 30
0.0
 10
31.393432
 20
-62.872095
 30
0.0
 10
31.393432
 20
-62.870534
 30
0.0
  0
LWPOLYLINE
  5
152
100
AcDbEntity
  8
Raster_fill
 62
7
100
AcDbPolyline
 90
33
 70
1
 10
-30.628622
 20
-62.871063
 30
0.0
 10
-30.757812
 20
-62.907231
 30
0.0
 10
-30.849798
 20
-63.004889
 30
0.0
 10
-30.877700
 20
-63.136149
 30
0.0
 10
-30.834293
 20
-63.262752
 30
0.0
 10
-30.093253
 20
-64.373817
 30
0.0
 10
-30.834293
 20
-65.484855
 30
0.0
 10
-30.879770
 20
-65.608865
 30
0.0
 10
-30.855997
 20
-65.738591
 30
0.0
 10
-30.769698
 20
-65.838312
 30
0.0
 10
-30.644124
 20
-65.880169
 30
0.0
 10
-30.514933
 20
-65.851753
 30
0.0
 10
-30.418299
 20
-65.761847
 30
0.0
 10
-29.793015
 20
-64.824429
 30
0.0
 10
-29.167728
 20
-65.761847
 30
0.0
 10
-29.071094
 20
-65.851753
 30
0.0
 10
-28.941903
 20
-65.880169
 30
0.0
 10
-28.816329
 20
-65.838312
 30
0.0
 10
-28.730030
 20
-65.738591
 30
0.0
 10
-28.706257
 20
-65.608865
 30
0.0
 10
-28.751734
 20
-65.484855
 30
0.0
 10
-29.492773
 20
-64.373817
 30
0.0
 10
-28.751734
 20
-63.262752
 30
0.0
 10
-28.710393
 20
-63.140303
 30
0.0
 10
-28.735713
 20
-63.013171
 30
0.0
 10
-28.820980
 20
-62.916016
 30
0.0
 10
-28.943453
 20
-62.874661
 30
0.0
 10
-29.070578
 20
-62.900008
 30
0.0
 10
-29.167728
 20
-62.985257
 30
0.0
 10
-29.793015
 20
-63.923179
 30
0.0
 10
-30.418299
 20
-62.985257
 30
0.0
 10
-30.508731
 20
-62.901543
 30
0.0
 10
-30.628622
 20
-62.871063
 30
0.0
  0
LWPOLYLINE
  5
153
100
AcDbEntity
  8
Raster_fill
 62
7
100
AcDbPolyline
 90
33
 70
1
 10
26.396322
 20
-62.871063
 30
0.0
 10
26.267131
 20
-62.907231
 30
0.0
 10
26.175147
 20
-63.004889
 30
0.0
 10
26.147241
 20
-63.136149
 30
0.0
 10
26.190649
 20
-63.262752
 30
0.0
 10
26.931689
 20
-64.373817
 30
0.0
 10
26.190649
 20
-65.484855
 30
0.0
 10
26.149308
 20
-65.607331
 30
0.0
 10
26.174630
 20
-65.734437
 30
0.0
 10
26.260413
 20
-65.831592
 30
0.0
 10
26.382886
 20
-65.872946
 30
0.0
 10
26.510009
 20
-65.847625
 30
0.0
 10
26.607161
 20
-65.761847
 30
0.0
 10
27.231930
 20
-64.824429
 30
0.0
 10
27.857215
 20
-65.761847
 30
0.0
 10
27.953848
 20
-65.851753
 30
0.0
 10
28.083039
 20
-65.880169
 30
0.0
 10
28.208613
 20
-65.838312
 30
0.0
 10
28.294915
 20
-65.738591
 30
0.0
 10
28.318685
 20
-65.608865
 30
0.0
 10
28.273211
 20
-65.484855
 30
0.0
 10
27.532687
 20
-64.373817
 30
0.0
 10
28.273211
 20
-63.262752
 30
0.0
 10
28.314549
 20
-63.140303
 30
0.0
 10
28.289229
 20
-63.013171
 30
0.0
 10
28.203964
 20
-62.916016
 30
0.0
 10
28.081491
 20
-62.874661
 30
0.0
 10
27.954367
 20
-62.900008
 30
0.0
 10
27.857215
 20
-62.985257
 30
0.0
 10
27.231930
 20
-63.922676
 30
0.0
 10
26.607161
 20
-62.985257
 30
0.0
 10
26.516211
 20
-62.901543
 30
0.0
 10
26.396322
 20
-62.871063
 30
0.0
  0
LWPOLYLINE
  5
154
100
AcDbEntity
  8
Raster_fill
 62
7
100
AcDbPolyline
 90
9
 70
1
 10
31.647164
 20
-63.375412
 30
0.0
 10
32.542715
 20
-63.375412
 30
0.0
 10
32.813501
 20
-63.645684
 30
0.0
 10
32.813501
 20
-64.272005
 30
0.0
 10
32.543234
 20
-64.541748
 30
0.0
 10
32.260045
 20
-64.541748
 30
0.0
 10
32.195450
 20
-64.541748
 30
0.0
 10
31.647164
 20
-64.541748
 30
0.0
 10
31.647164
 20
-63.375412
 30
0.0
  0
LWPOLYLINE
  5
155
100
AcDbEntity
  8
Raster_fill
 62
7
100
AcDbPolyline
 90
15
 70
1
 10
-28.126965
 20
-64.123706
 30
0.0
 10
-28.252023
 20
-64.157282
 30
0.0
 10
-28.343490
 20
-64.248748
 30
0.0
 10
-28.377078
 20
-64.373817
 30
0.0
 10
-28.343490
 20
-64.498859
 30
0.0
 10
-28.252023
 20
-64.590325
 30
0.0
 10
-28.126965
 20
-64.623927
 30
0.0
 10
-26.460918
 20
-64.623927
 30
0.0
 10
-26.335860
 20
-64.590325
 30
0.0
 10
-26.244393
 20
-64.498859
 30
0.0
 10
-26.210803
 20
-64.373817
 30
0.0
 10
-26.244393
 20
-64.248748
 30
0.0
 10
-26.335860
 20
-64.157282
 30
0.0
 10
-26.460918
 20
-64.123706
 30
0.0
 10
-28.126965
 20
-64.123706
 30
0.0
  0
LWPOLYLINE
  5
156
100
AcDbEntity
  8
Raster_fill
 62
7
100
AcDbPolyline
 90
15
 70
1
 10
28.897977
 20
-64.123706
 30
0.0
 10
28.772922
 20
-64.157282
 30
0.0
 10
28.681452
 20
-64.248748
 30
0.0
 10
28.647864
 20
-64.373817
 30
0.0
 10
28.681452
 20
-64.498859
 30
0.0
 10
28.772922
 20
-64.590325
 30
0.0
 10
28.897977
 20
-64.623927
 30
0.0
 10
30.564026
 20
-64.623927
 30
0.0
 10
30.689082
 20
-64.590325
 30
0.0
 10
30.780551
 20
-64.498859
 30
0.0
 10
30.814140
 20
-64.373817
 30
0.0
 10
30.780551
 20
-64.248748
 30
0.0
 10
30.689082
 20
-64.157282
 30
0.0
 10
30.564026
 20
-64.123706
 30
0.0
 10
28.897977
 20
-64.123706
 30
0.0
  0
LWPOLYLINE
  5
157
100
AcDbEntity
  8
Raster_fill
 62
7
100
AcDbPolyline
 90
50
 70
1
 10
-44.555421
 20
-66.897677
 30
0.0
 10
-37.850403
 20
-66.897677
 30
0.0
 10
-31.906062
 20
-66.897677
 30
0.0
 10
-30.634305
 20
-68.168921
 30
0.0
 10
-30.476177
 20
-68.290365
 30
0.0
 10
-30.470491
 20
-68.292957
 30
0.0
 10
-30.461707
 20
-68.296556
 30
0.0
 10
-30.275670
 20
-68.318278
 30
0.0
 10
-26.724983
 20
-68.318278
 30
0.0
 10
-26.535848
 20
-68.295021
 30
0.0
 10
-26.517761
 20
-68.287772
 30
0.0
 10
-26.367383
 20
-68.170482
 30
0.0
 10
-25.094592
 20
-66.898206
 30
0.0
 10
-19.150252
 20
-66.898206
 30
0.0
 10
-12.445235
 20
-66.898206
 30
0.0
 10
-12.445235
 20
-71.912881
 30
0.0
 10
-13.650846
 20
-73.119010
 30
0.0
 10
-13.773320
 20
-73.278686
 30
0.0
 10
-13.774870
 20
-73.282814
 30
0.0
 10
-13.779004
 20
-73.293688
 30
0.0
 10
-13.800191
 20
-73.478156
 30
0.0
 10
-13.800191
 20
-76.618548
 30
0.0
 10
-13.785205
 20
-76.784416
 30
0.0
 10
-13.777970
 20
-76.805080
 30
0.0
 10
-13.769702
 20
-76.825770
 30
0.0
 10
-13.653947
 20
-76.975101
 30
0.0
 10
-13.015226
 20
-77.613302
 30
0.0
 10
-12.445235
 20
-78.183294
 30
0.0
 10
-12.445235
 20
-81.809964
 30
0.0
 10
-12.448336
 20
-81.837851
 30
0.0
 10
-12.449369
 20
-81.866268
 30
0.0
 10
-12.447819
 20
-81.896774
 30
0.0
 10
-12.447819
 20
-81.899341
 30
0.0
 10
-12.445235
 20
-81.906590
 30
0.0
 10
-12.445235
 20
-83.443449
 30
0.0
 10
-44.555421
 20
-83.443449
 30
0.0
 10
-44.555421
 20
-78.183823
 30
0.0
 10
-43.984913
 20
-77.613302
 30
0.0
 10
-43.347741
 20
-76.976133
 30
0.0
 10
-43.230953
 20
-76.825770
 30
0.0
 10
-43.223717
 20
-76.809234
 30
0.0
 10
-43.200463
 20
-76.618548
 30
0.0
 10
-43.200463
 20
-73.478156
 30
0.0
 10
-43.225786
 20
-73.281782
 30
0.0
 10
-43.227853
 20
-73.277152
 30
0.0
 10
-43.230435
 20
-73.270934
 30
0.0
 10
-43.231985
 20
-73.268368
 30
0.0
 10
-43.349291
 20
-73.119010
 30
0.0
 10
-44.555421
 20
-71.912881
 30
0.0
 10
-44.555421
 20
-66.897677
 30
0.0
  0
LWPOLYLINE
  5
158
100
AcDbEntity
  8
Raster_fill
 62
7
100
AcDbPolyline
 90
50
 70
1
 10
12.444718
 20
-66.898206
 30
0.0
 10
19.149735
 20
-66.898206
 30
0.0
 10
25.094076
 20
-66.898206
 30
0.0
 10
26.365833
 20
-68.169450
 30
0.0
 10
26.523963
 20
-68.290894
 30
0.0
 10
26.529646
 20
-68.293460
 30
0.0
 10
26.538431
 20
-68.297588
 30
0.0
 10
26.724467
 20
-68.318781
 30
0.0
 10
30.274638
 20
-68.318781
 30
0.0
 10
30.441035
 20
-68.303805
 30
0.0
 10
30.461707
 20
-68.296556
 30
0.0
 10
30.482376
 20
-68.288804
 30
0.0
 10
30.632755
 20
-68.171514
 30
0.0
 10
31.905546
 20
-66.899238
 30
0.0
 10
37.849887
 20
-66.899238
 30
0.0
 10
44.554902
 20
-66.899238
 30
0.0
 10
44.554902
 20
-71.913913
 30
0.0
 10
43.346190
 20
-73.122635
 30
0.0
 10
43.226818
 20
-73.280247
 30
0.0
 10
43.225268
 20
-73.283846
 30
0.0
 10
43.221135
 20
-73.294720
 30
0.0
 10
43.199947
 20
-73.479188
 30
0.0
 10
43.199947
 20
-76.619580
 30
0.0
 10
43.225268
 20
-76.815954
 30
0.0
 10
43.229403
 20
-76.825241
 30
0.0
 10
43.231469
 20
-76.829368
 30
0.0
 10
43.346709
 20
-76.976662
 30
0.0
 10
43.966310
 20
-77.595734
 30
0.0
 10
43.984394
 20
-77.614334
 30
0.0
 10
44.554902
 20
-78.184855
 30
0.0
 10
44.554902
 20
-83.444481
 30
0.0
 10
12.444718
 20
-83.444481
 30
0.0
 10
12.444718
 20
-81.894710
 30
0.0
 10
12.447819
 20
-81.885397
 30
0.0
 10
12.448336
 20
-81.857484
 30
0.0
 10
12.444718
 20
-81.845101
 30
0.0
 10
12.444718
 20
-78.184326
 30
0.0
 10
12.996106
 20
-77.632432
 30
0.0
 10
13.014709
 20
-77.614334
 30
0.0
 10
13.652913
 20
-76.976133
 30
0.0
 10
13.772803
 20
-76.818520
 30
0.0
 10
13.773836
 20
-76.815954
 30
0.0
 10
13.776420
 20
-76.809736
 30
0.0
 10
13.778487
 20
-76.803545
 30
0.0
 10
13.799674
 20
-76.619051
 30
0.0
 10
13.799674
 20
-73.478685
 30
0.0
 10
13.777454
 20
-73.291598
 30
0.0
 10
13.650846
 20
-73.119540
 30
0.0
 10
12.444718
 20
-71.913913
 30
0.0
 10
12.444718
 20
-66.898206
 30
0.0
  0
LWPOLYLINE
  5
159
100
AcDbEntity
  8
Raster_fill
 62
7
100
AcDbPolyline
 90
42
 70
1
 10
-3.527433
 20
-70.693840
 30
0.0
 10
-3.527433
 20
-70.695903
 30
0.0
 10
-3.539319
 20
-70.695903
 30
0.0
 10
-3.581693
 20
-70.708312
 30
0.0
 10
-3.587378
 20
-70.710879
 30
0.0
 10
-3.587895
 20
-70.710879
 30
0.0
 10
-3.598230
 20
-70.717096
 30
0.0
 10
-3.598747
 20
-70.717096
 30
0.0
 10
-3.617867
 20
-70.733633
 30
0.0
 10
-3.652490
 20
-70.838011
 30
0.0
 10
-3.652490
 20
-72.346454
 30
0.0
 10
-3.588928
 20
-72.456520
 30
0.0
 10
-3.461804
 20
-72.456520
 30
0.0
 10
-3.398242
 20
-72.346454
 30
0.0
 10
-3.398242
 20
-71.129476
 30
0.0
 10
-3.120740
 20
-71.406971
 30
0.0
 10
-3.016353
 20
-71.458644
 30
0.0
 10
-3.014803
 20
-71.458644
 30
0.0
 10
-3.013253
 20
-71.458644
 30
0.0
 10
-2.989998
 20
-71.455549
 30
0.0
 10
-2.914034
 20
-71.406971
 30
0.0
 10
-2.636532
 20
-71.128947
 30
0.0
 10
-2.636532
 20
-72.346454
 30
0.0
 10
-2.575037
 20
-72.461177
 30
0.0
 10
-2.444295
 20
-72.461177
 30
0.0
 10
-2.382800
 20
-72.346454
 30
0.0
 10
-2.382800
 20
-70.840075
 30
0.0
 10
-2.411222
 20
-70.740353
 30
0.0
 10
-2.420007
 20
-70.731569
 30
0.0
 10
-2.446879
 20
-70.711408
 30
0.0
 10
-2.450496
 20
-70.708815
 30
0.0
 10
-2.451013
 20
-70.708815
 30
0.0
 10
-2.461865
 20
-70.703126
 30
0.0
 10
-2.462382
 20
-70.703126
 30
0.0
 10
-2.473751
 20
-70.698999
 30
0.0
 10
-2.474268
 20
-70.698999
 30
0.0
 10
-2.549198
 20
-70.698999
 30
0.0
 10
-2.610177
 20
-70.742417
 30
0.0
 10
-2.611210
 20
-70.744984
 30
0.0
 10
-3.017387
 20
-71.150643
 30
0.0
 10
-3.424080
 20
-70.744481
 30
0.0
 10
-3.527433
 20
-70.693840
 30
0.0
  0
LWPOLYLINE
  5
15a
100
AcDbEntity
  8
Raster_fill
 62
7
100
AcDbPolyline
 90
49
 70
1
 10
1.043347
 20
-70.695374
 30
0.0
 10
1.043347
 20
-70.695903
 30
0.0
 10
0.953430
 20
-70.735167
 30
0.0
 10
0.951880
 20
-70.737760
 30
0.0
 10
0.945162
 20
-70.745513
 30
0.0
 10
0.944645
 20
-70.745513
 30
0.0
 10
0.918290
 20
-70.845763
 30
0.0
 10
0.918290
 20
-71.820382
 30
0.0
 10
0.918290
 20
-71.861208
 30
0.0
 10
0.918290
 20
-72.348517
 30
0.0
 10
0.979785
 20
-72.463743
 30
0.0
 10
1.110527
 20
-72.463743
 30
0.0
 10
1.172021
 20
-72.348517
 30
0.0
 10
1.172021
 20
-71.967650
 30
0.0
 10
1.500684
 20
-71.967650
 30
0.0
 10
1.970939
 20
-72.437920
 30
0.0
 10
2.094446
 20
-72.473057
 30
0.0
 10
2.185396
 20
-72.382093
 30
0.0
 10
2.150773
 20
-72.258585
 30
0.0
 10
1.852083
 20
-71.959897
 30
0.0
 10
1.856734
 20
-71.957331
 30
0.0
 10
1.858801
 20
-71.957331
 30
0.0
 10
1.908927
 20
-71.918569
 30
0.0
 10
2.136820
 20
-71.690155
 30
0.0
 10
2.177645
 20
-71.638481
 30
0.0
 10
2.179195
 20
-71.634857
 30
0.0
 10
2.179712
 20
-71.632290
 30
0.0
 10
2.183329
 20
-71.622474
 30
0.0
 10
2.183846
 20
-71.619352
 30
0.0
 10
2.187980
 20
-71.568711
 30
0.0
 10
2.187980
 20
-71.096906
 30
0.0
 10
2.182812
 20
-71.041105
 30
0.0
 10
2.182296
 20
-71.038512
 30
0.0
 10
2.178678
 20
-71.028696
 30
0.0
 10
2.177645
 20
-71.026103
 30
0.0
 10
2.172994
 20
-71.016816
 30
0.0
 10
2.171960
 20
-71.014224
 30
0.0
 10
2.171444
 20
-71.014224
 30
0.0
 10
2.137337
 20
-70.974959
 30
0.0
 10
1.909444
 20
-70.747074
 30
0.0
 10
1.867586
 20
-70.712440
 30
0.0
 10
1.865519
 20
-70.709847
 30
0.0
 10
1.864486
 20
-70.709847
 30
0.0
 10
1.855184
 20
-70.705217
 30
0.0
 10
1.853117
 20
-70.705217
 30
0.0
 10
1.851050
 20
-70.705217
 30
0.0
 10
1.786971
 20
-70.698496
 30
0.0
 10
1.068669
 20
-70.698496
 30
0.0
 10
1.043347
 20
-70.695374
 30
0.0
  0
LWPOLYLINE
  5
15b
100
AcDbEntity
  8
Raster_fill
 62
7
100
AcDbPolyline
 90
49
 70
1
 10
-1.497583
 20
-70.696432
 30
0.0
 10
-1.598352
 20
-70.749640
 30
0.0
 10
-2.075326
 20
-71.227134
 30
0.0
 10
-2.077909
 20
-71.229727
 30
0.0
 10
-2.114600
 20
-71.273647
 30
0.0
 10
-2.117183
 20
-71.279336
 30
0.0
 10
-2.120801
 20
-71.287088
 30
0.0
 10
-2.128552
 20
-71.353234
 30
0.0
 10
-2.128552
 20
-71.563551
 30
0.0
 10
-2.128552
 20
-71.608001
 30
0.0
 10
-2.128552
 20
-72.349020
 30
0.0
 10
-2.067057
 20
-72.464272
 30
0.0
 10
-1.936316
 20
-72.464272
 30
0.0
 10
-1.874821
 20
-72.349020
 30
0.0
 10
-1.874821
 20
-71.713941
 30
0.0
 10
-1.113110
 20
-71.713941
 30
0.0
 10
-1.113110
 20
-72.349020
 30
0.0
 10
-1.112594
 20
-72.361429
 30
0.0
 10
-1.111043
 20
-72.373838
 30
0.0
 10
-1.098641
 20
-72.410006
 30
0.0
 10
-1.091923
 20
-72.420854
 30
0.0
 10
-1.075903
 20
-72.440486
 30
0.0
 10
-1.066602
 20
-72.448768
 30
0.0
 10
-1.056266
 20
-72.456520
 30
0.0
 10
-1.045414
 20
-72.462711
 30
0.0
 10
-1.021643
 20
-72.472527
 30
0.0
 10
-1.009241
 20
-72.475650
 30
0.0
 10
-0.996838
 20
-72.478216
 30
0.0
 10
-0.902787
 20
-72.447736
 30
0.0
 10
-0.893486
 20
-72.439455
 30
0.0
 10
-0.885217
 20
-72.429639
 30
0.0
 10
-0.867131
 20
-72.396566
 30
0.0
 10
-0.858862
 20
-72.350581
 30
0.0
 10
-0.858862
 20
-71.608001
 30
0.0
 10
-0.858862
 20
-71.570775
 30
0.0
 10
-0.858862
 20
-71.349080
 30
0.0
 10
-0.864030
 20
-71.296904
 30
0.0
 10
-0.864547
 20
-71.294311
 30
0.0
 10
-0.868681
 20
-71.284495
 30
0.0
 10
-0.871781
 20
-71.277775
 30
0.0
 10
-0.875399
 20
-71.271055
 30
0.0
 10
-0.907438
 20
-71.232822
 30
0.0
 10
-1.390096
 20
-70.750672
 30
0.0
 10
-1.470194
 20
-70.700560
 30
0.0
 10
-1.479496
 20
-70.697967
 30
0.0
 10
-1.482597
 20
-70.697967
 30
0.0
 10
-1.483630
 20
-70.697967
 30
0.0
 10
-1.497583
 20
-70.697967
 30
0.0
 10
-1.497583
 20
-70.696432
 30
0.0
  0
LWPOLYLINE
  5
15c
100
AcDbEntity
  8
Raster_fill
 62
7
100
AcDbPolyline
 90
55
 70
1
 10
-0.226860
 20
-70.696432
 30
0.0
 10
-0.273885
 20
-70.707280
 30
0.0
 10
-0.280603
 20
-70.710376
 30
0.0
 10
-0.287321
 20
-70.714001
 30
0.0
 10
-0.327629
 20
-70.748608
 30
0.0
 10
-0.555522
 20
-70.976494
 30
0.0
 10
-0.590145
 20
-71.016816
 30
0.0
 10
-0.591695
 20
-71.019912
 30
0.0
 10
-0.592212
 20
-71.019912
 30
0.0
 10
-0.596346
 20
-71.029728
 30
0.0
 10
-0.598413
 20
-71.034887
 30
0.0
 10
-0.605131
 20
-71.098467
 30
0.0
 10
-0.605131
 20
-72.075150
 30
0.0
 10
-0.596346
 20
-72.141798
 30
0.0
 10
-0.595829
 20
-72.144391
 30
0.0
 10
-0.594796
 20
-72.146984
 30
0.0
 10
-0.589111
 20
-72.158335
 30
0.0
 10
-0.582393
 20
-72.169209
 30
0.0
 10
-0.554488
 20
-72.198657
 30
0.0
 10
-0.326595
 20
-72.426543
 30
0.0
 10
-0.283704
 20
-72.462209
 30
0.0
 10
-0.282153
 20
-72.462209
 30
0.0
 10
-0.272335
 20
-72.466336
 30
0.0
 10
-0.267684
 20
-72.468929
 30
0.0
 10
-0.204122
 20
-72.475650
 30
0.0
 10
0.264583
 20
-72.475650
 30
0.0
 10
0.330729
 20
-72.467368
 30
0.0
 10
0.333313
 20
-72.467368
 30
0.0
 10
0.334863
 20
-72.467368
 30
0.0
 10
0.386540
 20
-72.427072
 30
0.0
 10
0.627352
 20
-72.186777
 30
0.0
 10
0.660425
 20
-72.063773
 30
0.0
 10
0.570508
 20
-71.973867
 30
0.0
 10
0.447518
 20
-72.006940
 30
0.0
 10
0.230994
 20
-72.223978
 30
0.0
 10
-0.171566
 20
-72.223978
 30
0.0
 10
-0.351400
 20
-72.044141
 30
0.0
 10
-0.351400
 20
-71.134106
 30
0.0
 10
-0.171566
 20
-70.954295
 30
0.0
 10
0.230994
 20
-70.954295
 30
0.0
 10
0.447518
 20
-71.171333
 30
0.0
 10
0.570508
 20
-71.204406
 30
0.0
 10
0.660425
 20
-71.114474
 30
0.0
 10
0.627352
 20
-70.991496
 30
0.0
 10
0.387573
 20
-70.752233
 30
0.0
 10
0.344165
 20
-70.715535
 30
0.0
 10
0.342098
 20
-70.712942
 30
0.0
 10
0.341064
 20
-70.712942
 30
0.0
 10
0.331763
 20
-70.708815
 30
0.0
 10
0.329696
 20
-70.708815
 30
0.0
 10
0.327629
 20
-70.708815
 30
0.0
 10
0.263033
 20
-70.701592
 30
0.0
 10
-0.205672
 20
-70.701592
 30
0.0
 10
-0.226860
 20
-70.698999
 30
0.0
 10
-0.226860
 20
-70.696432
 30
0.0
  0
LWPOLYLINE
  5
15d
100
AcDbEntity
  8
Raster_fill
 62
7
100
AcDbPolyline
 90
55
 70
1
 10
2.819983
 20
-70.696432
 30
0.0
 10
2.772957
 20
-70.707280
 30
0.0
 10
2.766239
 20
-70.710376
 30
0.0
 10
2.759522
 20
-70.714001
 30
0.0
 10
2.719731
 20
-70.748106
 30
0.0
 10
2.490804
 20
-70.977526
 30
0.0
 10
2.456181
 20
-71.018880
 30
0.0
 10
2.450496
 20
-71.030760
 30
0.0
 10
2.447396
 20
-71.040073
 30
0.0
 10
2.446362
 20
-71.042640
 30
0.0
 10
2.445846
 20
-71.045233
 30
0.0
 10
2.441711
 20
-71.097435
 30
0.0
 10
2.441711
 20
-72.076182
 30
0.0
 10
2.446879
 20
-72.132511
 30
0.0
 10
2.449463
 20
-72.139232
 30
0.0
 10
2.451013
 20
-72.144391
 30
0.0
 10
2.452047
 20
-72.147487
 30
0.0
 10
2.457731
 20
-72.158864
 30
0.0
 10
2.492354
 20
-72.199160
 30
0.0
 10
2.720247
 20
-72.427072
 30
0.0
 10
2.762105
 20
-72.461680
 30
0.0
 10
2.764172
 20
-72.464272
 30
0.0
 10
2.765206
 20
-72.464272
 30
0.0
 10
2.774508
 20
-72.468400
 30
0.0
 10
2.778642
 20
-72.470993
 30
0.0
 10
2.843237
 20
-72.478216
 30
0.0
 10
3.311943
 20
-72.478216
 30
0.0
 10
3.378605
 20
-72.469432
 30
0.0
 10
3.380156
 20
-72.469432
 30
0.0
 10
3.382222
 20
-72.469432
 30
0.0
 10
3.394108
 20
-72.463743
 30
0.0
 10
3.433899
 20
-72.429639
 30
0.0
 10
3.663342
 20
-72.200721
 30
0.0
 10
3.697449
 20
-72.158864
 30
0.0
 10
3.703133
 20
-72.146984
 30
0.0
 10
3.704167
 20
-72.144391
 30
0.0
 10
3.705200
 20
-72.141798
 30
0.0
 10
3.711918
 20
-72.080309
 30
0.0
 10
3.711918
 20
-71.101562
 30
0.0
 10
3.706751
 20
-71.045233
 30
0.0
 10
3.706234
 20
-71.042640
 30
0.0
 10
3.702616
 20
-71.032824
 30
0.0
 10
3.701583
 20
-71.030257
 30
0.0
 10
3.695898
 20
-71.018880
 30
0.0
 10
3.661275
 20
-70.978584
 30
0.0
 10
3.433382
 20
-70.750672
 30
0.0
 10
3.390491
 20
-70.715033
 30
0.0
 10
3.388424
 20
-70.715033
 30
0.0
 10
3.378605
 20
-70.710879
 30
0.0
 10
3.376538
 20
-70.710879
 30
0.0
 10
3.373954
 20
-70.710879
 30
0.0
 10
3.310392
 20
-70.704158
 30
0.0
 10
2.841170
 20
-70.704158
 30
0.0
 10
2.819983
 20
-70.701592
 30
0.0
 10
2.819983
 20
-70.696432
 30
0.0
  0
LWPOLYLINE
  5
15e
100
AcDbEntity
  8
Raster_fill
 62
7
100
AcDbPolyline
 90
9
 70
1
 10
1.172021
 20
-70.951702
 30
0.0
 10
1.754415
 20
-70.951702
 30
0.0
 10
1.933732
 20
-71.131540
 30
0.0
 10
1.933732
 20
-71.534103
 30
0.0
 10
1.754415
 20
-71.713411
 30
0.0
 10
1.568380
 20
-71.713411
 30
0.0
 10
1.535824
 20
-71.713411
 30
0.0
 10
1.172021
 20
-71.713411
 30
0.0
 10
1.172021
 20
-70.951702
 30
0.0
  0
LWPOLYLINE
  5
15f
100
AcDbEntity
  8
Raster_fill
 62
7
100
AcDbPolyline
 90
9
 70
1
 10
2.875277
 20
-70.951702
 30
0.0
 10
3.277836
 20
-70.951702
 30
0.0
 10
3.457153
 20
-71.131540
 30
0.0
 10
3.457153
 20
-72.041548
 30
0.0
 10
3.277836
 20
-72.221385
 30
0.0
 10
2.875277
 20
-72.221385
 30
0.0
 10
2.695959
 20
-72.041548
 30
0.0
 10
2.695959
 20
-71.131540
 30
0.0
 10
2.875277
 20
-70.951702
 30
0.0
  0
LWPOLYLINE
  5
160
100
AcDbEntity
  8
Raster_fill
 62
7
100
AcDbPolyline
 90
6
 70
1
 10
-1.493966
 20
-71.003376
 30
0.0
 10
-1.113110
 20
-71.384243
 30
0.0
 10
-1.113110
 20
-71.458644
 30
0.0
 10
-1.874821
 20
-71.458644
 30
0.0
 10
-1.874821
 20
-71.384243
 30
0.0
 10
-1.493966
 20
-71.003376
 30
0.0
  0
LWPOLYLINE
  5
161
100
AcDbEntity
  8
Raster_fill
 62
7
100
AcDbPolyline
 90
4
 70
1
 10
-0.000517
 20
-78.493359
 30
0.0
 10
-1.270207
 20
-80.398148
 30
0.0
 10
1.269690
 20
-80.398148
 30
0.0
 10
-0.000517
 20
-78.493359
 30
0.0
  0
LWPOLYLINE
  5
162
100
AcDbEntity
  8
Raster_fill
 62
7
100
AcDbPolyline
 90
52
 70
1
 10
2.689241
 20
-81.016717
 30
0.0
 10
2.689241
 20
-81.021374
 30
0.0
 10
2.643766
 20
-81.031692
 30
0.0
 10
2.642216
 20
-81.031692
 30
0.0
 10
2.640149
 20
-81.031692
 30
0.0
 10
2.617928
 20
-81.044101
 30
0.0
 10
2.588472
 20
-81.072015
 30
0.0
 10
2.360579
 20
-81.299901
 30
0.0
 10
2.324923
 20
-81.342790
 30
0.0
 10
2.322339
 20
-81.348478
 30
0.0
 10
2.318722
 20
-81.356230
 30
0.0
 10
2.310970
 20
-81.422376
 30
0.0
 10
2.310970
 20
-82.399059
 30
0.0
 10
2.320272
 20
-82.467269
 30
0.0
 10
2.322856
 20
-82.472957
 30
0.0
 10
2.333708
 20
-82.491557
 30
0.0
 10
2.361613
 20
-82.521032
 30
0.0
 10
2.589506
 20
-82.748918
 30
0.0
 10
2.621029
 20
-82.777863
 30
0.0
 10
2.628780
 20
-82.782493
 30
0.0
 10
2.633431
 20
-82.785615
 30
0.0
 10
2.634981
 20
-82.785615
 30
0.0
 10
2.645833
 20
-82.790246
 30
0.0
 10
2.711979
 20
-82.797998
 30
0.0
 10
3.180684
 20
-82.797998
 30
0.0
 10
3.248897
 20
-82.788711
 30
0.0
 10
3.254582
 20
-82.786118
 30
0.0
 10
3.302641
 20
-82.747357
 30
0.0
 10
3.531567
 20
-82.518942
 30
0.0
 10
3.566191
 20
-82.477085
 30
0.0
 10
3.570325
 20
-82.468301
 30
0.0
 10
3.571875
 20
-82.465205
 30
0.0
 10
3.572392
 20
-82.462109
 30
0.0
 10
3.576009
 20
-82.452293
 30
0.0
 10
3.576526
 20
-82.449700
 30
0.0
 10
3.580660
 20
-82.398556
 30
0.0
 10
3.580660
 20
-81.414624
 30
0.0
 10
3.575492
 20
-81.362422
 30
0.0
 10
3.574976
 20
-81.359855
 30
0.0
 10
3.571358
 20
-81.350039
 30
0.0
 10
3.570325
 20
-81.347446
 30
0.0
 10
3.531051
 20
-81.296805
 30
0.0
 10
3.303674
 20
-81.069951
 30
0.0
 10
3.260266
 20
-81.033254
 30
0.0
 10
3.258199
 20
-81.030661
 30
0.0
 10
3.257166
 20
-81.030661
 30
0.0
 10
3.247864
 20
-81.026533
 30
0.0
 10
3.245797
 20
-81.026533
 30
0.0
 10
3.243730
 20
-81.026533
 30
0.0
 10
3.179134
 20
-81.019310
 30
0.0
 10
2.710429
 20
-81.019310
 30
0.0
 10
2.689241
 20
-81.016717
 30
0.0
  0
LWPOLYLINE
  5
163
100
AcDbEntity
  8
Raster_fill
 62
7
100
AcDbPolyline
 90
52
 70
1
 10
-6.451803
 20
-81.018781
 30
0.0
 10
-6.451803
 20
-81.021374
 30
0.0
 10
-6.497278
 20
-81.031692
 30
0.0
 10
-6.498828
 20
-81.031692
 30
0.0
 10
-6.500895
 20
-81.031692
 30
0.0
 10
-6.523116
 20
-81.044101
 30
0.0
 10
-6.552572
 20
-81.072015
 30
0.0
 10
-6.780465
 20
-81.299901
 30
0.0
 10
-6.816121
 20
-81.342790
 30
0.0
 10
-6.818705
 20
-81.348478
 30
0.0
 10
-6.822323
 20
-81.356230
 30
0.0
 10
-6.830074
 20
-81.422376
 30
0.0
 10
-6.830074
 20
-82.399059
 30
0.0
 10
-6.820772
 20
-82.467269
 30
0.0
 10
-6.818188
 20
-82.472957
 30
0.0
 10
-6.807337
 20
-82.491557
 30
0.0
 10
-6.779431
 20
-82.521032
 30
0.0
 10
-6.551538
 20
-82.748918
 30
0.0
 10
-6.520015
 20
-82.777863
 30
0.0
 10
-6.512264
 20
-82.782493
 30
0.0
 10
-6.507613
 20
-82.785615
 30
0.0
 10
-6.506063
 20
-82.785615
 30
0.0
 10
-6.495211
 20
-82.790246
 30
0.0
 10
-6.429065
 20
-82.797998
 30
0.0
 10
-5.960360
 20
-82.797998
 30
0.0
 10
-5.892147
 20
-82.788711
 30
0.0
 10
-5.886462
 20
-82.786118
 30
0.0
 10
-5.838403
 20
-82.747357
 30
0.0
 10
-5.597591
 20
-82.507062
 30
0.0
 10
-5.564518
 20
-82.384084
 30
0.0
 10
-5.654435
 20
-82.294152
 30
0.0
 10
-5.777425
 20
-82.327225
 30
0.0
 10
-5.993949
 20
-82.544262
 30
0.0
 10
-6.396509
 20
-82.544262
 30
0.0
 10
-6.576343
 20
-82.364452
 30
0.0
 10
-6.576343
 20
-81.454417
 30
0.0
 10
-6.396509
 20
-81.274580
 30
0.0
 10
-5.993949
 20
-81.274580
 30
0.0
 10
-5.777425
 20
-81.491618
 30
0.0
 10
-5.654435
 20
-81.524188
 30
0.0
 10
-5.564518
 20
-81.434256
 30
0.0
 10
-5.597591
 20
-81.311780
 30
0.0
 10
-5.837370
 20
-81.072518
 30
0.0
 10
-5.880778
 20
-81.035846
 30
0.0
 10
-5.882845
 20
-81.032751
 30
0.0
 10
-5.883879
 20
-81.032751
 30
0.0
 10
-5.893180
 20
-81.028597
 30
0.0
 10
-5.895247
 20
-81.028597
 30
0.0
 10
-5.897314
 20
-81.028597
 30
0.0
 10
-5.961910
 20
-81.021374
 30
0.0
 10
-6.430615
 20
-81.021374
 30
0.0
 10
-6.451803
 20
-81.018781
 30
0.0
  0
LWPOLYLINE
  5
164
100
AcDbEntity
  8
Raster_fill
 62
7
100
AcDbPolyline
 90
38
 70
1
 10
-3.658175
 20
-81.019310
 30
0.0
 10
-3.658175
 20
-81.020845
 30
0.0
 10
-3.738273
 20
-81.051351
 30
0.0
 10
-3.747575
 20
-81.059606
 30
0.0
 10
-3.748092
 20
-81.059606
 30
0.0
 10
-3.749642
 20
-81.062199
 30
0.0
 10
-3.756360
 20
-81.069951
 30
0.0
 10
-3.756877
 20
-81.069951
 30
0.0
 10
-3.783232
 20
-81.170202
 30
0.0
 10
-3.783232
 20
-81.890556
 30
0.0
 10
-3.783232
 20
-81.931911
 30
0.0
 10
-3.783232
 20
-82.652265
 30
0.0
 10
-3.756360
 20
-82.753045
 30
0.0
 10
-3.754810
 20
-82.755638
 30
0.0
 10
-3.753776
 20
-82.755638
 30
0.0
 10
-3.745508
 20
-82.764422
 30
0.0
 10
-3.742924
 20
-82.766989
 30
0.0
 10
-3.736723
 20
-82.772677
 30
0.0
 10
-3.735689
 20
-82.772677
 30
0.0
 10
-3.635437
 20
-82.799030
 30
0.0
 10
-2.640666
 20
-82.799030
 30
0.0
 10
-2.525427
 20
-82.737541
 30
0.0
 10
-2.525427
 20
-82.607313
 30
0.0
 10
-2.640666
 20
-82.545824
 30
0.0
 10
-3.529500
 20
-82.545824
 30
0.0
 10
-3.529500
 20
-82.037321
 30
0.0
 10
-3.148645
 20
-82.037321
 30
0.0
 10
-3.033407
 20
-81.975832
 30
0.0
 10
-3.033407
 20
-81.845604
 30
0.0
 10
-3.148645
 20
-81.784115
 30
0.0
 10
-3.529500
 20
-81.784115
 30
0.0
 10
-3.529500
 20
-81.275612
 30
0.0
 10
-2.640666
 20
-81.275612
 30
0.0
 10
-2.525427
 20
-81.214123
 30
0.0
 10
-2.525427
 20
-81.083895
 30
0.0
 10
-2.640666
 20
-81.021876
 30
0.0
 10
-3.632853
 20
-81.021876
 30
0.0
 10
-3.658175
 20
-81.019310
 30
0.0
  0
LWPOLYLINE
  5
165
100
AcDbEntity
  8
Raster_fill
 62
7
100
AcDbPolyline
 90
20
 70
1
 10
3.959448
 20
-81.019310
 30
0.0
 10
3.959448
 20
-81.020845
 30
0.0
 10
3.870565
 20
-81.059103
 30
0.0
 10
3.834391
 20
-81.149538
 30
0.0
 10
3.834391
 20
-82.649699
 30
0.0
 10
3.862813
 20
-82.755638
 30
0.0
 10
3.863330
 20
-82.755638
 30
0.0
 10
3.871598
 20
-82.763893
 30
0.0
 10
3.877799
 20
-82.769582
 30
0.0
 10
3.880900
 20
-82.772175
 30
0.0
 10
3.881934
 20
-82.772175
 30
0.0
 10
3.982186
 20
-82.798527
 30
0.0
 10
4.976957
 20
-82.798527
 30
0.0
 10
5.092196
 20
-82.737038
 30
0.0
 10
5.092196
 20
-82.606281
 30
0.0
 10
4.976957
 20
-82.544792
 30
0.0
 10
4.088123
 20
-82.544792
 30
0.0
 10
4.088123
 20
-81.147977
 30
0.0
 10
4.050916
 20
-81.056510
 30
0.0
 10
3.959448
 20
-81.019310
 30
0.0
  0
LWPOLYLINE
  5
166
100
AcDbEntity
  8
Raster_fill
 62
7
100
AcDbPolyline
 90
53
 70
1
 10
-7.975224
 20
-81.019813
 30
0.0
 10
-7.975224
 20
-81.021374
 30
0.0
 10
-8.021216
 20
-81.031692
 30
0.0
 10
-8.022249
 20
-81.031692
 30
0.0
 10
-8.024316
 20
-81.031692
 30
0.0
 10
-8.075993
 20
-81.072015
 30
0.0
 10
-8.304919
 20
-81.300430
 30
0.0
 10
-8.343677
 20
-81.351574
 30
0.0
 10
-8.345227
 20
-81.354167
 30
0.0
 10
-8.345744
 20
-81.356760
 30
0.0
 10
-8.349361
 20
-81.366576
 30
0.0
 10
-8.349878
 20
-81.369142
 30
0.0
 10
-8.354012
 20
-81.420312
 30
0.0
 10
-8.354012
 20
-82.404748
 30
0.0
 10
-8.348845
 20
-82.456421
 30
0.0
 10
-8.346261
 20
-82.463141
 30
0.0
 10
-8.344710
 20
-82.468301
 30
0.0
 10
-8.343677
 20
-82.470894
 30
0.0
 10
-8.304403
 20
-82.521535
 30
0.0
 10
-8.076510
 20
-82.748918
 30
0.0
 10
-8.033618
 20
-82.785086
 30
0.0
 10
-8.032585
 20
-82.785086
 30
0.0
 10
-8.030517
 20
-82.785086
 30
0.0
 10
-8.019149
 20
-82.790246
 30
0.0
 10
-7.952486
 20
-82.797998
 30
0.0
 10
-7.483781
 20
-82.797998
 30
0.0
 10
-7.415568
 20
-82.788711
 30
0.0
 10
-7.409884
 20
-82.786118
 30
0.0
 10
-7.391280
 20
-82.775270
 30
0.0
 10
-7.361825
 20
-82.747357
 30
0.0
 10
-7.133932
 20
-82.519471
 30
0.0
 10
-7.099308
 20
-82.479175
 30
0.0
 10
-7.098275
 20
-82.476582
 30
0.0
 10
-7.097241
 20
-82.473989
 30
0.0
 10
-7.096725
 20
-82.473989
 30
0.0
 10
-7.092074
 20
-82.463141
 30
0.0
 10
-7.084322
 20
-82.396995
 30
0.0
 10
-7.084322
 20
-81.420312
 30
0.0
 10
-7.093624
 20
-81.352103
 30
0.0
 10
-7.096725
 20
-81.345382
 30
0.0
 10
-7.100342
 20
-81.338662
 30
0.0
 10
-7.134965
 20
-81.298366
 30
0.0
 10
-7.362858
 20
-81.070454
 30
0.0
 10
-7.394381
 20
-81.041535
 30
0.0
 10
-7.396448
 20
-81.038942
 30
0.0
 10
-7.406266
 20
-81.033254
 30
0.0
 10
-7.407300
 20
-81.033254
 30
0.0
 10
-7.417118
 20
-81.029126
 30
0.0
 10
-7.419185
 20
-81.029126
 30
0.0
 10
-7.421769
 20
-81.029126
 30
0.0
 10
-7.485331
 20
-81.022406
 30
0.0
 10
-7.954036
 20
-81.022406
 30
0.0
 10
-7.975224
 20
-81.019813
 30
0.0
  0
LWPOLYLINE
  5
167
100
AcDbEntity
  8
Raster_fill
 62
7
100
AcDbPolyline
 90
34
 70
1
 10
-1.626774
 20
-81.019813
 30
0.0
 10
-1.626774
 20
-81.020845
 30
0.0
 10
-1.645894
 20
-81.023437
 30
0.0
 10
-2.132686
 20
-81.023437
 30
0.0
 10
-2.247925
 20
-81.084927
 30
0.0
 10
-2.247925
 20
-81.215684
 30
0.0
 10
-2.132686
 20
-81.277173
 30
0.0
 10
-1.751831
 20
-81.277173
 30
0.0
 10
-1.751831
 20
-82.673988
 30
0.0
 10
-1.690336
 20
-82.789214
 30
0.0
 10
-1.559595
 20
-82.789214
 30
0.0
 10
-1.498100
 20
-82.673988
 30
0.0
 10
-1.498100
 20
-81.277173
 30
0.0
 10
-1.117244
 20
-81.277173
 30
0.0
 10
-1.104325
 20
-81.277173
 30
0.0
 10
-1.079521
 20
-81.272516
 30
0.0
 10
-1.067635
 20
-81.268389
 30
0.0
 10
-1.044897
 20
-81.256509
 30
0.0
 10
-1.035079
 20
-81.249259
 30
0.0
 10
-1.016992
 20
-81.231188
 30
0.0
 10
-1.003040
 20
-81.209995
 30
0.0
 10
-0.997355
 20
-81.198618
 30
0.0
 10
-0.988570
 20
-81.161418
 30
0.0
 10
-0.988053
 20
-81.149009
 30
0.0
 10
-0.991154
 20
-81.123688
 30
0.0
 10
-0.994771
 20
-81.111279
 30
0.0
 10
-1.011308
 20
-81.077704
 30
0.0
 10
-1.048515
 20
-81.043070
 30
0.0
 10
-1.083138
 20
-81.028094
 30
0.0
 10
-1.095540
 20
-81.024999
 30
0.0
 10
-1.108459
 20
-81.022406
 30
0.0
 10
-1.117244
 20
-81.022406
 30
0.0
 10
-1.601453
 20
-81.022406
 30
0.0
 10
-1.626774
 20
-81.019813
 30
0.0
  0
LWPOLYLINE
  5
168
100
AcDbEntity
  8
Raster_fill
 62
7
100
AcDbPolyline
 90
34
 70
1
 10
5.990849
 20
-81.019813
 30
0.0
 10
5.990849
 20
-81.020845
 30
0.0
 10
5.971728
 20
-81.023437
 30
0.0
 10
5.484937
 20
-81.023437
 30
0.0
 10
5.369698
 20
-81.084927
 30
0.0
 10
5.369698
 20
-81.215684
 30
0.0
 10
5.484937
 20
-81.277173
 30
0.0
 10
5.865792
 20
-81.277173
 30
0.0
 10
5.865792
 20
-82.673988
 30
0.0
 10
5.927287
 20
-82.789214
 30
0.0
 10
6.058028
 20
-82.789214
 30
0.0
 10
6.119523
 20
-82.673988
 30
0.0
 10
6.119523
 20
-81.277173
 30
0.0
 10
6.500378
 20
-81.277173
 30
0.0
 10
6.513298
 20
-81.277173
 30
0.0
 10
6.538102
 20
-81.272516
 30
0.0
 10
6.549988
 20
-81.268389
 30
0.0
 10
6.572725
 20
-81.256509
 30
0.0
 10
6.582544
 20
-81.249259
 30
0.0
 10
6.600631
 20
-81.231188
 30
0.0
 10
6.614583
 20
-81.209995
 30
0.0
 10
6.619751
 20
-81.198618
 30
0.0
 10
6.629053
 20
-81.161418
 30
0.0
 10
6.629053
 20
-81.149009
 30
0.0
 10
6.626469
 20
-81.123688
 30
0.0
 10
6.622852
 20
-81.111279
 30
0.0
 10
6.605798
 20
-81.077704
 30
0.0
 10
6.569108
 20
-81.043070
 30
0.0
 10
6.534485
 20
-81.028094
 30
0.0
 10
6.522083
 20
-81.024999
 30
0.0
 10
6.509163
 20
-81.022406
 30
0.0
 10
6.500378
 20
-81.022406
 30
0.0
 10
6.016170
 20
-81.022406
 30
0.0
 10
5.990849
 20
-81.019813
 30
0.0
  0
LWPOLYLINE
  5
169
100
AcDbEntity
  8
Raster_fill
 62
7
100
AcDbPolyline
 90
37
 70
1
 10
7.006291
 20
-81.019813
 30
0.0
 10
7.006291
 20
-81.020845
 30
0.0
 10
6.926192
 20
-81.051351
 30
0.0
 10
6.925159
 20
-81.051351
 30
0.0
 10
6.916890
 20
-81.059606
 30
0.0
 10
6.911206
 20
-81.065295
 30
0.0
 10
6.908105
 20
-81.068919
 30
0.0
 10
6.907589
 20
-81.068919
 30
0.0
 10
6.881234
 20
-81.169170
 30
0.0
 10
6.881234
 20
-81.889525
 30
0.0
 10
6.881234
 20
-81.930879
 30
0.0
 10
6.881234
 20
-82.651234
 30
0.0
 10
6.902421
 20
-82.743758
 30
0.0
 10
6.902938
 20
-82.743758
 30
0.0
 10
6.910173
 20
-82.753045
 30
0.0
 10
6.917407
 20
-82.761327
 30
0.0
 10
6.918958
 20
-82.763893
 30
0.0
 10
6.920508
 20
-82.766486
 30
0.0
 10
7.029028
 20
-82.799559
 30
0.0
 10
8.023800
 20
-82.799559
 30
0.0
 10
8.139038
 20
-82.738070
 30
0.0
 10
8.139038
 20
-82.607313
 30
0.0
 10
8.023800
 20
-82.545824
 30
0.0
 10
7.135482
 20
-82.545824
 30
0.0
 10
7.135482
 20
-82.037850
 30
0.0
 10
7.516337
 20
-82.037850
 30
0.0
 10
7.631576
 20
-81.976361
 30
0.0
 10
7.631576
 20
-81.845604
 30
0.0
 10
7.516337
 20
-81.784115
 30
0.0
 10
7.135482
 20
-81.784115
 30
0.0
 10
7.135482
 20
-81.276141
 30
0.0
 10
8.023800
 20
-81.276141
 30
0.0
 10
8.139038
 20
-81.214652
 30
0.0
 10
8.139038
 20
-81.084424
 30
0.0
 10
8.023800
 20
-81.022406
 30
0.0
 10
7.031612
 20
-81.022406
 30
0.0
 10
7.006291
 20
-81.019813
 30
0.0
  0
LWPOLYLINE
  5
16a
100
AcDbEntity
  8
Raster_fill
 62
7
100
AcDbPolyline
 90
51
 70
1
 10
-9.752376
 20
-81.020845
 30
0.0
 10
-9.832475
 20
-81.051351
 30
0.0
 10
-9.833508
 20
-81.051351
 30
0.0
 10
-9.841777
 20
-81.059606
 30
0.0
 10
-9.847461
 20
-81.065295
 30
0.0
 10
-9.850562
 20
-81.068919
 30
0.0
 10
-9.851078
 20
-81.068919
 30
0.0
 10
-9.857796
 20
-81.078206
 30
0.0
 10
-9.858313
 20
-81.078206
 30
0.0
 10
-9.877433
 20
-81.168138
 30
0.0
 10
-9.877433
 20
-82.143789
 30
0.0
 10
-9.877433
 20
-82.183582
 30
0.0
 10
-9.877433
 20
-82.670892
 30
0.0
 10
-9.813871
 20
-82.780959
 30
0.0
 10
-9.686747
 20
-82.780959
 30
0.0
 10
-9.623185
 20
-82.670892
 30
0.0
 10
-9.623185
 20
-82.290024
 30
0.0
 10
-9.007202
 20
-82.290024
 30
0.0
 10
-8.950875
 20
-82.284865
 30
0.0
 10
-8.948808
 20
-82.284865
 30
0.0
 10
-8.938989
 20
-82.281240
 30
0.0
 10
-8.936922
 20
-82.281240
 30
0.0
 10
-8.927621
 20
-82.276584
 30
0.0
 10
-8.925553
 20
-82.276584
 30
0.0
 10
-8.924520
 20
-82.276584
 30
0.0
 10
-8.886279
 20
-82.244040
 30
0.0
 10
-8.659420
 20
-82.016657
 30
0.0
 10
-8.622730
 20
-81.973239
 30
0.0
 10
-8.621696
 20
-81.973239
 30
0.0
 10
-8.620662
 20
-81.970143
 30
0.0
 10
-8.616528
 20
-81.961359
 30
0.0
 10
-8.615495
 20
-81.958263
 30
0.0
 10
-8.614978
 20
-81.955670
 30
0.0
 10
-8.607743
 20
-81.893149
 30
0.0
 10
-8.607743
 20
-81.422376
 30
0.0
 10
-8.612911
 20
-81.366046
 30
0.0
 10
-8.613428
 20
-81.363480
 30
0.0
 10
-8.617045
 20
-81.353637
 30
0.0
 10
-8.618079
 20
-81.351071
 30
0.0
 10
-8.623763
 20
-81.339694
 30
0.0
 10
-8.658386
 20
-81.299398
 30
0.0
 10
-8.886279
 20
-81.071486
 30
0.0
 10
-8.929171
 20
-81.035846
 30
0.0
 10
-8.930721
 20
-81.035846
 30
0.0
 10
-8.940540
 20
-81.031692
 30
0.0
 10
-8.942607
 20
-81.031692
 30
0.0
 10
-8.945190
 20
-81.031692
 30
0.0
 10
-9.008752
 20
-81.024999
 30
0.0
 10
-9.727055
 20
-81.024999
 30
0.0
 10
-9.752376
 20
-81.022406
 30
0.0
 10
-9.752376
 20
-81.020845
 30
0.0
  0
LWPOLYLINE
  5
16b
100
AcDbEntity
  8
Raster_fill
 62
7
100
AcDbPolyline
 90
55
 70
1
 10
-5.181596
 20
-81.020845
 30
0.0
 10
-5.270479
 20
-81.059103
 30
0.0
 10
-5.306653
 20
-81.149538
 30
0.0
 10
-5.306653
 20
-82.149980
 30
0.0
 10
-5.306653
 20
-82.183582
 30
0.0
 10
-5.306653
 20
-82.673459
 30
0.0
 10
-5.304586
 20
-82.698779
 30
0.0
 10
-5.301485
 20
-82.710685
 30
0.0
 10
-5.285465
 20
-82.745293
 30
0.0
 10
-5.269446
 20
-82.764925
 30
0.0
 10
-5.260144
 20
-82.773206
 30
0.0
 10
-5.249809
 20
-82.780959
 30
0.0
 10
-5.238957
 20
-82.787679
 30
0.0
 10
-5.227588
 20
-82.792839
 30
0.0
 10
-5.215702
 20
-82.796966
 30
0.0
 10
-5.177978
 20
-82.802152
 30
0.0
 10
-5.128369
 20
-82.791277
 30
0.0
 10
-5.087545
 20
-82.762359
 30
0.0
 10
-5.065841
 20
-82.730820
 30
0.0
 10
-5.060673
 20
-82.719470
 30
0.0
 10
-5.057056
 20
-82.707061
 30
0.0
 10
-5.052921
 20
-82.682243
 30
0.0
 10
-5.052921
 20
-82.673459
 30
0.0
 10
-5.052921
 20
-82.218190
 30
0.0
 10
-4.925798
 20
-82.091084
 30
0.0
 10
-4.254004
 20
-82.762861
 30
0.0
 10
-4.129980
 20
-82.798527
 30
0.0
 10
-4.039030
 20
-82.707563
 30
0.0
 10
-4.074170
 20
-82.583553
 30
0.0
 10
-4.745964
 20
-81.911247
 30
0.0
 10
-4.074170
 20
-81.239443
 30
0.0
 10
-4.065902
 20
-81.230130
 30
0.0
 10
-4.058150
 20
-81.220314
 30
0.0
 10
-4.041614
 20
-81.186209
 30
0.0
 10
-4.035929
 20
-81.148506
 30
0.0
 10
-4.041614
 20
-81.110776
 30
0.0
 10
-4.058150
 20
-81.076672
 30
0.0
 10
-4.065902
 20
-81.066856
 30
0.0
 10
-4.074170
 20
-81.057542
 30
0.0
 10
-4.094324
 20
-81.042038
 30
0.0
 10
-4.153752
 20
-81.022406
 30
0.0
 10
-4.179073
 20
-81.022406
 30
0.0
 10
-4.191992
 20
-81.024999
 30
0.0
 10
-4.203878
 20
-81.028094
 30
0.0
 10
-4.215763
 20
-81.033254
 30
0.0
 10
-4.237467
 20
-81.045662
 30
0.0
 10
-4.254004
 20
-81.060638
 30
0.0
 10
-4.998661
 20
-81.805810
 30
0.0
 10
-5.000728
 20
-81.808403
 30
0.0
 10
-5.030184
 20
-81.837851
 30
0.0
 10
-5.052921
 20
-81.860606
 30
0.0
 10
-5.052921
 20
-81.151072
 30
0.0
 10
-5.090129
 20
-81.059606
 30
0.0
 10
-5.181596
 20
-81.022406
 30
0.0
 10
-5.181596
 20
-81.020845
 30
0.0
  0
LWPOLYLINE
  5
16c
100
AcDbEntity
  8
Raster_fill
 62
7
100
AcDbPolyline
 90
35
 70
1
 10
0.912089
 20
-81.020845
 30
0.0
 10
0.823206
 20
-81.059103
 30
0.0
 10
0.787032
 20
-81.149538
 30
0.0
 10
0.787032
 20
-82.151012
 30
0.0
 10
0.792200
 20
-82.203215
 30
0.0
 10
0.794784
 20
-82.209935
 30
0.0
 10
0.796334
 20
-82.215094
 30
0.0
 10
0.797367
 20
-82.217687
 30
0.0
 10
0.803569
 20
-82.229038
 30
0.0
 10
0.836125
 20
-82.267799
 30
0.0
 10
1.317749
 20
-82.748918
 30
0.0
 10
1.398364
 20
-82.799559
 30
0.0
 10
1.407666
 20
-82.802152
 30
0.0
 10
1.410767
 20
-82.802152
 30
0.0
 10
1.423169
 20
-82.802152
 30
0.0
 10
1.424719
 20
-82.802152
 30
0.0
 10
1.426270
 20
-82.802152
 30
0.0
 10
1.526522
 20
-82.748918
 30
0.0
 10
2.007113
 20
-82.268329
 30
0.0
 10
2.042769
 20
-82.225440
 30
0.0
 10
2.043803
 20
-82.222847
 30
0.0
 10
2.045353
 20
-82.218190
 30
0.0
 10
2.049487
 20
-82.210967
 30
0.0
 10
2.057239
 20
-82.144821
 30
0.0
 10
2.057239
 20
-81.149009
 30
0.0
 10
1.995227
 20
-81.033783
 30
0.0
 10
1.865002
 20
-81.033783
 30
0.0
 10
1.803507
 20
-81.149009
 30
0.0
 10
1.803507
 20
-82.112251
 30
0.0
 10
1.422652
 20
-82.493621
 30
0.0
 10
1.041797
 20
-82.112780
 30
0.0
 10
1.041797
 20
-81.149538
 30
0.0
 10
1.004073
 20
-81.058071
 30
0.0
 10
0.912606
 20
-81.020845
 30
0.0
 10
0.912089
 20
-81.020845
 30
0.0
  0
LWPOLYLINE
  5
16d
100
AcDbEntity
  8
Raster_fill
 62
7
100
AcDbPolyline
 90
22
 70
1
 10
8.530229
 20
-81.021374
 30
0.0
 10
8.418607
 20
-81.089583
 30
0.0
 10
8.426359
 20
-81.220314
 30
0.0
 10
8.887313
 20
-81.911247
 30
0.0
 10
8.426359
 20
-82.602682
 30
0.0
 10
8.418091
 20
-82.729286
 30
0.0
 10
8.524028
 20
-82.800062
 30
0.0
 10
8.637716
 20
-82.743758
 30
0.0
 10
9.039758
 20
-82.140694
 30
0.0
 10
9.441801
 20
-82.743758
 30
0.0
 10
9.555489
 20
-82.800062
 30
0.0
 10
9.661426
 20
-82.729286
 30
0.0
 10
9.653158
 20
-82.602682
 30
0.0
 10
9.192204
 20
-81.911247
 30
0.0
 10
9.653158
 20
-81.220314
 30
0.0
 10
9.672278
 20
-81.124720
 30
0.0
 10
9.618017
 20
-81.044101
 30
0.0
 10
9.522416
 20
-81.024999
 30
0.0
 10
9.441801
 20
-81.079238
 30
0.0
 10
9.039758
 20
-81.682303
 30
0.0
 10
8.637716
 20
-81.079238
 30
0.0
 10
8.530229
 20
-81.021374
 30
0.0
  0
LWPOLYLINE
  5
16e
100
AcDbEntity
  8
Raster_fill
 62
7
100
AcDbPolyline
 90
7
 70
1
 10
-9.623185
 20
-81.275612
 30
0.0
 10
-9.041309
 20
-81.275612
 30
0.0
 10
-8.861475
 20
-81.455449
 30
0.0
 10
-8.861475
 20
-81.858013
 30
0.0
 10
-9.041309
 20
-82.037321
 30
0.0
 10
-9.623185
 20
-82.037321
 30
0.0
 10
-9.623185
 20
-81.275612
 30
0.0
  0
LWPOLYLINE
  5
16f
100
AcDbEntity
  8
Raster_fill
 62
7
100
AcDbPolyline
 90
9
 70
1
 10
2.744535
 20
-81.276644
 30
0.0
 10
3.147095
 20
-81.276644
 30
0.0
 10
3.326412
 20
-81.456481
 30
0.0
 10
3.326412
 20
-82.366515
 30
0.0
 10
3.147095
 20
-82.546353
 30
0.0
 10
2.744535
 20
-82.546353
 30
0.0
 10
2.564701
 20
-82.366515
 30
0.0
 10
2.564701
 20
-81.456481
 30
0.0
 10
2.744535
 20
-81.276644
 30
0.0
  0
LWPOLYLINE
  5
170
100
AcDbEntity
  8
Raster_fill
 62
7
100
AcDbPolyline
 90
9
 70
1
 10
-7.920447
 20
-81.277676
 30
0.0
 10
-7.517371
 20
-81.277676
 30
0.0
 10
-7.338053
 20
-81.457513
 30
0.0
 10
-7.338053
 20
-82.367547
 30
0.0
 10
-7.517371
 20
-82.547385
 30
0.0
 10
-7.920447
 20
-82.547385
 30
0.0
 10
-8.099764
 20
-82.367547
 30
0.0
 10
-8.099764
 20
-81.457513
 30
0.0
 10
-7.920447
 20
-81.277676
 30
0.0
  0
ENDSEC
  0
SECTION
  2
OBJECTS
  0
DICTIONARY
  5
C
330
0
100
AcDbDictionary
  3
ACAD_GROUP
350
D
  3
ACAD_MLINESTYLE
350
17
  0
DICTIONARY
  5
D
330
C
100
AcDbDictionary
  0
DICTIONARY
  5
1A
330
C
100
AcDbDictionary
  0
DICTIONARY
  5
17
330
C
100
AcDbDictionary
  3
STANDARD
350
18
  0
DICTIONARY
  5
19
330
C
100
AcDbDictionary
  0
ENDSEC
  0
EOF
