  0
SECTION
  2
HEADER
  9
$ACADVER
  1
AC1014
  9
$HANDSEED
  5
FFFF
  9
$MEASUREMENT
 70
     1
  0
ENDSEC
  0
SECTION
  2
TABLES
  0
TABLE
  2
VPORT
  5
8
330
0
100
AcDbSymbolTable
 70
     4
  0
VPORT
  5
2E
330
8
100
AcDbSymbolTableRecord
100
AcDbViewportTableRecord
  2
*ACTIVE
 70
     0
 10
0.0
 20
0.0
 11
1.0
 21
1.0
 12
210.0
 22
148.5
 13
0.0
 23
0.0
 14
10.0
 24
10.0
 15
10.0
 25
10.0
 16
0.0
 26
0.0
 36
1.0
 17
0.0
 27
0.0
 37
0.0
 40
341.0
 41
1.24
 42
50.0
 43
0.0
 44
0.0
 50
0.0
 51
0.0
 71
     0
 72
   100
 73
     1
 74
     3
 75
     0
 76
     0
 77
     0
 78
     0
  0
ENDTAB
  0
TABLE
  2
LTYPE
  5
5
330
0
100
AcDbSymbolTable
 70
     1
  0
LTYPE
  5
14
330
5
100
AcDbSymbolTableRecord
100
AcDbLinetypeTableRecord
  2
BYBLOCK
 70
     0
  3

 72
    65
 73
     0
 40
0.0
  0
LTYPE
  5
15
330
5
100
AcDbSymbolTableRecord
100
AcDbLinetypeTableRecord
  2
BYLAYER
 70
     0
  3

 72
    65
 73
     0
 40
0.0
  0
LTYPE
  5
16
330
5
100
AcDbSymbolTableRecord
100
AcDbLinetypeTableRecord
  2
CONTINUOUS
 70
     0
  3
Solid line
 72
    65
 73
     0
 40
0.0
  0
ENDTAB
  0
TABLE
  2
LAYER
  5
2
100
AcDbSymbolTable
 70
2
  0
LAYER
  5
50
100
AcDbSymbolTableRecord
100
AcDbLayerTableRecord
  2
0
 70
0
  6
CONTINUOUS
  0
LAYER
  5
51
100
AcDbSymbolTableRecord
100
AcDbLayerTableRecord
  2
Merge
 70
0
  6
CONTINUOUS
  0
ENDTAB
  0
TABLE
  2
STYLE
  5
3
330
0
100
AcDbSymbolTable
 70
     1
  0
STYLE
  5
11
330
3
100
AcDbSymbolTableRecord
100
AcDbTextStyleTableRecord
  2
STANDARD
 70
     0
 40
0.0
 41
1.0
 50
0.0
 71
     0
 42
2.5
  3
txt
  4

  0
ENDTAB
  0
TABLE
  2
VIEW
  5
6
330
0
100
AcDbSymbolTable
 70
     0
  0
ENDTAB
  0
TABLE
  2
UCS
  5
7
330
0
100
AcDbSymbolTable
 70
     0
  0
ENDTAB
  0
TABLE
  2
APPID
  5
9
330
0
100
AcDbSymbolTable
 70
     2
  0
APPID
  5
12
330
9
100
AcDbSymbolTableRecord
100
AcDbRegAppTableRecord
  2
ACAD
 70
     0
  0
ENDTAB
  0
TABLE
  2
DIMSTYLE
  5
A
330
0
100
AcDbSymbolTable
 70
     1
  0
DIMSTYLE
105
27
330
A
100
AcDbSymbolTableRecord
100
AcDbDimStyleTableRecord
  2
ISO-25
 70
     0
  3

  4

  5

  6

  7

 40
1.0
 41
2.5
 42
0.625
 43
3.75
 44
1.25
 45
0.0
 46
0.0
 47
0.0
 48
0.0
140
2.5
141
2.5
142
0.0
143
0.03937007874016
144
1.0
145
0.0
146
1.0
147
0.625
 71
     0
 72
     0
 73
     0
 74
     0
 75
     0
 76
     0
 77
     1
 78
     8
170
     0
171
     3
172
     1
173
     0
174
     0
175
     0
176
     0
177
     0
178
     0
270
     2
271
     2
272
     2
273
     2
274
     3
340
11
275
     0
280
     0
281
     0
282
     0
283
     0
284
     8
285
     0
286
     0
287
     3
288
     0
  0
ENDTAB
  0
TABLE
  2
BLOCK_RECORD
  5
1
330
0
100
AcDbSymbolTable
 70
     1
  0
BLOCK_RECORD
  5
1F
330
1
100
AcDbSymbolTableRecord
100
AcDbBlockTableRecord
  2
*MODEL_SPACE
  0
BLOCK_RECORD
  5
1B
330
1
100
AcDbSymbolTableRecord
100
AcDbBlockTableRecord
  2
*PAPER_SPACE
  0
ENDTAB
  0
ENDSEC
  0
SECTION
  2
BLOCKS
  0
BLOCK
  5
20
330
1F
100
AcDbEntity
  8
0
100
AcDbBlockBegin
  2
*MODEL_SPACE
 70
     0
 10
0.0
 20
0.0
 30
0.0
  3
*MODEL_SPACE
  1

  0
ENDBLK
  5
21
330
1F
100
AcDbEntity
  8
0
100
AcDbBlockEnd
  0
BLOCK
  5
1C
330
1B
100
AcDbEntity
 67
     1
  8
0
100
AcDbBlockBegin
  2
*PAPER_SPACE
  1

  0
ENDBLK
  5
1D
330
1B
100
AcDbEntity
 67
     1
  8
0
100
AcDbBlockEnd
  0
ENDSEC
  0
SECTION
  2
ENTITIES
  0
LWPOLYLINE
  5
100
100
AcDbEntity
  8
Merge
 62
7
100
AcDbPolyline
 90
419
 70
1
 10
-64.089629
 20
21.421986
 30
0.0
 10
-65.162949
 20
21.390474
 30
0.0
 10
-66.157718
 20
21.310887
 30
0.0
 10
-67.155073
 20
21.182220
 30
0.0
 10
-68.153463
 20
21.002886
 30
0.0
 10
-69.151852
 20
20.772407
 30
0.0
 10
-70.148172
 20
20.490255
 30
0.0
 10
-71.141394
 20
20.154870
 30
0.0
 10
-72.129965
 20
19.765747
 30
0.0
 10
-73.112334
 20
19.321855
 30
0.0
 10
-73.314388
 20
19.154427
 30
0.0
 10
-73.403272
 20
18.907412
 30
0.0
 10
-73.355729
 20
18.649549
 30
0.0
 10
-73.183647
 20
18.451641
 30
0.0
 10
-72.935084
 20
18.367398
 30
0.0
 10
-72.678250
 20
18.421134
 30
0.0
 10
-71.426131
 20
18.974590
 30
0.0
 10
-70.164709
 20
19.436076
 30
0.0
 10
-68.898119
 20
19.807630
 30
0.0
 10
-67.628431
 20
20.090814
 30
0.0
 10
-66.359257
 20
20.288220
 30
0.0
 10
-65.094218
 20
20.400853
 30
0.0
 10
-63.835896
 20
20.431862
 30
0.0
 10
-62.587910
 20
20.382782
 30
0.0
 10
-61.352845
 20
20.255649
 30
0.0
 10
-60.134831
 20
20.052053
 30
0.0
 10
-58.936453
 20
19.775060
 30
0.0
 10
-57.760814
 20
19.425202
 30
0.0
 10
-56.611531
 20
19.006128
 30
0.0
 10
-55.491703
 20
18.518289
 30
0.0
 10
-54.404432
 20
17.964834
 30
0.0
 10
-53.352816
 20
17.347296
 30
0.0
 10
-52.340476
 20
16.668270
 30
0.0
 10
-51.369992
 20
15.928786
 30
0.0
 10
-50.444982
 20
15.130908
 30
0.0
 10
-49.568034
 20
14.277733
 30
0.0
 10
-48.743277
 20
13.370291
 30
0.0
 10
-47.973300
 20
12.410648
 30
0.0
 10
-47.261714
 20
11.401421
 30
0.0
 10
-46.611625
 20
10.344622
 30
0.0
 10
-46.025615
 20
9.241336
 30
0.0
 10
-45.507299
 20
8.094129
 30
0.0
 10
-45.060298
 20
6.905039
 30
0.0
 10
-44.687194
 20
5.676182
 30
0.0
 10
-44.391606
 20
4.409595
 30
0.0
 10
-44.176633
 20
3.106839
 30
0.0
 10
-44.044857
 20
1.770482
 30
0.0
 10
-44.000415
 20
0.402083
 30
0.0
 10
-44.041756
 20
-0.881569
 30
0.0
 10
-44.163713
 20
-2.150722
 30
0.0
 10
-44.365251
 20
-3.401831
 30
0.0
 10
-44.643786
 20
-4.631720
 30
0.0
 10
-44.997770
 20
-5.836818
 30
0.0
 10
-45.426167
 20
-7.014505
 30
0.0
 10
-45.925878
 20
-8.160706
 30
0.0
 10
-46.495869
 20
-9.272777
 30
0.0
 10
-47.134074
 20
-10.346615
 30
0.0
 10
-47.838939
 20
-11.380130
 30
0.0
 10
-48.607885
 20
-12.368719
 30
0.0
 10
-49.440394
 20
-13.310265
 30
0.0
 10
-50.333362
 20
-14.200139
 30
0.0
 10
-51.285241
 20
-15.036248
 30
0.0
 10
-52.294999
 20
-15.815023
 30
0.0
 10
-53.360050
 20
-16.532811
 30
0.0
 10
-54.469027
 20
-17.180829
 30
0.0
 10
-55.608493
 20
-17.752884
 30
0.0
 10
-56.774829
 20
-18.247946
 30
0.0
 10
-57.964419
 20
-18.666014
 30
0.0
 10
-59.173131
 20
-19.007062
 30
0.0
 10
-60.397864
 20
-19.271143
 30
0.0
 10
-61.634481
 20
-19.457674
 30
0.0
 10
-62.879367
 20
-19.566735
 30
0.0
 10
-64.128385
 20
-19.597718
 30
0.0
 10
-65.377923
 20
-19.550701
 30
0.0
 10
-66.624356
 20
-19.425659
 30
0.0
 10
-67.864075
 20
-19.221533
 30
0.0
 10
-69.092940
 20
-18.938852
 30
0.0
 10
-70.307338
 20
-18.577643
 30
0.0
 10
-71.503646
 20
-18.136847
 30
0.0
 10
-72.678250
 20
-17.616968
 30
0.0
 10
-72.932499
 20
-17.568919
 30
0.0
 10
-73.176929
 20
-17.654168
 30
0.0
 10
-73.345910
 20
-17.850542
 30
0.0
 10
-73.393969
 20
-18.104806
 30
0.0
 10
-73.308705
 20
-18.349229
 30
0.0
 10
-73.112334
 20
-18.518218
 30
0.0
 10
-71.879333
 20
-19.063921
 30
0.0
 10
-70.623597
 20
-19.526413
 30
0.0
 10
-69.348223
 20
-19.906249
 30
0.0
 10
-68.057861
 20
-20.202873
 30
0.0
 10
-66.756132
 20
-20.416789
 30
0.0
 10
-65.447169
 20
-20.548048
 30
0.0
 10
-64.135103
 20
-20.597155
 30
0.0
 10
-62.823040
 20
-20.564585
 30
0.0
 10
-61.516141
 20
-20.450391
 30
0.0
 10
-60.217513
 20
-20.254546
 30
0.0
 10
-58.931805
 20
-19.977025
 30
0.0
 10
-57.662114
 20
-19.618911
 30
0.0
 10
-56.413093
 20
-19.179676
 30
0.0
 10
-55.188363
 20
-18.659796
 30
0.0
 10
-53.992052
 20
-18.059827
 30
0.0
 10
-52.827783
 20
-17.379266
 30
0.0
 10
-51.709505
 20
-16.625812
 30
0.0
 10
-50.649621
 20
-15.808302
 30
0.0
 10
-49.650200
 20
-14.930309
 30
0.0
 10
-48.712273
 20
-13.995483
 30
0.0
 10
-47.838939
 20
-13.007423
 30
0.0
 10
-47.031238
 20
-11.968749
 30
0.0
 10
-46.291230
 20
-10.884036
 30
0.0
 10
-45.620988
 20
-9.755959
 30
0.0
 10
-45.022574
 20
-8.588591
 30
0.0
 10
-44.497543
 20
-7.384525
 30
0.0
 10
-44.075345
 20
-6.223348
 30
0.0
 10
-37.316585
 20
-6.223348
 30
0.0
 10
-48.012572
 20
-21.848237
 30
0.0
 10
-54.975456
 20
-21.848237
 30
0.0
 10
-59.178301
 20
-21.848237
 30
0.0
 10
-59.402059
 20
-21.886999
 30
0.0
 10
-59.562257
 20
-22.048236
 30
0.0
 10
-59.572591
 20
-22.069932
 30
0.0
 10
-59.578274
 20
-22.082341
 30
0.0
 10
-59.578793
 20
-22.084907
 30
0.0
 10
-59.605148
 20
-22.205319
 30
0.0
 10
-59.591713
 20
-22.325202
 30
0.0
 10
-59.541069
 20
-22.434236
 30
0.0
 10
-59.456320
 20
-22.523639
 30
0.0
 10
-57.375309
 20
-24.604666
 30
0.0
 10
-57.375309
 20
-25.699168
 30
0.0
 10
-73.800147
 20
-25.699168
 30
0.0
 10
-73.987731
 20
-25.749280
 30
0.0
 10
-74.125190
 20
-25.886758
 30
0.0
 10
-74.175318
 20
-26.074347
 30
0.0
 10
-74.125190
 20
-26.261911
 30
0.0
 10
-73.988766
 20
-26.398356
 30
0.0
 10
-74.000135
 20
-26.398356
 30
0.0
 10
-73.150574
 20
-56.123156
 30
0.0
 10
-69.552344
 20
-59.721384
 30
0.0
 10
-69.540459
 20
-59.741016
 30
0.0
 10
-45.232897
 20
-84.048577
 30
0.0
 10
-45.196726
 20
-84.089905
 30
0.0
 10
-45.194141
 20
-84.092498
 30
0.0
 10
-45.190008
 20
-84.096626
 30
0.0
 10
-45.041180
 20
-84.184494
 30
0.0
 10
-44.868579
 20
-84.195845
 30
0.0
 10
-12.295374
 20
-84.195845
 30
0.0
 10
-12.132076
 20
-84.195845
 30
0.0
 10
-12.009603
 20
-84.195845
 30
0.0
 10
-11.893848
 20
-84.156580
 30
0.0
 10
-11.885063
 20
-84.152453
 30
0.0
 10
-11.785844
 20
-84.076491
 30
0.0
 10
-11.718148
 20
-83.975182
 30
0.0
 10
-11.686625
 20
-83.857363
 30
0.0
 10
-11.695410
 20
-83.732824
 30
0.0
 10
-11.695410
 20
-82.584056
 30
0.0
 10
-9.735323
 20
-83.958143
 30
0.0
 10
-9.609749
 20
-84.017066
 30
0.0
 10
-9.471257
 20
-84.025850
 30
0.0
 10
-0.000517
 20
-84.025850
 30
0.0
 10
9.472290
 20
-84.025850
 30
0.0
 10
9.609749
 20
-84.016536
 30
0.0
 10
9.734806
 20
-83.958143
 30
0.0
 10
11.694893
 20
-82.584056
 30
0.0
 10
11.694893
 20
-83.759176
 30
0.0
 10
11.707296
 20
-83.933325
 30
0.0
 10
11.797213
 20
-84.083211
 30
0.0
 10
11.807548
 20
-84.094059
 30
0.0
 10
11.951209
 20
-84.181372
 30
0.0
 10
12.118123
 20
-84.197406
 30
0.0
 10
12.129492
 20
-84.194813
 30
0.0
 10
44.868063
 20
-84.194813
 30
0.0
 10
45.047897
 20
-84.180869
 30
0.0
 10
45.200342
 20
-84.084746
 30
0.0
 10
45.209643
 20
-84.074930
 30
0.0
 10
45.235482
 20
-84.043921
 30
0.0
 10
69.539940
 20
-59.739984
 30
0.0
 10
69.551309
 20
-59.721384
 30
0.0
 10
73.149539
 20
-56.123156
 30
0.0
 10
73.999617
 20
-26.398356
 30
0.0
 10
73.987216
 20
-26.398356
 30
0.0
 10
74.124674
 20
-26.260879
 30
0.0
 10
74.174800
 20
-26.073316
 30
0.0
 10
74.124674
 20
-25.885726
 30
0.0
 10
73.987216
 20
-25.748249
 30
0.0
 10
73.799629
 20
-25.698136
 30
0.0
 10
57.374793
 20
-25.698136
 30
0.0
 10
57.374793
 20
-24.603635
 30
0.0
 10
59.458386
 20
-22.520041
 30
0.0
 10
59.543654
 20
-22.428045
 30
0.0
 10
59.592744
 20
-22.316417
 30
0.0
 10
59.603598
 20
-22.194974
 30
0.0
 10
59.573626
 20
-22.073556
 30
0.0
 10
59.573107
 20
-22.070434
 30
0.0
 10
59.568456
 20
-22.061650
 30
0.0
 10
59.556571
 20
-22.036859
 30
0.0
 10
59.396373
 20
-21.882871
 30
0.0
 10
59.177267
 20
-21.846676
 30
0.0
 10
54.974940
 20
-21.846676
 30
0.0
 10
48.011540
 20
-21.846676
 30
0.0
 10
37.316069
 20
-6.221813
 30
0.0
 10
44.074313
 20
-6.221813
 30
0.0
 10
44.497024
 20
-7.384525
 30
0.0
 10
45.022058
 20
-8.588591
 30
0.0
 10
45.620472
 20
-9.755959
 30
0.0
 10
46.290714
 20
-10.884036
 30
0.0
 10
47.030722
 20
-11.968749
 30
0.0
 10
47.838423
 20
-13.007423
 30
0.0
 10
48.711755
 20
-13.995483
 30
0.0
 10
49.649682
 20
-14.930309
 30
0.0
 10
50.649105
 20
-15.808302
 30
0.0
 10
51.708989
 20
-16.625812
 30
0.0
 10
52.827267
 20
-17.379266
 30
0.0
 10
53.991536
 20
-18.059827
 30
0.0
 10
55.187845
 20
-18.659796
 30
0.0
 10
56.412577
 20
-19.179676
 30
0.0
 10
57.661596
 20
-19.618911
 30
0.0
 10
58.931286
 20
-19.977025
 30
0.0
 10
60.216997
 20
-20.254546
 30
0.0
 10
61.515625
 20
-20.450391
 30
0.0
 10
62.822521
 20
-20.564585
 30
0.0
 10
64.134587
 20
-20.597155
 30
0.0
 10
65.446651
 20
-20.548048
 30
0.0
 10
66.755616
 20
-20.416789
 30
0.0
 10
68.057345
 20
-20.202873
 30
0.0
 10
69.347704
 20
-19.906249
 30
0.0
 10
70.623081
 20
-19.526413
 30
0.0
 10
71.878817
 20
-19.063921
 30
0.0
 10
73.111815
 20
-18.518218
 30
0.0
 10
73.269946
 20
-18.398309
 30
0.0
 10
73.367098
 20
-18.232944
 30
0.0
 10
73.394485
 20
-18.042788
 30
0.0
 10
73.345395
 20
-17.850542
 30
0.0
 10
73.225504
 20
-17.692427
 30
0.0
 10
73.060139
 20
-17.595272
 30
0.0
 10
72.869970
 20
-17.567887
 30
0.0
 10
72.677734
 20
-17.616968
 30
0.0
 10
71.503130
 20
-18.136847
 30
0.0
 10
70.306819
 20
-18.577643
 30
0.0
 10
69.092424
 20
-18.938852
 30
0.0
 10
67.863559
 20
-19.221533
 30
0.0
 10
66.623840
 20
-19.425659
 30
0.0
 10
65.377404
 20
-19.550701
 30
0.0
 10
64.127869
 20
-19.597718
 30
0.0
 10
62.878848
 20
-19.566735
 30
0.0
 10
61.633965
 20
-19.457674
 30
0.0
 10
60.397348
 20
-19.271143
 30
0.0
 10
59.172615
 20
-19.007062
 30
0.0
 10
57.963903
 20
-18.666014
 30
0.0
 10
56.774313
 20
-18.247946
 30
0.0
 10
55.607977
 20
-17.752884
 30
0.0
 10
54.468509
 20
-17.180829
 30
0.0
 10
53.359534
 20
-16.532811
 30
0.0
 10
52.294483
 20
-15.815023
 30
0.0
 10
51.284725
 20
-15.036248
 30
0.0
 10
50.332846
 20
-14.200139
 30
0.0
 10
49.439878
 20
-13.310265
 30
0.0
 10
48.607369
 20
-12.368719
 30
0.0
 10
47.838423
 20
-11.380130
 30
0.0
 10
47.133558
 20
-10.346615
 30
0.0
 10
46.495354
 20
-9.272777
 30
0.0
 10
45.925362
 20
-8.160706
 30
0.0
 10
45.425651
 20
-7.014505
 30
0.0
 10
44.997254
 20
-5.836818
 30
0.0
 10
44.643270
 20
-4.631720
 30
0.0
 10
44.364733
 20
-3.401831
 30
0.0
 10
44.163197
 20
-2.150722
 30
0.0
 10
44.041240
 20
-0.881569
 30
0.0
 10
43.999899
 20
0.402083
 30
0.0
 10
44.044341
 20
1.770482
 30
0.0
 10
44.176114
 20
3.106839
 30
0.0
 10
44.391088
 20
4.409595
 30
0.0
 10
44.686678
 20
5.676182
 30
0.0
 10
45.059783
 20
6.905039
 30
0.0
 10
45.506783
 20
8.094129
 30
0.0
 10
46.025096
 20
9.241336
 30
0.0
 10
46.611109
 20
10.344622
 30
0.0
 10
47.261198
 20
11.401421
 30
0.0
 10
47.972782
 20
12.410648
 30
0.0
 10
48.742761
 20
13.370291
 30
0.0
 10
49.567518
 20
14.277733
 30
0.0
 10
50.444466
 20
15.130908
 30
0.0
 10
51.369473
 20
15.928786
 30
0.0
 10
52.339957
 20
16.668270
 30
0.0
 10
53.352298
 20
17.347296
 30
0.0
 10
54.403913
 20
17.964834
 30
0.0
 10
55.491187
 20
18.518289
 30
0.0
 10
56.611015
 20
19.006128
 30
0.0
 10
57.760298
 20
19.425202
 30
0.0
 10
58.935938
 20
19.775060
 30
0.0
 10
60.134315
 20
20.052053
 30
0.0
 10
61.352327
 20
20.255649
 30
0.0
 10
62.587394
 20
20.382782
 30
0.0
 10
63.835381
 20
20.431862
 30
0.0
 10
65.093702
 20
20.400853
 30
0.0
 10
66.358741
 20
20.288220
 30
0.0
 10
67.627913
 20
20.090814
 30
0.0
 10
68.897603
 20
19.807630
 30
0.0
 10
70.164193
 20
19.436076
 30
0.0
 10
71.425615
 20
18.974590
 30
0.0
 10
72.677734
 20
18.421134
 30
0.0
 10
72.934565
 20
18.367398
 30
0.0
 10
73.183131
 20
18.451641
 30
0.0
 10
73.355213
 20
18.649549
 30
0.0
 10
73.402754
 20
18.907412
 30
0.0
 10
73.313872
 20
19.154427
 30
0.0
 10
73.111815
 20
19.321855
 30
0.0
 10
72.129446
 20
19.765747
 30
0.0
 10
71.140878
 20
20.154870
 30
0.0
 10
70.147656
 20
20.490255
 30
0.0
 10
69.151336
 20
20.772407
 30
0.0
 10
68.152947
 20
21.002886
 30
0.0
 10
67.154557
 20
21.182220
 30
0.0
 10
66.157202
 20
21.310887
 30
0.0
 10
65.162430
 20
21.390474
 30
0.0
 10
64.089111
 20
21.421986
 30
0.0
 10
63.055582
 20
21.399258
 30
0.0
 10
62.029806
 20
21.325360
 30
0.0
 10
61.012813
 20
21.201323
 30
0.0
 10
60.007190
 20
21.028206
 30
0.0
 10
59.014487
 20
20.806512
 30
0.0
 10
58.035735
 20
20.537801
 30
0.0
 10
57.073001
 20
20.223106
 30
0.0
 10
56.127840
 20
19.863431
 30
0.0
 10
55.201799
 20
19.459836
 30
0.0
 10
54.296945
 20
19.012822
 30
0.0
 10
53.414311
 20
18.523978
 30
0.0
 10
52.555965
 20
17.994282
 30
0.0
 10
51.723457
 20
17.424819
 30
0.0
 10
50.918340
 20
16.816595
 30
0.0
 10
50.142159
 20
16.170112
 30
0.0
 10
49.396986
 20
15.487461
 30
0.0
 10
48.683849
 20
14.768641
 30
0.0
 10
48.005339
 20
14.015213
 30
0.0
 10
47.361967
 20
13.228184
 30
0.0
 10
46.756320
 20
12.408081
 30
0.0
 10
46.189429
 20
11.556970
 30
0.0
 10
45.663363
 20
10.674849
 30
0.0
 10
45.179671
 20
9.763280
 30
0.0
 10
44.739904
 20
8.823268
 30
0.0
 10
44.345614
 20
7.855899
 30
0.0
 10
43.998348
 20
6.862150
 30
0.0
 10
43.959074
 20
6.728324
 30
0.0
 10
41.091548
 20
6.728324
 30
0.0
 10
43.025280
 20
9.153495
 30
0.0
 10
38.224539
 20
9.153495
 30
0.0
 10
36.625670
 20
6.728324
 30
0.0
 10
28.451492
 20
6.728324
 30
0.0
 10
26.640750
 20
9.373628
 30
0.0
 10
26.533782
 20
9.477503
 30
0.0
 10
26.400456
 20
9.530208
 30
0.0
 10
26.256278
 20
9.529679
 30
0.0
 10
26.119336
 20
9.471286
 30
0.0
 10
26.015466
 20
9.364315
 30
0.0
 10
25.962756
 20
9.230991
 30
0.0
 10
25.963273
 20
9.086820
 30
0.0
 10
26.021667
 20
8.949871
 30
0.0
 10
27.542506
 20
6.728324
 30
0.0
 10
14.257528
 20
6.728324
 30
0.0
 10
13.393498
 20
9.277002
 30
0.0
 10
13.285494
 20
9.438742
 30
0.0
 10
13.111345
 20
9.524520
 30
0.0
 10
12.917558
 20
9.512111
 30
0.0
 10
12.756327
 20
9.404108
 30
0.0
 10
12.670544
 20
9.229959
 30
0.0
 10
12.682947
 20
9.036178
 30
0.0
 10
13.465328
 20
6.728324
 30
0.0
 10
-0.000517
 20
6.728324
 30
0.0
 10
-13.466361
 20
6.728324
 30
0.0
 10
-12.683980
 20
9.036178
 30
0.0
 10
-12.663310
 20
9.211359
 30
0.0
 10
-12.724805
 20
9.376724
 30
0.0
 10
-12.855029
 20
9.495574
 30
0.0
 10
-13.025562
 20
9.541585
 30
0.0
 10
-13.147001
 20
9.524520
 30
0.0
 10
-13.254488
 20
9.471286
 30
0.0
 10
-13.339238
 20
9.387069
 30
0.0
 10
-13.394015
 20
9.277002
 30
0.0
 10
-14.258044
 20
6.728324
 30
0.0
 10
-27.543022
 20
6.728324
 30
0.0
 10
-26.022184
 20
8.949871
 30
0.0
 10
-25.954488
 20
9.142118
 30
0.0
 10
-25.996863
 20
9.341084
 30
0.0
 10
-26.137423
 20
9.488880
 30
0.0
 10
-26.334310
 20
9.541056
 30
0.0
 10
-26.334310
 20
9.539522
 30
0.0
 10
-26.508459
 20
9.493511
 30
0.0
 10
-26.641269
 20
9.372067
 30
0.0
 10
-28.452011
 20
6.726763
 30
0.0
 10
-36.625154
 20
6.726763
 30
0.0
 10
-38.225058
 20
9.153495
 30
0.0
 10
-43.025798
 20
9.153495
 30
0.0
 10
-41.091033
 20
6.726763
 30
0.0
 10
-43.959074
 20
6.726763
 30
0.0
 10
-43.998864
 20
6.862150
 30
0.0
 10
-44.346130
 20
7.855899
 30
0.0
 10
-44.740423
 20
8.823268
 30
0.0
 10
-45.180189
 20
9.763280
 30
0.0
 10
-45.663879
 20
10.674849
 30
0.0
 10
-46.189945
 20
11.556970
 30
0.0
 10
-46.756836
 20
12.408081
 30
0.0
 10
-47.362483
 20
13.228184
 30
0.0
 10
-48.005854
 20
14.015213
 30
0.0
 10
-48.684368
 20
14.768641
 30
0.0
 10
-49.397502
 20
15.487461
 30
0.0
 10
-50.142674
 20
16.170112
 30
0.0
 10
-50.918856
 20
16.816595
 30
0.0
 10
-51.723975
 20
17.424819
 30
0.0
 10
-52.556481
 20
17.994282
 30
0.0
 10
-53.414827
 20
18.523978
 30
0.0
 10
-54.297461
 20
19.012822
 30
0.0
 10
-55.202315
 20
19.459836
 30
0.0
 10
-56.128356
 20
19.863431
 30
0.0
 10
-57.073520
 20
20.223106
 30
0.0
 10
-58.036251
 20
20.537801
 30
0.0
 10
-59.015003
 20
20.806512
 30
0.0
 10
-60.007706
 20
21.028206
 30
0.0
 10
-61.013329
 20
21.201323
 30
0.0
 10
-62.030322
 20
21.325360
 30
0.0
 10
-63.056101
 20
21.399258
 30
0.0
 10
-64.089629
 20
21.421986
 30
0.0
  0
LWPOLYLINE
  5
101
100
AcDbEntity
  8
Merge
 62
7
100
AcDbPolyline
 90
131
 70
1
 10
-63.194076
 20
18.523978
 30
0.0
 10
-64.790360
 20
18.522417
 30
0.0
 10
-66.403183
 20
18.375653
 30
0.0
 10
-68.026338
 20
18.078525
 30
0.0
 10
-69.651562
 20
17.625321
 30
0.0
 10
-69.738896
 20
17.530759
 30
0.0
 10
-69.699105
 20
17.408283
 30
0.0
 10
-69.572497
 20
17.383994
 30
0.0
 10
-68.503829
 20
17.699219
 30
0.0
 10
-67.434643
 20
17.945705
 30
0.0
 10
-66.368041
 20
18.124510
 30
0.0
 10
-65.306091
 20
18.237170
 30
0.0
 10
-64.249824
 20
18.285747
 30
0.0
 10
-63.202860
 20
18.271274
 30
0.0
 10
-62.166749
 20
18.195313
 30
0.0
 10
-61.143555
 20
18.059396
 30
0.0
 10
-60.135347
 20
17.865113
 30
0.0
 10
-59.144710
 20
17.613944
 30
0.0
 10
-58.173194
 20
17.308032
 30
0.0
 10
-57.223898
 20
16.947855
 30
0.0
 10
-56.298372
 20
16.535475
 30
0.0
 10
-55.398686
 20
16.072957
 30
0.0
 10
-54.527421
 20
15.560856
 30
0.0
 10
-53.686128
 20
15.001183
 30
0.0
 10
-52.877910
 20
14.395552
 30
0.0
 10
-52.104314
 20
13.745444
 30
0.0
 10
-51.367407
 20
13.051945
 30
0.0
 10
-50.669775
 20
12.317118
 30
0.0
 10
-50.012968
 20
11.542497
 30
0.0
 10
-49.400084
 20
10.729618
 30
0.0
 10
-48.832161
 20
9.879538
 30
0.0
 10
-48.312298
 20
8.994321
 30
0.0
 10
-47.842559
 20
8.075529
 30
0.0
 10
-47.424496
 20
7.124140
 30
0.0
 10
-47.061210
 20
6.142298
 30
0.0
 10
-46.753735
 20
5.130981
 30
0.0
 10
-46.505172
 20
4.091777
 30
0.0
 10
-46.317585
 20
3.026724
 30
0.0
 10
-46.192530
 20
1.936878
 30
0.0
 10
-46.132586
 20
0.824279
 30
0.0
 10
-46.139820
 20
-0.289855
 30
0.0
 10
-46.213199
 20
-1.384383
 30
0.0
 10
-46.350658
 20
-2.457163
 30
0.0
 10
-46.549614
 20
-3.506712
 30
0.0
 10
-46.809030
 20
-4.531470
 30
0.0
 10
-47.125805
 20
-5.529849
 30
0.0
 10
-47.497876
 20
-6.499811
 30
0.0
 10
-47.924207
 20
-7.439823
 30
0.0
 10
-48.401698
 20
-8.348799
 30
0.0
 10
-48.928279
 20
-9.224728
 30
0.0
 10
-49.502404
 20
-10.065495
 30
0.0
 10
-50.121489
 20
-10.870622
 30
0.0
 10
-50.783979
 20
-11.637490
 30
0.0
 10
-51.487298
 20
-12.364592
 30
0.0
 10
-52.229369
 20
-13.050841
 30
0.0
 10
-53.008133
 20
-13.693700
 30
0.0
 10
-53.821520
 20
-14.292637
 30
0.0
 10
-54.667981
 20
-14.845060
 30
0.0
 10
-55.544413
 20
-15.349938
 30
0.0
 10
-56.449786
 20
-15.805710
 30
0.0
 10
-57.380994
 20
-16.210337
 30
0.0
 10
-58.337008
 20
-16.561730
 30
0.0
 10
-59.314726
 20
-16.859386
 30
0.0
 10
-60.312080
 20
-17.101242
 30
0.0
 10
-61.328041
 20
-17.285207
 30
0.0
 10
-62.359500
 20
-17.409746
 30
0.0
 10
-63.404914
 20
-17.473828
 30
0.0
 10
-64.461700
 20
-17.475892
 30
0.0
 10
-65.528301
 20
-17.413371
 30
0.0
 10
-66.602136
 20
-17.284704
 30
0.0
 10
-67.681139
 20
-17.089362
 30
0.0
 10
-68.763761
 20
-16.824779
 30
0.0
 10
-68.891920
 20
-16.852666
 30
0.0
 10
-68.927059
 20
-16.979295
 30
0.0
 10
-68.831457
 20
-17.069201
 30
0.0
 10
-67.734368
 20
-17.337409
 30
0.0
 10
-66.639861
 20
-17.535317
 30
0.0
 10
-65.551555
 20
-17.665545
 30
0.0
 10
-64.469968
 20
-17.728595
 30
0.0
 10
-63.398715
 20
-17.726532
 30
0.0
 10
-62.338831
 20
-17.661418
 30
0.0
 10
-61.292899
 20
-17.534815
 30
0.0
 10
-60.262471
 20
-17.347728
 30
0.0
 10
-59.250646
 20
-17.102274
 30
0.0
 10
-58.258977
 20
-16.800490
 30
0.0
 10
-57.290044
 20
-16.443408
 30
0.0
 10
-56.345397
 20
-16.033092
 30
0.0
 10
-55.427107
 20
-15.571104
 30
0.0
 10
-54.538274
 20
-15.058976
 30
0.0
 10
-53.679929
 20
-14.498297
 30
0.0
 10
-52.854138
 20
-13.891105
 30
0.0
 10
-52.064005
 20
-13.238431
 30
0.0
 10
-51.311080
 20
-12.542339
 30
0.0
 10
-50.597946
 20
-11.804919
 30
0.0
 10
-49.926153
 20
-11.027202
 30
0.0
 10
-49.297767
 20
-10.211227
 30
0.0
 10
-48.715372
 20
-9.358052
 30
0.0
 10
-48.180522
 20
-8.469713
 30
0.0
 10
-47.696313
 20
-7.548328
 30
0.0
 10
-47.264299
 20
-6.594902
 30
0.0
 10
-46.886027
 20
-5.611499
 30
0.0
 10
-46.564600
 20
-4.599150
 30
0.0
 10
-46.301567
 20
-3.560475
 30
0.0
 10
-46.099513
 20
-2.496454
 30
0.0
 10
-45.959985
 20
-1.409175
 30
0.0
 10
-45.885571
 20
-0.299671
 30
0.0
 10
-45.878337
 20
0.829968
 30
0.0
 10
-45.922779
 20
1.748257
 30
0.0
 10
-46.010629
 20
2.651042
 30
0.0
 10
-46.141370
 20
3.538322
 30
0.0
 10
-46.313968
 20
4.408034
 30
0.0
 10
-46.526360
 20
5.260706
 30
0.0
 10
-46.778024
 20
6.094250
 30
0.0
 10
-47.067928
 20
6.908664
 30
0.0
 10
-47.394524
 20
7.702943
 30
0.0
 10
-47.756776
 20
8.476003
 30
0.0
 10
-48.153132
 20
9.227393
 30
0.0
 10
-48.583080
 20
9.956029
 30
0.0
 10
-49.045069
 20
10.660879
 30
0.0
 10
-50.060511
 20
11.996734
 30
0.0
 10
-51.189641
 20
13.228184
 30
0.0
 10
-52.423158
 20
14.348509
 30
0.0
 10
-53.752274
 20
15.351571
 30
0.0
 10
-55.167175
 20
16.230067
 30
0.0
 10
-56.658039
 20
16.977806
 30
0.0
 10
-58.215567
 20
17.587591
 30
0.0
 10
-59.830457
 20
18.053205
 30
0.0
 10
-60.656245
 20
18.229417
 30
0.0
 10
-61.492887
 20
18.367398
 30
0.0
 10
-62.339347
 20
18.465584
 30
0.0
 10
-63.194076
 20
18.523978
 30
0.0
  0
LWPOLYLINE
  5
102
100
AcDbEntity
  8
Merge
 62
7
100
AcDbPolyline
 90
132
 70
1
 10
63.193041
 20
18.523978
 30
0.0
 10
62.338315
 20
18.465584
 30
0.0
 10
61.491855
 20
18.367398
 30
0.0
 10
60.655213
 20
18.229417
 30
0.0
 10
59.829422
 20
18.053205
 30
0.0
 10
58.214535
 20
17.587591
 30
0.0
 10
56.657007
 20
16.977806
 30
0.0
 10
55.166141
 20
16.230067
 30
0.0
 10
53.751758
 20
15.351571
 30
0.0
 10
52.422639
 20
14.348509
 30
0.0
 10
51.188607
 20
13.228184
 30
0.0
 10
50.059476
 20
11.996734
 30
0.0
 10
49.044550
 20
10.660879
 30
0.0
 10
48.582564
 20
9.956029
 30
0.0
 10
48.152616
 20
9.227393
 30
0.0
 10
47.756257
 20
8.476003
 30
0.0
 10
47.394006
 20
7.702943
 30
0.0
 10
47.067412
 20
6.908664
 30
0.0
 10
46.777508
 20
6.094250
 30
0.0
 10
46.525841
 20
5.260706
 30
0.0
 10
46.312937
 20
4.408034
 30
0.0
 10
46.140852
 20
3.538322
 30
0.0
 10
46.010110
 20
2.651042
 30
0.0
 10
45.922261
 20
1.748257
 30
0.0
 10
45.877819
 20
0.829968
 30
0.0
 10
45.885055
 20
-0.299671
 30
0.0
 10
45.959469
 20
-1.409175
 30
0.0
 10
46.098994
 20
-2.496454
 30
0.0
 10
46.301049
 20
-3.560475
 30
0.0
 10
46.564082
 20
-4.599150
 30
0.0
 10
46.885511
 20
-5.611499
 30
0.0
 10
47.263783
 20
-6.594902
 30
0.0
 10
47.695797
 20
-7.548328
 30
0.0
 10
48.180006
 20
-8.469713
 30
0.0
 10
48.714856
 20
-9.358052
 30
0.0
 10
49.297249
 20
-10.211227
 30
0.0
 10
49.925634
 20
-11.027202
 30
0.0
 10
50.597430
 20
-11.804919
 30
0.0
 10
51.310564
 20
-12.542339
 30
0.0
 10
52.063489
 20
-13.238431
 30
0.0
 10
52.853622
 20
-13.891105
 30
0.0
 10
53.679410
 20
-14.498297
 30
0.0
 10
54.537756
 20
-15.058976
 30
0.0
 10
55.426591
 20
-15.571104
 30
0.0
 10
56.344881
 20
-16.033092
 30
0.0
 10
57.289525
 20
-16.443408
 30
0.0
 10
58.258459
 20
-16.800490
 30
0.0
 10
59.250130
 20
-17.102274
 30
0.0
 10
60.261955
 20
-17.347728
 30
0.0
 10
61.292383
 20
-17.534815
 30
0.0
 10
62.338315
 20
-17.661418
 30
0.0
 10
63.398196
 20
-17.726532
 30
0.0
 10
64.469449
 20
-17.728595
 30
0.0
 10
65.551037
 20
-17.665545
 30
0.0
 10
66.639342
 20
-17.535317
 30
0.0
 10
67.733849
 20
-17.337409
 30
0.0
 10
68.830941
 20
-17.069201
 30
0.0
 10
68.926543
 20
-16.979295
 30
0.0
 10
68.891401
 20
-16.852666
 30
0.0
 10
68.763245
 20
-16.824779
 30
0.0
 10
67.680623
 20
-17.089362
 30
0.0
 10
66.601620
 20
-17.284704
 30
0.0
 10
65.527783
 20
-17.413371
 30
0.0
 10
64.461181
 20
-17.475892
 30
0.0
 10
63.404398
 20
-17.473828
 30
0.0
 10
62.358984
 20
-17.409746
 30
0.0
 10
61.327522
 20
-17.285207
 30
0.0
 10
60.311564
 20
-17.101242
 30
0.0
 10
59.313691
 20
-16.859386
 30
0.0
 10
58.335974
 20
-16.561730
 30
0.0
 10
57.380476
 20
-16.210337
 30
0.0
 10
56.449267
 20
-15.805710
 30
0.0
 10
55.543897
 20
-15.349938
 30
0.0
 10
54.667465
 20
-14.845060
 30
0.0
 10
53.821005
 20
-14.292637
 30
0.0
 10
53.007617
 20
-13.693700
 30
0.0
 10
52.228337
 20
-13.050841
 30
0.0
 10
51.486263
 20
-12.364592
 30
0.0
 10
50.782948
 20
-11.637490
 30
0.0
 10
50.120455
 20
-10.870622
 30
0.0
 10
49.501372
 20
-10.065495
 30
0.0
 10
48.927247
 20
-9.224728
 30
0.0
 10
48.400663
 20
-8.348799
 30
0.0
 10
47.923172
 20
-7.439823
 30
0.0
 10
47.496841
 20
-6.499811
 30
0.0
 10
47.124773
 20
-5.529849
 30
0.0
 10
46.807996
 20
-4.531470
 30
0.0
 10
46.548580
 20
-3.506712
 30
0.0
 10
46.349626
 20
-2.457163
 30
0.0
 10
46.212167
 20
-1.384383
 30
0.0
 10
46.138785
 20
-0.289855
 30
0.0
 10
46.131551
 20
0.824279
 30
0.0
 10
46.191495
 20
1.936878
 30
0.0
 10
46.316553
 20
3.026724
 30
0.0
 10
46.504138
 20
4.091777
 30
0.0
 10
46.752701
 20
5.130981
 30
0.0
 10
47.060175
 20
6.142298
 30
0.0
 10
47.423462
 20
7.124140
 30
0.0
 10
47.841524
 20
8.075529
 30
0.0
 10
48.311263
 20
8.994321
 30
0.0
 10
48.831127
 20
9.879538
 30
0.0
 10
49.399052
 20
10.729618
 30
0.0
 10
50.011933
 20
11.542497
 30
0.0
 10
50.668743
 20
12.317118
 30
0.0
 10
51.366372
 20
13.051945
 30
0.0
 10
52.103279
 20
13.745444
 30
0.0
 10
52.876876
 20
14.395552
 30
0.0
 10
53.685096
 20
15.001183
 30
0.0
 10
54.526386
 20
15.560856
 30
0.0
 10
55.397651
 20
16.072957
 30
0.0
 10
56.297338
 20
16.535475
 30
0.0
 10
57.222864
 20
16.947855
 30
0.0
 10
58.172159
 20
17.308032
 30
0.0
 10
59.143678
 20
17.613944
 30
0.0
 10
60.134315
 20
17.865113
 30
0.0
 10
61.142520
 20
18.059396
 30
0.0
 10
62.165714
 20
18.195313
 30
0.0
 10
63.201828
 20
18.271274
 30
0.0
 10
64.248792
 20
18.285747
 30
0.0
 10
65.305059
 20
18.237170
 30
0.0
 10
66.367009
 20
18.124510
 30
0.0
 10
67.433611
 20
17.945705
 30
0.0
 10
68.502795
 20
17.699219
 30
0.0
 10
69.571465
 20
17.383994
 30
0.0
 10
69.668615
 20
17.391217
 30
0.0
 10
69.731660
 20
17.465115
 30
0.0
 10
69.724942
 20
17.561768
 30
0.0
 10
69.651047
 20
17.625321
 30
0.0
 10
68.025822
 20
18.078525
 30
0.0
 10
66.402664
 20
18.375653
 30
0.0
 10
64.789328
 20
18.522417
 30
0.0
 10
63.193041
 20
18.523978
 30
0.0
  0
LWPOLYLINE
  5
103
100
AcDbEntity
  8
Merge
 62
7
100
AcDbPolyline
 90
322
 70
1
 10
-64.007979
 20
17.732821
 30
0.0
 10
-64.201765
 20
17.690435
 30
0.0
 10
-64.359380
 20
17.581400
 30
0.0
 10
-64.463766
 20
17.420692
 30
0.0
 10
-64.500456
 20
17.225853
 30
0.0
 10
-64.500456
 20
14.923687
 30
0.0
 10
-64.496320
 20
14.907150
 30
0.0
 10
-65.068379
 20
14.890085
 30
0.0
 10
-66.327218
 20
14.741786
 30
0.0
 10
-66.714275
 20
14.661670
 30
0.0
 10
-66.917364
 20
15.683835
 30
0.0
 10
-66.961803
 20
15.758765
 30
0.0
 10
-67.043969
 20
15.787710
 30
0.0
 10
-67.141638
 20
15.740164
 30
0.0
 10
-67.166961
 20
15.634225
 30
0.0
 10
-66.962838
 20
14.609997
 30
0.0
 10
-67.569519
 20
14.484425
 30
0.0
 10
-68.787015
 20
14.118560
 30
0.0
 10
-69.442272
 20
13.857072
 30
0.0
 10
-69.864470
 20
14.876644
 30
0.0
 10
-69.911494
 20
14.935037
 30
0.0
 10
-69.983842
 20
14.956760
 30
0.0
 10
-70.088744
 20
14.898869
 30
0.0
 10
-70.099081
 20
14.779489
 30
0.0
 10
-69.677918
 20
13.763013
 30
0.0
 10
-69.972989
 20
13.645194
 30
0.0
 10
-71.119690
 20
13.065915
 30
0.0
 10
-71.695881
 20
12.706769
 30
0.0
 10
-72.298946
 20
13.609025
 30
0.0
 10
-72.406433
 20
13.667419
 30
0.0
 10
-72.518572
 20
13.599209
 30
0.0
 10
-72.510303
 20
13.467949
 30
0.0
 10
-71.911890
 20
12.572388
 30
0.0
 10
-72.219881
 20
12.380670
 30
0.0
 10
-73.265295
 20
11.591577
 30
0.0
 10
-73.343844
 20
11.486167
 30
0.0
 10
-73.357796
 20
11.355410
 30
0.0
 10
-73.303535
 20
11.235527
 30
0.0
 10
-73.196048
 20
11.160095
 30
0.0
 10
-73.064791
 20
11.149220
 30
0.0
 10
-72.946450
 20
11.206582
 30
0.0
 10
-72.142884
 20
11.824649
 30
0.0
 10
-71.305208
 20
12.378104
 30
0.0
 10
-70.436528
 20
12.866445
 30
0.0
 10
-69.541491
 20
13.289673
 30
0.0
 10
-68.622685
 20
13.646755
 30
0.0
 10
-67.684240
 20
13.937690
 30
0.0
 10
-66.729777
 20
14.161978
 30
0.0
 10
-65.762910
 20
14.318558
 30
0.0
 10
-64.787777
 20
14.407934
 30
0.0
 10
-64.033818
 20
14.423968
 30
0.0
 10
-64.000227
 20
14.414655
 30
0.0
 10
-63.960954
 20
14.425529
 30
0.0
 10
-63.807475
 20
14.428625
 30
0.0
 10
-62.826138
 20
14.381079
 30
0.0
 10
-61.847389
 20
14.264292
 30
0.0
 10
-60.874836
 20
14.077734
 30
0.0
 10
-59.912104
 20
13.820903
 30
0.0
 10
-58.962809
 20
13.493799
 30
0.0
 10
-58.784524
 20
13.417837
 30
0.0
 10
-58.646549
 20
13.311898
 30
0.0
 10
-58.488419
 20
13.291208
 30
0.0
 10
-58.030565
 20
13.095892
 30
0.0
 10
-57.129331
 20
12.631839
 30
0.0
 10
-56.272017
 20
12.109367
 30
0.0
 10
-55.460696
 20
11.531120
 30
0.0
 10
-54.696402
 20
10.900671
 30
0.0
 10
-53.982234
 20
10.221644
 30
0.0
 10
-53.319744
 20
9.496104
 30
0.0
 10
-52.710477
 20
8.727674
 30
0.0
 10
-52.157540
 20
7.919981
 30
0.0
 10
-51.661962
 20
7.075060
 30
0.0
 10
-51.225815
 20
6.197067
 30
0.0
 10
-50.851160
 20
5.288620
 30
0.0
 10
-50.540584
 20
4.353265
 30
0.0
 10
-50.295122
 20
3.393621
 30
0.0
 10
-50.117872
 20
2.413340
 30
0.0
 10
-50.009867
 20
1.414935
 30
0.0
 10
-49.973177
 20
0.402083
 30
0.0
 10
-50.009867
 20
-0.610768
 30
0.0
 10
-50.117872
 20
-1.609173
 30
0.0
 10
-50.295122
 20
-2.589455
 30
0.0
 10
-50.540584
 20
-3.549098
 30
0.0
 10
-50.851160
 20
-4.484453
 30
0.0
 10
-51.225815
 20
-5.392900
 30
0.0
 10
-51.661962
 20
-6.270894
 30
0.0
 10
-52.157540
 20
-7.115814
 30
0.0
 10
-52.710477
 20
-7.923507
 30
0.0
 10
-53.319744
 20
-8.691937
 30
0.0
 10
-53.982234
 20
-9.417477
 30
0.0
 10
-54.696402
 20
-10.096504
 30
0.0
 10
-55.460696
 20
-10.726953
 30
0.0
 10
-56.272017
 20
-11.305200
 30
0.0
 10
-57.129331
 20
-11.827673
 30
0.0
 10
-58.030565
 20
-12.291725
 30
0.0
 10
-58.962809
 20
-12.689632
 30
0.0
 10
-59.912104
 20
-13.016737
 30
0.0
 10
-60.874836
 20
-13.273568
 30
0.0
 10
-61.847389
 20
-13.460125
 30
0.0
 10
-62.826138
 20
-13.576912
 30
0.0
 10
-63.807475
 20
-13.624458
 30
0.0
 10
-63.961986
 20
-13.621362
 30
0.0
 10
-64.007979
 20
-13.612578
 30
0.0
 10
-64.040020
 20
-13.619801
 30
0.0
 10
-64.787777
 20
-13.603768
 30
0.0
 10
-65.762910
 20
-13.514894
 30
0.0
 10
-66.729777
 20
-13.357811
 30
0.0
 10
-67.684240
 20
-13.134053
 30
0.0
 10
-68.622685
 20
-12.843091
 30
0.0
 10
-69.541491
 20
-12.486009
 30
0.0
 10
-70.436528
 20
-12.062781
 30
0.0
 10
-71.305208
 20
-11.574440
 30
0.0
 10
-72.142884
 20
-11.020985
 30
0.0
 10
-72.946450
 20
-10.402944
 30
0.0
 10
-73.064791
 20
-10.345583
 30
0.0
 10
-73.196048
 20
-10.356431
 30
0.0
 10
-73.303535
 20
-10.431890
 30
0.0
 10
-73.357796
 20
-10.551772
 30
0.0
 10
-73.343844
 20
-10.682503
 30
0.0
 10
-73.265295
 20
-10.787940
 30
0.0
 10
-72.433304
 20
-11.427676
 30
0.0
 10
-71.913956
 20
-11.770814
 30
0.0
 10
-72.510303
 20
-12.663280
 30
0.0
 10
-72.518572
 20
-12.789883
 30
0.0
 10
-72.412635
 20
-12.860685
 30
0.0
 10
-72.298946
 20
-12.804356
 30
0.0
 10
-71.702083
 20
-11.910858
 30
0.0
 10
-71.565659
 20
-12.000790
 30
0.0
 10
-70.666488
 20
-12.506699
 30
0.0
 10
-69.738896
 20
-12.944902
 30
0.0
 10
-69.682050
 20
-12.967127
 30
0.0
 10
-70.484587
 20
-14.904486
 30
0.0
 10
-70.468051
 20
-15.030560
 30
0.0
 10
-70.350227
 20
-15.079137
 30
0.0
 10
-70.249460
 20
-15.001641
 30
0.0
 10
-69.445373
 20
-13.059123
 30
0.0
 10
-68.787534
 20
-13.314393
 30
0.0
 10
-67.815500
 20
-13.615674
 30
0.0
 10
-66.964904
 20
-13.815143
 30
0.0
 10
-67.166961
 20
-14.829027
 30
0.0
 10
-67.126136
 20
-14.949439
 30
0.0
 10
-67.001078
 20
-14.974230
 30
0.0
 10
-66.917364
 20
-14.878636
 30
0.0
 10
-66.715825
 20
-13.865785
 30
0.0
 10
-65.825439
 20
-14.010485
 30
0.0
 10
-64.815683
 20
-14.102454
 30
0.0
 10
-64.498389
 20
-14.109175
 30
0.0
 10
-64.500456
 20
-14.119520
 30
0.0
 10
-64.500456
 20
-16.421686
 30
0.0
 10
-64.436376
 20
-16.675421
 30
0.0
 10
-64.252925
 20
-16.861979
 30
0.0
 10
-64.000227
 20
-16.930718
 30
0.0
 10
-63.748047
 20
-16.861979
 30
0.0
 10
-63.564595
 20
-16.675421
 30
0.0
 10
-63.500516
 20
-16.421686
 30
0.0
 10
-63.500516
 20
-14.119520
 30
0.0
 10
-63.502585
 20
-14.109704
 30
0.0
 10
-62.784281
 20
-14.075070
 30
0.0
 10
-61.770390
 20
-13.954155
 30
0.0
 10
-61.285665
 20
-13.861128
 30
0.0
 10
-61.083092
 20
-14.878636
 30
0.0
 10
-60.999894
 20
-14.976294
 30
0.0
 10
-60.873804
 20
-14.951502
 30
0.0
 10
-60.834013
 20
-14.829027
 30
0.0
 10
-61.036068
 20
-13.813080
 30
0.0
 10
-60.762700
 20
-13.760877
 30
0.0
 10
-59.765861
 20
-13.495262
 30
0.0
 10
-58.782977
 20
-13.156781
 30
0.0
 10
-58.555083
 20
-13.059626
 30
0.0
 10
-57.750996
 20
-15.001641
 30
0.0
 10
-57.650227
 20
-15.082233
 30
0.0
 10
-57.530854
 20
-15.032624
 30
0.0
 10
-57.516387
 20
-14.904486
 30
0.0
 10
-58.321504
 20
-12.959904
 30
0.0
 10
-57.817660
 20
-12.744401
 30
0.0
 10
-56.884901
 20
-12.263812
 30
0.0
 10
-56.334030
 20
-11.928426
 30
0.0
 10
-55.701509
 20
-12.875132
 30
0.0
 10
-55.587821
 20
-12.931461
 30
0.0
 10
-55.481884
 20
-12.860685
 30
0.0
 10
-55.490152
 20
-12.734056
 30
0.0
 10
-56.116987
 20
-11.795632
 30
0.0
 10
-55.997099
 20
-11.722765
 30
0.0
 10
-55.156322
 20
-11.123828
 30
0.0
 10
-54.365157
 20
-10.471154
 30
0.0
 10
-54.250952
 20
-10.362622
 30
0.0
 10
-54.230281
 20
-10.399849
 30
0.0
 10
-52.601958
 20
-12.027645
 30
0.0
 10
-52.433493
 20
-12.129959
 30
0.0
 10
-52.236087
 20
-12.132552
 30
0.0
 10
-52.064523
 20
-12.034894
 30
0.0
 10
-51.966855
 20
-11.863312
 30
0.0
 10
-51.969437
 20
-11.665906
 30
0.0
 10
-52.071757
 20
-11.497446
 30
0.0
 10
-53.699563
 20
-9.869650
 30
0.0
 10
-53.719201
 20
-9.856209
 30
0.0
 10
-53.625668
 20
-9.767309
 30
0.0
 10
-52.939405
 20
-9.015946
 30
0.0
 10
-52.308435
 20
-8.220132
 30
0.0
 10
-52.194230
 20
-8.053735
 30
0.0
 10
-51.364825
 20
-8.608223
 30
0.0
 10
-51.236666
 20
-8.618568
 30
0.0
 10
-51.165353
 20
-8.512100
 30
0.0
 10
-51.223230
 20
-8.397376
 30
0.0
 10
-52.051088
 20
-7.844450
 30
0.0
 10
-51.735344
 20
-7.383493
 30
0.0
 10
-51.222196
 20
-6.508595
 30
0.0
 10
-50.770544
 20
-5.599090
 30
0.0
 10
-50.632050
 20
-5.263201
 30
0.0
 10
-48.657494
 20
-6.081240
 30
0.0
 10
-48.529338
 20
-6.066767
 30
0.0
 10
-48.479729
 20
-5.947387
 30
0.0
 10
-48.560344
 20
-5.846634
 30
0.0
 10
-50.534901
 20
-5.028595
 30
0.0
 10
-50.382456
 20
-4.658602
 30
0.0
 10
-50.060511
 20
-3.689645
 30
0.0
 10
-49.806778
 20
-2.695923
 30
0.0
 10
-49.780941
 20
-2.554847
 30
0.0
 10
-48.732427
 20
-2.763603
 30
0.0
 10
-48.603236
 20
-2.728467
 30
0.0
 10
-48.577397
 20
-2.597207
 30
0.0
 10
-48.683333
 20
-2.515556
 30
0.0
 10
-49.735983
 20
-2.305768
 30
0.0
 10
-49.622811
 20
-1.680479
 30
0.0
 10
-49.510672
 20
-0.646937
 30
0.0
 10
-49.490519
 20
-0.086258
 30
0.0
 10
-49.443494
 20
-0.098138
 30
0.0
 10
-47.176449
 20
-0.098138
 30
0.0
 10
-46.922716
 20
-0.034056
 30
0.0
 10
-46.736164
 20
0.149380
 30
0.0
 10
-46.667436
 20
0.402083
 30
0.0
 10
-46.736164
 20
0.654258
 30
0.0
 10
-46.922716
 20
0.837720
 30
0.0
 10
-47.176449
 20
0.901802
 30
0.0
 10
-49.443494
 20
0.901802
 30
0.0
 10
-49.490519
 20
0.889922
 30
0.0
 10
-49.510672
 20
1.451103
 30
0.0
 10
-49.622811
 20
2.484645
 30
0.0
 10
-49.735983
 20
3.110438
 30
0.0
 10
-48.683333
 20
3.319220
 30
0.0
 10
-48.605302
 20
3.368830
 30
0.0
 10
-48.581014
 20
3.457703
 30
0.0
 10
-48.623905
 20
3.539883
 30
0.0
 10
-48.711239
 20
3.570892
 30
0.0
 10
-48.711239
 20
3.571924
 30
0.0
 10
-48.732427
 20
3.569331
 30
0.0
 10
-49.781457
 20
3.360548
 30
0.0
 10
-49.806778
 20
3.500090
 30
0.0
 10
-50.060511
 20
4.493812
 30
0.0
 10
-50.382456
 20
5.462769
 30
0.0
 10
-50.535417
 20
5.833794
 30
0.0
 10
-48.560344
 20
6.651833
 30
0.0
 10
-48.495230
 20
6.709697
 30
0.0
 10
-48.482829
 20
6.796004
 30
0.0
 10
-48.529338
 20
6.869902
 30
0.0
 10
-48.612020
 20
6.896784
 30
0.0
 10
-48.657494
 20
6.886439
 30
0.0
 10
-50.632569
 20
6.068400
 30
0.0
 10
-50.770544
 20
6.403257
 30
0.0
 10
-51.222196
 20
7.312762
 30
0.0
 10
-51.735344
 20
8.187130
 30
0.0
 10
-52.051604
 20
8.649119
 30
0.0
 10
-51.223230
 20
9.202575
 30
0.0
 10
-51.172586
 20
9.266154
 30
0.0
 10
-51.171036
 20
9.347275
 30
0.0
 10
-51.219095
 20
9.412892
 30
0.0
 10
-51.296610
 20
9.436149
 30
0.0
 10
-51.364825
 20
9.413924
 30
0.0
 10
-52.195264
 20
8.858934
 30
0.0
 10
-52.308435
 20
9.024299
 30
0.0
 10
-52.939405
 20
9.820112
 30
0.0
 10
-53.625668
 20
10.571476
 30
0.0
 10
-53.907304
 20
10.839684
 30
0.0
 10
-53.875265
 20
10.849500
 30
0.0
 10
-52.246940
 20
12.477323
 30
0.0
 10
-52.210766
 20
12.543469
 30
0.0
 10
-52.218519
 20
12.617869
 30
0.0
 10
-52.267093
 20
12.675231
 30
0.0
 10
-52.339441
 20
12.695392
 30
0.0
 10
-52.426775
 20
12.656631
 30
0.0
 10
-54.054581
 20
11.028835
 30
0.0
 10
-54.066466
 20
10.990576
 30
0.0
 10
-54.365157
 20
11.274818
 30
0.0
 10
-55.156322
 20
11.927466
 30
0.0
 10
-55.997099
 20
12.526403
 30
0.0
 10
-56.117506
 20
12.599798
 30
0.0
 10
-55.490152
 20
13.538752
 30
0.0
 10
-55.482919
 20
13.671546
 30
0.0
 10
-55.598158
 20
13.738221
 30
0.0
 10
-55.701509
 20
13.680330
 30
0.0
 10
-56.335062
 20
12.732090
 30
0.0
 10
-56.884901
 20
13.067449
 30
0.0
 10
-57.817660
 20
13.548039
 30
0.0
 10
-58.093094
 20
13.668450
 30
0.0
 10
-57.286943
 20
15.614593
 30
0.0
 10
-57.258003
 20
15.798055
 30
0.0
 10
-57.320532
 20
15.972204
 30
0.0
 10
-57.459025
 20
16.095711
 30
0.0
 10
-57.639892
 20
16.137569
 30
0.0
 10
-57.845566
 20
16.070894
 30
0.0
 10
-57.979924
 20
15.901401
 30
0.0
 10
-58.785559
 20
13.956291
 30
0.0
 10
-59.272350
 20
14.138721
 30
0.0
 10
-60.013908
 20
14.372295
 30
0.0
 10
-60.762700
 20
14.564515
 30
0.0
 10
-61.035552
 20
14.619310
 30
0.0
 10
-60.834013
 20
15.634225
 30
0.0
 10
-60.860368
 20
15.741725
 30
0.0
 10
-60.960619
 20
15.787710
 30
0.0
 10
-61.040201
 20
15.757733
 30
0.0
 10
-61.083092
 20
15.683835
 30
0.0
 10
-61.284631
 20
14.669422
 30
0.0
 10
-61.517691
 20
14.716465
 30
0.0
 10
-62.276302
 20
14.827564
 30
0.0
 10
-63.038014
 20
14.897837
 30
0.0
 10
-63.502585
 20
14.916437
 30
0.0
 10
-63.500516
 20
14.923687
 30
0.0
 10
-63.500516
 20
17.225853
 30
0.0
 10
-63.537206
 20
17.421195
 30
0.0
 10
-63.647278
 20
17.586559
 30
0.0
 10
-63.812642
 20
17.696123
 30
0.0
 10
-64.007979
 20
17.732821
 30
0.0
  0
LWPOLYLINE
  5
104
100
AcDbEntity
  8
Merge
 62
7
100
AcDbPolyline
 90
317
 70
1
 10
63.991961
 20
17.732821
 30
0.0
 10
63.798172
 20
17.690435
 30
0.0
 10
63.640560
 20
17.581400
 30
0.0
 10
63.536174
 20
17.420692
 30
0.0
 10
63.499484
 20
17.225853
 30
0.0
 10
63.499484
 20
14.923687
 30
0.0
 10
63.501550
 20
14.916437
 30
0.0
 10
63.037495
 20
14.897837
 30
0.0
 10
62.275786
 20
14.827564
 30
0.0
 10
61.517175
 20
14.716465
 30
0.0
 10
61.284115
 20
14.669422
 30
0.0
 10
61.082576
 20
15.683835
 30
0.0
 10
61.038134
 20
15.758765
 30
0.0
 10
60.955970
 20
15.787710
 30
0.0
 10
60.858299
 20
15.740164
 30
0.0
 10
60.833497
 20
15.634225
 30
0.0
 10
61.035033
 20
14.619310
 30
0.0
 10
60.762182
 20
14.564515
 30
0.0
 10
60.013392
 20
14.372295
 30
0.0
 10
59.271834
 20
14.138721
 30
0.0
 10
58.552498
 20
13.869481
 30
0.0
 10
57.750480
 20
15.806310
 30
0.0
 10
57.703455
 20
15.864704
 30
0.0
 10
57.631108
 20
15.886400
 30
0.0
 10
57.526206
 20
15.828535
 30
0.0
 10
57.515868
 20
15.709155
 30
0.0
 10
58.319437
 20
13.768198
 30
0.0
 10
57.817142
 20
13.548039
 30
0.0
 10
56.884382
 20
13.067449
 30
0.0
 10
56.334546
 20
12.732090
 30
0.0
 10
55.700993
 20
13.680330
 30
0.0
 10
55.593507
 20
13.738221
 30
0.0
 10
55.481368
 20
13.670011
 30
0.0
 10
55.489636
 20
13.538752
 30
0.0
 10
56.116987
 20
12.599798
 30
0.0
 10
55.996581
 20
12.526403
 30
0.0
 10
55.155806
 20
11.927466
 30
0.0
 10
54.364641
 20
11.274818
 30
0.0
 10
54.250952
 20
11.166789
 30
0.0
 10
54.229249
 20
11.204015
 30
0.0
 10
52.601439
 20
12.831811
 30
0.0
 10
52.478451
 20
12.916055
 30
0.0
 10
52.332723
 20
12.945503
 30
0.0
 10
52.123433
 20
12.881421
 30
0.0
 10
51.985458
 20
12.711400
 30
0.0
 10
51.965820
 20
12.493330
 30
0.0
 10
52.071241
 20
12.301613
 30
0.0
 10
53.699048
 20
10.673288
 30
0.0
 10
53.719719
 20
10.661408
 30
0.0
 10
53.625149
 20
10.571476
 30
0.0
 10
52.938886
 20
9.820112
 30
0.0
 10
52.307919
 20
9.024299
 30
0.0
 10
52.194746
 20
8.858934
 30
0.0
 10
51.363790
 20
9.413924
 30
0.0
 10
51.292477
 20
9.436149
 30
0.0
 10
51.215996
 20
9.411358
 30
0.0
 10
51.170004
 20
9.345714
 30
0.0
 10
51.172586
 20
9.265096
 30
0.0
 10
51.222714
 20
9.202575
 30
0.0
 10
52.051088
 20
8.649119
 30
0.0
 10
51.734826
 20
8.187130
 30
0.0
 10
51.221680
 20
7.312762
 30
0.0
 10
50.770028
 20
6.403257
 30
0.0
 10
50.632050
 20
6.068400
 30
0.0
 10
48.656978
 20
6.886439
 30
0.0
 10
48.607369
 20
6.896784
 30
0.0
 10
48.526237
 20
6.867839
 30
0.0
 10
48.482311
 20
6.793940
 30
0.0
 10
48.495230
 20
6.708665
 30
0.0
 10
48.559826
 20
6.651833
 30
0.0
 10
50.534901
 20
5.833265
 30
0.0
 10
50.381937
 20
5.462769
 30
0.0
 10
50.059992
 20
4.493812
 30
0.0
 10
49.806262
 20
3.500090
 30
0.0
 10
49.780941
 20
3.360046
 30
0.0
 10
48.731908
 20
3.568828
 30
0.0
 10
48.707104
 20
3.571924
 30
0.0
 10
48.619772
 20
3.540386
 30
0.0
 10
48.577397
 20
3.457201
 30
0.0
 10
48.602717
 20
3.367798
 30
0.0
 10
48.682299
 20
3.319723
 30
0.0
 10
49.735465
 20
3.110438
 30
0.0
 10
49.622295
 20
2.484645
 30
0.0
 10
49.510156
 20
1.451103
 30
0.0
 10
49.490003
 20
0.889922
 30
0.0
 10
49.442460
 20
0.901802
 30
0.0
 10
47.175931
 20
0.901802
 30
0.0
 10
46.922201
 20
0.837720
 30
0.0
 10
46.735648
 20
0.654258
 30
0.0
 10
46.666920
 20
0.402083
 30
0.0
 10
46.735648
 20
0.149380
 30
0.0
 10
46.922201
 20
-0.034056
 30
0.0
 10
47.175931
 20
-0.098138
 30
0.0
 10
49.442460
 20
-0.098138
 30
0.0
 10
49.490003
 20
-0.086258
 30
0.0
 10
49.510156
 20
-0.646937
 30
0.0
 10
49.622295
 20
-1.680479
 30
0.0
 10
49.735465
 20
-2.304736
 30
0.0
 10
48.682299
 20
-2.514525
 30
0.0
 10
48.585149
 20
-2.598239
 30
0.0
 10
48.609954
 20
-2.723836
 30
0.0
 10
48.731908
 20
-2.763603
 30
0.0
 10
49.780423
 20
-2.554847
 30
0.0
 10
49.806262
 20
-2.695923
 30
0.0
 10
50.059992
 20
-3.689645
 30
0.0
 10
50.381937
 20
-4.658602
 30
0.0
 10
50.534382
 20
-5.028595
 30
0.0
 10
48.559826
 20
-5.846634
 30
0.0
 10
48.479213
 20
-5.947387
 30
0.0
 10
48.528822
 20
-6.066767
 30
0.0
 10
48.656978
 20
-6.081240
 30
0.0
 10
50.631535
 20
-5.263201
 30
0.0
 10
50.770028
 20
-5.599090
 30
0.0
 10
51.221680
 20
-6.508595
 30
0.0
 10
51.734826
 20
-7.383493
 30
0.0
 10
52.050569
 20
-7.844450
 30
0.0
 10
51.222714
 20
-8.397376
 30
0.0
 10
51.161217
 20
-8.512629
 30
0.0
 10
51.233565
 20
-8.621134
 30
0.0
 10
51.363790
 20
-8.608223
 30
0.0
 10
52.193714
 20
-8.053735
 30
0.0
 10
52.307919
 20
-8.220132
 30
0.0
 10
52.938886
 20
-9.015946
 30
0.0
 10
53.625149
 20
-9.767309
 30
0.0
 10
53.718685
 20
-9.856209
 30
0.0
 10
53.699048
 20
-9.869650
 30
0.0
 10
52.071241
 20
-11.497446
 30
0.0
 10
51.968921
 20
-11.665906
 30
0.0
 10
51.966336
 20
-11.863312
 30
0.0
 10
52.064005
 20
-12.034894
 30
0.0
 10
52.235571
 20
-12.132552
 30
0.0
 10
52.432977
 20
-12.129959
 30
0.0
 10
52.601439
 20
-12.027645
 30
0.0
 10
54.229249
 20
-10.399849
 30
0.0
 10
54.249918
 20
-10.362119
 30
0.0
 10
54.364641
 20
-10.471154
 30
0.0
 10
55.155806
 20
-11.123828
 30
0.0
 10
55.996581
 20
-11.722765
 30
0.0
 10
56.116471
 20
-11.795632
 30
0.0
 10
55.489636
 20
-12.734056
 30
0.0
 10
55.481368
 20
-12.860685
 30
0.0
 10
55.587305
 20
-12.931461
 30
0.0
 10
55.700993
 20
-12.875132
 30
0.0
 10
56.333512
 20
-11.928426
 30
0.0
 10
56.884382
 20
-12.263812
 30
0.0
 10
57.817142
 20
-12.744401
 30
0.0
 10
58.320988
 20
-12.959904
 30
0.0
 10
57.515868
 20
-14.904486
 30
0.0
 10
57.530339
 20
-15.032624
 30
0.0
 10
57.649711
 20
-15.082233
 30
0.0
 10
57.750480
 20
-15.001641
 30
0.0
 10
58.554564
 20
-13.059626
 30
0.0
 10
58.782458
 20
-13.156781
 30
0.0
 10
59.765345
 20
-13.495262
 30
0.0
 10
60.762182
 20
-13.760877
 30
0.0
 10
61.035552
 20
-13.813080
 30
0.0
 10
60.833497
 20
-14.829027
 30
0.0
 10
60.873288
 20
-14.951502
 30
0.0
 10
60.999378
 20
-14.976294
 30
0.0
 10
61.082576
 20
-14.878636
 30
0.0
 10
61.285149
 20
-13.861128
 30
0.0
 10
61.769874
 20
-13.954155
 30
0.0
 10
62.783765
 20
-14.075070
 30
0.0
 10
63.501550
 20
-14.109704
 30
0.0
 10
63.499484
 20
-14.119520
 30
0.0
 10
63.499484
 20
-16.421686
 30
0.0
 10
63.566662
 20
-16.671797
 30
0.0
 10
63.749597
 20
-16.854756
 30
0.0
 10
63.999711
 20
-16.921934
 30
0.0
 10
64.249824
 20
-16.854756
 30
0.0
 10
64.432759
 20
-16.671797
 30
0.0
 10
64.499940
 20
-16.421686
 30
0.0
 10
64.499940
 20
-14.119520
 30
0.0
 10
64.497871
 20
-14.109175
 30
0.0
 10
64.815164
 20
-14.102454
 30
0.0
 10
65.824923
 20
-14.010485
 30
0.0
 10
66.715307
 20
-13.865785
 30
0.0
 10
66.916845
 20
-14.878636
 30
0.0
 10
67.000046
 20
-14.976294
 30
0.0
 10
67.126136
 20
-14.951502
 30
0.0
 10
67.165926
 20
-14.829027
 30
0.0
 10
66.964388
 20
-13.815143
 30
0.0
 10
67.814981
 20
-13.615674
 30
0.0
 10
68.787015
 20
-13.314393
 30
0.0
 10
69.444857
 20
-13.059123
 30
0.0
 10
70.248941
 20
-15.001641
 30
0.0
 10
70.349711
 20
-15.082233
 30
0.0
 10
70.469083
 20
-15.032624
 30
0.0
 10
70.483553
 20
-14.904486
 30
0.0
 10
69.681534
 20
-12.967127
 30
0.0
 10
69.738378
 20
-12.944902
 30
0.0
 10
70.665970
 20
-12.506699
 30
0.0
 10
71.565140
 20
-12.000790
 30
0.0
 10
71.701567
 20
-11.910858
 30
0.0
 10
72.298430
 20
-12.804356
 30
0.0
 10
72.412117
 20
-12.860685
 30
0.0
 10
72.518053
 20
-12.789883
 30
0.0
 10
72.509785
 20
-12.663280
 30
0.0
 10
71.913440
 20
-11.770814
 30
0.0
 10
72.432788
 20
-11.427676
 30
0.0
 10
73.264779
 20
-10.787940
 30
0.0
 10
73.343326
 20
-10.682503
 30
0.0
 10
73.357280
 20
-10.551772
 30
0.0
 10
73.303019
 20
-10.431890
 30
0.0
 10
73.195532
 20
-10.356431
 30
0.0
 10
73.064275
 20
-10.345583
 30
0.0
 10
72.945935
 20
-10.402944
 30
0.0
 10
72.142366
 20
-11.020985
 30
0.0
 10
71.304692
 20
-11.574440
 30
0.0
 10
70.436010
 20
-12.062781
 30
0.0
 10
69.540459
 20
-12.486009
 30
0.0
 10
68.621651
 20
-12.843091
 30
0.0
 10
67.683208
 20
-13.134053
 30
0.0
 10
66.728742
 20
-13.357811
 30
0.0
 10
65.762394
 20
-13.514894
 30
0.0
 10
64.786743
 20
-13.603768
 30
0.0
 10
64.030717
 20
-13.619801
 30
0.0
 10
63.991961
 20
-13.612578
 30
0.0
 10
63.951652
 20
-13.621362
 30
0.0
 10
63.806959
 20
-13.624458
 30
0.0
 10
62.825622
 20
-13.576912
 30
0.0
 10
61.846354
 20
-13.460125
 30
0.0
 10
60.873804
 20
-13.273568
 30
0.0
 10
59.911073
 20
-13.016737
 30
0.0
 10
58.961777
 20
-12.689632
 30
0.0
 10
58.029533
 20
-12.291725
 30
0.0
 10
57.128296
 20
-11.827673
 30
0.0
 10
56.270983
 20
-11.305200
 30
0.0
 10
55.459664
 20
-10.726953
 30
0.0
 10
54.695370
 20
-10.096504
 30
0.0
 10
53.981202
 20
-9.417477
 30
0.0
 10
53.318709
 20
-8.691937
 30
0.0
 10
52.709961
 20
-7.923507
 30
0.0
 10
52.156506
 20
-7.115814
 30
0.0
 10
51.660930
 20
-6.270894
 30
0.0
 10
51.224781
 20
-5.392900
 30
0.0
 10
50.850644
 20
-4.484453
 30
0.0
 10
50.540068
 20
-3.549098
 30
0.0
 10
50.294604
 20
-2.589455
 30
0.0
 10
50.117354
 20
-1.609173
 30
0.0
 10
50.009351
 20
-0.610768
 30
0.0
 10
49.972661
 20
0.402083
 30
0.0
 10
50.009351
 20
1.414935
 30
0.0
 10
50.117354
 20
2.413340
 30
0.0
 10
50.294604
 20
3.393621
 30
0.0
 10
50.540068
 20
4.353265
 30
0.0
 10
50.850644
 20
5.288620
 30
0.0
 10
51.224781
 20
6.197067
 30
0.0
 10
51.660930
 20
7.075060
 30
0.0
 10
52.156506
 20
7.919981
 30
0.0
 10
52.709961
 20
8.727674
 30
0.0
 10
53.318709
 20
9.496104
 30
0.0
 10
53.981202
 20
10.221644
 30
0.0
 10
54.695370
 20
10.900671
 30
0.0
 10
55.459664
 20
11.531120
 30
0.0
 10
56.270983
 20
12.109367
 30
0.0
 10
57.128296
 20
12.631839
 30
0.0
 10
58.029533
 20
13.095892
 30
0.0
 10
58.961777
 20
13.493799
 30
0.0
 10
59.911073
 20
13.820903
 30
0.0
 10
60.873804
 20
14.077734
 30
0.0
 10
61.846354
 20
14.264292
 30
0.0
 10
62.825622
 20
14.381079
 30
0.0
 10
63.806959
 20
14.428625
 30
0.0
 10
63.995059
 20
14.424471
 30
0.0
 10
63.999711
 20
14.423439
 30
0.0
 10
64.003327
 20
14.424471
 30
0.0
 10
64.786743
 20
14.407934
 30
0.0
 10
65.762394
 20
14.318558
 30
0.0
 10
66.728742
 20
14.161978
 30
0.0
 10
67.683208
 20
13.937690
 30
0.0
 10
68.621651
 20
13.646755
 30
0.0
 10
69.540459
 20
13.289673
 30
0.0
 10
70.436010
 20
12.866445
 30
0.0
 10
71.304692
 20
12.378104
 30
0.0
 10
72.142366
 20
11.824649
 30
0.0
 10
72.945935
 20
11.206582
 30
0.0
 10
73.064275
 20
11.149220
 30
0.0
 10
73.195532
 20
11.160095
 30
0.0
 10
73.303019
 20
11.235527
 30
0.0
 10
73.357280
 20
11.355410
 30
0.0
 10
73.343326
 20
11.486167
 30
0.0
 10
73.264779
 20
11.591577
 30
0.0
 10
72.219365
 20
12.380670
 30
0.0
 10
71.910855
 20
12.572917
 30
0.0
 10
72.509785
 20
13.468478
 30
0.0
 10
72.517021
 20
13.601273
 30
0.0
 10
72.401782
 20
13.667419
 30
0.0
 10
72.298430
 20
13.609554
 30
0.0
 10
71.695366
 20
12.707272
 30
0.0
 10
71.119174
 20
13.065915
 30
0.0
 10
69.972473
 20
13.645194
 30
0.0
 10
69.677402
 20
13.763013
 30
0.0
 10
70.098563
 20
14.779489
 30
0.0
 10
70.087194
 20
14.900933
 30
0.0
 10
69.979191
 20
14.956760
 30
0.0
 10
69.909428
 20
14.934005
 30
0.0
 10
69.863951
 20
14.876644
 30
0.0
 10
69.441756
 20
13.857072
 30
0.0
 10
68.786499
 20
14.118560
 30
0.0
 10
67.569003
 20
14.484425
 30
0.0
 10
66.962322
 20
14.609997
 30
0.0
 10
67.165926
 20
15.634225
 30
0.0
 10
67.139571
 20
15.741725
 30
0.0
 10
67.039318
 20
15.787710
 30
0.0
 10
66.959737
 20
15.757733
 30
0.0
 10
66.916845
 20
15.683835
 30
0.0
 10
66.713756
 20
14.661670
 30
0.0
 10
66.326700
 20
14.741786
 30
0.0
 10
65.067863
 20
14.890085
 30
0.0
 10
64.495804
 20
14.907150
 30
0.0
 10
64.499940
 20
14.923687
 30
0.0
 10
64.499940
 20
17.225853
 30
0.0
 10
64.463247
 20
17.421195
 30
0.0
 10
64.353178
 20
17.586559
 30
0.0
 10
64.187298
 20
17.696626
 30
0.0
 10
63.991961
 20
17.732821
 30
0.0
  0
LWPOLYLINE
  5
105
100
AcDbEntity
  8
Merge
 62
7
100
AcDbPolyline
 90
4
 70
1
 10
28.964641
 20
5.978495
 30
0.0
 10
36.131646
 20
5.978495
 30
0.0
 10
32.615579
 20
0.644971
 30
0.0
 10
28.964641
 20
5.978495
 30
0.0
  0
LWPOLYLINE
  5
106
100
AcDbEntity
  8
Merge
 62
7
100
AcDbPolyline
 90
16
 70
1
 10
40.493654
 20
5.978495
 30
0.0
 10
43.739967
 20
5.978495
 30
0.0
 10
43.700176
 20
5.843107
 30
0.0
 10
43.452645
 20
4.799220
 30
0.0
 10
43.256790
 20
3.732632
 30
0.0
 10
43.115198
 20
2.643289
 30
0.0
 10
43.028899
 20
1.532754
 30
0.0
 10
42.999959
 20
0.402083
 30
0.0
 10
43.043367
 20
-0.945651
 30
0.0
 10
43.171525
 20
-2.277855
 30
0.0
 10
43.382883
 20
-3.591485
 30
0.0
 10
43.675371
 20
-4.882863
 30
0.0
 10
43.848486
 20
-5.471984
 30
0.0
 10
36.802923
 20
-5.471984
 30
0.0
 10
34.290413
 20
-1.801393
 30
0.0
 10
40.493654
 20
5.978495
 30
0.0
  0
LWPOLYLINE
  5
107
100
AcDbEntity
  8
Merge
 62
7
100
AcDbPolyline
 90
16
 70
1
 10
-43.739967
 20
5.976934
 30
0.0
 10
-40.493135
 20
5.976934
 30
0.0
 10
-34.290413
 20
-1.802425
 30
0.0
 10
-36.803438
 20
-5.473519
 30
0.0
 10
-43.849520
 20
-5.473519
 30
0.0
 10
-43.675887
 20
-4.882863
 30
0.0
 10
-43.383398
 20
-3.591485
 30
0.0
 10
-43.172041
 20
-2.277855
 30
0.0
 10
-43.043885
 20
-0.945651
 30
0.0
 10
-43.000475
 20
0.402083
 30
0.0
 10
-43.029415
 20
1.532754
 30
0.0
 10
-43.115714
 20
2.643289
 30
0.0
 10
-43.257309
 20
3.732632
 30
0.0
 10
-43.453161
 20
4.799220
 30
0.0
 10
-43.700692
 20
5.843107
 30
0.0
 10
-43.739967
 20
5.976934
 30
0.0
  0
LWPOLYLINE
  5
108
100
AcDbEntity
  8
Merge
 62
7
100
AcDbPolyline
 90
4
 70
1
 10
-36.131127
 20
5.976934
 30
0.0
 10
-28.965157
 20
5.976934
 30
0.0
 10
-32.615579
 20
0.644442
 30
0.0
 10
-36.131127
 20
5.976934
 30
0.0
  0
LWPOLYLINE
  5
109
100
AcDbEntity
  8
Merge
 62
7
100
AcDbPolyline
 90
6
 70
1
 10
-28.056168
 20
5.976934
 30
0.0
 10
-14.512292
 20
5.976934
 30
0.0
 10
-18.393193
 20
-5.473519
 30
0.0
 10
-28.582752
 20
-5.473519
 30
0.0
 10
-32.169613
 20
-0.031992
 30
0.0
 10
-28.056168
 20
5.976934
 30
0.0
  0
LWPOLYLINE
  5
10a
100
AcDbEntity
  8
Merge
 62
7
100
AcDbPolyline
 90
7
 70
1
 10
-13.720610
 20
5.976934
 30
0.0
 10
-0.000517
 20
5.976934
 30
0.0
 10
13.719576
 20
5.976934
 30
0.0
 10
17.600993
 20
-5.473519
 30
0.0
 10
-0.000517
 20
-5.473519
 30
0.0
 10
-17.601510
 20
-5.473519
 30
0.0
 10
-13.720610
 20
5.976934
 30
0.0
  0
LWPOLYLINE
  5
10b
100
AcDbEntity
  8
Merge
 62
7
100
AcDbPolyline
 90
6
 70
1
 10
14.511776
 20
5.976934
 30
0.0
 10
28.055652
 20
5.976934
 30
0.0
 10
32.169095
 20
-0.031992
 30
0.0
 10
28.582234
 20
-5.473519
 30
0.0
 10
18.392676
 20
-5.473519
 30
0.0
 10
14.511776
 20
5.976934
 30
0.0
  0
LWPOLYLINE
  5
10c
100
AcDbEntity
  8
Merge
 62
7
100
AcDbPolyline
 90
4
 70
1
 10
-33.801037
 20
-2.415835
 30
0.0
 10
-31.363460
 20
-5.473519
 30
0.0
 10
-35.894449
 20
-5.473519
 30
0.0
 10
-33.801037
 20
-2.415835
 30
0.0
  0
LWPOLYLINE
  5
10d
100
AcDbEntity
  8
Merge
 62
7
100
AcDbPolyline
 90
4
 70
1
 10
33.800521
 20
-2.415835
 30
0.0
 10
35.893933
 20
-5.473519
 30
0.0
 10
31.362944
 20
-5.473519
 30
0.0
 10
33.800521
 20
-2.415835
 30
0.0
  0
LWPOLYLINE
  5
10e
100
AcDbEntity
  8
Merge
 62
7
100
AcDbPolyline
 90
14
 70
1
 10
-36.407598
 20
-6.223348
 30
0.0
 10
-30.765565
 20
-6.223348
 30
0.0
 10
-26.695527
 20
-11.327425
 30
0.0
 10
-26.640750
 20
-11.458685
 30
0.0
 10
-26.516727
 20
-11.616826
 30
0.0
 10
-26.390637
 20
-11.709827
 30
0.0
 10
-26.300204
 20
-11.823519
 30
0.0
 10
-26.018050
 20
-11.823519
 30
0.0
 10
-25.975159
 20
-11.828175
 30
0.0
 10
-20.547066
 20
-11.828175
 30
0.0
 10
-23.943758
 20
-21.848237
 30
0.0
 10
-40.894146
 20
-21.848237
 30
0.0
 10
-47.103586
 20
-21.848237
 30
0.0
 10
-36.407598
 20
-6.223348
 30
0.0
  0
LWPOLYLINE
  5
10f
100
AcDbEntity
  8
Merge
 62
7
100
AcDbPolyline
 90
5
 70
1
 10
-28.088209
 20
-6.223348
 30
0.0
 10
-18.647441
 20
-6.223348
 30
0.0
 10
-20.039087
 20
-10.328517
 30
0.0
 10
-25.381913
 20
-10.328517
 30
0.0
 10
-28.088209
 20
-6.223348
 30
0.0
  0
LWPOLYLINE
  5
110
100
AcDbEntity
  8
Merge
 62
7
100
AcDbPolyline
 90
8
 70
1
 10
-17.855758
 20
-6.223348
 30
0.0
 10
-0.000517
 20
-6.223348
 30
0.0
 10
17.855241
 20
-6.223348
 30
0.0
 10
19.246887
 20
-10.328517
 30
0.0
 10
0.000000
 20
-10.328517
 30
0.0
 10
-0.000517
 20
-10.328517
 30
0.0
 10
-19.247404
 20
-10.328517
 30
0.0
 10
-17.855758
 20
-6.223348
 30
0.0
  0
LWPOLYLINE
  5
111
100
AcDbEntity
  8
Merge
 62
7
100
AcDbPolyline
 90
5
 70
1
 10
18.646924
 20
-6.223348
 30
0.0
 10
28.087690
 20
-6.223348
 30
0.0
 10
25.381397
 20
-10.328517
 30
0.0
 10
20.038570
 20
-10.328517
 30
0.0
 10
18.646924
 20
-6.223348
 30
0.0
  0
LWPOLYLINE
  5
112
100
AcDbEntity
  8
Merge
 62
7
100
AcDbPolyline
 90
14
 70
1
 10
30.765046
 20
-6.223348
 30
0.0
 10
36.407079
 20
-6.223348
 30
0.0
 10
47.103067
 20
-21.848237
 30
0.0
 10
40.893627
 20
-21.848237
 30
0.0
 10
23.943241
 20
-21.848237
 30
0.0
 10
20.546549
 20
-11.828175
 30
0.0
 10
25.974642
 20
-11.828175
 30
0.0
 10
26.017533
 20
-11.823519
 30
0.0
 10
26.299687
 20
-11.823519
 30
0.0
 10
26.390121
 20
-11.709827
 30
0.0
 10
26.516211
 20
-11.616826
 30
0.0
 10
26.640234
 20
-11.458685
 30
0.0
 10
26.695011
 20
-11.327425
 30
0.0
 10
30.765046
 20
-6.223348
 30
0.0
  0
LWPOLYLINE
  5
113
100
AcDbEntity
  8
Merge
 62
7
100
AcDbPolyline
 90
8
 70
1
 10
-19.755383
 20
-11.828175
 30
0.0
 10
-0.000517
 20
-11.828175
 30
0.0
 10
0.000000
 20
-11.828175
 30
0.0
 10
19.754866
 20
-11.828175
 30
0.0
 10
23.151558
 20
-21.848237
 30
0.0
 10
-0.000517
 20
-21.848237
 30
0.0
 10
-23.152075
 20
-21.848237
 30
0.0
 10
-19.755383
 20
-11.828175
 30
0.0
  0
LWPOLYLINE
  5
114
100
AcDbEntity
  8
Merge
 62
7
100
AcDbPolyline
 90
57
 70
1
 10
0.074414
 20
-14.294171
 30
0.0
 10
0.074414
 20
-14.295732
 30
0.0
 10
-0.037207
 20
-14.324149
 30
0.0
 10
-0.124023
 20
-14.399608
 30
0.0
 10
-0.903304
 20
-15.178885
 30
0.0
 10
-0.973067
 20
-15.262070
 30
0.0
 10
-0.975134
 20
-15.266224
 30
0.0
 10
-0.978235
 20
-15.271886
 30
0.0
 10
-0.985986
 20
-15.289455
 30
0.0
 10
-0.987020
 20
-15.292047
 30
0.0
 10
-1.002006
 20
-15.416084
 30
0.0
 10
-1.002006
 20
-15.758693
 30
0.0
 10
-1.002006
 20
-15.838782
 30
0.0
 10
-1.002006
 20
-17.047505
 30
0.0
 10
-0.968416
 20
-17.172547
 30
0.0
 10
-0.876949
 20
-17.264014
 30
0.0
 10
-0.751892
 20
-17.297616
 30
0.0
 10
-0.626835
 20
-17.264014
 30
0.0
 10
-0.535368
 20
-17.172547
 30
0.0
 10
-0.501778
 20
-17.047505
 30
0.0
 10
-0.501778
 20
-16.047565
 30
0.0
 10
0.664042
 20
-16.047565
 30
0.0
 10
0.664042
 20
-17.047505
 30
0.0
 10
0.668693
 20
-17.097114
 30
0.0
 10
0.692981
 20
-17.167388
 30
0.0
 10
0.705900
 20
-17.189084
 30
0.0
 10
0.720886
 20
-17.209245
 30
0.0
 10
0.737423
 20
-17.227845
 30
0.0
 10
0.776180
 20
-17.259383
 30
0.0
 10
0.797884
 20
-17.271766
 30
0.0
 10
0.843876
 20
-17.290895
 30
0.0
 10
0.892969
 20
-17.299150
 30
0.0
 10
0.917773
 20
-17.299150
 30
0.0
 10
0.967383
 20
-17.293488
 30
0.0
 10
0.991671
 20
-17.286768
 30
0.0
 10
1.014925
 20
-17.277984
 30
0.0
 10
1.037146
 20
-17.266606
 30
0.0
 10
1.077970
 20
-17.238190
 30
0.0
 10
1.096057
 20
-17.221125
 30
0.0
 10
1.112594
 20
-17.202022
 30
0.0
 10
1.148767
 20
-17.136908
 30
0.0
 10
1.156002
 20
-17.113122
 30
0.0
 10
1.163753
 20
-17.063512
 30
0.0
 10
1.164270
 20
-17.046473
 30
0.0
 10
1.164270
 20
-15.838280
 30
0.0
 10
1.164270
 20
-15.755597
 30
0.0
 10
1.164270
 20
-15.416587
 30
0.0
 10
1.146183
 20
-15.284295
 30
0.0
 10
1.145666
 20
-15.281702
 30
0.0
 10
1.144116
 20
-15.278104
 30
0.0
 10
1.143083
 20
-15.275008
 30
0.0
 10
1.066085
 20
-15.176821
 30
0.0
 10
0.286804
 20
-14.397518
 30
0.0
 10
0.206706
 20
-14.325710
 30
0.0
 10
0.103353
 20
-14.294171
 30
0.0
 10
0.080615
 20
-14.294171
 30
0.0
 10
0.074414
 20
-14.294171
 30
0.0
  0
LWPOLYLINE
  5
115
100
AcDbEntity
  8
Merge
 62
7
100
AcDbPolyline
 90
37
 70
1
 10
-2.421558
 20
-14.295203
 30
0.0
 10
-2.421558
 20
-14.295732
 30
0.0
 10
-2.458765
 20
-14.299357
 30
0.0
 10
-3.250964
 20
-14.299357
 30
0.0
 10
-3.380156
 20
-14.329837
 30
0.0
 10
-3.475240
 20
-14.421304
 30
0.0
 10
-3.510380
 20
-14.549468
 30
0.0
 10
-3.475240
 20
-14.677103
 30
0.0
 10
-3.380156
 20
-14.769072
 30
0.0
 10
-3.250964
 20
-14.799049
 30
0.0
 10
-2.668054
 20
-14.799049
 30
0.0
 10
-2.668054
 20
-17.048537
 30
0.0
 10
-2.634465
 20
-17.173579
 30
0.0
 10
-2.542997
 20
-17.265045
 30
0.0
 10
-2.417940
 20
-17.298647
 30
0.0
 10
-2.292883
 20
-17.265045
 30
0.0
 10
-2.201416
 20
-17.173579
 30
0.0
 10
-2.167826
 20
-17.048537
 30
0.0
 10
-2.167826
 20
-14.799049
 30
0.0
 10
-1.584916
 20
-14.799049
 30
0.0
 10
-1.535307
 20
-14.794922
 30
0.0
 10
-1.487248
 20
-14.780978
 30
0.0
 10
-1.464510
 20
-14.770130
 30
0.0
 10
-1.443323
 20
-14.757192
 30
0.0
 10
-1.388029
 20
-14.707080
 30
0.0
 10
-1.349788
 20
-14.642998
 30
0.0
 10
-1.335836
 20
-14.594923
 30
0.0
 10
-1.331185
 20
-14.545314
 30
0.0
 10
-1.337386
 20
-14.495705
 30
0.0
 10
-1.343587
 20
-14.471416
 30
0.0
 10
-1.363741
 20
-14.425960
 30
0.0
 10
-1.377177
 20
-14.404767
 30
0.0
 10
-1.392680
 20
-14.385135
 30
0.0
 10
-1.471228
 20
-14.324678
 30
0.0
 10
-1.584916
 20
-14.299357
 30
0.0
 10
-2.375566
 20
-14.299357
 30
0.0
 10
-2.421558
 20
-14.295203
 30
0.0
  0
LWPOLYLINE
  5
116
100
AcDbEntity
  8
Merge
 62
7
100
AcDbPolyline
 90
43
 70
1
 10
1.743563
 20
-14.295203
 30
0.0
 10
1.743563
 20
-14.295732
 30
0.0
 10
1.573547
 20
-14.366006
 30
0.0
 10
1.565279
 20
-14.374287
 30
0.0
 10
1.505851
 20
-14.472474
 30
0.0
 10
1.497066
 20
-14.587171
 30
0.0
 10
1.497066
 20
-16.176232
 30
0.0
 10
1.497066
 20
-16.253226
 30
0.0
 10
1.497066
 20
-17.048537
 30
0.0
 10
1.530656
 20
-17.173579
 30
0.0
 10
1.622123
 20
-17.265045
 30
0.0
 10
1.747180
 20
-17.298647
 30
0.0
 10
1.872237
 20
-17.265045
 30
0.0
 10
1.963704
 20
-17.173579
 30
0.0
 10
1.997294
 20
-17.048537
 30
0.0
 10
1.997294
 20
-16.465104
 30
0.0
 10
2.476335
 20
-16.465104
 30
0.0
 10
3.236495
 20
-17.225252
 30
0.0
 10
3.413228
 20
-17.298118
 30
0.0
 10
3.589962
 20
-17.224749
 30
0.0
 10
3.663342
 20
-17.048008
 30
0.0
 10
3.589962
 20
-16.871292
 30
0.0
 10
3.140894
 20
-16.422215
 30
0.0
 10
3.200321
 20
-16.365356
 30
0.0
 10
3.564640
 20
-16.001051
 30
0.0
 10
3.644222
 20
-15.897705
 30
0.0
 10
3.646289
 20
-15.893551
 30
0.0
 10
3.647839
 20
-15.889424
 30
0.0
 10
3.648873
 20
-15.886328
 30
0.0
 10
3.663342
 20
-15.761260
 30
0.0
 10
3.663342
 20
-15.001641
 30
0.0
 10
3.653524
 20
-14.891045
 30
0.0
 10
3.649390
 20
-14.879165
 30
0.0
 10
3.643188
 20
-14.863661
 30
0.0
 10
3.564640
 20
-14.762881
 30
0.0
 10
3.198771
 20
-14.397015
 30
0.0
 10
3.095935
 20
-14.317957
 30
0.0
 10
3.088184
 20
-14.314333
 30
0.0
 10
3.087667
 20
-14.314333
 30
0.0
 10
3.087150
 20
-14.314333
 30
0.0
 10
2.958476
 20
-14.298828
 30
0.0
 10
1.789555
 20
-14.298828
 30
0.0
 10
1.743563
 20
-14.295203
 30
0.0
  0
LWPOLYLINE
  5
117
100
AcDbEntity
  8
Merge
 62
7
100
AcDbPolyline
 90
76
 70
1
 10
-5.338692
 20
-14.295732
 30
0.0
 10
-5.407939
 20
-14.308141
 30
0.0
 10
-5.421891
 20
-14.313301
 30
0.0
 10
-5.435327
 20
-14.318460
 30
0.0
 10
-5.535579
 20
-14.395983
 30
0.0
 10
-5.901965
 20
-14.762378
 30
0.0
 10
-5.972245
 20
-14.847124
 30
0.0
 10
-5.980514
 20
-14.864692
 30
0.0
 10
-5.983097
 20
-14.869852
 30
0.0
 10
-5.984648
 20
-14.873979
 30
0.0
 10
-6.000150
 20
-15.001641
 30
0.0
 10
-6.000150
 20
-15.344752
 30
0.0
 10
-5.990332
 20
-15.455348
 30
0.0
 10
-5.985164
 20
-15.469292
 30
0.0
 10
-5.979997
 20
-15.483262
 30
0.0
 10
-5.900932
 20
-15.584544
 30
0.0
 10
-5.534546
 20
-15.951442
 30
0.0
 10
-5.432743
 20
-16.028965
 30
0.0
 10
-5.423958
 20
-16.032563
 30
0.0
 10
-5.296834
 20
-16.048068
 30
0.0
 10
-4.604370
 20
-16.048068
 30
0.0
 10
-4.334102
 20
-16.318340
 30
0.0
 10
-4.334102
 20
-16.527625
 30
0.0
 10
-4.604370
 20
-16.797897
 30
0.0
 10
-5.229655
 20
-16.797897
 30
0.0
 10
-5.573303
 20
-16.454256
 30
0.0
 10
-5.685441
 20
-16.389645
 30
0.0
 10
-5.815149
 20
-16.389645
 30
0.0
 10
-5.927287
 20
-16.454256
 30
0.0
 10
-5.991882
 20
-16.566387
 30
0.0
 10
-5.991882
 20
-16.696085
 30
0.0
 10
-5.927287
 20
-16.808242
 30
0.0
 10
-5.534546
 20
-17.200963
 30
0.0
 10
-5.432743
 20
-17.278486
 30
0.0
 10
-5.423958
 20
-17.282111
 30
0.0
 10
-5.295284
 20
-17.297616
 30
0.0
 10
-4.537191
 20
-17.297616
 30
0.0
 10
-4.426603
 20
-17.287800
 30
0.0
 10
-4.414718
 20
-17.283672
 30
0.0
 10
-4.399215
 20
-17.277454
 30
0.0
 10
-4.298962
 20
-17.199931
 30
0.0
 10
-3.932576
 20
-16.833563
 30
0.0
 10
-3.853512
 20
-16.730217
 30
0.0
 10
-3.851445
 20
-16.726063
 30
0.0
 10
-3.849894
 20
-16.721935
 30
0.0
 10
-3.834391
 20
-16.593268
 30
0.0
 10
-3.834391
 20
-16.251691
 30
0.0
 10
-3.844210
 20
-16.141095
 30
0.0
 10
-3.849377
 20
-16.127152
 30
0.0
 10
-3.854545
 20
-16.113711
 30
0.0
 10
-3.932060
 20
-16.013460
 30
0.0
 10
-4.298446
 20
-15.647065
 30
0.0
 10
-4.383195
 20
-15.576792
 30
0.0
 10
-4.400765
 20
-15.568511
 30
0.0
 10
-4.410067
 20
-15.564383
 30
0.0
 10
-4.539258
 20
-15.548376
 30
0.0
 10
-5.229655
 20
-15.548376
 30
0.0
 10
-5.500439
 20
-15.277575
 30
0.0
 10
-5.500439
 20
-15.068819
 30
0.0
 10
-5.230172
 20
-14.798547
 30
0.0
 10
-4.603853
 20
-14.798547
 30
0.0
 10
-4.260722
 20
-15.141658
 30
0.0
 10
-4.148067
 20
-15.210397
 30
0.0
 10
-4.016809
 20
-15.211958
 30
0.0
 10
-3.902604
 20
-15.146844
 30
0.0
 10
-3.836975
 20
-15.032624
 30
0.0
 10
-3.839042
 20
-14.900861
 30
0.0
 10
-3.907255
 20
-14.788201
 30
0.0
 10
-4.298446
 20
-14.397015
 30
0.0
 10
-4.383195
 20
-14.326742
 30
0.0
 10
-4.400765
 20
-14.318989
 30
0.0
 10
-4.410067
 20
-14.314333
 30
0.0
 10
-4.539258
 20
-14.298828
 30
0.0
 10
-5.297351
 20
-14.298828
 30
0.0
 10
-5.338692
 20
-14.296235
 30
0.0
 10
-5.338692
 20
-14.295732
 30
0.0
  0
LWPOLYLINE
  5
118
100
AcDbEntity
  8
Merge
 62
7
100
AcDbPolyline
 90
36
 70
1
 10
5.075659
 20
-14.295732
 30
0.0
 10
5.038452
 20
-14.299357
 30
0.0
 10
4.246252
 20
-14.299357
 30
0.0
 10
4.117061
 20
-14.329837
 30
0.0
 10
4.021977
 20
-14.421304
 30
0.0
 10
3.986837
 20
-14.549468
 30
0.0
 10
4.021977
 20
-14.677103
 30
0.0
 10
4.117061
 20
-14.769072
 30
0.0
 10
4.246252
 20
-14.799049
 30
0.0
 10
4.829679
 20
-14.799049
 30
0.0
 10
4.829679
 20
-17.048537
 30
0.0
 10
4.860169
 20
-17.177733
 30
0.0
 10
4.951636
 20
-17.272798
 30
0.0
 10
5.079277
 20
-17.307934
 30
0.0
 10
5.207434
 20
-17.272798
 30
0.0
 10
5.298901
 20
-17.177733
 30
0.0
 10
5.329390
 20
-17.048537
 30
0.0
 10
5.329390
 20
-14.799049
 30
0.0
 10
5.912817
 20
-14.799049
 30
0.0
 10
5.937622
 20
-14.799049
 30
0.0
 10
5.986715
 20
-14.789762
 30
0.0
 10
6.054411
 20
-14.758224
 30
0.0
 10
6.093168
 20
-14.726712
 30
0.0
 10
6.137093
 20
-14.666758
 30
0.0
 10
6.156213
 20
-14.620244
 30
0.0
 10
6.164482
 20
-14.521554
 30
0.0
 10
6.153629
 20
-14.472474
 30
0.0
 10
6.087484
 20
-14.368070
 30
0.0
 10
6.068363
 20
-14.352062
 30
0.0
 10
6.025989
 20
-14.325710
 30
0.0
 10
5.979480
 20
-14.308141
 30
0.0
 10
5.929871
 20
-14.300389
 30
0.0
 10
5.912817
 20
-14.300389
 30
0.0
 10
5.121651
 20
-14.300389
 30
0.0
 10
5.075659
 20
-14.296764
 30
0.0
 10
5.075659
 20
-14.295732
 30
0.0
  0
LWPOLYLINE
  5
119
100
AcDbEntity
  8
Merge
 62
7
100
AcDbPolyline
 90
9
 70
1
 10
1.997294
 20
-14.798017
 30
0.0
 10
2.893363
 20
-14.798017
 30
0.0
 10
3.163631
 20
-15.068289
 30
0.0
 10
3.163631
 20
-15.693579
 30
0.0
 10
2.892847
 20
-15.964354
 30
0.0
 10
2.613277
 20
-15.964354
 30
0.0
 10
2.541964
 20
-15.964354
 30
0.0
 10
1.997294
 20
-15.964354
 30
0.0
 10
1.997294
 20
-14.798017
 30
0.0
  0
LWPOLYLINE
  5
11a
100
AcDbEntity
  8
Merge
 62
7
100
AcDbPolyline
 90
6
 70
1
 10
0.081132
 20
-14.901364
 30
0.0
 10
0.664042
 20
-15.484294
 30
0.0
 10
0.664042
 20
-15.547847
 30
0.0
 10
-0.501778
 20
-15.547847
 30
0.0
 10
-0.501778
 20
-15.484294
 30
0.0
 10
0.081132
 20
-14.901364
 30
0.0
  0
LWPOLYLINE
  5
11b
100
AcDbEntity
  8
Merge
 62
7
100
AcDbPolyline
 90
35
 70
1
 10
61.865992
 20
-22.113852
 30
0.0
 10
61.738351
 20
-22.148989
 30
0.0
 10
61.646366
 20
-22.244610
 30
0.0
 10
61.615878
 20
-22.373276
 30
0.0
 10
61.615878
 20
-24.135428
 30
0.0
 10
60.932716
 20
-24.818609
 30
0.0
 10
60.249551
 20
-24.135428
 30
0.0
 10
60.249551
 20
-22.373276
 30
0.0
 10
60.176688
 20
-22.192910
 30
0.0
 10
59.995821
 20
-22.119541
 30
0.0
 10
59.995821
 20
-22.120573
 30
0.0
 10
59.820122
 20
-22.196535
 30
0.0
 10
59.749841
 20
-22.374308
 30
0.0
 10
59.749841
 20
-24.203637
 30
0.0
 10
59.759660
 20
-24.314233
 30
0.0
 10
59.765345
 20
-24.330267
 30
0.0
 10
59.769994
 20
-24.342147
 30
0.0
 10
59.847509
 20
-24.441868
 30
0.0
 10
60.725492
 20
-25.319332
 30
0.0
 10
60.806108
 20
-25.392728
 30
0.0
 10
60.910494
 20
-25.424769
 30
0.0
 10
60.932716
 20
-25.424769
 30
0.0
 10
60.937883
 20
-25.424769
 30
0.0
 10
60.940466
 20
-25.424769
 30
0.0
 10
61.052088
 20
-25.395824
 30
0.0
 10
61.138387
 20
-25.319862
 30
0.0
 10
62.017402
 20
-24.441366
 30
0.0
 10
62.096986
 20
-24.337490
 30
0.0
 10
62.098534
 20
-24.333865
 30
0.0
 10
62.100084
 20
-24.329738
 30
0.0
 10
62.115589
 20
-24.201071
 30
0.0
 10
62.115589
 20
-22.373276
 30
0.0
 10
62.085617
 20
-22.244610
 30
0.0
 10
61.993632
 20
-22.148989
 30
0.0
 10
61.865992
 20
-22.113852
 30
0.0
  0
LWPOLYLINE
  5
11c
100
AcDbEntity
  8
Merge
 62
7
100
AcDbPolyline
 90
44
 70
1
 10
-69.939400
 20
-22.119012
 30
0.0
 10
-69.939400
 20
-22.120573
 30
0.0
 10
-70.032417
 20
-22.141766
 30
0.0
 10
-70.041204
 20
-22.145894
 30
0.0
 10
-70.136287
 20
-22.220824
 30
0.0
 10
-70.554350
 20
-22.638892
 30
0.0
 10
-70.631865
 20
-22.740703
 30
0.0
 10
-70.635482
 20
-22.748429
 30
0.0
 10
-70.650984
 20
-22.877122
 30
0.0
 10
-70.650984
 20
-24.668219
 30
0.0
 10
-70.641165
 20
-24.778815
 30
0.0
 10
-70.637032
 20
-24.790695
 30
0.0
 10
-70.630830
 20
-24.806200
 30
0.0
 10
-70.553315
 20
-24.906450
 30
0.0
 10
-70.138353
 20
-25.320894
 30
0.0
 10
-70.032936
 20
-25.402544
 30
0.0
 10
-70.026218
 20
-25.405137
 30
0.0
 10
-70.023633
 20
-25.405137
 30
0.0
 10
-69.898059
 20
-25.420641
 30
0.0
 10
-69.038163
 20
-25.420641
 30
0.0
 10
-68.927575
 20
-25.410799
 30
0.0
 10
-68.915690
 20
-25.406169
 30
0.0
 10
-68.900188
 20
-25.399951
 30
0.0
 10
-68.799935
 20
-25.322455
 30
0.0
 10
-68.383423
 20
-24.905921
 30
0.0
 10
-68.313144
 20
-24.821175
 30
0.0
 10
-68.304876
 20
-24.803607
 30
0.0
 10
-68.302291
 20
-24.798447
 30
0.0
 10
-68.300740
 20
-24.794320
 30
0.0
 10
-68.285238
 20
-24.666658
 30
0.0
 10
-68.285238
 20
-22.874027
 30
0.0
 10
-68.295057
 20
-22.763431
 30
0.0
 10
-68.300224
 20
-22.749487
 30
0.0
 10
-68.305392
 20
-22.736047
 30
0.0
 10
-68.382907
 20
-22.635796
 30
0.0
 10
-68.799419
 20
-22.219262
 30
0.0
 10
-68.884168
 20
-22.148989
 30
0.0
 10
-68.901739
 20
-22.140734
 30
0.0
 10
-68.910007
 20
-22.137109
 30
0.0
 10
-68.911039
 20
-22.137109
 30
0.0
 10
-68.912589
 20
-22.137109
 30
0.0
 10
-69.036613
 20
-22.121605
 30
0.0
 10
-69.898059
 20
-22.121605
 30
0.0
 10
-69.939400
 20
-22.119012
 30
0.0
  0
LWPOLYLINE
  5
11d
100
AcDbEntity
  8
Merge
 62
7
100
AcDbPolyline
 90
35
 70
1
 10
-73.203800
 20
-22.119541
 30
0.0
 10
-73.203800
 20
-22.120573
 30
0.0
 10
-73.379499
 20
-22.196535
 30
0.0
 10
-73.450297
 20
-22.374308
 30
0.0
 10
-73.450297
 20
-24.203637
 30
0.0
 10
-73.431694
 20
-24.338019
 30
0.0
 10
-73.427558
 20
-24.346804
 30
0.0
 10
-73.352112
 20
-24.441868
 30
0.0
 10
-72.476196
 20
-25.317269
 30
0.0
 10
-72.474130
 20
-25.319862
 30
0.0
 10
-72.393514
 20
-25.392728
 30
0.0
 10
-72.289644
 20
-25.424769
 30
0.0
 10
-72.267424
 20
-25.424769
 30
0.0
 10
-72.262257
 20
-25.424769
 30
0.0
 10
-72.259672
 20
-25.424769
 30
0.0
 10
-72.148052
 20
-25.395824
 30
0.0
 10
-72.061753
 20
-25.319862
 30
0.0
 10
-71.182735
 20
-24.441366
 30
0.0
 10
-71.103154
 20
-24.337490
 30
0.0
 10
-71.101604
 20
-24.333865
 30
0.0
 10
-71.100053
 20
-24.329738
 30
0.0
 10
-71.084033
 20
-24.204696
 30
0.0
 10
-71.084033
 20
-22.373276
 30
0.0
 10
-71.117624
 20
-22.248208
 30
0.0
 10
-71.209091
 20
-22.156239
 30
0.0
 10
-71.334148
 20
-22.123166
 30
0.0
 10
-71.459204
 20
-22.156239
 30
0.0
 10
-71.550670
 20
-22.248208
 30
0.0
 10
-71.584262
 20
-22.373276
 30
0.0
 10
-71.584262
 20
-24.135957
 30
0.0
 10
-72.267424
 20
-24.818609
 30
0.0
 10
-72.950070
 20
-24.135957
 30
0.0
 10
-72.950070
 20
-22.373276
 30
0.0
 10
-73.022934
 20
-22.192407
 30
0.0
 10
-73.203800
 20
-22.119541
 30
0.0
  0
LWPOLYLINE
  5
11e
100
AcDbEntity
  8
Merge
 62
7
100
AcDbPolyline
 90
44
 70
1
 10
63.260221
 20
-22.119541
 30
0.0
 10
63.260221
 20
-22.120573
 30
0.0
 10
63.167720
 20
-22.141766
 30
0.0
 10
63.157902
 20
-22.146423
 30
0.0
 10
63.141365
 20
-22.154678
 30
0.0
 10
63.062818
 20
-22.222385
 30
0.0
 10
62.645787
 20
-22.638892
 30
0.0
 10
62.568275
 20
-22.740703
 30
0.0
 10
62.564656
 20
-22.748429
 30
0.0
 10
62.548638
 20
-22.873498
 30
0.0
 10
62.548638
 20
-24.669780
 30
0.0
 10
62.566725
 20
-24.800511
 30
0.0
 10
62.567757
 20
-24.804136
 30
0.0
 10
62.569826
 20
-24.808263
 30
0.0
 10
62.646822
 20
-24.906450
 30
0.0
 10
63.061784
 20
-25.320894
 30
0.0
 10
63.164104
 20
-25.400983
 30
0.0
 10
63.174954
 20
-25.405640
 30
0.0
 10
63.302078
 20
-25.421673
 30
0.0
 10
64.161974
 20
-25.421673
 30
0.0
 10
64.272562
 20
-25.411857
 30
0.0
 10
64.286516
 20
-25.406169
 30
0.0
 10
64.299952
 20
-25.400983
 30
0.0
 10
64.401237
 20
-25.321423
 30
0.0
 10
64.816199
 20
-24.906953
 30
0.0
 10
64.886996
 20
-24.822207
 30
0.0
 10
64.895264
 20
-24.804639
 30
0.0
 10
64.897847
 20
-24.799479
 30
0.0
 10
64.899397
 20
-24.795352
 30
0.0
 10
64.899916
 20
-24.792759
 30
0.0
 10
64.914902
 20
-24.668749
 30
0.0
 10
64.914902
 20
-22.874027
 30
0.0
 10
64.896296
 20
-22.740174
 30
0.0
 10
64.894746
 20
-22.736047
 30
0.0
 10
64.891647
 20
-22.729829
 30
0.0
 10
64.816715
 20
-22.635267
 30
0.0
 10
64.400721
 20
-22.219792
 30
0.0
 10
64.297367
 20
-22.139702
 30
0.0
 10
64.290649
 20
-22.136580
 30
0.0
 10
64.289099
 20
-22.136580
 30
0.0
 10
64.286516
 20
-22.136580
 30
0.0
 10
64.163525
 20
-22.122134
 30
0.0
 10
63.302078
 20
-22.122134
 30
0.0
 10
63.260221
 20
-22.119541
 30
0.0
  0
LWPOLYLINE
  5
11f
100
AcDbEntity
  8
Merge
 62
7
100
AcDbPolyline
 90
22
 70
1
 10
-67.605693
 20
-22.120573
 30
0.0
 10
-67.781392
 20
-22.196535
 30
0.0
 10
-67.852189
 20
-22.374308
 30
0.0
 10
-67.852189
 20
-25.134336
 30
0.0
 10
-67.842371
 20
-25.252155
 30
0.0
 10
-67.779326
 20
-25.352405
 30
0.0
 10
-67.778291
 20
-25.354998
 30
0.0
 10
-67.774674
 20
-25.358094
 30
0.0
 10
-67.675972
 20
-25.416487
 30
0.0
 10
-67.561251
 20
-25.424240
 30
0.0
 10
-65.736039
 20
-25.424240
 30
0.0
 10
-65.606848
 20
-25.394262
 30
0.0
 10
-65.511765
 20
-25.302293
 30
0.0
 10
-65.476623
 20
-25.174658
 30
0.0
 10
-65.511765
 20
-25.046997
 30
0.0
 10
-65.606848
 20
-24.955028
 30
0.0
 10
-65.736039
 20
-24.924548
 30
0.0
 10
-67.351960
 20
-24.924548
 30
0.0
 10
-67.351960
 20
-22.375340
 30
0.0
 10
-67.425342
 20
-22.194974
 30
0.0
 10
-67.605693
 20
-22.121605
 30
0.0
 10
-67.605693
 20
-22.120573
 30
0.0
  0
LWPOLYLINE
  5
120
100
AcDbEntity
  8
Merge
 62
7
100
AcDbPolyline
 90
22
 70
1
 10
-62.007586
 20
-22.120573
 30
0.0
 10
-62.183285
 20
-22.196535
 30
0.0
 10
-62.254082
 20
-22.374308
 30
0.0
 10
-62.254082
 20
-25.134336
 30
0.0
 10
-62.244264
 20
-25.252155
 30
0.0
 10
-62.181216
 20
-25.352405
 30
0.0
 10
-62.180184
 20
-25.354998
 30
0.0
 10
-62.176567
 20
-25.358094
 30
0.0
 10
-62.077865
 20
-25.416487
 30
0.0
 10
-61.963144
 20
-25.424240
 30
0.0
 10
-60.137932
 20
-25.424240
 30
0.0
 10
-60.008741
 20
-25.394262
 30
0.0
 10
-59.913655
 20
-25.302293
 30
0.0
 10
-59.878516
 20
-25.174658
 30
0.0
 10
-59.913655
 20
-25.046997
 30
0.0
 10
-60.008741
 20
-24.955028
 30
0.0
 10
-60.137932
 20
-24.924548
 30
0.0
 10
-61.753853
 20
-24.924548
 30
0.0
 10
-61.753853
 20
-22.375340
 30
0.0
 10
-61.827233
 20
-22.194974
 30
0.0
 10
-62.007586
 20
-22.121605
 30
0.0
 10
-62.007586
 20
-22.120573
 30
0.0
  0
LWPOLYLINE
  5
121
100
AcDbEntity
  8
Merge
 62
7
100
AcDbPolyline
 90
23
 70
1
 10
65.593928
 20
-22.120573
 30
0.0
 10
65.418229
 20
-22.196535
 30
0.0
 10
65.347951
 20
-22.374308
 30
0.0
 10
65.347951
 20
-25.131240
 30
0.0
 10
65.353634
 20
-25.239772
 30
0.0
 10
65.404278
 20
-25.335366
 30
0.0
 10
65.419780
 20
-25.351903
 30
0.0
 10
65.421846
 20
-25.354496
 30
0.0
 10
65.425463
 20
-25.357591
 30
0.0
 10
65.524682
 20
-25.415985
 30
0.0
 10
65.638886
 20
-25.423737
 30
0.0
 10
67.464099
 20
-25.423737
 30
0.0
 10
67.593289
 20
-25.393231
 30
0.0
 10
67.688375
 20
-25.301764
 30
0.0
 10
67.723515
 20
-25.174129
 30
0.0
 10
67.688375
 20
-25.045965
 30
0.0
 10
67.593289
 20
-24.954499
 30
0.0
 10
67.464099
 20
-24.924019
 30
0.0
 10
65.847661
 20
-24.924019
 30
0.0
 10
65.847661
 20
-22.374811
 30
0.0
 10
65.774279
 20
-22.194471
 30
0.0
 10
65.593928
 20
-22.121102
 30
0.0
 10
65.593928
 20
-22.120573
 30
0.0
  0
LWPOLYLINE
  5
122
100
AcDbEntity
  8
Merge
 62
7
100
AcDbPolyline
 90
46
 70
1
 10
71.192554
 20
-22.120573
 30
0.0
 10
71.034423
 20
-22.180527
 30
0.0
 10
71.019437
 20
-22.194471
 30
0.0
 10
71.015304
 20
-22.198096
 30
0.0
 10
71.012203
 20
-22.201694
 30
0.0
 10
70.953810
 20
-22.300913
 30
0.0
 10
70.946058
 20
-22.415636
 30
0.0
 10
70.946058
 20
-24.198478
 30
0.0
 10
70.946058
 20
-24.281160
 30
0.0
 10
70.946058
 20
-25.173097
 30
0.0
 10
70.979646
 20
-25.298166
 30
0.0
 10
71.071113
 20
-25.390135
 30
0.0
 10
71.196171
 20
-25.423208
 30
0.0
 10
71.321229
 20
-25.390135
 30
0.0
 10
71.412695
 20
-25.298166
 30
0.0
 10
71.446284
 20
-25.173097
 30
0.0
 10
71.446284
 20
-24.490446
 30
0.0
 10
72.025579
 20
-24.490446
 30
0.0
 10
72.885475
 20
-25.350342
 30
0.0
 10
72.998129
 20
-25.418049
 30
0.0
 10
73.129386
 20
-25.420112
 30
0.0
 10
73.243591
 20
-25.354496
 30
0.0
 10
73.308705
 20
-25.240275
 30
0.0
 10
73.307154
 20
-25.109015
 30
0.0
 10
73.238939
 20
-24.996356
 30
0.0
 10
72.707706
 20
-24.465125
 30
0.0
 10
72.798141
 20
-24.391227
 30
0.0
 10
73.213619
 20
-23.975752
 30
0.0
 10
73.293200
 20
-23.871876
 30
0.0
 10
73.294751
 20
-23.868278
 30
0.0
 10
73.296301
 20
-23.864124
 30
0.0
 10
73.312322
 20
-23.739082
 30
0.0
 10
73.312322
 20
-22.875561
 30
0.0
 10
73.293716
 20
-22.743270
 30
0.0
 10
73.292168
 20
-22.739142
 30
0.0
 10
73.290099
 20
-22.735015
 30
0.0
 10
73.214135
 20
-22.638892
 30
0.0
 10
72.797622
 20
-22.222385
 30
0.0
 10
72.693755
 20
-22.142798
 30
0.0
 10
72.687037
 20
-22.140205
 30
0.0
 10
72.686003
 20
-22.140205
 30
0.0
 10
72.684452
 20
-22.140205
 30
0.0
 10
72.560945
 20
-22.124700
 30
0.0
 10
71.238028
 20
-22.124700
 30
0.0
 10
71.192554
 20
-22.121102
 30
0.0
 10
71.192554
 20
-22.120573
 30
0.0
  0
LWPOLYLINE
  5
123
100
AcDbEntity
  8
Merge
 62
7
100
AcDbPolyline
 90
56
 70
1
 10
-58.320472
 20
-22.598066
 30
0.0
 10
-54.975456
 20
-22.598066
 30
0.0
 10
-40.894146
 20
-22.598066
 30
0.0
 10
-0.000517
 20
-22.598066
 30
0.0
 10
40.893627
 20
-22.598066
 30
0.0
 10
54.974940
 20
-22.598066
 30
0.0
 10
58.319956
 20
-22.598066
 30
0.0
 10
56.773278
 20
-24.144212
 30
0.0
 10
56.654422
 20
-24.297697
 30
0.0
 10
56.648223
 20
-24.312170
 30
0.0
 10
56.624450
 20
-24.499759
 30
0.0
 10
56.624450
 20
-35.441735
 30
0.0
 10
56.591893
 20
-35.594162
 30
0.0
 10
56.624450
 20
-35.746615
 30
0.0
 10
56.624450
 20
-43.197334
 30
0.0
 10
56.651321
 20
-43.392147
 30
0.0
 10
56.653390
 20
-43.396804
 30
0.0
 10
56.656491
 20
-43.404027
 30
0.0
 10
56.772246
 20
-43.551294
 30
0.0
 10
57.624906
 20
-44.403966
 30
0.0
 10
57.624906
 20
-53.592549
 30
0.0
 10
57.492098
 20
-53.725370
 30
0.0
 10
34.556547
 20
-53.725370
 30
0.0
 10
34.437690
 20
-53.717617
 30
0.0
 10
33.450670
 20
-52.731118
 30
0.0
 10
33.292542
 20
-52.609675
 30
0.0
 10
33.286856
 20
-52.607082
 30
0.0
 10
33.282723
 20
-52.604489
 30
0.0
 10
33.278072
 20
-52.601922
 30
0.0
 10
33.092038
 20
-52.580200
 30
0.0
 10
0.040824
 20
-52.580200
 30
0.0
 10
-0.001034
 20
-52.582793
 30
0.0
 10
-0.041341
 20
-52.580200
 30
0.0
 10
-33.092554
 20
-52.580200
 30
0.0
 10
-33.281689
 20
-52.603457
 30
0.0
 10
-33.299776
 20
-52.610706
 30
0.0
 10
-33.450154
 20
-52.727996
 30
0.0
 10
-34.437690
 20
-53.715024
 30
0.0
 10
-34.557065
 20
-53.723306
 30
0.0
 10
-57.492614
 20
-53.723306
 30
0.0
 10
-57.625424
 20
-53.590485
 30
0.0
 10
-57.625424
 20
-44.401903
 30
0.0
 10
-56.772762
 20
-43.549230
 30
0.0
 10
-56.657007
 20
-43.400931
 30
0.0
 10
-56.648739
 20
-43.382331
 30
0.0
 10
-56.625485
 20
-43.191646
 30
0.0
 10
-56.625485
 20
-35.746085
 30
0.0
 10
-56.592412
 20
-35.592627
 30
0.0
 10
-56.625485
 20
-35.439142
 30
0.0
 10
-56.625485
 20
-24.501294
 30
0.0
 10
-56.651840
 20
-24.302354
 30
0.0
 10
-56.652872
 20
-24.299761
 30
0.0
 10
-56.655457
 20
-24.293569
 30
0.0
 10
-56.658039
 20
-24.288410
 30
0.0
 10
-56.772246
 20
-24.143709
 30
0.0
 10
-58.320472
 20
-22.598066
 30
0.0
  0
LWPOLYLINE
  5
124
100
AcDbEntity
  8
Merge
 62
7
100
AcDbPolyline
 90
9
 70
1
 10
-69.831397
 20
-22.623387
 30
0.0
 10
-69.104825
 20
-22.623387
 30
0.0
 10
-68.784949
 20
-22.943771
 30
0.0
 10
-68.784949
 20
-24.602074
 30
0.0
 10
-69.105343
 20
-24.922457
 30
0.0
 10
-69.830879
 20
-24.922457
 30
0.0
 10
-70.151273
 20
-24.602603
 30
0.0
 10
-70.151273
 20
-22.943268
 30
0.0
 10
-69.831397
 20
-22.623387
 30
0.0
  0
LWPOLYLINE
  5
125
100
AcDbEntity
  8
Merge
 62
7
100
AcDbPolyline
 90
9
 70
1
 10
63.368743
 20
-22.623387
 30
0.0
 10
64.094797
 20
-22.623387
 30
0.0
 10
64.414673
 20
-22.943268
 30
0.0
 10
64.414673
 20
-24.602603
 30
0.0
 10
64.094278
 20
-24.922457
 30
0.0
 10
63.369259
 20
-24.922457
 30
0.0
 10
63.048864
 20
-24.602603
 30
0.0
 10
63.048864
 20
-22.943268
 30
0.0
 10
63.368743
 20
-22.623387
 30
0.0
  0
LWPOLYLINE
  5
126
100
AcDbEntity
  8
Merge
 62
7
100
AcDbPolyline
 90
9
 70
1
 10
71.446284
 20
-22.623387
 30
0.0
 10
72.492216
 20
-22.623387
 30
0.0
 10
72.812092
 20
-22.943268
 30
0.0
 10
72.812092
 20
-23.669311
 30
0.0
 10
72.492216
 20
-23.989193
 30
0.0
 10
72.158386
 20
-23.989193
 30
0.0
 10
72.094307
 20
-23.989193
 30
0.0
 10
71.446284
 20
-23.989193
 30
0.0
 10
71.446284
 20
-22.623387
 30
0.0
  0
LWPOLYLINE
  5
127
100
AcDbEntity
  8
Merge
 62
7
100
AcDbPolyline
 90
15
 70
1
 10
-64.802763
 20
-23.522547
 30
0.0
 10
-64.927819
 20
-23.556149
 30
0.0
 10
-65.019288
 20
-23.647616
 30
0.0
 10
-65.052877
 20
-23.772658
 30
0.0
 10
-65.019288
 20
-23.897726
 30
0.0
 10
-64.927819
 20
-23.989193
 30
0.0
 10
-64.802763
 20
-24.022795
 30
0.0
 10
-62.936726
 20
-24.022795
 30
0.0
 10
-62.811671
 20
-23.989193
 30
0.0
 10
-62.720201
 20
-23.897726
 30
0.0
 10
-62.686613
 20
-23.772658
 30
0.0
 10
-62.720201
 20
-23.647616
 30
0.0
 10
-62.811671
 20
-23.556149
 30
0.0
 10
-62.936726
 20
-23.522547
 30
0.0
 10
-64.802763
 20
-23.522547
 30
0.0
  0
LWPOLYLINE
  5
128
100
AcDbEntity
  8
Merge
 62
7
100
AcDbPolyline
 90
15
 70
1
 10
68.396858
 20
-23.522547
 30
0.0
 10
68.271803
 20
-23.556149
 30
0.0
 10
68.180334
 20
-23.647616
 30
0.0
 10
68.146745
 20
-23.772658
 30
0.0
 10
68.180334
 20
-23.897726
 30
0.0
 10
68.271803
 20
-23.989193
 30
0.0
 10
68.396858
 20
-24.022795
 30
0.0
 10
70.262896
 20
-24.022795
 30
0.0
 10
70.387951
 20
-23.989193
 30
0.0
 10
70.479420
 20
-23.897726
 30
0.0
 10
70.513009
 20
-23.772658
 30
0.0
 10
70.479420
 20
-23.647616
 30
0.0
 10
70.387951
 20
-23.556149
 30
0.0
 10
70.262896
 20
-23.522547
 30
0.0
 10
68.396858
 20
-23.522547
 30
0.0
  0
LWPOLYLINE
  5
129
100
AcDbEntity
  8
Merge
 62
7
100
AcDbPolyline
 90
6
 70
1
 10
57.374793
 20
-26.448468
 30
0.0
 10
67.408806
 20
-26.448468
 30
0.0
 10
67.408287
 20
-26.451061
 30
0.0
 10
66.039381
 20
-48.183592
 30
0.0
 10
57.374793
 20
-35.525952
 30
0.0
 10
57.374793
 20
-26.448468
 30
0.0
  0
LWPOLYLINE
  5
12a
100
AcDbEntity
  8
Merge
 62
7
100
AcDbPolyline
 90
6
 70
1
 10
68.594780
 20
-26.448468
 30
0.0
 10
70.696976
 20
-26.448468
 30
0.0
 10
69.365791
 20
-53.042718
 30
0.0
 10
67.140087
 20
-49.791756
 30
0.0
 10
68.605633
 20
-26.526494
 30
0.0
 10
68.594780
 20
-26.448468
 30
0.0
  0
LWPOLYLINE
  5
12b
100
AcDbEntity
  8
Merge
 62
7
100
AcDbPolyline
 90
6
 70
1
 10
-70.697492
 20
-26.449500
 30
0.0
 10
-68.595814
 20
-26.449500
 30
0.0
 10
-68.606149
 20
-26.527023
 30
0.0
 10
-67.140606
 20
-49.792259
 30
0.0
 10
-69.366826
 20
-53.044279
 30
0.0
 10
-70.697492
 20
-26.449500
 30
0.0
  0
LWPOLYLINE
  5
12c
100
AcDbEntity
  8
Merge
 62
7
100
AcDbPolyline
 90
6
 70
1
 10
-67.409322
 20
-26.449500
 30
0.0
 10
-57.375309
 20
-26.449500
 30
0.0
 10
-57.375309
 20
-35.526984
 30
0.0
 10
-66.039897
 20
-48.184624
 30
0.0
 10
-67.408806
 20
-26.451564
 30
0.0
 10
-67.409322
 20
-26.449500
 30
0.0
  0
LWPOLYLINE
  5
12d
100
AcDbEntity
  8
Merge
 62
7
100
AcDbPolyline
 90
41
 70
1
 10
57.374793
 20
-36.854028
 30
0.0
 10
65.962898
 20
-49.399538
 30
0.0
 10
65.784098
 20
-52.233993
 30
0.0
 10
50.368502
 20
-59.979749
 30
0.0
 10
45.191556
 20
-77.770412
 30
0.0
 10
45.157967
 20
-77.727523
 30
0.0
 10
44.515111
 20
-77.084665
 30
0.0
 10
43.949773
 20
-76.519832
 30
0.0
 10
43.949773
 20
-73.579967
 30
0.0
 10
45.158483
 20
-72.371774
 30
0.0
 10
45.277339
 20
-72.215696
 30
0.0
 10
45.278889
 20
-72.212098
 30
0.0
 10
45.281474
 20
-72.205880
 30
0.0
 10
45.283541
 20
-72.199689
 30
0.0
 10
45.304729
 20
-72.015195
 30
0.0
 10
45.304729
 20
-66.586580
 30
0.0
 10
45.291293
 20
-66.407801
 30
0.0
 10
45.196207
 20
-66.255851
 30
0.0
 10
45.194657
 20
-66.253285
 30
0.0
 10
45.192074
 20
-66.250692
 30
0.0
 10
45.189489
 20
-66.248099
 30
0.0
 10
45.040661
 20
-66.160786
 30
0.0
 10
44.868579
 20
-66.148880
 30
0.0
 10
38.943875
 20
-66.148880
 30
0.0
 10
34.998898
 20
-54.475701
 30
0.0
 10
57.592868
 20
-54.475701
 30
0.0
 10
57.785103
 20
-54.451413
 30
0.0
 10
57.798539
 20
-54.446253
 30
0.0
 10
57.800089
 20
-54.446253
 30
0.0
 10
57.802674
 20
-54.443660
 30
0.0
 10
57.950468
 20
-54.327905
 30
0.0
 10
58.225386
 20
-54.052474
 30
0.0
 10
58.347859
 20
-53.892798
 30
0.0
 10
58.348893
 20
-53.890205
 30
0.0
 10
58.353029
 20
-53.879357
 30
0.0
 10
58.374732
 20
-53.693329
 30
0.0
 10
58.374732
 20
-44.301652
 30
0.0
 10
58.352510
 20
-44.116126
 30
0.0
 10
58.224870
 20
-43.943539
 30
0.0
 10
57.374793
 20
-43.093459
 30
0.0
 10
57.374793
 20
-36.854028
 30
0.0
  0
LWPOLYLINE
  5
12e
100
AcDbEntity
  8
Merge
 62
7
100
AcDbPolyline
 90
38
 70
1
 10
-57.375309
 20
-36.855086
 30
0.0
 10
-57.375309
 20
-43.094491
 30
0.0
 10
-58.229003
 20
-43.947666
 30
0.0
 10
-58.348377
 20
-44.104749
 30
0.0
 10
-58.349928
 20
-44.108903
 30
0.0
 10
-58.354061
 20
-44.119751
 30
0.0
 10
-58.375248
 20
-44.304245
 30
0.0
 10
-58.375248
 20
-53.694360
 30
0.0
 10
-58.353029
 20
-53.881421
 30
0.0
 10
-58.226420
 20
-54.053506
 30
0.0
 10
-57.949952
 20
-54.329969
 30
0.0
 10
-57.792855
 20
-54.449349
 30
0.0
 10
-57.788720
 20
-54.451942
 30
0.0
 10
-57.777869
 20
-54.456572
 30
0.0
 10
-57.593383
 20
-54.477765
 30
0.0
 10
-34.999414
 20
-54.477765
 30
0.0
 10
-38.944394
 20
-66.150970
 30
0.0
 10
-44.868579
 20
-66.150970
 30
0.0
 10
-45.047379
 20
-66.164385
 30
0.0
 10
-45.199308
 20
-66.259476
 30
0.0
 10
-45.201893
 20
-66.262069
 30
0.0
 10
-45.206026
 20
-66.266196
 30
0.0
 10
-45.293875
 20
-66.415024
 30
0.0
 10
-45.305244
 20
-66.587639
 30
0.0
 10
-45.305244
 20
-72.015724
 30
0.0
 10
-45.290258
 20
-72.182121
 30
0.0
 10
-45.283025
 20
-72.202785
 30
0.0
 10
-45.274757
 20
-72.223449
 30
0.0
 10
-45.157967
 20
-72.373838
 30
0.0
 10
-43.950289
 20
-73.580999
 30
0.0
 10
-43.950289
 20
-76.520864
 30
0.0
 10
-44.515630
 20
-77.085697
 30
0.0
 10
-45.159001
 20
-77.729057
 30
0.0
 10
-45.191556
 20
-77.771946
 30
0.0
 10
-50.369018
 20
-59.979749
 30
0.0
 10
-65.784616
 20
-52.233993
 30
0.0
 10
-65.963416
 20
-49.400570
 30
0.0
 10
-57.375309
 20
-36.855086
 30
0.0
  0
LWPOLYLINE
  5
12f
100
AcDbEntity
  8
Merge
 62
7
100
AcDbPolyline
 90
51
 70
1
 10
-11.356413
 20
-48.019260
 30
0.0
 10
-11.356413
 20
-48.019762
 30
0.0
 10
-11.526428
 20
-48.090036
 30
0.0
 10
-11.534696
 20
-48.098317
 30
0.0
 10
-11.594124
 20
-48.196504
 30
0.0
 10
-11.602909
 20
-48.311227
 30
0.0
 10
-11.602909
 20
-49.483755
 30
0.0
 10
-11.602909
 20
-49.560749
 30
0.0
 10
-11.602909
 20
-50.733302
 30
0.0
 10
-11.593091
 20
-50.851121
 30
0.0
 10
-11.530046
 20
-50.951372
 30
0.0
 10
-11.529012
 20
-50.953965
 30
0.0
 10
-11.525395
 20
-50.957061
 30
0.0
 10
-11.426693
 20
-51.015454
 30
0.0
 10
-11.311971
 20
-51.023206
 30
0.0
 10
-10.139950
 20
-51.023206
 30
0.0
 10
-10.028845
 20
-51.013390
 30
0.0
 10
-10.014892
 20
-51.008205
 30
0.0
 10
-10.001457
 20
-51.003045
 30
0.0
 10
-9.899137
 20
-50.922427
 30
0.0
 10
-9.535852
 20
-50.559154
 30
0.0
 10
-9.455754
 20
-50.455807
 30
0.0
 10
-9.453687
 20
-50.451654
 30
0.0
 10
-9.452136
 20
-50.447526
 30
0.0
 10
-9.451103
 20
-50.444933
 30
0.0
 10
-9.436633
 20
-50.319891
 30
0.0
 10
-9.436633
 20
-49.976753
 30
0.0
 10
-9.446452
 20
-49.866157
 30
0.0
 10
-9.451619
 20
-49.852214
 30
0.0
 10
-9.456787
 20
-49.838270
 30
0.0
 10
-9.534818
 20
-49.738019
 30
0.0
 10
-9.749792
 20
-49.523045
 30
0.0
 10
-9.535852
 20
-49.309103
 30
0.0
 10
-9.455754
 20
-49.205731
 30
0.0
 10
-9.453687
 20
-49.201603
 30
0.0
 10
-9.452136
 20
-49.197476
 30
0.0
 10
-9.451619
 20
-49.194883
 30
0.0
 10
-9.436633
 20
-49.069311
 30
0.0
 10
-9.436633
 20
-48.726173
 30
0.0
 10
-9.446452
 20
-48.615604
 30
0.0
 10
-9.451619
 20
-48.601634
 30
0.0
 10
-9.456787
 20
-48.588220
 30
0.0
 10
-9.534818
 20
-48.487942
 30
0.0
 10
-9.901204
 20
-48.121574
 30
0.0
 10
-10.004041
 20
-48.042516
 30
0.0
 10
-10.011792
 20
-48.038892
 30
0.0
 10
-10.012309
 20
-48.038892
 30
0.0
 10
-10.012826
 20
-48.038892
 30
0.0
 10
-10.137882
 20
-48.022355
 30
0.0
 10
-11.314038
 20
-48.022355
 30
0.0
 10
-11.356413
 20
-48.019260
 30
0.0
  0
LWPOLYLINE
  5
130
100
AcDbEntity
  8
Merge
 62
7
100
AcDbPolyline
 90
40
 70
1
 10
41.653272
 20
-48.019260
 30
0.0
 10
41.653272
 20
-48.019762
 30
0.0
 10
41.619165
 20
-48.022858
 30
0.0
 10
40.823864
 20
-48.022858
 30
0.0
 10
40.698809
 20
-48.056460
 30
0.0
 10
40.607340
 20
-48.147926
 30
0.0
 10
40.573751
 20
-48.272995
 30
0.0
 10
40.607340
 20
-48.398037
 30
0.0
 10
40.698809
 20
-48.489504
 30
0.0
 10
40.823864
 20
-48.523106
 30
0.0
 10
41.406776
 20
-48.523106
 30
0.0
 10
41.406776
 20
-50.772064
 30
0.0
 10
41.440365
 20
-50.897106
 30
0.0
 10
41.531831
 20
-50.988572
 30
0.0
 10
41.656889
 20
-51.022175
 30
0.0
 10
41.781947
 20
-50.988572
 30
0.0
 10
41.873413
 20
-50.897106
 30
0.0
 10
41.907002
 20
-50.772064
 30
0.0
 10
41.907002
 20
-48.523106
 30
0.0
 10
42.489914
 20
-48.523106
 30
0.0
 10
42.539523
 20
-48.518952
 30
0.0
 10
42.610320
 20
-48.494160
 30
0.0
 10
42.632024
 20
-48.481249
 30
0.0
 10
42.670264
 20
-48.449710
 30
0.0
 10
42.701787
 20
-48.410949
 30
0.0
 10
42.714706
 20
-48.389782
 30
0.0
 10
42.725041
 20
-48.367028
 30
0.0
 10
42.733309
 20
-48.343268
 30
0.0
 10
42.739511
 20
-48.318980
 30
0.0
 10
42.742612
 20
-48.293659
 30
0.0
 10
42.731243
 20
-48.194943
 30
0.0
 10
42.722456
 20
-48.171686
 30
0.0
 10
42.665097
 20
-48.090565
 30
0.0
 10
42.645976
 20
-48.074557
 30
0.0
 10
42.603600
 20
-48.048179
 30
0.0
 10
42.580864
 20
-48.038362
 30
0.0
 10
42.556576
 20
-48.030610
 30
0.0
 10
42.489914
 20
-48.022355
 30
0.0
 10
41.695645
 20
-48.022355
 30
0.0
 10
41.653272
 20
-48.019260
 30
0.0
  0
LWPOLYLINE
  5
131
100
AcDbEntity
  8
Merge
 62
7
100
AcDbPolyline
 90
51
 70
1
 10
-47.504077
 20
-48.019762
 30
0.0
 10
-47.674093
 20
-48.090036
 30
0.0
 10
-47.682362
 20
-48.098317
 30
0.0
 10
-47.741790
 20
-48.198039
 30
0.0
 10
-47.750058
 20
-48.314323
 30
0.0
 10
-47.750058
 20
-49.480130
 30
0.0
 10
-47.753159
 20
-49.501323
 30
0.0
 10
-47.753675
 20
-49.526644
 30
0.0
 10
-47.750058
 20
-49.563871
 30
0.0
 10
-47.750058
 20
-50.729678
 30
0.0
 10
-47.742306
 20
-50.845962
 30
0.0
 10
-47.682878
 20
-50.946213
 30
0.0
 10
-47.677194
 20
-50.952404
 30
0.0
 10
-47.675125
 20
-50.954997
 30
0.0
 10
-47.575391
 20
-51.014925
 30
0.0
 10
-47.459119
 20
-51.023206
 30
0.0
 10
-46.287097
 20
-51.023206
 30
0.0
 10
-46.176509
 20
-51.013390
 30
0.0
 10
-46.162558
 20
-51.008205
 30
0.0
 10
-46.149122
 20
-51.003045
 30
0.0
 10
-46.048353
 20
-50.924490
 30
0.0
 10
-45.682482
 20
-50.558625
 30
0.0
 10
-45.603419
 20
-50.455807
 30
0.0
 10
-45.601350
 20
-50.451654
 30
0.0
 10
-45.599800
 20
-50.447526
 30
0.0
 10
-45.584298
 20
-50.320394
 30
0.0
 10
-45.584298
 20
-49.977282
 30
0.0
 10
-45.594117
 20
-49.866686
 30
0.0
 10
-45.599284
 20
-49.852214
 30
0.0
 10
-45.604451
 20
-49.838773
 30
0.0
 10
-45.681966
 20
-49.738522
 30
0.0
 10
-45.896940
 20
-49.523548
 30
0.0
 10
-45.682482
 20
-49.309103
 30
0.0
 10
-45.603419
 20
-49.206260
 30
0.0
 10
-45.601350
 20
-49.202132
 30
0.0
 10
-45.599800
 20
-49.197978
 30
0.0
 10
-45.584298
 20
-49.070872
 30
0.0
 10
-45.584298
 20
-48.727734
 30
0.0
 10
-45.593601
 20
-48.617139
 30
0.0
 10
-45.598768
 20
-48.603195
 30
0.0
 10
-45.603935
 20
-48.589754
 30
0.0
 10
-45.681450
 20
-48.489504
 30
0.0
 10
-46.049385
 20
-48.121574
 30
0.0
 10
-46.151189
 20
-48.044051
 30
0.0
 10
-46.158938
 20
-48.040426
 30
0.0
 10
-46.159457
 20
-48.040426
 30
0.0
 10
-46.160489
 20
-48.040426
 30
0.0
 10
-46.285547
 20
-48.023890
 30
0.0
 10
-47.461702
 20
-48.023890
 30
0.0
 10
-47.504077
 20
-48.020794
 30
0.0
 10
-47.504077
 20
-48.019762
 30
0.0
  0
LWPOLYLINE
  5
132
100
AcDbEntity
  8
Merge
 62
7
100
AcDbPolyline
 90
41
 70
1
 10
-44.171981
 20
-48.019762
 30
0.0
 10
-44.206086
 20
-48.022858
 30
0.0
 10
-45.000870
 20
-48.022858
 30
0.0
 10
-45.125928
 20
-48.056460
 30
0.0
 10
-45.217395
 20
-48.147926
 30
0.0
 10
-45.250984
 20
-48.272995
 30
0.0
 10
-45.217395
 20
-48.398037
 30
0.0
 10
-45.125928
 20
-48.489504
 30
0.0
 10
-45.000870
 20
-48.523106
 30
0.0
 10
-44.417962
 20
-48.523106
 30
0.0
 10
-44.417962
 20
-50.772064
 30
0.0
 10
-44.387471
 20
-50.901234
 30
0.0
 10
-44.296005
 20
-50.996325
 30
0.0
 10
-44.167846
 20
-51.031461
 30
0.0
 10
-44.040205
 20
-50.996325
 30
0.0
 10
-43.948739
 20
-50.901234
 30
0.0
 10
-43.918248
 20
-50.772064
 30
0.0
 10
-43.918248
 20
-48.523106
 30
0.0
 10
-43.334824
 20
-48.523106
 30
0.0
 10
-43.310019
 20
-48.523106
 30
0.0
 10
-43.237155
 20
-48.505537
 30
0.0
 10
-43.193229
 20
-48.482280
 30
0.0
 10
-43.173076
 20
-48.467808
 30
0.0
 10
-43.154473
 20
-48.450742
 30
0.0
 10
-43.110031
 20
-48.390814
 30
0.0
 10
-43.082125
 20
-48.295194
 30
0.0
 10
-43.081607
 20
-48.270402
 30
0.0
 10
-43.087293
 20
-48.220793
 30
0.0
 10
-43.093494
 20
-48.196504
 30
0.0
 10
-43.102795
 20
-48.173247
 30
0.0
 10
-43.113648
 20
-48.151022
 30
0.0
 10
-43.160156
 20
-48.092126
 30
0.0
 10
-43.199431
 20
-48.061619
 30
0.0
 10
-43.221135
 20
-48.049740
 30
0.0
 10
-43.268159
 20
-48.032171
 30
0.0
 10
-43.292448
 20
-48.027012
 30
0.0
 10
-43.317253
 20
-48.024419
 30
0.0
 10
-43.334824
 20
-48.024419
 30
0.0
 10
-44.129090
 20
-48.024419
 30
0.0
 10
-44.171981
 20
-48.021323
 30
0.0
 10
-44.171981
 20
-48.019762
 30
0.0
  0
LWPOLYLINE
  5
133
100
AcDbEntity
  8
Merge
 62
7
100
AcDbPolyline
 90
51
 70
1
 10
-39.176420
 20
-48.019762
 30
0.0
 10
-39.288040
 20
-48.048179
 30
0.0
 10
-39.374858
 20
-48.123638
 30
0.0
 10
-40.154138
 20
-48.902915
 30
0.0
 10
-40.224935
 20
-48.987661
 30
0.0
 10
-40.231653
 20
-49.001631
 30
0.0
 10
-40.236820
 20
-49.013511
 30
0.0
 10
-40.237855
 20
-49.016077
 30
0.0
 10
-40.252840
 20
-49.139585
 30
0.0
 10
-40.252840
 20
-49.482723
 30
0.0
 10
-40.252840
 20
-49.561278
 30
0.0
 10
-40.252840
 20
-50.771032
 30
0.0
 10
-40.219252
 20
-50.896074
 30
0.0
 10
-40.127783
 20
-50.987541
 30
0.0
 10
-40.002727
 20
-51.021143
 30
0.0
 10
-39.877669
 20
-50.987541
 30
0.0
 10
-39.786203
 20
-50.896074
 30
0.0
 10
-39.752611
 20
-50.771032
 30
0.0
 10
-39.752611
 20
-49.771595
 30
0.0
 10
-38.586791
 20
-49.771595
 30
0.0
 10
-38.586791
 20
-50.771032
 30
0.0
 10
-38.585759
 20
-50.796353
 30
0.0
 10
-38.582142
 20
-50.821673
 30
0.0
 10
-38.576456
 20
-50.845962
 30
0.0
 10
-38.557854
 20
-50.891947
 30
0.0
 10
-38.529948
 20
-50.933804
 30
0.0
 10
-38.474655
 20
-50.983916
 30
0.0
 10
-38.430213
 20
-51.007173
 30
0.0
 10
-38.406959
 20
-51.015454
 30
0.0
 10
-38.357866
 20
-51.023709
 30
0.0
 10
-38.307740
 20
-51.023709
 30
0.0
 10
-38.259163
 20
-51.012861
 30
0.0
 10
-38.213170
 20
-50.993229
 30
0.0
 10
-38.154777
 20
-50.947245
 30
0.0
 10
-38.124289
 20
-50.907451
 30
0.0
 10
-38.087080
 20
-50.789632
 30
0.0
 10
-38.086564
 20
-50.772064
 30
0.0
 10
-38.086564
 20
-49.564373
 30
0.0
 10
-38.086564
 20
-49.481691
 30
0.0
 10
-38.086564
 20
-49.142707
 30
0.0
 10
-38.104651
 20
-49.009383
 30
0.0
 10
-38.105167
 20
-49.009383
 30
0.0
 10
-38.106718
 20
-49.005759
 30
0.0
 10
-38.107752
 20
-49.003166
 30
0.0
 10
-38.184749
 20
-48.904476
 30
0.0
 10
-38.964029
 20
-48.125199
 30
0.0
 10
-39.044129
 20
-48.052835
 30
0.0
 10
-39.147480
 20
-48.021826
 30
0.0
 10
-39.170218
 20
-48.021826
 30
0.0
 10
-39.176420
 20
-48.021826
 30
0.0
 10
-39.176420
 20
-48.019762
 30
0.0
  0
LWPOLYLINE
  5
134
100
AcDbEntity
  8
Merge
 62
7
100
AcDbPolyline
 90
46
 70
1
 10
-18.854146
 20
-48.019762
 30
0.0
 10
-19.024162
 20
-48.090036
 30
0.0
 10
-19.032430
 20
-48.098317
 30
0.0
 10
-19.092375
 20
-48.198039
 30
0.0
 10
-19.100126
 20
-48.314323
 30
0.0
 10
-19.100126
 20
-49.480659
 30
0.0
 10
-19.100126
 20
-49.563871
 30
0.0
 10
-19.100126
 20
-50.730207
 30
0.0
 10
-19.092375
 20
-50.845962
 30
0.0
 10
-19.032947
 20
-50.946213
 30
0.0
 10
-19.027262
 20
-50.952404
 30
0.0
 10
-19.025195
 20
-50.954997
 30
0.0
 10
-18.925460
 20
-51.014925
 30
0.0
 10
-18.809188
 20
-51.023206
 30
0.0
 10
-17.637166
 20
-51.023206
 30
0.0
 10
-17.526579
 20
-51.013390
 30
0.0
 10
-17.514693
 20
-51.009236
 30
0.0
 10
-17.499190
 20
-51.003045
 30
0.0
 10
-17.398421
 20
-50.924490
 30
0.0
 10
-17.032552
 20
-50.558625
 30
0.0
 10
-16.953487
 20
-50.455807
 30
0.0
 10
-16.951420
 20
-50.451654
 30
0.0
 10
-16.949870
 20
-50.446997
 30
0.0
 10
-16.934367
 20
-50.318330
 30
0.0
 10
-16.934367
 20
-49.976753
 30
0.0
 10
-16.949353
 20
-49.852214
 30
0.0
 10
-16.954521
 20
-49.838773
 30
0.0
 10
-17.032035
 20
-49.738522
 30
0.0
 10
-17.247009
 20
-49.523548
 30
0.0
 10
-17.032552
 20
-49.309103
 30
0.0
 10
-16.953487
 20
-49.206260
 30
0.0
 10
-16.951420
 20
-49.202132
 30
0.0
 10
-16.949870
 20
-49.197978
 30
0.0
 10
-16.934367
 20
-49.069311
 30
0.0
 10
-16.934367
 20
-48.727734
 30
0.0
 10
-16.949353
 20
-48.603195
 30
0.0
 10
-16.954521
 20
-48.589754
 30
0.0
 10
-17.032035
 20
-48.489504
 30
0.0
 10
-17.398421
 20
-48.123109
 30
0.0
 10
-17.483171
 20
-48.052835
 30
0.0
 10
-17.500740
 20
-48.044580
 30
0.0
 10
-17.510042
 20
-48.040426
 30
0.0
 10
-17.635616
 20
-48.024419
 30
0.0
 10
-18.811255
 20
-48.024419
 30
0.0
 10
-18.854146
 20
-48.020794
 30
0.0
 10
-18.854146
 20
-48.019762
 30
0.0
  0
LWPOLYLINE
  5
135
100
AcDbEntity
  8
Merge
 62
7
100
AcDbPolyline
 90
32
 70
1
 10
-15.522050
 20
-48.019762
 30
0.0
 10
-15.556156
 20
-48.022858
 30
0.0
 10
-16.350940
 20
-48.022858
 30
0.0
 10
-16.475997
 20
-48.056460
 30
0.0
 10
-16.567464
 20
-48.147926
 30
0.0
 10
-16.601054
 20
-48.272995
 30
0.0
 10
-16.567464
 20
-48.398037
 30
0.0
 10
-16.475997
 20
-48.489504
 30
0.0
 10
-16.350940
 20
-48.523106
 30
0.0
 10
-15.768030
 20
-48.523106
 30
0.0
 10
-15.768030
 20
-50.772064
 30
0.0
 10
-15.734440
 20
-50.897106
 30
0.0
 10
-15.642973
 20
-50.988572
 30
0.0
 10
-15.517916
 20
-51.022175
 30
0.0
 10
-15.392859
 20
-50.988572
 30
0.0
 10
-15.301392
 20
-50.897106
 30
0.0
 10
-15.267802
 20
-50.772064
 30
0.0
 10
-15.267802
 20
-48.523106
 30
0.0
 10
-14.684892
 20
-48.523106
 30
0.0
 10
-14.610994
 20
-48.512760
 30
0.0
 10
-14.504541
 20
-48.449710
 30
0.0
 10
-14.431677
 20
-48.269370
 30
0.0
 10
-14.443563
 20
-48.195472
 30
0.0
 10
-14.492656
 20
-48.109165
 30
0.0
 10
-14.509709
 20
-48.091067
 30
0.0
 10
-14.571204
 20
-48.048708
 30
0.0
 10
-14.594458
 20
-48.038892
 30
0.0
 10
-14.618229
 20
-48.031642
 30
0.0
 10
-14.684892
 20
-48.023387
 30
0.0
 10
-15.479158
 20
-48.023387
 30
0.0
 10
-15.522050
 20
-48.020291
 30
0.0
 10
-15.522050
 20
-48.019762
 30
0.0
  0
LWPOLYLINE
  5
136
100
AcDbEntity
  8
Merge
 62
7
100
AcDbPolyline
 90
54
 70
1
 10
9.696049
 20
-48.019762
 30
0.0
 10
9.526033
 20
-48.090036
 30
0.0
 10
9.517765
 20
-48.098317
 30
0.0
 10
9.458337
 20
-48.196504
 30
0.0
 10
9.449552
 20
-48.311227
 30
0.0
 10
9.449552
 20
-49.483755
 30
0.0
 10
9.445935
 20
-49.526644
 30
0.0
 10
9.449552
 20
-49.560749
 30
0.0
 10
9.449552
 20
-50.733302
 30
0.0
 10
9.459371
 20
-50.851121
 30
0.0
 10
9.522416
 20
-50.951372
 30
0.0
 10
9.523450
 20
-50.953965
 30
0.0
 10
9.527067
 20
-50.957061
 30
0.0
 10
9.626286
 20
-51.015454
 30
0.0
 10
9.741007
 20
-51.023206
 30
0.0
 10
10.912512
 20
-51.023206
 30
0.0
 10
11.023100
 20
-51.013390
 30
0.0
 10
11.039119
 20
-51.007702
 30
0.0
 10
11.051005
 20
-51.003045
 30
0.0
 10
11.152291
 20
-50.923459
 30
0.0
 10
11.517126
 20
-50.558625
 30
0.0
 10
11.596708
 20
-50.455807
 30
0.0
 10
11.598775
 20
-50.451654
 30
0.0
 10
11.600326
 20
-50.446997
 30
0.0
 10
11.601359
 20
-50.444430
 30
0.0
 10
11.615829
 20
-50.321426
 30
0.0
 10
11.615829
 20
-49.976224
 30
0.0
 10
11.597742
 20
-49.842900
 30
0.0
 10
11.597225
 20
-49.842900
 30
0.0
 10
11.595675
 20
-49.839302
 30
0.0
 10
11.594124
 20
-49.836206
 30
0.0
 10
11.517643
 20
-49.739051
 30
0.0
 10
11.302669
 20
-49.524077
 30
0.0
 10
11.517126
 20
-49.309606
 30
0.0
 10
11.596708
 20
-49.206762
 30
0.0
 10
11.598775
 20
-49.202635
 30
0.0
 10
11.600326
 20
-49.198507
 30
0.0
 10
11.600842
 20
-49.195412
 30
0.0
 10
11.615829
 20
-49.071904
 30
0.0
 10
11.615829
 20
-48.726702
 30
0.0
 10
11.597742
 20
-48.593379
 30
0.0
 10
11.597225
 20
-48.593379
 30
0.0
 10
11.595675
 20
-48.589754
 30
0.0
 10
11.594641
 20
-48.587161
 30
0.0
 10
11.517643
 20
-48.488472
 30
0.0
 10
11.151257
 20
-48.122077
 30
0.0
 10
11.048421
 20
-48.043019
 30
0.0
 10
11.040670
 20
-48.039394
 30
0.0
 10
11.040153
 20
-48.039394
 30
0.0
 10
11.039636
 20
-48.039394
 30
0.0
 10
10.914579
 20
-48.023387
 30
0.0
 10
9.738424
 20
-48.023387
 30
0.0
 10
9.696049
 20
-48.020291
 30
0.0
 10
9.696049
 20
-48.019762
 30
0.0
  0
LWPOLYLINE
  5
137
100
AcDbEntity
  8
Merge
 62
7
100
AcDbPolyline
 90
38
 70
1
 10
13.028145
 20
-48.019762
 30
0.0
 10
12.994039
 20
-48.022858
 30
0.0
 10
12.198739
 20
-48.022858
 30
0.0
 10
12.073682
 20
-48.056460
 30
0.0
 10
11.982214
 20
-48.147926
 30
0.0
 10
11.948625
 20
-48.272995
 30
0.0
 10
11.982214
 20
-48.398037
 30
0.0
 10
12.073682
 20
-48.489504
 30
0.0
 10
12.198739
 20
-48.523106
 30
0.0
 10
12.782166
 20
-48.523106
 30
0.0
 10
12.782166
 20
-50.772064
 30
0.0
 10
12.812655
 20
-50.901234
 30
0.0
 10
12.904122
 20
-50.996325
 30
0.0
 10
13.031763
 20
-51.031461
 30
0.0
 10
13.159920
 20
-50.996325
 30
0.0
 10
13.251387
 20
-50.901234
 30
0.0
 10
13.281877
 20
-50.772064
 30
0.0
 10
13.281877
 20
-48.523106
 30
0.0
 10
13.864787
 20
-48.523106
 30
0.0
 10
13.914913
 20
-48.518952
 30
0.0
 10
13.939201
 20
-48.512760
 30
0.0
 10
13.985193
 20
-48.494160
 30
0.0
 10
14.006897
 20
-48.481249
 30
0.0
 10
14.062191
 20
-48.431110
 30
0.0
 10
14.114384
 20
-48.318980
 30
0.0
 10
14.117485
 20
-48.294162
 30
0.0
 10
14.118518
 20
-48.269370
 30
0.0
 10
14.116968
 20
-48.244552
 30
0.0
 10
14.112834
 20
-48.219761
 30
0.0
 10
14.085962
 20
-48.149990
 30
0.0
 10
14.057540
 20
-48.109165
 30
0.0
 10
14.000696
 20
-48.060587
 30
0.0
 10
13.978475
 20
-48.048708
 30
0.0
 10
13.955737
 20
-48.038892
 30
0.0
 10
13.931966
 20
-48.031139
 30
0.0
 10
13.864787
 20
-48.022858
 30
0.0
 10
13.070520
 20
-48.022858
 30
0.0
 10
13.028145
 20
-48.019762
 30
0.0
  0
LWPOLYLINE
  5
138
100
AcDbEntity
  8
Merge
 62
7
100
AcDbPolyline
 90
50
 70
1
 10
17.608744
 20
-48.019762
 30
0.0
 10
17.516243
 20
-48.040426
 30
0.0
 10
17.507975
 20
-48.044051
 30
0.0
 10
17.411340
 20
-48.121045
 30
0.0
 10
17.045988
 20
-48.486408
 30
0.0
 10
16.965890
 20
-48.590283
 30
0.0
 10
16.963306
 20
-48.597004
 30
0.0
 10
16.962272
 20
-48.599570
 30
0.0
 10
16.947286
 20
-48.723078
 30
0.0
 10
16.947286
 20
-50.317827
 30
0.0
 10
16.965890
 20
-50.452183
 30
0.0
 10
16.970540
 20
-50.461999
 30
0.0
 10
17.047538
 20
-50.558122
 30
0.0
 10
17.409790
 20
-50.920892
 30
0.0
 10
17.514693
 20
-51.002013
 30
0.0
 10
17.521411
 20
-51.005109
 30
0.0
 10
17.525028
 20
-51.005109
 30
0.0
 10
17.650602
 20
-51.020111
 30
0.0
 10
18.410246
 20
-51.020111
 30
0.0
 10
18.520833
 20
-51.013390
 30
0.0
 10
18.536853
 20
-51.007702
 30
0.0
 10
18.548739
 20
-51.003045
 30
0.0
 10
18.648991
 20
-50.924490
 30
0.0
 10
19.040182
 20
-50.533304
 30
0.0
 10
19.108394
 20
-50.420644
 30
0.0
 10
19.110462
 20
-50.288882
 30
0.0
 10
19.044832
 20
-50.174661
 30
0.0
 10
18.930627
 20
-50.109574
 30
0.0
 10
18.799369
 20
-50.111108
 30
0.0
 10
18.686715
 20
-50.179847
 30
0.0
 10
18.343066
 20
-50.523488
 30
0.0
 10
17.717782
 20
-50.523488
 30
0.0
 10
17.447514
 20
-50.253216
 30
0.0
 10
17.447514
 20
-48.793880
 30
0.0
 10
17.717265
 20
-48.524137
 30
0.0
 10
18.343583
 20
-48.524137
 30
0.0
 10
18.686715
 20
-48.867249
 30
0.0
 10
18.799369
 20
-48.935485
 30
0.0
 10
18.930627
 20
-48.937020
 30
0.0
 10
19.044832
 20
-48.871906
 30
0.0
 10
19.110462
 20
-48.757712
 30
0.0
 10
19.108394
 20
-48.625923
 30
0.0
 10
19.040182
 20
-48.513792
 30
0.0
 10
18.648991
 20
-48.122606
 30
0.0
 10
18.545121
 20
-48.043019
 30
0.0
 10
18.537370
 20
-48.039394
 30
0.0
 10
18.412313
 20
-48.023387
 30
0.0
 10
17.646468
 20
-48.023387
 30
0.0
 10
17.608744
 20
-48.020794
 30
0.0
 10
17.608744
 20
-48.019762
 30
0.0
  0
LWPOLYLINE
  5
139
100
AcDbEntity
  8
Merge
 62
7
100
AcDbPolyline
 90
54
 70
1
 10
38.321176
 20
-48.019762
 30
0.0
 10
38.151160
 20
-48.090036
 30
0.0
 10
38.142892
 20
-48.098317
 30
0.0
 10
38.082948
 20
-48.198039
 30
0.0
 10
38.074679
 20
-48.314323
 30
0.0
 10
38.074679
 20
-49.480659
 30
0.0
 10
38.074679
 20
-49.563871
 30
0.0
 10
38.074679
 20
-50.730207
 30
0.0
 10
38.080363
 20
-50.838210
 30
0.0
 10
38.131007
 20
-50.934306
 30
0.0
 10
38.146508
 20
-50.950843
 30
0.0
 10
38.148575
 20
-50.953436
 30
0.0
 10
38.152194
 20
-50.956531
 30
0.0
 10
38.251413
 20
-51.014925
 30
0.0
 10
38.365618
 20
-51.022677
 30
0.0
 10
39.537637
 20
-51.022677
 30
0.0
 10
39.648225
 20
-51.012861
 30
0.0
 10
39.664246
 20
-51.007173
 30
0.0
 10
39.676131
 20
-51.002542
 30
0.0
 10
39.777416
 20
-50.922956
 30
0.0
 10
40.142253
 20
-50.558122
 30
0.0
 10
40.213050
 20
-50.473376
 30
0.0
 10
40.215116
 20
-50.469751
 30
0.0
 10
40.223900
 20
-50.451151
 30
0.0
 10
40.225451
 20
-50.446997
 30
0.0
 10
40.226485
 20
-50.444430
 30
0.0
 10
40.240955
 20
-50.321426
 30
0.0
 10
40.240955
 20
-49.974689
 30
0.0
 10
40.222868
 20
-49.842900
 30
0.0
 10
40.222350
 20
-49.842900
 30
0.0
 10
40.220799
 20
-49.838773
 30
0.0
 10
40.219768
 20
-49.836206
 30
0.0
 10
40.142769
 20
-49.738019
 30
0.0
 10
39.927795
 20
-49.523045
 30
0.0
 10
40.142253
 20
-49.308574
 30
0.0
 10
40.213050
 20
-49.223828
 30
0.0
 10
40.215116
 20
-49.220203
 30
0.0
 10
40.223900
 20
-49.201603
 30
0.0
 10
40.225451
 20
-49.197476
 30
0.0
 10
40.225969
 20
-49.194883
 30
0.0
 10
40.240955
 20
-49.071375
 30
0.0
 10
40.240955
 20
-48.724639
 30
0.0
 10
40.222868
 20
-48.592850
 30
0.0
 10
40.222350
 20
-48.592850
 30
0.0
 10
40.220799
 20
-48.589251
 30
0.0
 10
40.220284
 20
-48.589251
 30
0.0
 10
40.142769
 20
-48.490033
 30
0.0
 10
39.776384
 20
-48.123638
 30
0.0
 10
39.672514
 20
-48.044051
 30
0.0
 10
39.664762
 20
-48.040955
 30
0.0
 10
39.539706
 20
-48.024419
 30
0.0
 10
38.363549
 20
-48.024419
 30
0.0
 10
38.321176
 20
-48.021323
 30
0.0
 10
38.321176
 20
-48.019762
 30
0.0
  0
LWPOLYLINE
  5
13a
100
AcDbEntity
  8
Merge
 62
7
100
AcDbPolyline
 90
31
 70
1
 10
45.818393
 20
-48.019762
 30
0.0
 10
45.648377
 20
-48.090036
 30
0.0
 10
45.640109
 20
-48.098317
 30
0.0
 10
45.580681
 20
-48.198039
 30
0.0
 10
45.572413
 20
-48.314323
 30
0.0
 10
45.572413
 20
-50.730207
 30
0.0
 10
45.581713
 20
-50.850090
 30
0.0
 10
45.645792
 20
-50.952404
 30
0.0
 10
45.648377
 20
-50.954997
 30
0.0
 10
45.748112
 20
-51.013893
 30
0.0
 10
45.863351
 20
-51.022175
 30
0.0
 10
47.035371
 20
-51.022175
 30
0.0
 10
47.145959
 20
-51.012359
 30
0.0
 10
47.157846
 20
-51.008205
 30
0.0
 10
47.173348
 20
-51.002013
 30
0.0
 10
47.274118
 20
-50.923459
 30
0.0
 10
47.639986
 20
-50.557593
 30
0.0
 10
47.719051
 20
-50.454749
 30
0.0
 10
47.721118
 20
-50.450622
 30
0.0
 10
47.722668
 20
-50.446494
 30
0.0
 10
47.738170
 20
-50.317827
 30
0.0
 10
47.738170
 20
-48.726702
 30
0.0
 10
47.723184
 20
-48.602163
 30
0.0
 10
47.640502
 20
-48.488472
 30
0.0
 10
47.274118
 20
-48.122077
 30
0.0
 10
47.189369
 20
-48.051803
 30
0.0
 10
47.171798
 20
-48.043548
 30
0.0
 10
47.162495
 20
-48.039394
 30
0.0
 10
47.036921
 20
-48.022858
 30
0.0
 10
45.861282
 20
-48.022858
 30
0.0
 10
45.818393
 20
-48.019762
 30
0.0
  0
LWPOLYLINE
  5
13b
100
AcDbEntity
  8
Merge
 62
7
100
AcDbPolyline
 90
7
 70
1
 10
-47.250345
 20
-48.522074
 30
0.0
 10
-46.354278
 20
-48.522074
 30
0.0
 10
-46.084008
 20
-48.792319
 30
0.0
 10
-46.084008
 20
-49.001102
 30
0.0
 10
-46.354794
 20
-49.271876
 30
0.0
 10
-47.250345
 20
-49.271876
 30
0.0
 10
-47.250345
 20
-48.522074
 30
0.0
  0
LWPOLYLINE
  5
13c
100
AcDbEntity
  8
Merge
 62
7
100
AcDbPolyline
 90
7
 70
1
 10
-18.600415
 20
-48.522074
 30
0.0
 10
-17.704346
 20
-48.522074
 30
0.0
 10
-17.434078
 20
-48.791816
 30
0.0
 10
-17.434078
 20
-49.001631
 30
0.0
 10
-17.704863
 20
-49.271876
 30
0.0
 10
-18.600415
 20
-49.271876
 30
0.0
 10
-18.600415
 20
-48.522074
 30
0.0
  0
LWPOLYLINE
  5
13d
100
AcDbEntity
  8
Merge
 62
7
100
AcDbPolyline
 90
7
 70
1
 10
-11.102682
 20
-48.522074
 30
0.0
 10
-10.206612
 20
-48.522074
 30
0.0
 10
-9.936345
 20
-48.792319
 30
0.0
 10
-9.936345
 20
-49.001102
 30
0.0
 10
-10.207129
 20
-49.271876
 30
0.0
 10
-11.102682
 20
-49.271876
 30
0.0
 10
-11.102682
 20
-48.522074
 30
0.0
  0
LWPOLYLINE
  5
13e
100
AcDbEntity
  8
Merge
 62
7
100
AcDbPolyline
 90
7
 70
1
 10
9.949780
 20
-48.522074
 30
0.0
 10
10.845850
 20
-48.522074
 30
0.0
 10
11.115601
 20
-48.791816
 30
0.0
 10
11.115601
 20
-49.001631
 30
0.0
 10
10.845333
 20
-49.271876
 30
0.0
 10
9.949780
 20
-49.271876
 30
0.0
 10
9.949780
 20
-48.522074
 30
0.0
  0
LWPOLYLINE
  5
13f
100
AcDbEntity
  8
Merge
 62
7
100
AcDbPolyline
 90
7
 70
1
 10
38.574906
 20
-48.522074
 30
0.0
 10
39.470976
 20
-48.522074
 30
0.0
 10
39.740726
 20
-48.791816
 30
0.0
 10
39.740726
 20
-49.001631
 30
0.0
 10
39.470460
 20
-49.271876
 30
0.0
 10
38.574906
 20
-49.271876
 30
0.0
 10
38.574906
 20
-48.522074
 30
0.0
  0
LWPOLYLINE
  5
140
100
AcDbEntity
  8
Merge
 62
7
100
AcDbPolyline
 90
7
 70
1
 10
46.072123
 20
-48.522074
 30
0.0
 10
46.968709
 20
-48.522074
 30
0.0
 10
47.238460
 20
-48.791816
 30
0.0
 10
47.238460
 20
-50.251152
 30
0.0
 10
46.968193
 20
-50.521424
 30
0.0
 10
46.072123
 20
-50.521424
 30
0.0
 10
46.072123
 20
-48.522074
 30
0.0
  0
LWPOLYLINE
  5
141
100
AcDbEntity
  8
Merge
 62
7
100
AcDbPolyline
 90
6
 70
1
 10
-39.169702
 20
-48.625420
 30
0.0
 10
-38.586791
 20
-49.208324
 30
0.0
 10
-38.586791
 20
-49.271876
 30
0.0
 10
-39.752611
 20
-49.271876
 30
0.0
 10
-39.752611
 20
-49.208324
 30
0.0
 10
-39.169702
 20
-48.625420
 30
0.0
  0
LWPOLYLINE
  5
142
100
AcDbEntity
  8
Merge
 62
7
100
AcDbPolyline
 90
15
 70
1
 10
-42.501799
 20
-49.271876
 30
0.0
 10
-42.630990
 20
-49.302383
 30
0.0
 10
-42.726076
 20
-49.393849
 30
0.0
 10
-42.761215
 20
-49.521484
 30
0.0
 10
-42.726076
 20
-49.649649
 30
0.0
 10
-42.630990
 20
-49.741115
 30
0.0
 10
-42.501799
 20
-49.771595
 30
0.0
 10
-40.835749
 20
-49.771595
 30
0.0
 10
-40.706559
 20
-49.741115
 30
0.0
 10
-40.611475
 20
-49.649649
 30
0.0
 10
-40.576336
 20
-49.521484
 30
0.0
 10
-40.611475
 20
-49.393849
 30
0.0
 10
-40.706559
 20
-49.302383
 30
0.0
 10
-40.835749
 20
-49.271876
 30
0.0
 10
-42.501799
 20
-49.271876
 30
0.0
  0
LWPOLYLINE
  5
143
100
AcDbEntity
  8
Merge
 62
7
100
AcDbPolyline
 90
15
 70
1
 10
-13.851868
 20
-49.271876
 30
0.0
 10
-13.981059
 20
-49.302383
 30
0.0
 10
-14.076143
 20
-49.393849
 30
0.0
 10
-14.111283
 20
-49.521484
 30
0.0
 10
-14.076143
 20
-49.649649
 30
0.0
 10
-13.981059
 20
-49.741115
 30
0.0
 10
-13.851868
 20
-49.771595
 30
0.0
 10
-12.185820
 20
-49.771595
 30
0.0
 10
-12.056628
 20
-49.741115
 30
0.0
 10
-11.961544
 20
-49.649649
 30
0.0
 10
-11.926404
 20
-49.521484
 30
0.0
 10
-11.961544
 20
-49.393849
 30
0.0
 10
-12.056628
 20
-49.302383
 30
0.0
 10
-12.185820
 20
-49.271876
 30
0.0
 10
-13.851868
 20
-49.271876
 30
0.0
  0
LWPOLYLINE
  5
144
100
AcDbEntity
  8
Merge
 62
7
100
AcDbPolyline
 90
15
 70
1
 10
14.698328
 20
-49.271876
 30
0.0
 10
14.569137
 20
-49.302383
 30
0.0
 10
14.474052
 20
-49.393849
 30
0.0
 10
14.438912
 20
-49.521484
 30
0.0
 10
14.474052
 20
-49.649649
 30
0.0
 10
14.569137
 20
-49.741115
 30
0.0
 10
14.698328
 20
-49.771595
 30
0.0
 10
16.364376
 20
-49.771595
 30
0.0
 10
16.493567
 20
-49.741115
 30
0.0
 10
16.588652
 20
-49.649649
 30
0.0
 10
16.623791
 20
-49.521484
 30
0.0
 10
16.588652
 20
-49.393849
 30
0.0
 10
16.493567
 20
-49.302383
 30
0.0
 10
16.364376
 20
-49.271876
 30
0.0
 10
14.698328
 20
-49.271876
 30
0.0
  0
LWPOLYLINE
  5
145
100
AcDbEntity
  8
Merge
 62
7
100
AcDbPolyline
 90
15
 70
1
 10
43.322936
 20
-49.271876
 30
0.0
 10
43.193745
 20
-49.302383
 30
0.0
 10
43.098662
 20
-49.393849
 30
0.0
 10
43.063522
 20
-49.521484
 30
0.0
 10
43.098662
 20
-49.649649
 30
0.0
 10
43.193745
 20
-49.741115
 30
0.0
 10
43.322936
 20
-49.771595
 30
0.0
 10
44.988985
 20
-49.771595
 30
0.0
 10
45.118176
 20
-49.741115
 30
0.0
 10
45.213262
 20
-49.649649
 30
0.0
 10
45.248401
 20
-49.521484
 30
0.0
 10
45.213262
 20
-49.393849
 30
0.0
 10
45.118176
 20
-49.302383
 30
0.0
 10
44.988985
 20
-49.271876
 30
0.0
 10
43.322936
 20
-49.271876
 30
0.0
  0
LWPOLYLINE
  5
146
100
AcDbEntity
  8
Merge
 62
7
100
AcDbPolyline
 90
7
 70
1
 10
-47.250345
 20
-49.771595
 30
0.0
 10
-46.354278
 20
-49.771595
 30
0.0
 10
-46.084008
 20
-50.041867
 30
0.0
 10
-46.084008
 20
-50.250650
 30
0.0
 10
-46.354794
 20
-50.521424
 30
0.0
 10
-47.250345
 20
-50.521424
 30
0.0
 10
-47.250345
 20
-49.771595
 30
0.0
  0
LWPOLYLINE
  5
147
100
AcDbEntity
  8
Merge
 62
7
100
AcDbPolyline
 90
7
 70
1
 10
-18.600415
 20
-49.771595
 30
0.0
 10
-17.703829
 20
-49.771595
 30
0.0
 10
-17.434078
 20
-50.041338
 30
0.0
 10
-17.434078
 20
-50.251152
 30
0.0
 10
-17.704863
 20
-50.521424
 30
0.0
 10
-18.600415
 20
-50.521424
 30
0.0
 10
-18.600415
 20
-49.771595
 30
0.0
  0
LWPOLYLINE
  5
148
100
AcDbEntity
  8
Merge
 62
7
100
AcDbPolyline
 90
7
 70
1
 10
-11.102682
 20
-49.771595
 30
0.0
 10
-10.206612
 20
-49.771595
 30
0.0
 10
-9.936345
 20
-50.041867
 30
0.0
 10
-9.936345
 20
-50.250650
 30
0.0
 10
-10.207129
 20
-50.521424
 30
0.0
 10
-11.102682
 20
-50.521424
 30
0.0
 10
-11.102682
 20
-49.771595
 30
0.0
  0
LWPOLYLINE
  5
149
100
AcDbEntity
  8
Merge
 62
7
100
AcDbPolyline
 90
7
 70
1
 10
9.949780
 20
-49.771595
 30
0.0
 10
10.845850
 20
-49.771595
 30
0.0
 10
11.115601
 20
-50.041338
 30
0.0
 10
11.115601
 20
-50.251152
 30
0.0
 10
10.845333
 20
-50.521424
 30
0.0
 10
9.949780
 20
-50.521424
 30
0.0
 10
9.949780
 20
-49.771595
 30
0.0
  0
LWPOLYLINE
  5
14a
100
AcDbEntity
  8
Merge
 62
7
100
AcDbPolyline
 90
7
 70
1
 10
38.574906
 20
-49.771595
 30
0.0
 10
39.470976
 20
-49.771595
 30
0.0
 10
39.740726
 20
-50.041338
 30
0.0
 10
39.740726
 20
-50.251152
 30
0.0
 10
39.470460
 20
-50.521424
 30
0.0
 10
38.574906
 20
-50.521424
 30
0.0
 10
38.574906
 20
-49.771595
 30
0.0
  0
LWPOLYLINE
  5
14b
100
AcDbEntity
  8
Merge
 62
7
100
AcDbPolyline
 90
10
 70
1
 10
67.063607
 20
-51.007702
 30
0.0
 10
69.303781
 20
-54.280360
 30
0.0
 10
69.058316
 20
-59.180337
 30
0.0
 10
69.009742
 20
-59.209785
 30
0.0
 10
45.304729
 20
-82.914282
 30
0.0
 10
45.304729
 20
-78.768791
 30
0.0
 10
66.737529
 20
-57.336006
 30
0.0
 10
66.942684
 20
-52.867008
 30
0.0
 10
66.948368
 20
-52.835496
 30
0.0
 10
67.063607
 20
-51.007702
 30
0.0
  0
LWPOLYLINE
  5
14c
100
AcDbEntity
  8
Merge
 62
7
100
AcDbPolyline
 90
10
 70
1
 10
-67.064123
 20
-51.008734
 30
0.0
 10
-66.948886
 20
-52.835999
 30
0.0
 10
-66.942684
 20
-52.871162
 30
0.0
 10
-66.738045
 20
-57.336006
 30
0.0
 10
-45.305244
 20
-78.768288
 30
0.0
 10
-45.305244
 20
-82.915314
 30
0.0
 10
-69.010257
 20
-59.210817
 30
0.0
 10
-69.059351
 20
-59.180840
 30
0.0
 10
-69.304813
 20
-54.281921
 30
0.0
 10
-67.064123
 20
-51.008734
 30
0.0
  0
LWPOLYLINE
  5
14d
100
AcDbEntity
  8
Merge
 62
7
100
AcDbPolyline
 90
124
 70
1
 10
0.001550
 20
-53.330558
 30
0.0
 10
0.040824
 20
-53.333151
 30
0.0
 10
32.991269
 20
-53.333151
 30
0.0
 10
33.987073
 20
-54.328937
 30
0.0
 10
34.145201
 20
-54.449349
 30
0.0
 10
34.149337
 20
-54.451942
 30
0.0
 10
34.160190
 20
-54.456069
 30
0.0
 10
34.204630
 20
-54.470542
 30
0.0
 10
38.152194
 20
-66.150970
 30
0.0
 10
37.849887
 20
-66.150970
 30
0.0
 10
31.804777
 20
-66.150970
 30
0.0
 10
31.612541
 20
-66.175259
 30
0.0
 10
31.598587
 20
-66.179889
 30
0.0
 10
31.596005
 20
-66.183011
 30
0.0
 10
31.445626
 20
-66.300830
 30
0.0
 10
30.174385
 20
-67.572074
 30
0.0
 10
26.825236
 20
-67.572074
 30
0.0
 10
25.552446
 20
-66.299269
 30
0.0
 10
25.394316
 20
-66.178857
 30
0.0
 10
25.390182
 20
-66.175762
 30
0.0
 10
25.385530
 20
-66.173169
 30
0.0
 10
25.379329
 20
-66.170602
 30
0.0
 10
25.194844
 20
-66.149409
 30
0.0
 10
19.149735
 20
-66.149409
 30
0.0
 10
12.076265
 20
-66.149409
 30
0.0
 10
12.036475
 20
-66.152002
 30
0.0
 10
12.032340
 20
-66.152002
 30
0.0
 10
12.026656
 20
-66.152002
 30
0.0
 10
12.022005
 20
-66.152002
 30
0.0
 10
11.878345
 20
-66.199019
 30
0.0
 10
11.765173
 20
-66.298766
 30
0.0
 10
11.700578
 20
-66.435186
 30
0.0
 10
11.694893
 20
-66.586077
 30
0.0
 10
11.694893
 20
-72.014163
 30
0.0
 10
11.721248
 20
-72.213130
 30
0.0
 10
11.723315
 20
-72.217787
 30
0.0
 10
11.727450
 20
-72.227074
 30
0.0
 10
11.841654
 20
-72.372277
 30
0.0
 10
13.049850
 20
-73.580470
 30
0.0
 10
13.049850
 20
-76.518800
 30
0.0
 10
12.484509
 20
-77.084136
 30
0.0
 10
11.841138
 20
-77.728026
 30
0.0
 10
11.721765
 20
-77.885638
 30
0.0
 10
11.720215
 20
-77.889263
 30
0.0
 10
11.716081
 20
-77.900111
 30
0.0
 10
11.694893
 20
-78.084605
 30
0.0
 10
11.694893
 20
-81.141786
 30
0.0
 10
9.832475
 20
-79.836437
 30
0.0
 10
9.695532
 20
-79.716528
 30
0.0
 10
9.518282
 20
-79.675200
 30
0.0
 10
1.898592
 20
-79.699992
 30
0.0
 10
1.707389
 20
-79.747537
 30
0.0
 10
1.566313
 20
-79.886047
 30
0.0
 10
1.515153
 20
-80.076203
 30
0.0
 10
1.567863
 20
-80.266385
 30
0.0
 10
1.709456
 20
-80.403307
 30
0.0
 10
1.901176
 20
-80.449821
 30
0.0
 10
9.366353
 20
-80.425532
 30
0.0
 10
11.416358
 20
-81.862140
 30
0.0
 10
9.400977
 20
-83.274989
 30
0.0
 10
-0.000517
 20
-83.274989
 30
0.0
 10
-9.401493
 20
-83.274989
 30
0.0
 10
-11.416874
 20
-81.862140
 30
0.0
 10
-9.401493
 20
-80.449821
 30
0.0
 10
-1.900142
 20
-80.449821
 30
0.0
 10
-1.708423
 20
-80.402804
 30
0.0
 10
-1.567346
 20
-80.265353
 30
0.0
 10
-1.515670
 20
-80.074668
 30
0.0
 10
-1.567346
 20
-79.884486
 30
0.0
 10
-1.708423
 20
-79.747035
 30
0.0
 10
-1.900142
 20
-79.699992
 30
0.0
 10
-9.467122
 20
-79.699992
 30
0.0
 10
-9.626803
 20
-79.713962
 30
0.0
 10
-9.642822
 20
-79.719121
 30
0.0
 10
-9.647990
 20
-79.721714
 30
0.0
 10
-9.776664
 20
-79.797676
 30
0.0
 10
-11.695410
 20
-81.142817
 30
0.0
 10
-11.695410
 20
-78.085636
 30
0.0
 10
-11.722282
 20
-77.886167
 30
0.0
 10
-11.722799
 20
-77.883574
 30
0.0
 10
-11.725382
 20
-77.877383
 30
0.0
 10
-11.728483
 20
-77.871165
 30
0.0
 10
-11.842171
 20
-77.727523
 30
0.0
 10
-12.466939
 20
-77.103265
 30
0.0
 10
-12.485026
 20
-77.084665
 30
0.0
 10
-13.050366
 20
-76.519330
 30
0.0
 10
-13.050366
 20
-73.580470
 30
0.0
 10
-11.842688
 20
-72.372806
 30
0.0
 10
-11.726933
 20
-72.224481
 30
0.0
 10
-11.718665
 20
-72.205880
 30
0.0
 10
-11.695410
 20
-72.015195
 30
0.0
 10
-11.695410
 20
-66.586580
 30
0.0
 10
-11.702128
 20
-66.432593
 30
0.0
 10
-11.769824
 20
-66.294612
 30
0.0
 10
-11.887130
 20
-66.195394
 30
0.0
 10
-12.034924
 20
-66.151473
 30
0.0
 10
-12.040092
 20
-66.151473
 30
0.0
 10
-12.057145
 20
-66.151473
 30
0.0
 10
-12.083500
 20
-66.151473
 30
0.0
 10
-19.150252
 20
-66.151473
 30
0.0
 10
-25.195361
 20
-66.151473
 30
0.0
 10
-25.387598
 20
-66.175762
 30
0.0
 10
-25.401033
 20
-66.180921
 30
0.0
 10
-25.405168
 20
-66.183514
 30
0.0
 10
-25.554512
 20
-66.300830
 30
0.0
 10
-26.825752
 20
-67.572074
 30
0.0
 10
-30.174904
 20
-67.572074
 30
0.0
 10
-31.449243
 20
-66.297205
 30
0.0
 10
-31.605823
 20
-66.178857
 30
0.0
 10
-31.609956
 20
-66.176291
 30
0.0
 10
-31.614607
 20
-66.173698
 30
0.0
 10
-31.620809
 20
-66.171105
 30
0.0
 10
-31.805293
 20
-66.149938
 30
0.0
 10
-37.850403
 20
-66.149938
 30
0.0
 10
-38.152710
 20
-66.149938
 30
0.0
 10
-34.205148
 20
-54.469510
 30
0.0
 10
-34.152954
 20
-54.452445
 30
0.0
 10
-34.139518
 20
-54.447285
 30
0.0
 10
-34.137968
 20
-54.447285
 30
0.0
 10
-34.135383
 20
-54.444692
 30
0.0
 10
-33.986039
 20
-54.327402
 30
0.0
 10
-32.991785
 20
-53.333151
 30
0.0
 10
-0.041341
 20
-53.333151
 30
0.0
 10
0.001550
 20
-53.330558
 30
0.0
  0
LWPOLYLINE
  5
14e
100
AcDbEntity
  8
Merge
 62
7
100
AcDbPolyline
 90
53
 70
1
 10
-33.129244
 20
-62.868470
 30
0.0
 10
-33.287375
 20
-62.928425
 30
0.0
 10
-33.303911
 20
-62.943929
 30
0.0
 10
-33.305978
 20
-62.946496
 30
0.0
 10
-33.309078
 20
-62.950120
 30
0.0
 10
-33.367472
 20
-63.049339
 30
0.0
 10
-33.375224
 20
-63.163533
 30
0.0
 10
-33.375224
 20
-64.330399
 30
0.0
 10
-33.377807
 20
-64.351063
 30
0.0
 10
-33.378841
 20
-64.376383
 30
0.0
 10
-33.375224
 20
-64.413610
 30
0.0
 10
-33.375224
 20
-65.622306
 30
0.0
 10
-33.345252
 20
-65.750973
 30
0.0
 10
-33.253267
 20
-65.846064
 30
0.0
 10
-33.125627
 20
-65.881201
 30
0.0
 10
-32.997987
 20
-65.846064
 30
0.0
 10
-32.906002
 20
-65.750973
 30
0.0
 10
-32.875514
 20
-65.622306
 30
0.0
 10
-32.875514
 20
-64.622896
 30
0.0
 10
-32.292086
 20
-64.622896
 30
0.0
 10
-32.267282
 20
-64.622896
 30
0.0
 10
-32.194418
 20
-64.605327
 30
0.0
 10
-32.172196
 20
-64.594982
 30
0.0
 10
-32.150492
 20
-64.582070
 30
0.0
 10
-32.130339
 20
-64.567069
 30
0.0
 10
-32.095199
 20
-64.531932
 30
0.0
 10
-32.048691
 20
-64.444090
 30
0.0
 10
-32.039388
 20
-64.394984
 30
0.0
 10
-32.040423
 20
-64.344871
 30
0.0
 10
-32.044555
 20
-64.320054
 30
0.0
 10
-32.050757
 20
-64.295765
 30
0.0
 10
-32.060060
 20
-64.272534
 30
0.0
 10
-32.084346
 20
-64.229116
 30
0.0
 10
-32.099851
 20
-64.209484
 30
0.0
 10
-32.136022
 20
-64.174850
 30
0.0
 10
-32.156694
 20
-64.160907
 30
0.0
 10
-32.178397
 20
-64.148498
 30
0.0
 10
-32.225425
 20
-64.131432
 30
0.0
 10
-32.249711
 20
-64.126273
 30
0.0
 10
-32.274515
 20
-64.123706
 30
0.0
 10
-32.292086
 20
-64.123706
 30
0.0
 10
-32.875514
 20
-64.123706
 30
0.0
 10
-32.875514
 20
-63.373877
 30
0.0
 10
-31.459062
 20
-63.373877
 30
0.0
 10
-31.330387
 20
-63.343371
 30
0.0
 10
-31.235303
 20
-63.251904
 30
0.0
 10
-31.200164
 20
-63.124269
 30
0.0
 10
-31.235303
 20
-62.996634
 30
0.0
 10
-31.330387
 20
-62.904639
 30
0.0
 10
-31.459062
 20
-62.874159
 30
0.0
 10
-33.083251
 20
-62.874159
 30
0.0
 10
-33.129244
 20
-62.870534
 30
0.0
 10
-33.129244
 20
-62.868470
 30
0.0
  0
LWPOLYLINE
  5
14f
100
AcDbEntity
  8
Merge
 62
7
100
AcDbPolyline
 90
33
 70
1
 10
-30.628622
 20
-62.868470
 30
0.0
 10
-30.757812
 20
-62.904639
 30
0.0
 10
-30.849798
 20
-63.002323
 30
0.0
 10
-30.877700
 20
-63.133582
 30
0.0
 10
-30.834293
 20
-63.260186
 30
0.0
 10
-30.093253
 20
-64.371224
 30
0.0
 10
-30.834293
 20
-65.482262
 30
0.0
 10
-30.879770
 20
-65.606299
 30
0.0
 10
-30.855997
 20
-65.735998
 30
0.0
 10
-30.769698
 20
-65.835746
 30
0.0
 10
-30.644124
 20
-65.877074
 30
0.0
 10
-30.514933
 20
-65.849160
 30
0.0
 10
-30.418299
 20
-65.759255
 30
0.0
 10
-29.793015
 20
-64.821836
 30
0.0
 10
-29.167728
 20
-65.759255
 30
0.0
 10
-29.071094
 20
-65.849160
 30
0.0
 10
-28.941903
 20
-65.877074
 30
0.0
 10
-28.816329
 20
-65.835746
 30
0.0
 10
-28.730030
 20
-65.735998
 30
0.0
 10
-28.706257
 20
-65.606299
 30
0.0
 10
-28.751734
 20
-65.482262
 30
0.0
 10
-29.492773
 20
-64.371224
 30
0.0
 10
-28.751734
 20
-63.260186
 30
0.0
 10
-28.710393
 20
-63.137710
 30
0.0
 10
-28.735713
 20
-63.010578
 30
0.0
 10
-28.820980
 20
-62.913423
 30
0.0
 10
-28.943453
 20
-62.872095
 30
0.0
 10
-29.070578
 20
-62.897415
 30
0.0
 10
-29.167728
 20
-62.982691
 30
0.0
 10
-29.793015
 20
-63.920612
 30
0.0
 10
-30.418299
 20
-62.982691
 30
0.0
 10
-30.508731
 20
-62.898950
 30
0.0
 10
-30.628622
 20
-62.868470
 30
0.0
  0
LWPOLYLINE
  5
150
100
AcDbEntity
  8
Merge
 62
7
100
AcDbPolyline
 90
20
 70
1
 10
-25.631510
 20
-62.868470
 30
0.0
 10
-25.807210
 20
-62.944432
 30
0.0
 10
-25.877490
 20
-63.122205
 30
0.0
 10
-25.877490
 20
-65.578915
 30
0.0
 10
-25.869739
 20
-65.694670
 30
0.0
 10
-25.810828
 20
-65.794920
 30
0.0
 10
-25.802559
 20
-65.803175
 30
0.0
 10
-25.704374
 20
-65.862098
 30
0.0
 10
-25.589653
 20
-65.871385
 30
0.0
 10
-23.961845
 20
-65.871385
 30
0.0
 10
-23.836788
 20
-65.837809
 30
0.0
 10
-23.745321
 20
-65.746343
 30
0.0
 10
-23.711731
 20
-65.621274
 30
0.0
 10
-23.745321
 20
-65.496232
 30
0.0
 10
-23.836788
 20
-65.404766
 30
0.0
 10
-23.961845
 20
-65.371164
 30
0.0
 10
-25.377779
 20
-65.371164
 30
0.0
 10
-25.377779
 20
-63.122205
 30
0.0
 10
-25.451160
 20
-62.941865
 30
0.0
 10
-25.631510
 20
-62.868470
 30
0.0
  0
LWPOLYLINE
  5
151
100
AcDbEntity
  8
Merge
 62
7
100
AcDbPolyline
 90
55
 70
1
 10
23.895699
 20
-62.868470
 30
0.0
 10
23.742220
 20
-62.925329
 30
0.0
 10
23.737569
 20
-62.928425
 30
0.0
 10
23.736019
 20
-62.930991
 30
0.0
 10
23.718966
 20
-62.947527
 30
0.0
 10
23.715865
 20
-62.951152
 30
0.0
 10
23.657471
 20
-63.049868
 30
0.0
 10
23.649719
 20
-63.164592
 30
0.0
 10
23.649719
 20
-64.331431
 30
0.0
 10
23.646102
 20
-64.376912
 30
0.0
 10
23.649719
 20
-64.414113
 30
0.0
 10
23.649719
 20
-65.622835
 30
0.0
 10
23.683309
 20
-65.747877
 30
0.0
 10
23.774776
 20
-65.839344
 30
0.0
 10
23.899833
 20
-65.872946
 30
0.0
 10
24.024890
 20
-65.839344
 30
0.0
 10
24.116358
 20
-65.747877
 30
0.0
 10
24.149947
 20
-65.622835
 30
0.0
 10
24.149947
 20
-64.623398
 30
0.0
 10
24.732857
 20
-64.623398
 30
0.0
 10
24.757662
 20
-64.623398
 30
0.0
 10
24.782467
 20
-64.619271
 30
0.0
 10
24.806754
 20
-64.613582
 30
0.0
 10
24.830526
 20
-64.605327
 30
0.0
 10
24.853263
 20
-64.594982
 30
0.0
 10
24.874451
 20
-64.582070
 30
0.0
 10
24.894605
 20
-64.567069
 30
0.0
 10
24.913208
 20
-64.550532
 30
0.0
 10
24.929744
 20
-64.532461
 30
0.0
 10
24.944731
 20
-64.512300
 30
0.0
 10
24.957650
 20
-64.490604
 30
0.0
 10
24.976253
 20
-64.444593
 30
0.0
 10
24.981938
 20
-64.420304
 30
0.0
 10
24.985555
 20
-64.394984
 30
0.0
 10
24.986072
 20
-64.369663
 30
0.0
 10
24.980387
 20
-64.320583
 30
0.0
 10
24.868249
 20
-64.161409
 30
0.0
 10
24.846545
 20
-64.149027
 30
0.0
 10
24.823291
 20
-64.139184
 30
0.0
 10
24.799520
 20
-64.131961
 30
0.0
 10
24.775232
 20
-64.126802
 30
0.0
 10
24.750427
 20
-64.124209
 30
0.0
 10
24.732857
 20
-64.124209
 30
0.0
 10
24.149947
 20
-64.124209
 30
0.0
 10
24.149947
 20
-63.374380
 30
0.0
 10
25.565881
 20
-63.374380
 30
0.0
 10
25.694556
 20
-63.343900
 30
0.0
 10
25.790157
 20
-63.252433
 30
0.0
 10
25.824780
 20
-63.124798
 30
0.0
 10
25.790157
 20
-62.997137
 30
0.0
 10
25.694556
 20
-62.905168
 30
0.0
 10
25.565881
 20
-62.874661
 30
0.0
 10
23.941691
 20
-62.874661
 30
0.0
 10
23.895699
 20
-62.871063
 30
0.0
 10
23.895699
 20
-62.868470
 30
0.0
  0
LWPOLYLINE
  5
152
100
AcDbEntity
  8
Merge
 62
7
100
AcDbPolyline
 90
33
 70
1
 10
26.396322
 20
-62.868470
 30
0.0
 10
26.267131
 20
-62.904639
 30
0.0
 10
26.175147
 20
-63.002323
 30
0.0
 10
26.147241
 20
-63.133582
 30
0.0
 10
26.190649
 20
-63.260186
 30
0.0
 10
26.931689
 20
-64.371224
 30
0.0
 10
26.190649
 20
-65.482262
 30
0.0
 10
26.149308
 20
-65.604738
 30
0.0
 10
26.174630
 20
-65.731870
 30
0.0
 10
26.260413
 20
-65.829025
 30
0.0
 10
26.382886
 20
-65.870353
 30
0.0
 10
26.510009
 20
-65.845032
 30
0.0
 10
26.607161
 20
-65.759255
 30
0.0
 10
27.231930
 20
-64.821836
 30
0.0
 10
27.857215
 20
-65.759255
 30
0.0
 10
27.953848
 20
-65.849160
 30
0.0
 10
28.083039
 20
-65.877074
 30
0.0
 10
28.208613
 20
-65.835746
 30
0.0
 10
28.294915
 20
-65.735998
 30
0.0
 10
28.318685
 20
-65.606299
 30
0.0
 10
28.273211
 20
-65.482262
 30
0.0
 10
27.532687
 20
-64.371224
 30
0.0
 10
28.273211
 20
-63.260186
 30
0.0
 10
28.314549
 20
-63.137710
 30
0.0
 10
28.289229
 20
-63.010578
 30
0.0
 10
28.203964
 20
-62.913423
 30
0.0
 10
28.081491
 20
-62.872095
 30
0.0
 10
27.954367
 20
-62.897415
 30
0.0
 10
27.857215
 20
-62.982691
 30
0.0
 10
27.231930
 20
-63.920083
 30
0.0
 10
26.607161
 20
-62.982691
 30
0.0
 10
26.516211
 20
-62.898447
 30
0.0
 10
26.396322
 20
-62.868470
 30
0.0
  0
LWPOLYLINE
  5
153
100
AcDbEntity
  8
Merge
 62
7
100
AcDbPolyline
 90
46
 70
1
 10
31.393432
 20
-62.868470
 30
0.0
 10
31.235303
 20
-62.928425
 30
0.0
 10
31.220317
 20
-62.942368
 30
0.0
 10
31.216182
 20
-62.945993
 30
0.0
 10
31.212565
 20
-62.951152
 30
0.0
 10
31.155203
 20
-63.049339
 30
0.0
 10
31.147454
 20
-63.163031
 30
0.0
 10
31.147454
 20
-64.746906
 30
0.0
 10
31.147454
 20
-64.829588
 30
0.0
 10
31.147454
 20
-65.621274
 30
0.0
 10
31.177942
 20
-65.750470
 30
0.0
 10
31.269408
 20
-65.845562
 30
0.0
 10
31.397567
 20
-65.880698
 30
0.0
 10
31.525207
 20
-65.845562
 30
0.0
 10
31.616674
 20
-65.750470
 30
0.0
 10
31.647164
 20
-65.621274
 30
0.0
 10
31.647164
 20
-65.038874
 30
0.0
 10
32.126722
 20
-65.038874
 30
0.0
 10
32.886883
 20
-65.798519
 30
0.0
 10
32.999537
 20
-65.866728
 30
0.0
 10
33.130794
 20
-65.868289
 30
0.0
 10
33.244999
 20
-65.803175
 30
0.0
 10
33.310629
 20
-65.688981
 30
0.0
 10
33.308560
 20
-65.557192
 30
0.0
 10
33.240348
 20
-65.445062
 30
0.0
 10
32.790762
 20
-64.994953
 30
0.0
 10
32.848640
 20
-64.940687
 30
0.0
 10
33.215027
 20
-64.573789
 30
0.0
 10
33.294608
 20
-64.470443
 30
0.0
 10
33.296159
 20
-64.466315
 30
0.0
 10
33.297709
 20
-64.462161
 30
0.0
 10
33.313211
 20
-64.333494
 30
0.0
 10
33.313211
 20
-63.575410
 30
0.0
 10
33.303393
 20
-63.464312
 30
0.0
 10
33.298225
 20
-63.450342
 30
0.0
 10
33.293058
 20
-63.436901
 30
0.0
 10
33.213477
 20
-63.335116
 30
0.0
 10
32.849674
 20
-62.971314
 30
0.0
 10
32.745804
 20
-62.891224
 30
0.0
 10
32.738571
 20
-62.888102
 30
0.0
 10
32.737536
 20
-62.888102
 30
0.0
 10
32.735986
 20
-62.888102
 30
0.0
 10
32.609896
 20
-62.873127
 30
0.0
 10
31.438908
 20
-62.873127
 30
0.0
 10
31.393432
 20
-62.868999
 30
0.0
 10
31.393432
 20
-62.868470
 30
0.0
  0
LWPOLYLINE
  5
154
100
AcDbEntity
  8
Merge
 62
7
100
AcDbPolyline
 90
9
 70
1
 10
31.647164
 20
-63.371284
 30
0.0
 10
32.542715
 20
-63.371284
 30
0.0
 10
32.813501
 20
-63.641556
 30
0.0
 10
32.813501
 20
-64.267878
 30
0.0
 10
32.543234
 20
-64.537620
 30
0.0
 10
32.260045
 20
-64.537620
 30
0.0
 10
32.195450
 20
-64.537620
 30
0.0
 10
31.647164
 20
-64.537620
 30
0.0
 10
31.647164
 20
-63.371284
 30
0.0
  0
LWPOLYLINE
  5
155
100
AcDbEntity
  8
Merge
 62
7
100
AcDbPolyline
 90
15
 70
1
 10
-28.126965
 20
-64.121113
 30
0.0
 10
-28.252023
 20
-64.154689
 30
0.0
 10
-28.343490
 20
-64.246155
 30
0.0
 10
-28.377078
 20
-64.371224
 30
0.0
 10
-28.343490
 20
-64.496292
 30
0.0
 10
-28.252023
 20
-64.587759
 30
0.0
 10
-28.126965
 20
-64.621335
 30
0.0
 10
-26.460918
 20
-64.621335
 30
0.0
 10
-26.335860
 20
-64.587759
 30
0.0
 10
-26.244393
 20
-64.496292
 30
0.0
 10
-26.210803
 20
-64.371224
 30
0.0
 10
-26.244393
 20
-64.246155
 30
0.0
 10
-26.335860
 20
-64.154689
 30
0.0
 10
-26.460918
 20
-64.121113
 30
0.0
 10
-28.126965
 20
-64.121113
 30
0.0
  0
LWPOLYLINE
  5
156
100
AcDbEntity
  8
Merge
 62
7
100
AcDbPolyline
 90
15
 70
1
 10
28.897977
 20
-64.121113
 30
0.0
 10
28.772922
 20
-64.154689
 30
0.0
 10
28.681452
 20
-64.246155
 30
0.0
 10
28.647864
 20
-64.371224
 30
0.0
 10
28.681452
 20
-64.496292
 30
0.0
 10
28.772922
 20
-64.587759
 30
0.0
 10
28.897977
 20
-64.621335
 30
0.0
 10
30.564026
 20
-64.621335
 30
0.0
 10
30.689082
 20
-64.587759
 30
0.0
 10
30.780551
 20
-64.496292
 30
0.0
 10
30.814140
 20
-64.371224
 30
0.0
 10
30.780551
 20
-64.246155
 30
0.0
 10
30.689082
 20
-64.154689
 30
0.0
 10
30.564026
 20
-64.121113
 30
0.0
 10
28.897977
 20
-64.121113
 30
0.0
  0
LWPOLYLINE
  5
157
100
AcDbEntity
  8
Merge
 62
7
100
AcDbPolyline
 90
52
 70
1
 10
-44.555421
 20
-66.898206
 30
0.0
 10
-38.736654
 20
-66.898206
 30
0.0
 10
-38.617798
 20
-66.898206
 30
0.0
 10
-37.850403
 20
-66.898206
 30
0.0
 10
-31.906062
 20
-66.898206
 30
0.0
 10
-30.634305
 20
-68.169450
 30
0.0
 10
-30.476177
 20
-68.290894
 30
0.0
 10
-30.470491
 20
-68.293460
 30
0.0
 10
-30.461707
 20
-68.297085
 30
0.0
 10
-30.275670
 20
-68.318781
 30
0.0
 10
-26.724983
 20
-68.318781
 30
0.0
 10
-26.535848
 20
-68.295524
 30
0.0
 10
-26.517761
 20
-68.288301
 30
0.0
 10
-26.367383
 20
-68.170985
 30
0.0
 10
-25.094592
 20
-66.898709
 30
0.0
 10
-19.150252
 20
-66.898709
 30
0.0
 10
-12.445235
 20
-66.898709
 30
0.0
 10
-12.445235
 20
-71.913410
 30
0.0
 10
-13.650846
 20
-73.119540
 30
0.0
 10
-13.773320
 20
-73.279216
 30
0.0
 10
-13.774870
 20
-73.283846
 30
0.0
 10
-13.779004
 20
-73.294720
 30
0.0
 10
-13.800191
 20
-73.479188
 30
0.0
 10
-13.800191
 20
-76.619580
 30
0.0
 10
-13.785205
 20
-76.785447
 30
0.0
 10
-13.777970
 20
-76.805609
 30
0.0
 10
-13.769702
 20
-76.826273
 30
0.0
 10
-13.653947
 20
-76.975630
 30
0.0
 10
-13.015226
 20
-77.613831
 30
0.0
 10
-12.445235
 20
-78.183823
 30
0.0
 10
-12.445235
 20
-81.805308
 30
0.0
 10
-12.448336
 20
-81.836820
 30
0.0
 10
-12.449369
 20
-81.865236
 30
0.0
 10
-12.447819
 20
-81.895742
 30
0.0
 10
-12.447819
 20
-81.898838
 30
0.0
 10
-12.445235
 20
-81.921063
 30
0.0
 10
-12.445235
 20
-83.444984
 30
0.0
 10
-44.555421
 20
-83.444984
 30
0.0
 10
-44.555421
 20
-78.185358
 30
0.0
 10
-43.984913
 20
-77.614863
 30
0.0
 10
-43.347741
 20
-76.977694
 30
0.0
 10
-43.230953
 20
-76.827305
 30
0.0
 10
-43.223717
 20
-76.810768
 30
0.0
 10
-43.200463
 20
-76.620083
 30
0.0
 10
-43.200463
 20
-73.479717
 30
0.0
 10
-43.225786
 20
-73.283343
 30
0.0
 10
-43.227853
 20
-73.278184
 30
0.0
 10
-43.230435
 20
-73.272495
 30
0.0
 10
-43.231985
 20
-73.269902
 30
0.0
 10
-43.349291
 20
-73.120571
 30
0.0
 10
-44.555421
 20
-71.914442
 30
0.0
 10
-44.555421
 20
-66.898206
 30
0.0
  0
LWPOLYLINE
  5
158
100
AcDbEntity
  8
Merge
 62
7
100
AcDbPolyline
 90
52
 70
1
 10
12.444718
 20
-66.898206
 30
0.0
 10
19.149735
 20
-66.898206
 30
0.0
 10
25.094076
 20
-66.898206
 30
0.0
 10
26.365833
 20
-68.169450
 30
0.0
 10
26.523963
 20
-68.290894
 30
0.0
 10
26.529646
 20
-68.293460
 30
0.0
 10
26.538431
 20
-68.297085
 30
0.0
 10
26.724467
 20
-68.318781
 30
0.0
 10
30.274638
 20
-68.318781
 30
0.0
 10
30.441035
 20
-68.303805
 30
0.0
 10
30.461707
 20
-68.296556
 30
0.0
 10
30.482376
 20
-68.288301
 30
0.0
 10
30.632755
 20
-68.170985
 30
0.0
 10
31.905546
 20
-66.898709
 30
0.0
 10
37.849887
 20
-66.898709
 30
0.0
 10
38.614697
 20
-66.898709
 30
0.0
 10
38.737170
 20
-66.898709
 30
0.0
 10
44.554902
 20
-66.898709
 30
0.0
 10
44.554902
 20
-71.913410
 30
0.0
 10
43.346190
 20
-73.122106
 30
0.0
 10
43.226818
 20
-73.279718
 30
0.0
 10
43.225268
 20
-73.283846
 30
0.0
 10
43.221135
 20
-73.294720
 30
0.0
 10
43.199947
 20
-73.479188
 30
0.0
 10
43.199947
 20
-76.619580
 30
0.0
 10
43.225268
 20
-76.815954
 30
0.0
 10
43.229403
 20
-76.825241
 30
0.0
 10
43.231469
 20
-76.829368
 30
0.0
 10
43.346709
 20
-76.976662
 30
0.0
 10
43.966310
 20
-77.595734
 30
0.0
 10
43.984394
 20
-77.614334
 30
0.0
 10
44.554902
 20
-78.184855
 30
0.0
 10
44.554902
 20
-83.444481
 30
0.0
 10
12.444718
 20
-83.444481
 30
0.0
 10
12.444718
 20
-81.917967
 30
0.0
 10
12.447819
 20
-81.886429
 30
0.0
 10
12.448336
 20
-81.858515
 30
0.0
 10
12.444718
 20
-81.803244
 30
0.0
 10
12.444718
 20
-78.184326
 30
0.0
 10
12.996106
 20
-77.632432
 30
0.0
 10
13.014709
 20
-77.614334
 30
0.0
 10
13.652913
 20
-76.976133
 30
0.0
 10
13.772803
 20
-76.818520
 30
0.0
 10
13.773836
 20
-76.815954
 30
0.0
 10
13.776420
 20
-76.809736
 30
0.0
 10
13.778487
 20
-76.803545
 30
0.0
 10
13.799674
 20
-76.619051
 30
0.0
 10
13.799674
 20
-73.478685
 30
0.0
 10
13.777454
 20
-73.291598
 30
0.0
 10
13.650846
 20
-73.119540
 30
0.0
 10
12.444718
 20
-71.913913
 30
0.0
 10
12.444718
 20
-66.898206
 30
0.0
  0
LWPOLYLINE
  5
159
100
AcDbEntity
  8
Merge
 62
7
100
AcDbPolyline
 90
42
 70
1
 10
-3.527433
 20
-70.693840
 30
0.0
 10
-3.527433
 20
-70.694871
 30
0.0
 10
-3.539319
 20
-70.694871
 30
0.0
 10
-3.581693
 20
-70.707280
 30
0.0
 10
-3.587378
 20
-70.709847
 30
0.0
 10
-3.587895
 20
-70.709847
 30
0.0
 10
-3.598230
 20
-70.716065
 30
0.0
 10
-3.598747
 20
-70.716065
 30
0.0
 10
-3.617867
 20
-70.732601
 30
0.0
 10
-3.652490
 20
-70.836979
 30
0.0
 10
-3.652490
 20
-72.345422
 30
0.0
 10
-3.588928
 20
-72.455488
 30
0.0
 10
-3.461804
 20
-72.455488
 30
0.0
 10
-3.398242
 20
-72.345422
 30
0.0
 10
-3.398242
 20
-71.128444
 30
0.0
 10
-3.120740
 20
-71.405939
 30
0.0
 10
-3.016353
 20
-71.457612
 30
0.0
 10
-3.014803
 20
-71.457612
 30
0.0
 10
-3.013253
 20
-71.457612
 30
0.0
 10
-2.989998
 20
-71.454517
 30
0.0
 10
-2.914034
 20
-71.405939
 30
0.0
 10
-2.636532
 20
-71.127915
 30
0.0
 10
-2.636532
 20
-72.345422
 30
0.0
 10
-2.575037
 20
-72.460145
 30
0.0
 10
-2.444295
 20
-72.460145
 30
0.0
 10
-2.382800
 20
-72.345422
 30
0.0
 10
-2.382800
 20
-70.839043
 30
0.0
 10
-2.411222
 20
-70.739321
 30
0.0
 10
-2.420007
 20
-70.730537
 30
0.0
 10
-2.446879
 20
-70.710376
 30
0.0
 10
-2.450496
 20
-70.707783
 30
0.0
 10
-2.451013
 20
-70.707783
 30
0.0
 10
-2.461865
 20
-70.702095
 30
0.0
 10
-2.462382
 20
-70.702095
 30
0.0
 10
-2.473751
 20
-70.697967
 30
0.0
 10
-2.474268
 20
-70.697967
 30
0.0
 10
-2.549198
 20
-70.699528
 30
0.0
 10
-2.610177
 20
-70.742417
 30
0.0
 10
-2.611210
 20
-70.744984
 30
0.0
 10
-3.017387
 20
-71.150643
 30
0.0
 10
-3.424080
 20
-70.744481
 30
0.0
 10
-3.527433
 20
-70.693840
 30
0.0
  0
LWPOLYLINE
  5
15a
100
AcDbEntity
  8
Merge
 62
7
100
AcDbPolyline
 90
50
 70
1
 10
-1.497583
 20
-70.694871
 30
0.0
 10
-1.598352
 20
-70.748106
 30
0.0
 10
-2.075326
 20
-71.225599
 30
0.0
 10
-2.077909
 20
-71.228166
 30
0.0
 10
-2.114600
 20
-71.272086
 30
0.0
 10
-2.117183
 20
-71.277775
 30
0.0
 10
-2.120801
 20
-71.285527
 30
0.0
 10
-2.128552
 20
-71.351673
 30
0.0
 10
-2.128552
 20
-71.561990
 30
0.0
 10
-2.128552
 20
-71.606440
 30
0.0
 10
-2.128552
 20
-72.347485
 30
0.0
 10
-2.067057
 20
-72.462711
 30
0.0
 10
-1.936316
 20
-72.462711
 30
0.0
 10
-1.874821
 20
-72.347485
 30
0.0
 10
-1.874821
 20
-71.712380
 30
0.0
 10
-1.113110
 20
-71.712380
 30
0.0
 10
-1.113110
 20
-72.347485
 30
0.0
 10
-1.107943
 20
-72.384686
 30
0.0
 10
-1.103809
 20
-72.397095
 30
0.0
 10
-1.098641
 20
-72.408472
 30
0.0
 10
-1.056266
 20
-72.454959
 30
0.0
 10
-1.045414
 20
-72.461680
 30
0.0
 10
-1.034045
 20
-72.467368
 30
0.0
 10
-1.021643
 20
-72.471496
 30
0.0
 10
-1.009241
 20
-72.474618
 30
0.0
 10
-0.996838
 20
-72.477184
 30
0.0
 10
-0.971517
 20
-72.477184
 30
0.0
 10
-0.946712
 20
-72.472025
 30
0.0
 10
-0.902787
 20
-72.447207
 30
0.0
 10
-0.893486
 20
-72.438423
 30
0.0
 10
-0.872298
 20
-72.406911
 30
0.0
 10
-0.862996
 20
-72.383151
 30
0.0
 10
-0.859379
 20
-72.358333
 30
0.0
 10
-0.858862
 20
-72.349549
 30
0.0
 10
-0.858862
 20
-71.606970
 30
0.0
 10
-0.858862
 20
-71.569743
 30
0.0
 10
-0.858862
 20
-71.348048
 30
0.0
 10
-0.864030
 20
-71.295872
 30
0.0
 10
-0.864547
 20
-71.293280
 30
0.0
 10
-0.868681
 20
-71.283464
 30
0.0
 10
-0.871781
 20
-71.276743
 30
0.0
 10
-0.875399
 20
-71.270023
 30
0.0
 10
-0.907438
 20
-71.231790
 30
0.0
 10
-1.390096
 20
-70.749640
 30
0.0
 10
-1.470194
 20
-70.699528
 30
0.0
 10
-1.479496
 20
-70.696935
 30
0.0
 10
-1.482597
 20
-70.696935
 30
0.0
 10
-1.483630
 20
-70.696935
 30
0.0
 10
-1.497583
 20
-70.696935
 30
0.0
 10
-1.497583
 20
-70.694871
 30
0.0
  0
LWPOLYLINE
  5
15b
100
AcDbEntity
  8
Merge
 62
7
100
AcDbPolyline
 90
53
 70
1
 10
-0.226860
 20
-70.694871
 30
0.0
 10
-0.273885
 20
-70.705719
 30
0.0
 10
-0.280603
 20
-70.708815
 30
0.0
 10
-0.287321
 20
-70.712440
 30
0.0
 10
-0.327629
 20
-70.747074
 30
0.0
 10
-0.555522
 20
-70.974959
 30
0.0
 10
-0.590145
 20
-71.015255
 30
0.0
 10
-0.591695
 20
-71.018351
 30
0.0
 10
-0.592212
 20
-71.018351
 30
0.0
 10
-0.596346
 20
-71.028194
 30
0.0
 10
-0.598413
 20
-71.033353
 30
0.0
 10
-0.605131
 20
-71.096906
 30
0.0
 10
-0.605131
 20
-72.073589
 30
0.0
 10
-0.596346
 20
-72.140264
 30
0.0
 10
-0.595829
 20
-72.142830
 30
0.0
 10
-0.594796
 20
-72.145423
 30
0.0
 10
-0.589111
 20
-72.156800
 30
0.0
 10
-0.582393
 20
-72.167648
 30
0.0
 10
-0.554488
 20
-72.197096
 30
0.0
 10
-0.326595
 20
-72.425008
 30
0.0
 10
-0.283704
 20
-72.460648
 30
0.0
 10
-0.267684
 20
-72.467897
 30
0.0
 10
-0.204122
 20
-72.474618
 30
0.0
 10
0.264583
 20
-72.474618
 30
0.0
 10
0.330729
 20
-72.466336
 30
0.0
 10
0.333313
 20
-72.466336
 30
0.0
 10
0.334863
 20
-72.466336
 30
0.0
 10
0.386540
 20
-72.426040
 30
0.0
 10
0.627352
 20
-72.185746
 30
0.0
 10
0.660425
 20
-72.062741
 30
0.0
 10
0.570508
 20
-71.972835
 30
0.0
 10
0.447518
 20
-72.005908
 30
0.0
 10
0.230994
 20
-72.222946
 30
0.0
 10
-0.171566
 20
-72.222946
 30
0.0
 10
-0.351400
 20
-72.043109
 30
0.0
 10
-0.351400
 20
-71.133074
 30
0.0
 10
-0.171566
 20
-70.953264
 30
0.0
 10
0.230994
 20
-70.953264
 30
0.0
 10
0.447518
 20
-71.170301
 30
0.0
 10
0.570508
 20
-71.202845
 30
0.0
 10
0.660425
 20
-71.112940
 30
0.0
 10
0.627352
 20
-70.990464
 30
0.0
 10
0.387573
 20
-70.751201
 30
0.0
 10
0.344165
 20
-70.714504
 30
0.0
 10
0.342098
 20
-70.711911
 30
0.0
 10
0.341064
 20
-70.711911
 30
0.0
 10
0.331763
 20
-70.707280
 30
0.0
 10
0.329696
 20
-70.707280
 30
0.0
 10
0.327629
 20
-70.707280
 30
0.0
 10
0.263033
 20
-70.700560
 30
0.0
 10
-0.205672
 20
-70.700560
 30
0.0
 10
-0.226860
 20
-70.697464
 30
0.0
 10
-0.226860
 20
-70.694871
 30
0.0
  0
LWPOLYLINE
  5
15c
100
AcDbEntity
  8
Merge
 62
7
100
AcDbPolyline
 90
49
 70
1
 10
1.043347
 20
-70.694871
 30
0.0
 10
0.953430
 20
-70.734136
 30
0.0
 10
0.951880
 20
-70.736729
 30
0.0
 10
0.945162
 20
-70.744481
 30
0.0
 10
0.944645
 20
-70.744481
 30
0.0
 10
0.918290
 20
-70.844731
 30
0.0
 10
0.918290
 20
-71.819351
 30
0.0
 10
0.918290
 20
-71.860176
 30
0.0
 10
0.918290
 20
-72.347485
 30
0.0
 10
0.979785
 20
-72.462711
 30
0.0
 10
1.110527
 20
-72.462711
 30
0.0
 10
1.172021
 20
-72.347485
 30
0.0
 10
1.172021
 20
-71.966618
 30
0.0
 10
1.500684
 20
-71.966618
 30
0.0
 10
1.970939
 20
-72.436888
 30
0.0
 10
2.094446
 20
-72.472025
 30
0.0
 10
2.185396
 20
-72.381061
 30
0.0
 10
2.150773
 20
-72.257554
 30
0.0
 10
1.852083
 20
-71.959897
 30
0.0
 10
1.856734
 20
-71.957331
 30
0.0
 10
1.858801
 20
-71.957331
 30
0.0
 10
1.908927
 20
-71.918569
 30
0.0
 10
2.136820
 20
-71.690155
 30
0.0
 10
2.177645
 20
-71.638481
 30
0.0
 10
2.179195
 20
-71.634857
 30
0.0
 10
2.179712
 20
-71.632290
 30
0.0
 10
2.183329
 20
-71.622474
 30
0.0
 10
2.183846
 20
-71.619352
 30
0.0
 10
2.187980
 20
-71.568711
 30
0.0
 10
2.187980
 20
-71.096906
 30
0.0
 10
2.182812
 20
-71.041105
 30
0.0
 10
2.182296
 20
-71.038512
 30
0.0
 10
2.178678
 20
-71.028696
 30
0.0
 10
2.177645
 20
-71.026103
 30
0.0
 10
2.172994
 20
-71.016816
 30
0.0
 10
2.171960
 20
-71.014224
 30
0.0
 10
2.171444
 20
-71.014224
 30
0.0
 10
2.137337
 20
-70.974959
 30
0.0
 10
1.909444
 20
-70.747074
 30
0.0
 10
1.867586
 20
-70.712440
 30
0.0
 10
1.865519
 20
-70.709847
 30
0.0
 10
1.864486
 20
-70.709847
 30
0.0
 10
1.855184
 20
-70.705217
 30
0.0
 10
1.853117
 20
-70.705217
 30
0.0
 10
1.851050
 20
-70.705217
 30
0.0
 10
1.786971
 20
-70.698496
 30
0.0
 10
1.068669
 20
-70.698496
 30
0.0
 10
1.043347
 20
-70.695374
 30
0.0
 10
1.043347
 20
-70.694871
 30
0.0
  0
LWPOLYLINE
  5
15d
100
AcDbEntity
  8
Merge
 62
7
100
AcDbPolyline
 90
53
 70
1
 10
2.819983
 20
-70.694871
 30
0.0
 10
2.772957
 20
-70.705719
 30
0.0
 10
2.766239
 20
-70.708815
 30
0.0
 10
2.759522
 20
-70.712440
 30
0.0
 10
2.719731
 20
-70.746545
 30
0.0
 10
2.490804
 20
-70.975991
 30
0.0
 10
2.456181
 20
-71.017319
 30
0.0
 10
2.450496
 20
-71.029225
 30
0.0
 10
2.447396
 20
-71.038512
 30
0.0
 10
2.446362
 20
-71.041105
 30
0.0
 10
2.445846
 20
-71.044201
 30
0.0
 10
2.441711
 20
-71.095874
 30
0.0
 10
2.441711
 20
-72.074621
 30
0.0
 10
2.446879
 20
-72.130950
 30
0.0
 10
2.449463
 20
-72.137671
 30
0.0
 10
2.451013
 20
-72.143359
 30
0.0
 10
2.452047
 20
-72.145952
 30
0.0
 10
2.457731
 20
-72.157303
 30
0.0
 10
2.492354
 20
-72.197625
 30
0.0
 10
2.720247
 20
-72.425511
 30
0.0
 10
2.762105
 20
-72.460145
 30
0.0
 10
2.764172
 20
-72.462711
 30
0.0
 10
2.778642
 20
-72.468929
 30
0.0
 10
2.843237
 20
-72.476152
 30
0.0
 10
3.311943
 20
-72.476152
 30
0.0
 10
3.378605
 20
-72.467368
 30
0.0
 10
3.380156
 20
-72.467368
 30
0.0
 10
3.382222
 20
-72.467368
 30
0.0
 10
3.393591
 20
-72.461680
 30
0.0
 10
3.433382
 20
-72.427575
 30
0.0
 10
3.662826
 20
-72.198657
 30
0.0
 10
3.696932
 20
-72.156800
 30
0.0
 10
3.702616
 20
-72.144920
 30
0.0
 10
3.703650
 20
-72.142327
 30
0.0
 10
3.704683
 20
-72.139735
 30
0.0
 10
3.711401
 20
-72.078245
 30
0.0
 10
3.711401
 20
-71.099499
 30
0.0
 10
3.706234
 20
-71.043169
 30
0.0
 10
3.705717
 20
-71.040576
 30
0.0
 10
3.702100
 20
-71.030760
 30
0.0
 10
3.701066
 20
-71.028194
 30
0.0
 10
3.695382
 20
-71.016816
 30
0.0
 10
3.660759
 20
-70.976494
 30
0.0
 10
3.432865
 20
-70.748608
 30
0.0
 10
3.389974
 20
-70.712942
 30
0.0
 10
3.388424
 20
-70.712942
 30
0.0
 10
3.378605
 20
-70.708815
 30
0.0
 10
3.376538
 20
-70.708815
 30
0.0
 10
3.373954
 20
-70.708815
 30
0.0
 10
3.310392
 20
-70.702095
 30
0.0
 10
2.841170
 20
-70.702095
 30
0.0
 10
2.819983
 20
-70.699528
 30
0.0
 10
2.819983
 20
-70.694871
 30
0.0
  0
LWPOLYLINE
  5
15e
100
AcDbEntity
  8
Merge
 62
7
100
AcDbPolyline
 90
9
 70
1
 10
1.172021
 20
-70.950141
 30
0.0
 10
1.754415
 20
-70.950141
 30
0.0
 10
1.933732
 20
-71.129979
 30
0.0
 10
1.933732
 20
-71.532542
 30
0.0
 10
1.754415
 20
-71.711850
 30
0.0
 10
1.568380
 20
-71.711850
 30
0.0
 10
1.535824
 20
-71.711850
 30
0.0
 10
1.172021
 20
-71.711850
 30
0.0
 10
1.172021
 20
-70.950141
 30
0.0
  0
LWPOLYLINE
  5
15f
100
AcDbEntity
  8
Merge
 62
7
100
AcDbPolyline
 90
9
 70
1
 10
2.875277
 20
-70.950141
 30
0.0
 10
3.277836
 20
-70.950141
 30
0.0
 10
3.457153
 20
-71.129979
 30
0.0
 10
3.457153
 20
-72.040013
 30
0.0
 10
3.277836
 20
-72.219850
 30
0.0
 10
2.875277
 20
-72.219850
 30
0.0
 10
2.695959
 20
-72.040013
 30
0.0
 10
2.695959
 20
-71.129979
 30
0.0
 10
2.875277
 20
-70.950141
 30
0.0
  0
LWPOLYLINE
  5
160
100
AcDbEntity
  8
Merge
 62
7
100
AcDbPolyline
 90
6
 70
1
 10
-1.493966
 20
-71.002873
 30
0.0
 10
-1.113110
 20
-71.383714
 30
0.0
 10
-1.113110
 20
-71.458141
 30
0.0
 10
-1.874821
 20
-71.458141
 30
0.0
 10
-1.874821
 20
-71.383714
 30
0.0
 10
-1.493966
 20
-71.002873
 30
0.0
  0
LWPOLYLINE
  5
161
100
AcDbEntity
  8
Merge
 62
7
100
AcDbPolyline
 90
4
 70
1
 10
-0.000517
 20
-78.493359
 30
0.0
 10
-1.270207
 20
-80.398148
 30
0.0
 10
1.269690
 20
-80.398148
 30
0.0
 10
-0.000517
 20
-78.493359
 30
0.0
  0
LWPOLYLINE
  5
162
100
AcDbEntity
  8
Merge
 62
7
100
AcDbPolyline
 90
52
 70
1
 10
2.689241
 20
-81.014653
 30
0.0
 10
2.689241
 20
-81.019310
 30
0.0
 10
2.643766
 20
-81.029629
 30
0.0
 10
2.642216
 20
-81.029629
 30
0.0
 10
2.640149
 20
-81.029629
 30
0.0
 10
2.617928
 20
-81.042038
 30
0.0
 10
2.588472
 20
-81.069951
 30
0.0
 10
2.360579
 20
-81.297837
 30
0.0
 10
2.324923
 20
-81.340726
 30
0.0
 10
2.322339
 20
-81.346414
 30
0.0
 10
2.318722
 20
-81.354167
 30
0.0
 10
2.310970
 20
-81.420312
 30
0.0
 10
2.310970
 20
-82.396995
 30
0.0
 10
2.320272
 20
-82.465205
 30
0.0
 10
2.322856
 20
-82.470894
 30
0.0
 10
2.333708
 20
-82.489494
 30
0.0
 10
2.361613
 20
-82.518942
 30
0.0
 10
2.589506
 20
-82.746854
 30
0.0
 10
2.621029
 20
-82.775773
 30
0.0
 10
2.628780
 20
-82.780430
 30
0.0
 10
2.633431
 20
-82.783525
 30
0.0
 10
2.634981
 20
-82.783525
 30
0.0
 10
2.645833
 20
-82.788182
 30
0.0
 10
2.711979
 20
-82.795934
 30
0.0
 10
3.180684
 20
-82.795934
 30
0.0
 10
3.248897
 20
-82.786647
 30
0.0
 10
3.254582
 20
-82.784054
 30
0.0
 10
3.302641
 20
-82.745293
 30
0.0
 10
3.531567
 20
-82.516878
 30
0.0
 10
3.566191
 20
-82.475021
 30
0.0
 10
3.570325
 20
-82.466237
 30
0.0
 10
3.571875
 20
-82.463141
 30
0.0
 10
3.572392
 20
-82.460046
 30
0.0
 10
3.576009
 20
-82.450732
 30
0.0
 10
3.576526
 20
-82.447637
 30
0.0
 10
3.580660
 20
-82.396493
 30
0.0
 10
3.580660
 20
-81.412560
 30
0.0
 10
3.575492
 20
-81.360358
 30
0.0
 10
3.574976
 20
-81.357791
 30
0.0
 10
3.571358
 20
-81.347975
 30
0.0
 10
3.570325
 20
-81.345382
 30
0.0
 10
3.531051
 20
-81.294741
 30
0.0
 10
3.303674
 20
-81.067887
 30
0.0
 10
3.260266
 20
-81.031190
 30
0.0
 10
3.258199
 20
-81.028597
 30
0.0
 10
3.257166
 20
-81.028597
 30
0.0
 10
3.247864
 20
-81.024469
 30
0.0
 10
3.245797
 20
-81.024469
 30
0.0
 10
3.243730
 20
-81.024469
 30
0.0
 10
3.179134
 20
-81.017246
 30
0.0
 10
2.710429
 20
-81.017246
 30
0.0
 10
2.689241
 20
-81.014653
 30
0.0
  0
LWPOLYLINE
  5
163
100
AcDbEntity
  8
Merge
 62
7
100
AcDbPolyline
 90
51
 70
1
 10
-7.975224
 20
-81.015685
 30
0.0
 10
-7.975224
 20
-81.019310
 30
0.0
 10
-8.021216
 20
-81.029629
 30
0.0
 10
-8.022249
 20
-81.029629
 30
0.0
 10
-8.024316
 20
-81.029629
 30
0.0
 10
-8.075993
 20
-81.069951
 30
0.0
 10
-8.304919
 20
-81.298366
 30
0.0
 10
-8.343677
 20
-81.349510
 30
0.0
 10
-8.345227
 20
-81.352103
 30
0.0
 10
-8.345744
 20
-81.354696
 30
0.0
 10
-8.349361
 20
-81.364512
 30
0.0
 10
-8.349878
 20
-81.367078
 30
0.0
 10
-8.354012
 20
-81.418249
 30
0.0
 10
-8.354012
 20
-82.402684
 30
0.0
 10
-8.348845
 20
-82.454357
 30
0.0
 10
-8.346261
 20
-82.461077
 30
0.0
 10
-8.344710
 20
-82.466237
 30
0.0
 10
-8.343677
 20
-82.468830
 30
0.0
 10
-8.304403
 20
-82.519471
 30
0.0
 10
-8.076510
 20
-82.746854
 30
0.0
 10
-8.033618
 20
-82.783022
 30
0.0
 10
-8.032585
 20
-82.783022
 30
0.0
 10
-8.030517
 20
-82.783022
 30
0.0
 10
-8.019149
 20
-82.788182
 30
0.0
 10
-7.952486
 20
-82.795934
 30
0.0
 10
-7.483781
 20
-82.795934
 30
0.0
 10
-7.415568
 20
-82.786647
 30
0.0
 10
-7.409884
 20
-82.784054
 30
0.0
 10
-7.391280
 20
-82.773206
 30
0.0
 10
-7.361825
 20
-82.745293
 30
0.0
 10
-7.133932
 20
-82.517407
 30
0.0
 10
-7.099308
 20
-82.477085
 30
0.0
 10
-7.098275
 20
-82.474518
 30
0.0
 10
-7.097241
 20
-82.471925
 30
0.0
 10
-7.096725
 20
-82.471925
 30
0.0
 10
-7.092074
 20
-82.461077
 30
0.0
 10
-7.084322
 20
-82.394932
 30
0.0
 10
-7.084322
 20
-81.418249
 30
0.0
 10
-7.093624
 20
-81.350039
 30
0.0
 10
-7.096725
 20
-81.343319
 30
0.0
 10
-7.100342
 20
-81.336598
 30
0.0
 10
-7.134965
 20
-81.296276
 30
0.0
 10
-7.362858
 20
-81.068390
 30
0.0
 10
-7.394381
 20
-81.039445
 30
0.0
 10
-7.396448
 20
-81.036878
 30
0.0
 10
-7.406266
 20
-81.031190
 30
0.0
 10
-7.407300
 20
-81.031190
 30
0.0
 10
-7.421769
 20
-81.024999
 30
0.0
 10
-7.485331
 20
-81.018278
 30
0.0
 10
-7.954036
 20
-81.018278
 30
0.0
 10
-7.975224
 20
-81.015685
 30
0.0
  0
LWPOLYLINE
  5
164
100
AcDbEntity
  8
Merge
 62
7
100
AcDbPolyline
 90
53
 70
1
 10
-6.451803
 20
-81.016717
 30
0.0
 10
-6.451803
 20
-81.019310
 30
0.0
 10
-6.497278
 20
-81.029629
 30
0.0
 10
-6.498828
 20
-81.029629
 30
0.0
 10
-6.500895
 20
-81.029629
 30
0.0
 10
-6.523116
 20
-81.042038
 30
0.0
 10
-6.552572
 20
-81.069951
 30
0.0
 10
-6.780465
 20
-81.297837
 30
0.0
 10
-6.816121
 20
-81.340726
 30
0.0
 10
-6.818705
 20
-81.346414
 30
0.0
 10
-6.822323
 20
-81.354167
 30
0.0
 10
-6.830074
 20
-81.420312
 30
0.0
 10
-6.830074
 20
-82.396995
 30
0.0
 10
-6.820772
 20
-82.465205
 30
0.0
 10
-6.818188
 20
-82.470894
 30
0.0
 10
-6.807337
 20
-82.489494
 30
0.0
 10
-6.779431
 20
-82.518942
 30
0.0
 10
-6.551538
 20
-82.746854
 30
0.0
 10
-6.520015
 20
-82.775773
 30
0.0
 10
-6.512264
 20
-82.780430
 30
0.0
 10
-6.507613
 20
-82.783525
 30
0.0
 10
-6.506063
 20
-82.783525
 30
0.0
 10
-6.495211
 20
-82.788182
 30
0.0
 10
-6.429065
 20
-82.795934
 30
0.0
 10
-5.960360
 20
-82.795934
 30
0.0
 10
-5.892147
 20
-82.786647
 30
0.0
 10
-5.886462
 20
-82.784054
 30
0.0
 10
-5.838403
 20
-82.745293
 30
0.0
 10
-5.597591
 20
-82.504998
 30
0.0
 10
-5.564518
 20
-82.382020
 30
0.0
 10
-5.654435
 20
-82.292088
 30
0.0
 10
-5.777425
 20
-82.325161
 30
0.0
 10
-5.993949
 20
-82.542199
 30
0.0
 10
-6.396509
 20
-82.542199
 30
0.0
 10
-6.576343
 20
-82.362361
 30
0.0
 10
-6.576343
 20
-81.452354
 30
0.0
 10
-6.396509
 20
-81.272516
 30
0.0
 10
-5.993949
 20
-81.272516
 30
0.0
 10
-5.777425
 20
-81.489554
 30
0.0
 10
-5.687508
 20
-81.526754
 30
0.0
 10
-5.597591
 20
-81.489554
 30
0.0
 10
-5.560384
 20
-81.399649
 30
0.0
 10
-5.597591
 20
-81.309717
 30
0.0
 10
-5.837370
 20
-81.070454
 30
0.0
 10
-5.880778
 20
-81.033783
 30
0.0
 10
-5.882845
 20
-81.030661
 30
0.0
 10
-5.883879
 20
-81.030661
 30
0.0
 10
-5.893180
 20
-81.026533
 30
0.0
 10
-5.895247
 20
-81.026533
 30
0.0
 10
-5.897314
 20
-81.026533
 30
0.0
 10
-5.961910
 20
-81.019310
 30
0.0
 10
-6.430615
 20
-81.019310
 30
0.0
 10
-6.451803
 20
-81.016717
 30
0.0
  0
LWPOLYLINE
  5
165
100
AcDbEntity
  8
Merge
 62
7
100
AcDbPolyline
 90
38
 70
1
 10
-3.658175
 20
-81.017749
 30
0.0
 10
-3.658175
 20
-81.019310
 30
0.0
 10
-3.738273
 20
-81.049790
 30
0.0
 10
-3.747575
 20
-81.058071
 30
0.0
 10
-3.748092
 20
-81.058071
 30
0.0
 10
-3.749642
 20
-81.060638
 30
0.0
 10
-3.756360
 20
-81.068390
 30
0.0
 10
-3.756877
 20
-81.068390
 30
0.0
 10
-3.783232
 20
-81.168641
 30
0.0
 10
-3.783232
 20
-81.889022
 30
0.0
 10
-3.783232
 20
-81.930350
 30
0.0
 10
-3.783232
 20
-82.650731
 30
0.0
 10
-3.756360
 20
-82.751484
 30
0.0
 10
-3.754810
 20
-82.754077
 30
0.0
 10
-3.753776
 20
-82.754077
 30
0.0
 10
-3.745508
 20
-82.762861
 30
0.0
 10
-3.742924
 20
-82.765454
 30
0.0
 10
-3.736723
 20
-82.771143
 30
0.0
 10
-3.735689
 20
-82.771143
 30
0.0
 10
-3.635437
 20
-82.797998
 30
0.0
 10
-2.640666
 20
-82.797998
 30
0.0
 10
-2.525427
 20
-82.736006
 30
0.0
 10
-2.525427
 20
-82.605778
 30
0.0
 10
-2.640666
 20
-82.544262
 30
0.0
 10
-3.529500
 20
-82.544262
 30
0.0
 10
-3.529500
 20
-82.036289
 30
0.0
 10
-3.148645
 20
-82.036289
 30
0.0
 10
-3.033407
 20
-81.974297
 30
0.0
 10
-3.033407
 20
-81.844069
 30
0.0
 10
-3.148645
 20
-81.782554
 30
0.0
 10
-3.529500
 20
-81.782554
 30
0.0
 10
-3.529500
 20
-81.274580
 30
0.0
 10
-2.640666
 20
-81.274580
 30
0.0
 10
-2.525427
 20
-81.212562
 30
0.0
 10
-2.525427
 20
-81.082360
 30
0.0
 10
-2.640666
 20
-81.020845
 30
0.0
 10
-3.632853
 20
-81.020845
 30
0.0
 10
-3.658175
 20
-81.017749
 30
0.0
  0
LWPOLYLINE
  5
166
100
AcDbEntity
  8
Merge
 62
7
100
AcDbPolyline
 90
33
 70
1
 10
-1.626774
 20
-81.017749
 30
0.0
 10
-1.626774
 20
-81.019310
 30
0.0
 10
-1.645894
 20
-81.021876
 30
0.0
 10
-2.132686
 20
-81.021876
 30
0.0
 10
-2.247925
 20
-81.083392
 30
0.0
 10
-2.247925
 20
-81.214123
 30
0.0
 10
-2.132686
 20
-81.275612
 30
0.0
 10
-1.751831
 20
-81.275612
 30
0.0
 10
-1.751831
 20
-82.672427
 30
0.0
 10
-1.690336
 20
-82.787679
 30
0.0
 10
-1.559595
 20
-82.787679
 30
0.0
 10
-1.498100
 20
-82.672427
 30
0.0
 10
-1.498100
 20
-81.275612
 30
0.0
 10
-1.117244
 20
-81.275612
 30
0.0
 10
-1.104325
 20
-81.275612
 30
0.0
 10
-1.091923
 20
-81.273045
 30
0.0
 10
-1.079521
 20
-81.269923
 30
0.0
 10
-1.067635
 20
-81.265796
 30
0.0
 10
-1.055750
 20
-81.260107
 30
0.0
 10
-1.044897
 20
-81.253916
 30
0.0
 10
-1.035079
 20
-81.246693
 30
0.0
 10
-1.025260
 20
-81.237882
 30
0.0
 10
-1.009241
 20
-81.218250
 30
0.0
 10
-0.993221
 20
-81.184145
 30
0.0
 10
-0.988570
 20
-81.158825
 30
0.0
 10
-1.004590
 20
-81.085456
 30
0.0
 10
-1.011308
 20
-81.075111
 30
0.0
 10
-1.019576
 20
-81.064765
 30
0.0
 10
-1.083138
 20
-81.025501
 30
0.0
 10
-1.095540
 20
-81.022908
 30
0.0
 10
-1.117244
 20
-81.020342
 30
0.0
 10
-1.601453
 20
-81.020342
 30
0.0
 10
-1.626774
 20
-81.017749
 30
0.0
  0
LWPOLYLINE
  5
167
100
AcDbEntity
  8
Merge
 62
7
100
AcDbPolyline
 90
20
 70
1
 10
3.959448
 20
-81.017749
 30
0.0
 10
3.959448
 20
-81.019310
 30
0.0
 10
3.870048
 20
-81.057542
 30
0.0
 10
3.834391
 20
-81.147977
 30
0.0
 10
3.834391
 20
-82.648138
 30
0.0
 10
3.862813
 20
-82.754077
 30
0.0
 10
3.863330
 20
-82.754077
 30
0.0
 10
3.871598
 20
-82.762359
 30
0.0
 10
3.877799
 20
-82.768047
 30
0.0
 10
3.880900
 20
-82.770614
 30
0.0
 10
3.881934
 20
-82.770614
 30
0.0
 10
3.982186
 20
-82.796966
 30
0.0
 10
4.976957
 20
-82.796966
 30
0.0
 10
5.092196
 20
-82.735477
 30
0.0
 10
5.092196
 20
-82.604746
 30
0.0
 10
4.976957
 20
-82.543231
 30
0.0
 10
4.088123
 20
-82.543231
 30
0.0
 10
4.088123
 20
-81.146416
 30
0.0
 10
4.050916
 20
-81.054949
 30
0.0
 10
3.959448
 20
-81.017749
 30
0.0
  0
LWPOLYLINE
  5
168
100
AcDbEntity
  8
Merge
 62
7
100
AcDbPolyline
 90
37
 70
1
 10
7.006291
 20
-81.018278
 30
0.0
 10
7.006291
 20
-81.019310
 30
0.0
 10
6.926192
 20
-81.049790
 30
0.0
 10
6.925159
 20
-81.049790
 30
0.0
 10
6.916890
 20
-81.058071
 30
0.0
 10
6.911206
 20
-81.063734
 30
0.0
 10
6.908105
 20
-81.067358
 30
0.0
 10
6.907589
 20
-81.067358
 30
0.0
 10
6.881234
 20
-81.167609
 30
0.0
 10
6.881234
 20
-81.887990
 30
0.0
 10
6.881234
 20
-81.929318
 30
0.0
 10
6.881234
 20
-82.649699
 30
0.0
 10
6.902421
 20
-82.742197
 30
0.0
 10
6.902938
 20
-82.742197
 30
0.0
 10
6.910173
 20
-82.751484
 30
0.0
 10
6.917407
 20
-82.759766
 30
0.0
 10
6.918958
 20
-82.762359
 30
0.0
 10
6.920508
 20
-82.764925
 30
0.0
 10
7.029028
 20
-82.797998
 30
0.0
 10
8.023800
 20
-82.797998
 30
0.0
 10
8.139038
 20
-82.736509
 30
0.0
 10
8.139038
 20
-82.605778
 30
0.0
 10
8.023800
 20
-82.544262
 30
0.0
 10
7.135482
 20
-82.544262
 30
0.0
 10
7.135482
 20
-82.036289
 30
0.0
 10
7.516337
 20
-82.036289
 30
0.0
 10
7.631576
 20
-81.974800
 30
0.0
 10
7.631576
 20
-81.844069
 30
0.0
 10
7.516337
 20
-81.782554
 30
0.0
 10
7.135482
 20
-81.782554
 30
0.0
 10
7.135482
 20
-81.274580
 30
0.0
 10
8.023800
 20
-81.274580
 30
0.0
 10
8.139038
 20
-81.213091
 30
0.0
 10
8.139038
 20
-81.082863
 30
0.0
 10
8.023800
 20
-81.020845
 30
0.0
 10
7.031612
 20
-81.020845
 30
0.0
 10
7.006291
 20
-81.018278
 30
0.0
  0
LWPOLYLINE
  5
169
100
AcDbEntity
  8
Merge
 62
7
100
AcDbPolyline
 90
29
 70
1
 10
5.990849
 20
-81.018781
 30
0.0
 10
5.990849
 20
-81.019310
 30
0.0
 10
5.971728
 20
-81.021876
 30
0.0
 10
5.484937
 20
-81.021876
 30
0.0
 10
5.369698
 20
-81.083392
 30
0.0
 10
5.369698
 20
-81.214123
 30
0.0
 10
5.484937
 20
-81.275612
 30
0.0
 10
5.865792
 20
-81.275612
 30
0.0
 10
5.865792
 20
-82.672427
 30
0.0
 10
5.927287
 20
-82.787679
 30
0.0
 10
6.058028
 20
-82.787679
 30
0.0
 10
6.119523
 20
-82.672427
 30
0.0
 10
6.119523
 20
-81.275612
 30
0.0
 10
6.500378
 20
-81.275612
 30
0.0
 10
6.525700
 20
-81.273045
 30
0.0
 10
6.538102
 20
-81.269923
 30
0.0
 10
6.561357
 20
-81.260636
 30
0.0
 10
6.582544
 20
-81.246693
 30
0.0
 10
6.600631
 20
-81.228595
 30
0.0
 10
6.608382
 20
-81.218250
 30
0.0
 10
6.619751
 20
-81.196025
 30
0.0
 10
6.623885
 20
-81.184145
 30
0.0
 10
6.628536
 20
-81.133504
 30
0.0
 10
6.605798
 20
-81.075111
 30
0.0
 10
6.534485
 20
-81.025501
 30
0.0
 10
6.509163
 20
-81.021374
 30
0.0
 10
6.500378
 20
-81.021374
 30
0.0
 10
6.016170
 20
-81.021374
 30
0.0
 10
5.990849
 20
-81.018781
 30
0.0
  0
LWPOLYLINE
  5
16a
100
AcDbEntity
  8
Merge
 62
7
100
AcDbPolyline
 90
51
 70
1
 10
-9.752376
 20
-81.019310
 30
0.0
 10
-9.832475
 20
-81.049790
 30
0.0
 10
-9.833508
 20
-81.049790
 30
0.0
 10
-9.841777
 20
-81.058071
 30
0.0
 10
-9.847461
 20
-81.063734
 30
0.0
 10
-9.850562
 20
-81.067358
 30
0.0
 10
-9.851078
 20
-81.067358
 30
0.0
 10
-9.857796
 20
-81.076672
 30
0.0
 10
-9.858313
 20
-81.076672
 30
0.0
 10
-9.877433
 20
-81.166577
 30
0.0
 10
-9.877433
 20
-82.142228
 30
0.0
 10
-9.877433
 20
-82.182021
 30
0.0
 10
-9.877433
 20
-82.669331
 30
0.0
 10
-9.813871
 20
-82.779398
 30
0.0
 10
-9.686747
 20
-82.779398
 30
0.0
 10
-9.623185
 20
-82.669331
 30
0.0
 10
-9.623185
 20
-82.288463
 30
0.0
 10
-9.007202
 20
-82.288463
 30
0.0
 10
-8.950875
 20
-82.283304
 30
0.0
 10
-8.948808
 20
-82.283304
 30
0.0
 10
-8.938989
 20
-82.279679
 30
0.0
 10
-8.936922
 20
-82.279679
 30
0.0
 10
-8.927621
 20
-82.275049
 30
0.0
 10
-8.925553
 20
-82.275049
 30
0.0
 10
-8.924520
 20
-82.275049
 30
0.0
 10
-8.886279
 20
-82.242479
 30
0.0
 10
-8.659420
 20
-82.015096
 30
0.0
 10
-8.622730
 20
-81.971704
 30
0.0
 10
-8.621696
 20
-81.971704
 30
0.0
 10
-8.620662
 20
-81.969111
 30
0.0
 10
-8.616528
 20
-81.959824
 30
0.0
 10
-8.615495
 20
-81.956702
 30
0.0
 10
-8.614978
 20
-81.954136
 30
0.0
 10
-8.607743
 20
-81.891588
 30
0.0
 10
-8.607743
 20
-81.420842
 30
0.0
 10
-8.612911
 20
-81.364512
 30
0.0
 10
-8.613428
 20
-81.361919
 30
0.0
 10
-8.617045
 20
-81.352103
 30
0.0
 10
-8.618079
 20
-81.349510
 30
0.0
 10
-8.623763
 20
-81.338159
 30
0.0
 10
-8.658386
 20
-81.297837
 30
0.0
 10
-8.886279
 20
-81.069951
 30
0.0
 10
-8.929171
 20
-81.034285
 30
0.0
 10
-8.930721
 20
-81.034285
 30
0.0
 10
-8.940540
 20
-81.030158
 30
0.0
 10
-8.942607
 20
-81.030158
 30
0.0
 10
-8.945190
 20
-81.030158
 30
0.0
 10
-9.008752
 20
-81.023437
 30
0.0
 10
-9.727055
 20
-81.023437
 30
0.0
 10
-9.752376
 20
-81.020845
 30
0.0
 10
-9.752376
 20
-81.019310
 30
0.0
  0
LWPOLYLINE
  5
16b
100
AcDbEntity
  8
Merge
 62
7
100
AcDbPolyline
 90
61
 70
1
 10
-5.181596
 20
-81.019310
 30
0.0
 10
-5.270996
 20
-81.057542
 30
0.0
 10
-5.306653
 20
-81.147977
 30
0.0
 10
-5.306653
 20
-82.148446
 30
0.0
 10
-5.306653
 20
-82.182021
 30
0.0
 10
-5.306653
 20
-82.671924
 30
0.0
 10
-5.306136
 20
-82.684306
 30
0.0
 10
-5.297351
 20
-82.721533
 30
0.0
 10
-5.285465
 20
-82.743758
 30
0.0
 10
-5.278231
 20
-82.754077
 30
0.0
 10
-5.260144
 20
-82.771645
 30
0.0
 10
-5.203300
 20
-82.798527
 30
0.0
 10
-5.190381
 20
-82.801120
 30
0.0
 10
-5.165059
 20
-82.801120
 30
0.0
 10
-5.140255
 20
-82.795934
 30
0.0
 10
-5.128369
 20
-82.790775
 30
0.0
 10
-5.117000
 20
-82.785615
 30
0.0
 10
-5.106665
 20
-82.778895
 30
0.0
 10
-5.079277
 20
-82.752542
 30
0.0
 10
-5.072042
 20
-82.742197
 30
0.0
 10
-5.065841
 20
-82.730820
 30
0.0
 10
-5.060673
 20
-82.719470
 30
0.0
 10
-5.054472
 20
-82.694652
 30
0.0
 10
-5.052921
 20
-82.682243
 30
0.0
 10
-5.052921
 20
-82.673459
 30
0.0
 10
-5.052921
 20
-82.218190
 30
0.0
 10
-4.925798
 20
-82.091084
 30
0.0
 10
-4.254004
 20
-82.762861
 30
0.0
 10
-4.129980
 20
-82.797998
 30
0.0
 10
-4.039030
 20
-82.707061
 30
0.0
 10
-4.074170
 20
-82.583553
 30
0.0
 10
-4.745964
 20
-81.911247
 30
0.0
 10
-4.074170
 20
-81.239443
 30
0.0
 10
-4.065902
 20
-81.230130
 30
0.0
 10
-4.058150
 20
-81.220314
 30
0.0
 10
-4.051432
 20
-81.209466
 30
0.0
 10
-4.041614
 20
-81.186209
 30
0.0
 10
-4.036446
 20
-81.160889
 30
0.0
 10
-4.035929
 20
-81.147977
 30
0.0
 10
-4.036446
 20
-81.135065
 30
0.0
 10
-4.038513
 20
-81.122656
 30
0.0
 10
-4.058150
 20
-81.076142
 30
0.0
 10
-4.065902
 20
-81.066326
 30
0.0
 10
-4.074170
 20
-81.057040
 30
0.0
 10
-4.094324
 20
-81.041535
 30
0.0
 10
-4.105176
 20
-81.034815
 30
0.0
 10
-4.128947
 20
-81.026030
 30
0.0
 10
-4.153752
 20
-81.021374
 30
0.0
 10
-4.191992
 20
-81.024469
 30
0.0
 10
-4.203878
 20
-81.028094
 30
0.0
 10
-4.215763
 20
-81.033254
 30
0.0
 10
-4.227132
 20
-81.038942
 30
0.0
 10
-4.254004
 20
-81.060135
 30
0.0
 10
-4.998661
 20
-81.805308
 30
0.0
 10
-5.000728
 20
-81.807874
 30
0.0
 10
-5.030184
 20
-81.837349
 30
0.0
 10
-5.052921
 20
-81.860076
 30
0.0
 10
-5.052921
 20
-81.150570
 30
0.0
 10
-5.090129
 20
-81.059103
 30
0.0
 10
-5.181596
 20
-81.021876
 30
0.0
 10
-5.181596
 20
-81.019310
 30
0.0
  0
LWPOLYLINE
  5
16c
100
AcDbEntity
  8
Merge
 62
7
100
AcDbPolyline
 90
35
 70
1
 10
0.912089
 20
-81.019310
 30
0.0
 10
0.822689
 20
-81.057542
 30
0.0
 10
0.787032
 20
-81.147977
 30
0.0
 10
0.787032
 20
-82.149478
 30
0.0
 10
0.792200
 20
-82.201654
 30
0.0
 10
0.794784
 20
-82.208374
 30
0.0
 10
0.796334
 20
-82.213533
 30
0.0
 10
0.797367
 20
-82.216126
 30
0.0
 10
0.803569
 20
-82.227503
 30
0.0
 10
0.836125
 20
-82.266265
 30
0.0
 10
1.317749
 20
-82.747357
 30
0.0
 10
1.398364
 20
-82.797998
 30
0.0
 10
1.407666
 20
-82.800591
 30
0.0
 10
1.410767
 20
-82.800591
 30
0.0
 10
1.423169
 20
-82.800591
 30
0.0
 10
1.424719
 20
-82.800591
 30
0.0
 10
1.426270
 20
-82.800591
 30
0.0
 10
1.526522
 20
-82.747357
 30
0.0
 10
2.007113
 20
-82.266767
 30
0.0
 10
2.042769
 20
-82.223879
 30
0.0
 10
2.043803
 20
-82.221286
 30
0.0
 10
2.045353
 20
-82.216655
 30
0.0
 10
2.048971
 20
-82.209406
 30
0.0
 10
2.056722
 20
-82.143260
 30
0.0
 10
2.056722
 20
-81.147474
 30
0.0
 10
1.995227
 20
-81.032222
 30
0.0
 10
1.864486
 20
-81.032222
 30
0.0
 10
1.802991
 20
-81.147474
 30
0.0
 10
1.802991
 20
-82.110716
 30
0.0
 10
1.422135
 20
-82.493621
 30
0.0
 10
1.041280
 20
-82.112780
 30
0.0
 10
1.041280
 20
-81.149538
 30
0.0
 10
1.004073
 20
-81.058071
 30
0.0
 10
0.912089
 20
-81.020845
 30
0.0
 10
0.912089
 20
-81.019310
 30
0.0
  0
LWPOLYLINE
  5
16d
100
AcDbEntity
  8
Merge
 62
7
100
AcDbPolyline
 90
23
 70
1
 10
8.530229
 20
-81.019310
 30
0.0
 10
8.418607
 20
-81.087520
 30
0.0
 10
8.426359
 20
-81.218250
 30
0.0
 10
8.887313
 20
-81.909183
 30
0.0
 10
8.426359
 20
-82.600592
 30
0.0
 10
8.418091
 20
-82.727222
 30
0.0
 10
8.524028
 20
-82.797998
 30
0.0
 10
8.637716
 20
-82.741668
 30
0.0
 10
9.039758
 20
-82.138603
 30
0.0
 10
9.441801
 20
-82.741668
 30
0.0
 10
9.522416
 20
-82.795934
 30
0.0
 10
9.618017
 20
-82.776831
 30
0.0
 10
9.672278
 20
-82.696213
 30
0.0
 10
9.653158
 20
-82.600592
 30
0.0
 10
9.192204
 20
-81.909183
 30
0.0
 10
9.653158
 20
-81.218250
 30
0.0
 10
9.672278
 20
-81.122656
 30
0.0
 10
9.618017
 20
-81.042038
 30
0.0
 10
9.522416
 20
-81.022908
 30
0.0
 10
9.441801
 20
-81.077174
 30
0.0
 10
9.039758
 20
-81.680239
 30
0.0
 10
8.637716
 20
-81.077174
 30
0.0
 10
8.530229
 20
-81.019310
 30
0.0
  0
LWPOLYLINE
  5
16e
100
AcDbEntity
  8
Merge
 62
7
100
AcDbPolyline
 90
7
 70
1
 10
-9.623185
 20
-81.274580
 30
0.0
 10
-9.041309
 20
-81.274580
 30
0.0
 10
-8.861475
 20
-81.454417
 30
0.0
 10
-8.861475
 20
-81.856981
 30
0.0
 10
-9.041309
 20
-82.036289
 30
0.0
 10
-9.623185
 20
-82.036289
 30
0.0
 10
-9.623185
 20
-81.274580
 30
0.0
  0
LWPOLYLINE
  5
16f
100
AcDbEntity
  8
Merge
 62
7
100
AcDbPolyline
 90
9
 70
1
 10
-7.920447
 20
-81.274580
 30
0.0
 10
-7.517371
 20
-81.274580
 30
0.0
 10
-7.338053
 20
-81.454417
 30
0.0
 10
-7.338053
 20
-82.364452
 30
0.0
 10
-7.517371
 20
-82.544262
 30
0.0
 10
-7.920447
 20
-82.544262
 30
0.0
 10
-8.099764
 20
-82.364452
 30
0.0
 10
-8.099764
 20
-81.454417
 30
0.0
 10
-7.920447
 20
-81.274580
 30
0.0
  0
LWPOLYLINE
  5
170
100
AcDbEntity
  8
Merge
 62
7
100
AcDbPolyline
 90
9
 70
1
 10
2.744535
 20
-81.274580
 30
0.0
 10
3.147095
 20
-81.274580
 30
0.0
 10
3.326412
 20
-81.454417
 30
0.0
 10
3.326412
 20
-82.364452
 30
0.0
 10
3.147095
 20
-82.544262
 30
0.0
 10
2.744535
 20
-82.544262
 30
0.0
 10
2.564701
 20
-82.364452
 30
0.0
 10
2.564701
 20
-81.454417
 30
0.0
 10
2.744535
 20
-81.274580
 30
0.0
  0
ENDSEC
  0
SECTION
  2
OBJECTS
  0
DICTIONARY
  5
C
330
0
100
AcDbDictionary
  3
ACAD_GROUP
350
D
  3
ACAD_MLINESTYLE
350
17
  0
DICTIONARY
  5
D
330
C
100
AcDbDictionary
  0
DICTIONARY
  5
1A
330
C
100
AcDbDictionary
  0
DICTIONARY
  5
17
330
C
100
AcDbDictionary
  3
STANDARD
350
18
  0
DICTIONARY
  5
19
330
C
100
AcDbDictionary
  0
ENDSEC
  0
EOF
