  0
SECTION
  2
HEADER
  9
$ACADVER
  1
AC1014
  9
$HANDSEED
  5
FFFF
  9
$MEASUREMENT
 70
     1
  0
ENDSEC
  0
SECTION
  2
TABLES
  0
TABLE
  2
VPORT
  5
8
330
0
100
AcDbSymbolTable
 70
     4
  0
VPORT
  5
2E
330
8
100
AcDbSymbolTableRecord
100
AcDbViewportTableRecord
  2
*ACTIVE
 70
     0
 10
0.0
 20
0.0
 11
1.0
 21
1.0
 12
210.0
 22
148.5
 13
0.0
 23
0.0
 14
10.0
 24
10.0
 15
10.0
 25
10.0
 16
0.0
 26
0.0
 36
1.0
 17
0.0
 27
0.0
 37
0.0
 40
341.0
 41
1.24
 42
50.0
 43
0.0
 44
0.0
 50
0.0
 51
0.0
 71
     0
 72
   100
 73
     1
 74
     3
 75
     0
 76
     0
 77
     0
 78
     0
  0
ENDTAB
  0
TABLE
  2
LTYPE
  5
5
330
0
100
AcDbSymbolTable
 70
     1
  0
LTYPE
  5
14
330
5
100
AcDbSymbolTableRecord
100
AcDbLinetypeTableRecord
  2
BYBLOCK
 70
     0
  3

 72
    65
 73
     0
 40
0.0
  0
LTYPE
  5
15
330
5
100
AcDbSymbolTableRecord
100
AcDbLinetypeTableRecord
  2
BYLAYER
 70
     0
  3

 72
    65
 73
     0
 40
0.0
  0
LTYPE
  5
16
330
5
100
AcDbSymbolTableRecord
100
AcDbLinetypeTableRecord
  2
CONTINUOUS
 70
     0
  3
Solid line
 72
    65
 73
     0
 40
0.0
  0
ENDTAB
  0
TABLE
  2
LAYER
  5
2
100
AcDbSymbolTable
 70
9
  0
LAYER
  5
50
100
AcDbSymbolTableRecord
100
AcDbLayerTableRecord
  2
0
 70
0
  6
CONTINUOUS
  0
LAYER
  5
51
100
AcDbSymbolTableRecord
100
AcDbLayerTableRecord
  2
build
 70
0
  6
CONTINUOUS
  0
LAYER
  5
52
100
AcDbSymbolTableRecord
100
AcDbLayerTableRecord
  2
raster
 70
0
  6
CONTINUOUS
  0
LAYER
  5
53
100
AcDbSymbolTableRecord
100
AcDbLayerTableRecord
  2
0.254
 70
0
  6
CONTINUOUS
  0
LAYER
  5
54
100
AcDbSymbolTableRecord
100
AcDbLayerTableRecord
  2
0.5
 70
0
  6
CONTINUOUS
  0
LAYER
  5
55
100
AcDbSymbolTableRecord
100
AcDbLayerTableRecord
  2
0.75
 70
0
  6
CONTINUOUS
  0
LAYER
  5
56
100
AcDbSymbolTableRecord
100
AcDbLayerTableRecord
  2
1
 70
0
  6
CONTINUOUS
  0
LAYER
  5
57
100
AcDbSymbolTableRecord
100
AcDbLayerTableRecord
  2
1.2
 70
0
  6
CONTINUOUS
  0
LAYER
  5
58
100
AcDbSymbolTableRecord
100
AcDbLayerTableRecord
  2
1.5
 70
0
  6
CONTINUOUS
  0
ENDTAB
  0
TABLE
  2
STYLE
  5
3
330
0
100
AcDbSymbolTable
 70
     1
  0
STYLE
  5
11
330
3
100
AcDbSymbolTableRecord
100
AcDbTextStyleTableRecord
  2
STANDARD
 70
     0
 40
0.0
 41
1.0
 50
0.0
 71
     0
 42
2.5
  3
txt
  4

  0
ENDTAB
  0
TABLE
  2
VIEW
  5
6
330
0
100
AcDbSymbolTable
 70
     0
  0
ENDTAB
  0
TABLE
  2
UCS
  5
7
330
0
100
AcDbSymbolTable
 70
     0
  0
ENDTAB
  0
TABLE
  2
APPID
  5
9
330
0
100
AcDbSymbolTable
 70
     2
  0
APPID
  5
12
330
9
100
AcDbSymbolTableRecord
100
AcDbRegAppTableRecord
  2
ACAD
 70
     0
  0
ENDTAB
  0
TABLE
  2
DIMSTYLE
  5
A
330
0
100
AcDbSymbolTable
 70
     1
  0
DIMSTYLE
105
27
330
A
100
AcDbSymbolTableRecord
100
AcDbDimStyleTableRecord
  2
ISO-25
 70
     0
  3

  4

  5

  6

  7

 40
1.0
 41
2.5
 42
0.625
 43
3.75
 44
1.25
 45
0.0
 46
0.0
 47
0.0
 48
0.0
140
2.5
141
2.5
142
0.0
143
0.03937007874016
144
1.0
145
0.0
146
1.0
147
0.625
 71
     0
 72
     0
 73
     0
 74
     0
 75
     0
 76
     0
 77
     1
 78
     8
170
     0
171
     3
172
     1
173
     0
174
     0
175
     0
176
     0
177
     0
178
     0
270
     2
271
     2
272
     2
273
     2
274
     3
340
11
275
     0
280
     0
281
     0
282
     0
283
     0
284
     8
285
     0
286
     0
287
     3
288
     0
  0
ENDTAB
  0
TABLE
  2
BLOCK_RECORD
  5
1
330
0
100
AcDbSymbolTable
 70
     1
  0
BLOCK_RECORD
  5
1F
330
1
100
AcDbSymbolTableRecord
100
AcDbBlockTableRecord
  2
*MODEL_SPACE
  0
BLOCK_RECORD
  5
1B
330
1
100
AcDbSymbolTableRecord
100
AcDbBlockTableRecord
  2
*PAPER_SPACE
  0
ENDTAB
  0
ENDSEC
  0
SECTION
  2
BLOCKS
  0
BLOCK
  5
20
330
1F
100
AcDbEntity
  8
0
100
AcDbBlockBegin
  2
*MODEL_SPACE
 70
     0
 10
0.0
 20
0.0
 30
0.0
  3
*MODEL_SPACE
  1

  0
ENDBLK
  5
21
330
1F
100
AcDbEntity
  8
0
100
AcDbBlockEnd
  0
BLOCK
  5
1C
330
1B
100
AcDbEntity
 67
     1
  8
0
100
AcDbBlockBegin
  2
*PAPER_SPACE
  1

  0
ENDBLK
  5
1D
330
1B
100
AcDbEntity
 67
     1
  8
0
100
AcDbBlockEnd
  0
ENDSEC
  0
SECTION
  2
ENTITIES
  0
LWPOLYLINE
  5
100
100
AcDbEntity
  8
build
 62
7
100
AcDbPolyline
 90
377
 70
1
 10
-64.089629
 20
21.420954
 30
0.0
 10
-65.162949
 20
21.389442
 30
0.0
 10
-66.157824
 20
21.309879
 30
0.0
 10
-67.155238
 20
21.180963
 30
0.0
 10
-68.153760
 20
21.001797
 30
0.0
 10
-69.151956
 20
20.771484
 30
0.0
 10
-70.148396
 20
20.489128
 30
0.0
 10
-71.141646
 20
20.153830
 30
0.0
 10
-72.130275
 20
19.764694
 30
0.0
 10
-73.112850
 20
19.320824
 30
0.0
 10
-73.309136
 20
19.151946
 30
0.0
 10
-73.394668
 20
18.907544
 30
0.0
 10
-73.346521
 20
18.653123
 30
0.0
 10
-73.177600
 20
18.456874
 30
0.0
 10
-72.933179
 20
18.371396
 30
0.0
 10
-72.678769
 20
18.419600
 30
0.0
 10
-71.426603
 20
18.973234
 30
0.0
 10
-70.165422
 20
19.434726
 30
0.0
 10
-68.898424
 20
19.806086
 30
0.0
 10
-67.628807
 20
20.089322
 30
0.0
 10
-66.359769
 20
20.286445
 30
0.0
 10
-65.094508
 20
20.399463
 30
0.0
 10
-63.836223
 20
20.430388
 30
0.0
 10
-62.588111
 20
20.381226
 30
0.0
 10
-61.353370
 20
20.253990
 30
0.0
 10
-60.135199
 20
20.050687
 30
0.0
 10
-58.936795
 20
19.773327
 30
0.0
 10
-57.761357
 20
19.423921
 30
0.0
 10
-56.612083
 20
19.004477
 30
0.0
 10
-55.492170
 20
18.517004
 30
0.0
 10
-54.404817
 20
17.963513
 30
0.0
 10
-53.353223
 20
17.346013
 30
0.0
 10
-52.340584
 20
16.666514
 30
0.0
 10
-51.370099
 20
15.927024
 30
0.0
 10
-50.444967
 20
15.129553
 30
0.0
 10
-49.568384
 20
14.276112
 30
0.0
 10
-48.743550
 20
13.368708
 30
0.0
 10
-47.973663
 20
12.409353
 30
0.0
 10
-47.261920
 20
11.400055
 30
0.0
 10
-46.611519
 20
10.342824
 30
0.0
 10
-46.025659
 20
9.239669
 30
0.0
 10
-45.507538
 20
8.092600
 30
0.0
 10
-45.060353
 20
6.903627
 30
0.0
 10
-44.687304
 20
5.674758
 30
0.0
 10
-44.391587
 20
4.408004
 30
0.0
 10
-44.176401
 20
3.105374
 30
0.0
 10
-44.044944
 20
1.768876
 30
0.0
 10
-44.000415
 20
0.400522
 30
0.0
 10
-44.041532
 20
-0.883157
 30
0.0
 10
-44.163668
 20
-2.152180
 30
0.0
 10
-44.365000
 20
-3.403251
 30
0.0
 10
-44.643707
 20
-4.633074
 30
0.0
 10
-44.997966
 20
-5.838352
 30
0.0
 10
-45.425955
 20
-7.015791
 30
0.0
 10
-45.925851
 20
-8.162094
 30
0.0
 10
-46.495831
 20
-9.273964
 30
0.0
 10
-47.134075
 20
-10.348106
 30
0.0
 10
-47.838758
 20
-11.381224
 30
0.0
 10
-48.608059
 20
-12.370021
 30
0.0
 10
-49.440156
 20
-13.311203
 30
0.0
 10
-50.333226
 20
-14.201471
 30
0.0
 10
-51.285446
 20
-15.037532
 30
0.0
 10
-52.294995
 20
-15.816088
 30
0.0
 10
-53.360050
 20
-16.533843
 30
0.0
 10
-54.468856
 20
-17.181975
 30
0.0
 10
-55.608364
 20
-17.753717
 30
0.0
 10
-56.774812
 20
-18.248857
 30
0.0
 10
-57.964439
 20
-18.667183
 30
0.0
 10
-59.173484
 20
-19.008484
 30
0.0
 10
-60.398185
 20
-19.272547
 30
0.0
 10
-61.634781
 20
-19.459161
 30
0.0
 10
-62.879510
 20
-19.568114
 30
0.0
 10
-64.128611
 20
-19.599195
 30
0.0
 10
-65.378322
 20
-19.552191
 30
0.0
 10
-66.624883
 20
-19.426890
 30
0.0
 10
-67.864531
 20
-19.223082
 30
0.0
 10
-69.093505
 20
-18.940553
 30
0.0
 10
-70.308043
 20
-18.579092
 30
0.0
 10
-71.504385
 20
-18.138488
 30
0.0
 10
-72.678769
 20
-17.618529
 30
0.0
 10
-72.935605
 20
-17.565004
 30
0.0
 10
-73.184191
 20
-17.648878
 30
0.0
 10
-73.356100
 20
-17.847063
 30
0.0
 10
-73.404011
 20
-18.105006
 30
0.0
 10
-73.314736
 20
-18.351704
 30
0.0
 10
-73.112850
 20
-18.519250
 30
0.0
 10
-71.879939
 20
-19.065104
 30
0.0
 10
-70.623900
 20
-19.527657
 30
0.0
 10
-69.348692
 20
-19.907131
 30
0.0
 10
-68.058275
 20
-20.203746
 30
0.0
 10
-66.756608
 20
-20.417725
 30
0.0
 10
-65.447652
 20
-20.549289
 30
0.0
 10
-64.135366
 20
-20.598659
 30
0.0
 10
-62.823710
 20
-20.566057
 30
0.0
 10
-61.516643
 20
-20.451703
 30
0.0
 10
-60.218126
 20
-20.255820
 30
0.0
 10
-58.932117
 20
-19.978629
 30
0.0
 10
-57.662578
 20
-19.620351
 30
0.0
 10
-56.413467
 20
-19.181208
 30
0.0
 10
-55.188744
 20
-18.661421
 30
0.0
 10
-53.992369
 20
-18.061211
 30
0.0
 10
-52.828301
 20
-17.380801
 30
0.0
 10
-51.493931
 20
-16.469024
 30
0.0
 10
-50.244016
 20
-15.466213
 30
0.0
 10
-49.081834
 20
-14.378381
 30
0.0
 10
-48.010663
 20
-13.211543
 30
0.0
 10
-47.033782
 20
-11.971712
 30
0.0
 10
-46.154470
 20
-10.664902
 30
0.0
 10
-45.376004
 20
-9.297127
 30
0.0
 10
-44.701664
 20
-7.874401
 30
0.0
 10
-38.446231
 20
-7.874401
 30
0.0
 10
-48.012572
 20
-21.849269
 30
0.0
 10
-54.975456
 20
-21.849269
 30
0.0
 10
-59.181918
 20
-21.849269
 30
0.0
 10
-59.386963
 20
-21.881177
 30
0.0
 10
-59.543654
 20
-22.017227
 30
0.0
 10
-59.578274
 20
-22.083875
 30
0.0
 10
-59.581375
 20
-22.092659
 30
0.0
 10
-59.590380
 20
-22.329306
 30
0.0
 10
-59.455801
 20
-22.524168
 30
0.0
 10
-57.375309
 20
-24.605169
 30
0.0
 10
-57.375309
 20
-25.699671
 30
0.0
 10
-73.800663
 20
-25.699671
 30
0.0
 10
-73.924235
 20
-25.717512
 30
0.0
 10
-74.032512
 20
-25.773076
 30
0.0
 10
-74.117345
 20
-25.860336
 30
0.0
 10
-74.170588
 20
-25.973268
 30
0.0
 10
-74.183879
 20
-26.097411
 30
0.0
 10
-74.156835
 20
-26.216070
 30
0.0
 10
-74.093279
 20
-26.319857
 30
0.0
 10
-73.997034
 20
-26.399388
 30
0.0
 10
-74.000651
 20
-26.399388
 30
0.0
 10
-71.587879
 20
-57.686870
 30
0.0
 10
-69.582832
 20
-59.692438
 30
0.0
 10
-69.540459
 20
-59.740486
 30
0.0
 10
-43.952356
 20
-85.329108
 30
0.0
 10
-43.794743
 20
-85.448488
 30
0.0
 10
-43.791127
 20
-85.451081
 30
0.0
 10
-43.780273
 20
-85.455208
 30
0.0
 10
-43.595787
 20
-85.476401
 30
0.0
 10
-35.813836
 20
-85.476401
 30
0.0
 10
-35.691360
 20
-85.476401
 30
0.0
 10
35.691879
 20
-85.476401
 30
0.0
 10
35.810735
 20
-85.476401
 30
0.0
 10
43.594756
 20
-85.476401
 30
0.0
 10
43.790608
 20
-85.450552
 30
0.0
 10
43.795775
 20
-85.447985
 30
0.0
 10
43.801977
 20
-85.445392
 30
0.0
 10
43.807145
 20
-85.442799
 30
0.0
 10
43.951840
 20
-85.328605
 30
0.0
 10
45.194657
 20
-84.085778
 30
0.0
 10
69.539424
 20
-59.740486
 30
0.0
 10
69.580765
 20
-59.693470
 30
0.0
 10
71.587363
 20
-57.686870
 30
0.0
 10
73.999617
 20
-26.399388
 30
0.0
 10
73.992899
 20
-26.399388
 30
0.0
 10
74.090434
 20
-26.320478
 30
0.0
 10
74.155197
 20
-26.216776
 30
0.0
 10
74.183232
 20
-26.097770
 30
0.0
 10
74.170586
 20
-25.972949
 30
0.0
 10
74.117545
 20
-25.859254
 30
0.0
 10
74.032535
 20
-25.771381
 30
0.0
 10
73.923811
 20
-25.715456
 30
0.0
 10
73.799629
 20
-25.697607
 30
0.0
 10
57.374277
 20
-25.697607
 30
0.0
 10
57.374277
 20
-24.603635
 30
0.0
 10
59.457352
 20
-22.520544
 30
0.0
 10
59.543001
 20
-22.428692
 30
0.0
 10
59.592658
 20
-22.316836
 30
0.0
 10
59.603731
 20
-22.194954
 30
0.0
 10
59.573626
 20
-22.073027
 30
0.0
 10
59.573107
 20
-22.069932
 30
0.0
 10
59.567424
 20
-22.059586
 30
0.0
 10
59.556055
 20
-22.036859
 30
0.0
 10
59.395981
 20
-21.882680
 30
0.0
 10
59.176751
 20
-21.846174
 30
0.0
 10
54.974421
 20
-21.846174
 30
0.0
 10
48.011540
 20
-21.846174
 30
0.0
 10
38.445199
 20
-7.871305
 30
0.0
 10
44.699081
 20
-7.871305
 30
0.0
 10
45.373396
 20
-9.294526
 30
0.0
 10
46.151913
 20
-10.662770
 30
0.0
 10
47.031346
 20
-11.970021
 30
0.0
 10
48.008411
 20
-13.210263
 30
0.0
 10
49.079821
 20
-14.377478
 30
0.0
 10
50.242291
 20
-15.465651
 30
0.0
 10
51.492534
 20
-16.468764
 30
0.0
 10
52.827267
 20
-17.380801
 30
0.0
 10
53.991334
 20
-18.061211
 30
0.0
 10
55.187709
 20
-18.661421
 30
0.0
 10
56.412433
 20
-19.181208
 30
0.0
 10
57.661544
 20
-19.620351
 30
0.0
 10
58.931084
 20
-19.978629
 30
0.0
 10
60.217093
 20
-20.255820
 30
0.0
 10
61.515610
 20
-20.451703
 30
0.0
 10
62.822677
 20
-20.566057
 30
0.0
 10
64.134334
 20
-20.598659
 30
0.0
 10
65.446620
 20
-20.549289
 30
0.0
 10
66.755576
 20
-20.417725
 30
0.0
 10
68.057242
 20
-20.203746
 30
0.0
 10
69.347659
 20
-19.907131
 30
0.0
 10
70.622867
 20
-19.527657
 30
0.0
 10
71.878905
 20
-19.065104
 30
0.0
 10
73.111815
 20
-18.519250
 30
0.0
 10
73.313701
 20
-18.351704
 30
0.0
 10
73.402976
 20
-18.105006
 30
0.0
 10
73.355065
 20
-17.847063
 30
0.0
 10
73.183157
 20
-17.648878
 30
0.0
 10
72.934571
 20
-17.565004
 30
0.0
 10
72.677734
 20
-17.618529
 30
0.0
 10
71.503351
 20
-18.138488
 30
0.0
 10
70.307009
 20
-18.579092
 30
0.0
 10
69.092470
 20
-18.940553
 30
0.0
 10
67.863496
 20
-19.223082
 30
0.0
 10
66.623848
 20
-19.426890
 30
0.0
 10
65.377287
 20
-19.552191
 30
0.0
 10
64.127576
 20
-19.599195
 30
0.0
 10
62.878475
 20
-19.568114
 30
0.0
 10
61.633746
 20
-19.459161
 30
0.0
 10
60.397150
 20
-19.272547
 30
0.0
 10
59.172449
 20
-19.008484
 30
0.0
 10
57.963405
 20
-18.667183
 30
0.0
 10
56.773778
 20
-18.248857
 30
0.0
 10
55.607330
 20
-17.753717
 30
0.0
 10
54.467823
 20
-17.181975
 30
0.0
 10
53.359018
 20
-16.533843
 30
0.0
 10
52.293969
 20
-15.816088
 30
0.0
 10
51.284437
 20
-15.037532
 30
0.0
 10
50.332241
 20
-14.201471
 30
0.0
 10
49.439205
 20
-13.311203
 30
0.0
 10
48.607147
 20
-12.370021
 30
0.0
 10
47.837889
 20
-11.381224
 30
0.0
 10
47.133253
 20
-10.348106
 30
0.0
 10
46.495058
 20
-9.273964
 30
0.0
 10
45.925125
 20
-8.162094
 30
0.0
 10
45.425276
 20
-7.015791
 30
0.0
 10
44.997331
 20
-5.838352
 30
0.0
 10
44.643111
 20
-4.633074
 30
0.0
 10
44.364437
 20
-3.403251
 30
0.0
 10
44.163130
 20
-2.152180
 30
0.0
 10
44.041010
 20
-0.883157
 30
0.0
 10
43.999899
 20
0.400522
 30
0.0
 10
44.044427
 20
1.768876
 30
0.0
 10
44.175879
 20
3.105374
 30
0.0
 10
44.391058
 20
4.408004
 30
0.0
 10
44.686765
 20
5.674758
 30
0.0
 10
45.059803
 20
6.903627
 30
0.0
 10
45.506974
 20
8.092600
 30
0.0
 10
46.025080
 20
9.239669
 30
0.0
 10
46.610922
 20
10.342824
 30
0.0
 10
47.261304
 20
11.400055
 30
0.0
 10
47.973027
 20
12.409353
 30
0.0
 10
48.742893
 20
13.368708
 30
0.0
 10
49.567705
 20
14.276112
 30
0.0
 10
50.444264
 20
15.129553
 30
0.0
 10
51.369373
 20
15.927024
 30
0.0
 10
52.339834
 20
16.666514
 30
0.0
 10
53.352448
 20
17.346013
 30
0.0
 10
54.404019
 20
17.963513
 30
0.0
 10
55.491348
 20
18.517004
 30
0.0
 10
56.611236
 20
19.004477
 30
0.0
 10
57.760488
 20
19.423921
 30
0.0
 10
58.935903
 20
19.773327
 30
0.0
 10
60.134286
 20
20.050687
 30
0.0
 10
61.352437
 20
20.253990
 30
0.0
 10
62.587158
 20
20.381226
 30
0.0
 10
63.835253
 20
20.430388
 30
0.0
 10
65.093523
 20
20.399463
 30
0.0
 10
66.358769
 20
20.286445
 30
0.0
 10
67.627795
 20
20.089322
 30
0.0
 10
68.897403
 20
19.806086
 30
0.0
 10
70.164394
 20
19.434726
 30
0.0
 10
71.425570
 20
18.973234
 30
0.0
 10
72.677734
 20
18.419600
 30
0.0
 10
72.932144
 20
18.371396
 30
0.0
 10
73.176566
 20
18.456874
 30
0.0
 10
73.345487
 20
18.653123
 30
0.0
 10
73.393634
 20
18.907544
 30
0.0
 10
73.308102
 20
19.151946
 30
0.0
 10
73.111815
 20
19.320824
 30
0.0
 10
72.129241
 20
19.764694
 30
0.0
 10
71.140613
 20
20.153830
 30
0.0
 10
70.147362
 20
20.489128
 30
0.0
 10
69.150923
 20
20.771484
 30
0.0
 10
68.152726
 20
21.001797
 30
0.0
 10
67.154204
 20
21.180963
 30
0.0
 10
66.156789
 20
21.309879
 30
0.0
 10
65.161914
 20
21.389442
 30
0.0
 10
63.400138
 20
21.411667
 30
0.0
 10
61.658964
 20
21.285107
 30
0.0
 10
59.946448
 20
21.014831
 30
0.0
 10
58.270648
 20
20.605907
 30
0.0
 10
56.639620
 20
20.063401
 30
0.0
 10
55.061421
 20
19.392382
 30
0.0
 10
53.544108
 20
18.597917
 30
0.0
 10
52.095737
 20
17.685073
 30
0.0
 10
50.724366
 20
16.658920
 30
0.0
 10
49.438051
 20
15.524523
 30
0.0
 10
48.244849
 20
14.286950
 30
0.0
 10
47.152817
 20
12.951270
 30
0.0
 10
46.170011
 20
11.522550
 30
0.0
 10
45.304489
 20
10.005858
 30
0.0
 10
44.564308
 20
8.406261
 30
0.0
 10
43.957523
 20
6.728826
 30
0.0
 10
41.093099
 20
6.728826
 30
0.0
 10
43.025280
 20
9.151934
 30
0.0
 10
38.224539
 20
9.151934
 30
0.0
 10
36.627221
 20
6.728826
 30
0.0
 10
28.450977
 20
6.728826
 30
0.0
 10
26.640234
 20
9.374157
 30
0.0
 10
26.502451
 20
9.498521
 30
0.0
 10
26.321908
 20
9.541585
 30
0.0
 10
26.321908
 20
9.538463
 30
0.0
 10
26.129139
 20
9.481678
 30
0.0
 10
25.993360
 20
9.333529
 30
0.0
 10
25.953554
 20
9.136553
 30
0.0
 10
26.021151
 20
8.947305
 30
0.0
 10
27.541987
 20
6.725731
 30
0.0
 10
11.403955
 20
6.725731
 30
0.0
 10
10.766785
 20
9.122988
 30
0.0
 10
10.670497
 20
9.292138
 30
0.0
 10
10.502399
 20
9.390250
 30
0.0
 10
10.307764
 20
9.390899
 30
0.0
 10
10.139016
 20
9.293909
 30
0.0
 10
10.041603
 20
9.125404
 30
0.0
 10
10.041764
 20
8.930768
 30
0.0
 10
10.627775
 20
6.725731
 30
0.0
 10
-0.000517
 20
6.725731
 30
0.0
 10
-10.635527
 20
6.725731
 30
0.0
 10
-10.042798
 20
8.955560
 30
0.0
 10
-10.034530
 20
8.992258
 30
0.0
 10
-10.038147
 20
9.141086
 30
0.0
 10
-10.048482
 20
9.177254
 30
0.0
 10
-10.099642
 20
9.276473
 30
0.0
 10
-10.123413
 20
9.305921
 30
0.0
 10
-10.178190
 20
9.356589
 30
0.0
 10
-10.209196
 20
9.377755
 30
0.0
 10
-10.242269
 20
9.395324
 30
0.0
 10
-10.276892
 20
9.409796
 30
0.0
 10
-10.461894
 20
9.427365
 30
0.0
 10
-10.498584
 20
9.419613
 30
0.0
 10
-10.568864
 20
9.393789
 30
0.0
 10
-10.632426
 20
9.354499
 30
0.0
 10
-10.660848
 20
9.330210
 30
0.0
 10
-10.709941
 20
9.273377
 30
0.0
 10
-10.767818
 20
9.148309
 30
0.0
 10
-11.411706
 20
6.725731
 30
0.0
 10
-27.543022
 20
6.725731
 30
0.0
 10
-26.062492
 20
8.888911
 30
0.0
 10
-25.992530
 20
9.073611
 30
0.0
 10
-26.026106
 20
9.268241
 30
0.0
 10
-26.153906
 20
9.418825
 30
0.0
 10
-26.340488
 20
9.483599
 30
0.0
 10
-26.534105
 20
9.444599
 30
0.0
 10
-26.681060
 20
9.312641
 30
0.0
 10
-28.452011
 20
6.725731
 30
0.0
 10
-36.626189
 20
6.725731
 30
0.0
 10
-38.225574
 20
9.151934
 30
0.0
 10
-43.026314
 20
9.151934
 30
0.0
 10
-41.091548
 20
6.725731
 30
0.0
 10
-43.958039
 20
6.725731
 30
0.0
 10
-44.539111
 20
8.341115
 30
0.0
 10
-45.243946
 20
9.884638
 30
0.0
 10
-46.065371
 20
11.351788
 30
0.0
 10
-46.996211
 20
12.738049
 30
0.0
 10
-48.029294
 20
14.038910
 30
0.0
 10
-49.157446
 20
15.249855
 30
0.0
 10
-50.373494
 20
16.366371
 30
0.0
 10
-51.670264
 20
17.383945
 30
0.0
 10
-53.040584
 20
18.298062
 30
0.0
 10
-54.477279
 20
19.104209
 30
0.0
 10
-55.973176
 20
19.797873
 30
0.0
 10
-57.521103
 20
20.374539
 30
0.0
 10
-59.113884
 20
20.829694
 30
0.0
 10
-60.744348
 20
21.158823
 30
0.0
 10
-62.405321
 20
21.357415
 30
0.0
 10
-64.089629
 20
21.420954
 30
0.0
  0
LWPOLYLINE
  5
101
100
AcDbEntity
  8
build
 62
7
100
AcDbPolyline
 90
132
 70
1
 10
-63.989376
 20
18.539483
 30
0.0
 10
-65.393363
 20
18.483410
 30
0.0
 10
-66.808383
 20
18.314564
 30
0.0
 10
-68.229446
 20
18.029378
 30
0.0
 10
-69.651562
 20
17.624289
 30
0.0
 10
-69.739084
 20
17.529774
 30
0.0
 10
-69.698978
 20
17.407363
 30
0.0
 10
-69.572497
 20
17.382962
 30
0.0
 10
-68.503677
 20
17.698368
 30
0.0
 10
-67.434855
 20
17.944705
 30
0.0
 10
-66.368202
 20
18.123507
 30
0.0
 10
-65.305887
 20
18.236307
 30
0.0
 10
-64.250080
 20
18.284639
 30
0.0
 10
-63.202951
 20
18.270035
 30
0.0
 10
-62.166670
 20
18.194029
 30
0.0
 10
-61.143408
 20
18.058153
 30
0.0
 10
-60.135334
 20
17.863942
 30
0.0
 10
-59.144618
 20
17.612928
 30
0.0
 10
-58.173431
 20
17.306645
 30
0.0
 10
-57.223942
 20
16.946625
 30
0.0
 10
-56.298321
 20
16.534402
 30
0.0
 10
-55.398738
 20
16.071510
 30
0.0
 10
-54.527363
 20
15.559480
 30
0.0
 10
-53.686367
 20
14.999847
 30
0.0
 10
-52.877919
 20
14.394144
 30
0.0
 10
-52.104189
 20
13.743903
 30
0.0
 10
-51.367348
 20
13.050658
 30
0.0
 10
-50.669564
 20
12.315943
 30
0.0
 10
-50.013009
 20
11.541290
 30
0.0
 10
-49.399852
 20
10.728232
 30
0.0
 10
-48.832264
 20
9.878304
 30
0.0
 10
-48.312413
 20
8.993037
 30
0.0
 10
-47.842471
 20
8.073966
 30
0.0
 10
-47.424607
 20
7.122623
 30
0.0
 10
-47.060991
 20
6.140541
 30
0.0
 10
-46.753794
 20
5.129254
 30
0.0
 10
-46.505184
 20
4.090295
 30
0.0
 10
-46.317333
 20
3.025197
 30
0.0
 10
-46.192411
 20
1.935494
 30
0.0
 10
-46.132586
 20
0.822718
 30
0.0
 10
-46.139789
 20
-0.291639
 30
0.0
 10
-46.213108
 20
-1.386022
 30
0.0
 10
-46.350447
 20
-2.458797
 30
0.0
 10
-46.549711
 20
-3.508332
 30
0.0
 10
-46.808806
 20
-4.532991
 30
0.0
 10
-47.125635
 20
-5.531141
 30
0.0
 10
-47.498104
 20
-6.501148
 30
0.0
 10
-47.924117
 20
-7.441379
 30
0.0
 10
-48.401579
 20
-8.350199
 30
0.0
 10
-48.928396
 20
-9.225974
 30
0.0
 10
-49.502471
 20
-10.067071
 30
0.0
 10
-50.121710
 20
-10.871856
 30
0.0
 10
-50.784018
 20
-11.638694
 30
0.0
 10
-51.487299
 20
-12.365953
 30
0.0
 10
-52.229457
 20
-13.051998
 30
0.0
 10
-53.008399
 20
-13.695194
 30
0.0
 10
-53.822029
 20
-14.293910
 30
0.0
 10
-54.668251
 20
-14.846510
 30
0.0
 10
-55.544971
 20
-15.351360
 30
0.0
 10
-56.450093
 20
-15.806827
 30
0.0
 10
-57.381521
 20
-16.211277
 30
0.0
 10
-58.337162
 20
-16.563076
 30
0.0
 10
-59.314919
 20
-16.860591
 30
0.0
 10
-60.312698
 20
-17.102186
 30
0.0
 10
-61.328403
 20
-17.286229
 30
0.0
 10
-62.359939
 20
-17.411085
 30
0.0
 10
-63.405211
 20
-17.475121
 30
0.0
 10
-64.462123
 20
-17.476703
 30
0.0
 10
-65.528581
 20
-17.414197
 30
0.0
 10
-66.602490
 20
-17.285969
 30
0.0
 10
-67.681753
 20
-17.090384
 30
0.0
 10
-68.764277
 20
-16.825811
 30
0.0
 10
-68.887268
 20
-16.857735
 30
0.0
 10
-68.921116
 20
-16.980211
 30
0.0
 10
-68.831973
 20
-17.070762
 30
0.0
 10
-67.734660
 20
-17.338911
 30
0.0
 10
-66.640580
 20
-17.537071
 30
0.0
 10
-65.551861
 20
-17.666903
 30
0.0
 10
-64.470632
 20
-17.730067
 30
0.0
 10
-63.399021
 20
-17.728223
 30
0.0
 10
-62.339157
 20
-17.663030
 30
0.0
 10
-61.293169
 20
-17.536149
 30
0.0
 10
-60.263185
 20
-17.349240
 30
0.0
 10
-59.251334
 20
-17.103963
 30
0.0
 10
-58.259743
 20
-16.801978
 30
0.0
 10
-57.290542
 20
-16.444945
 30
0.0
 10
-56.345858
 20
-16.034524
 30
0.0
 10
-55.427821
 20
-15.572375
 30
0.0
 10
-54.538559
 20
-15.060158
 30
0.0
 10
-53.680201
 20
-14.499533
 30
0.0
 10
-52.854875
 20
-13.892160
 30
0.0
 10
-52.064709
 20
-13.239699
 30
0.0
 10
-51.311831
 20
-12.543811
 30
0.0
 10
-50.598372
 20
-11.806155
 30
0.0
 10
-49.926458
 20
-11.028390
 30
0.0
 10
-49.298219
 20
-10.212178
 30
0.0
 10
-48.715783
 20
-9.359179
 30
0.0
 10
-48.181278
 20
-8.471052
 30
0.0
 10
-47.696833
 20
-7.549457
 30
0.0
 10
-47.264577
 20
-6.596054
 30
0.0
 10
-46.886637
 20
-5.612504
 30
0.0
 10
-46.565144
 20
-4.600466
 30
0.0
 10
-46.302224
 20
-3.561601
 30
0.0
 10
-46.100006
 20
-2.497568
 30
0.0
 10
-45.960619
 20
-1.410027
 30
0.0
 10
-45.886192
 20
-0.300640
 30
0.0
 10
-45.878853
 20
0.828936
 30
0.0
 10
-45.923056
 20
1.747138
 30
0.0
 10
-46.011142
 20
2.650127
 30
0.0
 10
-46.141926
 20
3.537068
 30
0.0
 10
-46.314228
 20
4.407125
 30
0.0
 10
-46.526865
 20
5.259464
 30
0.0
 10
-46.778654
 20
6.093248
 30
0.0
 10
-47.068413
 20
6.907643
 30
0.0
 10
-47.394960
 20
7.701812
 30
0.0
 10
-47.757111
 20
8.474921
 30
0.0
 10
-48.153686
 20
9.226135
 30
0.0
 10
-48.583500
 20
9.954617
 30
0.0
 10
-49.045373
 20
10.659533
 30
0.0
 10
-50.060562
 20
11.995324
 30
0.0
 10
-51.189794
 20
13.226824
 30
0.0
 10
-52.423610
 20
14.347351
 30
0.0
 10
-53.752549
 20
15.350222
 30
0.0
 10
-55.167154
 20
16.228753
 30
0.0
 10
-56.657964
 20
16.976263
 30
0.0
 10
-58.215520
 20
17.586066
 30
0.0
 10
-59.830364
 20
18.051482
 30
0.0
 10
-60.656312
 20
18.227956
 30
0.0
 10
-61.493035
 20
18.365827
 30
0.0
 10
-62.339351
 20
18.464259
 30
0.0
 10
-63.194076
 20
18.522417
 30
0.0
 10
-63.989376
 20
18.539483
 30
0.0
  0
LWPOLYLINE
  5
102
100
AcDbEntity
  8
build
 62
7
100
AcDbPolyline
 90
133
 70
1
 10
63.988341
 20
18.539483
 30
0.0
 10
63.193041
 20
18.522417
 30
0.0
 10
62.338316
 20
18.464259
 30
0.0
 10
61.492001
 20
18.365827
 30
0.0
 10
60.655279
 20
18.227956
 30
0.0
 10
59.829330
 20
18.051482
 30
0.0
 10
58.214487
 20
17.586066
 30
0.0
 10
56.656930
 20
16.976263
 30
0.0
 10
55.166120
 20
16.228753
 30
0.0
 10
53.751516
 20
15.350222
 30
0.0
 10
52.422576
 20
14.347351
 30
0.0
 10
51.188761
 20
13.226824
 30
0.0
 10
50.059528
 20
11.995324
 30
0.0
 10
49.044339
 20
10.659533
 30
0.0
 10
48.582466
 20
9.954617
 30
0.0
 10
48.152652
 20
9.226135
 30
0.0
 10
47.756077
 20
8.474921
 30
0.0
 10
47.393925
 20
7.701812
 30
0.0
 10
47.067379
 20
6.907643
 30
0.0
 10
46.777620
 20
6.093248
 30
0.0
 10
46.525831
 20
5.259464
 30
0.0
 10
46.313194
 20
4.407125
 30
0.0
 10
46.140892
 20
3.537068
 30
0.0
 10
46.010107
 20
2.650127
 30
0.0
 10
45.922022
 20
1.747138
 30
0.0
 10
45.877819
 20
0.828936
 30
0.0
 10
45.885158
 20
-0.300640
 30
0.0
 10
45.959585
 20
-1.410027
 30
0.0
 10
46.098972
 20
-2.497568
 30
0.0
 10
46.301189
 20
-3.561601
 30
0.0
 10
46.564109
 20
-4.600466
 30
0.0
 10
46.885603
 20
-5.612504
 30
0.0
 10
47.263543
 20
-6.596054
 30
0.0
 10
47.695799
 20
-7.549457
 30
0.0
 10
48.180244
 20
-8.471052
 30
0.0
 10
48.714749
 20
-9.359179
 30
0.0
 10
49.297185
 20
-10.212178
 30
0.0
 10
49.925425
 20
-11.028390
 30
0.0
 10
50.597338
 20
-11.806155
 30
0.0
 10
51.310798
 20
-12.543811
 30
0.0
 10
52.063675
 20
-13.239699
 30
0.0
 10
52.853841
 20
-13.892160
 30
0.0
 10
53.679168
 20
-14.499533
 30
0.0
 10
54.537527
 20
-15.060158
 30
0.0
 10
55.426789
 20
-15.572375
 30
0.0
 10
56.344826
 20
-16.034524
 30
0.0
 10
57.289509
 20
-16.444945
 30
0.0
 10
58.258710
 20
-16.801978
 30
0.0
 10
59.250301
 20
-17.103963
 30
0.0
 10
60.262153
 20
-17.349240
 30
0.0
 10
61.292137
 20
-17.536149
 30
0.0
 10
62.338125
 20
-17.663030
 30
0.0
 10
63.397989
 20
-17.728223
 30
0.0
 10
64.469600
 20
-17.730067
 30
0.0
 10
65.550829
 20
-17.666903
 30
0.0
 10
66.639548
 20
-17.537071
 30
0.0
 10
67.733628
 20
-17.338911
 30
0.0
 10
68.830941
 20
-17.070762
 30
0.0
 10
68.907631
 20
-17.010955
 30
0.0
 10
68.919569
 20
-16.914438
 30
0.0
 10
68.859762
 20
-16.837749
 30
0.0
 10
68.763245
 20
-16.825811
 30
0.0
 10
67.680721
 20
-17.090384
 30
0.0
 10
66.601458
 20
-17.285969
 30
0.0
 10
65.527549
 20
-17.414197
 30
0.0
 10
64.461091
 20
-17.476703
 30
0.0
 10
63.404178
 20
-17.475121
 30
0.0
 10
62.358906
 20
-17.411085
 30
0.0
 10
61.327370
 20
-17.286229
 30
0.0
 10
60.311665
 20
-17.102186
 30
0.0
 10
59.313886
 20
-16.860591
 30
0.0
 10
58.336129
 20
-16.563076
 30
0.0
 10
57.380488
 20
-16.211277
 30
0.0
 10
56.449059
 20
-15.806827
 30
0.0
 10
55.543938
 20
-15.351360
 30
0.0
 10
54.667218
 20
-14.846510
 30
0.0
 10
53.820996
 20
-14.293910
 30
0.0
 10
53.007366
 20
-13.695194
 30
0.0
 10
52.228424
 20
-13.051998
 30
0.0
 10
51.486265
 20
-12.365953
 30
0.0
 10
50.782984
 20
-11.638694
 30
0.0
 10
50.120677
 20
-10.871856
 30
0.0
 10
49.501438
 20
-10.067071
 30
0.0
 10
48.927362
 20
-9.225974
 30
0.0
 10
48.400546
 20
-8.350199
 30
0.0
 10
47.923084
 20
-7.441379
 30
0.0
 10
47.497070
 20
-6.501148
 30
0.0
 10
47.124601
 20
-5.531141
 30
0.0
 10
46.807772
 20
-4.532991
 30
0.0
 10
46.548678
 20
-3.508332
 30
0.0
 10
46.349413
 20
-2.458797
 30
0.0
 10
46.212074
 20
-1.386022
 30
0.0
 10
46.138755
 20
-0.291639
 30
0.0
 10
46.131551
 20
0.822718
 30
0.0
 10
46.191376
 20
1.935494
 30
0.0
 10
46.316299
 20
3.025197
 30
0.0
 10
46.504151
 20
4.090295
 30
0.0
 10
46.752760
 20
5.129254
 30
0.0
 10
47.059958
 20
6.140541
 30
0.0
 10
47.423573
 20
7.122623
 30
0.0
 10
47.841438
 20
8.073966
 30
0.0
 10
48.311380
 20
8.993037
 30
0.0
 10
48.831230
 20
9.878304
 30
0.0
 10
49.398819
 20
10.728232
 30
0.0
 10
50.011976
 20
11.541290
 30
0.0
 10
50.668531
 20
12.315943
 30
0.0
 10
51.366314
 20
13.050658
 30
0.0
 10
52.103156
 20
13.743903
 30
0.0
 10
52.876886
 20
14.394144
 30
0.0
 10
53.685334
 20
14.999847
 30
0.0
 10
54.526330
 20
15.559480
 30
0.0
 10
55.397705
 20
16.071510
 30
0.0
 10
56.297287
 20
16.534402
 30
0.0
 10
57.222908
 20
16.946625
 30
0.0
 10
58.172398
 20
17.306645
 30
0.0
 10
59.143585
 20
17.612928
 30
0.0
 10
60.134301
 20
17.863942
 30
0.0
 10
61.142375
 20
18.058153
 30
0.0
 10
62.165637
 20
18.194029
 30
0.0
 10
63.201918
 20
18.270035
 30
0.0
 10
64.249047
 20
18.284639
 30
0.0
 10
65.304854
 20
18.236307
 30
0.0
 10
66.367169
 20
18.123507
 30
0.0
 10
67.433823
 20
17.944705
 30
0.0
 10
68.502645
 20
17.698368
 30
0.0
 10
69.571465
 20
17.382962
 30
0.0
 10
69.697958
 20
17.407355
 30
0.0
 10
69.738065
 20
17.529776
 30
0.0
 10
69.650528
 20
17.624289
 30
0.0
 10
68.228412
 20
18.029378
 30
0.0
 10
66.807350
 20
18.314564
 30
0.0
 10
65.392330
 20
18.483410
 30
0.0
 10
63.988341
 20
18.539483
 30
0.0
  0
LWPOLYLINE
  5
103
100
AcDbEntity
  8
build
 62
7
100
AcDbPolyline
 90
282
 70
1
 10
-64.007979
 20
17.731763
 30
0.0
 10
-64.201992
 20
17.689551
 30
0.0
 10
-64.359303
 20
17.580026
 30
0.0
 10
-64.464070
 20
17.419508
 30
0.0
 10
-64.500456
 20
17.224318
 30
0.0
 10
-64.500456
 20
14.922126
 30
0.0
 10
-64.500456
 20
14.918501
 30
0.0
 10
-65.613295
 20
14.836235
 30
0.0
 10
-66.716341
 20
14.668919
 30
0.0
 10
-66.917880
 20
15.682300
 30
0.0
 10
-66.961868
 20
15.757509
 30
0.0
 10
-67.043969
 20
15.786678
 30
0.0
 10
-67.141855
 20
15.739096
 30
0.0
 10
-67.166961
 20
15.633193
 30
0.0
 10
-66.965938
 20
14.622406
 30
0.0
 10
-68.221443
 20
14.301291
 30
0.0
 10
-69.447442
 20
13.867920
 30
0.0
 10
-69.864986
 20
14.875612
 30
0.0
 10
-69.912033
 20
14.934038
 30
0.0
 10
-69.983842
 20
14.955728
 30
0.0
 10
-70.089300
 20
14.898162
 30
0.0
 10
-70.099597
 20
14.778457
 30
0.0
 10
-69.681019
 20
13.768198
 30
0.0
 10
-70.709913
 20
13.284246
 30
0.0
 10
-71.704150
 20
12.717088
 30
0.0
 10
-72.299462
 20
13.607993
 30
0.0
 10
-72.406433
 20
13.665884
 30
0.0
 10
-72.518233
 20
13.597653
 30
0.0
 10
-72.510303
 20
13.466917
 30
0.0
 10
-71.916541
 20
12.578076
 30
0.0
 10
-72.602549
 20
12.105593
 30
0.0
 10
-73.265295
 20
11.590545
 30
0.0
 10
-73.343707
 20
11.484978
 30
0.0
 10
-73.357704
 20
11.354222
 30
0.0
 10
-73.303413
 20
11.234449
 30
0.0
 10
-73.195854
 20
11.158792
 30
0.0
 10
-73.064780
 20
11.148181
 30
0.0
 10
-72.946450
 20
11.205550
 30
0.0
 10
-71.968971
 20
11.945525
 30
0.0
 10
-70.942205
 20
12.590684
 30
0.0
 10
-69.872701
 20
13.140242
 30
0.0
 10
-68.767010
 20
13.593415
 30
0.0
 10
-67.631684
 20
13.949417
 30
0.0
 10
-66.473273
 20
14.207465
 30
0.0
 10
-65.298328
 20
14.366775
 30
0.0
 10
-64.113399
 20
14.426561
 30
0.0
 10
-63.884990
 20
14.427593
 30
0.0
 10
-63.139219
 20
14.401772
 30
0.0
 10
-62.394215
 20
14.336184
 30
0.0
 10
-61.651588
 20
14.230601
 30
0.0
 10
-60.912952
 20
14.084799
 30
0.0
 10
-60.179920
 20
13.898550
 30
0.0
 10
-59.454103
 20
13.671628
 30
0.0
 10
-58.737114
 20
13.403807
 30
0.0
 10
-58.030565
 20
13.094860
 30
0.0
 10
-57.129516
 20
12.630788
 30
0.0
 10
-56.272172
 20
12.108164
 30
0.0
 10
-55.460524
 20
11.530124
 30
0.0
 10
-54.696562
 20
10.899807
 30
0.0
 10
-53.982278
 20
10.220351
 30
0.0
 10
-53.319661
 20
9.494893
 30
0.0
 10
-52.710703
 20
8.726570
 30
0.0
 10
-52.157395
 20
7.918522
 30
0.0
 10
-51.661726
 20
7.073885
 30
0.0
 10
-51.225687
 20
6.195798
 30
0.0
 10
-50.851270
 20
5.287397
 30
0.0
 10
-50.540465
 20
4.351822
 30
0.0
 10
-50.295263
 20
3.392209
 30
0.0
 10
-50.117653
 20
2.411696
 30
0.0
 10
-50.009628
 20
1.413421
 30
0.0
 10
-49.973177
 20
0.400522
 30
0.0
 10
-50.009628
 20
-0.612366
 30
0.0
 10
-50.117653
 20
-1.610621
 30
0.0
 10
-50.295263
 20
-2.591105
 30
0.0
 10
-50.540465
 20
-3.550683
 30
0.0
 10
-50.851270
 20
-4.486218
 30
0.0
 10
-51.225687
 20
-5.394573
 30
0.0
 10
-51.661726
 20
-6.272612
 30
0.0
 10
-52.157395
 20
-7.117200
 30
0.0
 10
-52.710703
 20
-7.925199
 30
0.0
 10
-53.319661
 20
-8.693473
 30
0.0
 10
-53.982278
 20
-9.418886
 30
0.0
 10
-54.696562
 20
-10.098301
 30
0.0
 10
-55.460524
 20
-10.728583
 30
0.0
 10
-56.272172
 20
-11.306594
 30
0.0
 10
-57.129516
 20
-11.829198
 30
0.0
 10
-58.030565
 20
-12.293260
 30
0.0
 10
-58.738225
 20
-12.602641
 30
0.0
 10
-59.456354
 20
-12.870723
 30
0.0
 10
-60.183335
 20
-13.097749
 30
0.0
 10
-60.917545
 20
-13.283959
 30
0.0
 10
-61.657366
 20
-13.429597
 30
0.0
 10
-62.401177
 20
-13.534903
 30
0.0
 10
-63.147358
 20
-13.600120
 30
0.0
 10
-63.894290
 20
-13.625490
 30
0.0
 10
-64.007979
 20
-13.613610
 30
0.0
 10
-64.105647
 20
-13.624961
 30
0.0
 10
-65.291584
 20
-13.565747
 30
0.0
 10
-66.467558
 20
-13.406844
 30
0.0
 10
-67.627003
 20
-13.149039
 30
0.0
 10
-68.763351
 20
-12.793117
 30
0.0
 10
-69.870037
 20
-12.339865
 30
0.0
 10
-70.940494
 20
-11.790066
 30
0.0
 10
-71.968154
 20
-11.144508
 30
0.0
 10
-72.946450
 20
-10.403976
 30
0.0
 10
-73.064780
 20
-10.346607
 30
0.0
 10
-73.195854
 20
-10.357219
 30
0.0
 10
-73.303413
 20
-10.432875
 30
0.0
 10
-73.357704
 20
-10.552648
 30
0.0
 10
-73.343707
 20
-10.683404
 30
0.0
 10
-73.265295
 20
-10.788971
 30
0.0
 10
-72.603069
 20
-11.305051
 30
0.0
 10
-71.917573
 20
-11.778566
 30
0.0
 10
-72.510303
 20
-12.665344
 30
0.0
 10
-72.523436
 20
-12.795469
 30
0.0
 10
-72.414737
 20
-12.868201
 30
0.0
 10
-72.299462
 20
-12.806419
 30
0.0
 10
-71.703118
 20
-11.914482
 30
0.0
 10
-70.709907
 20
-12.483419
 30
0.0
 10
-69.682050
 20
-12.969191
 30
0.0
 10
-70.484587
 20
-14.906020
 30
0.0
 10
-70.470051
 20
-15.034192
 30
0.0
 10
-70.350872
 20
-15.083546
 30
0.0
 10
-70.249976
 20
-15.003175
 30
0.0
 10
-69.446923
 20
-13.065314
 30
0.0
 10
-68.221175
 20
-13.498126
 30
0.0
 10
-66.965938
 20
-13.818742
 30
0.0
 10
-67.166961
 20
-14.831090
 30
0.0
 10
-67.127330
 20
-14.953315
 30
0.0
 10
-67.001316
 20
-14.978414
 30
0.0
 10
-66.917880
 20
-14.880700
 30
0.0
 10
-66.716857
 20
-13.868880
 30
0.0
 10
-65.613544
 20
-14.034883
 30
0.0
 10
-64.500456
 20
-14.115895
 30
0.0
 10
-64.500456
 20
-14.121055
 30
0.0
 10
-64.500456
 20
-16.423247
 30
0.0
 10
-64.436495
 20
-16.677037
 30
0.0
 10
-64.253090
 20
-16.863754
 30
0.0
 10
-64.000486
 20
-16.932248
 30
0.0
 10
-63.747881
 20
-16.863754
 30
0.0
 10
-63.564477
 20
-16.677037
 30
0.0
 10
-63.500516
 20
-16.423247
 30
0.0
 10
-63.500516
 20
-14.121055
 30
0.0
 10
-63.500516
 20
-14.115895
 30
0.0
 10
-62.389876
 20
-14.036060
 30
0.0
 10
-61.284115
 20
-13.870441
 30
0.0
 10
-61.083092
 20
-14.880700
 30
0.0
 10
-60.999665
 20
-14.978469
 30
0.0
 10
-60.873615
 20
-14.953363
 30
0.0
 10
-60.834013
 20
-14.831090
 30
0.0
 10
-61.035033
 20
-13.819271
 30
0.0
 10
-59.783539
 20
-13.499396
 30
0.0
 10
-58.554049
 20
-13.064785
 30
0.0
 10
-57.750996
 20
-15.003175
 30
0.0
 10
-57.650098
 20
-15.083585
 30
0.0
 10
-57.530896
 20
-15.034222
 30
0.0
 10
-57.516387
 20
-14.906020
 30
0.0
 10
-58.318921
 20
-12.969720
 30
0.0
 10
-57.817660
 20
-12.745433
 30
0.0
 10
-57.059609
 20
-12.360626
 30
0.0
 10
-56.330929
 20
-11.935676
 30
0.0
 10
-55.701509
 20
-12.877222
 30
0.0
 10
-55.586251
 20
-12.938886
 30
0.0
 10
-55.477617
 20
-12.866183
 30
0.0
 10
-55.490671
 20
-12.736120
 30
0.0
 10
-56.116471
 20
-11.799759
 30
0.0
 10
-55.154458
 20
-11.121305
 30
0.0
 10
-54.256636
 20
-10.372464
 30
0.0
 10
-54.230281
 20
-10.401383
 30
0.0
 10
-52.602474
 20
-12.029206
 30
0.0
 10
-52.434273
 20
-12.126220
 30
0.0
 10
-52.240101
 20
-12.126131
 30
0.0
 10
-52.071989
 20
-12.028963
 30
0.0
 10
-51.974988
 20
-11.860755
 30
0.0
 10
-51.975092
 20
-11.666582
 30
0.0
 10
-52.072273
 20
-11.498478
 30
0.0
 10
-53.700082
 20
-9.870682
 30
0.0
 10
-53.715068
 20
-9.856712
 30
0.0
 10
-52.916417
 20
-8.987093
 30
0.0
 10
-52.192679
 20
-8.057863
 30
0.0
 10
-51.364825
 20
-8.610816
 30
0.0
 10
-51.238027
 20
-8.619060
 30
0.0
 10
-51.167487
 20
-8.513373
 30
0.0
 10
-51.223746
 20
-8.399440
 30
0.0
 10
-52.044886
 20
-7.850641
 30
0.0
 10
-51.270819
 20
-6.595934
 30
0.0
 10
-50.626883
 20
-5.267329
 30
0.0
 10
-48.657494
 20
-6.083304
 30
0.0
 10
-48.529241
 20
-6.068842
 30
0.0
 10
-48.479862
 20
-5.949596
 30
0.0
 10
-48.560344
 20
-5.848698
 30
0.0
 10
-50.529215
 20
-5.033252
 30
0.0
 10
-50.100061
 20
-3.815593
 30
0.0
 10
-49.779391
 20
-2.557414
 30
0.0
 10
-48.732943
 20
-2.765694
 30
0.0
 10
-48.611221
 20
-2.725753
 30
0.0
 10
-48.586200
 20
-2.600114
 30
0.0
 10
-48.683333
 20
-2.516588
 30
0.0
 10
-49.729263
 20
-2.308335
 30
0.0
 10
-49.563919
 20
-1.212910
 30
0.0
 10
-49.482251
 20
-0.098138
 30
0.0
 10
-49.443494
 20
-0.099170
 30
0.0
 10
-47.176449
 20
-0.099170
 30
0.0
 10
-46.922659
 20
-0.035209
 30
0.0
 10
-46.735942
 20
0.148196
 30
0.0
 10
-46.667448
 20
0.400800
 30
0.0
 10
-46.735942
 20
0.653405
 30
0.0
 10
-46.922659
 20
0.836809
 30
0.0
 10
-47.176449
 20
0.900770
 30
0.0
 10
-49.443494
 20
0.900770
 30
0.0
 10
-49.482251
 20
0.899738
 30
0.0
 10
-49.563920
 20
2.014491
 30
0.0
 10
-49.729263
 20
3.109935
 30
0.0
 10
-48.683333
 20
3.318189
 30
0.0
 10
-48.605113
 20
3.367566
 30
0.0
 10
-48.581129
 20
3.456904
 30
0.0
 10
-48.624102
 20
3.538818
 30
0.0
 10
-48.711239
 20
3.569860
 30
0.0
 10
-48.732943
 20
3.567267
 30
0.0
 10
-49.779391
 20
3.359014
 30
0.0
 10
-50.100333
 20
4.616916
 30
0.0
 10
-50.529733
 20
5.834297
 30
0.0
 10
-48.560344
 20
6.650272
 30
0.0
 10
-48.495334
 20
6.708273
 30
0.0
 10
-48.482990
 20
6.794517
 30
0.0
 10
-48.529120
 20
6.868426
 30
0.0
 10
-48.612020
 20
6.895223
 30
0.0
 10
-48.657494
 20
6.884904
 30
0.0
 10
-50.626883
 20
6.068929
 30
0.0
 10
-51.271067
 20
7.397521
 30
0.0
 10
-52.045402
 20
8.652215
 30
0.0
 10
-51.223746
 20
9.201040
 30
0.0
 10
-51.173261
 20
9.264597
 30
0.0
 10
-51.171571
 20
9.345746
 30
0.0
 10
-51.219366
 20
9.411350
 30
0.0
 10
-51.297128
 20
9.434614
 30
0.0
 10
-51.364825
 20
9.411860
 30
0.0
 10
-52.192679
 20
8.858934
 30
0.0
 10
-52.916420
 20
9.788174
 30
0.0
 10
-53.715068
 20
10.657783
 30
0.0
 10
-53.700082
 20
10.672256
 30
0.0
 10
-52.072273
 20
12.300078
 30
0.0
 10
-51.966039
 20
12.494619
 30
0.0
 10
-51.988203
 20
12.715164
 30
0.0
 10
-52.131022
 20
12.884676
 30
0.0
 10
-52.344608
 20
12.943942
 30
0.0
 10
-52.484623
 20
12.912251
 30
0.0
 10
-52.602474
 20
12.830277
 30
0.0
 10
-54.230281
 20
11.202454
 30
0.0
 10
-54.257154
 20
11.174541
 30
0.0
 10
-55.154737
 20
11.923130
 30
0.0
 10
-56.116471
 20
12.601333
 30
0.0
 10
-55.490671
 20
13.537720
 30
0.0
 10
-55.483588
 20
13.670054
 30
0.0
 10
-55.598158
 20
13.736660
 30
0.0
 10
-55.701509
 20
13.678796
 30
0.0
 10
-56.330411
 20
12.737249
 30
0.0
 10
-57.059344
 20
13.162220
 30
0.0
 10
-57.817660
 20
13.547007
 30
0.0
 10
-58.320472
 20
13.767166
 30
0.0
 10
-57.516387
 20
15.708123
 30
0.0
 10
-57.527684
 20
15.829335
 30
0.0
 10
-57.635759
 20
15.885368
 30
0.0
 10
-57.705443
 20
15.862683
 30
0.0
 10
-57.750996
 20
15.805278
 30
0.0
 10
-58.553533
 20
13.868449
 30
0.0
 10
-59.783529
 20
14.300692
 30
0.0
 10
-61.035552
 20
14.618278
 30
0.0
 10
-60.834013
 20
15.633193
 30
0.0
 10
-60.860252
 20
15.740509
 30
0.0
 10
-60.960619
 20
15.786678
 30
0.0
 10
-61.040494
 20
15.756359
 30
0.0
 10
-61.083092
 20
15.682300
 30
0.0
 10
-61.284631
 20
14.668390
 30
0.0
 10
-62.390149
 20
14.834800
 30
0.0
 10
-63.500516
 20
14.915405
 30
0.0
 10
-63.500516
 20
14.922126
 30
0.0
 10
-63.500516
 20
17.224318
 30
0.0
 10
-63.537113
 20
17.419686
 30
0.0
 10
-63.646928
 20
17.585363
 30
0.0
 10
-63.812609
 20
17.695172
 30
0.0
 10
-64.007979
 20
17.731763
 30
0.0
  0
LWPOLYLINE
  5
104
100
AcDbEntity
  8
build
 62
7
100
AcDbPolyline
 90
282
 70
1
 10
63.991961
 20
17.731763
 30
0.0
 10
63.797948
 20
17.689551
 30
0.0
 10
63.640637
 20
17.580026
 30
0.0
 10
63.535869
 20
17.419508
 30
0.0
 10
63.499484
 20
17.224318
 30
0.0
 10
63.499484
 20
14.922126
 30
0.0
 10
63.499484
 20
14.915405
 30
0.0
 10
62.389116
 20
14.834800
 30
0.0
 10
61.283599
 20
14.668390
 30
0.0
 10
61.082060
 20
15.682300
 30
0.0
 10
61.038072
 20
15.757509
 30
0.0
 10
60.955970
 20
15.786678
 30
0.0
 10
60.858085
 20
15.739096
 30
0.0
 10
60.832979
 20
15.633193
 30
0.0
 10
61.034517
 20
14.618278
 30
0.0
 10
59.782495
 20
14.300692
 30
0.0
 10
58.552498
 20
13.868449
 30
0.0
 10
57.749964
 20
15.805278
 30
0.0
 10
57.702911
 20
15.863689
 30
0.0
 10
57.631108
 20
15.885368
 30
0.0
 10
57.525666
 20
15.827809
 30
0.0
 10
57.515353
 20
15.708123
 30
0.0
 10
58.319437
 20
13.767166
 30
0.0
 10
57.816626
 20
13.547007
 30
0.0
 10
57.058310
 20
13.162220
 30
0.0
 10
56.329379
 20
12.737249
 30
0.0
 10
55.700475
 20
13.678796
 30
0.0
 10
55.593507
 20
13.736660
 30
0.0
 10
55.481728
 20
13.668435
 30
0.0
 10
55.489636
 20
13.537720
 30
0.0
 10
56.115437
 20
12.601333
 30
0.0
 10
55.153425
 20
11.922898
 30
0.0
 10
54.255604
 20
11.174038
 30
0.0
 10
54.229249
 20
11.202454
 30
0.0
 10
52.601439
 20
12.830277
 30
0.0
 10
52.478350
 20
12.914413
 30
0.0
 10
52.332207
 20
12.943942
 30
0.0
 10
52.122977
 20
12.879790
 30
0.0
 10
51.985174
 20
12.709781
 30
0.0
 10
51.965721
 20
12.491803
 30
0.0
 10
52.071241
 20
12.300078
 30
0.0
 10
53.699048
 20
10.672256
 30
0.0
 10
53.714034
 20
10.657783
 30
0.0
 10
52.915385
 20
9.788174
 30
0.0
 10
52.191647
 20
8.858934
 30
0.0
 10
51.363790
 20
9.411860
 30
0.0
 10
51.291961
 20
9.434614
 30
0.0
 10
51.215899
 20
9.409419
 30
0.0
 10
51.170055
 20
9.343704
 30
0.0
 10
51.172674
 20
9.263620
 30
0.0
 10
51.222714
 20
9.201040
 30
0.0
 10
52.044367
 20
8.652215
 30
0.0
 10
51.270033
 20
7.397521
 30
0.0
 10
50.625851
 20
6.068929
 30
0.0
 10
48.656978
 20
6.884904
 30
0.0
 10
48.607369
 20
6.895223
 30
0.0
 10
48.526099
 20
6.866582
 30
0.0
 10
48.481811
 20
6.792667
 30
0.0
 10
48.494887
 20
6.707497
 30
0.0
 10
48.559310
 20
6.650272
 30
0.0
 10
50.528699
 20
5.834297
 30
0.0
 10
50.099301
 20
4.616916
 30
0.0
 10
49.778356
 20
3.359014
 30
0.0
 10
48.731908
 20
3.567267
 30
0.0
 10
48.706588
 20
3.569860
 30
0.0
 10
48.621230
 20
3.536857
 30
0.0
 10
48.580212
 20
3.455049
 30
0.0
 10
48.604828
 20
3.366906
 30
0.0
 10
48.682299
 20
3.318189
 30
0.0
 10
49.728231
 20
3.109935
 30
0.0
 10
49.562886
 20
2.014491
 30
0.0
 10
49.481216
 20
0.899738
 30
0.0
 10
49.442460
 20
0.900770
 30
0.0
 10
47.175415
 20
0.900770
 30
0.0
 10
46.921625
 20
0.836809
 30
0.0
 10
46.734907
 20
0.653405
 30
0.0
 10
46.666414
 20
0.400800
 30
0.0
 10
46.734907
 20
0.148196
 30
0.0
 10
46.921625
 20
-0.035209
 30
0.0
 10
47.175415
 20
-0.099170
 30
0.0
 10
49.442460
 20
-0.099170
 30
0.0
 10
49.481216
 20
-0.098138
 30
0.0
 10
49.562867
 20
-1.213175
 30
0.0
 10
49.728231
 20
-2.308864
 30
0.0
 10
48.682299
 20
-2.516588
 30
0.0
 10
48.585165
 20
-2.600114
 30
0.0
 10
48.610187
 20
-2.725753
 30
0.0
 10
48.731908
 20
-2.765694
 30
0.0
 10
49.778356
 20
-2.557414
 30
0.0
 10
50.099029
 20
-3.815593
 30
0.0
 10
50.528183
 20
-5.033252
 30
0.0
 10
48.559310
 20
-5.848698
 30
0.0
 10
48.482129
 20
-5.949642
 30
0.0
 10
48.530966
 20
-6.066951
 30
0.0
 10
48.656978
 20
-6.083304
 30
0.0
 10
50.625851
 20
-5.267329
 30
0.0
 10
51.269785
 20
-6.595934
 30
0.0
 10
52.043851
 20
-7.850641
 30
0.0
 10
51.222714
 20
-8.399440
 30
0.0
 10
51.166443
 20
-8.513375
 30
0.0
 10
51.236986
 20
-8.619069
 30
0.0
 10
51.363790
 20
-8.610816
 30
0.0
 10
52.191647
 20
-8.057863
 30
0.0
 10
52.915147
 20
-8.986822
 30
0.0
 10
53.713518
 20
-9.856209
 30
0.0
 10
53.699048
 20
-9.870153
 30
0.0
 10
52.071241
 20
-11.497975
 30
0.0
 10
51.972660
 20
-11.666241
 30
0.0
 10
51.971878
 20
-11.861256
 30
0.0
 10
52.069107
 20
-12.030306
 30
0.0
 10
52.238065
 20
-12.127695
 30
0.0
 10
52.433081
 20
-12.127098
 30
0.0
 10
52.601439
 20
-12.028677
 30
0.0
 10
54.229249
 20
-10.400881
 30
0.0
 10
54.255604
 20
-10.372464
 30
0.0
 10
55.153425
 20
-11.121305
 30
0.0
 10
56.115437
 20
-11.799759
 30
0.0
 10
55.489636
 20
-12.735617
 30
0.0
 10
55.476488
 20
-12.865753
 30
0.0
 10
55.585196
 20
-12.938492
 30
0.0
 10
55.700475
 20
-12.876693
 30
0.0
 10
56.329379
 20
-11.935676
 30
0.0
 10
57.058310
 20
-12.360636
 30
0.0
 10
57.816626
 20
-12.745433
 30
0.0
 10
58.317887
 20
-12.969720
 30
0.0
 10
57.515353
 20
-14.906020
 30
0.0
 10
57.529889
 20
-15.034192
 30
0.0
 10
57.649068
 20
-15.083546
 30
0.0
 10
57.749964
 20
-15.003175
 30
0.0
 10
58.553014
 20
-13.064785
 30
0.0
 10
59.782505
 20
-13.499396
 30
0.0
 10
61.034001
 20
-13.819271
 30
0.0
 10
60.832979
 20
-14.831090
 30
0.0
 10
60.872610
 20
-14.953315
 30
0.0
 10
60.998624
 20
-14.978414
 30
0.0
 10
61.082060
 20
-14.880700
 30
0.0
 10
61.283080
 20
-13.870441
 30
0.0
 10
62.388843
 20
-14.036060
 30
0.0
 10
63.499484
 20
-14.115895
 30
0.0
 10
63.499484
 20
-14.121055
 30
0.0
 10
63.499484
 20
-16.423247
 30
0.0
 10
63.563420
 20
-16.677068
 30
0.0
 10
63.746827
 20
-16.863816
 30
0.0
 10
63.999453
 20
-16.932322
 30
0.0
 10
64.252078
 20
-16.863816
 30
0.0
 10
64.435486
 20
-16.677068
 30
0.0
 10
64.499421
 20
-16.423247
 30
0.0
 10
64.499421
 20
-14.121055
 30
0.0
 10
64.499421
 20
-14.115895
 30
0.0
 10
65.612510
 20
-14.034883
 30
0.0
 10
66.715825
 20
-13.868880
 30
0.0
 10
66.916845
 20
-14.880700
 30
0.0
 10
67.000281
 20
-14.978414
 30
0.0
 10
67.126295
 20
-14.953315
 30
0.0
 10
67.165926
 20
-14.831090
 30
0.0
 10
66.964904
 20
-13.818742
 30
0.0
 10
68.220141
 20
-13.498126
 30
0.0
 10
69.445891
 20
-13.065314
 30
0.0
 10
70.248941
 20
-15.003175
 30
0.0
 10
70.349837
 20
-15.083546
 30
0.0
 10
70.469016
 20
-15.034192
 30
0.0
 10
70.483553
 20
-14.906020
 30
0.0
 10
69.681019
 20
-12.969191
 30
0.0
 10
70.708873
 20
-12.483419
 30
0.0
 10
71.702083
 20
-11.914482
 30
0.0
 10
72.298430
 20
-12.806419
 30
0.0
 10
72.412360
 20
-12.862681
 30
0.0
 10
72.518043
 20
-12.792139
 30
0.0
 10
72.509785
 20
-12.665344
 30
0.0
 10
71.917057
 20
-11.778566
 30
0.0
 10
72.602288
 20
-11.305041
 30
0.0
 10
73.264263
 20
-10.788971
 30
0.0
 10
73.342675
 20
-10.683404
 30
0.0
 10
73.356672
 20
-10.552648
 30
0.0
 10
73.302381
 20
-10.432875
 30
0.0
 10
73.194822
 20
-10.357219
 30
0.0
 10
73.063748
 20
-10.346607
 30
0.0
 10
72.945419
 20
-10.403976
 30
0.0
 10
71.966848
 20
-11.144698
 30
0.0
 10
70.938889
 20
-11.790390
 30
0.0
 10
69.868114
 20
-12.340267
 30
0.0
 10
68.761096
 20
-12.793544
 30
0.0
 10
67.624407
 20
-13.149437
 30
0.0
 10
66.464618
 20
-13.407160
 30
0.0
 10
65.288302
 20
-13.565930
 30
0.0
 10
64.102030
 20
-13.624961
 30
0.0
 10
63.991961
 20
-13.613610
 30
0.0
 10
63.890157
 20
-13.625490
 30
0.0
 10
63.143612
 20
-13.599980
 30
0.0
 10
62.397822
 20
-13.534661
 30
0.0
 10
61.654406
 20
-13.429292
 30
0.0
 10
60.914980
 20
-13.283632
 30
0.0
 10
60.181163
 20
-13.097439
 30
0.0
 10
59.454571
 20
-12.870474
 30
0.0
 10
58.736822
 20
-12.602494
 30
0.0
 10
58.029533
 20
-12.293260
 30
0.0
 10
57.128484
 20
-11.829198
 30
0.0
 10
56.271140
 20
-11.306594
 30
0.0
 10
55.459492
 20
-10.728583
 30
0.0
 10
54.695530
 20
-10.098301
 30
0.0
 10
53.981245
 20
-9.418886
 30
0.0
 10
53.318628
 20
-8.693473
 30
0.0
 10
52.709670
 20
-7.925199
 30
0.0
 10
52.156361
 20
-7.117200
 30
0.0
 10
51.660692
 20
-6.272612
 30
0.0
 10
51.224654
 20
-5.394573
 30
0.0
 10
50.850236
 20
-4.486218
 30
0.0
 10
50.539431
 20
-3.550683
 30
0.0
 10
50.294228
 20
-2.591105
 30
0.0
 10
50.116619
 20
-1.610621
 30
0.0
 10
50.008593
 20
-0.612366
 30
0.0
 10
49.972143
 20
0.400522
 30
0.0
 10
50.008593
 20
1.413421
 30
0.0
 10
50.116619
 20
2.411696
 30
0.0
 10
50.294228
 20
3.392209
 30
0.0
 10
50.539431
 20
4.351822
 30
0.0
 10
50.850236
 20
5.287397
 30
0.0
 10
51.224654
 20
6.195798
 30
0.0
 10
51.660692
 20
7.073885
 30
0.0
 10
52.156361
 20
7.918522
 30
0.0
 10
52.709670
 20
8.726570
 30
0.0
 10
53.318628
 20
9.494893
 30
0.0
 10
53.981245
 20
10.220351
 30
0.0
 10
54.695530
 20
10.899807
 30
0.0
 10
55.459492
 20
11.530124
 30
0.0
 10
56.271140
 20
12.108164
 30
0.0
 10
57.128484
 20
12.630788
 30
0.0
 10
58.029533
 20
13.094860
 30
0.0
 10
58.736020
 20
13.403788
 30
0.0
 10
59.452945
 20
13.671594
 30
0.0
 10
60.178697
 20
13.898506
 30
0.0
 10
60.911664
 20
14.084749
 30
0.0
 10
61.650234
 20
14.230552
 30
0.0
 10
62.392795
 20
14.336143
 30
0.0
 10
63.137734
 20
14.401747
 30
0.0
 10
63.883439
 20
14.427593
 30
0.0
 10
64.113915
 20
14.426561
 30
0.0
 10
65.298643
 20
14.366663
 30
0.0
 10
66.473383
 20
14.207276
 30
0.0
 10
67.631588
 20
13.949182
 30
0.0
 10
68.766710
 20
13.593167
 30
0.0
 10
69.872201
 20
13.140012
 30
0.0
 10
70.941515
 20
12.590502
 30
0.0
 10
71.968103
 20
11.945420
 30
0.0
 10
72.945419
 20
11.205550
 30
0.0
 10
73.063748
 20
11.148181
 30
0.0
 10
73.194822
 20
11.158792
 30
0.0
 10
73.302381
 20
11.234449
 30
0.0
 10
73.356672
 20
11.354222
 30
0.0
 10
73.342675
 20
11.484978
 30
0.0
 10
73.264263
 20
11.590545
 30
0.0
 10
72.601768
 20
12.105593
 30
0.0
 10
71.916023
 20
12.578076
 30
0.0
 10
72.509785
 20
13.466917
 30
0.0
 10
72.516777
 20
13.599509
 30
0.0
 10
72.401782
 20
13.665884
 30
0.0
 10
72.298430
 20
13.607993
 30
0.0
 10
71.703118
 20
12.717088
 30
0.0
 10
70.708880
 20
13.284246
 30
0.0
 10
69.679984
 20
13.768198
 30
0.0
 10
70.098563
 20
14.778457
 30
0.0
 10
70.087282
 20
14.899688
 30
0.0
 10
69.979191
 20
14.955728
 30
0.0
 10
69.909500
 20
14.933033
 30
0.0
 10
69.863951
 20
14.875612
 30
0.0
 10
69.446407
 20
13.867920
 30
0.0
 10
68.220408
 20
14.301291
 30
0.0
 10
66.964904
 20
14.622406
 30
0.0
 10
67.165926
 20
15.633193
 30
0.0
 10
67.139687
 20
15.740510
 30
0.0
 10
67.039318
 20
15.786678
 30
0.0
 10
66.959443
 20
15.756359
 30
0.0
 10
66.916845
 20
15.682300
 30
0.0
 10
66.715307
 20
14.668919
 30
0.0
 10
65.612261
 20
14.836235
 30
0.0
 10
64.499421
 20
14.918501
 30
0.0
 10
64.499421
 20
14.922126
 30
0.0
 10
64.499421
 20
17.224318
 30
0.0
 10
64.462824
 20
17.419686
 30
0.0
 10
64.353010
 20
17.585363
 30
0.0
 10
64.187330
 20
17.695171
 30
0.0
 10
63.991961
 20
17.731763
 30
0.0
  0
LWPOLYLINE
  5
105
100
AcDbEntity
  8
build
 62
7
100
AcDbPolyline
 90
4
 70
1
 10
28.964641
 20
5.978495
 30
0.0
 10
36.132161
 20
5.978495
 30
0.0
 10
32.616098
 20
0.644442
 30
0.0
 10
28.964641
 20
5.978495
 30
0.0
  0
LWPOLYLINE
  5
106
100
AcDbEntity
  8
build
 62
7
100
AcDbPolyline
 90
17
 70
1
 10
40.494686
 20
5.978495
 30
0.0
 10
43.736866
 20
5.978495
 30
0.0
 10
43.419567
 20
4.639017
 30
0.0
 10
43.188531
 20
3.261432
 30
0.0
 10
43.047306
 20
1.847885
 30
0.0
 10
42.999443
 20
0.400522
 30
0.0
 10
43.022172
 20
-0.575252
 30
0.0
 10
43.089839
 20
-1.543454
 30
0.0
 10
43.201661
 20
-2.502795
 30
0.0
 10
43.356856
 20
-3.451986
 30
0.0
 10
43.554644
 20
-4.389739
 30
0.0
 10
43.794241
 20
-5.314764
 30
0.0
 10
44.074867
 20
-6.225773
 30
0.0
 10
44.395739
 20
-7.121476
 30
0.0
 10
37.932050
 20
-7.121476
 30
0.0
 10
34.290931
 20
-1.802425
 30
0.0
 10
40.494686
 20
5.978495
 30
0.0
  0
LWPOLYLINE
  5
107
100
AcDbEntity
  8
build
 62
7
100
AcDbPolyline
 90
17
 70
1
 10
-43.737382
 20
5.975399
 30
0.0
 10
-40.493654
 20
5.975399
 30
0.0
 10
-34.290931
 20
-1.803986
 30
0.0
 10
-37.933085
 20
-7.124598
 30
0.0
 10
-44.397806
 20
-7.124598
 30
0.0
 10
-44.076672
 20
-6.228549
 30
0.0
 10
-43.795828
 20
-5.317179
 30
0.0
 10
-43.556051
 20
-4.391778
 30
0.0
 10
-43.358122
 20
-3.453637
 30
0.0
 10
-43.202821
 20
-2.504046
 30
0.0
 10
-43.090926
 20
-1.544295
 30
0.0
 10
-43.023218
 20
-0.575676
 30
0.0
 10
-43.000475
 20
0.400522
 30
0.0
 10
-43.048332
 20
1.847056
 30
0.0
 10
-43.189502
 20
3.259795
 30
0.0
 10
-43.420386
 20
4.636617
 30
0.0
 10
-43.737382
 20
5.975399
 30
0.0
  0
LWPOLYLINE
  5
108
100
AcDbEntity
  8
build
 62
7
100
AcDbPolyline
 90
4
 70
1
 10
-36.131127
 20
5.975399
 30
0.0
 10
-28.965673
 20
5.975399
 30
0.0
 10
-32.616098
 20
0.642907
 30
0.0
 10
-36.131127
 20
5.975399
 30
0.0
  0
LWPOLYLINE
  5
109
100
AcDbEntity
  8
build
 62
7
100
AcDbPolyline
 90
6
 70
1
 10
-28.056687
 20
5.975399
 30
0.0
 10
-11.611178
 20
5.975399
 30
0.0
 10
-15.094169
 20
-7.124598
 30
0.0
 10
-27.494963
 20
-7.124598
 30
0.0
 10
-32.170129
 20
-0.033553
 30
0.0
 10
-28.056687
 20
5.975399
 30
0.0
  0
LWPOLYLINE
  5
10a
100
AcDbEntity
  8
build
 62
7
100
AcDbPolyline
 90
6
 70
1
 10
-10.834998
 20
5.975399
 30
0.0
 10
-0.000517
 20
5.975399
 30
0.0
 10
10.827246
 20
5.975399
 30
0.0
 10
14.310238
 20
-7.124598
 30
0.0
 10
-14.317989
 20
-7.124598
 30
0.0
 10
-10.834998
 20
5.975399
 30
0.0
  0
LWPOLYLINE
  5
10b
100
AcDbEntity
  8
build
 62
7
100
AcDbPolyline
 90
6
 70
1
 10
11.603426
 20
5.975399
 30
0.0
 10
28.055652
 20
5.975399
 30
0.0
 10
32.169095
 20
-0.033553
 30
0.0
 10
27.493928
 20
-7.124598
 30
0.0
 10
15.086418
 20
-7.124598
 30
0.0
 10
11.603426
 20
5.975399
 30
0.0
  0
LWPOLYLINE
  5
10c
100
AcDbEntity
  8
build
 62
7
100
AcDbPolyline
 90
4
 70
1
 10
-33.801555
 20
-2.417370
 30
0.0
 10
-30.048295
 20
-7.124598
 30
0.0
 10
-37.024096
 20
-7.124598
 30
0.0
 10
-33.801555
 20
-2.417370
 30
0.0
  0
LWPOLYLINE
  5
10d
100
AcDbEntity
  8
build
 62
7
100
AcDbPolyline
 90
4
 70
1
 10
33.800521
 20
-2.417370
 30
0.0
 10
37.023064
 20
-7.124598
 30
0.0
 10
30.047261
 20
-7.124598
 30
0.0
 10
33.800521
 20
-2.417370
 30
0.0
  0
LWPOLYLINE
  5
10e
100
AcDbEntity
  8
build
 62
7
100
AcDbPolyline
 90
13
 70
1
 10
-37.537244
 20
-7.874401
 30
0.0
 10
-29.450398
 20
-7.874401
 30
0.0
 10
-26.669175
 20
-11.362562
 30
0.0
 10
-26.561369
 20
-11.546562
 30
0.0
 10
-26.406140
 20
-11.692788
 30
0.0
 10
-26.300720
 20
-11.824551
 30
0.0
 10
-26.054224
 20
-11.824551
 30
0.0
 10
-25.975159
 20
-11.829736
 30
0.0
 10
-16.345256
 20
-11.829736
 30
0.0
 10
-19.008659
 20
-21.849269
 30
0.0
 10
-40.894661
 20
-21.849269
 30
0.0
 10
-47.103586
 20
-21.849269
 30
0.0
 10
-37.537244
 20
-7.874401
 30
0.0
  0
LWPOLYLINE
  5
10f
100
AcDbEntity
  8
build
 62
7
100
AcDbPolyline
 90
5
 70
1
 10
-27.000420
 20
-7.874401
 30
0.0
 10
-15.293640
 20
-7.874401
 30
0.0
 10
-15.946313
 20
-10.329549
 30
0.0
 10
-25.381913
 20
-10.329549
 30
0.0
 10
-27.000420
 20
-7.874401
 30
0.0
  0
LWPOLYLINE
  5
110
100
AcDbEntity
  8
build
 62
7
100
AcDbPolyline
 90
6
 70
1
 10
-14.516943
 20
-7.874401
 30
0.0
 10
14.509709
 20
-7.874401
 30
0.0
 10
15.162382
 20
-10.329549
 30
0.0
 10
-0.000517
 20
-10.329549
 30
0.0
 10
-15.169617
 20
-10.329549
 30
0.0
 10
-14.516943
 20
-7.874401
 30
0.0
  0
LWPOLYLINE
  5
111
100
AcDbEntity
  8
build
 62
7
100
AcDbPolyline
 90
5
 70
1
 10
15.285889
 20
-7.874401
 30
0.0
 10
26.999385
 20
-7.874401
 30
0.0
 10
25.380880
 20
-10.329549
 30
0.0
 10
15.938562
 20
-10.329549
 30
0.0
 10
15.285889
 20
-7.874401
 30
0.0
  0
LWPOLYLINE
  5
112
100
AcDbEntity
  8
build
 62
7
100
AcDbPolyline
 90
13
 70
1
 10
29.449366
 20
-7.874401
 30
0.0
 10
37.536210
 20
-7.874401
 30
0.0
 10
47.102551
 20
-21.849269
 30
0.0
 10
40.893627
 20
-21.849269
 30
0.0
 10
19.000907
 20
-21.849269
 30
0.0
 10
16.337504
 20
-11.829736
 30
0.0
 10
25.974642
 20
-11.829736
 30
0.0
 10
26.059391
 20
-11.824551
 30
0.0
 10
26.299687
 20
-11.824551
 30
0.0
 10
26.403040
 20
-11.694852
 30
0.0
 10
26.560699
 20
-11.547081
 30
0.0
 10
26.669690
 20
-11.360498
 30
0.0
 10
29.449366
 20
-7.874401
 30
0.0
  0
LWPOLYLINE
  5
113
100
AcDbEntity
  8
build
 62
7
100
AcDbPolyline
 90
7
 70
1
 10
-15.568559
 20
-11.829736
 30
0.0
 10
-0.000517
 20
-11.829736
 30
0.0
 10
15.561324
 20
-11.829736
 30
0.0
 10
18.224727
 20
-21.849269
 30
0.0
 10
-0.000517
 20
-21.849269
 30
0.0
 10
-18.232479
 20
-21.849269
 30
0.0
 10
-15.568559
 20
-11.829736
 30
0.0
  0
LWPOLYLINE
  5
114
100
AcDbEntity
  8
build
 62
7
100
AcDbPolyline
 90
50
 70
1
 10
0.073381
 20
-14.296235
 30
0.0
 10
0.073381
 20
-14.296764
 30
0.0
 10
-0.037986
 20
-14.325813
 30
0.0
 10
-0.124540
 20
-14.401672
 30
0.0
 10
-0.903821
 20
-15.180420
 30
0.0
 10
-0.982886
 20
-15.283263
 30
0.0
 10
-0.986503
 20
-15.291016
 30
0.0
 10
-1.002006
 20
-15.418148
 30
0.0
 10
-1.002006
 20
-15.756100
 30
0.0
 10
-1.002006
 20
-15.838782
 30
0.0
 10
-1.002006
 20
-17.047505
 30
0.0
 10
-0.971682
 20
-17.176369
 30
0.0
 10
-0.879811
 20
-17.271686
 30
0.0
 10
-0.752150
 20
-17.306734
 30
0.0
 10
-0.624490
 20
-17.271686
 30
0.0
 10
-0.532619
 20
-17.176369
 30
0.0
 10
-0.502295
 20
-17.047505
 30
0.0
 10
-0.502295
 20
-16.048068
 30
0.0
 10
0.664042
 20
-16.048068
 30
0.0
 10
0.664042
 20
-17.047505
 30
0.0
 10
0.665076
 20
-17.072296
 30
0.0
 10
0.692981
 20
-17.167890
 30
0.0
 10
0.720369
 20
-17.209245
 30
0.0
 10
0.737423
 20
-17.227845
 30
0.0
 10
0.756026
 20
-17.244381
 30
0.0
 10
0.776180
 20
-17.259383
 30
0.0
 10
0.797367
 20
-17.272295
 30
0.0
 10
0.843876
 20
-17.290895
 30
0.0
 10
0.868164
 20
-17.296584
 30
0.0
 10
0.892969
 20
-17.300182
 30
0.0
 10
0.917773
 20
-17.300182
 30
0.0
 10
0.991671
 20
-17.288302
 30
0.0
 10
1.096057
 20
-17.222156
 30
0.0
 10
1.126546
 20
-17.182363
 30
0.0
 10
1.138432
 20
-17.160667
 30
0.0
 10
1.163753
 20
-17.064544
 30
0.0
 10
1.164270
 20
-17.046976
 30
0.0
 10
1.164270
 20
-15.836190
 30
0.0
 10
1.164270
 20
-15.759196
 30
0.0
 10
1.164270
 20
-15.413491
 30
0.0
 10
1.153935
 20
-15.306520
 30
0.0
 10
1.148767
 20
-15.292577
 30
0.0
 10
1.143599
 20
-15.279136
 30
0.0
 10
1.065051
 20
-15.178356
 30
0.0
 10
0.289905
 20
-14.403735
 30
0.0
 10
0.287838
 20
-14.401142
 30
0.0
 10
0.207278
 20
-14.328143
 30
0.0
 10
0.103353
 20
-14.296235
 30
0.0
 10
0.081132
 20
-14.296235
 30
0.0
 10
0.073381
 20
-14.296235
 30
0.0
  0
LWPOLYLINE
  5
115
100
AcDbEntity
  8
build
 62
7
100
AcDbPolyline
 90
78
 70
1
 10
-5.338692
 20
-14.296764
 30
0.0
 10
-5.407939
 20
-14.309173
 30
0.0
 10
-5.423958
 20
-14.314835
 30
0.0
 10
-5.435844
 20
-14.320021
 30
0.0
 10
-5.535579
 20
-14.398047
 30
0.0
 10
-5.901965
 20
-14.764442
 30
0.0
 10
-5.981030
 20
-14.867259
 30
0.0
 10
-5.984648
 20
-14.874509
 30
0.0
 10
-6.000667
 20
-14.999551
 30
0.0
 10
-6.000667
 20
-15.346314
 30
0.0
 10
-5.982581
 20
-15.478076
 30
0.0
 10
-5.981547
 20
-15.481172
 30
0.0
 10
-5.979997
 20
-15.484294
 30
0.0
 10
-5.902482
 20
-15.583512
 30
0.0
 10
-5.536096
 20
-15.949881
 30
0.0
 10
-5.432227
 20
-16.029468
 30
0.0
 10
-5.428609
 20
-16.032061
 30
0.0
 10
-5.424475
 20
-16.034627
 30
0.0
 10
-5.299418
 20
-16.050661
 30
0.0
 10
-4.604370
 20
-16.050661
 30
0.0
 10
-4.334619
 20
-16.320404
 30
0.0
 10
-4.334619
 20
-16.530218
 30
0.0
 10
-4.604370
 20
-16.799961
 30
0.0
 10
-5.230688
 20
-16.799961
 30
0.0
 10
-5.573820
 20
-16.456849
 30
0.0
 10
-5.686272
 20
-16.388532
 30
0.0
 10
-5.817837
 20
-16.386768
 30
0.0
 10
-5.932080
 20
-16.452045
 30
0.0
 10
-5.997361
 20
-16.566287
 30
0.0
 10
-5.995601
 20
-16.697852
 30
0.0
 10
-5.927287
 20
-16.810306
 30
0.0
 10
-5.536096
 20
-17.201492
 30
0.0
 10
-5.432227
 20
-17.281079
 30
0.0
 10
-5.428609
 20
-17.283672
 30
0.0
 10
-5.424475
 20
-17.286239
 30
0.0
 10
-5.299418
 20
-17.302272
 30
0.0
 10
-4.536157
 20
-17.302272
 30
0.0
 10
-4.403349
 20
-17.283672
 30
0.0
 10
-4.399215
 20
-17.281079
 30
0.0
 10
-4.395081
 20
-17.278486
 30
0.0
 10
-4.298446
 20
-17.201492
 30
0.0
 10
-3.933093
 20
-16.836129
 30
0.0
 10
-3.852995
 20
-16.732280
 30
0.0
 10
-3.851445
 20
-16.728126
 30
0.0
 10
-3.849894
 20
-16.723999
 30
0.0
 10
-3.849377
 20
-16.721432
 30
0.0
 10
-3.834391
 20
-16.597925
 30
0.0
 10
-3.834391
 20
-16.252723
 30
0.0
 10
-3.850411
 20
-16.124559
 30
0.0
 10
-3.854545
 20
-16.114214
 30
0.0
 10
-3.933610
 20
-16.013460
 30
0.0
 10
-4.298962
 20
-15.648097
 30
0.0
 10
-4.401799
 20
-15.568511
 30
0.0
 10
-4.408516
 20
-15.565415
 30
0.0
 10
-4.410067
 20
-15.565415
 30
0.0
 10
-4.412134
 20
-15.565415
 30
0.0
 10
-4.535640
 20
-15.550440
 30
0.0
 10
-5.230688
 20
-15.550440
 30
0.0
 10
-5.500439
 20
-15.280670
 30
0.0
 10
-5.500439
 20
-15.070882
 30
0.0
 10
-5.230172
 20
-14.800610
 30
0.0
 10
-4.604887
 20
-14.800610
 30
0.0
 10
-4.261239
 20
-15.144251
 30
0.0
 10
-4.148787
 20
-15.212569
 30
0.0
 10
-4.017221
 20
-15.214333
 30
0.0
 10
-3.902978
 20
-15.149055
 30
0.0
 10
-3.837697
 20
-15.034814
 30
0.0
 10
-3.839457
 20
-14.903248
 30
0.0
 10
-3.907772
 20
-14.790794
 30
0.0
 10
-4.297412
 20
-14.401672
 30
0.0
 10
-4.401799
 20
-14.320021
 30
0.0
 10
-4.408516
 20
-14.316926
 30
0.0
 10
-4.410067
 20
-14.316926
 30
0.0
 10
-4.412134
 20
-14.316926
 30
0.0
 10
-4.537708
 20
-14.301421
 30
0.0
 10
-5.297351
 20
-14.301421
 30
0.0
 10
-5.338692
 20
-14.298828
 30
0.0
 10
-5.338692
 20
-14.296764
 30
0.0
  0
LWPOLYLINE
  5
116
100
AcDbEntity
  8
build
 62
7
100
AcDbPolyline
 90
36
 70
1
 10
-2.422074
 20
-14.296764
 30
0.0
 10
-2.459281
 20
-14.300389
 30
0.0
 10
-3.251481
 20
-14.300389
 30
0.0
 10
-3.380451
 20
-14.330623
 30
0.0
 10
-3.475873
 20
-14.422502
 30
0.0
 10
-3.510964
 20
-14.550235
 30
0.0
 10
-3.475873
 20
-14.677969
 30
0.0
 10
-3.380451
 20
-14.769848
 30
0.0
 10
-3.251481
 20
-14.800081
 30
0.0
 10
-2.668054
 20
-14.800081
 30
0.0
 10
-2.668054
 20
-17.049569
 30
0.0
 10
-2.637730
 20
-17.178433
 30
0.0
 10
-2.545859
 20
-17.273751
 30
0.0
 10
-2.418199
 20
-17.308799
 30
0.0
 10
-2.290538
 20
-17.273751
 30
0.0
 10
-2.198667
 20
-17.178433
 30
0.0
 10
-2.168343
 20
-17.049569
 30
0.0
 10
-2.168343
 20
-14.800081
 30
0.0
 10
-1.585433
 20
-14.800081
 30
0.0
 10
-1.560111
 20
-14.800081
 30
0.0
 10
-1.535307
 20
-14.796483
 30
0.0
 10
-1.487764
 20
-14.782513
 30
0.0
 10
-1.465027
 20
-14.771665
 30
0.0
 10
-1.388029
 20
-14.709144
 30
0.0
 10
-1.373043
 20
-14.688983
 30
0.0
 10
-1.349788
 20
-14.644533
 30
0.0
 10
-1.332184
 20
-14.534358
 30
0.0
 10
-1.364258
 20
-14.427495
 30
0.0
 10
-1.429370
 20
-14.352565
 30
0.0
 10
-1.449524
 20
-14.338621
 30
0.0
 10
-1.494482
 20
-14.316396
 30
0.0
 10
-1.567863
 20
-14.301421
 30
0.0
 10
-1.585433
 20
-14.301421
 30
0.0
 10
-2.376599
 20
-14.301421
 30
0.0
 10
-2.422074
 20
-14.297267
 30
0.0
 10
-2.422074
 20
-14.296764
 30
0.0
  0
LWPOLYLINE
  5
117
100
AcDbEntity
  8
build
 62
7
100
AcDbPolyline
 90
43
 70
1
 10
1.743563
 20
-14.296764
 30
0.0
 10
1.567863
 20
-14.373255
 30
0.0
 10
1.566313
 20
-14.373255
 30
0.0
 10
1.563212
 20
-14.376854
 30
0.0
 10
1.504968
 20
-14.475773
 30
0.0
 10
1.497066
 20
-14.590293
 30
0.0
 10
1.497066
 20
-16.173639
 30
0.0
 10
1.497066
 20
-16.256321
 30
0.0
 10
1.497066
 20
-17.048537
 30
0.0
 10
1.530575
 20
-17.173594
 30
0.0
 10
1.622123
 20
-17.265142
 30
0.0
 10
1.747180
 20
-17.298651
 30
0.0
 10
1.872237
 20
-17.265142
 30
0.0
 10
1.963785
 20
-17.173594
 30
0.0
 10
1.997294
 20
-17.048537
 30
0.0
 10
1.997294
 20
-16.465633
 30
0.0
 10
2.476851
 20
-16.465633
 30
0.0
 10
3.236495
 20
-17.225252
 30
0.0
 10
3.348947
 20
-17.293571
 30
0.0
 10
3.480514
 20
-17.295336
 30
0.0
 10
3.594758
 20
-17.230058
 30
0.0
 10
3.660039
 20
-17.115816
 30
0.0
 10
3.658278
 20
-16.984249
 30
0.0
 10
3.589962
 20
-16.871795
 30
0.0
 10
3.140377
 20
-16.422215
 30
0.0
 10
3.198254
 20
-16.367446
 30
0.0
 10
3.564640
 20
-16.002083
 30
0.0
 10
3.641638
 20
-15.903896
 30
0.0
 10
3.663342
 20
-15.765414
 30
0.0
 10
3.663342
 20
-15.002144
 30
0.0
 10
3.644739
 20
-14.869349
 30
0.0
 10
3.643188
 20
-14.865195
 30
0.0
 10
3.641121
 20
-14.861068
 30
0.0
 10
3.563090
 20
-14.763410
 30
0.0
 10
3.200838
 20
-14.401142
 30
0.0
 10
3.094902
 20
-14.318989
 30
0.0
 10
3.088184
 20
-14.316396
 30
0.0
 10
3.087150
 20
-14.316396
 30
0.0
 10
3.085600
 20
-14.316396
 30
0.0
 10
2.960026
 20
-14.300892
 30
0.0
 10
1.789038
 20
-14.300892
 30
0.0
 10
1.743563
 20
-14.297267
 30
0.0
 10
1.743563
 20
-14.296764
 30
0.0
  0
LWPOLYLINE
  5
118
100
AcDbEntity
  8
build
 62
7
100
AcDbPolyline
 90
41
 70
1
 10
5.075659
 20
-14.296764
 30
0.0
 10
5.038452
 20
-14.300389
 30
0.0
 10
4.246252
 20
-14.300389
 30
0.0
 10
4.117283
 20
-14.330623
 30
0.0
 10
4.021860
 20
-14.422502
 30
0.0
 10
3.986769
 20
-14.550235
 30
0.0
 10
4.021860
 20
-14.677969
 30
0.0
 10
4.117283
 20
-14.769848
 30
0.0
 10
4.246252
 20
-14.800081
 30
0.0
 10
4.829163
 20
-14.800081
 30
0.0
 10
4.829163
 20
-17.049569
 30
0.0
 10
4.862671
 20
-17.174626
 30
0.0
 10
4.954220
 20
-17.266174
 30
0.0
 10
5.079276
 20
-17.299683
 30
0.0
 10
5.204333
 20
-17.266174
 30
0.0
 10
5.295882
 20
-17.174626
 30
0.0
 10
5.329390
 20
-17.049569
 30
0.0
 10
5.329390
 20
-14.800081
 30
0.0
 10
5.912301
 20
-14.800081
 30
0.0
 10
5.937622
 20
-14.800081
 30
0.0
 10
5.986198
 20
-14.790794
 30
0.0
 10
6.074048
 20
-14.744281
 30
0.0
 10
6.124174
 20
-14.688983
 30
0.0
 10
6.137093
 20
-14.667287
 30
0.0
 10
6.147428
 20
-14.644533
 30
0.0
 10
6.155697
 20
-14.621276
 30
0.0
 10
6.161898
 20
-14.597014
 30
0.0
 10
6.164998
 20
-14.572196
 30
0.0
 10
6.164482
 20
-14.522057
 30
0.0
 10
6.160347
 20
-14.497266
 30
0.0
 10
6.153629
 20
-14.473506
 30
0.0
 10
6.144844
 20
-14.450249
 30
0.0
 10
6.133476
 20
-14.427495
 30
0.0
 10
6.120040
 20
-14.406328
 30
0.0
 10
6.047693
 20
-14.338621
 30
0.0
 10
5.954675
 20
-14.303987
 30
0.0
 10
5.929871
 20
-14.301421
 30
0.0
 10
5.912301
 20
-14.301421
 30
0.0
 10
5.121135
 20
-14.301421
 30
0.0
 10
5.075659
 20
-14.297267
 30
0.0
 10
5.075659
 20
-14.296764
 30
0.0
  0
LWPOLYLINE
  5
119
100
AcDbEntity
  8
build
 62
7
100
AcDbPolyline
 90
9
 70
1
 10
1.997294
 20
-14.799049
 30
0.0
 10
2.892847
 20
-14.799049
 30
0.0
 10
3.163114
 20
-15.069321
 30
0.0
 10
3.163114
 20
-15.695643
 30
0.0
 10
2.893363
 20
-15.965386
 30
0.0
 10
2.609660
 20
-15.965386
 30
0.0
 10
2.545581
 20
-15.965386
 30
0.0
 10
1.997294
 20
-15.965386
 30
0.0
 10
1.997294
 20
-14.799049
 30
0.0
  0
LWPOLYLINE
  5
11a
100
AcDbEntity
  8
build
 62
7
100
AcDbPolyline
 90
6
 70
1
 10
0.081132
 20
-14.902925
 30
0.0
 10
0.664042
 20
-15.485828
 30
0.0
 10
0.664042
 20
-15.548879
 30
0.0
 10
-0.502295
 20
-15.548879
 30
0.0
 10
-0.502295
 20
-15.486357
 30
0.0
 10
0.081132
 20
-14.902925
 30
0.0
  0
LWPOLYLINE
  5
11b
100
AcDbEntity
  8
build
 62
7
100
AcDbPolyline
 90
34
 70
1
 10
-71.332598
 20
-22.115414
 30
0.0
 10
-71.431002
 20
-22.134817
 30
0.0
 10
-71.513862
 20
-22.191333
 30
0.0
 10
-71.567844
 20
-22.275865
 30
0.0
 10
-71.584262
 20
-22.374811
 30
0.0
 10
-71.584262
 20
-24.136989
 30
0.0
 10
-72.267424
 20
-24.820672
 30
0.0
 10
-72.950586
 20
-24.137492
 30
0.0
 10
-72.950586
 20
-22.374811
 30
0.0
 10
-73.023796
 20
-22.194297
 30
0.0
 10
-73.204316
 20
-22.121102
 30
0.0
 10
-73.204316
 20
-22.121605
 30
0.0
 10
-73.379816
 20
-22.197568
 30
0.0
 10
-73.450297
 20
-22.375340
 30
0.0
 10
-73.450297
 20
-24.204696
 30
0.0
 10
-73.434795
 20
-24.331299
 30
0.0
 10
-73.430143
 20
-24.343179
 30
0.0
 10
-73.351596
 20
-24.443932
 30
0.0
 10
-72.473095
 20
-25.322455
 30
0.0
 10
-72.392779
 20
-25.394381
 30
0.0
 10
-72.289644
 20
-25.425801
 30
0.0
 10
-72.266908
 20
-25.425801
 30
0.0
 10
-72.262772
 20
-25.425801
 30
0.0
 10
-72.260706
 20
-25.425801
 30
0.0
 10
-72.149205
 20
-25.397327
 30
0.0
 10
-72.062269
 20
-25.321925
 30
0.0
 10
-71.182735
 20
-24.442397
 30
0.0
 10
-71.103670
 20
-24.339554
 30
0.0
 10
-71.101604
 20
-24.335426
 30
0.0
 10
-71.100053
 20
-24.331299
 30
0.0
 10
-71.084551
 20
-24.204167
 30
0.0
 10
-71.084551
 20
-22.374811
 30
0.0
 10
-71.153696
 20
-22.192635
 30
0.0
 10
-71.332598
 20
-22.115414
 30
0.0
  0
LWPOLYLINE
  5
11c
100
AcDbEntity
  8
build
 62
7
100
AcDbPolyline
 90
35
 70
1
 10
59.995821
 20
-22.119541
 30
0.0
 10
59.995821
 20
-22.121605
 30
0.0
 10
59.819988
 20
-22.197388
 30
0.0
 10
59.749325
 20
-22.375340
 30
0.0
 10
59.749325
 20
-24.206230
 30
0.0
 10
59.767928
 20
-24.339051
 30
0.0
 10
59.771545
 20
-24.347306
 30
0.0
 10
59.848544
 20
-24.443932
 30
0.0
 10
60.727042
 20
-25.322455
 30
0.0
 10
60.807127
 20
-25.394276
 30
0.0
 10
60.909978
 20
-25.425801
 30
0.0
 10
60.933232
 20
-25.425801
 30
0.0
 10
60.937365
 20
-25.425801
 30
0.0
 10
60.939434
 20
-25.425801
 30
0.0
 10
61.050935
 20
-25.397327
 30
0.0
 10
61.137871
 20
-25.321925
 30
0.0
 10
62.016886
 20
-24.442397
 30
0.0
 10
62.096467
 20
-24.339554
 30
0.0
 10
62.098534
 20
-24.335426
 30
0.0
 10
62.100084
 20
-24.331299
 30
0.0
 10
62.100603
 20
-24.328203
 30
0.0
 10
62.115589
 20
-24.204696
 30
0.0
 10
62.115589
 20
-22.373276
 30
0.0
 10
62.082080
 20
-22.248219
 30
0.0
 10
61.990532
 20
-22.156671
 30
0.0
 10
61.865474
 20
-22.123162
 30
0.0
 10
61.740417
 20
-22.156671
 30
0.0
 10
61.648869
 20
-22.248219
 30
0.0
 10
61.615360
 20
-22.373276
 30
0.0
 10
61.615360
 20
-24.135957
 30
0.0
 10
60.932716
 20
-24.819111
 30
0.0
 10
60.249551
 20
-24.135957
 30
0.0
 10
60.249551
 20
-22.373276
 30
0.0
 10
60.176351
 20
-22.192746
 30
0.0
 10
59.995821
 20
-22.119541
 30
0.0
  0
LWPOLYLINE
  5
11d
100
AcDbEntity
  8
build
 62
7
100
AcDbPolyline
 90
44
 70
1
 10
-69.004574
 20
-22.120573
 30
0.0
 10
-69.004574
 20
-22.121605
 30
0.0
 10
-69.036613
 20
-22.124198
 30
0.0
 10
-69.899609
 20
-22.124198
 30
0.0
 10
-70.032417
 20
-22.142798
 30
0.0
 10
-70.040685
 20
-22.146423
 30
0.0
 10
-70.138353
 20
-22.224448
 30
0.0
 10
-70.552799
 20
-22.638892
 30
0.0
 10
-70.623597
 20
-22.723638
 30
0.0
 10
-70.630314
 20
-22.737581
 30
0.0
 10
-70.635482
 20
-22.749487
 30
0.0
 10
-70.636516
 20
-22.752054
 30
0.0
 10
-70.651502
 20
-22.875561
 30
0.0
 10
-70.651502
 20
-24.670283
 30
0.0
 10
-70.632897
 20
-24.804639
 30
0.0
 10
-70.629280
 20
-24.812920
 30
0.0
 10
-70.553315
 20
-24.908514
 30
0.0
 10
-70.136803
 20
-25.325021
 30
0.0
 10
-70.033967
 20
-25.404105
 30
0.0
 10
-70.025183
 20
-25.407703
 30
0.0
 10
-69.896508
 20
-25.423737
 30
0.0
 10
-69.038679
 20
-25.423737
 30
0.0
 10
-68.927575
 20
-25.413921
 30
0.0
 10
-68.913624
 20
-25.408232
 30
0.0
 10
-68.900188
 20
-25.403576
 30
0.0
 10
-68.799419
 20
-25.325021
 30
0.0
 10
-68.383938
 20
-24.909546
 30
0.0
 10
-68.313144
 20
-24.824800
 30
0.0
 10
-68.311075
 20
-24.821175
 30
0.0
 10
-68.302291
 20
-24.802072
 30
0.0
 10
-68.300740
 20
-24.797918
 30
0.0
 10
-68.300224
 20
-24.794822
 30
0.0
 10
-68.285238
 20
-24.671315
 30
0.0
 10
-68.285238
 20
-22.875059
 30
0.0
 10
-68.303841
 20
-22.742238
 30
0.0
 10
-68.305392
 20
-22.738110
 30
0.0
 10
-68.307458
 20
-22.733983
 30
0.0
 10
-68.384457
 20
-22.637331
 30
0.0
 10
-68.799935
 20
-22.221855
 30
0.0
 10
-68.902771
 20
-22.142798
 30
0.0
 10
-68.910523
 20
-22.139173
 30
0.0
 10
-68.911039
 20
-22.139173
 30
0.0
 10
-68.911555
 20
-22.139173
 30
0.0
 10
-69.004574
 20
-22.120573
 30
0.0
  0
LWPOLYLINE
  5
11e
100
AcDbEntity
  8
build
 62
7
100
AcDbPolyline
 90
22
 70
1
 10
-67.606209
 20
-22.121605
 30
0.0
 10
-67.781709
 20
-22.197568
 30
0.0
 10
-67.852189
 20
-22.375340
 30
0.0
 10
-67.852189
 20
-25.132801
 30
0.0
 10
-67.843077
 20
-25.252384
 30
0.0
 10
-67.779326
 20
-25.353966
 30
0.0
 10
-67.778291
 20
-25.356559
 30
0.0
 10
-67.775709
 20
-25.359126
 30
0.0
 10
-67.676319
 20
-25.417613
 30
0.0
 10
-67.561251
 20
-25.425272
 30
0.0
 10
-65.736039
 20
-25.425272
 30
0.0
 10
-65.607069
 20
-25.395038
 30
0.0
 10
-65.511646
 20
-25.303159
 30
0.0
 10
-65.476555
 20
-25.175426
 30
0.0
 10
-65.511646
 20
-25.047692
 30
0.0
 10
-65.607069
 20
-24.955813
 30
0.0
 10
-65.736039
 20
-24.925580
 30
0.0
 10
-67.352479
 20
-24.925580
 30
0.0
 10
-67.352479
 20
-22.376372
 30
0.0
 10
-67.425680
 20
-22.195841
 30
0.0
 10
-67.606209
 20
-22.122637
 30
0.0
 10
-67.606209
 20
-22.121605
 30
0.0
  0
LWPOLYLINE
  5
11f
100
AcDbEntity
  8
build
 62
7
100
AcDbPolyline
 90
23
 70
1
 10
-62.008102
 20
-22.121605
 30
0.0
 10
-62.183602
 20
-22.197568
 30
0.0
 10
-62.254082
 20
-22.375340
 30
0.0
 10
-62.254082
 20
-25.132801
 30
0.0
 10
-62.248476
 20
-25.240841
 30
0.0
 10
-62.197753
 20
-25.336398
 30
0.0
 10
-62.183801
 20
-25.351374
 30
0.0
 10
-62.180184
 20
-25.355527
 30
0.0
 10
-62.175533
 20
-25.359655
 30
0.0
 10
-62.076967
 20
-25.417095
 30
0.0
 10
-61.963144
 20
-25.424769
 30
0.0
 10
-60.137932
 20
-25.424769
 30
0.0
 10
-60.009110
 20
-25.394408
 30
0.0
 10
-59.913835
 20
-25.302541
 30
0.0
 10
-59.878805
 20
-25.174910
 30
0.0
 10
-59.913835
 20
-25.047278
 30
0.0
 10
-60.009110
 20
-24.955411
 30
0.0
 10
-60.137932
 20
-24.925050
 30
0.0
 10
-61.754369
 20
-24.925050
 30
0.0
 10
-61.754369
 20
-22.375843
 30
0.0
 10
-61.827580
 20
-22.195328
 30
0.0
 10
-62.008102
 20
-22.122134
 30
0.0
 10
-62.008102
 20
-22.121605
 30
0.0
  0
LWPOLYLINE
  5
120
100
AcDbEntity
  8
build
 62
7
100
AcDbPolyline
 90
37
 70
1
 10
64.195566
 20
-22.121605
 30
0.0
 10
64.163525
 20
-22.124198
 30
0.0
 10
63.300012
 20
-22.124198
 30
0.0
 10
63.167720
 20
-22.142798
 30
0.0
 10
63.159452
 20
-22.146423
 30
0.0
 10
63.063334
 20
-22.222385
 30
0.0
 10
62.647856
 20
-22.638362
 30
0.0
 10
62.567241
 20
-22.742767
 30
0.0
 10
62.564656
 20
-22.749487
 30
0.0
 10
62.563624
 20
-22.752054
 30
0.0
 10
62.548638
 20
-22.877625
 30
0.0
 10
62.548638
 20
-24.670283
 30
0.0
 10
62.564656
 20
-24.798950
 30
0.0
 10
62.568791
 20
-24.808792
 30
0.0
 10
62.580160
 20
-24.830991
 30
0.0
 10
62.646306
 20
-24.908514
 30
0.0
 10
63.062818
 20
-25.325021
 30
0.0
 10
63.166170
 20
-25.404105
 30
0.0
 10
63.174954
 20
-25.407703
 30
0.0
 10
63.303629
 20
-25.423208
 30
0.0
 10
64.161458
 20
-25.423208
 30
0.0
 10
64.288067
 20
-25.407703
 30
0.0
 10
64.299952
 20
-25.403576
 30
0.0
 10
64.400721
 20
-25.325021
 30
0.0
 10
64.816199
 20
-24.909546
 30
0.0
 10
64.895780
 20
-24.805670
 30
0.0
 10
64.897331
 20
-24.801543
 30
0.0
 10
64.898881
 20
-24.797415
 30
0.0
 10
64.914902
 20
-24.672347
 30
0.0
 10
64.914902
 20
-22.873498
 30
0.0
 10
64.898881
 20
-22.751022
 30
0.0
 10
64.894230
 20
-22.739142
 30
0.0
 10
64.815683
 20
-22.638362
 30
0.0
 10
64.400202
 20
-22.222887
 30
0.0
 10
64.296335
 20
-22.143301
 30
0.0
 10
64.288583
 20
-22.140205
 30
0.0
 10
64.195566
 20
-22.121605
 30
0.0
  0
LWPOLYLINE
  5
121
100
AcDbEntity
  8
build
 62
7
100
AcDbPolyline
 90
20
 70
1
 10
65.593928
 20
-22.121605
 30
0.0
 10
65.418095
 20
-22.197388
 30
0.0
 10
65.347432
 20
-22.375340
 30
0.0
 10
65.347432
 20
-25.135897
 30
0.0
 10
65.356064
 20
-25.249982
 30
0.0
 10
65.414612
 20
-25.348278
 30
0.0
 10
65.422881
 20
-25.356559
 30
0.0
 10
65.522786
 20
-25.416245
 30
0.0
 10
65.638886
 20
-25.424240
 30
0.0
 10
67.463583
 20
-25.424240
 30
0.0
 10
67.592552
 20
-25.394006
 30
0.0
 10
67.687975
 20
-25.302127
 30
0.0
 10
67.723066
 20
-25.174394
 30
0.0
 10
67.687975
 20
-25.046660
 30
0.0
 10
67.592552
 20
-24.954781
 30
0.0
 10
67.463583
 20
-24.924548
 30
0.0
 10
65.847661
 20
-24.924548
 30
0.0
 10
65.847661
 20
-22.375340
 30
0.0
 10
65.774459
 20
-22.194808
 30
0.0
 10
65.593928
 20
-22.121605
 30
0.0
  0
LWPOLYLINE
  5
122
100
AcDbEntity
  8
build
 62
7
100
AcDbPolyline
 90
43
 70
1
 10
71.192038
 20
-22.121605
 30
0.0
 10
71.016855
 20
-22.197064
 30
0.0
 10
71.014786
 20
-22.199630
 30
0.0
 10
71.011169
 20
-22.204287
 30
0.0
 10
70.953732
 20
-22.302849
 30
0.0
 10
70.946058
 20
-22.416668
 30
0.0
 10
70.946058
 20
-24.200039
 30
0.0
 10
70.946058
 20
-24.283224
 30
0.0
 10
70.946058
 20
-25.175161
 30
0.0
 10
70.976380
 20
-25.304028
 30
0.0
 10
71.068251
 20
-25.399348
 30
0.0
 10
71.195913
 20
-25.434396
 30
0.0
 10
71.323575
 20
-25.399348
 30
0.0
 10
71.415446
 20
-25.304028
 30
0.0
 10
71.445768
 20
-25.175161
 30
0.0
 10
71.445768
 20
-24.492007
 30
0.0
 10
72.025579
 20
-24.492007
 30
0.0
 10
72.884956
 20
-25.351903
 30
0.0
 10
72.997543
 20
-25.420019
 30
0.0
 10
73.129122
 20
-25.421637
 30
0.0
 10
73.243350
 20
-25.356310
 30
0.0
 10
73.308676
 20
-25.242082
 30
0.0
 10
73.307057
 20
-25.110503
 30
0.0
 10
73.238939
 20
-24.997917
 30
0.0
 10
72.707706
 20
-24.466686
 30
0.0
 10
72.797106
 20
-24.394349
 30
0.0
 10
73.215169
 20
-23.976281
 30
0.0
 10
73.292684
 20
-23.874469
 30
0.0
 10
73.294751
 20
-23.870342
 30
0.0
 10
73.296301
 20
-23.866214
 30
0.0
 10
73.311803
 20
-23.739082
 30
0.0
 10
73.311803
 20
-22.879689
 30
0.0
 10
73.301987
 20
-22.769120
 30
0.0
 10
73.296301
 20
-22.752583
 30
0.0
 10
73.291650
 20
-22.740703
 30
0.0
 10
73.213103
 20
-22.639924
 30
0.0
 10
72.797622
 20
-22.224448
 30
0.0
 10
72.693755
 20
-22.144862
 30
0.0
 10
72.686003
 20
-22.141766
 30
0.0
 10
72.560945
 20
-22.125732
 30
0.0
 10
71.234411
 20
-22.125732
 30
0.0
 10
71.192038
 20
-22.122134
 30
0.0
 10
71.192038
 20
-22.121605
 30
0.0
  0
LWPOLYLINE
  5
123
100
AcDbEntity
  8
build
 62
7
100
AcDbPolyline
 90
58
 70
1
 10
-58.319956
 20
-22.599098
 30
0.0
 10
-54.975456
 20
-22.599098
 30
0.0
 10
-40.894661
 20
-22.599098
 30
0.0
 10
-0.000517
 20
-22.599098
 30
0.0
 10
40.893627
 20
-22.599098
 30
0.0
 10
54.974421
 20
-22.599098
 30
0.0
 10
58.318921
 20
-22.599098
 30
0.0
 10
56.773794
 20
-24.144741
 30
0.0
 10
56.651321
 20
-24.304417
 30
0.0
 10
56.649773
 20
-24.308545
 30
0.0
 10
56.646154
 20
-24.317858
 30
0.0
 10
56.624450
 20
-24.503887
 30
0.0
 10
56.624450
 20
-35.442238
 30
0.0
 10
56.592066
 20
-35.594691
 30
0.0
 10
56.624450
 20
-35.747144
 30
0.0
 10
56.624450
 20
-43.195773
 30
0.0
 10
56.647704
 20
-43.383363
 30
0.0
 10
56.654941
 20
-43.401434
 30
0.0
 10
56.772246
 20
-43.551823
 30
0.0
 10
57.624390
 20
-44.403966
 30
0.0
 10
57.624390
 20
-53.594110
 30
0.0
 10
57.492614
 20
-53.725872
 30
0.0
 10
34.444408
 20
-53.725872
 30
0.0
 10
33.449122
 20
-52.730086
 30
0.0
 10
33.296159
 20
-52.612241
 30
0.0
 10
33.282207
 20
-52.606579
 30
0.0
 10
33.095136
 20
-52.582793
 30
0.0
 10
27.203508
 20
-52.582793
 30
0.0
 10
27.047961
 20
-52.549015
 30
0.0
 10
26.892414
 20
-52.582793
 30
0.0
 10
0.040308
 20
-52.582793
 30
0.0
 10
-0.001034
 20
-52.585386
 30
0.0
 10
-0.041341
 20
-52.582793
 30
0.0
 10
-26.893964
 20
-52.582793
 30
0.0
 10
-27.049252
 20
-52.549133
 30
0.0
 10
-27.204540
 20
-52.582793
 30
0.0
 10
-33.096687
 20
-52.582793
 30
0.0
 10
-33.288925
 20
-52.608643
 30
0.0
 10
-33.299260
 20
-52.612770
 30
0.0
 10
-33.300810
 20
-52.612770
 30
0.0
 10
-33.452221
 20
-52.731621
 30
0.0
 10
-34.445443
 20
-53.724840
 30
0.0
 10
-57.493649
 20
-53.724840
 30
0.0
 10
-57.625424
 20
-53.593078
 30
0.0
 10
-57.625424
 20
-44.402935
 30
0.0
 10
-56.774313
 20
-43.551823
 30
0.0
 10
-56.652356
 20
-43.392147
 30
0.0
 10
-56.651321
 20
-43.389554
 30
0.0
 10
-56.648739
 20
-43.383363
 30
0.0
 10
-56.647188
 20
-43.378706
 30
0.0
 10
-56.625485
 20
-43.192677
 30
0.0
 10
-56.625485
 20
-35.746085
 30
0.0
 10
-56.592876
 20
-35.593130
 30
0.0
 10
-56.625485
 20
-35.440174
 30
0.0
 10
-56.625485
 20
-24.502352
 30
0.0
 10
-56.647704
 20
-24.315265
 30
0.0
 10
-56.775345
 20
-24.142677
 30
0.0
 10
-58.319956
 20
-22.599098
 30
0.0
  0
LWPOLYLINE
  5
124
100
AcDbEntity
  8
build
 62
7
100
AcDbPolyline
 90
9
 70
1
 10
-69.831397
 20
-22.624419
 30
0.0
 10
-69.105343
 20
-22.624419
 30
0.0
 10
-68.785465
 20
-22.944300
 30
0.0
 10
-68.785465
 20
-24.603635
 30
0.0
 10
-69.105343
 20
-24.923516
 30
0.0
 10
-69.831397
 20
-24.923516
 30
0.0
 10
-70.151273
 20
-24.603635
 30
0.0
 10
-70.151273
 20
-22.944300
 30
0.0
 10
-69.831397
 20
-22.624419
 30
0.0
  0
LWPOLYLINE
  5
125
100
AcDbEntity
  8
build
 62
7
100
AcDbPolyline
 90
9
 70
1
 10
63.368743
 20
-22.624419
 30
0.0
 10
64.094797
 20
-22.624419
 30
0.0
 10
64.414673
 20
-22.944300
 30
0.0
 10
64.414673
 20
-24.603635
 30
0.0
 10
64.094797
 20
-24.923516
 30
0.0
 10
63.368743
 20
-24.923516
 30
0.0
 10
63.048348
 20
-24.603105
 30
0.0
 10
63.048348
 20
-22.944803
 30
0.0
 10
63.368743
 20
-22.624419
 30
0.0
  0
LWPOLYLINE
  5
126
100
AcDbEntity
  8
build
 62
7
100
AcDbPolyline
 90
9
 70
1
 10
71.445768
 20
-22.624419
 30
0.0
 10
72.492216
 20
-22.624419
 30
0.0
 10
72.812092
 20
-22.944803
 30
0.0
 10
72.812092
 20
-23.669841
 30
0.0
 10
72.492216
 20
-23.990225
 30
0.0
 10
72.158386
 20
-23.990225
 30
0.0
 10
72.094307
 20
-23.990225
 30
0.0
 10
71.445768
 20
-23.990225
 30
0.0
 10
71.445768
 20
-22.624419
 30
0.0
  0
LWPOLYLINE
  5
127
100
AcDbEntity
  8
build
 62
7
100
AcDbPolyline
 90
15
 70
1
 10
-64.803279
 20
-23.524108
 30
0.0
 10
-64.932101
 20
-23.554469
 30
0.0
 10
-65.027376
 20
-23.646336
 30
0.0
 10
-65.062406
 20
-23.773967
 30
0.0
 10
-65.027376
 20
-23.901599
 30
0.0
 10
-64.932101
 20
-23.993466
 30
0.0
 10
-64.803279
 20
-24.023827
 30
0.0
 10
-62.937244
 20
-24.023827
 30
0.0
 10
-62.808422
 20
-23.993466
 30
0.0
 10
-62.713148
 20
-23.901599
 30
0.0
 10
-62.678117
 20
-23.773967
 30
0.0
 10
-62.713148
 20
-23.646336
 30
0.0
 10
-62.808422
 20
-23.554469
 30
0.0
 10
-62.937244
 20
-23.524108
 30
0.0
 10
-64.803279
 20
-23.524108
 30
0.0
  0
LWPOLYLINE
  5
128
100
AcDbEntity
  8
build
 62
7
100
AcDbPolyline
 90
15
 70
1
 10
68.396858
 20
-23.524108
 30
0.0
 10
68.268036
 20
-23.554469
 30
0.0
 10
68.172761
 20
-23.646336
 30
0.0
 10
68.137731
 20
-23.773967
 30
0.0
 10
68.172761
 20
-23.901599
 30
0.0
 10
68.268036
 20
-23.993466
 30
0.0
 10
68.396858
 20
-24.023827
 30
0.0
 10
70.262896
 20
-24.023827
 30
0.0
 10
70.391718
 20
-23.993466
 30
0.0
 10
70.486992
 20
-23.901599
 30
0.0
 10
70.522023
 20
-23.773967
 30
0.0
 10
70.486992
 20
-23.646336
 30
0.0
 10
70.391718
 20
-23.554469
 30
0.0
 10
70.262896
 20
-23.524108
 30
0.0
 10
68.396858
 20
-23.524108
 30
0.0
  0
LWPOLYLINE
  5
129
100
AcDbEntity
  8
build
 62
7
100
AcDbPolyline
 90
6
 70
1
 10
57.374277
 20
-26.447966
 30
0.0
 10
67.408287
 20
-26.447966
 30
0.0
 10
67.407771
 20
-26.452093
 30
0.0
 10
66.038862
 20
-48.182560
 30
0.0
 10
57.374277
 20
-35.524920
 30
0.0
 10
57.374277
 20
-26.447966
 30
0.0
  0
LWPOLYLINE
  5
12a
100
AcDbEntity
  8
build
 62
7
100
AcDbPolyline
 90
6
 70
1
 10
68.605633
 20
-26.447966
 30
0.0
 10
70.696976
 20
-26.447966
 30
0.0
 10
69.365791
 20
-53.043221
 30
0.0
 10
67.140087
 20
-49.791756
 30
0.0
 10
68.605633
 20
-26.527526
 30
0.0
 10
68.605633
 20
-26.447966
 30
0.0
  0
LWPOLYLINE
  5
12b
100
AcDbEntity
  8
build
 62
7
100
AcDbPolyline
 90
6
 70
1
 10
-70.698011
 20
-26.449500
 30
0.0
 10
-68.606665
 20
-26.449500
 30
0.0
 10
-68.606665
 20
-26.528055
 30
0.0
 10
-67.141122
 20
-49.793820
 30
0.0
 10
-69.366826
 20
-53.045311
 30
0.0
 10
-70.698011
 20
-26.449500
 30
0.0
  0
LWPOLYLINE
  5
12c
100
AcDbEntity
  8
build
 62
7
100
AcDbPolyline
 90
6
 70
1
 10
-67.409322
 20
-26.449500
 30
0.0
 10
-57.375309
 20
-26.449500
 30
0.0
 10
-57.375309
 20
-35.526984
 30
0.0
 10
-66.039897
 20
-48.184624
 30
0.0
 10
-67.408806
 20
-26.452596
 30
0.0
 10
-67.409322
 20
-26.449500
 30
0.0
  0
LWPOLYLINE
  5
12d
100
AcDbEntity
  8
build
 62
7
100
AcDbPolyline
 90
67
 70
1
 10
57.374277
 20
-36.852996
 30
0.0
 10
65.962382
 20
-49.399009
 30
0.0
 10
65.784616
 20
-52.221584
 30
0.0
 10
58.599525
 20
-55.749538
 30
0.0
 10
56.087015
 20
-67.987020
 30
0.0
 10
66.737013
 20
-57.337038
 30
0.0
 10
66.941134
 20
-52.893890
 30
0.0
 10
66.948368
 20
-52.836528
 30
0.0
 10
67.063607
 20
-51.007702
 30
0.0
 10
69.303781
 20
-54.280360
 30
0.0
 10
69.059351
 20
-59.165864
 30
0.0
 10
69.009226
 20
-59.210288
 30
0.0
 10
56.450817
 20
-71.769212
 30
0.0
 10
54.551191
 20
-67.182951
 30
0.0
 10
54.451456
 20
-67.011898
 30
0.0
 10
54.449390
 20
-67.009305
 30
0.0
 10
54.444739
 20
-67.004146
 30
0.0
 10
54.442154
 20
-67.001553
 30
0.0
 10
54.278340
 20
-66.909054
 30
0.0
 10
52.795744
 20
-66.295142
 30
0.0
 10
51.645944
 20
-63.518049
 30
0.0
 10
52.300166
 20
-61.939333
 30
0.0
 10
52.348225
 20
-61.782752
 30
0.0
 10
52.349260
 20
-61.760025
 30
0.0
 10
52.349776
 20
-61.738831
 30
0.0
 10
52.300166
 20
-61.556401
 30
0.0
 10
50.220708
 20
-56.537599
 30
0.0
 10
50.139109
 20
-56.377357
 30
0.0
 10
49.992299
 20
-56.273519
 30
0.0
 10
49.980929
 20
-56.269391
 30
0.0
 10
49.813208
 20
-56.247159
 30
0.0
 10
49.652783
 20
-56.300903
 30
0.0
 10
37.578586
 20
-61.302163
 30
0.0
 10
37.417872
 20
-61.392598
 30
0.0
 10
37.307800
 20
-61.573970
 30
0.0
 10
36.618952
 20
-63.236929
 30
0.0
 10
33.524568
 20
-64.518491
 30
0.0
 10
31.863170
 20
-63.830177
 30
0.0
 10
31.668868
 20
-63.779007
 30
0.0
 10
31.665251
 20
-63.779007
 30
0.0
 10
31.654914
 20
-63.779007
 30
0.0
 10
31.476633
 20
-63.829648
 30
0.0
 10
30.487546
 20
-64.238932
 30
0.0
 10
27.547155
 20
-53.333151
 30
0.0
 10
32.991269
 20
-53.333151
 30
0.0
 10
33.985523
 20
-54.327402
 30
0.0
 10
34.139002
 20
-54.446253
 30
0.0
 10
34.153470
 20
-54.452445
 30
0.0
 10
34.341057
 20
-54.476231
 30
0.0
 10
57.596484
 20
-54.476231
 30
0.0
 10
57.791305
 20
-54.449349
 30
0.0
 10
57.793887
 20
-54.449349
 30
0.0
 10
57.800089
 20
-54.446756
 30
0.0
 10
57.803190
 20
-54.444190
 30
0.0
 10
57.950468
 20
-54.328434
 30
0.0
 10
58.225904
 20
-54.053003
 30
0.0
 10
58.344758
 20
-53.899518
 30
0.0
 10
58.350960
 20
-53.885046
 30
0.0
 10
58.374732
 20
-53.697456
 30
0.0
 10
58.374732
 20
-44.299588
 30
0.0
 10
58.347343
 20
-44.104246
 30
0.0
 10
58.346827
 20
-44.101654
 30
0.0
 10
58.344242
 20
-44.095462
 30
0.0
 10
58.342691
 20
-44.092367
 30
0.0
 10
58.226936
 20
-43.945073
 30
0.0
 10
57.374277
 20
-43.092427
 30
0.0
 10
57.374277
 20
-36.852996
 30
0.0
  0
LWPOLYLINE
  5
12e
100
AcDbEntity
  8
build
 62
7
100
AcDbPolyline
 90
69
 70
1
 10
-57.375309
 20
-36.854557
 30
0.0
 10
-57.375309
 20
-43.093961
 30
0.0
 10
-58.226936
 20
-43.945602
 30
0.0
 10
-58.344758
 20
-44.096997
 30
0.0
 10
-58.351994
 20
-44.113533
 30
0.0
 10
-58.375248
 20
-44.304245
 30
0.0
 10
-58.375248
 20
-53.694360
 30
0.0
 10
-58.348893
 20
-53.893301
 30
0.0
 10
-58.346827
 20
-53.897957
 30
0.0
 10
-58.343726
 20
-53.905207
 30
0.0
 10
-58.227971
 20
-54.052474
 30
0.0
 10
-57.952534
 20
-54.327905
 30
0.0
 10
-57.799055
 20
-54.446756
 30
0.0
 10
-57.784587
 20
-54.452974
 30
0.0
 10
-57.597000
 20
-54.476733
 30
0.0
 10
-34.341057
 20
-54.476733
 30
0.0
 10
-34.145720
 20
-54.449349
 30
0.0
 10
-34.144170
 20
-54.449349
 30
0.0
 10
-34.137968
 20
-54.446756
 30
0.0
 10
-34.134867
 20
-54.444190
 30
0.0
 10
-33.987589
 20
-54.328434
 30
0.0
 10
-32.992301
 20
-53.333151
 30
0.0
 10
-27.548189
 20
-53.333151
 30
0.0
 10
-30.488062
 20
-64.239461
 30
0.0
 10
-31.477664
 20
-63.829648
 30
0.0
 10
-31.670419
 20
-63.778504
 30
0.0
 10
-31.674035
 20
-63.778504
 30
0.0
 10
-31.684370
 20
-63.778504
 30
0.0
 10
-31.864721
 20
-63.829648
 30
0.0
 10
-33.525603
 20
-64.517459
 30
0.0
 10
-36.619987
 20
-63.235897
 30
0.0
 10
-37.308316
 20
-61.573970
 30
0.0
 10
-37.409602
 20
-61.400350
 30
0.0
 10
-37.410636
 20
-61.400350
 30
0.0
 10
-37.415287
 20
-61.395693
 30
0.0
 10
-37.420455
 20
-61.391566
 30
0.0
 10
-37.581687
 20
-61.301131
 30
0.0
 10
-49.651751
 20
-56.301961
 30
0.0
 10
-49.817714
 20
-56.246565
 30
0.0
 10
-49.990748
 20
-56.272487
 30
0.0
 10
-50.000567
 20
-56.276112
 30
0.0
 10
-50.003665
 20
-56.278705
 30
0.0
 10
-50.143877
 20
-56.382815
 30
0.0
 10
-50.221740
 20
-56.539134
 30
0.0
 10
-52.299134
 20
-61.553306
 30
0.0
 10
-52.349260
 20
-61.713511
 30
0.0
 10
-52.350294
 20
-61.736239
 30
0.0
 10
-52.350810
 20
-61.757432
 30
0.0
 10
-52.299650
 20
-61.942428
 30
0.0
 10
-51.646460
 20
-63.519080
 30
0.0
 10
-52.796779
 20
-66.296174
 30
0.0
 10
-54.279890
 20
-66.910615
 30
0.0
 10
-54.450940
 20
-67.010337
 30
0.0
 10
-54.455073
 20
-67.013962
 30
0.0
 10
-54.461791
 20
-67.021185
 30
0.0
 10
-54.552226
 20
-67.182951
 30
0.0
 10
-56.451852
 20
-71.768709
 30
0.0
 10
-69.010257
 20
-59.210288
 30
0.0
 10
-69.060383
 20
-59.166367
 30
0.0
 10
-69.304813
 20
-54.281921
 30
0.0
 10
-67.064641
 20
-51.009236
 30
0.0
 10
-66.949402
 20
-52.837057
 30
0.0
 10
-66.942168
 20
-52.899579
 30
0.0
 10
-66.738045
 20
-57.337038
 30
0.0
 10
-56.088050
 20
-67.987020
 30
0.0
 10
-58.600557
 20
-55.749538
 30
0.0
 10
-65.785648
 20
-52.221584
 30
0.0
 10
-65.963416
 20
-49.400570
 30
0.0
 10
-57.375309
 20
-36.854557
 30
0.0
  0
LWPOLYLINE
  5
12f
100
AcDbEntity
  8
build
 62
7
100
AcDbPolyline
 90
51
 70
1
 10
-47.504077
 20
-48.018730
 30
0.0
 10
-47.504077
 20
-48.020794
 30
0.0
 10
-47.679777
 20
-48.097285
 30
0.0
 10
-47.681327
 20
-48.097285
 30
0.0
 10
-47.683394
 20
-48.099878
 30
0.0
 10
-47.742561
 20
-48.199372
 30
0.0
 10
-47.750574
 20
-48.314852
 30
0.0
 10
-47.750574
 20
-49.484787
 30
0.0
 10
-47.754191
 20
-49.527173
 30
0.0
 10
-47.750574
 20
-49.564373
 30
0.0
 10
-47.750574
 20
-50.734334
 30
0.0
 10
-47.741046
 20
-50.851830
 30
0.0
 10
-47.678742
 20
-50.951901
 30
0.0
 10
-47.676676
 20
-50.954468
 30
0.0
 10
-47.672024
 20
-50.958092
 30
0.0
 10
-47.574960
 20
-51.015075
 30
0.0
 10
-47.462736
 20
-51.023709
 30
0.0
 10
-46.283480
 20
-51.023709
 30
0.0
 10
-46.161008
 20
-51.008205
 30
0.0
 10
-46.149122
 20
-51.003045
 30
0.0
 10
-46.048353
 20
-50.924490
 30
0.0
 10
-45.683001
 20
-50.559154
 30
0.0
 10
-45.612203
 20
-50.474408
 30
0.0
 10
-45.603935
 20
-50.457342
 30
0.0
 10
-45.601350
 20
-50.451654
 30
0.0
 10
-45.599800
 20
-50.447526
 30
0.0
 10
-45.599284
 20
-50.444933
 30
0.0
 10
-45.584298
 20
-50.321426
 30
0.0
 10
-45.584298
 20
-49.976224
 30
0.0
 10
-45.602901
 20
-49.841868
 30
0.0
 10
-45.604451
 20
-49.837741
 30
0.0
 10
-45.606518
 20
-49.833613
 30
0.0
 10
-45.684551
 20
-49.735929
 30
0.0
 10
-45.897456
 20
-49.523045
 30
0.0
 10
-45.683001
 20
-49.308574
 30
0.0
 10
-45.603419
 20
-49.205228
 30
0.0
 10
-45.601350
 20
-49.201100
 30
0.0
 10
-45.599800
 20
-49.196444
 30
0.0
 10
-45.598768
 20
-49.193851
 30
0.0
 10
-45.584298
 20
-49.070872
 30
0.0
 10
-45.584298
 20
-48.725671
 30
0.0
 10
-45.602901
 20
-48.591818
 30
0.0
 10
-45.604451
 20
-48.587690
 30
0.0
 10
-45.606518
 20
-48.583563
 30
0.0
 10
-45.682482
 20
-48.487440
 30
0.0
 10
-46.048869
 20
-48.121045
 30
0.0
 10
-46.152739
 20
-48.041485
 30
0.0
 10
-46.160489
 20
-48.038362
 30
0.0
 10
-46.287613
 20
-48.022858
 30
0.0
 10
-47.458601
 20
-48.022858
 30
0.0
 10
-47.504077
 20
-48.018730
 30
0.0
  0
LWPOLYLINE
  5
130
100
AcDbEntity
  8
build
 62
7
100
AcDbPolyline
 90
53
 70
1
 10
-18.854146
 20
-48.018730
 30
0.0
 10
-18.854146
 20
-48.020794
 30
0.0
 10
-19.029846
 20
-48.097285
 30
0.0
 10
-19.031397
 20
-48.097285
 30
0.0
 10
-19.033980
 20
-48.099878
 30
0.0
 10
-19.092007
 20
-48.197763
 30
0.0
 10
-19.100643
 20
-48.311227
 30
0.0
 10
-19.100643
 20
-49.484284
 30
0.0
 10
-19.104260
 20
-49.526644
 30
0.0
 10
-19.100643
 20
-49.560749
 30
0.0
 10
-19.100643
 20
-50.733805
 30
0.0
 10
-19.091116
 20
-50.851301
 30
0.0
 10
-19.028813
 20
-50.951372
 30
0.0
 10
-19.026746
 20
-50.953965
 30
0.0
 10
-19.022095
 20
-50.957563
 30
0.0
 10
-18.924793
 20
-51.014681
 30
0.0
 10
-18.812288
 20
-51.023206
 30
0.0
 10
-17.633549
 20
-51.023206
 30
0.0
 10
-17.511076
 20
-51.007702
 30
0.0
 10
-17.499190
 20
-51.002542
 30
0.0
 10
-17.398421
 20
-50.923988
 30
0.0
 10
-17.033069
 20
-50.558625
 30
0.0
 10
-16.962272
 20
-50.473879
 30
0.0
 10
-16.954004
 20
-50.456839
 30
0.0
 10
-16.951420
 20
-50.451151
 30
0.0
 10
-16.949870
 20
-50.446997
 30
0.0
 10
-16.949353
 20
-50.444430
 30
0.0
 10
-16.934367
 20
-50.320923
 30
0.0
 10
-16.934367
 20
-49.975721
 30
0.0
 10
-16.952970
 20
-49.841366
 30
0.0
 10
-16.954521
 20
-49.837238
 30
0.0
 10
-16.957621
 20
-49.831550
 30
0.0
 10
-17.034619
 20
-49.735426
 30
0.0
 10
-17.247526
 20
-49.522516
 30
0.0
 10
-17.033069
 20
-49.308071
 30
0.0
 10
-16.953487
 20
-49.204699
 30
0.0
 10
-16.951420
 20
-49.200069
 30
0.0
 10
-16.949870
 20
-49.195915
 30
0.0
 10
-16.948836
 20
-49.193348
 30
0.0
 10
-16.934367
 20
-49.070343
 30
0.0
 10
-16.934367
 20
-48.725141
 30
0.0
 10
-16.952970
 20
-48.591315
 30
0.0
 10
-16.954521
 20
-48.587161
 30
0.0
 10
-16.957621
 20
-48.581499
 30
0.0
 10
-17.032552
 20
-48.486911
 30
0.0
 10
-17.398938
 20
-48.120542
 30
0.0
 10
-17.501774
 20
-48.041485
 30
0.0
 10
-17.509525
 20
-48.037860
 30
0.0
 10
-17.510042
 20
-48.037860
 30
0.0
 10
-17.510559
 20
-48.037860
 30
0.0
 10
-17.637683
 20
-48.022355
 30
0.0
 10
-18.808671
 20
-48.022355
 30
0.0
 10
-18.854146
 20
-48.018730
 30
0.0
  0
LWPOLYLINE
  5
131
100
AcDbEntity
  8
build
 62
7
100
AcDbPolyline
 90
38
 70
1
 10
45.818393
 20
-48.018730
 30
0.0
 10
45.818393
 20
-48.020794
 30
0.0
 10
45.642691
 20
-48.097285
 30
0.0
 10
45.641141
 20
-48.097285
 30
0.0
 10
45.638559
 20
-48.099878
 30
0.0
 10
45.580531
 20
-48.197763
 30
0.0
 10
45.571894
 20
-48.311227
 30
0.0
 10
45.571894
 20
-50.733805
 30
0.0
 10
45.581422
 20
-50.851301
 30
0.0
 10
45.643726
 20
-50.951372
 30
0.0
 10
45.645792
 20
-50.953965
 30
0.0
 10
45.650444
 20
-50.957563
 30
0.0
 10
45.747745
 20
-51.014681
 30
0.0
 10
45.860250
 20
-51.023206
 30
0.0
 10
47.038990
 20
-51.023206
 30
0.0
 10
47.145959
 20
-51.012861
 30
0.0
 10
47.159913
 20
-51.007702
 30
0.0
 10
47.173348
 20
-51.002542
 30
0.0
 10
47.274118
 20
-50.923988
 30
0.0
 10
47.638951
 20
-50.559154
 30
0.0
 10
47.710267
 20
-50.473879
 30
0.0
 10
47.718536
 20
-50.456310
 30
0.0
 10
47.721118
 20
-50.451151
 30
0.0
 10
47.722668
 20
-50.446997
 30
0.0
 10
47.723184
 20
-50.444430
 30
0.0
 10
47.738170
 20
-50.318330
 30
0.0
 10
47.738170
 20
-48.725671
 30
0.0
 10
47.722152
 20
-48.598036
 30
0.0
 10
47.718017
 20
-48.587690
 30
0.0
 10
47.639986
 20
-48.487440
 30
0.0
 10
47.273602
 20
-48.121045
 30
0.0
 10
47.170763
 20
-48.041987
 30
0.0
 10
47.163014
 20
-48.037860
 30
0.0
 10
47.162495
 20
-48.037860
 30
0.0
 10
47.161979
 20
-48.037860
 30
0.0
 10
47.034855
 20
-48.022355
 30
0.0
 10
45.863867
 20
-48.022355
 30
0.0
 10
45.818393
 20
-48.018730
 30
0.0
  0
LWPOLYLINE
  5
132
100
AcDbEntity
  8
build
 62
7
100
AcDbPolyline
 90
51
 70
1
 10
38.320657
 20
-48.019260
 30
0.0
 10
38.320657
 20
-48.020794
 30
0.0
 10
38.144958
 20
-48.097285
 30
0.0
 10
38.143408
 20
-48.097285
 30
0.0
 10
38.140825
 20
-48.099878
 30
0.0
 10
38.082341
 20
-48.199262
 30
0.0
 10
38.074679
 20
-48.314323
 30
0.0
 10
38.074679
 20
-49.481188
 30
0.0
 10
38.071060
 20
-49.526644
 30
0.0
 10
38.074679
 20
-49.563871
 30
0.0
 10
38.074679
 20
-50.730710
 30
0.0
 10
38.082325
 20
-50.846406
 30
0.0
 10
38.141341
 20
-50.946213
 30
0.0
 10
38.149609
 20
-50.954468
 30
0.0
 10
38.248015
 20
-51.013695
 30
0.0
 10
38.362517
 20
-51.022677
 30
0.0
 10
39.541773
 20
-51.022677
 30
0.0
 10
39.648225
 20
-51.012359
 30
0.0
 10
39.662179
 20
-51.007173
 30
0.0
 10
39.675615
 20
-51.002013
 30
0.0
 10
39.775866
 20
-50.924490
 30
0.0
 10
40.142253
 20
-50.558122
 30
0.0
 10
40.212534
 20
-50.473376
 30
0.0
 10
40.220799
 20
-50.455807
 30
0.0
 10
40.223384
 20
-50.450622
 30
0.0
 10
40.224935
 20
-50.445965
 30
0.0
 10
40.240437
 20
-50.317298
 30
0.0
 10
40.240437
 20
-49.975721
 30
0.0
 10
40.230618
 20
-49.864622
 30
0.0
 10
40.225451
 20
-49.850652
 30
0.0
 10
40.220284
 20
-49.837238
 30
0.0
 10
40.140702
 20
-49.735426
 30
0.0
 10
39.927795
 20
-49.522516
 30
0.0
 10
40.142253
 20
-49.308071
 30
0.0
 10
40.221318
 20
-49.204699
 30
0.0
 10
40.223384
 20
-49.200571
 30
0.0
 10
40.224935
 20
-49.196444
 30
0.0
 10
40.240437
 20
-49.067777
 30
0.0
 10
40.240437
 20
-48.726173
 30
0.0
 10
40.230618
 20
-48.615604
 30
0.0
 10
40.225451
 20
-48.601634
 30
0.0
 10
40.220284
 20
-48.587690
 30
0.0
 10
40.142769
 20
-48.487440
 30
0.0
 10
39.776384
 20
-48.121045
 30
0.0
 10
39.673030
 20
-48.041987
 30
0.0
 10
39.665280
 20
-48.038362
 30
0.0
 10
39.664762
 20
-48.038362
 30
0.0
 10
39.664246
 20
-48.038362
 30
0.0
 10
39.537121
 20
-48.022858
 30
0.0
 10
38.366134
 20
-48.022858
 30
0.0
 10
38.320657
 20
-48.019260
 30
0.0
  0
LWPOLYLINE
  5
133
100
AcDbEntity
  8
build
 62
7
100
AcDbPolyline
 90
43
 70
1
 10
-44.171981
 20
-48.020291
 30
0.0
 10
-44.171981
 20
-48.020794
 30
0.0
 10
-44.209187
 20
-48.024419
 30
0.0
 10
-45.001386
 20
-48.024419
 30
0.0
 10
-45.130208
 20
-48.054780
 30
0.0
 10
-45.225483
 20
-48.146647
 30
0.0
 10
-45.260513
 20
-48.274278
 30
0.0
 10
-45.225483
 20
-48.401910
 30
0.0
 10
-45.130208
 20
-48.493777
 30
0.0
 10
-45.001386
 20
-48.524137
 30
0.0
 10
-44.418478
 20
-48.524137
 30
0.0
 10
-44.418478
 20
-50.773599
 30
0.0
 10
-44.384969
 20
-50.898656
 30
0.0
 10
-44.293420
 20
-50.990204
 30
0.0
 10
-44.168363
 20
-51.023713
 30
0.0
 10
-44.043306
 20
-50.990204
 30
0.0
 10
-43.951757
 20
-50.898656
 30
0.0
 10
-43.918248
 20
-50.773599
 30
0.0
 10
-43.918248
 20
-48.524137
 30
0.0
 10
-43.335340
 20
-48.524137
 30
0.0
 10
-43.285214
 20
-48.519984
 30
0.0
 10
-43.260925
 20
-48.514321
 30
0.0
 10
-43.173076
 20
-48.467808
 30
0.0
 10
-43.137937
 20
-48.432671
 30
0.0
 10
-43.122951
 20
-48.412510
 30
0.0
 10
-43.110547
 20
-48.390814
 30
0.0
 10
-43.099694
 20
-48.368060
 30
0.0
 10
-43.091944
 20
-48.344300
 30
0.0
 10
-43.085742
 20
-48.320011
 30
0.0
 10
-43.081607
 20
-48.270402
 30
0.0
 10
-43.087293
 20
-48.220793
 30
0.0
 10
-43.127599
 20
-48.129829
 30
0.0
 10
-43.160156
 20
-48.092126
 30
0.0
 10
-43.179278
 20
-48.076092
 30
0.0
 10
-43.199947
 20
-48.061619
 30
0.0
 10
-43.221651
 20
-48.049740
 30
0.0
 10
-43.244389
 20
-48.039924
 30
0.0
 10
-43.268159
 20
-48.032171
 30
0.0
 10
-43.292964
 20
-48.027515
 30
0.0
 10
-43.317769
 20
-48.024419
 30
0.0
 10
-43.335340
 20
-48.024419
 30
0.0
 10
-44.126505
 20
-48.024419
 30
0.0
 10
-44.171981
 20
-48.020291
 30
0.0
  0
LWPOLYLINE
  5
134
100
AcDbEntity
  8
build
 62
7
100
AcDbPolyline
 90
48
 70
1
 10
-39.177455
 20
-48.020794
 30
0.0
 10
-39.288383
 20
-48.049497
 30
0.0
 10
-39.374858
 20
-48.124670
 30
0.0
 10
-40.154138
 20
-48.903947
 30
0.0
 10
-40.233719
 20
-49.007293
 30
0.0
 10
-40.237336
 20
-49.015045
 30
0.0
 10
-40.252840
 20
-49.142178
 30
0.0
 10
-40.252840
 20
-49.480130
 30
0.0
 10
-40.252840
 20
-49.562839
 30
0.0
 10
-40.252840
 20
-50.771535
 30
0.0
 10
-40.222518
 20
-50.900402
 30
0.0
 10
-40.130648
 20
-50.995721
 30
0.0
 10
-40.002985
 20
-51.030770
 30
0.0
 10
-39.875323
 20
-50.995721
 30
0.0
 10
-39.783452
 20
-50.900402
 30
0.0
 10
-39.753130
 20
-50.771535
 30
0.0
 10
-39.753130
 20
-49.771595
 30
0.0
 10
-38.586791
 20
-49.771595
 30
0.0
 10
-38.586791
 20
-50.771535
 30
0.0
 10
-38.585759
 20
-50.796353
 30
0.0
 10
-38.557854
 20
-50.891947
 30
0.0
 10
-38.544934
 20
-50.913140
 30
0.0
 10
-38.530464
 20
-50.933275
 30
0.0
 10
-38.513411
 20
-50.951901
 30
0.0
 10
-38.474655
 20
-50.983413
 30
0.0
 10
-38.453467
 20
-50.996325
 30
0.0
 10
-38.357866
 20
-51.024238
 30
0.0
 10
-38.308256
 20
-51.024238
 30
0.0
 10
-38.213689
 20
-50.993758
 30
0.0
 10
-38.192501
 20
-50.980317
 30
0.0
 10
-38.124289
 20
-50.907954
 30
0.0
 10
-38.102585
 20
-50.863001
 30
0.0
 10
-38.089665
 20
-50.814953
 30
0.0
 10
-38.087080
 20
-50.790135
 30
0.0
 10
-38.086564
 20
-50.772567
 30
0.0
 10
-38.086564
 20
-49.561780
 30
0.0
 10
-38.086564
 20
-49.484787
 30
0.0
 10
-38.086564
 20
-49.138553
 30
0.0
 10
-38.096899
 20
-49.032111
 30
0.0
 10
-38.102066
 20
-49.018167
 30
0.0
 10
-38.107234
 20
-49.004727
 30
0.0
 10
-38.184749
 20
-48.904476
 30
0.0
 10
-38.965063
 20
-48.124140
 30
0.0
 10
-39.044989
 20
-48.052715
 30
0.0
 10
-39.147480
 20
-48.021323
 30
0.0
 10
-39.169702
 20
-48.021323
 30
0.0
 10
-39.177455
 20
-48.021323
 30
0.0
 10
-39.177455
 20
-48.020794
 30
0.0
  0
LWPOLYLINE
  5
135
100
AcDbEntity
  8
build
 62
7
100
AcDbPolyline
 90
42
 70
1
 10
-15.522050
 20
-48.020794
 30
0.0
 10
-15.559257
 20
-48.024419
 30
0.0
 10
-16.351457
 20
-48.024419
 30
0.0
 10
-16.480279
 20
-48.054780
 30
0.0
 10
-16.575553
 20
-48.146647
 30
0.0
 10
-16.610584
 20
-48.274278
 30
0.0
 10
-16.575553
 20
-48.401910
 30
0.0
 10
-16.480279
 20
-48.493777
 30
0.0
 10
-16.351457
 20
-48.524137
 30
0.0
 10
-15.768030
 20
-48.524137
 30
0.0
 10
-15.768030
 20
-50.773599
 30
0.0
 10
-15.737705
 20
-50.902462
 30
0.0
 10
-15.645835
 20
-50.997779
 30
0.0
 10
-15.518174
 20
-51.032827
 30
0.0
 10
-15.390514
 20
-50.997779
 30
0.0
 10
-15.298643
 20
-50.902462
 30
0.0
 10
-15.268319
 20
-50.773599
 30
0.0
 10
-15.268319
 20
-48.524137
 30
0.0
 10
-14.685408
 20
-48.524137
 30
0.0
 10
-14.660087
 20
-48.524137
 30
0.0
 10
-14.635282
 20
-48.520513
 30
0.0
 10
-14.610994
 20
-48.514824
 30
0.0
 10
-14.587740
 20
-48.506569
 30
0.0
 10
-14.565002
 20
-48.495695
 30
0.0
 10
-14.543298
 20
-48.483312
 30
0.0
 10
-14.523145
 20
-48.468310
 30
0.0
 10
-14.504541
 20
-48.451271
 30
0.0
 10
-14.473018
 20
-48.413012
 30
0.0
 10
-14.460616
 20
-48.391317
 30
0.0
 10
-14.449764
 20
-48.368589
 30
0.0
 10
-14.431677
 20
-48.270905
 30
0.0
 10
-14.464233
 20
-48.151551
 30
0.0
 10
-14.492656
 20
-48.110726
 30
0.0
 10
-14.510225
 20
-48.093158
 30
0.0
 10
-14.549499
 20
-48.062651
 30
0.0
 10
-14.594458
 20
-48.040955
 30
0.0
 10
-14.618229
 20
-48.033203
 30
0.0
 10
-14.643034
 20
-48.028044
 30
0.0
 10
-14.685408
 20
-48.024922
 30
0.0
 10
-15.476575
 20
-48.024922
 30
0.0
 10
-15.522050
 20
-48.021323
 30
0.0
 10
-15.522050
 20
-48.020794
 30
0.0
  0
LWPOLYLINE
  5
136
100
AcDbEntity
  8
build
 62
7
100
AcDbPolyline
 90
51
 70
1
 10
-11.356929
 20
-48.020794
 30
0.0
 10
-11.515059
 20
-48.080749
 30
0.0
 10
-11.531596
 20
-48.096253
 30
0.0
 10
-11.533663
 20
-48.098820
 30
0.0
 10
-11.535730
 20
-48.101413
 30
0.0
 10
-11.594897
 20
-48.200907
 30
0.0
 10
-11.602909
 20
-48.316387
 30
0.0
 10
-11.602909
 20
-49.483252
 30
0.0
 10
-11.605493
 20
-49.503916
 30
0.0
 10
-11.602909
 20
-49.565934
 30
0.0
 10
-11.602909
 20
-50.732773
 30
0.0
 10
-11.597310
 20
-50.840827
 30
0.0
 10
-11.546582
 20
-50.936397
 30
0.0
 10
-11.532629
 20
-50.951901
 30
0.0
 10
-11.529012
 20
-50.956029
 30
0.0
 10
-11.524361
 20
-50.959627
 30
0.0
 10
-11.427299
 20
-51.016624
 30
0.0
 10
-11.315072
 20
-51.025270
 30
0.0
 10
-10.135815
 20
-51.025270
 30
0.0
 10
-10.013342
 20
-51.009236
 30
0.0
 10
-10.001457
 20
-51.004606
 30
0.0
 10
-9.901721
 20
-50.927083
 30
0.0
 10
-9.535335
 20
-50.560688
 30
0.0
 10
-9.465055
 20
-50.475942
 30
0.0
 10
-9.456787
 20
-50.458374
 30
0.0
 10
-9.454203
 20
-50.453215
 30
0.0
 10
-9.452653
 20
-50.449087
 30
0.0
 10
-9.436633
 20
-50.324019
 30
0.0
 10
-9.436633
 20
-49.976753
 30
0.0
 10
-9.455237
 20
-49.844461
 30
0.0
 10
-9.456787
 20
-49.840334
 30
0.0
 10
-9.458854
 20
-49.835677
 30
0.0
 10
-9.536886
 20
-49.738019
 30
0.0
 10
-9.749792
 20
-49.525109
 30
0.0
 10
-9.535335
 20
-49.310638
 30
0.0
 10
-9.456270
 20
-49.207292
 30
0.0
 10
-9.454203
 20
-49.203164
 30
0.0
 10
-9.452653
 20
-49.199037
 30
0.0
 10
-9.436633
 20
-49.073968
 30
0.0
 10
-9.436633
 20
-48.727205
 30
0.0
 10
-9.455237
 20
-48.594914
 30
0.0
 10
-9.456787
 20
-48.590786
 30
0.0
 10
-9.458854
 20
-48.586659
 30
0.0
 10
-9.534818
 20
-48.490535
 30
0.0
 10
-9.901204
 20
-48.124140
 30
0.0
 10
-10.005074
 20
-48.044580
 30
0.0
 10
-10.012826
 20
-48.041485
 30
0.0
 10
-10.139950
 20
-48.025451
 30
0.0
 10
-11.310937
 20
-48.025451
 30
0.0
 10
-11.356929
 20
-48.021826
 30
0.0
 10
-11.356929
 20
-48.020794
 30
0.0
  0
LWPOLYLINE
  5
137
100
AcDbEntity
  8
build
 62
7
100
AcDbPolyline
 90
50
 70
1
 10
9.695532
 20
-48.020794
 30
0.0
 10
9.519316
 20
-48.097788
 30
0.0
 10
9.516732
 20
-48.100381
 30
0.0
 10
9.457565
 20
-48.199875
 30
0.0
 10
9.449552
 20
-48.315355
 30
0.0
 10
9.449552
 20
-49.482220
 30
0.0
 10
9.445935
 20
-49.527676
 30
0.0
 10
9.449552
 20
-49.564902
 30
0.0
 10
9.449552
 20
-50.731741
 30
0.0
 10
9.455158
 20
-50.839781
 30
0.0
 10
9.505880
 20
-50.935338
 30
0.0
 10
9.519832
 20
-50.950340
 30
0.0
 10
9.523450
 20
-50.954997
 30
0.0
 10
9.528101
 20
-50.958595
 30
0.0
 10
9.625163
 20
-51.015592
 30
0.0
 10
9.737390
 20
-51.024238
 30
0.0
 10
10.916646
 20
-51.024238
 30
0.0
 10
11.039119
 20
-51.008205
 30
0.0
 10
11.051005
 20
-51.003574
 30
0.0
 10
11.150740
 20
-50.926051
 30
0.0
 10
11.517126
 20
-50.559656
 30
0.0
 10
11.587406
 20
-50.474910
 30
0.0
 10
11.595675
 20
-50.457342
 30
0.0
 10
11.598259
 20
-50.452183
 30
0.0
 10
11.599809
 20
-50.448055
 30
0.0
 10
11.615829
 20
-50.322987
 30
0.0
 10
11.615829
 20
-49.973128
 30
0.0
 10
11.605493
 20
-49.866157
 30
0.0
 10
11.597225
 20
-49.842900
 30
0.0
 10
11.595675
 20
-49.838773
 30
0.0
 10
11.593607
 20
-49.834645
 30
0.0
 10
11.515576
 20
-49.736987
 30
0.0
 10
11.302669
 20
-49.524077
 30
0.0
 10
11.517126
 20
-49.309606
 30
0.0
 10
11.596191
 20
-49.206260
 30
0.0
 10
11.598259
 20
-49.202132
 30
0.0
 10
11.599809
 20
-49.197978
 30
0.0
 10
11.615829
 20
-49.072936
 30
0.0
 10
11.615829
 20
-48.723607
 30
0.0
 10
11.605493
 20
-48.617139
 30
0.0
 10
11.597225
 20
-48.593882
 30
0.0
 10
11.595675
 20
-48.589251
 30
0.0
 10
11.593607
 20
-48.585097
 30
0.0
 10
11.517643
 20
-48.489001
 30
0.0
 10
11.151257
 20
-48.122606
 30
0.0
 10
11.047388
 20
-48.043019
 30
0.0
 10
11.039636
 20
-48.039924
 30
0.0
 10
10.911996
 20
-48.024419
 30
0.0
 10
9.741524
 20
-48.024419
 30
0.0
 10
9.695532
 20
-48.020794
 30
0.0
  0
LWPOLYLINE
  5
138
100
AcDbEntity
  8
build
 62
7
100
AcDbPolyline
 90
37
 70
1
 10
13.028145
 20
-48.020794
 30
0.0
 10
12.990421
 20
-48.024419
 30
0.0
 10
12.198739
 20
-48.024419
 30
0.0
 10
12.069917
 20
-48.054780
 30
0.0
 10
11.974642
 20
-48.146647
 30
0.0
 10
11.939612
 20
-48.274278
 30
0.0
 10
11.974642
 20
-48.401910
 30
0.0
 10
12.069917
 20
-48.493777
 30
0.0
 10
12.198739
 20
-48.524137
 30
0.0
 10
12.781649
 20
-48.524137
 30
0.0
 10
12.781649
 20
-50.773599
 30
0.0
 10
12.815158
 20
-50.898656
 30
0.0
 10
12.906706
 20
-50.990204
 30
0.0
 10
13.031763
 20
-51.023712
 30
0.0
 10
13.156820
 20
-50.990204
 30
0.0
 10
13.248368
 20
-50.898656
 30
0.0
 10
13.281877
 20
-50.773599
 30
0.0
 10
13.281877
 20
-48.524137
 30
0.0
 10
13.864787
 20
-48.524137
 30
0.0
 10
13.889592
 20
-48.524137
 30
0.0
 10
13.962455
 20
-48.506569
 30
0.0
 10
14.006380
 20
-48.483312
 30
0.0
 10
14.026534
 20
-48.468310
 30
0.0
 10
14.062191
 20
-48.433174
 30
0.0
 10
14.089579
 20
-48.391317
 30
0.0
 10
14.108183
 20
-48.344803
 30
0.0
 10
14.106116
 20
-48.197536
 30
0.0
 10
14.085962
 20
-48.151551
 30
0.0
 10
14.057023
 20
-48.110726
 30
0.0
 10
14.039970
 20
-48.092629
 30
0.0
 10
13.978475
 20
-48.050269
 30
0.0
 10
13.955221
 20
-48.040426
 30
0.0
 10
13.882357
 20
-48.024922
 30
0.0
 10
13.864787
 20
-48.024922
 30
0.0
 10
13.073621
 20
-48.024922
 30
0.0
 10
13.028145
 20
-48.021323
 30
0.0
 10
13.028145
 20
-48.020794
 30
0.0
  0
LWPOLYLINE
  5
139
100
AcDbEntity
  8
build
 62
7
100
AcDbPolyline
 90
54
 70
1
 10
17.608744
 20
-48.020794
 30
0.0
 10
17.539498
 20
-48.033203
 30
0.0
 10
17.527612
 20
-48.037331
 30
0.0
 10
17.512109
 20
-48.044051
 30
0.0
 10
17.411857
 20
-48.121045
 30
0.0
 10
17.043921
 20
-48.489504
 30
0.0
 10
16.966406
 20
-48.591315
 30
0.0
 10
16.962789
 20
-48.598538
 30
0.0
 10
16.947286
 20
-48.727205
 30
0.0
 10
16.947286
 20
-50.318330
 30
0.0
 10
16.957105
 20
-50.428926
 30
0.0
 10
16.961239
 20
-50.440806
 30
0.0
 10
16.967440
 20
-50.456839
 30
0.0
 10
17.044954
 20
-50.557090
 30
0.0
 10
17.411340
 20
-50.923459
 30
0.0
 10
17.496090
 20
-50.993758
 30
0.0
 10
17.513660
 20
-51.001484
 30
0.0
 10
17.518827
 20
-51.004606
 30
0.0
 10
17.522962
 20
-51.007173
 30
0.0
 10
17.648535
 20
-51.022677
 30
0.0
 10
18.414380
 20
-51.022677
 30
0.0
 10
18.520833
 20
-51.014422
 30
0.0
 10
18.534786
 20
-51.009236
 30
0.0
 10
18.548222
 20
-51.004077
 30
0.0
 10
18.648474
 20
-50.926554
 30
0.0
 10
19.040182
 20
-50.534865
 30
0.0
 10
19.104853
 20
-50.422689
 30
0.0
 10
19.104768
 20
-50.293205
 30
0.0
 10
19.039949
 20
-50.181114
 30
0.0
 10
18.927766
 20
-50.116454
 30
0.0
 10
18.798283
 20
-50.116552
 30
0.0
 10
18.686198
 20
-50.181382
 30
0.0
 10
18.343066
 20
-50.524520
 30
0.0
 10
17.717265
 20
-50.524520
 30
0.0
 10
17.446997
 20
-50.254777
 30
0.0
 10
17.446997
 20
-48.795441
 30
0.0
 10
17.717782
 20
-48.525169
 30
0.0
 10
18.342550
 20
-48.525169
 30
0.0
 10
18.686198
 20
-48.868810
 30
0.0
 10
18.798407
 20
-48.933594
 30
0.0
 10
18.927974
 20
-48.933593
 30
0.0
 10
19.040183
 20
-48.868809
 30
0.0
 10
19.104966
 20
-48.756600
 30
0.0
 10
19.104966
 20
-48.627033
 30
0.0
 10
19.040182
 20
-48.514824
 30
0.0
 10
18.647441
 20
-48.122077
 30
0.0
 10
18.545638
 20
-48.044580
 30
0.0
 10
18.537887
 20
-48.040426
 30
0.0
 10
18.537370
 20
-48.040426
 30
0.0
 10
18.536853
 20
-48.040426
 30
0.0
 10
18.409729
 20
-48.024922
 30
0.0
 10
17.650085
 20
-48.024922
 30
0.0
 10
17.608744
 20
-48.022355
 30
0.0
 10
17.608744
 20
-48.020794
 30
0.0
  0
LWPOLYLINE
  5
13a
100
AcDbEntity
  8
build
 62
7
100
AcDbPolyline
 90
28
 70
1
 10
41.652754
 20
-48.020794
 30
0.0
 10
41.615548
 20
-48.024419
 30
0.0
 10
40.823864
 20
-48.024419
 30
0.0
 10
40.695042
 20
-48.054780
 30
0.0
 10
40.599767
 20
-48.146647
 30
0.0
 10
40.564737
 20
-48.274278
 30
0.0
 10
40.599767
 20
-48.401910
 30
0.0
 10
40.695042
 20
-48.493777
 30
0.0
 10
40.823864
 20
-48.524137
 30
0.0
 10
41.406776
 20
-48.524137
 30
0.0
 10
41.406776
 20
-50.773599
 30
0.0
 10
41.480032
 20
-50.950455
 30
0.0
 10
41.656889
 20
-51.023712
 30
0.0
 10
41.833746
 20
-50.950455
 30
0.0
 10
41.907002
 20
-50.773599
 30
0.0
 10
41.907002
 20
-48.524137
 30
0.0
 10
42.489914
 20
-48.524137
 30
0.0
 10
42.563809
 20
-48.514321
 30
0.0
 10
42.610320
 20
-48.495192
 30
0.0
 10
42.725041
 20
-48.368060
 30
0.0
 10
42.738993
 20
-48.320011
 30
0.0
 10
42.737442
 20
-48.220793
 30
0.0
 10
42.711087
 20
-48.151022
 30
0.0
 10
42.697651
 20
-48.129829
 30
0.0
 10
42.603600
 20
-48.049740
 30
0.0
 10
42.489914
 20
-48.024419
 30
0.0
 10
41.698746
 20
-48.024419
 30
0.0
 10
41.652754
 20
-48.020794
 30
0.0
  0
LWPOLYLINE
  5
13b
100
AcDbEntity
  8
build
 62
7
100
AcDbPolyline
 90
7
 70
1
 10
-47.250345
 20
-48.523106
 30
0.0
 10
-46.354794
 20
-48.523106
 30
0.0
 10
-46.084524
 20
-48.793351
 30
0.0
 10
-46.084524
 20
-49.002663
 30
0.0
 10
-46.354278
 20
-49.272908
 30
0.0
 10
-47.250345
 20
-49.272908
 30
0.0
 10
-47.250345
 20
-48.523106
 30
0.0
  0
LWPOLYLINE
  5
13c
100
AcDbEntity
  8
build
 62
7
100
AcDbPolyline
 90
7
 70
1
 10
-18.600415
 20
-48.523106
 30
0.0
 10
-17.704863
 20
-48.523106
 30
0.0
 10
-17.434595
 20
-48.793351
 30
0.0
 10
-17.434595
 20
-49.002663
 30
0.0
 10
-17.704346
 20
-49.272908
 30
0.0
 10
-18.600415
 20
-49.272908
 30
0.0
 10
-18.600415
 20
-48.523106
 30
0.0
  0
LWPOLYLINE
  5
13d
100
AcDbEntity
  8
build
 62
7
100
AcDbPolyline
 90
7
 70
1
 10
-11.102682
 20
-48.523106
 30
0.0
 10
-10.207129
 20
-48.523106
 30
0.0
 10
-9.936861
 20
-48.793351
 30
0.0
 10
-9.936861
 20
-49.002663
 30
0.0
 10
-10.206612
 20
-49.272908
 30
0.0
 10
-11.102682
 20
-49.272908
 30
0.0
 10
-11.102682
 20
-48.523106
 30
0.0
  0
LWPOLYLINE
  5
13e
100
AcDbEntity
  8
build
 62
7
100
AcDbPolyline
 90
7
 70
1
 10
9.949264
 20
-48.523106
 30
0.0
 10
10.845333
 20
-48.523106
 30
0.0
 10
11.115601
 20
-48.793351
 30
0.0
 10
11.115601
 20
-49.002663
 30
0.0
 10
10.845850
 20
-49.272908
 30
0.0
 10
9.949264
 20
-49.272908
 30
0.0
 10
9.949264
 20
-48.523106
 30
0.0
  0
LWPOLYLINE
  5
13f
100
AcDbEntity
  8
build
 62
7
100
AcDbPolyline
 90
7
 70
1
 10
38.574390
 20
-48.523106
 30
0.0
 10
39.469941
 20
-48.523106
 30
0.0
 10
39.740726
 20
-48.793351
 30
0.0
 10
39.740726
 20
-49.002663
 30
0.0
 10
39.470460
 20
-49.272908
 30
0.0
 10
38.574390
 20
-49.272908
 30
0.0
 10
38.574390
 20
-48.523106
 30
0.0
  0
LWPOLYLINE
  5
140
100
AcDbEntity
  8
build
 62
7
100
AcDbPolyline
 90
7
 70
1
 10
46.072123
 20
-48.523106
 30
0.0
 10
46.967674
 20
-48.523106
 30
0.0
 10
47.238460
 20
-48.793880
 30
0.0
 10
47.238460
 20
-50.252184
 30
0.0
 10
46.968193
 20
-50.522456
 30
0.0
 10
46.072123
 20
-50.522456
 30
0.0
 10
46.072123
 20
-48.523106
 30
0.0
  0
LWPOLYLINE
  5
141
100
AcDbEntity
  8
build
 62
7
100
AcDbPolyline
 90
6
 70
1
 10
-39.169702
 20
-48.626955
 30
0.0
 10
-38.586791
 20
-49.209885
 30
0.0
 10
-38.586791
 20
-49.272908
 30
0.0
 10
-39.753130
 20
-49.272908
 30
0.0
 10
-39.753130
 20
-49.210387
 30
0.0
 10
-39.169702
 20
-48.626955
 30
0.0
  0
LWPOLYLINE
  5
142
100
AcDbEntity
  8
build
 62
7
100
AcDbPolyline
 90
15
 70
1
 10
-42.502315
 20
-49.272908
 30
0.0
 10
-42.631137
 20
-49.303269
 30
0.0
 10
-42.726412
 20
-49.395136
 30
0.0
 10
-42.761442
 20
-49.522768
 30
0.0
 10
-42.726412
 20
-49.650399
 30
0.0
 10
-42.631137
 20
-49.742266
 30
0.0
 10
-42.502315
 20
-49.772627
 30
0.0
 10
-40.835749
 20
-49.772627
 30
0.0
 10
-40.706927
 20
-49.742266
 30
0.0
 10
-40.611652
 20
-49.650399
 30
0.0
 10
-40.576622
 20
-49.522768
 30
0.0
 10
-40.611652
 20
-49.395136
 30
0.0
 10
-40.706927
 20
-49.303269
 30
0.0
 10
-40.835749
 20
-49.272908
 30
0.0
 10
-42.502315
 20
-49.272908
 30
0.0
  0
LWPOLYLINE
  5
143
100
AcDbEntity
  8
build
 62
7
100
AcDbPolyline
 90
15
 70
1
 10
-13.851868
 20
-49.272908
 30
0.0
 10
-13.980690
 20
-49.303269
 30
0.0
 10
-14.075965
 20
-49.395136
 30
0.0
 10
-14.110995
 20
-49.522768
 30
0.0
 10
-14.075965
 20
-49.650399
 30
0.0
 10
-13.980690
 20
-49.742266
 30
0.0
 10
-13.851868
 20
-49.772627
 30
0.0
 10
-12.185820
 20
-49.772627
 30
0.0
 10
-12.056998
 20
-49.742266
 30
0.0
 10
-11.961723
 20
-49.650399
 30
0.0
 10
-11.926692
 20
-49.522768
 30
0.0
 10
-11.961723
 20
-49.395136
 30
0.0
 10
-12.056998
 20
-49.303269
 30
0.0
 10
-12.185820
 20
-49.272908
 30
0.0
 10
-13.851868
 20
-49.272908
 30
0.0
  0
LWPOLYLINE
  5
144
100
AcDbEntity
  8
build
 62
7
100
AcDbPolyline
 90
15
 70
1
 10
14.697811
 20
-49.272908
 30
0.0
 10
14.568989
 20
-49.303269
 30
0.0
 10
14.473714
 20
-49.395136
 30
0.0
 10
14.438684
 20
-49.522768
 30
0.0
 10
14.473714
 20
-49.650399
 30
0.0
 10
14.568989
 20
-49.742266
 30
0.0
 10
14.697811
 20
-49.772627
 30
0.0
 10
16.363859
 20
-49.772627
 30
0.0
 10
16.492681
 20
-49.742266
 30
0.0
 10
16.587956
 20
-49.650399
 30
0.0
 10
16.622986
 20
-49.522768
 30
0.0
 10
16.587956
 20
-49.395136
 30
0.0
 10
16.492681
 20
-49.303269
 30
0.0
 10
16.363859
 20
-49.272908
 30
0.0
 10
14.697811
 20
-49.272908
 30
0.0
  0
LWPOLYLINE
  5
145
100
AcDbEntity
  8
build
 62
7
100
AcDbPolyline
 90
15
 70
1
 10
43.322936
 20
-49.272908
 30
0.0
 10
43.194114
 20
-49.303269
 30
0.0
 10
43.098839
 20
-49.395136
 30
0.0
 10
43.063809
 20
-49.522768
 30
0.0
 10
43.098839
 20
-49.650399
 30
0.0
 10
43.194114
 20
-49.742266
 30
0.0
 10
43.322936
 20
-49.772627
 30
0.0
 10
44.988985
 20
-49.772627
 30
0.0
 10
45.117807
 20
-49.742266
 30
0.0
 10
45.213082
 20
-49.650399
 30
0.0
 10
45.248112
 20
-49.522768
 30
0.0
 10
45.213082
 20
-49.395136
 30
0.0
 10
45.117807
 20
-49.303269
 30
0.0
 10
44.988985
 20
-49.272908
 30
0.0
 10
43.322936
 20
-49.272908
 30
0.0
  0
LWPOLYLINE
  5
146
100
AcDbEntity
  8
build
 62
7
100
AcDbPolyline
 90
7
 70
1
 10
-47.250345
 20
-49.772627
 30
0.0
 10
-46.354794
 20
-49.772627
 30
0.0
 10
-46.084524
 20
-50.042899
 30
0.0
 10
-46.084524
 20
-50.252713
 30
0.0
 10
-46.354278
 20
-50.522456
 30
0.0
 10
-47.250345
 20
-50.522456
 30
0.0
 10
-47.250345
 20
-49.772627
 30
0.0
  0
LWPOLYLINE
  5
147
100
AcDbEntity
  8
build
 62
7
100
AcDbPolyline
 90
7
 70
1
 10
-18.600415
 20
-49.772627
 30
0.0
 10
-17.704863
 20
-49.772627
 30
0.0
 10
-17.434595
 20
-50.042899
 30
0.0
 10
-17.434595
 20
-50.252713
 30
0.0
 10
-17.704346
 20
-50.522456
 30
0.0
 10
-18.600415
 20
-50.522456
 30
0.0
 10
-18.600415
 20
-49.772627
 30
0.0
  0
LWPOLYLINE
  5
148
100
AcDbEntity
  8
build
 62
7
100
AcDbPolyline
 90
7
 70
1
 10
-11.102682
 20
-49.772627
 30
0.0
 10
-10.207129
 20
-49.772627
 30
0.0
 10
-9.936861
 20
-50.042899
 30
0.0
 10
-9.936861
 20
-50.252713
 30
0.0
 10
-10.206612
 20
-50.522456
 30
0.0
 10
-11.102682
 20
-50.522456
 30
0.0
 10
-11.102682
 20
-49.772627
 30
0.0
  0
LWPOLYLINE
  5
149
100
AcDbEntity
  8
build
 62
7
100
AcDbPolyline
 90
7
 70
1
 10
9.949264
 20
-49.772627
 30
0.0
 10
10.845333
 20
-49.772627
 30
0.0
 10
11.115601
 20
-50.042899
 30
0.0
 10
11.115601
 20
-50.252713
 30
0.0
 10
10.845850
 20
-50.522456
 30
0.0
 10
9.949264
 20
-50.522456
 30
0.0
 10
9.949264
 20
-49.772627
 30
0.0
  0
LWPOLYLINE
  5
14a
100
AcDbEntity
  8
build
 62
7
100
AcDbPolyline
 90
7
 70
1
 10
38.574390
 20
-49.772627
 30
0.0
 10
39.469941
 20
-49.772627
 30
0.0
 10
39.740726
 20
-50.042899
 30
0.0
 10
39.740726
 20
-50.252713
 30
0.0
 10
39.470460
 20
-50.522456
 30
0.0
 10
38.574390
 20
-50.522456
 30
0.0
 10
38.574390
 20
-49.772627
 30
0.0
  0
LWPOLYLINE
  5
14b
100
AcDbEntity
  8
build
 62
7
100
AcDbPolyline
 90
105
 70
1
 10
-26.770976
 20
-53.328495
 30
0.0
 10
-0.041341
 20
-53.328495
 30
0.0
 10
0.000000
 20
-53.331590
 30
0.0
 10
0.040308
 20
-53.334183
 30
0.0
 10
26.769941
 20
-53.334183
 30
0.0
 10
29.788363
 20
-64.529365
 30
0.0
 10
19.348690
 20
-68.853636
 30
0.0
 10
19.346623
 20
-68.853636
 30
0.0
 10
19.336287
 20
-68.858293
 30
0.0
 10
19.309932
 20
-68.871204
 30
0.0
 10
19.193781
 20
-68.968580
 30
0.0
 10
19.125658
 20
-69.103978
 30
0.0
 10
19.116689
 20
-69.255281
 30
0.0
 10
19.168339
 20
-69.397778
 30
0.0
 10
21.247282
 20
-74.415575
 30
0.0
 10
21.348568
 20
-74.589194
 30
0.0
 10
21.350635
 20
-74.591787
 30
0.0
 10
21.358386
 20
-74.599037
 30
0.0
 10
21.521684
 20
-74.689974
 30
0.0
 10
23.097815
 20
-75.343151
 30
0.0
 10
24.192322
 20
-77.985386
 30
0.0
 10
23.499857
 20
-79.658664
 30
0.0
 10
23.448698
 20
-79.851413
 30
0.0
 10
23.448698
 20
-79.855037
 30
0.0
 10
23.449215
 20
-79.865356
 30
0.0
 10
23.500374
 20
-80.045723
 30
0.0
 10
23.657471
 20
-80.424500
 30
0.0
 10
11.055139
 20
-80.424500
 30
0.0
 10
10.478430
 20
-79.848317
 30
0.0
 10
10.318750
 20
-79.726371
 30
0.0
 10
10.315133
 20
-79.723778
 30
0.0
 10
10.310482
 20
-79.721185
 30
0.0
 10
10.305831
 20
-79.718618
 30
0.0
 10
10.119796
 20
-79.696896
 30
0.0
 10
1.899626
 20
-79.696896
 30
0.0
 10
1.708076
 20
-79.743865
 30
0.0
 10
1.566844
 20
-79.881527
 30
0.0
 10
1.514987
 20
-80.071811
 30
0.0
 10
1.566844
 20
-80.262095
 30
0.0
 10
1.708076
 20
-80.399756
 30
0.0
 10
1.899626
 20
-80.446725
 30
0.0
 10
10.019027
 20
-80.446725
 30
0.0
 10
10.597803
 20
-81.025501
 30
0.0
 10
10.754899
 20
-81.144881
 30
0.0
 10
10.759033
 20
-81.147474
 30
0.0
 10
10.769885
 20
-81.151602
 30
0.0
 10
10.954370
 20
-81.172795
 30
0.0
 10
23.968046
 20
-81.172795
 30
0.0
 10
24.578861
 20
-82.647635
 30
0.0
 10
10.950236
 20
-82.647635
 30
0.0
 10
10.758000
 20
-82.673459
 30
0.0
 10
10.747664
 20
-82.677612
 30
0.0
 10
10.746631
 20
-82.677612
 30
0.0
 10
10.594702
 20
-82.796463
 30
0.0
 10
10.019544
 20
-83.371615
 30
0.0
 10
-0.000517
 20
-83.371615
 30
0.0
 10
-10.020577
 20
-83.371615
 30
0.0
 10
-10.596252
 20
-82.795934
 30
0.0
 10
-10.750765
 20
-82.676051
 30
0.0
 10
-10.764718
 20
-82.670363
 30
0.0
 10
-10.951786
 20
-82.646603
 30
0.0
 10
-24.579895
 20
-82.646603
 30
0.0
 10
-23.969080
 20
-81.171736
 30
0.0
 10
-10.955404
 20
-81.171736
 30
0.0
 10
-10.763167
 20
-81.147474
 30
0.0
 10
-10.749731
 20
-81.142288
 30
0.0
 10
-10.748181
 20
-81.142288
 30
0.0
 10
-10.745597
 20
-81.139722
 30
0.0
 10
-10.596252
 20
-81.022406
 30
0.0
 10
-10.020060
 20
-80.446222
 30
0.0
 10
-1.900659
 20
-80.446222
 30
0.0
 10
-1.709110
 20
-80.399253
 30
0.0
 10
-1.567878
 20
-80.261592
 30
0.0
 10
-1.516020
 20
-80.071308
 30
0.0
 10
-1.567878
 20
-79.881024
 30
0.0
 10
-1.709110
 20
-79.743363
 30
0.0
 10
-1.900659
 20
-79.696393
 30
0.0
 10
-10.122379
 20
-79.696393
 30
0.0
 10
-10.309965
 20
-79.719650
 30
0.0
 10
-10.328052
 20
-79.726873
 30
0.0
 10
-10.478430
 20
-79.844190
 30
0.0
 10
-11.056173
 20
-80.421405
 30
0.0
 10
-23.658504
 20
-80.421405
 30
0.0
 10
-23.500891
 20
-80.040563
 30
0.0
 10
-23.449731
 20
-79.847788
 30
0.0
 10
-23.449731
 20
-79.845221
 30
0.0
 10
-23.449731
 20
-79.842629
 30
0.0
 10
-23.450248
 20
-79.832283
 30
0.0
 10
-23.500891
 20
-79.652975
 30
0.0
 10
-24.193355
 20
-77.981258
 30
0.0
 10
-23.098848
 20
-75.338521
 30
0.0
 10
-21.521684
 20
-74.684815
 30
0.0
 10
-21.353735
 20
-74.588691
 30
0.0
 10
-21.342366
 20
-74.577844
 30
0.0
 10
-21.248315
 20
-74.411447
 30
0.0
 10
-19.169889
 20
-69.394682
 30
0.0
 10
-19.117485
 20
-69.250422
 30
0.0
 10
-19.127258
 20
-69.097250
 30
0.0
 10
-19.197572
 20
-68.960819
 30
0.0
 10
-19.316650
 20
-68.863981
 30
0.0
 10
-19.325952
 20
-68.859325
 30
0.0
 10
-19.349723
 20
-68.848477
 30
0.0
 10
-19.354891
 20
-68.845381
 30
0.0
 10
-29.789395
 20
-64.523677
 30
0.0
 10
-26.770976
 20
-53.328495
 30
0.0
  0
LWPOLYLINE
  5
14c
100
AcDbEntity
  8
build
 62
7
100
AcDbPolyline
 90
51
 70
1
 10
-49.649166
 20
-57.114814
 30
0.0
 10
-37.962541
 20
-61.955340
 30
0.0
 10
-37.273693
 20
-63.618299
 30
0.0
 10
-37.177575
 20
-63.785225
 30
0.0
 10
-37.166725
 20
-63.796575
 30
0.0
 10
-37.001360
 20
-63.890635
 30
0.0
 10
-33.719389
 20
-65.250249
 30
0.0
 10
-33.525084
 20
-65.301393
 30
0.0
 10
-33.521467
 20
-65.301393
 30
0.0
 10
-33.511133
 20
-65.301393
 30
0.0
 10
-33.332849
 20
-65.250752
 30
0.0
 10
-31.670419
 20
-64.562438
 30
0.0
 10
-30.436902
 20
-65.072978
 30
0.0
 10
-30.324248
 20
-65.120021
 30
0.0
 10
-19.983276
 20
-69.402964
 30
0.0
 10
-21.902539
 20
-74.036268
 30
0.0
 10
-23.479187
 20
-74.689445
 30
0.0
 10
-23.647135
 20
-74.785568
 30
0.0
 10
-23.658504
 20
-74.796416
 30
0.0
 10
-23.753589
 20
-74.964902
 30
0.0
 10
-24.975736
 20
-77.915615
 30
0.0
 10
-25.005525
 20
-78.041328
 30
0.0
 10
-24.991789
 20
-78.166300
 30
0.0
 10
-24.937599
 20
-78.279746
 30
0.0
 10
-24.846029
 20
-78.370884
 30
0.0
 10
-24.232629
 20
-79.851413
 30
0.0
 10
-26.151892
 20
-84.484717
 30
0.0
 10
-37.838518
 20
-79.643688
 30
0.0
 10
-38.526331
 20
-77.983322
 30
0.0
 10
-38.619864
 20
-77.817428
 30
0.0
 10
-38.800215
 20
-77.708394
 30
0.0
 10
-42.082701
 20
-76.349308
 30
0.0
 10
-42.275456
 20
-76.298138
 30
0.0
 10
-42.279073
 20
-76.298138
 30
0.0
 10
-42.290958
 20
-76.298138
 30
0.0
 10
-42.470276
 20
-76.349811
 30
0.0
 10
-44.130640
 20
-77.037119
 30
0.0
 10
-55.817265
 20
-72.196594
 30
0.0
 10
-53.898520
 20
-67.563290
 30
0.0
 10
-52.271745
 20
-66.889422
 30
0.0
 10
-52.156018
 20
-66.816356
 30
0.0
 10
-52.076152
 20
-66.710274
 30
0.0
 10
-52.038143
 20
-66.583045
 30
0.0
 10
-52.047987
 20
-66.446536
 30
0.0
 10
-50.913689
 20
-63.709766
 30
0.0
 10
-50.865630
 20
-63.553185
 30
0.0
 10
-50.864595
 20
-63.530457
 30
0.0
 10
-50.864079
 20
-63.509264
 30
0.0
 10
-50.913689
 20
-63.326834
 30
0.0
 10
-51.568429
 20
-61.747616
 30
0.0
 10
-49.649166
 20
-57.114814
 30
0.0
  0
LWPOLYLINE
  5
14d
100
AcDbEntity
  8
build
 62
7
100
AcDbPolyline
 90
56
 70
1
 10
49.648131
 20
-57.114814
 30
0.0
 10
51.567395
 20
-61.747616
 30
0.0
 10
50.914721
 20
-63.322707
 30
0.0
 10
50.863045
 20
-63.509264
 30
0.0
 10
50.863045
 20
-63.526833
 30
0.0
 10
50.914205
 20
-63.711829
 30
0.0
 10
52.046436
 20
-66.446536
 30
0.0
 10
52.036671
 20
-66.583131
 30
0.0
 10
52.074807
 20
-66.710398
 30
0.0
 10
52.154826
 20
-66.816456
 30
0.0
 10
52.270710
 20
-66.889422
 30
0.0
 10
53.897485
 20
-67.563290
 30
0.0
 10
55.816230
 20
-72.196594
 30
0.0
 10
44.129605
 20
-77.037119
 30
0.0
 10
42.466660
 20
-76.348276
 30
0.0
 10
42.273905
 20
-76.297635
 30
0.0
 10
42.270288
 20
-76.297635
 30
0.0
 10
42.258403
 20
-76.297635
 30
0.0
 10
42.080635
 20
-76.348276
 30
0.0
 10
38.799699
 20
-77.707362
 30
0.0
 10
38.652421
 20
-77.784355
 30
0.0
 10
38.632784
 20
-77.802453
 30
0.0
 10
38.620383
 20
-77.814333
 30
0.0
 10
38.525815
 20
-77.980729
 30
0.0
 10
37.837483
 20
-79.642630
 30
0.0
 10
26.150859
 20
-84.483685
 30
0.0
 10
24.231596
 20
-79.850381
 30
0.0
 10
24.844478
 20
-78.370884
 30
0.0
 10
24.936488
 20
-78.279656
 30
0.0
 10
24.990931
 20
-78.165947
 30
0.0
 10
25.004704
 20
-78.040631
 30
0.0
 10
24.974703
 20
-77.914583
 30
0.0
 10
23.751522
 20
-74.960749
 30
0.0
 10
23.651786
 20
-74.789722
 30
0.0
 10
23.649719
 20
-74.787129
 30
0.0
 10
23.645068
 20
-74.782472
 30
0.0
 10
23.641451
 20
-74.779879
 30
0.0
 10
23.478153
 20
-74.688413
 30
0.0
 10
21.901506
 20
-74.035236
 30
0.0
 10
19.982243
 20
-69.401932
 30
0.0
 10
30.324764
 20
-65.117957
 30
0.0
 10
30.433801
 20
-65.072978
 30
0.0
 10
31.669384
 20
-64.561380
 30
0.0
 10
33.331817
 20
-65.249720
 30
0.0
 10
33.524568
 20
-65.300890
 30
0.0
 10
33.528185
 20
-65.300890
 30
0.0
 10
33.538522
 20
-65.300890
 30
0.0
 10
33.717323
 20
-65.250249
 30
0.0
 10
37.000326
 20
-63.890635
 30
0.0
 10
37.171373
 20
-63.790887
 30
0.0
 10
37.173958
 20
-63.788320
 30
0.0
 10
37.178610
 20
-63.783664
 30
0.0
 10
37.181711
 20
-63.779536
 30
0.0
 10
37.272661
 20
-63.617770
 30
0.0
 10
37.961506
 20
-61.954837
 30
0.0
 10
49.648131
 20
-57.114814
 30
0.0
  0
LWPOLYLINE
  5
14e
100
AcDbEntity
  8
build
 62
7
100
AcDbPolyline
 90
45
 70
1
 10
-26.448515
 20
-61.834425
 30
0.0
 10
-26.448515
 20
-61.834955
 30
0.0
 10
-26.538431
 20
-61.854587
 30
0.0
 10
-26.543082
 20
-61.857153
 30
0.0
 10
-26.545148
 20
-61.857153
 30
0.0
 10
-26.638824
 20
-61.926511
 30
0.0
 10
-26.690878
 20
-62.030799
 30
0.0
 10
-27.138913
 20
-63.111357
 30
0.0
 10
-27.167851
 20
-63.182160
 30
0.0
 10
-27.631387
 20
-64.301453
 30
0.0
 10
-27.648376
 20
-64.429796
 30
0.0
 10
-27.598915
 20
-64.549438
 30
0.0
 10
-27.496258
 20
-64.628318
 30
0.0
 10
-27.367914
 20
-64.645300
 30
0.0
 10
-27.248275
 20
-64.595832
 30
0.0
 10
-27.169401
 20
-64.493170
 30
0.0
 10
-26.786996
 20
-63.569192
 30
0.0
 10
-26.248527
 20
-63.792448
 30
0.0
 10
-26.224756
 20
-63.801232
 30
0.0
 10
-26.126054
 20
-63.812080
 30
0.0
 10
-26.101249
 20
-63.808455
 30
0.0
 10
-26.053707
 20
-63.794009
 30
0.0
 10
-25.989628
 20
-63.755247
 30
0.0
 10
-25.954488
 20
-63.719582
 30
0.0
 10
-25.927100
 20
-63.677725
 30
0.0
 10
-25.903329
 20
-63.607451
 30
0.0
 10
-25.900228
 20
-63.582131
 30
0.0
 10
-25.901261
 20
-63.531992
 30
0.0
 10
-25.905395
 20
-63.507201
 30
0.0
 10
-25.932784
 20
-63.437959
 30
0.0
 10
-25.946220
 20
-63.416766
 30
0.0
 10
-25.998413
 20
-63.363029
 30
0.0
 10
-26.040788
 20
-63.337179
 30
0.0
 10
-26.056807
 20
-63.329956
 30
0.0
 10
-26.595792
 20
-63.107230
 30
0.0
 10
-26.308472
 20
-62.414762
 30
0.0
 10
-25.000541
 20
-62.956312
 30
0.0
 10
-24.871047
 20
-62.975318
 30
0.0
 10
-24.749693
 20
-62.926297
 30
0.0
 10
-24.669732
 20
-62.822681
 30
0.0
 10
-24.653077
 20
-62.692864
 30
0.0
 10
-24.704290
 20
-62.572418
 30
0.0
 10
-24.809338
 20
-62.494349
 30
0.0
 10
-26.311055
 20
-61.872658
 30
0.0
 10
-26.448515
 20
-61.834425
 30
0.0
  0
LWPOLYLINE
  5
14f
100
AcDbEntity
  8
build
 62
7
100
AcDbPolyline
 90
46
 70
1
 10
26.222689
 20
-61.986878
 30
0.0
 10
26.222689
 20
-61.989445
 30
0.0
 10
26.095565
 20
-62.023576
 30
0.0
 10
25.011910
 20
-62.472627
 30
0.0
 10
24.914935
 20
-62.519270
 30
0.0
 10
24.846545
 20
-62.602352
 30
0.0
 10
24.835693
 20
-62.625080
 30
0.0
 10
24.833110
 20
-62.632832
 30
0.0
 10
24.818164
 20
-62.744522
 30
0.0
 10
24.853780
 20
-62.851431
 30
0.0
 10
25.460978
 20
-64.315926
 30
0.0
 10
25.491984
 20
-64.391385
 30
0.0
 10
25.795325
 20
-65.123620
 30
0.0
 10
25.873467
 20
-65.228413
 30
0.0
 10
25.993814
 20
-65.279449
 30
0.0
 10
26.123468
 20
-65.262777
 30
0.0
 10
26.226987
 20
-65.182954
 30
0.0
 10
26.276074
 20
-65.061799
 30
0.0
 10
26.257312
 20
-64.932432
 30
0.0
 10
26.034070
 20
-64.393952
 30
0.0
 10
26.476936
 20
-64.210516
 30
0.0
 10
27.470158
 20
-64.621335
 30
0.0
 10
27.599462
 20
-64.639982
 30
0.0
 10
27.720519
 20
-64.590867
 30
0.0
 10
27.800279
 20
-64.487401
 30
0.0
 10
27.816966
 20
-64.357830
 30
0.0
 10
27.766025
 20
-64.237530
 30
0.0
 10
27.661362
 20
-64.159346
 30
0.0
 10
27.074315
 20
-63.916485
 30
0.0
 10
27.106872
 20
-63.842057
 30
0.0
 10
27.303759
 20
-63.366627
 30
0.0
 10
27.338898
 20
-63.236400
 30
0.0
 10
27.338898
 20
-63.233833
 30
0.0
 10
27.338898
 20
-63.229679
 30
0.0
 10
27.338382
 20
-63.226584
 30
0.0
 10
27.304794
 20
-63.106172
 30
0.0
 10
27.013339
 20
-62.402354
 30
0.0
 10
26.962179
 20
-62.305199
 30
0.0
 10
26.946675
 20
-62.288662
 30
0.0
 10
26.945124
 20
-62.286069
 30
0.0
 10
26.942023
 20
-62.282471
 30
0.0
 10
26.940476
 20
-62.279878
 30
0.0
 10
26.831438
 20
-62.218389
 30
0.0
 10
26.353430
 20
-62.020983
 30
0.0
 10
26.230957
 20
-61.986878
 30
0.0
 10
26.222689
 20
-61.986878
 30
0.0
  0
LWPOLYLINE
  5
150
100
AcDbEntity
  8
build
 62
7
100
AcDbPolyline
 90
9
 70
1
 10
26.224756
 20
-62.511917
 30
0.0
 10
26.577705
 20
-62.658153
 30
0.0
 10
26.816968
 20
-63.235897
 30
0.0
 10
26.670206
 20
-63.589354
 30
0.0
 10
26.410791
 20
-63.696854
 30
0.0
 10
26.347229
 20
-63.723206
 30
0.0
 10
25.842867
 20
-63.931963
 30
0.0
 10
25.396383
 20
-62.854526
 30
0.0
 10
26.224756
 20
-62.511917
 30
0.0
  0
LWPOLYLINE
  5
151
100
AcDbEntity
  8
build
 62
7
100
AcDbPolyline
 90
33
 70
1
 10
-24.138578
 20
-62.791476
 30
0.0
 10
-24.245273
 20
-62.816693
 30
0.0
 10
-24.330923
 20
-62.885132
 30
0.0
 10
-24.379058
 20
-62.983634
 30
0.0
 10
-24.380424
 20
-63.093260
 30
0.0
 10
-24.121525
 20
-64.403265
 30
0.0
 10
-25.230501
 20
-65.145845
 30
0.0
 10
-25.318906
 20
-65.242920
 30
0.0
 10
-25.345932
 20
-65.371405
 30
0.0
 10
-25.304127
 20
-65.495869
 30
0.0
 10
-25.205019
 20
-65.581988
 30
0.0
 10
-25.075938
 20
-65.606014
 30
0.0
 10
-24.952482
 20
-65.561320
 30
0.0
 10
-24.016105
 20
-64.934495
 30
0.0
 10
-23.797514
 20
-66.039845
 30
0.0
 10
-23.741717
 20
-66.158531
 30
0.0
 10
-23.633520
 20
-66.232647
 30
0.0
 10
-23.502692
 20
-66.241799
 30
0.0
 10
-23.385230
 20
-66.183471
 30
0.0
 10
-23.313451
 20
-66.073710
 30
0.0
 10
-23.307105
 20
-65.942717
 30
0.0
 10
-23.566003
 20
-64.633214
 30
0.0
 10
-22.456510
 20
-63.890106
 30
0.0
 10
-22.370036
 20
-63.792740
 30
0.0
 10
-22.344229
 20
-63.665101
 30
0.0
 10
-22.386084
 20
-63.541788
 30
0.0
 10
-22.484256
 20
-63.456231
 30
0.0
 10
-22.612132
 20
-63.431621
 30
0.0
 10
-22.735046
 20
-63.474630
 30
0.0
 10
-23.671423
 20
-64.101481
 30
0.0
 10
-23.890015
 20
-62.996105
 30
0.0
 10
-23.976977
 20
-62.848458
 30
0.0
 10
-24.138578
 20
-62.791476
 30
0.0
  0
LWPOLYLINE
  5
152
100
AcDbEntity
  8
build
 62
7
100
AcDbPolyline
 90
31
 70
1
 10
21.987288
 20
-63.740775
 30
0.0
 10
21.829992
 20
-63.800264
 30
0.0
 10
21.745959
 20
-63.945933
 30
0.0
 10
21.527368
 20
-65.051282
 30
0.0
 10
20.590991
 20
-64.424458
 30
0.0
 10
20.467535
 20
-64.379764
 30
0.0
 10
20.338455
 20
-64.403790
 30
0.0
 10
20.239347
 20
-64.489909
 30
0.0
 10
20.197541
 20
-64.614373
 30
0.0
 10
20.224567
 20
-64.742858
 30
0.0
 10
20.312972
 20
-64.839933
 30
0.0
 10
21.421948
 20
-65.582513
 30
0.0
 10
21.163049
 20
-66.892518
 30
0.0
 10
21.200714
 20
-67.080171
 30
0.0
 10
21.359984
 20
-67.186309
 30
0.0
 10
21.547675
 20
-67.148835
 30
0.0
 10
21.653975
 20
-66.989673
 30
0.0
 10
21.872567
 20
-65.884297
 30
0.0
 10
22.808427
 20
-66.511147
 30
0.0
 10
22.930956
 20
-66.552957
 30
0.0
 10
23.057975
 20
-66.527898
 30
0.0
 10
23.155444
 20
-66.442686
 30
0.0
 10
23.197247
 20
-66.320154
 30
0.0
 10
23.172181
 20
-66.193137
 30
0.0
 10
23.086963
 20
-66.095672
 30
0.0
 10
21.977987
 20
-65.353066
 30
0.0
 10
22.236886
 20
-64.043088
 30
0.0
 10
22.235281
 20
-63.931404
 30
0.0
 10
22.185204
 20
-63.831564
 30
0.0
 10
22.096649
 20
-63.763493
 30
0.0
 10
21.987288
 20
-63.740775
 30
0.0
  0
LWPOLYLINE
  5
153
100
AcDbEntity
  8
build
 62
7
100
AcDbPolyline
 90
14
 70
1
 10
24.772648
 20
-63.941276
 30
0.0
 10
24.682731
 20
-63.961437
 30
0.0
 10
23.143807
 20
-64.599110
 30
0.0
 10
23.039137
 20
-64.677292
 30
0.0
 10
22.988190
 20
-64.797594
 30
0.0
 10
23.004877
 20
-64.927169
 30
0.0
 10
23.084640
 20
-65.030639
 30
0.0
 10
23.205703
 20
-65.079752
 30
0.0
 10
23.335010
 20
-65.061099
 30
0.0
 10
24.874451
 20
-64.423426
 30
0.0
 10
25.002363
 20
-64.309225
 30
0.0
 10
25.026620
 20
-64.139474
 30
0.0
 10
24.935810
 20
-63.994019
 30
0.0
 10
24.772648
 20
-63.941276
 30
0.0
  0
LWPOLYLINE
  5
154
100
AcDbEntity
  8
build
 62
7
100
AcDbPolyline
 90
49
 70
1
 10
19.676318
 20
-64.697826
 30
0.0
 10
19.676318
 20
-64.699360
 30
0.0
 10
19.586918
 20
-64.720051
 30
0.0
 10
18.082617
 20
-65.342747
 30
0.0
 10
17.987778
 20
-65.388801
 30
0.0
 10
17.920353
 20
-65.469853
 30
0.0
 10
17.918803
 20
-65.472446
 30
0.0
 10
17.918286
 20
-65.472446
 30
0.0
 10
17.908984
 20
-65.493110
 30
0.0
 10
17.905884
 20
-65.501392
 30
0.0
 10
17.891316
 20
-65.612282
 30
0.0
 10
17.926554
 20
-65.718429
 30
0.0
 10
18.374589
 20
-66.799490
 30
0.0
 10
18.379757
 20
-66.819149
 30
0.0
 10
18.406112
 20
-66.875452
 30
0.0
 10
18.868616
 20
-67.992179
 30
0.0
 10
18.947489
 20
-68.094846
 30
0.0
 10
19.067130
 20
-68.144317
 30
0.0
 10
19.195477
 20
-68.127336
 30
0.0
 10
19.298136
 20
-68.048453
 30
0.0
 10
19.347596
 20
-67.928808
 30
0.0
 10
19.330603
 20
-67.800462
 30
0.0
 10
18.947681
 20
-66.877013
 30
0.0
 10
19.486666
 20
-66.654287
 30
0.0
 10
19.531107
 20
-66.631030
 30
0.0
 10
19.569865
 20
-66.599518
 30
0.0
 10
19.586918
 20
-66.581421
 30
0.0
 10
19.625159
 20
-66.517339
 30
0.0
 10
19.633427
 20
-66.493579
 30
0.0
 10
19.643246
 20
-66.444472
 30
0.0
 10
19.644279
 20
-66.419681
 30
0.0
 10
19.639111
 20
-66.370072
 30
0.0
 10
19.632393
 20
-66.345783
 30
0.0
 10
19.584334
 20
-66.258973
 30
0.0
 10
19.505786
 20
-66.197987
 30
0.0
 10
19.483049
 20
-66.188171
 30
0.0
 10
19.459277
 20
-66.180418
 30
0.0
 10
19.434989
 20
-66.175259
 30
0.0
 10
19.384863
 20
-66.171105
 30
0.0
 10
19.360059
 20
-66.174227
 30
0.0
 10
19.311483
 20
-66.185578
 30
0.0
 10
19.295463
 20
-66.191795
 30
0.0
 10
18.756478
 20
-66.415024
 30
0.0
 10
18.469674
 20
-65.722054
 30
0.0
 10
19.778121
 20
-65.180479
 30
0.0
 10
19.907079
 20
-65.066412
 30
0.0
 10
19.931720
 20
-64.896018
 30
0.0
 10
19.840360
 20
-64.750092
 30
0.0
 10
19.676318
 20
-64.697826
 30
0.0
  0
LWPOLYLINE
  5
155
100
AcDbEntity
  8
build
 62
7
100
AcDbPolyline
 90
25
 70
1
 10
-19.521289
 20
-64.704546
 30
0.0
 10
-19.658462
 20
-64.749178
 30
0.0
 10
-19.748149
 20
-64.862158
 30
0.0
 10
-20.688660
 20
-67.132283
 30
0.0
 10
-20.724845
 20
-67.234325
 30
0.0
 10
-20.714498
 20
-67.342098
 30
0.0
 10
-20.706230
 20
-67.363794
 30
0.0
 10
-20.705713
 20
-67.366387
 30
0.0
 10
-20.703646
 20
-67.371043
 30
0.0
 10
-20.635376
 20
-67.461562
 30
0.0
 10
-20.534147
 20
-67.512622
 30
0.0
 10
-19.029846
 20
-68.135848
 30
0.0
 10
-18.900539
 20
-68.154501
 30
0.0
 10
-18.779477
 20
-68.105388
 30
0.0
 10
-18.699713
 20
-68.001919
 30
0.0
 10
-18.683027
 20
-67.872343
 30
0.0
 10
-18.733974
 20
-67.752041
 30
0.0
 10
-18.838643
 20
-67.673859
 30
0.0
 10
-20.147091
 20
-67.131781
 30
0.0
 10
-19.286161
 20
-65.053875
 30
0.0
 10
-19.266873
 20
-64.931722
 30
0.0
 10
-19.308487
 20
-64.815266
 30
0.0
 10
-19.400822
 20
-64.733000
 30
0.0
 10
-19.521289
 20
-64.705049
 30
0.0
 10
-19.521289
 20
-64.704546
 30
0.0
  0
LWPOLYLINE
  5
156
100
AcDbEntity
  8
build
 62
7
100
AcDbPolyline
 90
14
 70
1
 10
-22.306132
 20
-64.904518
 30
0.0
 10
-22.465814
 20
-64.961195
 30
0.0
 10
-22.552690
 20
-65.106671
 30
0.0
 10
-22.526858
 20
-65.274133
 30
0.0
 10
-22.400183
 20
-65.386668
 30
0.0
 10
-20.860742
 20
-66.024341
 30
0.0
 10
-20.731248
 20
-66.043347
 30
0.0
 10
-20.609894
 20
-65.994326
 30
0.0
 10
-20.529934
 20
-65.890710
 30
0.0
 10
-20.513278
 20
-65.760893
 30
0.0
 10
-20.564491
 20
-65.640447
 30
0.0
 10
-20.669539
 20
-65.562378
 30
0.0
 10
-22.208464
 20
-64.924679
 30
0.0
 10
-22.306132
 20
-64.904518
 30
0.0
  0
LWPOLYLINE
  5
157
100
AcDbEntity
  8
build
 62
7
100
AcDbPolyline
 90
38
 70
1
 10
-3.527433
 20
-70.696935
 30
0.0
 10
-3.552238
 20
-70.699528
 30
0.0
 10
-3.587895
 20
-70.712942
 30
0.0
 10
-3.626135
 20
-70.745513
 30
0.0
 10
-3.652490
 20
-70.840075
 30
0.0
 10
-3.652490
 20
-72.348517
 30
0.0
 10
-3.589003
 20
-72.458826
 30
0.0
 10
-3.461729
 20
-72.458826
 30
0.0
 10
-3.398242
 20
-72.348517
 30
0.0
 10
-3.398242
 20
-71.132042
 30
0.0
 10
-3.123840
 20
-71.405939
 30
0.0
 10
-3.041675
 20
-71.458644
 30
0.0
 10
-3.033407
 20
-71.461237
 30
0.0
 10
-3.029273
 20
-71.461237
 30
0.0
 10
-3.015320
 20
-71.461237
 30
0.0
 10
-3.000850
 20
-71.458644
 30
0.0
 10
-2.911967
 20
-71.405410
 30
0.0
 10
-2.637048
 20
-71.131011
 30
0.0
 10
-2.637048
 20
-72.347485
 30
0.0
 10
-2.573486
 20
-72.457578
 30
0.0
 10
-2.446362
 20
-72.457578
 30
0.0
 10
-2.382800
 20
-72.347485
 30
0.0
 10
-2.382800
 20
-70.839572
 30
0.0
 10
-2.420007
 20
-70.732072
 30
0.0
 10
-2.429309
 20
-70.723817
 30
0.0
 10
-2.429826
 20
-70.723817
 30
0.0
 10
-2.439644
 20
-70.717096
 30
0.0
 10
-2.440161
 20
-70.717096
 30
0.0
 10
-2.450496
 20
-70.710879
 30
0.0
 10
-2.451013
 20
-70.710879
 30
0.0
 10
-2.474268
 20
-70.701592
 30
0.0
 10
-2.474784
 20
-70.701592
 30
0.0
 10
-2.486670
 20
-70.698999
 30
0.0
 10
-2.487187
 20
-70.698999
 30
0.0
 10
-2.611727
 20
-70.747576
 30
0.0
 10
-3.017904
 20
-71.153765
 30
0.0
 10
-3.425114
 20
-70.746015
 30
0.0
 10
-3.527433
 20
-70.696935
 30
0.0
  0
LWPOLYLINE
  5
158
100
AcDbEntity
  8
build
 62
7
100
AcDbPolyline
 90
51
 70
1
 10
-1.497583
 20
-70.696935
 30
0.0
 10
-1.597835
 20
-70.749137
 30
0.0
 10
-2.075326
 20
-71.227134
 30
0.0
 10
-2.077909
 20
-71.229727
 30
0.0
 10
-2.118734
 20
-71.281400
 30
0.0
 10
-2.120284
 20
-71.285025
 30
0.0
 10
-2.120801
 20
-71.287591
 30
0.0
 10
-2.124418
 20
-71.297407
 30
0.0
 10
-2.124935
 20
-71.300000
 30
0.0
 10
-2.129069
 20
-71.351170
 30
0.0
 10
-2.129069
 20
-71.568711
 30
0.0
 10
-2.129069
 20
-71.608504
 30
0.0
 10
-2.129069
 20
-72.349549
 30
0.0
 10
-2.065507
 20
-72.459642
 30
0.0
 10
-1.938383
 20
-72.459642
 30
0.0
 10
-1.874821
 20
-72.349549
 30
0.0
 10
-1.874821
 20
-71.714972
 30
0.0
 10
-1.113110
 20
-71.714972
 30
0.0
 10
-1.113110
 20
-72.349549
 30
0.0
 10
-1.113110
 20
-72.362461
 30
0.0
 10
-1.107943
 20
-72.387781
 30
0.0
 10
-1.103809
 20
-72.399661
 30
0.0
 10
-1.091923
 20
-72.421886
 30
0.0
 10
-1.045414
 20
-72.464272
 30
0.0
 10
-1.034045
 20
-72.469432
 30
0.0
 10
-1.022160
 20
-72.473559
 30
0.0
 10
-1.009757
 20
-72.476681
 30
0.0
 10
-0.996838
 20
-72.479248
 30
0.0
 10
-0.984436
 20
-72.479248
 30
0.0
 10
-0.923975
 20
-72.463241
 30
0.0
 10
-0.894002
 20
-72.439984
 30
0.0
 10
-0.885734
 20
-72.430168
 30
0.0
 10
-0.878499
 20
-72.419822
 30
0.0
 10
-0.872298
 20
-72.408975
 30
0.0
 10
-0.867131
 20
-72.397095
 30
0.0
 10
-0.863513
 20
-72.385215
 30
0.0
 10
-0.860929
 20
-72.372277
 30
0.0
 10
-0.859379
 20
-72.351110
 30
0.0
 10
-0.859379
 20
-71.609536
 30
0.0
 10
-0.859379
 20
-71.568208
 30
0.0
 10
-0.859379
 20
-71.354266
 30
0.0
 10
-0.864547
 20
-71.297936
 30
0.0
 10
-0.867647
 20
-71.289152
 30
0.0
 10
-0.868681
 20
-71.286056
 30
0.0
 10
-0.869714
 20
-71.282934
 30
0.0
 10
-0.910022
 20
-71.231261
 30
0.0
 10
-1.388029
 20
-70.753265
 30
0.0
 10
-1.470194
 20
-70.700560
 30
0.0
 10
-1.495516
 20
-70.697967
 30
0.0
 10
-1.497583
 20
-70.697967
 30
0.0
 10
-1.497583
 20
-70.696935
 30
0.0
  0
LWPOLYLINE
  5
159
100
AcDbEntity
  8
build
 62
7
100
AcDbPolyline
 90
54
 70
1
 10
-0.226860
 20
-70.696935
 30
0.0
 10
-0.262000
 20
-70.703126
 30
0.0
 10
-0.269234
 20
-70.705719
 30
0.0
 10
-0.275952
 20
-70.708312
 30
0.0
 10
-0.327629
 20
-70.748608
 30
0.0
 10
-0.556555
 20
-70.977023
 30
0.0
 10
-0.595313
 20
-71.028194
 30
0.0
 10
-0.596863
 20
-71.030760
 30
0.0
 10
-0.597380
 20
-71.033353
 30
0.0
 10
-0.600997
 20
-71.043169
 30
0.0
 10
-0.601514
 20
-71.045762
 30
0.0
 10
-0.605648
 20
-71.096906
 30
0.0
 10
-0.605648
 20
-72.076684
 30
0.0
 10
-0.600480
 20
-72.133014
 30
0.0
 10
-0.597896
 20
-72.140264
 30
0.0
 10
-0.595313
 20
-72.146984
 30
0.0
 10
-0.558622
 20
-72.195562
 30
0.0
 10
-0.556038
 20
-72.198128
 30
0.0
 10
-0.330212
 20
-72.423447
 30
0.0
 10
-0.328145
 20
-72.426040
 30
0.0
 10
-0.276469
 20
-72.466336
 30
0.0
 10
-0.272852
 20
-72.468929
 30
0.0
 10
-0.270785
 20
-72.468929
 30
0.0
 10
-0.260966
 20
-72.472527
 30
0.0
 10
-0.257865
 20
-72.472527
 30
0.0
 10
-0.206706
 20
-72.477184
 30
0.0
 10
0.265100
 20
-72.477184
 30
0.0
 10
0.321427
 20
-72.471496
 30
0.0
 10
0.323494
 20
-72.471496
 30
0.0
 10
0.333313
 20
-72.467897
 30
0.0
 10
0.335380
 20
-72.467897
 30
0.0
 10
0.386023
 20
-72.428607
 30
0.0
 10
0.627352
 20
-72.186777
 30
0.0
 10
0.666152
 20
-72.061438
 30
0.0
 10
0.573378
 20
-71.968655
 30
0.0
 10
0.448035
 20
-72.007443
 30
0.0
 10
0.230994
 20
-72.223978
 30
0.0
 10
-0.171566
 20
-72.223978
 30
0.0
 10
-0.350883
 20
-72.044670
 30
0.0
 10
-0.350883
 20
-71.134106
 30
0.0
 10
-0.171566
 20
-70.954798
 30
0.0
 10
0.230994
 20
-70.954798
 30
0.0
 10
0.448035
 20
-71.171333
 30
0.0
 10
0.571849
 20
-71.206318
 30
0.0
 10
0.662695
 20
-71.115208
 30
0.0
 10
0.627352
 20
-70.991496
 30
0.0
 10
0.384989
 20
-70.749640
 30
0.0
 10
0.331763
 20
-70.709344
 30
0.0
 10
0.329696
 20
-70.709344
 30
0.0
 10
0.326595
 20
-70.709344
 30
0.0
 10
0.265100
 20
-70.702624
 30
0.0
 10
-0.205672
 20
-70.702624
 30
0.0
 10
-0.226860
 20
-70.702624
 30
0.0
 10
-0.226860
 20
-70.696935
 30
0.0
  0
LWPOLYLINE
  5
15a
100
AcDbEntity
  8
build
 62
7
100
AcDbPolyline
 90
47
 70
1
 10
1.043347
 20
-70.696935
 30
0.0
 10
0.962732
 20
-70.727415
 30
0.0
 10
0.954464
 20
-70.734665
 30
0.0
 10
0.952913
 20
-70.737231
 30
0.0
 10
0.951363
 20
-70.739824
 30
0.0
 10
0.944645
 20
-70.747074
 30
0.0
 10
0.944128
 20
-70.747074
 30
0.0
 10
0.917773
 20
-70.844202
 30
0.0
 10
0.917773
 20
-71.822975
 30
0.0
 10
0.917773
 20
-71.859647
 30
0.0
 10
0.917773
 20
-72.350078
 30
0.0
 10
0.981252
 20
-72.460413
 30
0.0
 10
1.108543
 20
-72.460413
 30
0.0
 10
1.172021
 20
-72.350078
 30
0.0
 10
1.172021
 20
-71.969211
 30
0.0
 10
1.500167
 20
-71.969211
 30
0.0
 10
1.970939
 20
-72.439984
 30
0.0
 10
2.094754
 20
-72.474969
 30
0.0
 10
2.185600
 20
-72.383859
 30
0.0
 10
2.150256
 20
-72.260146
 30
0.0
 10
1.852083
 20
-71.960929
 30
0.0
 10
1.856217
 20
-71.958363
 30
0.0
 10
1.858285
 20
-71.958363
 30
0.0
 10
1.909961
 20
-71.918040
 30
0.0
 10
2.134237
 20
-71.693250
 30
0.0
 10
2.136820
 20
-71.690684
 30
0.0
 10
2.172477
 20
-71.647795
 30
0.0
 10
2.173511
 20
-71.647795
 30
0.0
 10
2.174544
 20
-71.645202
 30
0.0
 10
2.179712
 20
-71.633825
 30
0.0
 10
2.187463
 20
-71.567679
 30
0.0
 10
2.187463
 20
-71.098467
 30
0.0
 10
2.178162
 20
-71.030257
 30
0.0
 10
2.175061
 20
-71.023537
 30
0.0
 10
2.171444
 20
-71.016816
 30
0.0
 10
2.137337
 20
-70.977023
 30
0.0
 10
1.912545
 20
-70.752736
 30
0.0
 10
1.909961
 20
-70.749640
 30
0.0
 10
1.877405
 20
-70.719663
 30
0.0
 10
1.875338
 20
-70.717096
 30
0.0
 10
1.866553
 20
-70.711911
 30
0.0
 10
1.854667
 20
-70.706249
 30
0.0
 10
1.852600
 20
-70.706249
 30
0.0
 10
1.850016
 20
-70.706249
 30
0.0
 10
1.788521
 20
-70.699528
 30
0.0
 10
1.065051
 20
-70.699528
 30
0.0
 10
1.043347
 20
-70.696935
 30
0.0
  0
LWPOLYLINE
  5
15b
100
AcDbEntity
  8
build
 62
7
100
AcDbPolyline
 90
56
 70
1
 10
2.819983
 20
-70.696935
 30
0.0
 10
2.784843
 20
-70.703126
 30
0.0
 10
2.778125
 20
-70.705719
 30
0.0
 10
2.772957
 20
-70.708312
 30
0.0
 10
2.770890
 20
-70.708312
 30
0.0
 10
2.759522
 20
-70.714001
 30
0.0
 10
2.719214
 20
-70.748608
 30
0.0
 10
2.491321
 20
-70.976494
 30
0.0
 10
2.455664
 20
-71.019409
 30
0.0
 10
2.454631
 20
-71.021976
 30
0.0
 10
2.450496
 20
-71.031792
 30
0.0
 10
2.448429
 20
-71.036978
 30
0.0
 10
2.441711
 20
-71.101033
 30
0.0
 10
2.441711
 20
-72.077214
 30
0.0
 10
2.449980
 20
-72.143359
 30
0.0
 10
2.451013
 20
-72.145952
 30
0.0
 10
2.452047
 20
-72.148519
 30
0.0
 10
2.492354
 20
-72.200192
 30
0.0
 10
2.720764
 20
-72.429136
 30
0.0
 10
2.762622
 20
-72.463743
 30
0.0
 10
2.770890
 20
-72.467897
 30
0.0
 10
2.774508
 20
-72.470464
 30
0.0
 10
2.776575
 20
-72.470464
 30
0.0
 10
2.786393
 20
-72.474089
 30
0.0
 10
2.788460
 20
-72.474089
 30
0.0
 10
2.839620
 20
-72.478216
 30
0.0
 10
3.311426
 20
-72.478216
 30
0.0
 10
3.367753
 20
-72.473057
 30
0.0
 10
3.376538
 20
-72.469961
 30
0.0
 10
3.379639
 20
-72.469961
 30
0.0
 10
3.381706
 20
-72.469961
 30
0.0
 10
3.430282
 20
-72.433263
 30
0.0
 10
3.432349
 20
-72.430670
 30
0.0
 10
3.657658
 20
-72.204849
 30
0.0
 10
3.660242
 20
-72.202282
 30
0.0
 10
3.701066
 20
-72.150582
 30
0.0
 10
3.702616
 20
-72.146984
 30
0.0
 10
3.703133
 20
-72.143889
 30
0.0
 10
3.706751
 20
-72.134575
 30
0.0
 10
3.707267
 20
-72.131480
 30
0.0
 10
3.711401
 20
-72.080309
 30
0.0
 10
3.711401
 20
-71.098467
 30
0.0
 10
3.706234
 20
-71.044201
 30
0.0
 10
3.705717
 20
-71.041608
 30
0.0
 10
3.702100
 20
-71.031792
 30
0.0
 10
3.701066
 20
-71.029225
 30
0.0
 10
3.694865
 20
-71.017848
 30
0.0
 10
3.662309
 20
-70.979087
 30
0.0
 10
3.433899
 20
-70.751201
 30
0.0
 10
3.378605
 20
-70.708815
 30
0.0
 10
3.376538
 20
-70.708815
 30
0.0
 10
3.374471
 20
-70.708815
 30
0.0
 10
3.311943
 20
-70.701592
 30
0.0
 10
2.841170
 20
-70.701592
 30
0.0
 10
2.819983
 20
-70.701592
 30
0.0
 10
2.819983
 20
-70.696935
 30
0.0
  0
LWPOLYLINE
  5
15c
100
AcDbEntity
  8
build
 62
7
100
AcDbPolyline
 90
9
 70
1
 10
1.172021
 20
-70.952205
 30
0.0
 10
1.754415
 20
-70.952205
 30
0.0
 10
1.933732
 20
-71.131540
 30
0.0
 10
1.933732
 20
-71.534103
 30
0.0
 10
1.754415
 20
-71.713411
 30
0.0
 10
1.567346
 20
-71.713411
 30
0.0
 10
1.535824
 20
-71.713411
 30
0.0
 10
1.172021
 20
-71.713411
 30
0.0
 10
1.172021
 20
-70.952205
 30
0.0
  0
LWPOLYLINE
  5
15d
100
AcDbEntity
  8
build
 62
7
100
AcDbPolyline
 90
9
 70
1
 10
2.875277
 20
-70.952205
 30
0.0
 10
3.277836
 20
-70.952205
 30
0.0
 10
3.457153
 20
-71.131540
 30
0.0
 10
3.457153
 20
-72.042077
 30
0.0
 10
3.277836
 20
-72.221385
 30
0.0
 10
2.875277
 20
-72.221385
 30
0.0
 10
2.695443
 20
-72.042077
 30
0.0
 10
2.695443
 20
-71.131540
 30
0.0
 10
2.875277
 20
-70.952205
 30
0.0
  0
LWPOLYLINE
  5
15e
100
AcDbEntity
  8
build
 62
7
100
AcDbPolyline
 90
6
 70
1
 10
-1.493966
 20
-71.004407
 30
0.0
 10
-1.113110
 20
-71.385275
 30
0.0
 10
-1.113110
 20
-71.459676
 30
0.0
 10
-1.874821
 20
-71.459676
 30
0.0
 10
-1.874821
 20
-71.385275
 30
0.0
 10
-1.493966
 20
-71.004407
 30
0.0
  0
LWPOLYLINE
  5
15f
100
AcDbEntity
  8
build
 62
7
100
AcDbPolyline
 90
15
 70
1
 10
-54.783220
 20
-73.435796
 30
0.0
 10
-44.323392
 20
-77.768348
 30
0.0
 10
-44.137358
 20
-77.818989
 30
0.0
 10
-44.121856
 20
-77.818989
 30
0.0
 10
-43.939436
 20
-77.769380
 30
0.0
 10
-42.274940
 20
-77.080008
 30
0.0
 10
-39.181072
 20
-78.361597
 30
0.0
 10
-38.491708
 20
-80.025561
 30
0.0
 10
-38.396106
 20
-80.191455
 30
0.0
 10
-38.385253
 20
-80.202806
 30
0.0
 10
-38.218856
 20
-80.296865
 30
0.0
 10
-35.124472
 20
-81.578454
 30
0.0
 10
-36.032943
 20
-84.723979
 30
0.0
 10
-43.495018
 20
-84.723979
 30
0.0
 10
-54.783220
 20
-73.435796
 30
0.0
  0
LWPOLYLINE
  5
160
100
AcDbEntity
  8
build
 62
7
100
AcDbPolyline
 90
17
 70
1
 10
54.782701
 20
-73.435796
 30
0.0
 10
44.683061
 20
-83.535947
 30
0.0
 10
44.664458
 20
-83.554547
 30
0.0
 10
43.493986
 20
-84.724509
 30
0.0
 10
36.031908
 20
-84.724509
 30
0.0
 10
35.123953
 20
-81.579486
 30
0.0
 10
38.217822
 20
-80.297394
 30
0.0
 10
38.385771
 20
-80.201271
 30
0.0
 10
38.397140
 20
-80.190423
 30
0.0
 10
38.491708
 20
-80.024027
 30
0.0
 10
39.180037
 20
-78.362100
 30
0.0
 10
42.274421
 20
-77.080537
 30
0.0
 10
43.936854
 20
-77.768851
 30
0.0
 10
44.122888
 20
-77.819492
 30
0.0
 10
44.138392
 20
-77.819492
 30
0.0
 10
44.322360
 20
-77.768851
 30
0.0
 10
54.782701
 20
-73.435796
 30
0.0
  0
LWPOLYLINE
  5
161
100
AcDbEntity
  8
build
 62
7
100
AcDbPolyline
 90
4
 70
1
 10
-0.000517
 20
-78.494391
 30
0.0
 10
-1.270723
 20
-80.399709
 30
0.0
 10
1.269690
 20
-80.399709
 30
0.0
 10
-0.000517
 20
-78.494391
 30
0.0
  0
LWPOLYLINE
  5
162
100
AcDbEntity
  8
build
 62
7
100
AcDbPolyline
 90
41
 70
1
 10
7.006291
 20
-81.015685
 30
0.0
 10
7.006291
 20
-81.021374
 30
0.0
 10
6.936011
 20
-81.044101
 30
0.0
 10
6.934977
 20
-81.044101
 30
0.0
 10
6.925675
 20
-81.051351
 30
0.0
 10
6.921025
 20
-81.055479
 30
0.0
 10
6.916374
 20
-81.059606
 30
0.0
 10
6.915857
 20
-81.059606
 30
0.0
 10
6.908105
 20
-81.067887
 30
0.0
 10
6.907589
 20
-81.067887
 30
0.0
 10
6.881234
 20
-81.168138
 30
0.0
 10
6.881234
 20
-81.885926
 30
0.0
 10
6.881234
 20
-81.929847
 30
0.0
 10
6.881234
 20
-82.647635
 30
0.0
 10
6.909656
 20
-82.753045
 30
0.0
 10
6.910173
 20
-82.753045
 30
0.0
 10
6.918441
 20
-82.761327
 30
0.0
 10
6.924125
 20
-82.766989
 30
0.0
 10
6.927743
 20
-82.770111
 30
0.0
 10
6.928776
 20
-82.770111
 30
0.0
 10
6.938078
 20
-82.776831
 30
0.0
 10
6.939111
 20
-82.776831
 30
0.0
 10
7.029028
 20
-82.795934
 30
0.0
 10
8.023800
 20
-82.795934
 30
0.0
 10
8.133888
 20
-82.732375
 30
0.0
 10
8.133888
 20
-82.605256
 30
0.0
 10
8.023800
 20
-82.541696
 30
0.0
 10
7.134965
 20
-82.541696
 30
0.0
 10
7.134965
 20
-82.034225
 30
0.0
 10
7.515820
 20
-82.034225
 30
0.0
 10
7.625909
 20
-81.970666
 30
0.0
 10
7.625909
 20
-81.843547
 30
0.0
 10
7.515820
 20
-81.779987
 30
0.0
 10
7.134965
 20
-81.779987
 30
0.0
 10
7.134965
 20
-81.272516
 30
0.0
 10
8.023800
 20
-81.272516
 30
0.0
 10
8.133888
 20
-81.208957
 30
0.0
 10
8.133888
 20
-81.081838
 30
0.0
 10
8.023800
 20
-81.018278
 30
0.0
 10
7.028512
 20
-81.018278
 30
0.0
 10
7.006291
 20
-81.015685
 30
0.0
  0
LWPOLYLINE
  5
163
100
AcDbEntity
  8
build
 62
7
100
AcDbPolyline
 90
47
 70
1
 10
-9.752376
 20
-81.018278
 30
0.0
 10
-9.752376
 20
-81.021374
 30
0.0
 10
-9.822656
 20
-81.044101
 30
0.0
 10
-9.823690
 20
-81.044101
 30
0.0
 10
-9.832991
 20
-81.051351
 30
0.0
 10
-9.837643
 20
-81.055479
 30
0.0
 10
-9.842293
 20
-81.059606
 30
0.0
 10
-9.842810
 20
-81.059606
 30
0.0
 10
-9.850562
 20
-81.067887
 30
0.0
 10
-9.851078
 20
-81.067887
 30
0.0
 10
-9.877433
 20
-81.168138
 30
0.0
 10
-9.877433
 20
-82.142757
 30
0.0
 10
-9.877433
 20
-82.184085
 30
0.0
 10
-9.877433
 20
-82.670892
 30
0.0
 10
-9.815831
 20
-82.785966
 30
0.0
 10
-9.685305
 20
-82.785966
 30
0.0
 10
-9.623702
 20
-82.670892
 30
0.0
 10
-9.623702
 20
-82.290024
 30
0.0
 10
-9.007202
 20
-82.290024
 30
0.0
 10
-8.951392
 20
-82.284865
 30
0.0
 10
-8.948808
 20
-82.284865
 30
0.0
 10
-8.938989
 20
-82.281240
 30
0.0
 10
-8.936922
 20
-82.281240
 30
0.0
 10
-8.884729
 20
-82.239912
 30
0.0
 10
-8.656836
 20
-82.012529
 30
0.0
 10
-8.618079
 20
-81.961359
 30
0.0
 10
-8.616528
 20
-81.958792
 30
0.0
 10
-8.616012
 20
-81.955670
 30
0.0
 10
-8.612394
 20
-81.946384
 30
0.0
 10
-8.611877
 20
-81.943288
 30
0.0
 10
-8.607743
 20
-81.892117
 30
0.0
 10
-8.607743
 20
-81.419783
 30
0.0
 10
-8.612911
 20
-81.363480
 30
0.0
 10
-8.613428
 20
-81.360887
 30
0.0
 10
-8.617045
 20
-81.351071
 30
0.0
 10
-8.618079
 20
-81.348478
 30
0.0
 10
-8.622730
 20
-81.339191
 30
0.0
 10
-8.623763
 20
-81.336598
 30
0.0
 10
-8.624796
 20
-81.336598
 30
0.0
 10
-8.657869
 20
-81.297837
 30
0.0
 10
-8.885246
 20
-81.070983
 30
0.0
 10
-8.940540
 20
-81.028597
 30
0.0
 10
-8.942607
 20
-81.028597
 30
0.0
 10
-8.955009
 20
-81.024999
 30
0.0
 10
-9.005652
 20
-81.020845
 30
0.0
 10
-9.730156
 20
-81.020845
 30
0.0
 10
-9.752376
 20
-81.018278
 30
0.0
  0
LWPOLYLINE
  5
164
100
AcDbEntity
  8
build
 62
7
100
AcDbPolyline
 90
21
 70
1
 10
9.549805
 20
-81.018781
 30
0.0
 10
9.441801
 20
-81.079767
 30
0.0
 10
9.039241
 20
-81.682832
 30
0.0
 10
8.637199
 20
-81.079767
 30
0.0
 10
8.530229
 20
-81.021374
 30
0.0
 10
8.418056
 20
-81.089372
 30
0.0
 10
8.425842
 20
-81.220314
 30
0.0
 10
8.886796
 20
-81.911750
 30
0.0
 10
8.425842
 20
-82.603185
 30
0.0
 10
8.414288
 20
-82.732509
 30
0.0
 10
8.522399
 20
-82.804413
 30
0.0
 10
8.637199
 20
-82.743758
 30
0.0
 10
9.039241
 20
-82.140694
 30
0.0
 10
9.441801
 20
-82.743758
 30
0.0
 10
9.556601
 20
-82.804413
 30
0.0
 10
9.664711
 20
-82.732509
 30
0.0
 10
9.653158
 20
-82.603185
 30
0.0
 10
9.192204
 20
-81.911750
 30
0.0
 10
9.653158
 20
-81.220314
 30
0.0
 10
9.663322
 20
-81.087833
 30
0.0
 10
9.549805
 20
-81.018781
 30
0.0
  0
LWPOLYLINE
  5
165
100
AcDbEntity
  8
build
 62
7
100
AcDbPolyline
 90
39
 70
1
 10
-3.658175
 20
-81.019310
 30
0.0
 10
-3.658175
 20
-81.021374
 30
0.0
 10
-3.738790
 20
-81.051854
 30
0.0
 10
-3.747058
 20
-81.059103
 30
0.0
 10
-3.748608
 20
-81.061670
 30
0.0
 10
-3.750159
 20
-81.064263
 30
0.0
 10
-3.756877
 20
-81.071486
 30
0.0
 10
-3.757393
 20
-81.071486
 30
0.0
 10
-3.783232
 20
-81.171736
 30
0.0
 10
-3.783232
 20
-81.889525
 30
0.0
 10
-3.783232
 20
-81.933472
 30
0.0
 10
-3.783232
 20
-82.651234
 30
0.0
 10
-3.754810
 20
-82.756670
 30
0.0
 10
-3.754293
 20
-82.756670
 30
0.0
 10
-3.746025
 20
-82.764925
 30
0.0
 10
-3.740340
 20
-82.770614
 30
0.0
 10
-3.736723
 20
-82.773709
 30
0.0
 10
-3.735689
 20
-82.773709
 30
0.0
 10
-3.726387
 20
-82.780430
 30
0.0
 10
-3.725354
 20
-82.780430
 30
0.0
 10
-3.635437
 20
-82.799559
 30
0.0
 10
-2.640666
 20
-82.799559
 30
0.0
 10
-2.530577
 20
-82.735999
 30
0.0
 10
-2.530577
 20
-82.608880
 30
0.0
 10
-2.640666
 20
-82.545321
 30
0.0
 10
-3.529500
 20
-82.545321
 30
0.0
 10
-3.529500
 20
-82.037850
 30
0.0
 10
-3.148645
 20
-82.037837
 30
0.0
 10
-3.038557
 20
-81.974277
 30
0.0
 10
-3.038557
 20
-81.847158
 30
0.0
 10
-3.148645
 20
-81.783599
 30
0.0
 10
-3.529500
 20
-81.783585
 30
0.0
 10
-3.529500
 20
-81.276141
 30
0.0
 10
-2.640666
 20
-81.276128
 30
0.0
 10
-2.530577
 20
-81.212568
 30
0.0
 10
-2.530577
 20
-81.085449
 30
0.0
 10
-2.640666
 20
-81.021890
 30
0.0
 10
-3.636471
 20
-81.021876
 30
0.0
 10
-3.658175
 20
-81.019310
 30
0.0
  0
LWPOLYLINE
  5
166
100
AcDbEntity
  8
build
 62
7
100
AcDbPolyline
 90
33
 70
1
 10
5.990332
 20
-81.020845
 30
0.0
 10
5.990332
 20
-81.021374
 30
0.0
 10
5.971728
 20
-81.023967
 30
0.0
 10
5.484420
 20
-81.023967
 30
0.0
 10
5.374332
 20
-81.087526
 30
0.0
 10
5.374332
 20
-81.214645
 30
0.0
 10
5.484420
 20
-81.278205
 30
0.0
 10
5.865275
 20
-81.278205
 30
0.0
 10
5.865275
 20
-82.674490
 30
0.0
 10
5.928745
 20
-82.784848
 30
0.0
 10
6.056053
 20
-82.784848
 30
0.0
 10
6.119523
 20
-82.674490
 30
0.0
 10
6.119523
 20
-81.278205
 30
0.0
 10
6.500378
 20
-81.278205
 30
0.0
 10
6.512781
 20
-81.278205
 30
0.0
 10
6.538102
 20
-81.273548
 30
0.0
 10
6.561357
 20
-81.263732
 30
0.0
 10
6.572209
 20
-81.258044
 30
0.0
 10
6.623885
 20
-81.187770
 30
0.0
 10
6.626986
 20
-81.175361
 30
0.0
 10
6.625952
 20
-81.124720
 30
0.0
 10
6.622852
 20
-81.112840
 30
0.0
 10
6.618201
 20
-81.100960
 30
0.0
 10
6.605798
 20
-81.078735
 30
0.0
 10
6.598047
 20
-81.068919
 30
0.0
 10
6.589262
 20
-81.059606
 30
0.0
 10
6.579443
 20
-81.051351
 30
0.0
 10
6.569108
 20
-81.044101
 30
0.0
 10
6.533968
 20
-81.029126
 30
0.0
 10
6.521566
 20
-81.026533
 30
0.0
 10
6.500378
 20
-81.023967
 30
0.0
 10
6.012553
 20
-81.023967
 30
0.0
 10
5.990332
 20
-81.020845
 30
0.0
  0
LWPOLYLINE
  5
167
100
AcDbEntity
  8
build
 62
7
100
AcDbPolyline
 90
53
 70
1
 10
-7.975740
 20
-81.021374
 30
0.0
 10
-8.010881
 20
-81.027565
 30
0.0
 10
-8.017598
 20
-81.030158
 30
0.0
 10
-8.022766
 20
-81.033254
 30
0.0
 10
-8.024833
 20
-81.033254
 30
0.0
 10
-8.036202
 20
-81.038942
 30
0.0
 10
-8.075993
 20
-81.073047
 30
0.0
 10
-8.305436
 20
-81.302494
 30
0.0
 10
-8.345227
 20
-81.355728
 30
0.0
 10
-8.346777
 20
-81.359855
 30
0.0
 10
-8.354012
 20
-81.421874
 30
0.0
 10
-8.354012
 20
-82.400620
 30
0.0
 10
-8.348845
 20
-82.456950
 30
0.0
 10
-8.345744
 20
-82.465205
 30
0.0
 10
-8.344710
 20
-82.469332
 30
0.0
 10
-8.343677
 20
-82.471925
 30
0.0
 10
-8.303369
 20
-82.523096
 30
0.0
 10
-8.074959
 20
-82.752013
 30
0.0
 10
-8.024833
 20
-82.790246
 30
0.0
 10
-8.021216
 20
-82.792839
 30
0.0
 10
-8.019149
 20
-82.792839
 30
0.0
 10
-8.009330
 20
-82.796463
 30
0.0
 10
-8.006746
 20
-82.796463
 30
0.0
 10
-7.956103
 20
-82.801120
 30
0.0
 10
-7.483781
 20
-82.801120
 30
0.0
 10
-7.427454
 20
-82.795431
 30
0.0
 10
-7.425387
 20
-82.795431
 30
0.0
 10
-7.415568
 20
-82.791807
 30
0.0
 10
-7.413501
 20
-82.791807
 30
0.0
 10
-7.404199
 20
-82.787679
 30
0.0
 10
-7.402132
 20
-82.787679
 30
0.0
 10
-7.401099
 20
-82.787679
 30
0.0
 10
-7.362858
 20
-82.755638
 30
0.0
 10
-7.134965
 20
-82.527223
 30
0.0
 10
-7.093107
 20
-82.471925
 30
0.0
 10
-7.091557
 20
-82.468830
 30
0.0
 10
-7.091040
 20
-82.466237
 30
0.0
 10
-7.083805
 20
-82.404245
 30
0.0
 10
-7.083805
 20
-81.424969
 30
0.0
 10
-7.088973
 20
-81.368639
 30
0.0
 10
-7.089490
 20
-81.366046
 30
0.0
 10
-7.093107
 20
-81.356230
 30
0.0
 10
-7.094657
 20
-81.353637
 30
0.0
 10
-7.100342
 20
-81.342287
 30
0.0
 10
-7.134448
 20
-81.302494
 30
0.0
 10
-7.363892
 20
-81.073576
 30
0.0
 10
-7.417118
 20
-81.033254
 30
0.0
 10
-7.419185
 20
-81.033254
 30
0.0
 10
-7.431071
 20
-81.029629
 30
0.0
 10
-7.482231
 20
-81.025501
 30
0.0
 10
-7.954553
 20
-81.025501
 30
0.0
 10
-7.975740
 20
-81.025501
 30
0.0
 10
-7.975740
 20
-81.021374
 30
0.0
  0
LWPOLYLINE
  5
168
100
AcDbEntity
  8
build
 62
7
100
AcDbPolyline
 90
60
 70
1
 10
-6.452319
 20
-81.021374
 30
0.0
 10
-6.486943
 20
-81.027565
 30
0.0
 10
-6.495727
 20
-81.030158
 30
0.0
 10
-6.499345
 20
-81.033254
 30
0.0
 10
-6.501412
 20
-81.033254
 30
0.0
 10
-6.553605
 20
-81.074608
 30
0.0
 10
-6.781498
 20
-81.301964
 30
0.0
 10
-6.820256
 20
-81.352103
 30
0.0
 10
-6.821806
 20
-81.355728
 30
0.0
 10
-6.822323
 20
-81.358294
 30
0.0
 10
-6.825940
 20
-81.368110
 30
0.0
 10
-6.826457
 20
-81.370703
 30
0.0
 10
-6.830591
 20
-81.421344
 30
0.0
 10
-6.830591
 20
-82.401123
 30
0.0
 10
-6.825423
 20
-82.457453
 30
0.0
 10
-6.822323
 20
-82.465734
 30
0.0
 10
-6.821289
 20
-82.469862
 30
0.0
 10
-6.820256
 20
-82.472455
 30
0.0
 10
-6.815605
 20
-82.481741
 30
0.0
 10
-6.814571
 20
-82.484334
 30
0.0
 10
-6.779948
 20
-82.524630
 30
0.0
 10
-6.555156
 20
-82.748918
 30
0.0
 10
-6.553088
 20
-82.751484
 30
0.0
 10
-6.501412
 20
-82.791807
 30
0.0
 10
-6.497795
 20
-82.794400
 30
0.0
 10
-6.495727
 20
-82.794400
 30
0.0
 10
-6.485909
 20
-82.798527
 30
0.0
 10
-6.483325
 20
-82.798527
 30
0.0
 10
-6.432682
 20
-82.802655
 30
0.0
 10
-5.960360
 20
-82.802655
 30
0.0
 10
-5.904032
 20
-82.796966
 30
0.0
 10
-5.901965
 20
-82.796966
 30
0.0
 10
-5.897314
 20
-82.794400
 30
0.0
 10
-5.890080
 20
-82.791807
 30
0.0
 10
-5.880778
 20
-82.787679
 30
0.0
 10
-5.878711
 20
-82.787679
 30
0.0
 10
-5.877677
 20
-82.787679
 30
0.0
 10
-5.839954
 20
-82.755638
 30
0.0
 10
-5.598108
 20
-82.513280
 30
0.0
 10
-5.559309
 20
-82.387940
 30
0.0
 10
-5.652082
 20
-82.295158
 30
0.0
 10
-5.777425
 20
-82.333945
 30
0.0
 10
-5.994466
 20
-82.550480
 30
0.0
 10
-6.397025
 20
-82.550480
 30
0.0
 10
-6.576343
 20
-82.371172
 30
0.0
 10
-6.576343
 20
-81.460609
 30
0.0
 10
-6.397025
 20
-81.281300
 30
0.0
 10
-5.994466
 20
-81.281300
 30
0.0
 10
-5.777425
 20
-81.497835
 30
0.0
 10
-5.653612
 20
-81.532818
 30
0.0
 10
-5.562767
 20
-81.441710
 30
0.0
 10
-5.598108
 20
-81.317998
 30
0.0
 10
-5.840470
 20
-81.076142
 30
0.0
 10
-5.893697
 20
-81.035846
 30
0.0
 10
-5.895764
 20
-81.035846
 30
0.0
 10
-5.907650
 20
-81.031692
 30
0.0
 10
-5.958809
 20
-81.027565
 30
0.0
 10
-6.431132
 20
-81.027565
 30
0.0
 10
-6.452319
 20
-81.027565
 30
0.0
 10
-6.452319
 20
-81.021374
 30
0.0
  0
LWPOLYLINE
  5
169
100
AcDbEntity
  8
build
 62
7
100
AcDbPolyline
 90
58
 70
1
 10
-5.182113
 20
-81.021374
 30
0.0
 10
-5.271248
 20
-81.059847
 30
0.0
 10
-5.307170
 20
-81.150041
 30
0.0
 10
-5.307170
 20
-82.151012
 30
0.0
 10
-5.307170
 20
-82.182551
 30
0.0
 10
-5.307170
 20
-82.673459
 30
0.0
 10
-5.306653
 20
-82.686397
 30
0.0
 10
-5.304586
 20
-82.698779
 30
0.0
 10
-5.302002
 20
-82.711188
 30
0.0
 10
-5.269963
 20
-82.764925
 30
0.0
 10
-5.260144
 20
-82.773709
 30
0.0
 10
-5.250326
 20
-82.780959
 30
0.0
 10
-5.238957
 20
-82.787679
 30
0.0
 10
-5.227588
 20
-82.792309
 30
0.0
 10
-5.215702
 20
-82.796966
 30
0.0
 10
-5.203300
 20
-82.800062
 30
0.0
 10
-5.190898
 20
-82.802655
 30
0.0
 10
-5.165576
 20
-82.802655
 30
0.0
 10
-5.128886
 20
-82.792309
 30
0.0
 10
-5.117517
 20
-82.786647
 30
0.0
 10
-5.096847
 20
-82.772175
 30
0.0
 10
-5.072042
 20
-82.743229
 30
0.0
 10
-5.052921
 20
-82.674490
 30
0.0
 10
-5.052921
 20
-82.219222
 30
0.0
 10
-4.925798
 20
-82.092116
 30
0.0
 10
-4.254004
 20
-82.764422
 30
0.0
 10
-4.130189
 20
-82.799408
 30
0.0
 10
-4.039342
 20
-82.708298
 30
0.0
 10
-4.074687
 20
-82.584585
 30
0.0
 10
-4.746480
 20
-81.912781
 30
0.0
 10
-4.074687
 20
-81.241004
 30
0.0
 10
-4.051432
 20
-81.210498
 30
0.0
 10
-4.046265
 20
-81.199147
 30
0.0
 10
-4.041614
 20
-81.187241
 30
0.0
 10
-4.036446
 20
-81.162450
 30
0.0
 10
-4.035929
 20
-81.149538
 30
0.0
 10
-4.036446
 20
-81.137129
 30
0.0
 10
-4.038513
 20
-81.124217
 30
0.0
 10
-4.051432
 20
-81.088551
 30
0.0
 10
-4.058150
 20
-81.078206
 30
0.0
 10
-4.074687
 20
-81.058574
 30
0.0
 10
-4.083988
 20
-81.050319
 30
0.0
 10
-4.105693
 20
-81.036349
 30
0.0
 10
-4.128947
 20
-81.027565
 30
0.0
 10
-4.141349
 20
-81.024469
 30
0.0
 10
-4.154268
 20
-81.021876
 30
0.0
 10
-4.215763
 20
-81.033254
 30
0.0
 10
-4.237984
 20
-81.046165
 30
0.0
 10
-4.247803
 20
-81.053415
 30
0.0
 10
-4.254004
 20
-81.060135
 30
0.0
 10
-4.999178
 20
-81.805810
 30
0.0
 10
-5.001762
 20
-81.808403
 30
0.0
 10
-5.030701
 20
-81.837349
 30
0.0
 10
-5.052921
 20
-81.859574
 30
0.0
 10
-5.052921
 20
-81.150570
 30
0.0
 10
-5.090285
 20
-81.058885
 30
0.0
 10
-5.182113
 20
-81.021876
 30
0.0
 10
-5.182113
 20
-81.021374
 30
0.0
  0
LWPOLYLINE
  5
16a
100
AcDbEntity
  8
build
 62
7
100
AcDbPolyline
 90
28
 70
1
 10
-1.627291
 20
-81.021374
 30
0.0
 10
-1.645894
 20
-81.023967
 30
0.0
 10
-2.133203
 20
-81.023967
 30
0.0
 10
-2.243291
 20
-81.087526
 30
0.0
 10
-2.243291
 20
-81.214645
 30
0.0
 10
-2.133203
 20
-81.278205
 30
0.0
 10
-1.752348
 20
-81.278205
 30
0.0
 10
-1.752348
 20
-82.674490
 30
0.0
 10
-1.688870
 20
-82.784825
 30
0.0
 10
-1.561578
 20
-82.784825
 30
0.0
 10
-1.498100
 20
-82.674490
 30
0.0
 10
-1.498100
 20
-81.278205
 30
0.0
 10
-1.117244
 20
-81.278205
 30
0.0
 10
-1.104842
 20
-81.278205
 30
0.0
 10
-1.091923
 20
-81.275612
 30
0.0
 10
-1.067635
 20
-81.268891
 30
0.0
 10
-1.056266
 20
-81.263203
 30
0.0
 10
-1.045414
 20
-81.257012
 30
0.0
 10
-1.035079
 20
-81.249259
 30
0.0
 10
-1.016992
 20
-81.231188
 30
0.0
 10
-0.993738
 20
-81.186738
 30
0.0
 10
-0.988570
 20
-81.149009
 30
0.0
 10
-0.989087
 20
-81.136600
 30
0.0
 10
-0.994771
 20
-81.111808
 30
0.0
 10
-1.011825
 20
-81.077704
 30
0.0
 10
-1.117244
 20
-81.023967
 30
0.0
 10
-1.605070
 20
-81.023967
 30
0.0
 10
-1.627291
 20
-81.021374
 30
0.0
  0
LWPOLYLINE
  5
16b
100
AcDbEntity
  8
build
 62
7
100
AcDbPolyline
 90
36
 70
1
 10
0.912089
 20
-81.021374
 30
0.0
 10
0.822954
 20
-81.059847
 30
0.0
 10
0.787032
 20
-81.150041
 30
0.0
 10
0.787032
 20
-82.147917
 30
0.0
 10
0.792200
 20
-82.204246
 30
0.0
 10
0.794784
 20
-82.210967
 30
0.0
 10
0.796334
 20
-82.216126
 30
0.0
 10
0.797367
 20
-82.218719
 30
0.0
 10
0.837675
 20
-82.270392
 30
0.0
 10
1.315682
 20
-82.747886
 30
0.0
 10
1.317232
 20
-82.750452
 30
0.0
 10
1.423169
 20
-82.803686
 30
0.0
 10
1.424202
 20
-82.803686
 30
0.0
 10
1.425236
 20
-82.803686
 30
0.0
 10
1.449524
 20
-82.800591
 30
0.0
 10
1.526522
 20
-82.750452
 30
0.0
 10
2.002979
 20
-82.273488
 30
0.0
 10
2.006079
 20
-82.270895
 30
0.0
 10
2.036051
 20
-82.238351
 30
0.0
 10
2.037602
 20
-82.235758
 30
0.0
 10
2.042253
 20
-82.226974
 30
0.0
 10
2.047937
 20
-82.215094
 30
0.0
 10
2.049487
 20
-82.212501
 30
0.0
 10
2.050521
 20
-82.209935
 30
0.0
 10
2.057239
 20
-82.148446
 30
0.0
 10
2.057239
 20
-81.151072
 30
0.0
 10
1.993677
 20
-81.040980
 30
0.0
 10
1.866553
 20
-81.040980
 30
0.0
 10
1.802991
 20
-81.151072
 30
0.0
 10
1.802991
 20
-82.114315
 30
0.0
 10
1.422652
 20
-82.495182
 30
0.0
 10
1.041797
 20
-82.114315
 30
0.0
 10
1.041797
 20
-81.151072
 30
0.0
 10
1.004424
 20
-81.059406
 30
0.0
 10
0.912606
 20
-81.022406
 30
0.0
 10
0.912089
 20
-81.021374
 30
0.0
  0
LWPOLYLINE
  5
16c
100
AcDbEntity
  8
build
 62
7
100
AcDbPolyline
 90
61
 70
1
 10
2.688725
 20
-81.021374
 30
0.0
 10
2.654102
 20
-81.027565
 30
0.0
 10
2.645833
 20
-81.030158
 30
0.0
 10
2.641699
 20
-81.033254
 30
0.0
 10
2.639632
 20
-81.033254
 30
0.0
 10
2.587439
 20
-81.074608
 30
0.0
 10
2.359546
 20
-81.301964
 30
0.0
 10
2.321305
 20
-81.352103
 30
0.0
 10
2.319238
 20
-81.355728
 30
0.0
 10
2.318722
 20
-81.358294
 30
0.0
 10
2.315104
 20
-81.368110
 30
0.0
 10
2.314587
 20
-81.370703
 30
0.0
 10
2.310453
 20
-81.421344
 30
0.0
 10
2.310453
 20
-82.401123
 30
0.0
 10
2.315621
 20
-82.457453
 30
0.0
 10
2.318205
 20
-82.465734
 30
0.0
 10
2.319755
 20
-82.469862
 30
0.0
 10
2.320789
 20
-82.472455
 30
0.0
 10
2.325439
 20
-82.481741
 30
0.0
 10
2.326473
 20
-82.484334
 30
0.0
 10
2.361096
 20
-82.524630
 30
0.0
 10
2.585889
 20
-82.748918
 30
0.0
 10
2.587956
 20
-82.751484
 30
0.0
 10
2.639632
 20
-82.791807
 30
0.0
 10
2.643250
 20
-82.794400
 30
0.0
 10
2.645317
 20
-82.794400
 30
0.0
 10
2.655135
 20
-82.798527
 30
0.0
 10
2.657719
 20
-82.798527
 30
0.0
 10
2.708362
 20
-82.802655
 30
0.0
 10
3.180684
 20
-82.802655
 30
0.0
 10
3.237012
 20
-82.796966
 30
0.0
 10
3.239079
 20
-82.796966
 30
0.0
 10
3.244246
 20
-82.794400
 30
0.0
 10
3.250964
 20
-82.791807
 30
0.0
 10
3.260783
 20
-82.787679
 30
0.0
 10
3.262850
 20
-82.787679
 30
0.0
 10
3.263884
 20
-82.787679
 30
0.0
 10
3.301607
 20
-82.755638
 30
0.0
 10
3.528984
 20
-82.527726
 30
0.0
 10
3.565674
 20
-82.484334
 30
0.0
 10
3.566707
 20
-82.484334
 30
0.0
 10
3.567741
 20
-82.481239
 30
0.0
 10
3.571875
 20
-82.472455
 30
0.0
 10
3.572908
 20
-82.469332
 30
0.0
 10
3.573425
 20
-82.466766
 30
0.0
 10
3.580660
 20
-82.404748
 30
0.0
 10
3.580660
 20
-81.425472
 30
0.0
 10
3.575492
 20
-81.369142
 30
0.0
 10
3.574976
 20
-81.366576
 30
0.0
 10
3.571358
 20
-81.356760
 30
0.0
 10
3.570325
 20
-81.354167
 30
0.0
 10
3.564640
 20
-81.342790
 30
0.0
 10
3.530534
 20
-81.302996
 30
0.0
 10
3.301607
 20
-81.074079
 30
0.0
 10
3.247864
 20
-81.033783
 30
0.0
 10
3.245797
 20
-81.033783
 30
0.0
 10
3.233911
 20
-81.030158
 30
0.0
 10
3.182751
 20
-81.026030
 30
0.0
 10
2.710429
 20
-81.026030
 30
0.0
 10
2.689241
 20
-81.026030
 30
0.0
 10
2.688725
 20
-81.021374
 30
0.0
  0
LWPOLYLINE
  5
16d
100
AcDbEntity
  8
build
 62
7
100
AcDbPolyline
 90
21
 70
1
 10
3.958932
 20
-81.021374
 30
0.0
 10
3.869796
 20
-81.059847
 30
0.0
 10
3.833874
 20
-81.150041
 30
0.0
 10
3.833874
 20
-82.654356
 30
0.0
 10
3.862813
 20
-82.755638
 30
0.0
 10
3.870048
 20
-82.763893
 30
0.0
 10
3.871598
 20
-82.766486
 30
0.0
 10
3.874182
 20
-82.769079
 30
0.0
 10
3.880900
 20
-82.775270
 30
0.0
 10
3.881934
 20
-82.775270
 30
0.0
 10
3.892269
 20
-82.782493
 30
0.0
 10
3.982186
 20
-82.801623
 30
0.0
 10
4.976957
 20
-82.801623
 30
0.0
 10
5.087046
 20
-82.738063
 30
0.0
 10
5.087046
 20
-82.610944
 30
0.0
 10
4.976957
 20
-82.547385
 30
0.0
 10
4.088123
 20
-82.547385
 30
0.0
 10
4.088123
 20
-81.151072
 30
0.0
 10
4.050750
 20
-81.059406
 30
0.0
 10
3.958932
 20
-81.022406
 30
0.0
 10
3.958932
 20
-81.021374
 30
0.0
  0
LWPOLYLINE
  5
16e
100
AcDbEntity
  8
build
 62
7
100
AcDbPolyline
 90
7
 70
1
 10
-9.623702
 20
-81.276644
 30
0.0
 10
-9.041309
 20
-81.276644
 30
0.0
 10
-8.861991
 20
-81.455978
 30
0.0
 10
-8.861991
 20
-81.858515
 30
0.0
 10
-9.041309
 20
-82.038353
 30
0.0
 10
-9.623702
 20
-82.038353
 30
0.0
 10
-9.623702
 20
-81.276644
 30
0.0
  0
LWPOLYLINE
  5
16f
100
AcDbEntity
  8
build
 62
7
100
AcDbPolyline
 90
9
 70
1
 10
-7.920447
 20
-81.276644
 30
0.0
 10
-7.517887
 20
-81.276644
 30
0.0
 10
-7.338570
 20
-81.455978
 30
0.0
 10
-7.338570
 20
-82.366515
 30
0.0
 10
-7.517887
 20
-82.545824
 30
0.0
 10
-7.920447
 20
-82.545824
 30
0.0
 10
-8.099764
 20
-82.366515
 30
0.0
 10
-8.099764
 20
-81.455978
 30
0.0
 10
-7.920447
 20
-81.276644
 30
0.0
  0
LWPOLYLINE
  5
170
100
AcDbEntity
  8
build
 62
7
100
AcDbPolyline
 90
9
 70
1
 10
2.744019
 20
-81.276644
 30
0.0
 10
3.146578
 20
-81.276644
 30
0.0
 10
3.326412
 20
-81.455978
 30
0.0
 10
3.326412
 20
-82.366515
 30
0.0
 10
3.146578
 20
-82.545824
 30
0.0
 10
2.744019
 20
-82.545824
 30
0.0
 10
2.564701
 20
-82.366515
 30
0.0
 10
2.564701
 20
-81.455978
 30
0.0
 10
2.744019
 20
-81.276644
 30
0.0
  0
LWPOLYLINE
  5
171
100
AcDbEntity
  8
build
 62
7
100
AcDbPolyline
 90
4
 70
1
 10
-34.427872
 20
-81.867326
 30
0.0
 10
-27.531653
 20
-84.723979
 30
0.0
 10
-35.252112
 20
-84.723979
 30
0.0
 10
-34.427872
 20
-81.867326
 30
0.0
  0
LWPOLYLINE
  5
172
100
AcDbEntity
  8
build
 62
7
100
AcDbPolyline
 90
4
 70
1
 10
34.426840
 20
-81.867326
 30
0.0
 10
35.251078
 20
-84.723979
 30
0.0
 10
27.531137
 20
-84.723979
 30
0.0
 10
34.426840
 20
-81.867326
 30
0.0
  0
LWPOLYLINE
  5
173
100
AcDbEntity
  8
build
 62
7
100
AcDbPolyline
 90
18
 70
1
 10
-24.890470
 20
-83.398999
 30
0.0
 10
-11.055656
 20
-83.398999
 30
0.0
 10
-10.479464
 20
-83.975182
 30
0.0
 10
-10.324951
 20
-84.094562
 30
0.0
 10
-10.311515
 20
-84.100251
 30
0.0
 10
-10.123930
 20
-84.124037
 30
0.0
 10
-0.000517
 20
-84.124037
 30
0.0
 10
10.123930
 20
-84.124037
 30
0.0
 10
10.319267
 20
-84.096626
 30
0.0
 10
10.320817
 20
-84.096626
 30
0.0
 10
10.327018
 20
-84.094059
 30
0.0
 10
10.330636
 20
-84.091466
 30
0.0
 10
10.477397
 20
-83.976240
 30
0.0
 10
11.054622
 20
-83.398999
 30
0.0
 10
24.889437
 20
-83.398999
 30
0.0
 10
25.438240
 20
-84.723979
 30
0.0
 10
-25.439274
 20
-84.723979
 30
0.0
 10
-24.890470
 20
-83.398999
 30
0.0
  0
ENDSEC
  0
SECTION
  2
OBJECTS
  0
DICTIONARY
  5
C
330
0
100
AcDbDictionary
  3
ACAD_GROUP
350
D
  3
ACAD_MLINESTYLE
350
17
  0
DICTIONARY
  5
D
330
C
100
AcDbDictionary
  0
DICTIONARY
  5
1A
330
C
100
AcDbDictionary
  0
DICTIONARY
  5
17
330
C
100
AcDbDictionary
  3
STANDARD
350
18
  0
DICTIONARY
  5
19
330
C
100
AcDbDictionary
  0
ENDSEC
  0
EOF
