  0
SECTION
  2
HEADER
  9
$ACADVER
  1
AC1014
  9
$HANDSEED
  5
FFFF
  9
$MEASUREMENT
 70
     1
  0
ENDSEC
  0
SECTION
  2
TABLES
  0
TABLE
  2
VPORT
  5
8
330
0
100
AcDbSymbolTable
 70
     4
  0
VPORT
  5
2E
330
8
100
AcDbSymbolTableRecord
100
AcDbViewportTableRecord
  2
*ACTIVE
 70
     0
 10
0.0
 20
0.0
 11
1.0
 21
1.0
 12
210.0
 22
148.5
 13
0.0
 23
0.0
 14
10.0
 24
10.0
 15
10.0
 25
10.0
 16
0.0
 26
0.0
 36
1.0
 17
0.0
 27
0.0
 37
0.0
 40
341.0
 41
1.24
 42
50.0
 43
0.0
 44
0.0
 50
0.0
 51
0.0
 71
     0
 72
   100
 73
     1
 74
     3
 75
     0
 76
     0
 77
     0
 78
     0
  0
ENDTAB
  0
TABLE
  2
LTYPE
  5
5
330
0
100
AcDbSymbolTable
 70
     1
  0
LTYPE
  5
14
330
5
100
AcDbSymbolTableRecord
100
AcDbLinetypeTableRecord
  2
BYBLOCK
 70
     0
  3

 72
    65
 73
     0
 40
0.0
  0
LTYPE
  5
15
330
5
100
AcDbSymbolTableRecord
100
AcDbLinetypeTableRecord
  2
BYLAYER
 70
     0
  3

 72
    65
 73
     0
 40
0.0
  0
LTYPE
  5
16
330
5
100
AcDbSymbolTableRecord
100
AcDbLinetypeTableRecord
  2
CONTINUOUS
 70
     0
  3
Solid line
 72
    65
 73
     0
 40
0.0
  0
ENDTAB
  0
TABLE
  2
LAYER
  5
2
100
AcDbSymbolTable
 70
2
  0
LAYER
  5
50
100
AcDbSymbolTableRecord
100
AcDbLayerTableRecord
  2
0
 70
0
  6
CONTINUOUS
  0
LAYER
  5
51
100
AcDbSymbolTableRecord
100
AcDbLayerTableRecord
  2
KeepOutLayer
 70
0
  6
CONTINUOUS
  0
ENDTAB
  0
TABLE
  2
STYLE
  5
3
330
0
100
AcDbSymbolTable
 70
     1
  0
STYLE
  5
11
330
3
100
AcDbSymbolTableRecord
100
AcDbTextStyleTableRecord
  2
STANDARD
 70
     0
 40
0.0
 41
1.0
 50
0.0
 71
     0
 42
2.5
  3
txt
  4

  0
ENDTAB
  0
TABLE
  2
VIEW
  5
6
330
0
100
AcDbSymbolTable
 70
     0
  0
ENDTAB
  0
TABLE
  2
UCS
  5
7
330
0
100
AcDbSymbolTable
 70
     0
  0
ENDTAB
  0
TABLE
  2
APPID
  5
9
330
0
100
AcDbSymbolTable
 70
     2
  0
APPID
  5
12
330
9
100
AcDbSymbolTableRecord
100
AcDbRegAppTableRecord
  2
ACAD
 70
     0
  0
ENDTAB
  0
TABLE
  2
DIMSTYLE
  5
A
330
0
100
AcDbSymbolTable
 70
     1
  0
DIMSTYLE
105
27
330
A
100
AcDbSymbolTableRecord
100
AcDbDimStyleTableRecord
  2
ISO-25
 70
     0
  3

  4

  5

  6

  7

 40
1.0
 41
2.5
 42
0.625
 43
3.75
 44
1.25
 45
0.0
 46
0.0
 47
0.0
 48
0.0
140
2.5
141
2.5
142
0.0
143
0.03937007874016
144
1.0
145
0.0
146
1.0
147
0.625
 71
     0
 72
     0
 73
     0
 74
     0
 75
     0
 76
     0
 77
     1
 78
     8
170
     0
171
     3
172
     1
173
     0
174
     0
175
     0
176
     0
177
     0
178
     0
270
     2
271
     2
272
     2
273
     2
274
     3
340
11
275
     0
280
     0
281
     0
282
     0
283
     0
284
     8
285
     0
286
     0
287
     3
288
     0
  0
ENDTAB
  0
TABLE
  2
BLOCK_RECORD
  5
1
330
0
100
AcDbSymbolTable
 70
     1
  0
BLOCK_RECORD
  5
1F
330
1
100
AcDbSymbolTableRecord
100
AcDbBlockTableRecord
  2
*MODEL_SPACE
  0
BLOCK_RECORD
  5
1B
330
1
100
AcDbSymbolTableRecord
100
AcDbBlockTableRecord
  2
*PAPER_SPACE
  0
ENDTAB
  0
ENDSEC
  0
SECTION
  2
BLOCKS
  0
BLOCK
  5
20
330
1F
100
AcDbEntity
  8
0
100
AcDbBlockBegin
  2
*MODEL_SPACE
 70
     0
 10
0.0
 20
0.0
 30
0.0
  3
*MODEL_SPACE
  1

  0
ENDBLK
  5
21
330
1F
100
AcDbEntity
  8
0
100
AcDbBlockEnd
  0
BLOCK
  5
1C
330
1B
100
AcDbEntity
 67
     1
  8
0
100
AcDbBlockBegin
  2
*PAPER_SPACE
  1

  0
ENDBLK
  5
1D
330
1B
100
AcDbEntity
 67
     1
  8
0
100
AcDbBlockEnd
  0
ENDSEC
  0
SECTION
  2
ENTITIES
  0
LWPOLYLINE
  5
100
100
AcDbEntity
  8
KeepOutLayer
 62
6
100
AcDbPolyline
 90
72
 70
1
 10
-75.000149
 20
-55.750142
 30
0.0
 10
-44.263149
 20
-86.487132
 30
0.0
 10
-0.000292
 20
-86.487132
 30
0.0
 10
44.262709
 20
-86.487132
 30
0.0
 10
74.999689
 20
-55.750142
 30
0.0
 10
74.999694
 20
19.708865
 30
0.0
 10
73.946440
 20
20.272753
 30
0.0
 10
72.877465
 20
20.774456
 30
0.0
 10
71.794894
 20
21.214630
 30
0.0
 10
70.700849
 20
21.593930
 30
0.0
 10
69.597456
 20
21.913010
 30
0.0
 10
68.486839
 20
22.172528
 30
0.0
 10
67.371123
 20
22.373137
 30
0.0
 10
66.252431
 20
22.515493
 30
0.0
 10
65.132888
 20
22.600252
 30
0.0
 10
64.014619
 20
22.628068
 30
0.0
 10
62.899747
 20
22.599597
 30
0.0
 10
61.790397
 20
22.515494
 30
0.0
 10
60.688693
 20
22.376414
 30
0.0
 10
59.596760
 20
22.183013
 30
0.0
 10
58.516721
 20
21.935946
 30
0.0
 10
57.450702
 20
21.635869
 30
0.0
 10
56.400827
 20
21.283436
 30
0.0
 10
55.369219
 20
20.879302
 30
0.0
 10
54.358003
 20
20.424124
 30
0.0
 10
53.369304
 20
19.918556
 30
0.0
 10
52.405246
 20
19.363254
 30
0.0
 10
51.467953
 20
18.758873
 30
0.0
 10
50.559549
 20
18.106067
 30
0.0
 10
49.682159
 20
17.405493
 30
0.0
 10
48.837907
 20
16.657806
 30
0.0
 10
48.028918
 20
15.863661
 30
0.0
 10
47.257315
 20
15.023713
 30
0.0
 10
46.525223
 20
14.138618
 30
0.0
 10
45.834767
 20
13.209031
 30
0.0
 10
45.188070
 20
12.235606
 30
0.0
 10
44.587258
 20
11.219000
 30
0.0
 10
44.034453
 20
10.159868
 30
0.0
 10
-0.000241
 20
10.159868
 30
0.0
 10
-44.034086
 20
10.159868
 30
0.0
 10
-44.586860
 20
11.219174
 30
0.0
 10
-45.187652
 20
12.235945
 30
0.0
 10
-45.834336
 20
13.209525
 30
0.0
 10
-46.524788
 20
14.139259
 30
0.0
 10
-47.256882
 20
15.024491
 30
0.0
 10
-48.028495
 20
15.864566
 30
0.0
 10
-48.837501
 20
16.658829
 30
0.0
 10
-49.681776
 20
17.406623
 30
0.0
 10
-50.559195
 20
18.107295
 30
0.0
 10
-51.467633
 20
18.760187
 30
0.0
 10
-52.404965
 20
19.364645
 30
0.0
 10
-53.369067
 20
19.920014
 30
0.0
 10
-54.357814
 20
20.425638
 30
0.0
 10
-55.369082
 20
20.880862
 30
0.0
 10
-56.400744
 20
21.285029
 30
0.0
 10
-57.450678
 20
21.637486
 30
0.0
 10
-58.516757
 20
21.937576
 30
0.0
 10
-59.596858
 20
22.184644
 30
0.0
 10
-60.688855
 20
22.378035
 30
0.0
 10
-61.790624
 20
22.517093
 30
0.0
 10
-62.900040
 20
22.601162
 30
0.0
 10
-64.014978
 20
22.629589
 30
0.0
 10
-65.133314
 20
22.601716
 30
0.0
 10
-66.252923
 20
22.516888
 30
0.0
 10
-67.371680
 20
22.374451
 30
0.0
 10
-68.487460
 20
22.173749
 30
0.0
 10
-69.598138
 20
21.914126
 30
0.0
 10
-70.701591
 20
21.594927
 30
0.0
 10
-71.795692
 20
21.215496
 30
0.0
 10
-72.878318
 20
20.775179
 30
0.0
 10
-73.947343
 20
20.273320
 30
0.0
 10
-75.000644
 20
19.709262
 30
0.0
  0
ENDSEC
  0
SECTION
  2
OBJECTS
  0
DICTIONARY
  5
C
330
0
100
AcDbDictionary
  3
ACAD_GROUP
350
D
  3
ACAD_MLINESTYLE
350
17
  0
DICTIONARY
  5
D
330
C
100
AcDbDictionary
  0
DICTIONARY
  5
1A
330
C
100
AcDbDictionary
  0
DICTIONARY
  5
17
330
C
100
AcDbDictionary
  3
STANDARD
350
18
  0
DICTIONARY
  5
19
330
C
100
AcDbDictionary
  0
ENDSEC
  0
EOF
