  0
SECTION
  2
HEADER
  9
$ACADVER
  1
AC1014
  9
$HANDSEED
  5
FFFF
  9
$MEASUREMENT
 70
     1
  0
ENDSEC
  0
SECTION
  2
TABLES
  0
TABLE
  2
VPORT
  5
8
330
0
100
AcDbSymbolTable
 70
     4
  0
VPORT
  5
2E
330
8
100
AcDbSymbolTableRecord
100
AcDbViewportTableRecord
  2
*ACTIVE
 70
     0
 10
0.0
 20
0.0
 11
1.0
 21
1.0
 12
210.0
 22
148.5
 13
0.0
 23
0.0
 14
10.0
 24
10.0
 15
10.0
 25
10.0
 16
0.0
 26
0.0
 36
1.0
 17
0.0
 27
0.0
 37
0.0
 40
341.0
 41
1.24
 42
50.0
 43
0.0
 44
0.0
 50
0.0
 51
0.0
 71
     0
 72
   100
 73
     1
 74
     3
 75
     0
 76
     0
 77
     0
 78
     0
  0
ENDTAB
  0
TABLE
  2
LTYPE
  5
5
330
0
100
AcDbSymbolTable
 70
     1
  0
LTYPE
  5
14
330
5
100
AcDbSymbolTableRecord
100
AcDbLinetypeTableRecord
  2
BYBLOCK
 70
     0
  3

 72
    65
 73
     0
 40
0.0
  0
LTYPE
  5
15
330
5
100
AcDbSymbolTableRecord
100
AcDbLinetypeTableRecord
  2
BYLAYER
 70
     0
  3

 72
    65
 73
     0
 40
0.0
  0
LTYPE
  5
16
330
5
100
AcDbSymbolTableRecord
100
AcDbLinetypeTableRecord
  2
CONTINUOUS
 70
     0
  3
Solid line
 72
    65
 73
     0
 40
0.0
  0
ENDTAB
  0
TABLE
  2
LAYER
  5
2
100
AcDbSymbolTable
 70
3
  0
LAYER
  5
50
100
AcDbSymbolTableRecord
100
AcDbLayerTableRecord
  2
0
 70
0
  6
CONTINUOUS
  0
LAYER
  5
51
100
AcDbSymbolTableRecord
100
AcDbLayerTableRecord
  2
Mechanical11
 70
0
  6
CONTINUOUS
  0
LAYER
  5
52
100
AcDbSymbolTableRecord
100
AcDbLayerTableRecord
  2
Mechanical12
 70
0
  6
CONTINUOUS
  0
ENDTAB
  0
TABLE
  2
STYLE
  5
3
330
0
100
AcDbSymbolTable
 70
     1
  0
STYLE
  5
11
330
3
100
AcDbSymbolTableRecord
100
AcDbTextStyleTableRecord
  2
STANDARD
 70
     0
 40
0.0
 41
1.0
 50
0.0
 71
     0
 42
2.5
  3
txt
  4

  0
ENDTAB
  0
TABLE
  2
VIEW
  5
6
330
0
100
AcDbSymbolTable
 70
     0
  0
ENDTAB
  0
TABLE
  2
UCS
  5
7
330
0
100
AcDbSymbolTable
 70
     0
  0
ENDTAB
  0
TABLE
  2
APPID
  5
9
330
0
100
AcDbSymbolTable
 70
     2
  0
APPID
  5
12
330
9
100
AcDbSymbolTableRecord
100
AcDbRegAppTableRecord
  2
ACAD
 70
     0
  0
ENDTAB
  0
TABLE
  2
DIMSTYLE
  5
A
330
0
100
AcDbSymbolTable
 70
     1
  0
DIMSTYLE
105
27
330
A
100
AcDbSymbolTableRecord
100
AcDbDimStyleTableRecord
  2
ISO-25
 70
     0
  3

  4

  5

  6

  7

 40
1.0
 41
2.5
 42
0.625
 43
3.75
 44
1.25
 45
0.0
 46
0.0
 47
0.0
 48
0.0
140
2.5
141
2.5
142
0.0
143
0.03937007874016
144
1.0
145
0.0
146
1.0
147
0.625
 71
     0
 72
     0
 73
     0
 74
     0
 75
     0
 76
     0
 77
     1
 78
     8
170
     0
171
     3
172
     1
173
     0
174
     0
175
     0
176
     0
177
     0
178
     0
270
     2
271
     2
272
     2
273
     2
274
     3
340
11
275
     0
280
     0
281
     0
282
     0
283
     0
284
     8
285
     0
286
     0
287
     3
288
     0
  0
ENDTAB
  0
TABLE
  2
BLOCK_RECORD
  5
1
330
0
100
AcDbSymbolTable
 70
     1
  0
BLOCK_RECORD
  5
1F
330
1
100
AcDbSymbolTableRecord
100
AcDbBlockTableRecord
  2
*MODEL_SPACE
  0
BLOCK_RECORD
  5
1B
330
1
100
AcDbSymbolTableRecord
100
AcDbBlockTableRecord
  2
*PAPER_SPACE
  0
ENDTAB
  0
ENDSEC
  0
SECTION
  2
BLOCKS
  0
BLOCK
  5
20
330
1F
100
AcDbEntity
  8
0
100
AcDbBlockBegin
  2
*MODEL_SPACE
 70
     0
 10
0.0
 20
0.0
 30
0.0
  3
*MODEL_SPACE
  1

  0
ENDBLK
  5
21
330
1F
100
AcDbEntity
  8
0
100
AcDbBlockEnd
  0
BLOCK
  5
1C
330
1B
100
AcDbEntity
 67
     1
  8
0
100
AcDbBlockBegin
  2
*PAPER_SPACE
  1

  0
ENDBLK
  5
1D
330
1B
100
AcDbEntity
 67
     1
  8
0
100
AcDbBlockEnd
  0
ENDSEC
  0
SECTION
  2
ENTITIES
  0
LWPOLYLINE
  5
100
100
AcDbEntity
  8
Mechanical12
 62
7
100
AcDbPolyline
 90
79
 70
1
 10
-10.345622
 20
9.919335
 30
0.0
 10
-10.948980
 20
9.849353
 30
0.0
 10
-11.509219
 20
9.666261
 30
0.0
 10
-12.014469
 20
9.382284
 30
0.0
 10
-12.452861
 20
9.009618
 30
0.0
 10
-12.812528
 20
8.560488
 30
0.0
 10
-13.081599
 20
8.047143
 30
0.0
 10
-13.248206
 20
7.481782
 30
0.0
 10
-13.300480
 20
6.876627
 30
0.0
 10
-13.300480
 20
-8.206184
 30
0.0
 10
-30.493229
 20
-25.398412
 30
0.0
 10
-30.789917
 20
-25.657466
 30
0.0
 10
-31.049092
 20
-25.951815
 30
0.0
 10
-31.267659
 20
-26.277438
 30
0.0
 10
-31.442525
 20
-26.630365
 30
0.0
 10
-31.484901
 20
-26.728552
 30
0.0
 10
-31.491092
 20
-26.745486
 30
0.0
 10
-31.609861
 20
-27.111986
 30
0.0
 10
-31.680494
 20
-27.489124
 30
0.0
 10
-31.702428
 20
-27.872214
 30
0.0
 10
-31.675070
 20
-28.256495
 30
0.0
 10
-31.675070
 20
-47.463604
 30
0.0
 10
-45.070117
 20
-68.918085
 30
0.0
 10
-45.412067
 20
-69.448627
 30
0.0
 10
-45.635458
 20
-70.038965
 30
0.0
 10
-45.743836
 20
-70.629119
 30
0.0
 10
-45.732618
 20
-71.229061
 30
0.0
 10
-45.732618
 20
-82.789607
 30
0.0
 10
-45.710710
 20
-83.190477
 30
0.0
 10
-45.636775
 20
-83.579705
 30
0.0
 10
-45.513363
 20
-83.952794
 30
0.0
 10
-45.343019
 20
-84.305193
 30
0.0
 10
-45.128288
 20
-84.632482
 30
0.0
 10
-44.871722
 20
-84.930112
 30
0.0
 10
-44.575868
 20
-85.193611
 30
0.0
 10
-44.243268
 20
-85.418480
 30
0.0
 10
-43.883673
 20
-85.597021
 30
0.0
 10
-43.508575
 20
-85.724550
 30
0.0
 10
-43.123144
 20
-85.801068
 30
0.0
 10
-42.732545
 20
-85.826468
 30
0.0
 10
-42.341946
 20
-85.801068
 30
0.0
 10
-41.956514
 20
-85.724550
 30
0.0
 10
-41.581417
 20
-85.597021
 30
0.0
 10
-41.221821
 20
-85.418480
 30
0.0
 10
-40.889222
 20
-85.193611
 30
0.0
 10
-40.593367
 20
-84.930112
 30
0.0
 10
-40.336801
 20
-84.632482
 30
0.0
 10
-40.122070
 20
-84.305193
 30
0.0
 10
-39.951726
 20
-83.952794
 30
0.0
 10
-39.828314
 20
-83.579705
 30
0.0
 10
-39.754379
 20
-83.190477
 30
0.0
 10
-39.732471
 20
-82.789607
 30
0.0
 10
-39.732471
 20
-71.697268
 30
0.0
 10
-26.335873
 20
-50.240168
 30
0.0
 10
-25.994045
 20
-49.708858
 30
0.0
 10
-25.771050
 20
-49.117753
 30
0.0
 10
-25.663191
 20
-48.526224
 30
0.0
 10
-25.675449
 20
-47.925064
 30
0.0
 10
-25.675449
 20
-29.065749
 30
0.0
 10
-8.482700
 20
-11.873521
 30
0.0
 10
-8.185118
 20
-11.613700
 30
0.0
 10
-7.925284
 20
-11.318372
 30
0.0
 10
-7.706317
 20
-10.991585
 30
0.0
 10
-7.531337
 20
-10.637414
 30
0.0
 10
-7.491029
 20
-10.543355
 30
0.0
 10
-7.484828
 20
-10.525892
 30
0.0
 10
-7.366280
 20
-10.160291
 30
0.0
 10
-7.295635
 20
-9.784054
 30
0.0
 10
-7.273465
 20
-9.401916
 30
0.0
 10
-7.300343
 20
-9.018508
 30
0.0
 10
-7.300343
 20
6.876653
 30
0.0
 10
-7.352192
 20
7.476464
 30
0.0
 10
-7.520553
 20
8.048387
 30
0.0
 10
-7.798650
 20
8.575728
 30
0.0
 10
-8.179707
 20
9.041844
 30
0.0
 10
-8.646131
 20
9.422500
 30
0.0
 10
-9.173721
 20
9.700154
 30
0.0
 10
-9.745786
 20
9.868032
 30
0.0
 10
-10.345635
 20
9.919361
 30
0.0
  0
LWPOLYLINE
  5
101
100
AcDbEntity
  8
Mechanical12
 62
7
100
AcDbPolyline
 90
80
 70
1
 10
10.254649
 20
9.919335
 30
0.0
 10
9.651291
 20
9.849353
 30
0.0
 10
9.091052
 20
9.666261
 30
0.0
 10
8.585802
 20
9.382284
 30
0.0
 10
8.147409
 20
9.009618
 30
0.0
 10
7.787743
 20
8.560488
 30
0.0
 10
7.518672
 20
8.047143
 30
0.0
 10
7.352065
 20
7.481782
 30
0.0
 10
7.299791
 20
6.876627
 30
0.0
 10
7.299791
 20
-9.017503
 30
0.0
 10
7.272989
 20
-9.410330
 30
0.0
 10
7.297645
 20
-9.801622
 30
0.0
 10
7.373113
 20
-10.186352
 30
0.0
 10
7.498745
 20
-10.559521
 30
0.0
 10
7.541119
 20
-10.665460
 30
0.0
 10
7.543712
 20
-10.671281
 30
0.0
 10
7.718583
 20
-11.015504
 30
0.0
 10
7.935239
 20
-11.333162
 30
0.0
 10
8.190743
 20
-11.620526
 30
0.0
 10
8.482156
 20
-11.873786
 30
0.0
 10
25.674905
 20
-29.066014
 30
0.0
 10
25.674905
 20
-47.936706
 30
0.0
 10
25.666616
 20
-48.568107
 30
0.0
 10
25.790660
 20
-49.187259
 30
0.0
 10
26.012688
 20
-49.747091
 30
0.0
 10
26.342047
 20
-50.251281
 30
0.0
 10
39.731926
 20
-71.697532
 30
0.0
 10
39.731926
 20
-82.789871
 30
0.0
 10
39.753834
 20
-83.190768
 30
0.0
 10
39.827758
 20
-83.579996
 30
0.0
 10
39.951163
 20
-83.953085
 30
0.0
 10
40.121504
 20
-84.305510
 30
0.0
 10
40.336229
 20
-84.632800
 30
0.0
 10
40.592796
 20
-84.930456
 30
0.0
 10
40.888655
 20
-85.193955
 30
0.0
 10
41.221258
 20
-85.418824
 30
0.0
 10
41.580858
 20
-85.597391
 30
0.0
 10
41.955963
 20
-85.724921
 30
0.0
 10
42.341403
 20
-85.801438
 30
0.0
 10
42.732013
 20
-85.826838
 30
0.0
 10
43.122620
 20
-85.801438
 30
0.0
 10
43.508062
 20
-85.724921
 30
0.0
 10
43.883167
 20
-85.597391
 30
0.0
 10
44.242768
 20
-85.418824
 30
0.0
 10
44.575370
 20
-85.193955
 30
0.0
 10
44.871230
 20
-84.930456
 30
0.0
 10
45.127794
 20
-84.632800
 30
0.0
 10
45.342522
 20
-84.305510
 30
0.0
 10
45.512860
 20
-83.953085
 30
0.0
 10
45.636267
 20
-83.579996
 30
0.0
 10
45.710192
 20
-83.190768
 30
0.0
 10
45.732099
 20
-82.789871
 30
0.0
 10
45.732099
 20
-71.221574
 30
0.0
 10
45.740196
 20
-70.593611
 30
0.0
 10
45.617387
 20
-69.977741
 30
0.0
 10
45.394949
 20
-69.415925
 30
0.0
 10
45.064450
 20
-68.910094
 30
0.0
 10
31.674567
 20
-47.463869
 30
0.0
 10
31.674567
 20
-28.255727
 30
0.0
 10
31.701528
 20
-27.862504
 30
0.0
 10
31.676922
 20
-27.470814
 30
0.0
 10
31.601402
 20
-27.085687
 30
0.0
 10
31.475614
 20
-26.712148
 30
0.0
 10
31.433238
 20
-26.606209
 30
0.0
 10
31.432180
 20
-26.603563
 30
0.0
 10
31.430592
 20
-26.600388
 30
0.0
 10
31.255721
 20
-26.256165
 30
0.0
 10
31.039067
 20
-25.938506
 30
0.0
 10
30.783562
 20
-25.651142
 30
0.0
 10
30.492147
 20
-25.397883
 30
0.0
 10
13.299918
 20
-8.206184
 30
0.0
 10
13.299918
 20
6.876627
 30
0.0
 10
13.248069
 20
7.476437
 30
0.0
 10
13.079708
 20
8.048360
 30
0.0
 10
12.801611
 20
8.575701
 30
0.0
 10
12.420554
 20
9.041818
 30
0.0
 10
11.954130
 20
9.422474
 30
0.0
 10
11.426540
 20
9.700128
 30
0.0
 10
10.854474
 20
9.868006
 30
0.0
 10
10.254625
 20
9.919335
 30
0.0
  0
ENDSEC
  0
SECTION
  2
OBJECTS
  0
DICTIONARY
  5
C
330
0
100
AcDbDictionary
  3
ACAD_GROUP
350
D
  3
ACAD_MLINESTYLE
350
17
  0
DICTIONARY
  5
D
330
C
100
AcDbDictionary
  0
DICTIONARY
  5
1A
330
C
100
AcDbDictionary
  0
DICTIONARY
  5
17
330
C
100
AcDbDictionary
  3
STANDARD
350
18
  0
DICTIONARY
  5
19
330
C
100
AcDbDictionary
  0
ENDSEC
  0
EOF
