  0
SECTION
  2
HEADER
  9
$ACADVER
  1
AC1014
  9
$HANDSEED
  5
FFFF
  9
$MEASUREMENT
 70
     1
  0
ENDSEC
  0
SECTION
  2
TABLES
  0
TABLE
  2
VPORT
  5
8
330
0
100
AcDbSymbolTable
 70
     4
  0
VPORT
  5
2E
330
8
100
AcDbSymbolTableRecord
100
AcDbViewportTableRecord
  2
*ACTIVE
 70
     0
 10
0.0
 20
0.0
 11
1.0
 21
1.0
 12
210.0
 22
148.5
 13
0.0
 23
0.0
 14
10.0
 24
10.0
 15
10.0
 25
10.0
 16
0.0
 26
0.0
 36
1.0
 17
0.0
 27
0.0
 37
0.0
 40
341.0
 41
1.24
 42
50.0
 43
0.0
 44
0.0
 50
0.0
 51
0.0
 71
     0
 72
   100
 73
     1
 74
     3
 75
     0
 76
     0
 77
     0
 78
     0
  0
ENDTAB
  0
TABLE
  2
LTYPE
  5
5
330
0
100
AcDbSymbolTable
 70
     1
  0
LTYPE
  5
14
330
5
100
AcDbSymbolTableRecord
100
AcDbLinetypeTableRecord
  2
BYBLOCK
 70
     0
  3

 72
    65
 73
     0
 40
0.0
  0
LTYPE
  5
15
330
5
100
AcDbSymbolTableRecord
100
AcDbLinetypeTableRecord
  2
BYLAYER
 70
     0
  3

 72
    65
 73
     0
 40
0.0
  0
LTYPE
  5
16
330
5
100
AcDbSymbolTableRecord
100
AcDbLinetypeTableRecord
  2
CONTINUOUS
 70
     0
  3
Solid line
 72
    65
 73
     0
 40
0.0
  0
ENDTAB
  0
TABLE
  2
LAYER
  5
2
100
AcDbSymbolTable
 70
3
  0
LAYER
  5
50
100
AcDbSymbolTableRecord
100
AcDbLayerTableRecord
  2
0
 70
0
  6
CONTINUOUS
  0
LAYER
  5
51
100
AcDbSymbolTableRecord
100
AcDbLayerTableRecord
  2
Mechanical11
 70
0
  6
CONTINUOUS
  0
LAYER
  5
52
100
AcDbSymbolTableRecord
100
AcDbLayerTableRecord
  2
Mechanical12
 70
0
  6
CONTINUOUS
  0
ENDTAB
  0
TABLE
  2
STYLE
  5
3
330
0
100
AcDbSymbolTable
 70
     1
  0
STYLE
  5
11
330
3
100
AcDbSymbolTableRecord
100
AcDbTextStyleTableRecord
  2
STANDARD
 70
     0
 40
0.0
 41
1.0
 50
0.0
 71
     0
 42
2.5
  3
txt
  4

  0
ENDTAB
  0
TABLE
  2
VIEW
  5
6
330
0
100
AcDbSymbolTable
 70
     0
  0
ENDTAB
  0
TABLE
  2
UCS
  5
7
330
0
100
AcDbSymbolTable
 70
     0
  0
ENDTAB
  0
TABLE
  2
APPID
  5
9
330
0
100
AcDbSymbolTable
 70
     2
  0
APPID
  5
12
330
9
100
AcDbSymbolTableRecord
100
AcDbRegAppTableRecord
  2
ACAD
 70
     0
  0
ENDTAB
  0
TABLE
  2
DIMSTYLE
  5
A
330
0
100
AcDbSymbolTable
 70
     1
  0
DIMSTYLE
105
27
330
A
100
AcDbSymbolTableRecord
100
AcDbDimStyleTableRecord
  2
ISO-25
 70
     0
  3

  4

  5

  6

  7

 40
1.0
 41
2.5
 42
0.625
 43
3.75
 44
1.25
 45
0.0
 46
0.0
 47
0.0
 48
0.0
140
2.5
141
2.5
142
0.0
143
0.03937007874016
144
1.0
145
0.0
146
1.0
147
0.625
 71
     0
 72
     0
 73
     0
 74
     0
 75
     0
 76
     0
 77
     1
 78
     8
170
     0
171
     3
172
     1
173
     0
174
     0
175
     0
176
     0
177
     0
178
     0
270
     2
271
     2
272
     2
273
     2
274
     3
340
11
275
     0
280
     0
281
     0
282
     0
283
     0
284
     8
285
     0
286
     0
287
     3
288
     0
  0
ENDTAB
  0
TABLE
  2
BLOCK_RECORD
  5
1
330
0
100
AcDbSymbolTable
 70
     1
  0
BLOCK_RECORD
  5
1F
330
1
100
AcDbSymbolTableRecord
100
AcDbBlockTableRecord
  2
*MODEL_SPACE
  0
BLOCK_RECORD
  5
1B
330
1
100
AcDbSymbolTableRecord
100
AcDbBlockTableRecord
  2
*PAPER_SPACE
  0
ENDTAB
  0
ENDSEC
  0
SECTION
  2
BLOCKS
  0
BLOCK
  5
20
330
1F
100
AcDbEntity
  8
0
100
AcDbBlockBegin
  2
*MODEL_SPACE
 70
     0
 10
0.0
 20
0.0
 30
0.0
  3
*MODEL_SPACE
  1

  0
ENDBLK
  5
21
330
1F
100
AcDbEntity
  8
0
100
AcDbBlockEnd
  0
BLOCK
  5
1C
330
1B
100
AcDbEntity
 67
     1
  8
0
100
AcDbBlockBegin
  2
*PAPER_SPACE
  1

  0
ENDBLK
  5
1D
330
1B
100
AcDbEntity
 67
     1
  8
0
100
AcDbBlockEnd
  0
ENDSEC
  0
SECTION
  2
ENTITIES
  0
LWPOLYLINE
  5
100
100
AcDbEntity
  8
Mechanical11
 62
7
100
AcDbPolyline
 90
162
 70
1
 10
-12.370304
 20
10.069195
 30
0.0
 10
-12.973663
 20
9.999219
 30
0.0
 10
-13.533902
 20
9.816125
 30
0.0
 10
-14.039152
 20
9.532134
 30
0.0
 10
-14.477544
 20
9.159467
 30
0.0
 10
-14.837210
 20
8.710348
 30
0.0
 10
-15.106281
 20
8.196997
 30
0.0
 10
-15.272888
 20
7.631636
 30
0.0
 10
-15.325163
 20
7.026487
 30
0.0
 10
-15.325163
 20
-10.491311
 30
0.0
 10
-15.352068
 20
-10.884398
 30
0.0
 10
-15.327445
 20
-11.275957
 30
0.0
 10
-15.251942
 20
-11.660956
 30
0.0
 10
-15.126209
 20
-12.034361
 30
0.0
 10
-15.083834
 20
-12.140300
 30
0.0
 10
-15.081241
 20
-12.146121
 30
0.0
 10
-14.906152
 20
-12.490865
 30
0.0
 10
-14.689155
 20
-12.808978
 30
0.0
 10
-14.433203
 20
-13.096679
 30
0.0
 10
-14.141247
 20
-13.350187
 30
0.0
 10
-3.000325
 20
-24.491103
 30
0.0
 10
-3.000325
 20
-51.173195
 30
0.0
 10
-31.640963
 20
-51.173195
 30
0.0
 10
-32.126877
 20
-51.138503
 30
0.0
 10
-32.608897
 20
-51.182374
 30
0.0
 10
-33.077593
 20
-51.303173
 30
0.0
 10
-33.523534
 20
-51.499267
 30
0.0
 10
-33.640324
 20
-51.562820
 30
0.0
 10
-33.681149
 20
-51.586633
 30
0.0
 10
-34.064535
 20
-51.853330
 30
0.0
 10
-34.400032
 20
-52.174226
 30
0.0
 10
-34.682012
 20
-52.543035
 30
0.0
 10
-34.904847
 20
-52.953470
 30
0.0
 10
-45.055131
 20
-68.900807
 30
0.0
 10
-45.398765
 20
-69.424558
 30
0.0
 10
-45.626155
 20
-70.008247
 30
0.0
 10
-45.743430
 20
-70.618169
 30
0.0
 10
-45.732610
 20
-71.239168
 30
0.0
 10
-45.732610
 20
-82.789898
 30
0.0
 10
-45.710701
 20
-83.190779
 30
0.0
 10
-45.636766
 20
-83.580003
 30
0.0
 10
-45.513352
 20
-83.953074
 30
0.0
 10
-45.343007
 20
-84.305496
 30
0.0
 10
-45.128278
 20
-84.632773
 30
0.0
 10
-44.871712
 20
-84.930408
 30
0.0
 10
-44.575856
 20
-85.193906
 30
0.0
 10
-44.243258
 20
-85.418771
 30
0.0
 10
-43.883663
 20
-85.597313
 30
0.0
 10
-43.508566
 20
-85.724844
 30
0.0
 10
-43.123134
 20
-85.801362
 30
0.0
 10
-42.732534
 20
-85.826868
 30
0.0
 10
-42.341934
 20
-85.801362
 30
0.0
 10
-41.956502
 20
-85.724844
 30
0.0
 10
-41.581405
 20
-85.597313
 30
0.0
 10
-41.221810
 20
-85.418771
 30
0.0
 10
-40.889212
 20
-85.193906
 30
0.0
 10
-40.593356
 20
-84.930408
 30
0.0
 10
-40.336790
 20
-84.632773
 30
0.0
 10
-40.122061
 20
-84.305496
 30
0.0
 10
-39.951716
 20
-83.953074
 30
0.0
 10
-39.828302
 20
-83.580003
 30
0.0
 10
-39.754367
 20
-83.190779
 30
0.0
 10
-39.732458
 20
-82.789898
 30
0.0
 10
-39.732458
 20
-71.711502
 30
0.0
 10
-30.478759
 20
-57.173363
 30
0.0
 10
-0.490926
 20
-57.173363
 30
0.0
 10
-0.004909
 20
-57.212989
 30
0.0
 10
0.481108
 20
-57.173363
 30
0.0
 10
30.478243
 20
-57.173363
 30
0.0
 10
39.731942
 20
-71.711502
 30
0.0
 10
39.731942
 20
-82.789898
 30
0.0
 10
39.753838
 20
-83.190789
 30
0.0
 10
39.827762
 20
-83.580024
 30
0.0
 10
39.951168
 20
-83.953107
 30
0.0
 10
40.121508
 20
-84.305542
 30
0.0
 10
40.336234
 20
-84.632831
 30
0.0
 10
40.592801
 20
-84.930478
 30
0.0
 10
40.888659
 20
-85.193986
 30
0.0
 10
41.221262
 20
-85.418860
 30
0.0
 10
41.580863
 20
-85.597411
 30
0.0
 10
41.955968
 20
-85.724947
 30
0.0
 10
42.341408
 20
-85.801469
 30
0.0
 10
42.732017
 20
-85.826976
 30
0.0
 10
43.122625
 20
-85.801469
 30
0.0
 10
43.508066
 20
-85.724947
 30
0.0
 10
43.883170
 20
-85.597411
 30
0.0
 10
44.242771
 20
-85.418860
 30
0.0
 10
44.575375
 20
-85.193986
 30
0.0
 10
44.871233
 20
-84.930478
 30
0.0
 10
45.127799
 20
-84.632831
 30
0.0
 10
45.342526
 20
-84.305542
 30
0.0
 10
45.512866
 20
-83.953107
 30
0.0
 10
45.636271
 20
-83.580024
 30
0.0
 10
45.710196
 20
-83.190789
 30
0.0
 10
45.732091
 20
-82.789898
 30
0.0
 10
45.732091
 20
-71.218002
 30
0.0
 10
45.740308
 20
-70.607108
 30
0.0
 10
45.624604
 20
-70.007215
 30
0.0
 10
45.394250
 20
-69.414835
 30
0.0
 10
45.044278
 20
-68.884271
 30
0.0
 10
34.915181
 20
-52.970007
 30
0.0
 10
34.683336
 20
-52.541454
 30
0.0
 10
34.387299
 20
-52.158413
 30
0.0
 10
34.033517
 20
-51.827963
 30
0.0
 10
33.628438
 20
-51.557185
 30
0.0
 10
33.521467
 20
-51.497733
 30
0.0
 10
33.466691
 20
-51.469846
 30
0.0
 10
33.036799
 20
-51.290616
 30
0.0
 10
32.587068
 20
-51.180531
 30
0.0
 10
32.125754
 20
-51.140947
 30
0.0
 10
31.661116
 20
-51.173221
 30
0.0
 10
2.999817
 20
-51.173221
 30
0.0
 10
2.999817
 20
-24.490971
 30
0.0
 10
14.141773
 20
-13.349023
 30
0.0
 10
14.437974
 20
-13.090474
 30
0.0
 10
14.696805
 20
-12.796731
 30
0.0
 10
14.915185
 20
-12.471788
 30
0.0
 10
15.090035
 20
-12.119636
 30
0.0
 10
15.136544
 20
-12.011634
 30
0.0
 10
15.137073
 20
-12.011634
 30
0.0
 10
15.137602
 20
-12.008988
 30
0.0
 10
15.257915
 20
-11.640786
 30
0.0
 10
15.329590
 20
-11.261734
 30
0.0
 10
15.352039
 20
-10.876618
 30
0.0
 10
15.324671
 20
-10.490226
 30
0.0
 10
15.324671
 20
7.026540
 30
0.0
 10
15.304885
 20
7.429026
 30
0.0
 10
15.232632
 20
7.820025
 30
0.0
 10
15.110469
 20
8.194981
 30
0.0
 10
14.940954
 20
8.549340
 30
0.0
 10
14.726644
 20
8.878547
 30
0.0
 10
14.470097
 20
9.178046
 30
0.0
 10
14.173871
 20
9.443283
 30
0.0
 10
13.840522
 20
9.669702
 30
0.0
 10
13.479889
 20
9.849508
 30
0.0
 10
13.103583
 20
9.977941
 30
0.0
 10
12.716831
 20
10.055001
 30
0.0
 10
12.324854
 20
10.080688
 30
0.0
 10
11.932877
 20
10.055001
 30
0.0
 10
11.546124
 20
9.977941
 30
0.0
 10
11.169819
 20
9.849508
 30
0.0
 10
10.809185
 20
9.669702
 30
0.0
 10
10.475837
 20
9.443283
 30
0.0
 10
10.179611
 20
9.178046
 30
0.0
 10
9.923064
 20
8.878547
 30
0.0
 10
9.708754
 20
8.549340
 30
0.0
 10
9.539239
 20
8.194981
 30
0.0
 10
9.417076
 20
7.820025
 30
0.0
 10
9.344823
 20
7.429026
 30
0.0
 10
9.325037
 20
7.026540
 30
0.0
 10
9.325037
 20
-9.680443
 30
0.0
 10
0.000000
 20
-19.005524
 30
0.0
 10
-9.325529
 20
-9.680496
 30
0.0
 10
-9.325529
 20
7.026487
 30
0.0
 10
-9.377367
 20
7.626226
 30
0.0
 10
-9.545692
 20
8.198092
 30
0.0
 10
-9.823732
 20
8.725404
 30
0.0
 10
-10.204713
 20
9.191482
 30
0.0
 10
-10.671049
 20
9.572146
 30
0.0
 10
-11.198550
 20
9.849828
 30
0.0
 10
-11.770529
 20
10.017765
 30
0.0
 10
-12.370304
 20
10.069195
 30
0.0
  0
ENDSEC
  0
SECTION
  2
OBJECTS
  0
DICTIONARY
  5
C
330
0
100
AcDbDictionary
  3
ACAD_GROUP
350
D
  3
ACAD_MLINESTYLE
350
17
  0
DICTIONARY
  5
D
330
C
100
AcDbDictionary
  0
DICTIONARY
  5
1A
330
C
100
AcDbDictionary
  0
DICTIONARY
  5
17
330
C
100
AcDbDictionary
  3
STANDARD
350
18
  0
DICTIONARY
  5
19
330
C
100
AcDbDictionary
  0
ENDSEC
  0
EOF
