  0
SECTION
  2
HEADER
  9
$ACADVER
  1
AC1014
  9
$HANDSEED
  5
FFFF
  9
$MEASUREMENT
 70
     1
  0
ENDSEC
  0
SECTION
  2
TABLES
  0
TABLE
  2
VPORT
  5
8
330
0
100
AcDbSymbolTable
 70
     4
  0
VPORT
  5
2E
330
8
100
AcDbSymbolTableRecord
100
AcDbViewportTableRecord
  2
*ACTIVE
 70
     0
 10
0.0
 20
0.0
 11
1.0
 21
1.0
 12
210.0
 22
148.5
 13
0.0
 23
0.0
 14
10.0
 24
10.0
 15
10.0
 25
10.0
 16
0.0
 26
0.0
 36
1.0
 17
0.0
 27
0.0
 37
0.0
 40
341.0
 41
1.24
 42
50.0
 43
0.0
 44
0.0
 50
0.0
 51
0.0
 71
     0
 72
   100
 73
     1
 74
     3
 75
     0
 76
     0
 77
     0
 78
     0
  0
ENDTAB
  0
TABLE
  2
LTYPE
  5
5
330
0
100
AcDbSymbolTable
 70
     1
  0
LTYPE
  5
14
330
5
100
AcDbSymbolTableRecord
100
AcDbLinetypeTableRecord
  2
BYBLOCK
 70
     0
  3

 72
    65
 73
     0
 40
0.0
  0
LTYPE
  5
15
330
5
100
AcDbSymbolTableRecord
100
AcDbLinetypeTableRecord
  2
BYLAYER
 70
     0
  3

 72
    65
 73
     0
 40
0.0
  0
LTYPE
  5
16
330
5
100
AcDbSymbolTableRecord
100
AcDbLinetypeTableRecord
  2
CONTINUOUS
 70
     0
  3
Solid line
 72
    65
 73
     0
 40
0.0
  0
ENDTAB
  0
TABLE
  2
LAYER
  5
2
100
AcDbSymbolTable
 70
16
  0
LAYER
  5
50
100
AcDbSymbolTableRecord
100
AcDbLayerTableRecord
  2
0
 70
0
  6
CONTINUOUS
  0
LAYER
  5
51
100
AcDbSymbolTableRecord
100
AcDbLayerTableRecord
  2
Polygons
 70
0
  6
CONTINUOUS
  0
LAYER
  5
52
100
AcDbSymbolTableRecord
100
AcDbLayerTableRecord
  2
TopLine
 70
0
  6
CONTINUOUS
  0
LAYER
  5
53
100
AcDbSymbolTableRecord
100
AcDbLayerTableRecord
  2
SideLine
 70
0
  6
CONTINUOUS
  0
LAYER
  5
54
100
AcDbSymbolTableRecord
100
AcDbLayerTableRecord
  2
Buttons
 70
0
  6
CONTINUOUS
  0
LAYER
  5
55
100
AcDbSymbolTableRecord
100
AcDbLayerTableRecord
  2
ArcTicBig
 70
0
  6
CONTINUOUS
  0
LAYER
  5
56
100
AcDbSymbolTableRecord
100
AcDbLayerTableRecord
  2
ArcTicSmall
 70
0
  6
CONTINUOUS
  0
LAYER
  5
57
100
AcDbSymbolTableRecord
100
AcDbLayerTableRecord
  2
ArcTicSmallest
 70
0
  6
CONTINUOUS
  0
LAYER
  5
58
100
AcDbSymbolTableRecord
100
AcDbLayerTableRecord
  2
ArcBig
 70
0
  6
CONTINUOUS
  0
LAYER
  5
59
100
AcDbSymbolTableRecord
100
AcDbLayerTableRecord
  2
ArcSmall
 70
0
  6
CONTINUOUS
  0
LAYER
  5
5a
100
AcDbSymbolTableRecord
100
AcDbLayerTableRecord
  2
BottomBar
 70
0
  6
CONTINUOUS
  0
LAYER
  5
5b
100
AcDbSymbolTableRecord
100
AcDbLayerTableRecord
  2
Perspective
 70
0
  6
CONTINUOUS
  0
LAYER
  5
5c
100
AcDbSymbolTableRecord
100
AcDbLayerTableRecord
  2
HugeText
 70
0
  6
CONTINUOUS
  0
LAYER
  5
5d
100
AcDbSymbolTableRecord
100
AcDbLayerTableRecord
  2
BigText
 70
0
  6
CONTINUOUS
  0
LAYER
  5
5e
100
AcDbSymbolTableRecord
100
AcDbLayerTableRecord
  2
SmallText
 70
0
  6
CONTINUOUS
  0
LAYER
  5
5f
100
AcDbSymbolTableRecord
100
AcDbLayerTableRecord
  2
Merged
 70
0
  6
CONTINUOUS
  0
ENDTAB
  0
TABLE
  2
STYLE
  5
3
330
0
100
AcDbSymbolTable
 70
     1
  0
STYLE
  5
11
330
3
100
AcDbSymbolTableRecord
100
AcDbTextStyleTableRecord
  2
STANDARD
 70
     0
 40
0.0
 41
1.0
 50
0.0
 71
     0
 42
2.5
  3
txt
  4

  0
ENDTAB
  0
TABLE
  2
VIEW
  5
6
330
0
100
AcDbSymbolTable
 70
     0
  0
ENDTAB
  0
TABLE
  2
UCS
  5
7
330
0
100
AcDbSymbolTable
 70
     0
  0
ENDTAB
  0
TABLE
  2
APPID
  5
9
330
0
100
AcDbSymbolTable
 70
     2
  0
APPID
  5
12
330
9
100
AcDbSymbolTableRecord
100
AcDbRegAppTableRecord
  2
ACAD
 70
     0
  0
ENDTAB
  0
TABLE
  2
DIMSTYLE
  5
A
330
0
100
AcDbSymbolTable
 70
     1
  0
DIMSTYLE
105
27
330
A
100
AcDbSymbolTableRecord
100
AcDbDimStyleTableRecord
  2
ISO-25
 70
     0
  3

  4

  5

  6

  7

 40
1.0
 41
2.5
 42
0.625
 43
3.75
 44
1.25
 45
0.0
 46
0.0
 47
0.0
 48
0.0
140
2.5
141
2.5
142
0.0
143
0.03937007874016
144
1.0
145
0.0
146
1.0
147
0.625
 71
     0
 72
     0
 73
     0
 74
     0
 75
     0
 76
     0
 77
     1
 78
     8
170
     0
171
     3
172
     1
173
     0
174
     0
175
     0
176
     0
177
     0
178
     0
270
     2
271
     2
272
     2
273
     2
274
     3
340
11
275
     0
280
     0
281
     0
282
     0
283
     0
284
     8
285
     0
286
     0
287
     3
288
     0
  0
ENDTAB
  0
TABLE
  2
BLOCK_RECORD
  5
1
330
0
100
AcDbSymbolTable
 70
     1
  0
BLOCK_RECORD
  5
1F
330
1
100
AcDbSymbolTableRecord
100
AcDbBlockTableRecord
  2
*MODEL_SPACE
  0
BLOCK_RECORD
  5
1B
330
1
100
AcDbSymbolTableRecord
100
AcDbBlockTableRecord
  2
*PAPER_SPACE
  0
ENDTAB
  0
ENDSEC
  0
SECTION
  2
BLOCKS
  0
BLOCK
  5
20
330
1F
100
AcDbEntity
  8
0
100
AcDbBlockBegin
  2
*MODEL_SPACE
 70
     0
 10
0.0
 20
0.0
 30
0.0
  3
*MODEL_SPACE
  1

  0
ENDBLK
  5
21
330
1F
100
AcDbEntity
  8
0
100
AcDbBlockEnd
  0
BLOCK
  5
1C
330
1B
100
AcDbEntity
 67
     1
  8
0
100
AcDbBlockBegin
  2
*PAPER_SPACE
  1

  0
ENDBLK
  5
1D
330
1B
100
AcDbEntity
 67
     1
  8
0
100
AcDbBlockEnd
  0
ENDSEC
  0
SECTION
  2
ENTITIES
  0
LWPOLYLINE
  5
100
100
AcDbEntity
  8
Merged
 62
7
100
AcDbPolyline
 90
403
 70
1
 10
-26.014433
 20
9.930183
 30
0.0
 10
-26.153959
 20
9.893485
 30
0.0
 10
-26.259896
 20
9.796357
 30
0.0
 10
-28.412220
 20
6.651837
 30
0.0
 10
-36.559008
 20
6.651837
 30
0.0
 10
-38.550101
 20
9.676447
 30
0.0
 10
-43.550313
 20
9.676447
 30
0.0
 10
-41.123587
 20
6.651837
 30
0.0
 10
-43.272295
 20
6.651837
 30
0.0
 10
-43.733249
 20
8.019203
 30
0.0
 10
-44.289803
 20
9.365880
 30
0.0
 10
-44.375586
 20
9.501267
 30
0.0
 10
-44.494958
 20
9.603581
 30
0.0
 10
-44.639135
 20
9.666129
 30
0.0
 10
-44.798816
 20
9.683697
 30
0.0
 10
-45.047379
 20
9.609799
 30
0.0
 10
-45.231346
 20
9.427369
 30
0.0
 10
-45.307311
 20
9.179851
 30
0.0
 10
-45.257186
 20
8.925586
 30
0.0
 10
-44.646371
 20
7.430611
 30
0.0
 10
-44.159577
 20
5.909760
 30
0.0
 10
-43.794225
 20
4.369805
 30
0.0
 10
-43.550829
 20
2.816939
 30
0.0
 10
-43.426290
 20
1.258888
 30
0.0
 10
-43.420607
 20
-0.298133
 30
0.0
 10
-43.532227
 20
-1.847400
 30
0.0
 10
-43.760120
 20
-3.381666
 30
0.0
 10
-44.102218
 20
-4.894739
 30
0.0
 10
-44.558003
 20
-6.379924
 30
0.0
 10
-45.125410
 20
-7.829444
 30
0.0
 10
-45.803923
 20
-9.237636
 30
0.0
 10
-46.592506
 20
-10.597250
 30
0.0
 10
-47.489091
 20
-11.901567
 30
0.0
 10
-48.492648
 20
-13.143865
 30
0.0
 10
-49.602141
 20
-14.316922
 30
0.0
 10
-50.799484
 20
-15.400576
 30
0.0
 10
-52.063489
 20
-16.376729
 30
0.0
 10
-53.387440
 20
-17.243875
 30
0.0
 10
-54.764099
 20
-18.002462
 30
0.0
 10
-56.186753
 20
-18.649474
 30
0.0
 10
-57.648679
 20
-19.185334
 30
0.0
 10
-59.143159
 20
-19.608059
 30
0.0
 10
-60.663481
 20
-19.917092
 30
0.0
 10
-62.202404
 20
-20.110344
 30
0.0
 10
-63.753730
 20
-20.187867
 30
0.0
 10
-65.310226
 20
-20.148074
 30
0.0
 10
-66.865169
 20
-19.989430
 30
0.0
 10
-68.411844
 20
-19.711405
 30
0.0
 10
-69.943535
 20
-19.312996
 30
0.0
 10
-71.453521
 20
-18.792084
 30
0.0
 10
-72.934565
 20
-18.148723
 30
0.0
 10
-73.204835
 20
-18.097553
 30
0.0
 10
-73.464767
 20
-18.188517
 30
0.0
 10
-73.644601
 20
-18.397273
 30
0.0
 10
-73.695761
 20
-18.667545
 30
0.0
 10
-73.604811
 20
-18.927471
 30
0.0
 10
-73.396036
 20
-19.106806
 30
0.0
 10
-71.839026
 20
-19.783240
 30
0.0
 10
-70.251526
 20
-20.330504
 30
0.0
 10
-68.640772
 20
-20.749604
 30
0.0
 10
-67.014513
 20
-21.041572
 30
0.0
 10
-65.378954
 20
-21.207968
 30
0.0
 10
-63.741845
 20
-21.249825
 30
0.0
 10
-62.110422
 20
-21.168175
 30
0.0
 10
-60.491399
 20
-20.964578
 30
0.0
 10
-58.892011
 20
-20.640040
 30
0.0
 10
-57.320016
 20
-20.195117
 30
0.0
 10
-55.782641
 20
-19.631845
 30
0.0
 10
-54.286092
 20
-18.951257
 30
0.0
 10
-52.838636
 20
-18.154412
 30
0.0
 10
-51.446472
 20
-17.242314
 30
0.0
 10
-50.117354
 20
-16.216021
 30
0.0
 10
-48.858517
 20
-15.077070
 30
0.0
 10
-47.920590
 20
-14.100387
 30
0.0
 10
-47.052942
 20
-13.076687
 30
0.0
 10
-46.256607
 20
-12.009041
 30
0.0
 10
-45.532104
 20
-10.902130
 30
0.0
 10
-44.880464
 20
-9.759050
 30
0.0
 10
-44.301688
 20
-8.582898
 30
0.0
 10
-43.796294
 20
-7.378303
 30
0.0
 10
-43.365312
 20
-6.148414
 30
0.0
 10
-37.174474
 20
-6.148414
 30
0.0
 10
-47.990868
 20
-21.949516
 30
0.0
 10
-48.003272
 20
-21.969148
 30
0.0
 10
-54.975456
 20
-21.969148
 30
0.0
 10
-59.193287
 20
-21.969148
 30
0.0
 10
-59.227911
 20
-21.966581
 30
0.0
 10
-59.346248
 20
-21.996532
 30
0.0
 10
-59.437199
 20
-22.078183
 30
0.0
 10
-59.440815
 20
-22.082839
 30
0.0
 10
-59.441334
 20
-22.082839
 30
0.0
 10
-59.454251
 20
-22.104032
 30
0.0
 10
-59.454770
 20
-22.106625
 30
0.0
 10
-59.476473
 20
-22.279742
 30
0.0
 10
-59.380871
 20
-22.425977
 30
0.0
 10
-57.254386
 20
-24.552989
 30
0.0
 10
-57.254386
 20
-25.772533
 30
0.0
 10
-74.175318
 20
-25.772533
 30
0.0
 10
-74.325697
 20
-25.812856
 30
0.0
 10
-74.435250
 20
-25.922922
 30
0.0
 10
-74.475557
 20
-26.072782
 30
0.0
 10
-74.475041
 20
-26.074846
 30
0.0
 10
-73.150058
 20
-56.123152
 30
0.0
 10
-72.423486
 20
-56.849724
 30
0.0
 10
-72.406949
 20
-56.879675
 30
0.0
 10
-71.980102
 20
-57.306527
 30
0.0
 10
-71.880368
 20
-57.406275
 30
0.0
 10
-66.040413
 20
-63.246741
 30
0.0
 10
-45.199824
 20
-84.087335
 30
0.0
 10
-45.190524
 20
-84.095590
 30
0.0
 10
-45.182771
 20
-84.102840
 30
0.0
 10
-45.162102
 20
-84.119879
 30
0.0
 10
-45.153834
 20
-84.126096
 30
0.0
 10
-45.127479
 20
-84.143136
 30
0.0
 10
-45.125410
 20
-84.143136
 30
0.0
 10
-45.093887
 20
-84.160201
 30
0.0
 10
-45.091821
 20
-84.160201
 30
0.0
 10
-45.060298
 20
-84.173113
 30
0.0
 10
-45.052030
 20
-84.175706
 30
0.0
 10
-45.031361
 20
-84.182426
 30
0.0
 10
-45.002937
 20
-84.189120
 30
0.0
 10
-44.998288
 20
-84.189120
 30
0.0
 10
-44.968832
 20
-84.192745
 30
0.0
 10
-44.954878
 20
-84.195338
 30
0.0
 10
-44.930073
 20
-84.195338
 30
0.0
 10
-44.924906
 20
-84.195338
 30
0.0
 10
-12.680880
 20
-84.195338
 30
0.0
 10
-12.588896
 20
-84.337446
 30
0.0
 10
-10.924915
 20
-86.001437
 30
0.0
 10
-10.753865
 20
-86.100126
 30
0.0
 10
-10.556978
 20
-86.100126
 30
0.0
 10
-10.385929
 20
-86.001437
 30
0.0
 10
-10.287227
 20
-85.830886
 30
0.0
 10
-10.287227
 20
-85.633481
 30
0.0
 10
-10.385929
 20
-85.462427
 30
0.0
 10
-11.780160
 20
-84.068206
 30
0.0
 10
-9.367387
 20
-81.654915
 30
0.0
 10
-1.905310
 20
-81.654915
 30
0.0
 10
-1.709973
 20
-81.607898
 30
0.0
 10
-1.565279
 20
-81.467854
 30
0.0
 10
-1.512569
 20
-81.274073
 30
0.0
 10
-1.565279
 20
-81.080266
 30
0.0
 10
-1.709973
 20
-80.940222
 30
0.0
 10
-1.905310
 20
-80.893206
 30
0.0
 10
-9.470223
 20
-80.893206
 30
0.0
 10
-9.532751
 20
-80.889581
 30
0.0
 10
-9.615951
 20
-80.901487
 30
0.0
 10
-9.752893
 20
-80.960383
 30
0.0
 10
-9.856763
 20
-81.066852
 30
0.0
 10
-11.816333
 20
-83.026409
 30
0.0
 10
-11.816333
 20
-78.073224
 30
0.0
 10
-11.845788
 20
-77.901668
 30
0.0
 10
-11.917102
 20
-77.817954
 30
0.0
 10
-12.563574
 20
-77.172000
 30
0.0
 10
-12.570809
 20
-77.164247
 30
0.0
 10
-13.171289
 20
-76.563749
 30
0.0
 10
-13.171289
 20
-73.524136
 30
0.0
 10
-11.919686
 20
-72.272551
 30
0.0
 10
-11.828735
 20
-72.145948
 30
0.0
 10
-11.816333
 20
-72.026568
 30
0.0
 10
-11.816333
 20
-66.566441
 30
0.0
 10
-11.819950
 20
-66.454814
 30
0.0
 10
-11.871627
 20
-66.355595
 30
0.0
 10
-11.960510
 20
-66.287888
 30
0.0
 10
-12.070064
 20
-66.265160
 30
0.0
 10
-19.150252
 20
-66.265160
 30
0.0
 10
-25.212931
 20
-66.265160
 30
0.0
 10
-25.255306
 20
-66.262567
 30
0.0
 10
-25.337988
 20
-66.279104
 30
0.0
 10
-25.458394
 20
-66.368004
 30
0.0
 10
-26.775627
 20
-67.685232
 30
0.0
 10
-30.225029
 20
-67.685232
 30
0.0
 10
-31.541744
 20
-66.368507
 30
0.0
 10
-31.665251
 20
-66.278601
 30
0.0
 10
-31.753101
 20
-66.262567
 30
0.0
 10
-31.785658
 20
-66.265160
 30
0.0
 10
-37.850403
 20
-66.265160
 30
0.0
 10
-38.272598
 20
-66.265160
 30
0.0
 10
-34.245971
 20
-54.349597
 30
0.0
 10
-34.191194
 20
-54.332029
 30
0.0
 10
-34.190678
 20
-54.332029
 30
0.0
 10
-34.082157
 20
-54.247283
 30
0.0
 10
-33.041910
 20
-53.207047
 30
0.0
 10
-0.041341
 20
-53.207047
 30
0.0
 10
-0.001034
 20
-53.203951
 30
0.0
 10
0.040824
 20
-53.207047
 30
0.0
 10
33.041394
 20
-53.207047
 30
0.0
 10
34.081125
 20
-54.246780
 30
0.0
 10
34.167424
 20
-54.320678
 30
0.0
 10
34.170006
 20
-54.323245
 30
0.0
 10
34.173107
 20
-54.325837
 30
0.0
 10
34.245455
 20
-54.351687
 30
0.0
 10
38.272082
 20
-66.267224
 30
0.0
 10
37.849887
 20
-66.267224
 30
0.0
 10
31.787206
 20
-66.267224
 30
0.0
 10
31.744833
 20
-66.264658
 30
0.0
 10
31.662150
 20
-66.281168
 30
0.0
 10
31.541744
 20
-66.370068
 30
0.0
 10
30.224513
 20
-67.687296
 30
0.0
 10
26.775111
 20
-67.687296
 30
0.0
 10
25.458394
 20
-66.370570
 30
0.0
 10
25.334888
 20
-66.280665
 30
0.0
 10
25.247038
 20
-66.264658
 30
0.0
 10
25.214482
 20
-66.267224
 30
0.0
 10
19.149735
 20
-66.267224
 30
0.0
 10
12.069548
 20
-66.267224
 30
0.0
 10
11.959993
 20
-66.289978
 30
0.0
 10
11.871110
 20
-66.357659
 30
0.0
 10
11.819434
 20
-66.456878
 30
0.0
 10
11.815816
 20
-66.568505
 30
0.0
 10
11.815816
 20
-72.029161
 30
0.0
 10
11.830802
 20
-72.155235
 30
0.0
 10
11.918652
 20
-72.274615
 30
0.0
 10
13.170772
 20
-73.526227
 30
0.0
 10
13.170772
 20
-76.565813
 30
0.0
 10
12.583211
 20
-77.153902
 30
0.0
 10
12.570292
 20
-77.166311
 30
0.0
 10
11.916585
 20
-77.820017
 30
0.0
 10
11.845788
 20
-77.903202
 30
0.0
 10
11.843722
 20
-77.906324
 30
0.0
 10
11.841654
 20
-77.910452
 30
0.0
 10
11.815816
 20
-78.074785
 30
0.0
 10
11.815816
 20
-83.029002
 30
0.0
 10
9.854696
 20
-81.067354
 30
0.0
 10
9.758577
 20
-80.967633
 30
0.0
 10
9.633520
 20
-80.908207
 30
0.0
 10
9.520866
 20
-80.891142
 30
0.0
 10
9.469189
 20
-80.895799
 30
0.0
 10
1.904793
 20
-80.895799
 30
0.0
 10
1.709456
 20
-80.942312
 30
0.0
 10
1.564762
 20
-81.082356
 30
0.0
 10
1.512052
 20
-81.276640
 30
0.0
 10
1.564762
 20
-81.470447
 30
0.0
 10
1.709456
 20
-81.610491
 30
0.0
 10
1.904793
 20
-81.657508
 30
0.0
 10
9.366870
 20
-81.657508
 30
0.0
 10
11.558468
 20
-83.849104
 30
0.0
 10
11.608594
 20
-84.007219
 30
0.0
 10
11.721248
 20
-84.129695
 30
0.0
 10
10.385413
 20
-85.465020
 30
0.0
 10
10.301697
 20
-85.591121
 30
0.0
 10
10.273791
 20
-85.734260
 30
0.0
 10
10.301697
 20
-85.877929
 30
0.0
 10
10.385413
 20
-86.004003
 30
0.0
 10
10.511503
 20
-86.087717
 30
0.0
 10
10.655163
 20
-86.115631
 30
0.0
 10
10.798307
 20
-86.087717
 30
0.0
 10
10.924398
 20
-86.004003
 30
0.0
 10
12.513448
 20
-84.414439
 30
0.0
 10
12.623002
 20
-84.322973
 30
0.0
 10
12.691732
 20
-84.197904
 30
0.0
 10
44.929557
 20
-84.197904
 30
0.0
 10
44.938860
 20
-84.197904
 30
0.0
 10
44.967798
 20
-84.194809
 30
0.0
 10
44.970898
 20
-84.194809
 30
0.0
 10
45.005522
 20
-84.190179
 30
0.0
 10
45.011724
 20
-84.187586
 30
0.0
 10
45.031877
 20
-84.181897
 30
0.0
 10
45.048413
 20
-84.176738
 30
0.0
 10
45.077869
 20
-84.166392
 30
0.0
 10
45.083037
 20
-84.163800
 30
0.0
 10
45.104741
 20
-84.153481
 30
0.0
 10
45.117660
 20
-84.146760
 30
0.0
 10
45.169852
 20
-84.110592
 30
0.0
 10
45.179671
 20
-84.102310
 30
0.0
 10
45.199308
 20
-84.085271
 30
0.0
 10
66.028528
 20
-63.255525
 30
0.0
 10
66.039897
 20
-63.244677
 30
0.0
 10
71.878817
 20
-57.405244
 30
0.0
 10
71.980618
 20
-57.303432
 30
0.0
 10
72.406433
 20
-56.877611
 30
0.0
 10
72.419869
 20
-56.852820
 30
0.0
 10
73.149539
 20
-56.123152
 30
0.0
 10
74.473491
 20
-26.094478
 30
0.0
 10
74.480208
 20
-26.070190
 30
0.0
 10
74.438867
 20
-25.918795
 30
0.0
 10
74.327247
 20
-25.808728
 30
0.0
 10
74.174800
 20
-25.770470
 30
0.0
 10
57.253870
 20
-25.770470
 30
0.0
 10
57.253870
 20
-24.550899
 30
0.0
 10
59.380871
 20
-22.423385
 30
0.0
 10
59.476989
 20
-22.272493
 30
0.0
 10
59.450118
 20
-22.096280
 30
0.0
 10
59.449602
 20
-22.096280
 30
0.0
 10
59.447533
 20
-22.092655
 30
0.0
 10
59.351415
 20
-21.997061
 30
0.0
 10
59.219642
 20
-21.965020
 30
0.0
 10
59.191737
 20
-21.967613
 30
0.0
 10
54.974940
 20
-21.967613
 30
0.0
 10
48.002754
 20
-21.967613
 30
0.0
 10
47.990353
 20
-21.947981
 30
0.0
 10
37.173958
 20
-6.148414
 30
0.0
 10
43.364277
 20
-6.148414
 30
0.0
 10
43.795259
 20
-7.378303
 30
0.0
 10
44.300656
 20
-8.582898
 30
0.0
 10
44.879432
 20
-9.758521
 30
0.0
 10
45.531588
 20
-10.902130
 30
0.0
 10
46.256091
 20
-12.009041
 30
0.0
 10
47.052426
 20
-13.076158
 30
0.0
 10
47.920071
 20
-14.100387
 30
0.0
 10
48.858001
 20
-15.077070
 30
0.0
 10
50.116838
 20
-16.216021
 30
0.0
 10
51.445956
 20
-17.241785
 30
0.0
 10
52.838117
 20
-18.154412
 30
0.0
 10
54.285576
 20
-18.951257
 30
0.0
 10
55.782125
 20
-19.631845
 30
0.0
 10
57.319497
 20
-20.195117
 30
0.0
 10
58.891495
 20
-20.639511
 30
0.0
 10
60.490881
 20
-20.964578
 30
0.0
 10
62.109903
 20
-21.168175
 30
0.0
 10
63.741329
 20
-21.249825
 30
0.0
 10
65.378438
 20
-21.207968
 30
0.0
 10
67.013997
 20
-21.041572
 30
0.0
 10
68.640254
 20
-20.749604
 30
0.0
 10
70.251008
 20
-20.330504
 30
0.0
 10
71.838508
 20
-19.783240
 30
0.0
 10
73.395520
 20
-19.106806
 30
0.0
 10
73.604292
 20
-18.927471
 30
0.0
 10
73.695243
 20
-18.667545
 30
0.0
 10
73.644083
 20
-18.396770
 30
0.0
 10
73.464251
 20
-18.188517
 30
0.0
 10
73.204316
 20
-18.097553
 30
0.0
 10
72.934049
 20
-18.148723
 30
0.0
 10
71.453002
 20
-18.792084
 30
0.0
 10
69.943017
 20
-19.312996
 30
0.0
 10
68.411328
 20
-19.711405
 30
0.0
 10
66.864653
 20
-19.989430
 30
0.0
 10
65.309708
 20
-20.148074
 30
0.0
 10
63.753214
 20
-20.187867
 30
0.0
 10
62.201888
 20
-20.110344
 30
0.0
 10
60.662963
 20
-19.916563
 30
0.0
 10
59.142643
 20
-19.608059
 30
0.0
 10
57.648160
 20
-19.185334
 30
0.0
 10
56.186234
 20
-18.649474
 30
0.0
 10
54.763583
 20
-18.001959
 30
0.0
 10
53.386921
 20
-17.243875
 30
0.0
 10
52.062973
 20
-16.376227
 30
0.0
 10
50.798965
 20
-15.400046
 30
0.0
 10
49.601623
 20
-14.316922
 30
0.0
 10
48.492130
 20
-13.143336
 30
0.0
 10
47.488576
 20
-11.901567
 30
0.0
 10
46.591987
 20
-10.597250
 30
0.0
 10
45.803405
 20
-9.237636
 30
0.0
 10
45.124894
 20
-7.829444
 30
0.0
 10
44.556971
 20
-6.379422
 30
0.0
 10
44.101700
 20
-4.894739
 30
0.0
 10
43.759602
 20
-3.381666
 30
0.0
 10
43.531711
 20
-1.847400
 30
0.0
 10
43.420088
 20
-0.298133
 30
0.0
 10
43.425774
 20
1.258888
 30
0.0
 10
43.550313
 20
2.817442
 30
0.0
 10
43.793709
 20
4.369805
 30
0.0
 10
44.159062
 20
5.909760
 30
0.0
 10
44.645853
 20
7.430611
 30
0.0
 10
45.256670
 20
8.925586
 30
0.0
 10
45.306279
 20
9.183476
 30
0.0
 10
45.226179
 20
9.434089
 30
0.0
 10
45.036010
 20
9.615488
 30
0.0
 10
44.782280
 20
9.683697
 30
0.0
 10
44.627250
 20
9.662504
 30
0.0
 10
44.487724
 20
9.598951
 30
0.0
 10
44.372485
 20
9.498171
 30
0.0
 10
44.289287
 20
9.365377
 30
0.0
 10
43.732730
 20
8.019203
 30
0.0
 10
43.271779
 20
6.651837
 30
0.0
 10
41.123071
 20
6.651837
 30
0.0
 10
43.549798
 20
9.676447
 30
0.0
 10
38.549585
 20
9.676447
 30
0.0
 10
36.558493
 20
6.651837
 30
0.0
 10
28.411702
 20
6.651837
 30
0.0
 10
26.259379
 20
9.796357
 30
0.0
 10
26.149308
 20
9.895575
 30
0.0
 10
26.005131
 20
9.930183
 30
0.0
 10
25.851135
 20
9.884701
 30
0.0
 10
25.742098
 20
9.766379
 30
0.0
 10
25.710059
 20
9.608767
 30
0.0
 10
25.764319
 20
9.457346
 30
0.0
 10
27.684616
 20
6.651837
 30
0.0
 10
14.203268
 20
6.651837
 30
0.0
 10
13.210046
 20
9.582415
 30
0.0
 10
13.095842
 20
9.735873
 30
0.0
 10
12.912390
 20
9.789636
 30
0.0
 10
12.778548
 20
9.751907
 30
0.0
 10
12.676229
 20
9.657847
 30
0.0
 10
12.627136
 20
9.527619
 30
0.0
 10
12.642122
 20
9.389666
 30
0.0
 10
13.570231
 20
6.651837
 30
0.0
 10
-0.000517
 20
6.651837
 30
0.0
 10
-13.570748
 20
6.651837
 30
0.0
 10
-12.642639
 20
9.389666
 30
0.0
 10
-12.628170
 20
9.530212
 30
0.0
 10
-12.679329
 20
9.661472
 30
0.0
 10
-12.784749
 20
9.755531
 30
0.0
 10
-12.921692
 20
9.790139
 30
0.0
 10
-13.100492
 20
9.733809
 30
0.0
 10
-13.210563
 20
9.582415
 30
0.0
 10
-14.203784
 20
6.651837
 30
0.0
 10
-27.685132
 20
6.651837
 30
0.0
 10
-25.764836
 20
9.457346
 30
0.0
 10
-25.710575
 20
9.610831
 30
0.0
 10
-25.744682
 20
9.770507
 30
0.0
 10
-25.856820
 20
9.888326
 30
0.0
 10
-26.014433
 20
9.930183
 30
0.0
  0
LWPOLYLINE
  5
101
100
AcDbEntity
  8
Merged
 62
7
100
AcDbPolyline
 90
204
 70
1
 10
-52.922868
 20
9.678511
 30
0.0
 10
-52.922868
 20
9.676447
 30
0.0
 10
-53.066011
 20
9.635622
 30
0.0
 10
-53.164198
 20
9.524021
 30
0.0
 10
-53.187452
 20
9.376728
 30
0.0
 10
-53.127508
 20
9.240308
 30
0.0
 10
-52.333239
 20
8.163375
 30
0.0
 10
-51.655244
 20
7.035271
 30
0.0
 10
-51.093523
 20
5.864278
 30
0.0
 10
-50.647039
 20
4.658148
 30
0.0
 10
-50.315791
 20
3.425666
 30
0.0
 10
-50.098751
 20
2.174584
 30
0.0
 10
-49.995915
 20
0.913156
 30
0.0
 10
-50.007285
 20
-0.349806
 30
0.0
 10
-50.131308
 20
-1.607106
 30
0.0
 10
-50.368502
 20
-2.849906
 30
0.0
 10
-50.718352
 20
-4.070509
 30
0.0
 10
-51.179823
 20
-5.260605
 30
0.0
 10
-51.752913
 20
-6.411965
 30
0.0
 10
-52.437109
 20
-7.515781
 30
0.0
 10
-53.231894
 20
-8.564801
 30
0.0
 10
-54.136748
 20
-9.550797
 30
0.0
 10
-55.177510
 20
-10.484591
 30
0.0
 10
-56.285453
 20
-11.297470
 30
0.0
 10
-57.452308
 20
-11.988879
 30
0.0
 10
-58.667737
 20
-12.557839
 30
0.0
 10
-59.922958
 20
-13.004853
 30
0.0
 10
-61.208666
 20
-13.328862
 30
0.0
 10
-62.515046
 20
-13.529866
 30
0.0
 10
-63.833314
 20
-13.607918
 30
0.0
 10
-64.007979
 20
-13.580533
 30
0.0
 10
-64.168176
 20
-13.607918
 30
0.0
 10
-65.331414
 20
-13.545899
 30
0.0
 10
-66.488448
 20
-13.387758
 30
0.0
 10
-67.632564
 20
-13.132488
 30
0.0
 10
-68.757559
 20
-12.780063
 30
0.0
 10
-69.856718
 20
-12.329954
 30
0.0
 10
-70.923835
 20
-11.782187
 30
0.0
 10
-71.952197
 20
-11.135704
 30
0.0
 10
-72.936116
 20
-10.391061
 30
0.0
 10
-73.061174
 20
-10.332667
 30
0.0
 10
-73.198633
 20
-10.344547
 30
0.0
 10
-73.311803
 20
-10.424636
 30
0.0
 10
-73.369165
 20
-10.550207
 30
0.0
 10
-73.355729
 20
-10.687685
 30
0.0
 10
-73.275113
 20
-10.799815
 30
0.0
 10
-72.631226
 20
-11.301069
 30
0.0
 10
-71.967183
 20
-11.761523
 30
0.0
 10
-72.551645
 20
-12.636394
 30
0.0
 10
-72.584199
 20
-12.723733
 30
0.0
 10
-72.567146
 20
-12.815702
 30
0.0
 10
-72.506168
 20
-12.886505
 30
0.0
 10
-72.417802
 20
-12.915953
 30
0.0
 10
-72.326336
 20
-12.896321
 30
0.0
 10
-72.257605
 20
-12.833271
 30
0.0
 10
-71.670045
 20
-11.953743
 30
0.0
 10
-70.716614
 20
-12.497911
 30
0.0
 10
-69.734245
 20
-12.964028
 30
0.0
 10
-70.530580
 20
-14.886384
 30
0.0
 10
-70.542981
 20
-14.977348
 30
0.0
 10
-70.508357
 20
-15.062597
 30
0.0
 10
-70.435494
 20
-15.118927
 30
0.0
 10
-70.344027
 20
-15.130806
 30
0.0
 10
-70.259279
 20
-15.095167
 30
0.0
 10
-70.203467
 20
-15.021772
 30
0.0
 10
-69.406101
 20
-13.097351
 30
0.0
 10
-68.223225
 20
-13.512297
 30
0.0
 10
-67.017098
 20
-13.822362
 30
0.0
 10
-67.215536
 20
-14.820768
 30
0.0
 10
-67.210369
 20
-14.912737
 30
0.0
 10
-67.159725
 20
-14.990260
 30
0.0
 10
-67.076526
 20
-15.031085
 30
0.0
 10
-66.984541
 20
-15.024867
 30
0.0
 10
-66.908061
 20
-14.972691
 30
0.0
 10
-66.868270
 20
-14.889480
 30
0.0
 10
-66.670349
 20
-13.893668
 30
0.0
 10
-65.604263
 20
-14.050248
 30
0.0
 10
-64.531978
 20
-14.128300
 30
0.0
 10
-64.531978
 20
-16.422211
 30
0.0
 10
-64.490121
 20
-16.628904
 30
0.0
 10
-64.376432
 20
-16.797893
 30
0.0
 10
-64.207451
 20
-16.912114
 30
0.0
 10
-64.000227
 20
-16.953971
 30
0.0
 10
-63.793523
 20
-16.912114
 30
0.0
 10
-63.624023
 20
-16.797893
 30
0.0
 10
-63.510335
 20
-16.628904
 30
0.0
 10
-63.468478
 20
-16.422211
 30
0.0
 10
-63.468478
 20
-14.128300
 30
0.0
 10
-62.395674
 20
-14.049745
 30
0.0
 10
-61.330623
 20
-13.892133
 30
0.0
 10
-61.132186
 20
-14.889480
 30
0.0
 10
-61.092395
 20
-14.972691
 30
0.0
 10
-61.015914
 20
-15.024867
 30
0.0
 10
-60.923929
 20
-15.031085
 30
0.0
 10
-60.840731
 20
-14.990260
 30
0.0
 10
-60.790087
 20
-14.912737
 30
0.0
 10
-60.784920
 20
-14.820768
 30
0.0
 10
-60.983873
 20
-13.821331
 30
0.0
 10
-59.776196
 20
-13.511265
 30
0.0
 10
-58.594355
 20
-13.096822
 30
0.0
 10
-57.796988
 20
-15.021772
 30
0.0
 10
-57.741696
 20
-15.095167
 30
0.0
 10
-57.656428
 20
-15.130806
 30
0.0
 10
-57.564962
 20
-15.118927
 30
0.0
 10
-57.492098
 20
-15.062597
 30
0.0
 10
-57.457475
 20
-14.977348
 30
0.0
 10
-57.469876
 20
-14.886384
 30
0.0
 10
-58.265695
 20
-12.964530
 30
0.0
 10
-57.299863
 20
-12.506695
 30
0.0
 10
-56.363484
 20
-11.974936
 30
0.0
 10
-55.742851
 20
-12.904073
 30
0.0
 10
-55.674122
 20
-12.967123
 30
0.0
 10
-55.582653
 20
-12.986755
 30
0.0
 10
-55.494288
 20
-12.957307
 30
0.0
 10
-55.433309
 20
-12.886505
 30
0.0
 10
-55.416257
 20
-12.794536
 30
0.0
 10
-55.448811
 20
-12.707197
 30
0.0
 10
-56.065827
 20
-11.784251
 30
0.0
 10
-55.125834
 20
-11.118136
 30
0.0
 10
-54.230281
 20
-10.369867
 30
0.0
 10
-54.215295
 20
-10.385372
 30
0.0
 10
-52.587488
 20
-12.013168
 30
0.0
 10
-52.470182
 20
-12.090691
 30
0.0
 10
-52.337375
 20
-12.117044
 30
0.0
 10
-52.204048
 20
-12.090691
 30
0.0
 10
-52.086743
 20
-12.013168
 30
0.0
 10
-52.009228
 20
-11.895878
 30
0.0
 10
-51.982873
 20
-11.762555
 30
0.0
 10
-52.009228
 20
-11.629734
 30
0.0
 10
-52.086743
 20
-11.512418
 30
0.0
 10
-53.714549
 20
-9.884622
 30
0.0
 10
-53.718169
 20
-9.881526
 30
0.0
 10
-52.922350
 20
-9.017503
 30
0.0
 10
-52.208184
 20
-8.105907
 30
0.0
 10
-51.392212
 20
-8.651108
 30
0.0
 10
-51.305397
 20
-8.681085
 30
0.0
 10
-51.214446
 20
-8.663517
 30
0.0
 10
-51.145199
 20
-8.602530
 30
0.0
 10
-51.115743
 20
-8.515191
 30
0.0
 10
-51.134346
 20
-8.424757
 30
0.0
 10
-51.195840
 20
-8.356044
 30
0.0
 10
-52.000960
 20
-7.818094
 30
0.0
 10
-51.250617
 20
-6.595930
 30
0.0
 10
-50.630503
 20
-5.318495
 30
0.0
 10
-48.676616
 20
-6.127750
 30
0.0
 10
-48.585149
 20
-6.140662
 30
0.0
 10
-48.499882
 20
-6.106054
 30
0.0
 10
-48.443555
 20
-6.032659
 30
0.0
 10
-48.431670
 20
-5.941192
 30
0.0
 10
-48.467843
 20
-5.856446
 30
0.0
 10
-48.541223
 20
-5.800646
 30
0.0
 10
-50.495110
 20
-4.991391
 30
0.0
 10
-50.083765
 20
-3.812646
 30
0.0
 10
-49.775774
 20
-2.607548
 30
0.0
 10
-48.742245
 20
-2.813209
 30
0.0
 10
-48.650260
 20
-2.808579
 30
0.0
 10
-48.572745
 20
-2.757408
 30
0.0
 10
-48.531920
 20
-2.674726
 30
0.0
 10
-48.538122
 20
-2.582227
 30
0.0
 10
-48.590316
 20
-2.506266
 30
0.0
 10
-48.673515
 20
-2.465943
 30
0.0
 10
-49.704977
 20
-2.260812
 30
0.0
 10
-49.548912
 20
-1.198324
 30
0.0
 10
-49.471400
 20
-0.128111
 30
0.0
 10
-49.442976
 20
-0.128111
 30
0.0
 10
-47.176449
 20
-0.128111
 30
0.0
 10
-46.907215
 20
-0.059902
 30
0.0
 10
-46.709812
 20
0.134911
 30
0.0
 10
-46.636945
 20
0.403119
 30
0.0
 10
-46.709812
 20
0.671327
 30
0.0
 10
-46.907215
 20
0.866140
 30
0.0
 10
-47.176449
 20
0.934879
 30
0.0
 10
-49.442976
 20
0.934879
 30
0.0
 10
-49.467265
 20
0.934879
 30
0.0
 10
-49.546846
 20
2.004060
 30
0.0
 10
-49.704977
 20
3.067553
 30
0.0
 10
-48.673515
 20
3.272711
 30
0.0
 10
-48.563961
 20
3.340920
 30
0.0
 10
-48.530372
 20
3.465989
 30
0.0
 10
-48.590832
 20
3.580712
 30
0.0
 10
-48.712789
 20
3.623601
 30
0.0
 10
-48.742245
 20
3.619474
 30
0.0
 10
-49.773189
 20
3.414316
 30
0.0
 10
-50.082215
 20
4.617852
 30
0.0
 10
-50.496142
 20
5.797629
 30
0.0
 10
-48.541223
 20
6.606884
 30
0.0
 10
-48.450272
 20
6.688005
 30
0.0
 10
-48.432701
 20
6.808417
 30
0.0
 10
-48.497299
 20
6.911261
 30
0.0
 10
-48.613055
 20
6.948461
 30
0.0
 10
-48.676616
 20
6.933988
 30
0.0
 10
-50.628952
 20
6.125766
 30
0.0
 10
-51.174655
 20
7.260061
 30
0.0
 10
-51.825260
 20
8.355092
 30
0.0
 10
-50.958131
 20
8.934371
 30
0.0
 10
-50.887850
 20
9.023271
 30
0.0
 10
-50.885267
 20
9.136433
 30
0.0
 10
-50.951929
 20
9.227899
 30
0.0
 10
-51.060451
 20
9.259940
 30
0.0
 10
-51.154499
 20
9.228429
 30
0.0
 10
-52.023182
 20
8.648091
 30
0.0
 10
-52.715128
 20
9.577229
 30
0.0
 10
-52.807629
 20
9.651656
 30
0.0
 10
-52.922868
 20
9.678511
 30
0.0
  0
LWPOLYLINE
  5
102
100
AcDbEntity
  8
Merged
 62
7
100
AcDbPolyline
 90
198
 70
1
 10
52.914600
 20
9.678511
 30
0.0
 10
52.803496
 20
9.650095
 30
0.0
 10
52.714612
 20
9.577758
 30
0.0
 10
52.022663
 20
8.648621
 30
0.0
 10
51.153983
 20
9.228931
 30
0.0
 10
51.054249
 20
9.260470
 30
0.0
 10
50.948312
 20
9.225333
 30
0.0
 10
50.884233
 20
9.133866
 30
0.0
 10
50.887850
 20
9.022239
 30
0.0
 10
50.957612
 20
8.934900
 30
0.0
 10
51.824226
 20
8.355092
 30
0.0
 10
51.174137
 20
7.260061
 30
0.0
 10
50.628434
 20
6.126295
 30
0.0
 10
48.676100
 20
6.934518
 30
0.0
 10
48.607369
 20
6.948964
 30
0.0
 10
48.493680
 20
6.909197
 30
0.0
 10
48.432186
 20
6.805824
 30
0.0
 10
48.450788
 20
6.687503
 30
0.0
 10
48.540707
 20
6.607387
 30
0.0
 10
50.495626
 20
5.798132
 30
0.0
 10
50.081699
 20
4.618355
 30
0.0
 10
49.772673
 20
3.414818
 30
0.0
 10
48.741727
 20
3.619976
 30
0.0
 10
48.706588
 20
3.624104
 30
0.0
 10
48.587215
 20
3.578119
 30
0.0
 10
48.529338
 20
3.463925
 30
0.0
 10
48.563961
 20
3.340920
 30
0.0
 10
48.672480
 20
3.273240
 30
0.0
 10
49.704461
 20
3.068082
 30
0.0
 10
49.546330
 20
2.004563
 30
0.0
 10
49.467265
 20
0.935911
 30
0.0
 10
49.442460
 20
0.935911
 30
0.0
 10
47.175931
 20
0.935911
 30
0.0
 10
46.906699
 20
0.867172
 30
0.0
 10
46.708777
 20
0.672359
 30
0.0
 10
46.636429
 20
0.404151
 30
0.0
 10
46.708777
 20
0.135943
 30
0.0
 10
46.906699
 20
-0.058870
 30
0.0
 10
47.175931
 20
-0.127079
 30
0.0
 10
49.442460
 20
-0.127079
 30
0.0
 10
49.470882
 20
-0.127079
 30
0.0
 10
49.548396
 20
-1.197822
 30
0.0
 10
49.704461
 20
-2.259753
 30
0.0
 10
48.672480
 20
-2.464911
 30
0.0
 10
48.590316
 20
-2.505736
 30
0.0
 10
48.539157
 20
-2.581698
 30
0.0
 10
48.533471
 20
-2.673165
 30
0.0
 10
48.573780
 20
-2.755344
 30
0.0
 10
48.650260
 20
-2.806515
 30
0.0
 10
48.741727
 20
-2.812177
 30
0.0
 10
49.775774
 20
-2.606516
 30
0.0
 10
50.083249
 20
-3.811614
 30
0.0
 10
50.494591
 20
-4.990359
 30
0.0
 10
48.540707
 20
-5.799614
 30
0.0
 10
48.466809
 20
-5.855414
 30
0.0
 10
48.431154
 20
-5.940160
 30
0.0
 10
48.443039
 20
-6.031627
 30
0.0
 10
48.499366
 20
-6.104493
 30
0.0
 10
48.584631
 20
-6.139630
 30
0.0
 10
48.676100
 20
-6.126718
 30
0.0
 10
50.629984
 20
-5.317464
 30
0.0
 10
51.249585
 20
-6.594898
 30
0.0
 10
52.000444
 20
-7.817062
 30
0.0
 10
51.194809
 20
-8.355012
 30
0.0
 10
51.119360
 20
-8.467646
 30
0.0
 10
51.145715
 20
-8.600969
 30
0.0
 10
51.258888
 20
-8.676428
 30
0.0
 10
51.391696
 20
-8.649547
 30
0.0
 10
52.207665
 20
-8.104373
 30
0.0
 10
52.921834
 20
-9.016471
 30
0.0
 10
53.717650
 20
-9.879965
 30
0.0
 10
53.714034
 20
-9.883061
 30
0.0
 10
52.086227
 20
-11.510883
 30
0.0
 10
51.989075
 20
-11.670559
 30
0.0
 10
51.986492
 20
-11.856588
 30
0.0
 10
52.078991
 20
-12.018857
 30
0.0
 10
52.240738
 20
-12.111355
 30
0.0
 10
52.427291
 20
-12.108789
 30
0.0
 10
52.586453
 20
-12.011634
 30
0.0
 10
54.214779
 20
-10.383811
 30
0.0
 10
54.229765
 20
-10.367804
 30
0.0
 10
55.125318
 20
-11.116601
 30
0.0
 10
56.065312
 20
-11.782690
 30
0.0
 10
55.448295
 20
-12.706165
 30
0.0
 10
55.414188
 20
-12.794536
 30
0.0
 10
55.430208
 20
-12.887537
 30
0.0
 10
55.492221
 20
-12.958842
 30
0.0
 10
55.581621
 20
-12.988316
 30
0.0
 10
55.674122
 20
-12.968155
 30
0.0
 10
55.742335
 20
-12.902539
 30
0.0
 10
56.362968
 20
-11.973375
 30
0.0
 10
57.299344
 20
-12.505664
 30
0.0
 10
58.265176
 20
-12.962996
 30
0.0
 10
57.469360
 20
-14.884823
 30
0.0
 10
57.456440
 20
-14.976290
 30
0.0
 10
57.491582
 20
-15.061565
 30
0.0
 10
57.564446
 20
-15.117366
 30
0.0
 10
57.655912
 20
-15.129272
 30
0.0
 10
57.740661
 20
-15.093606
 30
0.0
 10
57.796472
 20
-15.020237
 30
0.0
 10
58.593839
 20
-13.095790
 30
0.0
 10
59.775164
 20
-13.510234
 30
0.0
 10
60.982841
 20
-13.820299
 30
0.0
 10
60.784404
 20
-14.819207
 30
0.0
 10
60.789571
 20
-14.911705
 30
0.0
 10
60.840215
 20
-14.988699
 30
0.0
 10
60.922897
 20
-15.030053
 30
0.0
 10
61.015398
 20
-15.023333
 30
0.0
 10
61.091879
 20
-14.971660
 30
0.0
 10
61.131670
 20
-14.887945
 30
0.0
 10
61.330107
 20
-13.891101
 30
0.0
 10
62.395158
 20
-14.048714
 30
0.0
 10
63.467962
 20
-14.126739
 30
0.0
 10
63.467962
 20
-16.420650
 30
0.0
 10
63.536174
 20
-16.689890
 30
0.0
 10
63.730994
 20
-16.887825
 30
0.0
 10
63.999195
 20
-16.960665
 30
0.0
 10
64.267395
 20
-16.887825
 30
0.0
 10
64.462215
 20
-16.689890
 30
0.0
 10
64.530944
 20
-16.420650
 30
0.0
 10
64.530944
 20
-14.127268
 30
0.0
 10
65.603231
 20
-14.049745
 30
0.0
 10
66.669833
 20
-13.892133
 30
0.0
 10
66.867754
 20
-14.887945
 30
0.0
 10
66.907545
 20
-14.971660
 30
0.0
 10
66.984025
 20
-15.023333
 30
0.0
 10
67.076008
 20
-15.030053
 30
0.0
 10
67.159209
 20
-14.988699
 30
0.0
 10
67.209850
 20
-14.911705
 30
0.0
 10
67.215020
 20
-14.819207
 30
0.0
 10
67.016582
 20
-13.820828
 30
0.0
 10
68.222709
 20
-13.511265
 30
0.0
 10
69.405582
 20
-13.096319
 30
0.0
 10
70.202949
 20
-15.020237
 30
0.0
 10
70.258244
 20
-15.093606
 30
0.0
 10
70.343509
 20
-15.129272
 30
0.0
 10
70.434459
 20
-15.117366
 30
0.0
 10
70.507841
 20
-15.061565
 30
0.0
 10
70.542465
 20
-14.976290
 30
0.0
 10
70.530061
 20
-14.884823
 30
0.0
 10
69.733729
 20
-12.962996
 30
0.0
 10
70.715579
 20
-12.496879
 30
0.0
 10
71.669526
 20
-11.952208
 30
0.0
 10
72.257089
 20
-12.831736
 30
0.0
 10
72.325817
 20
-12.895289
 30
0.0
 10
72.416768
 20
-12.914921
 30
0.0
 10
72.505652
 20
-12.884970
 30
0.0
 10
72.566631
 20
-12.814670
 30
0.0
 10
72.583683
 20
-12.722701
 30
0.0
 10
72.551126
 20
-12.634833
 30
0.0
 10
71.966667
 20
-11.760491
 30
0.0
 10
72.630710
 20
-11.300566
 30
0.0
 10
73.274597
 20
-10.798784
 30
0.0
 10
73.354179
 20
-10.686653
 30
0.0
 10
73.367098
 20
-10.549705
 30
0.0
 10
73.309737
 20
-10.424636
 30
0.0
 10
73.197598
 20
-10.345050
 30
0.0
 10
73.060658
 20
-10.332138
 30
0.0
 10
72.935600
 20
-10.389500
 30
0.0
 10
71.951165
 20
-11.134672
 30
0.0
 10
70.922285
 20
-11.780626
 30
0.0
 10
69.855167
 20
-12.328922
 30
0.0
 10
68.755493
 20
-12.779031
 30
0.0
 10
67.630498
 20
-13.131456
 30
0.0
 10
66.485865
 20
-13.386726
 30
0.0
 10
65.328829
 20
-13.544867
 30
0.0
 10
64.165075
 20
-13.606357
 30
0.0
 10
63.991442
 20
-13.579501
 30
0.0
 10
63.833830
 20
-13.606357
 30
0.0
 10
62.515565
 20
-13.528834
 30
0.0
 10
61.208666
 20
-13.327830
 30
0.0
 10
59.922958
 20
-13.003292
 30
0.0
 10
58.667737
 20
-12.556807
 30
0.0
 10
57.451789
 20
-11.987345
 30
0.0
 10
56.284937
 20
-11.296412
 30
0.0
 10
55.176994
 20
-10.483559
 30
0.0
 10
54.136232
 20
-9.549236
 30
0.0
 10
53.230859
 20
-8.563266
 30
0.0
 10
52.436075
 20
-7.514220
 30
0.0
 10
51.752397
 20
-6.410404
 30
0.0
 10
51.179304
 20
-5.259070
 30
0.0
 10
50.717318
 20
-4.068948
 30
0.0
 10
50.367986
 20
-2.848875
 30
0.0
 10
50.130789
 20
-1.605545
 30
0.0
 10
50.006250
 20
-0.348245
 30
0.0
 10
49.995397
 20
0.914718
 30
0.0
 10
50.098235
 20
2.176145
 30
0.0
 10
50.314759
 20
3.427227
 30
0.0
 10
50.646521
 20
4.659709
 30
0.0
 10
51.093005
 20
5.865310
 30
0.0
 10
51.654729
 20
7.036832
 30
0.0
 10
52.332723
 20
8.164909
 30
0.0
 10
53.126989
 20
9.241869
 30
0.0
 10
53.186933
 20
9.379823
 30
0.0
 10
53.161613
 20
9.528651
 30
0.0
 10
53.060327
 20
9.639776
 30
0.0
 10
52.914600
 20
9.677479
 30
0.0
 10
52.914600
 20
9.678511
 30
0.0
  0
LWPOLYLINE
  5
103
100
AcDbEntity
  8
Merged
 62
7
100
AcDbPolyline
 90
13
 70
1
 10
-43.099178
 20
6.053429
 30
0.0
 10
-40.643514
 20
6.053429
 30
0.0
 10
-34.265092
 20
-1.896480
 30
0.0
 10
-36.763648
 20
-5.546910
 30
0.0
 10
-43.185477
 20
-5.546910
 30
0.0
 10
-42.832012
 20
-4.130966
 30
0.0
 10
-42.574662
 20
-2.695390
 30
0.0
 10
-42.413949
 20
-1.244335
 30
0.0
 10
-42.351420
 20
0.216059
 30
0.0
 10
-42.387594
 20
1.681083
 30
0.0
 10
-42.523503
 20
3.145578
 30
0.0
 10
-42.760696
 20
4.604941
 30
0.0
 10
-43.099178
 20
6.053429
 30
0.0
  0
LWPOLYLINE
  5
104
100
AcDbEntity
  8
Merged
 62
7
100
AcDbPolyline
 90
4
 70
1
 10
-36.165234
 20
6.053429
 30
0.0
 10
-28.823047
 20
6.053429
 30
0.0
 10
-32.565970
 20
0.585549
 30
0.0
 10
-36.165234
 20
6.053429
 30
0.0
  0
LWPOLYLINE
  5
105
100
AcDbEntity
  8
Merged
 62
7
100
AcDbPolyline
 90
6
 70
1
 10
-28.095959
 20
6.053429
 30
0.0
 10
-14.407389
 20
6.053429
 30
0.0
 10
-18.339449
 20
-5.546910
 30
0.0
 10
-28.529523
 20
-5.546910
 30
0.0
 10
-32.209404
 20
0.043974
 30
0.0
 10
-28.095959
 20
6.053429
 30
0.0
  0
LWPOLYLINE
  5
106
100
AcDbEntity
  8
Merged
 62
7
100
AcDbPolyline
 90
7
 70
1
 10
-13.773836
 20
6.053429
 30
0.0
 10
-0.000517
 20
6.053429
 30
0.0
 10
13.773320
 20
6.053429
 30
0.0
 10
17.705379
 20
-5.546910
 30
0.0
 10
-0.000517
 20
-5.546910
 30
0.0
 10
-17.705896
 20
-5.546910
 30
0.0
 10
-13.773836
 20
6.053429
 30
0.0
  0
LWPOLYLINE
  5
107
100
AcDbEntity
  8
Merged
 62
7
100
AcDbPolyline
 90
6
 70
1
 10
14.406873
 20
6.053429
 30
0.0
 10
28.095443
 20
6.053429
 30
0.0
 10
32.208888
 20
0.043974
 30
0.0
 10
28.529007
 20
-5.546910
 30
0.0
 10
18.338932
 20
-5.546910
 30
0.0
 10
14.406873
 20
6.053429
 30
0.0
  0
LWPOLYLINE
  5
108
100
AcDbEntity
  8
Merged
 62
7
100
AcDbPolyline
 90
4
 70
1
 10
28.822531
 20
6.053429
 30
0.0
 10
36.164718
 20
6.053429
 30
0.0
 10
32.565454
 20
0.585549
 30
0.0
 10
28.822531
 20
6.053429
 30
0.0
  0
LWPOLYLINE
  5
109
100
AcDbEntity
  8
Merged
 62
7
100
AcDbPolyline
 90
13
 70
1
 10
40.642998
 20
6.053429
 30
0.0
 10
43.098662
 20
6.053429
 30
0.0
 10
42.759664
 20
4.604941
 30
0.0
 10
42.522987
 20
3.145578
 30
0.0
 10
42.386560
 20
1.681083
 30
0.0
 10
42.350386
 20
0.216059
 30
0.0
 10
42.412915
 20
-1.244335
 30
0.0
 10
42.573628
 20
-2.695390
 30
0.0
 10
42.830978
 20
-4.130966
 30
0.0
 10
43.184445
 20
-5.546910
 30
0.0
 10
36.763132
 20
-5.546910
 30
0.0
 10
34.264576
 20
-1.896480
 30
0.0
 10
40.642998
 20
6.053429
 30
0.0
  0
LWPOLYLINE
  5
10a
100
AcDbEntity
  8
Merged
 62
7
100
AcDbPolyline
 90
76
 70
1
 10
-45.701088
 20
4.312946
 30
0.0
 10
-45.836996
 20
4.245769
 30
0.0
 10
-45.871101
 20
4.097999
 30
0.0
 10
-45.656646
 20
2.832947
 30
0.0
 10
-45.528487
 20
1.580832
 30
0.0
 10
-45.485595
 20
0.345255
 30
0.0
 10
-45.523835
 20
-0.872252
 30
0.0
 10
-45.641141
 20
-2.068565
 30
0.0
 10
-45.834411
 20
-3.241093
 30
0.0
 10
-46.102095
 20
-4.388326
 30
0.0
 10
-46.440577
 20
-5.507117
 30
0.0
 10
-46.847271
 20
-6.594898
 30
0.0
 10
-47.319591
 20
-7.649607
 30
0.0
 10
-47.855476
 20
-8.668147
 30
0.0
 10
-48.451307
 20
-9.648984
 30
0.0
 10
-49.105529
 20
-10.588969
 30
0.0
 10
-49.814530
 20
-11.485562
 30
0.0
 10
-50.575723
 20
-12.336145
 30
0.0
 10
-51.387044
 20
-13.139208
 30
0.0
 10
-52.245390
 20
-13.891101
 30
0.0
 10
-53.148177
 20
-14.590289
 30
0.0
 10
-54.092822
 20
-15.234179
 30
0.0
 10
-55.076741
 20
-15.819649
 30
0.0
 10
-56.096834
 20
-16.344688
 30
0.0
 10
-57.151035
 20
-16.806677
 30
0.0
 10
-58.236755
 20
-17.203050
 30
0.0
 10
-59.350899
 20
-17.531689
 30
0.0
 10
-60.490365
 20
-17.789578
 30
0.0
 10
-61.653600
 20
-17.975077
 30
0.0
 10
-62.837507
 20
-18.085144
 30
0.0
 10
-64.038985
 20
-18.117185
 30
0.0
 10
-65.255966
 20
-18.069137
 30
0.0
 10
-66.485865
 20
-17.937877
 30
0.0
 10
-67.725065
 20
-17.721871
 30
0.0
 10
-68.972017
 20
-17.418024
 30
0.0
 10
-69.063484
 20
-17.418024
 30
0.0
 10
-69.143584
 20
-17.462976
 30
0.0
 10
-69.190092
 20
-17.542034
 30
0.0
 10
-69.191127
 20
-17.633500
 30
0.0
 10
-69.145650
 20
-17.713616
 30
0.0
 10
-69.067103
 20
-17.760103
 30
0.0
 10
-67.797413
 20
-18.069137
 30
0.0
 10
-66.535475
 20
-18.289270
 30
0.0
 10
-65.283353
 20
-18.422091
 30
0.0
 10
-64.044153
 20
-18.470668
 30
0.0
 10
-62.819939
 20
-18.437595
 30
0.0
 10
-61.614328
 20
-18.324936
 30
0.0
 10
-60.429386
 20
-18.135812
 30
0.0
 10
-59.268217
 20
-17.871731
 30
0.0
 10
-58.133403
 20
-17.536345
 30
0.0
 10
-57.027011
 20
-17.131718
 30
0.0
 10
-55.952657
 20
-16.660442
 30
0.0
 10
-54.912927
 20
-16.125058
 30
0.0
 10
-53.910405
 20
-15.527681
 30
0.0
 10
-52.947673
 20
-14.871912
 30
0.0
 10
-52.027315
 20
-14.158780
 30
0.0
 10
-51.151917
 20
-13.391912
 30
0.0
 10
-50.325094
 20
-12.573873
 30
0.0
 10
-49.548912
 20
-11.706225
 30
0.0
 10
-48.825960
 20
-10.792063
 30
0.0
 10
-48.159334
 20
-9.834510
 30
0.0
 10
-47.551102
 20
-8.835072
 30
0.0
 10
-47.004883
 20
-7.796900
 30
0.0
 10
-46.522741
 20
-6.722533
 30
0.0
 10
-46.107779
 20
-5.614088
 30
0.0
 10
-45.762582
 20
-4.474607
 30
0.0
 10
-45.489212
 20
-3.306207
 30
0.0
 10
-45.291809
 20
-2.111454
 30
0.0
 10
-45.171402
 20
-0.892916
 30
0.0
 10
-45.132128
 20
0.346789
 30
0.0
 10
-45.176054
 20
1.605121
 30
0.0
 10
-45.305763
 20
2.879963
 30
0.0
 10
-45.524354
 20
4.167743
 30
0.0
 10
-45.586364
 20
4.272148
 30
0.0
 10
-45.701088
 20
4.311915
 30
0.0
 10
-45.701088
 20
4.312946
 30
0.0
  0
LWPOLYLINE
  5
10b
100
AcDbEntity
  8
Merged
 62
7
100
AcDbPolyline
 90
73
 70
1
 10
45.694886
 20
4.311915
 30
0.0
 10
45.583263
 20
4.270587
 30
0.0
 10
45.523319
 20
4.167743
 30
0.0
 10
45.304729
 20
2.879963
 30
0.0
 10
45.175019
 20
1.605121
 30
0.0
 10
45.131612
 20
0.346789
 30
0.0
 10
45.170886
 20
-0.892916
 30
0.0
 10
45.290774
 20
-2.111454
 30
0.0
 10
45.488696
 20
-3.306207
 30
0.0
 10
45.761548
 20
-4.474607
 30
0.0
 10
46.107263
 20
-5.614088
 30
0.0
 10
46.522225
 20
-6.722533
 30
0.0
 10
47.004367
 20
-7.796900
 30
0.0
 10
47.550586
 20
-8.835072
 30
0.0
 10
48.158818
 20
-9.834510
 30
0.0
 10
48.825444
 20
-10.792063
 30
0.0
 10
49.548396
 20
-11.706225
 30
0.0
 10
50.324576
 20
-12.573873
 30
0.0
 10
51.151398
 20
-13.391912
 30
0.0
 10
52.026799
 20
-14.158780
 30
0.0
 10
52.947155
 20
-14.871912
 30
0.0
 10
53.909889
 20
-15.527681
 30
0.0
 10
54.912411
 20
-16.125058
 30
0.0
 10
55.952657
 20
-16.660442
 30
0.0
 10
57.027011
 20
-17.131718
 30
0.0
 10
58.132885
 20
-17.536345
 30
0.0
 10
59.267701
 20
-17.871731
 30
0.0
 10
60.429386
 20
-18.135812
 30
0.0
 10
61.614328
 20
-18.324936
 30
0.0
 10
62.819939
 20
-18.437595
 30
0.0
 10
64.043637
 20
-18.470668
 30
0.0
 10
65.283353
 20
-18.422091
 30
0.0
 10
66.535475
 20
-18.289270
 30
0.0
 10
67.797413
 20
-18.069137
 30
0.0
 10
69.066585
 20
-17.760103
 30
0.0
 10
69.173556
 20
-17.676389
 30
0.0
 10
69.189576
 20
-17.541531
 30
0.0
 10
69.105859
 20
-17.435063
 30
0.0
 10
68.970983
 20
-17.419055
 30
0.0
 10
67.724031
 20
-17.722903
 30
0.0
 10
66.484831
 20
-17.938909
 30
0.0
 10
65.255450
 20
-18.070169
 30
0.0
 10
64.038469
 20
-18.118217
 30
0.0
 10
62.836475
 20
-18.086202
 30
0.0
 10
61.653084
 20
-17.976109
 30
0.0
 10
60.489849
 20
-17.790610
 30
0.0
 10
59.349865
 20
-17.532747
 30
0.0
 10
58.235723
 20
-17.204081
 30
0.0
 10
57.150516
 20
-16.807206
 30
0.0
 10
56.096318
 20
-16.345217
 30
0.0
 10
55.075709
 20
-15.820178
 30
0.0
 10
54.091790
 20
-15.234682
 30
0.0
 10
53.147143
 20
-14.591321
 30
0.0
 10
52.244355
 20
-13.892133
 30
0.0
 10
51.386010
 20
-13.140240
 30
0.0
 10
50.575207
 20
-12.337177
 30
0.0
 10
49.813496
 20
-11.486065
 30
0.0
 10
49.105013
 20
-10.589498
 30
0.0
 10
48.450788
 20
-9.650016
 30
0.0
 10
47.854960
 20
-8.669205
 30
0.0
 10
47.319076
 20
-7.650639
 30
0.0
 10
46.846752
 20
-6.595930
 30
0.0
 10
46.440058
 20
-5.508149
 30
0.0
 10
46.101579
 20
-4.389358
 30
0.0
 10
45.834411
 20
-3.242125
 30
0.0
 10
45.640625
 20
-2.069068
 30
0.0
 10
45.523319
 20
-0.872781
 30
0.0
 10
45.485079
 20
0.344196
 30
0.0
 10
45.528487
 20
1.580303
 30
0.0
 10
45.656127
 20
2.831915
 30
0.0
 10
45.870585
 20
4.096941
 30
0.0
 10
45.834930
 20
4.246801
 30
0.0
 10
45.694886
 20
4.311915
 30
0.0
  0
LWPOLYLINE
  5
10c
100
AcDbEntity
  8
Merged
 62
7
100
AcDbPolyline
 90
4
 70
1
 10
-33.872350
 20
-2.385351
 30
0.0
 10
-31.336073
 20
-5.546910
 30
0.0
 10
-36.036560
 20
-5.546910
 30
0.0
 10
-33.872350
 20
-2.385351
 30
0.0
  0
LWPOLYLINE
  5
10d
100
AcDbEntity
  8
Merged
 62
7
100
AcDbPolyline
 90
4
 70
1
 10
33.871834
 20
-2.385351
 30
0.0
 10
36.036044
 20
-5.546910
 30
0.0
 10
31.335554
 20
-5.546910
 30
0.0
 10
33.871834
 20
-2.385351
 30
0.0
  0
LWPOLYLINE
  5
10e
100
AcDbEntity
  8
Merged
 62
7
100
AcDbPolyline
 90
14
 70
1
 10
-36.447389
 20
-6.147911
 30
0.0
 10
-30.853930
 20
-6.147911
 30
0.0
 10
-26.692429
 20
-11.334671
 30
0.0
 10
-26.640750
 20
-11.458178
 30
0.0
 10
-26.516727
 20
-11.615790
 30
0.0
 10
-26.393221
 20
-11.707257
 30
0.0
 10
-26.300204
 20
-11.823515
 30
0.0
 10
-26.013399
 20
-11.823515
 30
0.0
 10
-25.975159
 20
-11.827669
 30
0.0
 10
-20.468518
 20
-11.827669
 30
0.0
 10
-23.906034
 20
-21.968645
 30
0.0
 10
-40.894146
 20
-21.968645
 30
0.0
 10
-47.277218
 20
-21.968645
 30
0.0
 10
-36.447389
 20
-6.147911
 30
0.0
  0
LWPOLYLINE
  5
10f
100
AcDbEntity
  8
Merged
 62
7
100
AcDbPolyline
 90
5
 70
1
 10
-28.133683
 20
-6.147911
 30
0.0
 10
-18.543054
 20
-6.147911
 30
0.0
 10
-19.960022
 20
-10.328010
 30
0.0
 10
-25.382430
 20
-10.328010
 30
0.0
 10
-28.133683
 20
-6.147911
 30
0.0
  0
LWPOLYLINE
  5
110
100
AcDbEntity
  8
Merged
 62
7
100
AcDbPolyline
 90
8
 70
1
 10
-17.909501
 20
-6.147911
 30
0.0
 10
-0.000517
 20
-6.147911
 30
0.0
 10
17.908984
 20
-6.147911
 30
0.0
 10
19.325952
 20
-10.328010
 30
0.0
 10
0.000000
 20
-10.328010
 30
0.0
 10
-0.000517
 20
-10.328010
 30
0.0
 10
-19.326469
 20
-10.328010
 30
0.0
 10
-17.909501
 20
-6.147911
 30
0.0
  0
LWPOLYLINE
  5
111
100
AcDbEntity
  8
Merged
 62
7
100
AcDbPolyline
 90
5
 70
1
 10
18.542537
 20
-6.147911
 30
0.0
 10
28.133167
 20
-6.147911
 30
0.0
 10
25.381913
 20
-10.328010
 30
0.0
 10
19.959505
 20
-10.328010
 30
0.0
 10
18.542537
 20
-6.147911
 30
0.0
  0
LWPOLYLINE
  5
112
100
AcDbEntity
  8
Merged
 62
7
100
AcDbPolyline
 90
14
 70
1
 10
30.853414
 20
-6.147911
 30
0.0
 10
36.446870
 20
-6.147911
 30
0.0
 10
47.276700
 20
-21.968645
 30
0.0
 10
40.893627
 20
-21.968645
 30
0.0
 10
23.905517
 20
-21.968645
 30
0.0
 10
20.468001
 20
-11.827669
 30
0.0
 10
25.974642
 20
-11.827669
 30
0.0
 10
26.012882
 20
-11.823515
 30
0.0
 10
26.299687
 20
-11.823515
 30
0.0
 10
26.392704
 20
-11.707257
 30
0.0
 10
26.516211
 20
-11.615790
 30
0.0
 10
26.640234
 20
-11.458178
 30
0.0
 10
26.691910
 20
-11.334671
 30
0.0
 10
30.853414
 20
-6.147911
 30
0.0
  0
LWPOLYLINE
  5
113
100
AcDbEntity
  8
Merged
 62
7
100
AcDbPolyline
 90
8
 70
1
 10
-19.834965
 20
-11.827669
 30
0.0
 10
-0.000517
 20
-11.827669
 30
0.0
 10
0.000000
 20
-11.827669
 30
0.0
 10
19.834448
 20
-11.827669
 30
0.0
 10
23.271964
 20
-21.968645
 30
0.0
 10
-0.000517
 20
-21.968645
 30
0.0
 10
-23.272481
 20
-21.968645
 30
0.0
 10
-19.834965
 20
-11.827669
 30
0.0
  0
LWPOLYLINE
  5
114
100
AcDbEntity
  8
Merged
 62
7
100
AcDbPolyline
 90
27
 70
1
 10
-2.421558
 20
-14.295199
 30
0.0
 10
-2.458765
 20
-14.298824
 30
0.0
 10
-3.250964
 20
-14.298824
 30
0.0
 10
-3.380156
 20
-14.329304
 30
0.0
 10
-3.475240
 20
-14.420771
 30
0.0
 10
-3.510380
 20
-14.548432
 30
0.0
 10
-3.475240
 20
-14.676570
 30
0.0
 10
-3.380156
 20
-14.768036
 30
0.0
 10
-3.250964
 20
-14.798543
 30
0.0
 10
-2.668054
 20
-14.798543
 30
0.0
 10
-2.668054
 20
-17.048004
 30
0.0
 10
-2.634465
 20
-17.173072
 30
0.0
 10
-2.542997
 20
-17.264539
 30
0.0
 10
-2.417940
 20
-17.298114
 30
0.0
 10
-2.292883
 20
-17.264539
 30
0.0
 10
-2.201416
 20
-17.173072
 30
0.0
 10
-2.167826
 20
-17.048004
 30
0.0
 10
-2.167826
 20
-14.798543
 30
0.0
 10
-1.584916
 20
-14.798543
 30
0.0
 10
-1.455725
 20
-14.768036
 30
0.0
 10
-1.360640
 20
-14.676570
 30
0.0
 10
-1.325500
 20
-14.548432
 30
0.0
 10
-1.360640
 20
-14.420771
 30
0.0
 10
-1.455725
 20
-14.329304
 30
0.0
 10
-1.584916
 20
-14.298824
 30
0.0
 10
-2.376082
 20
-14.298824
 30
0.0
 10
-2.421558
 20
-14.295199
 30
0.0
  0
LWPOLYLINE
  5
115
100
AcDbEntity
  8
Merged
 62
7
100
AcDbPolyline
 90
34
 70
1
 10
0.076481
 20
-14.295199
 30
0.0
 10
0.076481
 20
-14.296231
 30
0.0
 10
0.070280
 20
-14.296231
 30
0.0
 10
-0.037724
 20
-14.325177
 30
0.0
 10
-0.122473
 20
-14.398043
 30
0.0
 10
-0.903304
 20
-15.178881
 30
0.0
 10
-0.969450
 20
-15.254843
 30
0.0
 10
-1.002006
 20
-15.432617
 30
0.0
 10
-1.002006
 20
-15.732337
 30
0.0
 10
-1.002006
 20
-15.863067
 30
0.0
 10
-1.002006
 20
-17.047501
 30
0.0
 10
-0.968416
 20
-17.172543
 30
0.0
 10
-0.876949
 20
-17.264010
 30
0.0
 10
-0.751892
 20
-17.297612
 30
0.0
 10
-0.626835
 20
-17.264010
 30
0.0
 10
-0.535368
 20
-17.172543
 30
0.0
 10
-0.501778
 20
-17.047501
 30
0.0
 10
-0.501778
 20
-16.047561
 30
0.0
 10
0.664042
 20
-16.047561
 30
0.0
 10
0.664042
 20
-17.047501
 30
0.0
 10
0.731222
 20
-17.218025
 30
0.0
 10
0.896586
 20
-17.297082
 30
0.0
 10
0.921391
 20
-17.297082
 30
0.0
 10
1.093473
 20
-17.221121
 30
0.0
 10
1.164270
 20
-17.046972
 30
0.0
 10
1.164270
 20
-15.862565
 30
0.0
 10
1.164270
 20
-15.731807
 30
0.0
 10
1.164270
 20
-15.432617
 30
0.0
 10
1.135331
 20
-15.260002
 30
0.0
 10
1.066085
 20
-15.178881
 30
0.0
 10
0.284737
 20
-14.397514
 30
0.0
 10
0.193787
 20
-14.321049
 30
0.0
 10
0.078031
 20
-14.295199
 30
0.0
 10
0.076481
 20
-14.295199
 30
0.0
  0
LWPOLYLINE
  5
116
100
AcDbEntity
  8
Merged
 62
7
100
AcDbPolyline
 90
37
 70
1
 10
1.743563
 20
-14.295199
 30
0.0
 10
1.659847
 20
-14.311233
 30
0.0
 10
1.517220
 20
-14.431116
 30
0.0
 10
1.497066
 20
-14.616112
 30
0.0
 10
1.497066
 20
-16.149346
 30
0.0
 10
1.497066
 20
-16.280104
 30
0.0
 10
1.497066
 20
-17.048004
 30
0.0
 10
1.530656
 20
-17.173072
 30
0.0
 10
1.622123
 20
-17.264539
 30
0.0
 10
1.747180
 20
-17.298114
 30
0.0
 10
1.872237
 20
-17.264539
 30
0.0
 10
1.963704
 20
-17.173072
 30
0.0
 10
1.997294
 20
-17.048004
 30
0.0
 10
1.997294
 20
-16.465100
 30
0.0
 10
2.476335
 20
-16.465100
 30
0.0
 10
3.236495
 20
-17.225248
 30
0.0
 10
3.413228
 20
-17.298114
 30
0.0
 10
3.589962
 20
-17.225248
 30
0.0
 10
3.663342
 20
-17.048004
 30
0.0
 10
3.589962
 20
-16.871289
 30
0.0
 10
3.142961
 20
-16.424275
 30
0.0
 10
3.217375
 20
-16.348313
 30
0.0
 10
3.547070
 20
-16.018616
 30
0.0
 10
3.622518
 20
-15.944718
 30
0.0
 10
3.660759
 20
-15.846028
 30
0.0
 10
3.663342
 20
-15.760753
 30
0.0
 10
3.663342
 20
-15.017644
 30
0.0
 10
3.634403
 20
-14.845056
 30
0.0
 10
3.565157
 20
-14.763909
 30
0.0
 10
3.217891
 20
-14.416643
 30
0.0
 10
3.145544
 20
-14.341713
 30
0.0
 10
3.048910
 20
-14.302449
 30
0.0
 10
2.994132
 20
-14.296760
 30
0.0
 10
2.962093
 20
-14.299353
 30
0.0
 10
1.789038
 20
-14.299353
 30
0.0
 10
1.743563
 20
-14.295729
 30
0.0
 10
1.743563
 20
-14.295199
 30
0.0
  0
LWPOLYLINE
  5
117
100
AcDbEntity
  8
Merged
 62
7
100
AcDbPolyline
 90
68
 70
1
 10
-5.338692
 20
-14.295729
 30
0.0
 10
-5.393986
 20
-14.303481
 30
0.0
 10
-5.553149
 20
-14.413547
 30
0.0
 10
-5.904549
 20
-14.764941
 30
0.0
 10
-5.998084
 20
-14.932898
 30
0.0
 10
-6.000150
 20
-14.956658
 30
0.0
 10
-6.000150
 20
-14.963907
 30
0.0
 10
-6.000150
 20
-14.968035
 30
0.0
 10
-6.000150
 20
-15.345278
 30
0.0
 10
-5.995500
 20
-15.438279
 30
0.0
 10
-5.956226
 20
-15.531306
 30
0.0
 10
-5.883362
 20
-15.601580
 30
0.0
 10
-5.553149
 20
-15.932309
 30
0.0
 10
-5.460132
 20
-16.018087
 30
0.0
 10
-5.337142
 20
-16.047561
 30
0.0
 10
-5.321639
 20
-16.047561
 30
0.0
 10
-4.604370
 20
-16.047561
 30
0.0
 10
-4.334102
 20
-16.317833
 30
0.0
 10
-4.334102
 20
-16.527119
 30
0.0
 10
-4.604370
 20
-16.797390
 30
0.0
 10
-5.229655
 20
-16.797390
 30
0.0
 10
-5.573303
 20
-16.453723
 30
0.0
 10
-5.753137
 20
-16.378290
 30
0.0
 10
-5.892663
 20
-16.420650
 30
0.0
 10
-5.984648
 20
-16.534342
 30
0.0
 10
-5.997567
 20
-16.679545
 30
0.0
 10
-5.927287
 20
-16.807709
 30
0.0
 10
-5.553666
 20
-17.181327
 30
0.0
 10
-5.460649
 20
-17.267105
 30
0.0
 10
-5.337659
 20
-17.297082
 30
0.0
 10
-5.321639
 20
-17.297082
 30
0.0
 10
-4.500501
 20
-17.297082
 30
0.0
 10
-4.374410
 20
-17.268164
 30
0.0
 10
-4.279842
 20
-17.180295
 30
0.0
 10
-3.950663
 20
-16.851127
 30
0.0
 10
-3.876766
 20
-16.779293
 30
0.0
 10
-3.838009
 20
-16.683699
 30
0.0
 10
-3.834391
 20
-16.589640
 30
0.0
 10
-3.834391
 20
-16.227901
 30
0.0
 10
-3.837492
 20
-16.173133
 30
0.0
 10
-3.841109
 20
-16.153500
 30
0.0
 10
-3.842143
 20
-16.149876
 30
0.0
 10
-3.930510
 20
-16.013959
 30
0.0
 10
-4.280359
 20
-15.664127
 30
0.0
 10
-4.352189
 20
-15.590229
 30
0.0
 10
-4.447274
 20
-15.551468
 30
0.0
 10
-4.503084
 20
-15.544747
 30
0.0
 10
-4.537191
 20
-15.547314
 30
0.0
 10
-5.229655
 20
-15.547314
 30
0.0
 10
-5.500439
 20
-15.276539
 30
0.0
 10
-5.500439
 20
-15.067783
 30
0.0
 10
-5.230172
 20
-14.797511
 30
0.0
 10
-4.603853
 20
-14.797511
 30
0.0
 10
-4.260722
 20
-15.140622
 30
0.0
 10
-4.148067
 20
-15.209361
 30
0.0
 10
-4.016809
 20
-15.211954
 30
0.0
 10
-3.902604
 20
-15.146311
 30
0.0
 10
-3.836975
 20
-15.032117
 30
0.0
 10
-3.839042
 20
-14.900857
 30
0.0
 10
-3.907255
 20
-14.788197
 30
0.0
 10
-4.279325
 20
-14.416140
 30
0.0
 10
-4.351672
 20
-14.341210
 30
0.0
 10
-4.448307
 20
-14.301920
 30
0.0
 10
-4.503084
 20
-14.296231
 30
0.0
 10
-4.535124
 20
-14.298824
 30
0.0
 10
-5.297868
 20
-14.298824
 30
0.0
 10
-5.338692
 20
-14.296231
 30
0.0
 10
-5.338692
 20
-14.295729
 30
0.0
  0
LWPOLYLINE
  5
118
100
AcDbEntity
  8
Merged
 62
7
100
AcDbPolyline
 90
27
 70
1
 10
5.075659
 20
-14.295729
 30
0.0
 10
5.038452
 20
-14.299353
 30
0.0
 10
4.246252
 20
-14.299353
 30
0.0
 10
4.117061
 20
-14.329304
 30
0.0
 10
4.021977
 20
-14.421300
 30
0.0
 10
3.986837
 20
-14.548935
 30
0.0
 10
4.021977
 20
-14.677099
 30
0.0
 10
4.117061
 20
-14.768565
 30
0.0
 10
4.246252
 20
-14.799045
 30
0.0
 10
4.829679
 20
-14.799045
 30
0.0
 10
4.829679
 20
-17.048533
 30
0.0
 10
4.860169
 20
-17.177200
 30
0.0
 10
4.951636
 20
-17.272794
 30
0.0
 10
5.079277
 20
-17.307930
 30
0.0
 10
5.207434
 20
-17.272794
 30
0.0
 10
5.298901
 20
-17.177200
 30
0.0
 10
5.329390
 20
-17.048533
 30
0.0
 10
5.329390
 20
-14.799045
 30
0.0
 10
5.912817
 20
-14.799045
 30
0.0
 10
6.042009
 20
-14.768565
 30
0.0
 10
6.137093
 20
-14.677099
 30
0.0
 10
6.172233
 20
-14.548935
 30
0.0
 10
6.137093
 20
-14.421300
 30
0.0
 10
6.042009
 20
-14.329304
 30
0.0
 10
5.912817
 20
-14.299353
 30
0.0
 10
5.121135
 20
-14.299353
 30
0.0
 10
5.075659
 20
-14.295729
 30
0.0
  0
LWPOLYLINE
  5
119
100
AcDbEntity
  8
Merged
 62
7
100
AcDbPolyline
 90
10
 70
1
 10
1.997294
 20
-14.797511
 30
0.0
 10
2.893363
 20
-14.797511
 30
0.0
 10
3.163631
 20
-15.067783
 30
0.0
 10
3.163631
 20
-15.693046
 30
0.0
 10
2.892847
 20
-15.963847
 30
0.0
 10
2.613277
 20
-15.963847
 30
0.0
 10
2.577620
 20
-15.961254
 30
0.0
 10
2.543514
 20
-15.963847
 30
0.0
 10
1.997294
 20
-15.963847
 30
0.0
 10
1.997294
 20
-14.797511
 30
0.0
  0
LWPOLYLINE
  5
11a
100
AcDbEntity
  8
Merged
 62
7
100
AcDbPolyline
 90
6
 70
1
 10
0.081132
 20
-14.900857
 30
0.0
 10
0.664042
 20
-15.483761
 30
0.0
 10
0.664042
 20
-15.547314
 30
0.0
 10
-0.501778
 20
-15.547314
 30
0.0
 10
-0.501778
 20
-15.483761
 30
0.0
 10
0.081132
 20
-14.900857
 30
0.0
  0
LWPOLYLINE
  5
11b
100
AcDbEntity
  8
Merged
 62
7
100
AcDbPolyline
 90
38
 70
1
 10
63.494317
 20
-21.916972
 30
0.0
 10
63.493798
 20
-21.917475
 30
0.0
 10
63.321716
 20
-21.993437
 30
0.0
 10
63.319133
 20
-21.996030
 30
0.0
 10
62.847326
 20
-22.467835
 30
0.0
 10
62.781180
 20
-22.543796
 30
0.0
 10
62.748626
 20
-22.721570
 30
0.0
 10
62.748626
 20
-24.632550
 30
0.0
 10
62.759992
 20
-24.748305
 30
0.0
 10
62.822005
 20
-24.845989
 30
0.0
 10
62.824590
 20
-24.848555
 30
0.0
 10
63.276758
 20
-25.300728
 30
0.0
 10
63.427136
 20
-25.411324
 30
0.0
 10
63.550125
 20
-25.419076
 30
0.0
 10
64.446711
 20
-25.419076
 30
0.0
 10
64.572803
 20
-25.410795
 30
0.0
 10
64.720081
 20
-25.300728
 30
0.0
 10
65.164499
 20
-24.855805
 30
0.0
 10
65.175350
 20
-24.845989
 30
0.0
 10
65.183102
 20
-24.838237
 30
0.0
 10
65.186719
 20
-24.834109
 30
0.0
 10
65.199122
 20
-24.819107
 30
0.0
 10
65.200670
 20
-24.816541
 30
0.0
 10
65.248732
 20
-24.634640
 30
0.0
 10
65.248732
 20
-22.721041
 30
0.0
 10
65.220308
 20
-22.549485
 30
0.0
 10
65.219792
 20
-22.549485
 30
0.0
 10
65.150545
 20
-22.468364
 30
0.0
 10
64.685458
 20
-22.003782
 30
0.0
 10
64.673054
 20
-21.990870
 30
0.0
 10
64.667887
 20
-21.985684
 30
0.0
 10
64.663754
 20
-21.982086
 30
0.0
 10
64.648768
 20
-21.969677
 30
0.0
 10
64.646183
 20
-21.967084
 30
0.0
 10
64.496320
 20
-21.916972
 30
0.0
 10
64.462215
 20
-21.919539
 30
0.0
 10
63.536174
 20
-21.919539
 30
0.0
 10
63.494317
 20
-21.916972
 30
0.0
  0
LWPOLYLINE
  5
11c
100
AcDbEntity
  8
Merged
 62
7
100
AcDbPolyline
 90
41
 70
1
 10
-69.756465
 20
-21.917475
 30
0.0
 10
-69.755949
 20
-21.919539
 30
0.0
 10
-69.911494
 20
-21.980525
 30
0.0
 10
-69.912013
 20
-21.980525
 30
0.0
 10
-69.912529
 20
-21.980525
 30
0.0
 10
-69.927515
 20
-21.994469
 30
0.0
 10
-69.930097
 20
-21.997061
 30
0.0
 10
-70.405006
 20
-22.471459
 30
0.0
 10
-70.498539
 20
-22.639390
 30
0.0
 10
-70.500605
 20
-22.663176
 30
0.0
 10
-70.500605
 20
-22.670929
 30
0.0
 10
-70.500605
 20
-22.674554
 30
0.0
 10
-70.500605
 20
-24.629454
 30
0.0
 10
-70.495438
 20
-24.730736
 30
0.0
 10
-70.456166
 20
-24.822203
 30
0.0
 10
-70.383818
 20
-24.890942
 30
0.0
 10
-69.972473
 20
-25.301760
 30
0.0
 10
-69.822094
 20
-25.412356
 30
0.0
 10
-69.699105
 20
-25.420108
 30
0.0
 10
-68.803036
 20
-25.420108
 30
0.0
 10
-68.676946
 20
-25.411853
 30
0.0
 10
-68.529668
 20
-25.301760
 30
0.0
 10
-68.118323
 20
-24.890439
 30
0.0
 10
-68.044425
 20
-24.818605
 30
0.0
 10
-68.005150
 20
-24.722984
 30
0.0
 10
-68.001534
 20
-24.633079
 30
0.0
 10
-68.001534
 20
-22.685401
 30
0.0
 10
-68.002568
 20
-22.646111
 30
0.0
 10
-68.003084
 20
-22.643015
 30
0.0
 10
-68.004634
 20
-22.631135
 30
0.0
 10
-68.097651
 20
-22.470930
 30
0.0
 10
-68.574626
 20
-21.994469
 30
0.0
 10
-68.577209
 20
-21.991902
 30
0.0
 10
-68.582376
 20
-21.986716
 30
0.0
 10
-68.586511
 20
-21.983118
 30
0.0
 10
-68.601497
 20
-21.970709
 30
0.0
 10
-68.604082
 20
-21.968116
 30
0.0
 10
-68.754461
 20
-21.917475
 30
0.0
 10
-68.788566
 20
-21.920068
 30
0.0
 10
-69.714091
 20
-21.920068
 30
0.0
 10
-69.756465
 20
-21.917475
 30
0.0
  0
LWPOLYLINE
  5
11d
100
AcDbEntity
  8
Merged
 62
7
100
AcDbPolyline
 90
59
 70
1
 10
-73.253925
 20
-21.919036
 30
0.0
 10
-73.429627
 20
-21.994469
 30
0.0
 10
-73.500424
 20
-22.172771
 30
0.0
 10
-73.500424
 20
-24.135424
 30
0.0
 10
-73.489055
 20
-24.250676
 30
0.0
 10
-73.427042
 20
-24.348863
 30
0.0
 10
-73.424460
 20
-24.351430
 30
0.0
 10
-72.427621
 20
-25.348274
 30
0.0
 10
-72.422970
 20
-25.352401
 30
0.0
 10
-72.421935
 20
-25.352401
 30
0.0
 10
-72.409018
 20
-25.363779
 30
0.0
 10
-72.389381
 20
-25.378251
 30
0.0
 10
-72.388862
 20
-25.378251
 30
0.0
 10
-72.387830
 20
-25.378251
 30
0.0
 10
-72.375945
 20
-25.385474
 30
0.0
 10
-72.363542
 20
-25.392724
 30
0.0
 10
-72.345971
 20
-25.400476
 30
0.0
 10
-72.344939
 20
-25.400476
 30
0.0
 10
-72.344420
 20
-25.400476
 30
0.0
 10
-72.324267
 20
-25.407699
 30
0.0
 10
-72.318584
 20
-25.410292
 30
0.0
 10
-72.309281
 20
-25.412885
 30
0.0
 10
-72.289128
 20
-25.417013
 30
0.0
 10
-72.286027
 20
-25.417013
 30
0.0
 10
-72.267424
 20
-25.419606
 30
0.0
 10
-72.264323
 20
-25.419606
 30
0.0
 10
-72.255020
 20
-25.419606
 30
0.0
 10
-72.221947
 20
-25.419606
 30
0.0
 10
-72.203344
 20
-25.416484
 30
0.0
 10
-72.197661
 20
-25.416484
 30
0.0
 10
-72.196627
 20
-25.416484
 30
0.0
 10
-72.150118
 20
-25.401508
 30
0.0
 10
-72.149602
 20
-25.401508
 30
0.0
 10
-72.135648
 20
-25.394788
 30
0.0
 10
-72.121178
 20
-25.387035
 30
0.0
 10
-72.118080
 20
-25.384442
 30
0.0
 10
-72.100509
 20
-25.372563
 30
0.0
 10
-72.087073
 20
-25.361715
 30
0.0
 10
-72.081387
 20
-25.356555
 30
0.0
 10
-72.073638
 20
-25.349306
 30
0.0
 10
-71.084551
 20
-24.359711
 30
0.0
 10
-71.074214
 20
-24.349895
 30
0.0
 10
-71.066464
 20
-24.342143
 30
0.0
 10
-71.062845
 20
-24.338015
 30
0.0
 10
-71.050444
 20
-24.323014
 30
0.0
 10
-71.047859
 20
-24.320447
 30
0.0
 10
-71.000318
 20
-24.136456
 30
0.0
 10
-71.000318
 20
-22.173803
 30
0.0
 10
-71.073698
 20
-21.992934
 30
0.0
 10
-71.254049
 20
-21.920068
 30
0.0
 10
-71.430266
 20
-21.995500
 30
0.0
 10
-71.500545
 20
-22.173803
 30
0.0
 10
-71.500545
 20
-24.069807
 30
0.0
 10
-72.250371
 20
-24.819107
 30
0.0
 10
-72.999679
 20
-24.069807
 30
0.0
 10
-72.999679
 20
-22.173803
 30
0.0
 10
-73.073059
 20
-21.992934
 30
0.0
 10
-73.253409
 20
-21.920068
 30
0.0
 10
-73.253925
 20
-21.919036
 30
0.0
  0
LWPOLYLINE
  5
11e
100
AcDbEntity
  8
Merged
 62
7
100
AcDbPolyline
 90
20
 70
1
 10
65.994420
 20
-21.919036
 30
0.0
 10
65.994420
 20
-21.920068
 30
0.0
 10
65.818721
 20
-21.996030
 30
0.0
 10
65.748442
 20
-22.173803
 30
0.0
 10
65.748442
 20
-25.104355
 30
0.0
 10
65.750509
 20
-25.248023
 30
0.0
 10
65.831641
 20
-25.367403
 30
0.0
 10
65.940678
 20
-25.424236
 30
0.0
 10
66.064186
 20
-25.421669
 30
0.0
 10
67.997401
 20
-25.421669
 30
0.0
 10
68.126076
 20
-25.391692
 30
0.0
 10
68.221675
 20
-25.299696
 30
0.0
 10
68.256817
 20
-25.172061
 30
0.0
 10
68.221675
 20
-25.044426
 30
0.0
 10
68.126076
 20
-24.952431
 30
0.0
 10
67.997401
 20
-24.921951
 30
0.0
 10
66.248153
 20
-24.921951
 30
0.0
 10
66.248153
 20
-22.172771
 30
0.0
 10
66.174773
 20
-21.992405
 30
0.0
 10
65.994420
 20
-21.919036
 30
0.0
  0
LWPOLYLINE
  5
11f
100
AcDbEntity
  8
Merged
 62
7
100
AcDbPolyline
 90
43
 70
1
 10
71.992506
 20
-21.919036
 30
0.0
 10
71.832309
 20
-21.980525
 30
0.0
 10
71.749626
 20
-22.130385
 30
0.0
 10
71.746525
 20
-22.186186
 30
0.0
 10
71.746525
 20
-24.154553
 30
0.0
 10
71.746525
 20
-24.185562
 30
0.0
 10
71.746525
 20
-25.171532
 30
0.0
 10
71.777013
 20
-25.300728
 30
0.0
 10
71.868482
 20
-25.395820
 30
0.0
 10
71.996123
 20
-25.430956
 30
0.0
 10
72.123763
 20
-25.395820
 30
0.0
 10
72.215748
 20
-25.300728
 30
0.0
 10
72.246236
 20
-25.171532
 30
0.0
 10
72.246236
 20
-24.422232
 30
0.0
 10
72.892708
 20
-24.422232
 30
0.0
 10
73.818750
 20
-25.348274
 30
0.0
 10
73.930888
 20
-25.416484
 30
0.0
 10
74.062664
 20
-25.419076
 30
0.0
 10
74.176869
 20
-25.353962
 30
0.0
 10
74.241980
 20
-25.239768
 30
0.0
 10
74.240430
 20
-25.108509
 30
0.0
 10
74.172217
 20
-24.995849
 30
0.0
 10
73.585689
 20
-24.409321
 30
0.0
 10
73.672507
 20
-24.349895
 30
0.0
 10
74.127775
 20
-23.894627
 30
0.0
 10
74.204256
 20
-23.820199
 30
0.0
 10
74.243015
 20
-23.720478
 30
0.0
 10
74.245597
 20
-23.635203
 30
0.0
 10
74.245597
 20
-22.725195
 30
0.0
 10
74.217175
 20
-22.553612
 30
0.0
 10
74.216660
 20
-22.553612
 30
0.0
 10
74.147413
 20
-22.472491
 30
0.0
 10
73.682326
 20
-22.007909
 30
0.0
 10
73.669922
 20
-21.994998
 30
0.0
 10
73.664755
 20
-21.989838
 30
0.0
 10
73.660619
 20
-21.986214
 30
0.0
 10
73.645633
 20
-21.973805
 30
0.0
 10
73.643567
 20
-21.971212
 30
0.0
 10
73.493188
 20
-21.920570
 30
0.0
 10
73.459081
 20
-21.923163
 30
0.0
 10
72.038496
 20
-21.923163
 30
0.0
 10
71.992506
 20
-21.919539
 30
0.0
 10
71.992506
 20
-21.919036
 30
0.0
  0
LWPOLYLINE
  5
120
100
AcDbEntity
  8
Merged
 62
7
100
AcDbPolyline
 90
20
 70
1
 10
-67.255327
 20
-21.920068
 30
0.0
 10
-67.431544
 20
-21.995500
 30
0.0
 10
-67.501823
 20
-22.173803
 30
0.0
 10
-67.501823
 20
-25.106445
 30
0.0
 10
-67.505956
 20
-25.221168
 30
0.0
 10
-67.458415
 20
-25.326049
 30
0.0
 10
-67.368497
 20
-25.398412
 30
0.0
 10
-67.255842
 20
-25.422701
 30
0.0
 10
-67.244473
 20
-25.422701
 30
0.0
 10
-65.252349
 20
-25.422701
 30
0.0
 10
-65.123674
 20
-25.392195
 30
0.0
 10
-65.028072
 20
-25.300226
 30
0.0
 10
-64.992933
 20
-25.172591
 30
0.0
 10
-65.028072
 20
-25.044929
 30
0.0
 10
-65.123674
 20
-24.952960
 30
0.0
 10
-65.252349
 20
-24.922983
 30
0.0
 10
-67.001596
 20
-24.922983
 30
0.0
 10
-67.001596
 20
-22.173803
 30
0.0
 10
-67.074976
 20
-21.992934
 30
0.0
 10
-67.255327
 20
-21.920068
 30
0.0
  0
LWPOLYLINE
  5
121
100
AcDbEntity
  8
Merged
 62
7
100
AcDbPolyline
 90
20
 70
1
 10
-61.257244
 20
-21.920068
 30
0.0
 10
-61.433459
 20
-21.995500
 30
0.0
 10
-61.503740
 20
-22.173803
 30
0.0
 10
-61.503740
 20
-25.106445
 30
0.0
 10
-61.507873
 20
-25.221168
 30
0.0
 10
-61.460332
 20
-25.326049
 30
0.0
 10
-61.370414
 20
-25.398412
 30
0.0
 10
-61.257759
 20
-25.422701
 30
0.0
 10
-61.246390
 20
-25.422701
 30
0.0
 10
-59.254263
 20
-25.422701
 30
0.0
 10
-59.125591
 20
-25.392195
 30
0.0
 10
-59.029989
 20
-25.300226
 30
0.0
 10
-58.994850
 20
-25.172591
 30
0.0
 10
-59.029989
 20
-25.044929
 30
0.0
 10
-59.125591
 20
-24.952960
 30
0.0
 10
-59.254263
 20
-24.922983
 30
0.0
 10
-61.003511
 20
-24.922983
 30
0.0
 10
-61.003511
 20
-22.173803
 30
0.0
 10
-61.076893
 20
-21.992934
 30
0.0
 10
-61.257244
 20
-21.920068
 30
0.0
  0
LWPOLYLINE
  5
122
100
AcDbEntity
  8
Merged
 62
7
100
AcDbPolyline
 90
28
 70
1
 10
59.996337
 20
-21.920068
 30
0.0
 10
59.820638
 20
-21.996030
 30
0.0
 10
59.750357
 20
-22.173803
 30
0.0
 10
59.750357
 20
-24.132328
 30
0.0
 10
59.755527
 20
-24.233611
 30
0.0
 10
59.794799
 20
-24.325077
 30
0.0
 10
59.867146
 20
-24.393816
 30
0.0
 10
60.783888
 20
-25.310042
 30
0.0
 10
60.876386
 20
-25.396851
 30
0.0
 10
60.999894
 20
-25.426829
 30
0.0
 10
61.000410
 20
-25.426829
 30
0.0
 10
61.122883
 20
-25.396851
 30
0.0
 10
61.215384
 20
-25.310544
 30
0.0
 10
62.133157
 20
-24.393287
 30
0.0
 10
62.207055
 20
-24.321479
 30
0.0
 10
62.245814
 20
-24.225859
 30
0.0
 10
62.249431
 20
-24.131826
 30
0.0
 10
62.249431
 20
-22.173803
 30
0.0
 10
62.176049
 20
-21.992934
 30
0.0
 10
61.995698
 20
-21.920068
 30
0.0
 10
61.819999
 20
-21.996030
 30
0.0
 10
61.749720
 20
-22.173803
 30
0.0
 10
61.749720
 20
-24.069278
 30
0.0
 10
60.999894
 20
-24.819107
 30
0.0
 10
60.250070
 20
-24.069278
 30
0.0
 10
60.250070
 20
-22.173803
 30
0.0
 10
60.176688
 20
-21.992934
 30
0.0
 10
59.996337
 20
-21.920068
 30
0.0
  0
LWPOLYLINE
  5
123
100
AcDbEntity
  8
Merged
 62
7
100
AcDbPolyline
 90
9
 70
1
 10
-69.647430
 20
-22.419786
 30
0.0
 10
-68.854712
 20
-22.419786
 30
0.0
 10
-68.501244
 20
-22.773243
 30
0.0
 10
-68.501244
 20
-24.564869
 30
0.0
 10
-68.855228
 20
-24.918855
 30
0.0
 10
-69.646911
 20
-24.918855
 30
0.0
 10
-70.000895
 20
-24.564869
 30
0.0
 10
-70.000895
 20
-22.773243
 30
0.0
 10
-69.647430
 20
-22.419786
 30
0.0
  0
LWPOLYLINE
  5
124
100
AcDbEntity
  8
Merged
 62
7
100
AcDbPolyline
 90
9
 70
1
 10
63.602320
 20
-22.419786
 30
0.0
 10
64.395554
 20
-22.419786
 30
0.0
 10
64.748503
 20
-22.772714
 30
0.0
 10
64.748503
 20
-24.565372
 30
0.0
 10
64.395035
 20
-24.918855
 30
0.0
 10
63.602836
 20
-24.918855
 30
0.0
 10
63.249368
 20
-24.565372
 30
0.0
 10
63.249368
 20
-22.772714
 30
0.0
 10
63.602320
 20
-22.419786
 30
0.0
  0
LWPOLYLINE
  5
125
100
AcDbEntity
  8
Merged
 62
7
100
AcDbPolyline
 90
10
 70
1
 10
72.246236
 20
-22.419786
 30
0.0
 10
73.392419
 20
-22.419786
 30
0.0
 10
73.745886
 20
-22.773243
 30
0.0
 10
73.745886
 20
-23.565432
 30
0.0
 10
73.392419
 20
-23.918915
 30
0.0
 10
73.027585
 20
-23.918915
 30
0.0
 10
72.993478
 20
-23.916322
 30
0.0
 10
72.959370
 20
-23.918915
 30
0.0
 10
72.246236
 20
-23.918915
 30
0.0
 10
72.246236
 20
-22.419786
 30
0.0
  0
LWPOLYLINE
  5
126
100
AcDbEntity
  8
Merged
 62
7
100
AcDbPolyline
 90
58
 70
1
 10
-58.611410
 20
-22.472491
 30
0.0
 10
-54.974940
 20
-22.472491
 30
0.0
 10
-40.893627
 20
-22.472491
 30
0.0
 10
-0.000517
 20
-22.472491
 30
0.0
 10
40.893627
 20
-22.472491
 30
0.0
 10
54.974940
 20
-22.472491
 30
0.0
 10
58.611410
 20
-22.472491
 30
0.0
 10
56.846660
 20
-24.237765
 30
0.0
 10
56.775863
 20
-24.320950
 30
0.0
 10
56.772246
 20
-24.327141
 30
0.0
 10
56.771212
 20
-24.329734
 30
0.0
 10
56.745891
 20
-24.492506
 30
0.0
 10
56.745891
 20
-35.387968
 30
0.0
 10
56.667858
 20
-35.571430
 30
0.0
 10
56.722118
 20
-35.763147
 30
0.0
 10
56.745891
 20
-35.797781
 30
0.0
 10
56.745891
 20
-43.206617
 30
0.0
 10
56.760877
 20
-43.332718
 30
0.0
 10
56.849759
 20
-43.452600
 30
0.0
 10
57.745828
 20
-44.348665
 30
0.0
 10
57.745828
 20
-53.638529
 30
0.0
 10
57.542742
 20
-53.841624
 30
0.0
 10
34.645431
 20
-53.841624
 30
0.0
 10
34.460945
 20
-53.787357
 30
0.0
 10
34.362244
 20
-53.809080
 30
0.0
 10
33.359204
 20
-52.806547
 30
0.0
 10
33.228463
 20
-52.710953
 30
0.0
 10
33.144230
 20
-52.695449
 30
0.0
 10
33.109606
 20
-52.698544
 30
0.0
 10
0.040824
 20
-52.698544
 30
0.0
 10
0.000517
 20
-52.701640
 30
0.0
 10
-0.041341
 20
-52.698544
 30
0.0
 10
-33.109606
 20
-52.698544
 30
0.0
 10
-33.152498
 20
-52.695449
 30
0.0
 10
-33.218128
 20
-52.706826
 30
0.0
 10
-33.222779
 20
-52.706826
 30
0.0
 10
-33.226912
 20
-52.709921
 30
0.0
 10
-33.357137
 20
-52.803451
 30
0.0
 10
-34.362244
 20
-53.808551
 30
0.0
 10
-34.470763
 20
-53.786855
 30
0.0
 10
-34.646465
 20
-53.841624
 30
0.0
 10
-57.543258
 20
-53.841624
 30
0.0
 10
-57.746347
 20
-53.638529
 30
0.0
 10
-57.746347
 20
-44.348665
 30
0.0
 10
-56.854410
 20
-43.456225
 30
0.0
 10
-56.758808
 20
-43.325468
 30
0.0
 10
-56.746407
 20
-43.206114
 30
0.0
 10
-56.746407
 20
-35.797781
 30
0.0
 10
-56.722637
 20
-35.763147
 30
0.0
 10
-56.668892
 20
-35.571430
 30
0.0
 10
-56.746407
 20
-35.388497
 30
0.0
 10
-56.746407
 20
-24.492506
 30
0.0
 10
-56.765010
 20
-24.344207
 30
0.0
 10
-56.775863
 20
-24.321982
 30
0.0
 10
-56.776379
 20
-24.321982
 30
0.0
 10
-56.846660
 20
-24.239299
 30
0.0
 10
-58.611926
 20
-22.473523
 30
0.0
 10
-58.611410
 20
-22.472491
 30
0.0
  0
LWPOLYLINE
  5
127
100
AcDbEntity
  8
Merged
 62
7
100
AcDbPolyline
 90
15
 70
1
 10
-64.253443
 20
-23.420229
 30
0.0
 10
-64.382116
 20
-23.450206
 30
0.0
 10
-64.477717
 20
-23.542175
 30
0.0
 10
-64.512341
 20
-23.669837
 30
0.0
 10
-64.477717
 20
-23.797472
 30
0.0
 10
-64.382116
 20
-23.889441
 30
0.0
 10
-64.253443
 20
-23.919947
 30
0.0
 10
-62.254082
 20
-23.919947
 30
0.0
 10
-62.125408
 20
-23.889441
 30
0.0
 10
-62.029806
 20
-23.797472
 30
0.0
 10
-61.995182
 20
-23.669837
 30
0.0
 10
-62.029806
 20
-23.542175
 30
0.0
 10
-62.125408
 20
-23.450206
 30
0.0
 10
-62.254082
 20
-23.420229
 30
0.0
 10
-64.253443
 20
-23.420229
 30
0.0
  0
LWPOLYLINE
  5
128
100
AcDbEntity
  8
Merged
 62
7
100
AcDbPolyline
 90
15
 70
1
 10
68.996822
 20
-23.420229
 30
0.0
 10
68.868147
 20
-23.450206
 30
0.0
 10
68.772545
 20
-23.542175
 30
0.0
 10
68.737924
 20
-23.669837
 30
0.0
 10
68.772545
 20
-23.797472
 30
0.0
 10
68.868147
 20
-23.889441
 30
0.0
 10
68.996822
 20
-23.919947
 30
0.0
 10
70.996183
 20
-23.919947
 30
0.0
 10
71.124858
 20
-23.889441
 30
0.0
 10
71.220460
 20
-23.797472
 30
0.0
 10
71.255083
 20
-23.669837
 30
0.0
 10
71.220460
 20
-23.542175
 30
0.0
 10
71.124858
 20
-23.450206
 30
0.0
 10
70.996183
 20
-23.420229
 30
0.0
 10
68.996822
 20
-23.420229
 30
0.0
  0
LWPOLYLINE
  5
129
100
AcDbEntity
  8
Merged
 62
7
100
AcDbPolyline
 90
6
 70
1
 10
-67.418106
 20
-26.369407
 30
0.0
 10
-57.254386
 20
-26.369407
 30
0.0
 10
-57.254386
 20
-35.478402
 30
0.0
 10
-66.032145
 20
-48.301910
 30
0.0
 10
-67.408806
 20
-26.447432
 30
0.0
 10
-67.418106
 20
-26.369407
 30
0.0
  0
LWPOLYLINE
  5
12a
100
AcDbEntity
  8
Merged
 62
7
100
AcDbPolyline
 90
6
 70
1
 10
57.253870
 20
-26.369407
 30
0.0
 10
67.418106
 20
-26.369407
 30
0.0
 10
67.408287
 20
-26.447962
 30
0.0
 10
66.031629
 20
-48.302439
 30
0.0
 10
57.253870
 20
-35.478932
 30
0.0
 10
57.253870
 20
-26.369407
 30
0.0
  0
LWPOLYLINE
  5
12b
100
AcDbEntity
  8
Merged
 62
7
100
AcDbPolyline
 90
6
 70
1
 10
68.596846
 20
-26.370439
 30
0.0
 10
70.833919
 20
-26.370439
 30
0.0
 10
69.399899
 20
-53.224086
 30
0.0
 10
67.132338
 20
-49.911635
 30
0.0
 10
68.605633
 20
-26.524426
 30
0.0
 10
68.596846
 20
-26.370439
 30
0.0
  0
LWPOLYLINE
  5
12c
100
AcDbEntity
  8
Merged
 62
7
100
AcDbPolyline
 90
6
 70
1
 10
-70.834435
 20
-26.373032
 30
0.0
 10
-68.597881
 20
-26.373032
 30
0.0
 10
-68.606149
 20
-26.526490
 30
0.0
 10
-67.132854
 20
-49.913699
 30
0.0
 10
-69.400415
 20
-53.226176
 30
0.0
 10
-70.834435
 20
-26.373032
 30
0.0
  0
LWPOLYLINE
  5
12d
100
AcDbEntity
  8
Merged
 62
7
100
AcDbPolyline
 90
36
 70
1
 10
-57.254386
 20
-36.542954
 30
0.0
 10
-57.254386
 20
-43.138937
 30
0.0
 10
-58.153557
 20
-44.038097
 30
0.0
 10
-58.223835
 20
-44.120250
 30
0.0
 10
-58.226420
 20
-44.124404
 30
0.0
 10
-58.228487
 20
-44.128531
 30
0.0
 10
-58.254326
 20
-44.292864
 30
0.0
 10
-58.254326
 20
-53.707268
 30
0.0
 10
-58.237789
 20
-53.837496
 30
0.0
 10
-58.235723
 20
-53.843185
 30
0.0
 10
-58.233654
 20
-53.847841
 30
0.0
 10
-58.152522
 20
-53.951187
 30
0.0
 10
-57.856935
 20
-54.246780
 30
0.0
 10
-57.770633
 20
-54.320678
 30
0.0
 10
-57.768051
 20
-54.323774
 30
0.0
 10
-57.764950
 20
-54.326367
 30
0.0
 10
-57.599585
 20
-54.352719
 30
0.0
 10
-34.879523
 20
-54.352719
 30
0.0
 10
-38.906154
 20
-66.267753
 30
0.0
 10
-44.887700
 20
-66.267753
 30
0.0
 10
-44.934209
 20
-66.264129
 30
0.0
 10
-45.103190
 20
-66.332338
 30
0.0
 10
-45.173987
 20
-66.438277
 30
0.0
 10
-45.184322
 20
-66.565912
 30
0.0
 10
-45.184322
 20
-72.029664
 30
0.0
 10
-45.169336
 20
-72.155764
 30
0.0
 10
-45.080452
 20
-72.275647
 30
0.0
 10
-43.829367
 20
-73.526729
 30
0.0
 10
-43.829367
 20
-76.566342
 30
0.0
 10
-44.429847
 20
-77.167343
 30
0.0
 10
-45.083553
 20
-77.821049
 30
0.0
 10
-45.153315
 20
-77.903202
 30
0.0
 10
-50.369018
 20
-59.979745
 30
0.0
 10
-65.784616
 20
-52.233989
 30
0.0
 10
-65.970650
 20
-49.276529
 30
0.0
 10
-57.254386
 20
-36.542954
 30
0.0
  0
LWPOLYLINE
  5
12e
100
AcDbEntity
  8
Merged
 62
7
100
AcDbPolyline
 90
34
 70
1
 10
57.253870
 20
-36.543456
 30
0.0
 10
65.970134
 20
-49.276529
 30
0.0
 10
65.784098
 20
-52.233989
 30
0.0
 10
50.368502
 20
-59.979745
 30
0.0
 10
45.152799
 20
-77.903202
 30
0.0
 10
45.083553
 20
-77.821552
 30
0.0
 10
44.444317
 20
-77.182848
 30
0.0
 10
44.429331
 20
-77.167343
 30
0.0
 10
43.828848
 20
-76.566845
 30
0.0
 10
43.828848
 20
-73.527259
 30
0.0
 10
45.078385
 20
-72.277208
 30
0.0
 10
45.175019
 20
-72.138699
 30
0.0
 10
45.183806
 20
-72.034823
 30
0.0
 10
45.183806
 20
-66.565410
 30
0.0
 10
45.170886
 20
-66.430525
 30
0.0
 10
45.090789
 20
-66.321490
 30
0.0
 10
44.925940
 20
-66.264129
 30
0.0
 10
44.888216
 20
-66.267753
 30
0.0
 10
38.905635
 20
-66.267753
 30
0.0
 10
34.879007
 20
-54.352719
 30
0.0
 10
57.598551
 20
-54.352719
 30
0.0
 10
57.746863
 20
-54.334622
 30
0.0
 10
57.747379
 20
-54.334622
 30
0.0
 10
57.855900
 20
-54.249876
 30
0.0
 10
58.152522
 20
-53.953251
 30
0.0
 10
58.236239
 20
-53.843185
 30
0.0
 10
58.237789
 20
-53.840089
 30
0.0
 10
58.239340
 20
-53.835432
 30
0.0
 10
58.253810
 20
-53.709861
 30
0.0
 10
58.253810
 20
-44.296489
 30
0.0
 10
58.224354
 20
-44.124906
 30
0.0
 10
58.153041
 20
-44.041192
 30
0.0
 10
57.253870
 20
-43.142032
 30
0.0
 10
57.253870
 20
-36.543456
 30
0.0
  0
LWPOLYLINE
  5
12f
100
AcDbEntity
  8
Merged
 62
7
100
AcDbPolyline
 90
50
 70
1
 10
17.608744
 20
-48.018224
 30
0.0
 10
17.608744
 20
-48.018726
 30
0.0
 10
17.453715
 20
-48.079184
 30
0.0
 10
17.452165
 20
-48.079184
 30
0.0
 10
17.437179
 20
-48.093154
 30
0.0
 10
17.434595
 20
-48.095720
 30
0.0
 10
17.045471
 20
-48.484843
 30
0.0
 10
16.980876
 20
-48.559270
 30
0.0
 10
16.947286
 20
-48.737546
 30
0.0
 10
16.947286
 20
-50.320919
 30
0.0
 10
16.956071
 20
-50.422201
 30
0.0
 10
17.004647
 20
-50.511604
 30
0.0
 10
17.007231
 20
-50.514700
 30
0.0
 10
17.020666
 20
-50.529173
 30
0.0
 10
17.023250
 20
-50.531765
 30
0.0
 10
17.392737
 20
-50.901230
 30
0.0
 10
17.536397
 20
-51.009762
 30
0.0
 10
17.665072
 20
-51.019075
 30
0.0
 10
18.394743
 20
-51.019075
 30
0.0
 10
18.521350
 20
-51.010794
 30
0.0
 10
18.668628
 20
-50.900727
 30
0.0
 10
19.040182
 20
-50.529173
 30
0.0
 10
19.110978
 20
-50.399474
 30
0.0
 10
19.095992
 20
-50.252709
 30
0.0
 10
19.000391
 20
-50.140050
 30
0.0
 10
18.858281
 20
-50.100256
 30
0.0
 10
18.686715
 20
-50.175716
 30
0.0
 10
18.343066
 20
-50.519356
 30
0.0
 10
17.717782
 20
-50.519356
 30
0.0
 10
17.447514
 20
-50.249085
 30
0.0
 10
17.447514
 20
-48.789749
 30
0.0
 10
17.717265
 20
-48.519980
 30
0.0
 10
18.343583
 20
-48.519980
 30
0.0
 10
18.686715
 20
-48.863118
 30
0.0
 10
18.799369
 20
-48.931856
 30
0.0
 10
18.930627
 20
-48.934449
 30
0.0
 10
19.044832
 20
-48.868806
 30
0.0
 10
19.110462
 20
-48.754612
 30
0.0
 10
19.108394
 20
-48.623352
 30
0.0
 10
19.040182
 20
-48.510693
 30
0.0
 10
18.633488
 20
-48.104504
 30
0.0
 10
18.623669
 20
-48.094186
 30
0.0
 10
18.615918
 20
-48.086433
 30
0.0
 10
18.611784
 20
-48.082809
 30
0.0
 10
18.596798
 20
-48.070400
 30
0.0
 10
18.594214
 20
-48.067833
 30
0.0
 10
18.444352
 20
-48.018224
 30
0.0
 10
18.415930
 20
-48.020790
 30
0.0
 10
17.645435
 20
-48.020790
 30
0.0
 10
17.608744
 20
-48.018224
 30
0.0
  0
LWPOLYLINE
  5
130
100
AcDbEntity
  8
Merged
 62
7
100
AcDbPolyline
 90
35
 70
1
 10
-39.174354
 20
-48.018726
 30
0.0
 10
-39.174354
 20
-48.019256
 30
0.0
 10
-39.180553
 20
-48.019256
 30
0.0
 10
-39.288559
 20
-48.048175
 30
0.0
 10
-39.373307
 20
-48.121041
 30
0.0
 10
-40.154138
 20
-48.901879
 30
0.0
 10
-40.220284
 20
-48.977841
 30
0.0
 10
-40.252840
 20
-49.155615
 30
0.0
 10
-40.252840
 20
-49.454303
 30
0.0
 10
-40.252840
 20
-49.588155
 30
0.0
 10
-40.252840
 20
-50.769970
 30
0.0
 10
-40.219252
 20
-50.895038
 30
0.0
 10
-40.127783
 20
-50.986505
 30
0.0
 10
-40.002727
 20
-51.020107
 30
0.0
 10
-39.877669
 20
-50.986505
 30
0.0
 10
-39.786203
 20
-50.895038
 30
0.0
 10
-39.752611
 20
-50.769970
 30
0.0
 10
-39.752611
 20
-49.770559
 30
0.0
 10
-38.586791
 20
-49.770559
 30
0.0
 10
-38.586791
 20
-50.769970
 30
0.0
 10
-38.519613
 20
-50.940520
 30
0.0
 10
-38.354249
 20
-51.019578
 30
0.0
 10
-38.329444
 20
-51.019578
 30
0.0
 10
-38.157362
 20
-50.943616
 30
0.0
 10
-38.086564
 20
-50.769467
 30
0.0
 10
-38.086564
 20
-49.586594
 30
0.0
 10
-38.086564
 20
-49.452742
 30
0.0
 10
-38.086564
 20
-49.155085
 30
0.0
 10
-38.114986
 20
-48.983530
 30
0.0
 10
-38.115502
 20
-48.983530
 30
0.0
 10
-38.184749
 20
-48.902408
 30
0.0
 10
-38.966098
 20
-48.121041
 30
0.0
 10
-39.057048
 20
-48.044576
 30
0.0
 10
-39.172803
 20
-48.018726
 30
0.0
 10
-39.174354
 20
-48.018726
 30
0.0
  0
LWPOLYLINE
  5
131
100
AcDbEntity
  8
Merged
 62
7
100
AcDbPolyline
 90
34
 70
1
 10
45.818393
 20
-48.019256
 30
0.0
 10
45.818393
 20
-48.020287
 30
0.0
 10
45.650444
 20
-48.089000
 30
0.0
 10
45.573445
 20
-48.253332
 30
0.0
 10
45.572929
 20
-48.255925
 30
0.0
 10
45.572413
 20
-48.271933
 30
0.0
 10
45.572413
 20
-48.279182
 30
0.0
 10
45.572413
 20
-50.705914
 30
0.0
 10
45.572929
 20
-50.837677
 30
0.0
 10
45.640109
 20
-50.950839
 30
0.0
 10
45.754314
 20
-51.020610
 30
0.0
 10
45.888156
 20
-51.020610
 30
0.0
 10
47.019869
 20
-51.020610
 30
0.0
 10
47.146477
 20
-51.012355
 30
0.0
 10
47.293755
 20
-50.902261
 30
0.0
 10
47.621899
 20
-50.574125
 30
0.0
 10
47.695797
 20
-50.502291
 30
0.0
 10
47.734553
 20
-50.406697
 30
0.0
 10
47.738170
 20
-50.316791
 30
0.0
 10
47.738170
 20
-48.742706
 30
0.0
 10
47.738170
 20
-48.640921
 30
0.0
 10
47.696829
 20
-48.547390
 30
0.0
 10
47.696313
 20
-48.547390
 30
0.0
 10
47.642052
 20
-48.488997
 30
0.0
 10
47.258613
 20
-48.106065
 30
0.0
 10
47.248794
 20
-48.095720
 30
0.0
 10
47.241045
 20
-48.087968
 30
0.0
 10
47.236909
 20
-48.084370
 30
0.0
 10
47.221923
 20
-48.071961
 30
0.0
 10
47.219341
 20
-48.069368
 30
0.0
 10
47.069478
 20
-48.019758
 30
0.0
 10
47.041057
 20
-48.022351
 30
0.0
 10
45.859732
 20
-48.022351
 30
0.0
 10
45.818393
 20
-48.019256
 30
0.0
  0
LWPOLYLINE
  5
132
100
AcDbEntity
  8
Merged
 62
7
100
AcDbPolyline
 90
40
 70
1
 10
-47.504077
 20
-48.019758
 30
0.0
 10
-47.661690
 20
-48.079184
 30
0.0
 10
-47.745923
 20
-48.225445
 30
0.0
 10
-47.746957
 20
-48.230605
 30
0.0
 10
-47.750058
 20
-48.285903
 30
0.0
 10
-47.750058
 20
-49.453774
 30
0.0
 10
-47.750058
 20
-49.591754
 30
0.0
 10
-47.750058
 20
-50.704353
 30
0.0
 10
-47.750058
 20
-50.839238
 30
0.0
 10
-47.679777
 20
-50.954464
 30
0.0
 10
-47.566088
 20
-51.021641
 30
0.0
 10
-47.434315
 20
-51.021641
 30
0.0
 10
-46.250923
 20
-51.021641
 30
0.0
 10
-46.239554
 20
-51.021641
 30
0.0
 10
-46.120182
 20
-50.990130
 30
0.0
 10
-46.030266
 20
-50.904854
 30
0.0
 10
-45.700569
 20
-50.575157
 30
0.0
 10
-45.626674
 20
-50.503323
 30
0.0
 10
-45.587915
 20
-50.407729
 30
0.0
 10
-45.584298
 20
-50.317823
 30
0.0
 10
-45.584298
 20
-49.952989
 30
0.0
 10
-45.585332
 20
-49.913699
 30
0.0
 10
-45.585848
 20
-49.910603
 30
0.0
 10
-45.587399
 20
-49.899226
 30
0.0
 10
-45.680416
 20
-49.738518
 30
0.0
 10
-45.896940
 20
-49.522010
 30
0.0
 10
-45.700569
 20
-49.325636
 30
0.0
 10
-45.626674
 20
-49.253801
 30
0.0
 10
-45.587915
 20
-49.158207
 30
0.0
 10
-45.584298
 20
-49.068276
 30
0.0
 10
-45.584298
 20
-48.703442
 30
0.0
 10
-45.585332
 20
-48.664177
 30
0.0
 10
-45.585848
 20
-48.661055
 30
0.0
 10
-45.587399
 20
-48.649705
 30
0.0
 10
-45.680416
 20
-48.488997
 30
0.0
 10
-46.073674
 20
-48.095720
 30
0.0
 10
-46.253508
 20
-48.020287
 30
0.0
 10
-46.281930
 20
-48.022854
 30
0.0
 10
-47.462736
 20
-48.022854
 30
0.0
 10
-47.504077
 20
-48.019758
 30
0.0
  0
LWPOLYLINE
  5
133
100
AcDbEntity
  8
Merged
 62
7
100
AcDbPolyline
 90
27
 70
1
 10
-44.171981
 20
-48.019758
 30
0.0
 10
-44.206086
 20
-48.022854
 30
0.0
 10
-45.000870
 20
-48.022854
 30
0.0
 10
-45.125928
 20
-48.056456
 30
0.0
 10
-45.217395
 20
-48.147922
 30
0.0
 10
-45.250984
 20
-48.272991
 30
0.0
 10
-45.217395
 20
-48.398033
 30
0.0
 10
-45.125928
 20
-48.489500
 30
0.0
 10
-45.000870
 20
-48.523102
 30
0.0
 10
-44.417962
 20
-48.523102
 30
0.0
 10
-44.417962
 20
-50.772060
 30
0.0
 10
-44.387987
 20
-50.900727
 30
0.0
 10
-44.296005
 20
-50.996321
 30
0.0
 10
-44.168364
 20
-51.030955
 30
0.0
 10
-44.040721
 20
-50.996321
 30
0.0
 10
-43.948739
 20
-50.900727
 30
0.0
 10
-43.918248
 20
-50.772060
 30
0.0
 10
-43.918248
 20
-48.523102
 30
0.0
 10
-43.334824
 20
-48.523102
 30
0.0
 10
-43.209766
 20
-48.489500
 30
0.0
 10
-43.118299
 20
-48.398033
 30
0.0
 10
-43.084708
 20
-48.272991
 30
0.0
 10
-43.118299
 20
-48.147922
 30
0.0
 10
-43.209766
 20
-48.056456
 30
0.0
 10
-43.334824
 20
-48.022854
 30
0.0
 10
-44.130640
 20
-48.022854
 30
0.0
 10
-44.171981
 20
-48.019758
 30
0.0
  0
LWPOLYLINE
  5
134
100
AcDbEntity
  8
Merged
 62
7
100
AcDbPolyline
 90
46
 70
1
 10
-18.854146
 20
-48.019758
 30
0.0
 10
-19.012276
 20
-48.079184
 30
0.0
 10
-19.095992
 20
-48.225445
 30
0.0
 10
-19.097025
 20
-48.230605
 30
0.0
 10
-19.100126
 20
-48.285903
 30
0.0
 10
-19.100126
 20
-49.453774
 30
0.0
 10
-19.100126
 20
-49.591754
 30
0.0
 10
-19.100126
 20
-50.704353
 30
0.0
 10
-19.100126
 20
-50.839238
 30
0.0
 10
-19.029846
 20
-50.954464
 30
0.0
 10
-18.916675
 20
-51.021641
 30
0.0
 10
-18.784383
 20
-51.021641
 30
0.0
 10
-17.600476
 20
-51.021641
 30
0.0
 10
-17.589624
 20
-51.021641
 30
0.0
 10
-17.469218
 20
-50.989600
 30
0.0
 10
-17.378784
 20
-50.903320
 30
0.0
 10
-17.050639
 20
-50.575157
 30
0.0
 10
-16.976741
 20
-50.503323
 30
0.0
 10
-16.937984
 20
-50.407729
 30
0.0
 10
-16.934367
 20
-50.317823
 30
0.0
 10
-16.934367
 20
-49.993285
 30
0.0
 10
-16.934884
 20
-49.891474
 30
0.0
 10
-16.975708
 20
-49.797944
 30
0.0
 10
-16.976225
 20
-49.797944
 30
0.0
 10
-17.030485
 20
-49.739550
 30
0.0
 10
-17.247009
 20
-49.523041
 30
0.0
 10
-17.050639
 20
-49.326668
 30
0.0
 10
-16.976741
 20
-49.254833
 30
0.0
 10
-16.937984
 20
-49.159239
 30
0.0
 10
-16.934367
 20
-49.069307
 30
0.0
 10
-16.934367
 20
-48.744796
 30
0.0
 10
-16.934884
 20
-48.642984
 30
0.0
 10
-16.975708
 20
-48.549454
 30
0.0
 10
-16.976225
 20
-48.549454
 30
0.0
 10
-17.030485
 20
-48.491061
 30
0.0
 10
-17.413924
 20
-48.108129
 30
0.0
 10
-17.423743
 20
-48.097784
 30
0.0
 10
-17.431494
 20
-48.090032
 30
0.0
 10
-17.435628
 20
-48.086433
 30
0.0
 10
-17.450614
 20
-48.074024
 30
0.0
 10
-17.453198
 20
-48.071431
 30
0.0
 10
-17.603060
 20
-48.021822
 30
0.0
 10
-17.634066
 20
-48.024415
 30
0.0
 10
-18.812805
 20
-48.024415
 30
0.0
 10
-18.854146
 20
-48.021319
 30
0.0
 10
-18.854146
 20
-48.019758
 30
0.0
  0
LWPOLYLINE
  5
135
100
AcDbEntity
  8
Merged
 62
7
100
AcDbPolyline
 90
47
 70
1
 10
38.321176
 20
-48.020287
 30
0.0
 10
38.321176
 20
-48.020790
 30
0.0
 10
38.145477
 20
-48.096249
 30
0.0
 10
38.074679
 20
-48.274023
 30
0.0
 10
38.074679
 20
-48.281246
 30
0.0
 10
38.074679
 20
-49.457398
 30
0.0
 10
38.074679
 20
-49.591251
 30
0.0
 10
38.074679
 20
-50.707978
 30
0.0
 10
38.071060
 20
-50.822701
 30
0.0
 10
38.119121
 20
-50.927079
 30
0.0
 10
38.208521
 20
-50.998914
 30
0.0
 10
38.321176
 20
-51.023202
 30
0.0
 10
38.332026
 20
-51.023202
 30
0.0
 10
39.522135
 20
-51.023202
 30
0.0
 10
39.648744
 20
-51.014921
 30
0.0
 10
39.796021
 20
-50.904854
 30
0.0
 10
40.157239
 20
-50.543116
 30
0.0
 10
40.167573
 20
-50.533300
 30
0.0
 10
40.175326
 20
-50.525548
 30
0.0
 10
40.178942
 20
-50.521420
 30
0.0
 10
40.191346
 20
-50.506445
 30
0.0
 10
40.193412
 20
-50.503323
 30
0.0
 10
40.240955
 20
-50.321951
 30
0.0
 10
40.240955
 20
-49.991724
 30
0.0
 10
40.212015
 20
-49.819137
 30
0.0
 10
40.142769
 20
-49.738015
 30
0.0
 10
39.927795
 20
-49.523041
 30
0.0
 10
40.157239
 20
-49.293066
 30
0.0
 10
40.167573
 20
-49.283779
 30
0.0
 10
40.175326
 20
-49.276026
 30
0.0
 10
40.178942
 20
-49.271370
 30
0.0
 10
40.191346
 20
-49.256368
 30
0.0
 10
40.193412
 20
-49.253801
 30
0.0
 10
40.240955
 20
-49.072403
 30
0.0
 10
40.240955
 20
-48.742203
 30
0.0
 10
40.212015
 20
-48.569589
 30
0.0
 10
40.142769
 20
-48.488468
 30
0.0
 10
39.760880
 20
-48.107097
 30
0.0
 10
39.751061
 20
-48.096752
 30
0.0
 10
39.743311
 20
-48.089000
 30
0.0
 10
39.739176
 20
-48.085401
 30
0.0
 10
39.724190
 20
-48.072992
 30
0.0
 10
39.721607
 20
-48.070400
 30
0.0
 10
39.571745
 20
-48.020790
 30
0.0
 10
39.543323
 20
-48.023383
 30
0.0
 10
38.362517
 20
-48.023383
 30
0.0
 10
38.321176
 20
-48.020287
 30
0.0
  0
LWPOLYLINE
  5
136
100
AcDbEntity
  8
Merged
 62
7
100
AcDbPolyline
 90
25
 70
1
 10
41.653272
 20
-48.020287
 30
0.0
 10
41.619165
 20
-48.023383
 30
0.0
 10
40.823864
 20
-48.023383
 30
0.0
 10
40.698809
 20
-48.056959
 30
0.0
 10
40.607340
 20
-48.148425
 30
0.0
 10
40.573751
 20
-48.273494
 30
0.0
 10
40.607340
 20
-48.398562
 30
0.0
 10
40.698809
 20
-48.490029
 30
0.0
 10
40.823864
 20
-48.523604
 30
0.0
 10
41.406776
 20
-48.523604
 30
0.0
 10
41.406776
 20
-50.772563
 30
0.0
 10
41.480155
 20
-50.949304
 30
0.0
 10
41.656889
 20
-51.022673
 30
0.0
 10
41.833623
 20
-50.949304
 30
0.0
 10
41.907002
 20
-50.772563
 30
0.0
 10
41.907002
 20
-48.523604
 30
0.0
 10
42.489914
 20
-48.523604
 30
0.0
 10
42.614969
 20
-48.490029
 30
0.0
 10
42.706438
 20
-48.398562
 30
0.0
 10
42.740027
 20
-48.273494
 30
0.0
 10
42.706438
 20
-48.148425
 30
0.0
 10
42.614969
 20
-48.056959
 30
0.0
 10
42.489914
 20
-48.023383
 30
0.0
 10
41.694613
 20
-48.023383
 30
0.0
 10
41.653272
 20
-48.020287
 30
0.0
  0
LWPOLYLINE
  5
137
100
AcDbEntity
  8
Merged
 62
7
100
AcDbPolyline
 90
47
 70
1
 10
9.696049
 20
-48.020790
 30
0.0
 10
9.696049
 20
-48.021319
 30
0.0
 10
9.520349
 20
-48.096752
 30
0.0
 10
9.449552
 20
-48.274526
 30
0.0
 10
9.449552
 20
-48.281246
 30
0.0
 10
9.449552
 20
-49.457398
 30
0.0
 10
9.449552
 20
-49.591251
 30
0.0
 10
9.449552
 20
-50.707978
 30
0.0
 10
9.445935
 20
-50.823204
 30
0.0
 10
9.493994
 20
-50.927609
 30
0.0
 10
9.583394
 20
-50.999416
 30
0.0
 10
9.696049
 20
-51.023202
 30
0.0
 10
9.706901
 20
-51.023202
 30
0.0
 10
10.897009
 20
-51.023202
 30
0.0
 10
11.023616
 20
-51.014921
 30
0.0
 10
11.170894
 20
-50.905384
 30
0.0
 10
11.532113
 20
-50.543116
 30
0.0
 10
11.542448
 20
-50.533829
 30
0.0
 10
11.550199
 20
-50.526077
 30
0.0
 10
11.553817
 20
-50.521949
 30
0.0
 10
11.566219
 20
-50.506445
 30
0.0
 10
11.568286
 20
-50.503852
 30
0.0
 10
11.615829
 20
-50.325046
 30
0.0
 10
11.615829
 20
-49.992254
 30
0.0
 10
11.586890
 20
-49.819666
 30
0.0
 10
11.517643
 20
-49.738518
 30
0.0
 10
11.302669
 20
-49.523544
 30
0.0
 10
11.532113
 20
-49.293595
 30
0.0
 10
11.542448
 20
-49.283779
 30
0.0
 10
11.550199
 20
-49.276026
 30
0.0
 10
11.553817
 20
-49.271872
 30
0.0
 10
11.566219
 20
-49.256897
 30
0.0
 10
11.568286
 20
-49.254304
 30
0.0
 10
11.615829
 20
-49.075525
 30
0.0
 10
11.615829
 20
-48.742706
 30
0.0
 10
11.586890
 20
-48.570118
 30
0.0
 10
11.517643
 20
-48.488997
 30
0.0
 10
11.135754
 20
-48.107626
 30
0.0
 10
11.125936
 20
-48.097281
 30
0.0
 10
11.118184
 20
-48.089529
 30
0.0
 10
11.114050
 20
-48.085904
 30
0.0
 10
11.099064
 20
-48.073495
 30
0.0
 10
11.096480
 20
-48.070929
 30
0.0
 10
10.946619
 20
-48.021319
 30
0.0
 10
10.918197
 20
-48.023886
 30
0.0
 10
9.737390
 20
-48.023886
 30
0.0
 10
9.696049
 20
-48.020790
 30
0.0
  0
LWPOLYLINE
  5
138
100
AcDbEntity
  8
Merged
 62
7
100
AcDbPolyline
 90
27
 70
1
 10
13.028145
 20
-48.020790
 30
0.0
 10
12.994039
 20
-48.023886
 30
0.0
 10
12.198739
 20
-48.023886
 30
0.0
 10
12.073682
 20
-48.057488
 30
0.0
 10
11.982214
 20
-48.148954
 30
0.0
 10
11.948625
 20
-48.274023
 30
0.0
 10
11.982214
 20
-48.399065
 30
0.0
 10
12.073682
 20
-48.490531
 30
0.0
 10
12.198739
 20
-48.524134
 30
0.0
 10
12.782166
 20
-48.524134
 30
0.0
 10
12.782166
 20
-50.773092
 30
0.0
 10
12.812138
 20
-50.901759
 30
0.0
 10
12.904122
 20
-50.997353
 30
0.0
 10
13.031763
 20
-51.032489
 30
0.0
 10
13.159403
 20
-50.997353
 30
0.0
 10
13.251387
 20
-50.901759
 30
0.0
 10
13.281877
 20
-50.773092
 30
0.0
 10
13.281877
 20
-48.524134
 30
0.0
 10
13.864787
 20
-48.524134
 30
0.0
 10
13.989844
 20
-48.490531
 30
0.0
 10
14.081311
 20
-48.399065
 30
0.0
 10
14.114901
 20
-48.274023
 30
0.0
 10
14.081311
 20
-48.148954
 30
0.0
 10
13.989844
 20
-48.057488
 30
0.0
 10
13.864787
 20
-48.023886
 30
0.0
 10
13.069486
 20
-48.023886
 30
0.0
 10
13.028145
 20
-48.020790
 30
0.0
  0
LWPOLYLINE
  5
139
100
AcDbEntity
  8
Merged
 62
7
100
AcDbPolyline
 90
27
 70
1
 10
-15.522050
 20
-48.021319
 30
0.0
 10
-15.556156
 20
-48.024415
 30
0.0
 10
-16.350940
 20
-48.024415
 30
0.0
 10
-16.475997
 20
-48.057991
 30
0.0
 10
-16.567464
 20
-48.149484
 30
0.0
 10
-16.601054
 20
-48.274526
 30
0.0
 10
-16.567464
 20
-48.399594
 30
0.0
 10
-16.475997
 20
-48.491061
 30
0.0
 10
-16.350940
 20
-48.524636
 30
0.0
 10
-15.768030
 20
-48.524636
 30
0.0
 10
-15.768030
 20
-50.773595
 30
0.0
 10
-15.734440
 20
-50.898663
 30
0.0
 10
-15.642973
 20
-50.990130
 30
0.0
 10
-15.517916
 20
-51.023705
 30
0.0
 10
-15.392859
 20
-50.990130
 30
0.0
 10
-15.301392
 20
-50.898663
 30
0.0
 10
-15.267802
 20
-50.773595
 30
0.0
 10
-15.267802
 20
-48.524636
 30
0.0
 10
-14.684892
 20
-48.524636
 30
0.0
 10
-14.559835
 20
-48.491061
 30
0.0
 10
-14.468368
 20
-48.399594
 30
0.0
 10
-14.434778
 20
-48.274526
 30
0.0
 10
-14.468368
 20
-48.149484
 30
0.0
 10
-14.559835
 20
-48.057991
 30
0.0
 10
-14.684892
 20
-48.024415
 30
0.0
 10
-15.480192
 20
-48.024415
 30
0.0
 10
-15.522050
 20
-48.021319
 30
0.0
  0
LWPOLYLINE
  5
13a
100
AcDbEntity
  8
Merged
 62
7
100
AcDbPolyline
 90
40
 70
1
 10
-11.356413
 20
-48.021319
 30
0.0
 10
-11.532113
 20
-48.096752
 30
0.0
 10
-11.602909
 20
-48.274526
 30
0.0
 10
-11.602909
 20
-48.281775
 30
0.0
 10
-11.602909
 20
-49.457927
 30
0.0
 10
-11.602909
 20
-49.591754
 30
0.0
 10
-11.602909
 20
-50.708481
 30
0.0
 10
-11.606527
 20
-50.823204
 30
0.0
 10
-11.558468
 20
-50.927609
 30
0.0
 10
-11.469067
 20
-50.999416
 30
0.0
 10
-11.356413
 20
-51.023705
 30
0.0
 10
-11.345561
 20
-51.023705
 30
0.0
 10
-10.155452
 20
-51.023705
 30
0.0
 10
-10.028845
 20
-51.015450
 30
0.0
 10
-9.881567
 20
-50.905384
 30
0.0
 10
-9.554456
 20
-50.578253
 30
0.0
 10
-9.477975
 20
-50.503852
 30
0.0
 10
-9.439217
 20
-50.404104
 30
0.0
 10
-9.436633
 20
-50.325576
 30
0.0
 10
-9.436633
 20
-49.992783
 30
0.0
 10
-9.465572
 20
-49.820169
 30
0.0
 10
-9.534818
 20
-49.739047
 30
0.0
 10
-9.749792
 20
-49.524073
 30
0.0
 10
-9.554456
 20
-49.328731
 30
0.0
 10
-9.477975
 20
-49.254304
 30
0.0
 10
-9.439217
 20
-49.154583
 30
0.0
 10
-9.436633
 20
-49.076028
 30
0.0
 10
-9.436633
 20
-48.743235
 30
0.0
 10
-9.465572
 20
-48.570647
 30
0.0
 10
-9.534818
 20
-48.489500
 30
0.0
 10
-9.916707
 20
-48.108129
 30
0.0
 10
-9.926526
 20
-48.097784
 30
0.0
 10
-9.934277
 20
-48.090032
 30
0.0
 10
-9.938411
 20
-48.086433
 30
0.0
 10
-9.953398
 20
-48.074024
 30
0.0
 10
-9.955981
 20
-48.071431
 30
0.0
 10
-10.105843
 20
-48.021822
 30
0.0
 10
-10.134265
 20
-48.024415
 30
0.0
 10
-11.315072
 20
-48.024415
 30
0.0
 10
-11.356413
 20
-48.021319
 30
0.0
  0
LWPOLYLINE
  5
13b
100
AcDbEntity
  8
Merged
 62
7
100
AcDbPolyline
 90
7
 70
1
 10
-47.250345
 20
-48.520509
 30
0.0
 10
-46.354278
 20
-48.520509
 30
0.0
 10
-46.084008
 20
-48.790781
 30
0.0
 10
-46.084008
 20
-48.999537
 30
0.0
 10
-46.354794
 20
-49.270338
 30
0.0
 10
-47.250345
 20
-49.270338
 30
0.0
 10
-47.250345
 20
-48.520509
 30
0.0
  0
LWPOLYLINE
  5
13c
100
AcDbEntity
  8
Merged
 62
7
100
AcDbPolyline
 90
7
 70
1
 10
-18.600415
 20
-48.520509
 30
0.0
 10
-17.704346
 20
-48.520509
 30
0.0
 10
-17.434078
 20
-48.790251
 30
0.0
 10
-17.434078
 20
-49.000066
 30
0.0
 10
-17.704863
 20
-49.270338
 30
0.0
 10
-18.600415
 20
-49.270338
 30
0.0
 10
-18.600415
 20
-48.520509
 30
0.0
  0
LWPOLYLINE
  5
13d
100
AcDbEntity
  8
Merged
 62
7
100
AcDbPolyline
 90
7
 70
1
 10
-11.102682
 20
-48.520509
 30
0.0
 10
-10.206612
 20
-48.520509
 30
0.0
 10
-9.936345
 20
-48.790781
 30
0.0
 10
-9.936345
 20
-48.999537
 30
0.0
 10
-10.207129
 20
-49.270338
 30
0.0
 10
-11.102682
 20
-49.270338
 30
0.0
 10
-11.102682
 20
-48.520509
 30
0.0
  0
LWPOLYLINE
  5
13e
100
AcDbEntity
  8
Merged
 62
7
100
AcDbPolyline
 90
7
 70
1
 10
9.949780
 20
-48.520509
 30
0.0
 10
10.845850
 20
-48.520509
 30
0.0
 10
11.115601
 20
-48.790251
 30
0.0
 10
11.115601
 20
-49.000066
 30
0.0
 10
10.845333
 20
-49.270338
 30
0.0
 10
9.949780
 20
-49.270338
 30
0.0
 10
9.949780
 20
-48.520509
 30
0.0
  0
LWPOLYLINE
  5
13f
100
AcDbEntity
  8
Merged
 62
7
100
AcDbPolyline
 90
7
 70
1
 10
38.574906
 20
-48.520509
 30
0.0
 10
39.470976
 20
-48.520509
 30
0.0
 10
39.740726
 20
-48.790251
 30
0.0
 10
39.740726
 20
-49.000066
 30
0.0
 10
39.470460
 20
-49.270338
 30
0.0
 10
38.574906
 20
-49.270338
 30
0.0
 10
38.574906
 20
-48.520509
 30
0.0
  0
LWPOLYLINE
  5
140
100
AcDbEntity
  8
Merged
 62
7
100
AcDbPolyline
 90
7
 70
1
 10
46.072123
 20
-48.520509
 30
0.0
 10
46.968709
 20
-48.520509
 30
0.0
 10
47.238460
 20
-48.790251
 30
0.0
 10
47.238460
 20
-50.249614
 30
0.0
 10
46.968193
 20
-50.519859
 30
0.0
 10
46.072123
 20
-50.519859
 30
0.0
 10
46.072123
 20
-48.520509
 30
0.0
  0
LWPOLYLINE
  5
141
100
AcDbEntity
  8
Merged
 62
7
100
AcDbPolyline
 90
6
 70
1
 10
-39.169702
 20
-48.623855
 30
0.0
 10
-38.586791
 20
-49.206759
 30
0.0
 10
-38.586791
 20
-49.270338
 30
0.0
 10
-39.752611
 20
-49.270338
 30
0.0
 10
-39.752611
 20
-49.206759
 30
0.0
 10
-39.169702
 20
-48.623855
 30
0.0
  0
LWPOLYLINE
  5
142
100
AcDbEntity
  8
Merged
 62
7
100
AcDbPolyline
 90
15
 70
1
 10
-42.501799
 20
-49.270338
 30
0.0
 10
-42.630990
 20
-49.300818
 30
0.0
 10
-42.726076
 20
-49.392284
 30
0.0
 10
-42.761215
 20
-49.520449
 30
0.0
 10
-42.726076
 20
-49.648084
 30
0.0
 10
-42.630990
 20
-49.740079
 30
0.0
 10
-42.501799
 20
-49.770056
 30
0.0
 10
-40.835749
 20
-49.770056
 30
0.0
 10
-40.706559
 20
-49.740079
 30
0.0
 10
-40.611475
 20
-49.648084
 30
0.0
 10
-40.576336
 20
-49.520449
 30
0.0
 10
-40.611475
 20
-49.392284
 30
0.0
 10
-40.706559
 20
-49.300818
 30
0.0
 10
-40.835749
 20
-49.270338
 30
0.0
 10
-42.501799
 20
-49.270338
 30
0.0
  0
LWPOLYLINE
  5
143
100
AcDbEntity
  8
Merged
 62
7
100
AcDbPolyline
 90
15
 70
1
 10
-13.851868
 20
-49.270338
 30
0.0
 10
-13.981059
 20
-49.300818
 30
0.0
 10
-14.076143
 20
-49.392284
 30
0.0
 10
-14.111283
 20
-49.520449
 30
0.0
 10
-14.076143
 20
-49.648084
 30
0.0
 10
-13.981059
 20
-49.740079
 30
0.0
 10
-13.851868
 20
-49.770056
 30
0.0
 10
-12.185820
 20
-49.770056
 30
0.0
 10
-12.056628
 20
-49.740079
 30
0.0
 10
-11.961544
 20
-49.648084
 30
0.0
 10
-11.926404
 20
-49.520449
 30
0.0
 10
-11.961544
 20
-49.392284
 30
0.0
 10
-12.056628
 20
-49.300818
 30
0.0
 10
-12.185820
 20
-49.270338
 30
0.0
 10
-13.851868
 20
-49.270338
 30
0.0
  0
LWPOLYLINE
  5
144
100
AcDbEntity
  8
Merged
 62
7
100
AcDbPolyline
 90
15
 70
1
 10
14.698328
 20
-49.270338
 30
0.0
 10
14.569137
 20
-49.300818
 30
0.0
 10
14.474052
 20
-49.392284
 30
0.0
 10
14.438912
 20
-49.520449
 30
0.0
 10
14.474052
 20
-49.648084
 30
0.0
 10
14.569137
 20
-49.740079
 30
0.0
 10
14.698328
 20
-49.770056
 30
0.0
 10
16.364376
 20
-49.770056
 30
0.0
 10
16.493567
 20
-49.740079
 30
0.0
 10
16.588652
 20
-49.648084
 30
0.0
 10
16.623791
 20
-49.520449
 30
0.0
 10
16.588652
 20
-49.392284
 30
0.0
 10
16.493567
 20
-49.300818
 30
0.0
 10
16.364376
 20
-49.270338
 30
0.0
 10
14.698328
 20
-49.270338
 30
0.0
  0
LWPOLYLINE
  5
145
100
AcDbEntity
  8
Merged
 62
7
100
AcDbPolyline
 90
15
 70
1
 10
43.322936
 20
-49.270338
 30
0.0
 10
43.193745
 20
-49.300818
 30
0.0
 10
43.098662
 20
-49.392284
 30
0.0
 10
43.063522
 20
-49.520449
 30
0.0
 10
43.098662
 20
-49.648084
 30
0.0
 10
43.193745
 20
-49.740079
 30
0.0
 10
43.322936
 20
-49.770056
 30
0.0
 10
44.988985
 20
-49.770056
 30
0.0
 10
45.118176
 20
-49.740079
 30
0.0
 10
45.213262
 20
-49.648084
 30
0.0
 10
45.248401
 20
-49.520449
 30
0.0
 10
45.213262
 20
-49.392284
 30
0.0
 10
45.118176
 20
-49.300818
 30
0.0
 10
44.988985
 20
-49.270338
 30
0.0
 10
43.322936
 20
-49.270338
 30
0.0
  0
LWPOLYLINE
  5
146
100
AcDbEntity
  8
Merged
 62
7
100
AcDbPolyline
 90
7
 70
1
 10
-47.250345
 20
-49.770056
 30
0.0
 10
-46.354278
 20
-49.770056
 30
0.0
 10
-46.084008
 20
-50.040302
 30
0.0
 10
-46.084008
 20
-50.249085
 30
0.0
 10
-46.354794
 20
-50.519859
 30
0.0
 10
-47.250345
 20
-50.519859
 30
0.0
 10
-47.250345
 20
-49.770056
 30
0.0
  0
LWPOLYLINE
  5
147
100
AcDbEntity
  8
Merged
 62
7
100
AcDbPolyline
 90
7
 70
1
 10
-18.600415
 20
-49.770056
 30
0.0
 10
-17.703829
 20
-49.770056
 30
0.0
 10
-17.434078
 20
-50.039799
 30
0.0
 10
-17.434078
 20
-50.249614
 30
0.0
 10
-17.704863
 20
-50.519859
 30
0.0
 10
-18.600415
 20
-50.519859
 30
0.0
 10
-18.600415
 20
-49.770056
 30
0.0
  0
LWPOLYLINE
  5
148
100
AcDbEntity
  8
Merged
 62
7
100
AcDbPolyline
 90
7
 70
1
 10
-11.102682
 20
-49.770056
 30
0.0
 10
-10.206612
 20
-49.770056
 30
0.0
 10
-9.936345
 20
-50.040302
 30
0.0
 10
-9.936345
 20
-50.249085
 30
0.0
 10
-10.207129
 20
-50.519859
 30
0.0
 10
-11.102682
 20
-50.519859
 30
0.0
 10
-11.102682
 20
-49.770056
 30
0.0
  0
LWPOLYLINE
  5
149
100
AcDbEntity
  8
Merged
 62
7
100
AcDbPolyline
 90
7
 70
1
 10
9.949780
 20
-49.770056
 30
0.0
 10
10.845850
 20
-49.770056
 30
0.0
 10
11.115601
 20
-50.039799
 30
0.0
 10
11.115601
 20
-50.249614
 30
0.0
 10
10.845333
 20
-50.519859
 30
0.0
 10
9.949780
 20
-50.519859
 30
0.0
 10
9.949780
 20
-49.770056
 30
0.0
  0
LWPOLYLINE
  5
14a
100
AcDbEntity
  8
Merged
 62
7
100
AcDbPolyline
 90
7
 70
1
 10
38.574906
 20
-49.770056
 30
0.0
 10
39.470976
 20
-49.770056
 30
0.0
 10
39.740726
 20
-50.039799
 30
0.0
 10
39.740726
 20
-50.249614
 30
0.0
 10
39.470460
 20
-50.519859
 30
0.0
 10
38.574906
 20
-50.519859
 30
0.0
 10
38.574906
 20
-49.770056
 30
0.0
  0
LWPOLYLINE
  5
14b
100
AcDbEntity
  8
Merged
 62
7
100
AcDbPolyline
 90
11
 70
1
 10
-67.071875
 20
-50.884693
 30
0.0
 10
-66.948886
 20
-52.834461
 30
0.0
 10
-66.942684
 20
-52.869068
 30
0.0
 10
-66.738045
 20
-57.336002
 30
0.0
 10
-45.184322
 20
-78.889701
 30
0.0
 10
-45.184322
 20
-83.023816
 30
0.0
 10
-65.490577
 20
-62.718103
 30
0.0
 10
-65.501427
 20
-62.706726
 30
0.0
 10
-69.085190
 20
-59.122971
 30
0.0
 10
-69.347704
 20
-54.209553
 30
0.0
 10
-67.071875
 20
-50.884693
 30
0.0
  0
LWPOLYLINE
  5
14c
100
AcDbEntity
  8
Merged
 62
7
100
AcDbPolyline
 90
10
 70
1
 10
67.071359
 20
-50.884693
 30
0.0
 10
69.347188
 20
-54.209553
 30
0.0
 10
69.084672
 20
-59.122971
 30
0.0
 10
65.500911
 20
-62.706726
 30
0.0
 10
45.183806
 20
-83.023816
 30
0.0
 10
45.183806
 20
-78.889701
 30
0.0
 10
66.737529
 20
-57.336002
 30
0.0
 10
66.943200
 20
-52.865972
 30
0.0
 10
66.948368
 20
-52.834461
 30
0.0
 10
67.071359
 20
-50.884693
 30
0.0
  0
LWPOLYLINE
  5
14d
100
AcDbEntity
  8
Merged
 62
7
100
AcDbPolyline
 90
33
 70
1
 10
-33.129244
 20
-62.866931
 30
0.0
 10
-33.216062
 20
-62.883971
 30
0.0
 10
-33.355071
 20
-63.003351
 30
0.0
 10
-33.375224
 20
-63.185754
 30
0.0
 10
-33.375224
 20
-64.370188
 30
0.0
 10
-33.375224
 20
-64.373813
 30
0.0
 10
-33.375224
 20
-64.380004
 30
0.0
 10
-33.375224
 20
-65.619709
 30
0.0
 10
-33.344734
 20
-65.748905
 30
0.0
 10
-33.253267
 20
-65.843997
 30
0.0
 10
-33.125627
 20
-65.879133
 30
0.0
 10
-32.997468
 20
-65.843997
 30
0.0
 10
-32.906002
 20
-65.748905
 30
0.0
 10
-32.875514
 20
-65.619709
 30
0.0
 10
-32.875514
 20
-64.620299
 30
0.0
 10
-32.292086
 20
-64.620299
 30
0.0
 10
-32.267282
 20
-64.620299
 30
0.0
 10
-32.100882
 20
-64.535553
 30
0.0
 10
-32.039904
 20
-64.358811
 30
0.0
 10
-32.118453
 20
-64.189319
 30
0.0
 10
-32.292086
 20
-64.121109
 30
0.0
 10
-32.875514
 20
-64.121109
 30
0.0
 10
-32.875514
 20
-63.371280
 30
0.0
 10
-31.459062
 20
-63.371280
 30
0.0
 10
-31.330387
 20
-63.341303
 30
0.0
 10
-31.234785
 20
-63.249334
 30
0.0
 10
-31.200164
 20
-63.121672
 30
0.0
 10
-31.234785
 20
-62.994037
 30
0.0
 10
-31.330387
 20
-62.902068
 30
0.0
 10
-31.459062
 20
-62.871562
 30
0.0
 10
-33.083251
 20
-62.871562
 30
0.0
 10
-33.129244
 20
-62.867963
 30
0.0
 10
-33.129244
 20
-62.866931
 30
0.0
  0
LWPOLYLINE
  5
14e
100
AcDbEntity
  8
Merged
 62
7
100
AcDbPolyline
 90
20
 70
1
 10
-25.631510
 20
-62.867963
 30
0.0
 10
-25.807210
 20
-62.943925
 30
0.0
 10
-25.877490
 20
-63.121672
 30
0.0
 10
-25.877490
 20
-65.603199
 30
0.0
 10
-25.876973
 20
-65.638839
 30
0.0
 10
-25.848035
 20
-65.746339
 30
0.0
 10
-25.775171
 20
-65.831085
 30
0.0
 10
-25.673368
 20
-65.875509
 30
0.0
 10
-25.561747
 20
-65.870878
 30
0.0
 10
-23.961845
 20
-65.870878
 30
0.0
 10
-23.836788
 20
-65.837276
 30
0.0
 10
-23.745321
 20
-65.745810
 30
0.0
 10
-23.711731
 20
-65.620768
 30
0.0
 10
-23.745321
 20
-65.495699
 30
0.0
 10
-23.836788
 20
-65.404233
 30
0.0
 10
-23.961845
 20
-65.370631
 30
0.0
 10
-25.377779
 20
-65.370631
 30
0.0
 10
-25.377779
 20
-63.121672
 30
0.0
 10
-25.451160
 20
-62.941332
 30
0.0
 10
-25.631510
 20
-62.867963
 30
0.0
  0
LWPOLYLINE
  5
14f
100
AcDbEntity
  8
Merged
 62
7
100
AcDbPolyline
 90
35
 70
1
 10
23.895699
 20
-62.867963
 30
0.0
 10
23.808883
 20
-62.885002
 30
0.0
 10
23.669873
 20
-63.004382
 30
0.0
 10
23.649719
 20
-63.186786
 30
0.0
 10
23.649719
 20
-64.371220
 30
0.0
 10
23.649719
 20
-64.373813
 30
0.0
 10
23.649719
 20
-64.378443
 30
0.0
 10
23.649719
 20
-65.620768
 30
0.0
 10
23.683309
 20
-65.745810
 30
0.0
 10
23.774776
 20
-65.837276
 30
0.0
 10
23.899833
 20
-65.870878
 30
0.0
 10
24.024890
 20
-65.837276
 30
0.0
 10
24.116358
 20
-65.745810
 30
0.0
 10
24.149947
 20
-65.620768
 30
0.0
 10
24.149947
 20
-64.621331
 30
0.0
 10
24.732857
 20
-64.621331
 30
0.0
 10
24.757662
 20
-64.621331
 30
0.0
 10
24.912174
 20
-64.546401
 30
0.0
 10
24.928711
 20
-64.527800
 30
0.0
 10
24.981421
 20
-64.400165
 30
0.0
 10
24.958166
 20
-64.263720
 30
0.0
 10
24.865666
 20
-64.160374
 30
0.0
 10
24.732857
 20
-64.122141
 30
0.0
 10
24.149947
 20
-64.122141
 30
0.0
 10
24.149947
 20
-63.372312
 30
0.0
 10
25.565881
 20
-63.372312
 30
0.0
 10
25.694556
 20
-63.342335
 30
0.0
 10
25.790157
 20
-63.250366
 30
0.0
 10
25.824780
 20
-63.122731
 30
0.0
 10
25.790157
 20
-62.995069
 30
0.0
 10
25.694556
 20
-62.903100
 30
0.0
 10
25.565881
 20
-62.872594
 30
0.0
 10
23.942208
 20
-62.872594
 30
0.0
 10
23.895699
 20
-62.868995
 30
0.0
 10
23.895699
 20
-62.867963
 30
0.0
  0
LWPOLYLINE
  5
150
100
AcDbEntity
  8
Merged
 62
7
100
AcDbPolyline
 90
43
 70
1
 10
31.393432
 20
-62.868995
 30
0.0
 10
31.309717
 20
-62.885002
 30
0.0
 10
31.167607
 20
-63.004885
 30
0.0
 10
31.147454
 20
-63.189908
 30
0.0
 10
31.147454
 20
-64.771191
 30
0.0
 10
31.147454
 20
-64.802200
 30
0.0
 10
31.147454
 20
-65.621800
 30
0.0
 10
31.177942
 20
-65.750969
 30
0.0
 10
31.269408
 20
-65.846060
 30
0.0
 10
31.397051
 20
-65.881197
 30
0.0
 10
31.525207
 20
-65.846060
 30
0.0
 10
31.616674
 20
-65.750969
 30
0.0
 10
31.647164
 20
-65.621800
 30
0.0
 10
31.647164
 20
-65.038870
 30
0.0
 10
32.126722
 20
-65.038870
 30
0.0
 10
32.886883
 20
-65.798515
 30
0.0
 10
32.999537
 20
-65.867254
 30
0.0
 10
33.130794
 20
-65.869846
 30
0.0
 10
33.244999
 20
-65.804203
 30
0.0
 10
33.310629
 20
-65.690009
 30
0.0
 10
33.308560
 20
-65.558749
 30
0.0
 10
33.240348
 20
-65.446090
 30
0.0
 10
32.789212
 20
-64.994949
 30
0.0
 10
32.796964
 20
-64.989789
 30
0.0
 10
32.800581
 20
-64.986694
 30
0.0
 10
32.816086
 20
-64.973756
 30
0.0
 10
32.823835
 20
-64.966532
 30
0.0
 10
33.196940
 20
-64.593417
 30
0.0
 10
33.270838
 20
-64.521609
 30
0.0
 10
33.309594
 20
-64.425989
 30
0.0
 10
33.313211
 20
-64.331956
 30
0.0
 10
33.313211
 20
-63.595038
 30
0.0
 10
33.312695
 20
-63.493227
 30
0.0
 10
33.272389
 20
-63.400226
 30
0.0
 10
33.214511
 20
-63.337678
 30
0.0
 10
32.868277
 20
-62.991471
 30
0.0
 10
32.793863
 20
-62.914451
 30
0.0
 10
32.694129
 20
-62.876218
 30
0.0
 10
32.644519
 20
-62.870530
 30
0.0
 10
32.608861
 20
-62.873625
 30
0.0
 10
31.439424
 20
-62.873625
 30
0.0
 10
31.393432
 20
-62.869498
 30
0.0
 10
31.393432
 20
-62.868995
 30
0.0
  0
LWPOLYLINE
  5
151
100
AcDbEntity
  8
Merged
 62
7
100
AcDbPolyline
 90
33
 70
1
 10
-30.628622
 20
-62.869498
 30
0.0
 10
-30.757812
 20
-62.905666
 30
0.0
 10
-30.849798
 20
-63.003351
 30
0.0
 10
-30.877700
 20
-63.134610
 30
0.0
 10
-30.834293
 20
-63.261214
 30
0.0
 10
-30.093253
 20
-64.372252
 30
0.0
 10
-30.834293
 20
-65.483290
 30
0.0
 10
-30.880285
 20
-65.607327
 30
0.0
 10
-30.855997
 20
-65.737555
 30
0.0
 10
-30.769698
 20
-65.836774
 30
0.0
 10
-30.644124
 20
-65.878631
 30
0.0
 10
-30.514933
 20
-65.850188
 30
0.0
 10
-30.418299
 20
-65.760282
 30
0.0
 10
-29.793015
 20
-64.822864
 30
0.0
 10
-29.167728
 20
-65.760282
 30
0.0
 10
-29.071094
 20
-65.850188
 30
0.0
 10
-28.941903
 20
-65.878631
 30
0.0
 10
-28.816845
 20
-65.836774
 30
0.0
 10
-28.730030
 20
-65.737555
 30
0.0
 10
-28.706257
 20
-65.607327
 30
0.0
 10
-28.751734
 20
-65.483290
 30
0.0
 10
-29.492773
 20
-64.372252
 30
0.0
 10
-28.751734
 20
-63.261214
 30
0.0
 10
-28.708326
 20
-63.132547
 30
0.0
 10
-28.738298
 20
-63.000255
 30
0.0
 10
-28.832866
 20
-62.903100
 30
0.0
 10
-28.964641
 20
-62.869498
 30
0.0
 10
-29.080397
 20
-62.901539
 30
0.0
 10
-29.167728
 20
-62.983719
 30
0.0
 10
-29.793015
 20
-63.921640
 30
0.0
 10
-30.418299
 20
-62.983719
 30
0.0
 10
-30.508731
 20
-62.900004
 30
0.0
 10
-30.628622
 20
-62.869498
 30
0.0
  0
LWPOLYLINE
  5
152
100
AcDbEntity
  8
Merged
 62
7
100
AcDbPolyline
 90
34
 70
1
 10
26.396322
 20
-62.869498
 30
0.0
 10
26.267131
 20
-62.905666
 30
0.0
 10
26.175147
 20
-63.003351
 30
0.0
 10
26.147241
 20
-63.134610
 30
0.0
 10
26.190649
 20
-63.261214
 30
0.0
 10
26.931689
 20
-64.372252
 30
0.0
 10
26.190649
 20
-65.483290
 30
0.0
 10
26.149308
 20
-65.606295
 30
0.0
 10
26.174630
 20
-65.732898
 30
0.0
 10
26.260413
 20
-65.830053
 30
0.0
 10
26.382886
 20
-65.871381
 30
0.0
 10
26.510009
 20
-65.846060
 30
0.0
 10
26.607161
 20
-65.760812
 30
0.0
 10
27.231930
 20
-64.823393
 30
0.0
 10
27.857215
 20
-65.760812
 30
0.0
 10
27.953848
 20
-65.850717
 30
0.0
 10
28.083039
 20
-65.878631
 30
0.0
 10
28.208097
 20
-65.837276
 30
0.0
 10
28.294915
 20
-65.737555
 30
0.0
 10
28.318685
 20
-65.607327
 30
0.0
 10
28.273211
 20
-65.483819
 30
0.0
 10
27.532687
 20
-64.372781
 30
0.0
 10
28.273211
 20
-63.261716
 30
0.0
 10
28.317134
 20
-63.133049
 30
0.0
 10
28.286647
 20
-63.000255
 30
0.0
 10
28.192076
 20
-62.903100
 30
0.0
 10
28.060303
 20
-62.870027
 30
0.0
 10
27.944548
 20
-62.902068
 30
0.0
 10
27.857215
 20
-62.984221
 30
0.0
 10
27.231930
 20
-63.921640
 30
0.0
 10
26.607161
 20
-62.984221
 30
0.0
 10
26.516211
 20
-62.900004
 30
0.0
 10
26.396322
 20
-62.870027
 30
0.0
 10
26.396322
 20
-62.869498
 30
0.0
  0
LWPOLYLINE
  5
153
100
AcDbEntity
  8
Merged
 62
7
100
AcDbPolyline
 90
10
 70
1
 10
31.647164
 20
-63.372841
 30
0.0
 10
32.542715
 20
-63.372841
 30
0.0
 10
32.813501
 20
-63.643087
 30
0.0
 10
32.813501
 20
-64.269408
 30
0.0
 10
32.543234
 20
-64.539177
 30
0.0
 10
32.262114
 20
-64.539177
 30
0.0
 10
32.227491
 20
-64.536585
 30
0.0
 10
32.193383
 20
-64.539177
 30
0.0
 10
31.647164
 20
-64.539177
 30
0.0
 10
31.647164
 20
-63.372841
 30
0.0
  0
LWPOLYLINE
  5
154
100
AcDbEntity
  8
Merged
 62
7
100
AcDbPolyline
 90
15
 70
1
 10
-28.126965
 20
-64.122644
 30
0.0
 10
-28.252023
 20
-64.155717
 30
0.0
 10
-28.343490
 20
-64.247712
 30
0.0
 10
-28.377078
 20
-64.372781
 30
0.0
 10
-28.343490
 20
-64.497823
 30
0.0
 10
-28.252023
 20
-64.589290
 30
0.0
 10
-28.126965
 20
-64.622892
 30
0.0
 10
-26.460918
 20
-64.622892
 30
0.0
 10
-26.335860
 20
-64.589290
 30
0.0
 10
-26.244393
 20
-64.497823
 30
0.0
 10
-26.210803
 20
-64.372781
 30
0.0
 10
-26.244393
 20
-64.247712
 30
0.0
 10
-26.335860
 20
-64.155717
 30
0.0
 10
-26.460918
 20
-64.122644
 30
0.0
 10
-28.126965
 20
-64.122644
 30
0.0
  0
LWPOLYLINE
  5
155
100
AcDbEntity
  8
Merged
 62
7
100
AcDbPolyline
 90
15
 70
1
 10
28.897977
 20
-64.122644
 30
0.0
 10
28.772922
 20
-64.155717
 30
0.0
 10
28.681452
 20
-64.247712
 30
0.0
 10
28.647864
 20
-64.372781
 30
0.0
 10
28.681452
 20
-64.497823
 30
0.0
 10
28.772922
 20
-64.589290
 30
0.0
 10
28.897977
 20
-64.622892
 30
0.0
 10
30.564026
 20
-64.622892
 30
0.0
 10
30.689082
 20
-64.589290
 30
0.0
 10
30.780551
 20
-64.497823
 30
0.0
 10
30.814140
 20
-64.372781
 30
0.0
 10
30.780551
 20
-64.247712
 30
0.0
 10
30.689082
 20
-64.155717
 30
0.0
 10
30.564026
 20
-64.122644
 30
0.0
 10
28.897977
 20
-64.122644
 30
0.0
  0
LWPOLYLINE
  5
156
100
AcDbEntity
  8
Merged
 62
7
100
AcDbPolyline
 90
39
 70
1
 10
-44.676343
 20
-66.776230
 30
0.0
 10
-38.846726
 20
-66.776230
 30
0.0
 10
-38.677742
 20
-66.828432
 30
0.0
 10
-38.508244
 20
-66.776230
 30
0.0
 10
-37.850403
 20
-66.776230
 30
0.0
 10
-31.855421
 20
-66.776230
 30
0.0
 10
-30.541288
 20
-68.090362
 30
0.0
 10
-30.442585
 20
-68.172012
 30
0.0
 10
-30.281356
 20
-68.196301
 30
0.0
 10
-26.719816
 20
-68.196301
 30
0.0
 10
-26.570988
 20
-68.178230
 30
0.0
 10
-26.460400
 20
-68.091394
 30
0.0
 10
-25.145235
 20
-66.776230
 30
0.0
 10
-19.150252
 20
-66.776230
 30
0.0
 10
-12.324312
 20
-66.776230
 30
0.0
 10
-12.324312
 20
-71.961984
 30
0.0
 10
-13.578499
 20
-73.216161
 30
0.0
 10
-13.649296
 20
-73.299346
 30
0.0
 10
-13.651363
 20
-73.302469
 30
0.0
 10
-13.653430
 20
-73.306596
 30
0.0
 10
-13.679268
 20
-73.470929
 30
0.0
 10
-13.679268
 20
-76.635081
 30
0.0
 10
-13.664282
 20
-76.761155
 30
0.0
 10
-13.576432
 20
-76.880006
 30
0.0
 10
-12.929960
 20
-77.527018
 30
0.0
 10
-12.324312
 20
-78.132146
 30
0.0
 10
-12.324312
 20
-83.436195
 30
0.0
 10
-44.676343
 20
-83.436195
 30
0.0
 10
-44.676343
 20
-78.132649
 30
0.0
 10
-44.086198
 20
-77.541993
 30
0.0
 10
-44.070696
 20
-77.527018
 30
0.0
 10
-43.424224
 20
-76.880535
 30
0.0
 10
-43.334824
 20
-76.757556
 30
0.0
 10
-43.321388
 20
-76.635081
 30
0.0
 10
-43.321388
 20
-73.471431
 30
0.0
 10
-43.350841
 20
-73.299876
 30
0.0
 10
-43.422155
 20
-73.216161
 30
0.0
 10
-44.676343
 20
-71.961984
 30
0.0
 10
-44.676343
 20
-66.776230
 30
0.0
  0
LWPOLYLINE
  5
157
100
AcDbEntity
  8
Merged
 62
7
100
AcDbPolyline
 90
41
 70
1
 10
12.323796
 20
-66.776230
 30
0.0
 10
19.149735
 20
-66.776230
 30
0.0
 10
25.144718
 20
-66.776230
 30
0.0
 10
26.458849
 20
-68.090362
 30
0.0
 10
26.557552
 20
-68.172012
 30
0.0
 10
26.718784
 20
-68.196301
 30
0.0
 10
30.280322
 20
-68.196301
 30
0.0
 10
30.429150
 20
-68.178230
 30
0.0
 10
30.539738
 20
-68.091394
 30
0.0
 10
31.854902
 20
-66.776230
 30
0.0
 10
37.849887
 20
-66.776230
 30
0.0
 10
38.507728
 20
-66.776230
 30
0.0
 10
38.677226
 20
-66.828432
 30
0.0
 10
38.846207
 20
-66.776230
 30
0.0
 10
44.675827
 20
-66.776230
 30
0.0
 10
44.675827
 20
-71.961984
 30
0.0
 10
43.421639
 20
-73.216161
 30
0.0
 10
43.346709
 20
-73.307099
 30
0.0
 10
43.320869
 20
-73.422351
 30
0.0
 10
43.320869
 20
-73.425976
 30
0.0
 10
43.320869
 20
-76.635584
 30
0.0
 10
43.337406
 20
-76.765811
 30
0.0
 10
43.339472
 20
-76.772003
 30
0.0
 10
43.341541
 20
-76.776659
 30
0.0
 10
43.422673
 20
-76.880006
 30
0.0
 10
44.070177
 20
-77.527520
 30
0.0
 10
44.675827
 20
-78.133178
 30
0.0
 10
44.675827
 20
-83.436725
 30
0.0
 10
12.323796
 20
-83.436725
 30
0.0
 10
12.323796
 20
-78.132649
 30
0.0
 10
12.921692
 20
-77.534770
 30
0.0
 10
12.929443
 20
-77.527520
 30
0.0
 10
13.575399
 20
-76.881064
 30
0.0
 10
13.669967
 20
-76.744618
 30
0.0
 10
13.678752
 20
-76.640743
 30
0.0
 10
13.678752
 20
-73.471961
 30
0.0
 10
13.649296
 20
-73.300378
 30
0.0
 10
13.577982
 20
-73.216664
 30
0.0
 10
12.323796
 20
-71.962486
 30
0.0
 10
12.323796
 20
-66.776759
 30
0.0
 10
12.323796
 20
-66.776230
 30
0.0
  0
LWPOLYLINE
  5
158
100
AcDbEntity
  8
Merged
 62
7
100
AcDbPolyline
 90
4
 70
1
 10
-0.000517
 20
-79.627148
 30
0.0
 10
-1.270207
 20
-81.532439
 30
0.0
 10
1.269690
 20
-81.532439
 30
0.0
 10
-0.000517
 20
-79.627148
 30
0.0
  0
LWPOLYLINE
  5
159
100
AcDbEntity
  8
Merged
 62
7
100
AcDbPolyline
 90
38
 70
1
 10
-7.975224
 20
-83.006247
 30
0.0
 10
-8.003646
 20
-83.010904
 30
0.0
 10
-8.087878
 20
-83.070859
 30
0.0
 10
-8.304919
 20
-83.287367
 30
0.0
 10
-8.352462
 20
-83.367986
 30
0.0
 10
-8.353495
 20
-83.378331
 30
0.0
 10
-8.354012
 20
-83.389179
 30
0.0
 10
-8.354012
 20
-83.391772
 30
0.0
 10
-8.354012
 20
-84.386023
 30
0.0
 10
-8.343677
 20
-84.456296
 30
0.0
 10
-8.338509
 20
-84.466112
 30
0.0
 10
-8.325590
 20
-84.485242
 30
0.0
 10
-8.324040
 20
-84.488338
 30
0.0
 10
-8.316805
 20
-84.495561
 30
0.0
 10
-8.315255
 20
-84.495561
 30
0.0
 10
-8.088395
 20
-84.722944
 30
0.0
 10
-8.026900
 20
-84.776178
 30
0.0
 10
-8.026384
 20
-84.776178
 30
0.0
 10
-7.931816
 20
-84.785491
 30
0.0
 10
-7.505485
 20
-84.785491
 30
0.0
 10
-7.415051
 20
-84.778241
 30
0.0
 10
-7.410917
 20
-84.775146
 30
0.0
 10
-7.410400
 20
-84.775146
 30
0.0
 10
-7.348906
 20
-84.720880
 30
0.0
 10
-7.147367
 20
-84.519849
 30
0.0
 10
-7.085872
 20
-84.430976
 30
0.0
 10
-7.084322
 20
-84.386023
 30
0.0
 10
-7.084322
 20
-83.412939
 30
0.0
 10
-7.099308
 20
-83.327690
 30
0.0
 10
-7.101892
 20
-83.324065
 30
0.0
 10
-7.134448
 20
-83.286335
 30
0.0
 10
-7.349422
 20
-83.071361
 30
0.0
 10
-7.438306
 20
-83.009872
 30
0.0
 10
-7.466211
 20
-83.006777
 30
0.0
 10
-7.485331
 20
-83.009370
 30
0.0
 10
-7.954553
 20
-83.009370
 30
0.0
 10
-7.975224
 20
-83.006777
 30
0.0
 10
-7.975224
 20
-83.006247
 30
0.0
  0
LWPOLYLINE
  5
15a
100
AcDbEntity
  8
Merged
 62
7
100
AcDbPolyline
 90
39
 70
1
 10
2.689241
 20
-83.006247
 30
0.0
 10
2.689241
 20
-83.007279
 30
0.0
 10
2.660820
 20
-83.011433
 30
0.0
 10
2.575553
 20
-83.072923
 30
0.0
 10
2.360063
 20
-83.287896
 30
0.0
 10
2.328023
 20
-83.324594
 30
0.0
 10
2.324923
 20
-83.329754
 30
0.0
 10
2.323889
 20
-83.332346
 30
0.0
 10
2.310970
 20
-83.415531
 30
0.0
 10
2.310970
 20
-84.386526
 30
0.0
 10
2.312004
 20
-84.428383
 30
0.0
 10
2.312520
 20
-84.431505
 30
0.0
 10
2.313037
 20
-84.434071
 30
0.0
 10
2.375049
 20
-84.522442
 30
0.0
 10
2.576070
 20
-84.723975
 30
0.0
 10
2.637565
 20
-84.777739
 30
0.0
 10
2.638082
 20
-84.777739
 30
0.0
 10
2.732650
 20
-84.787026
 30
0.0
 10
3.158980
 20
-84.787026
 30
0.0
 10
3.249414
 20
-84.779273
 30
0.0
 10
3.253548
 20
-84.776680
 30
0.0
 10
3.254065
 20
-84.776680
 30
0.0
 10
3.314526
 20
-84.723975
 30
0.0
 10
3.538285
 20
-84.500217
 30
0.0
 10
3.543453
 20
-84.495058
 30
0.0
 10
3.580660
 20
-84.387055
 30
0.0
 10
3.580660
 20
-83.396931
 30
0.0
 10
3.580660
 20
-83.390211
 30
0.0
 10
3.580660
 20
-83.384020
 30
0.0
 10
3.580143
 20
-83.377299
 30
0.0
 10
3.579626
 20
-83.371611
 30
0.0
 10
3.579110
 20
-83.369018
 30
0.0
 10
3.530534
 20
-83.285833
 30
0.0
 10
3.314526
 20
-83.070330
 30
0.0
 10
3.226160
 20
-83.009370
 30
0.0
 10
3.198254
 20
-83.006247
 30
0.0
 10
3.179134
 20
-83.008840
 30
0.0
 10
2.715080
 20
-83.008840
 30
0.0
 10
2.689241
 20
-83.006247
 30
0.0
  0
LWPOLYLINE
  5
15b
100
AcDbEntity
  8
Merged
 62
7
100
AcDbPolyline
 90
29
 70
1
 10
7.006291
 20
-83.006247
 30
0.0
 10
7.006291
 20
-83.007279
 30
0.0
 10
6.969084
 20
-83.012968
 30
0.0
 10
6.890536
 20
-83.074986
 30
0.0
 10
6.881234
 20
-83.174734
 30
0.0
 10
6.881234
 20
-83.859952
 30
0.0
 10
6.881234
 20
-83.936443
 30
0.0
 10
6.881234
 20
-84.621661
 30
0.0
 10
6.900354
 20
-84.734823
 30
0.0
 10
7.003707
 20
-84.786523
 30
0.0
 10
7.018693
 20
-84.786523
 30
0.0
 10
8.023800
 20
-84.786523
 30
0.0
 10
8.139038
 20
-84.724505
 30
0.0
 10
8.139038
 20
-84.594277
 30
0.0
 10
8.023800
 20
-84.532787
 30
0.0
 10
7.135482
 20
-84.532787
 30
0.0
 10
7.135482
 20
-84.024814
 30
0.0
 10
7.516337
 20
-84.024814
 30
0.0
 10
7.631576
 20
-83.962796
 30
0.0
 10
7.631576
 20
-83.832568
 30
0.0
 10
7.516337
 20
-83.771079
 30
0.0
 10
7.135482
 20
-83.771079
 30
0.0
 10
7.135482
 20
-83.263079
 30
0.0
 10
8.023800
 20
-83.263079
 30
0.0
 10
8.139038
 20
-83.201087
 30
0.0
 10
8.139038
 20
-83.070859
 30
0.0
 10
8.023800
 20
-83.009370
 30
0.0
 10
7.032129
 20
-83.009370
 30
0.0
 10
7.006291
 20
-83.006247
 30
0.0
  0
LWPOLYLINE
  5
15c
100
AcDbEntity
  8
Merged
 62
7
100
AcDbPolyline
 90
22
 70
1
 10
8.530229
 20
-83.006247
 30
0.0
 10
8.418607
 20
-83.074484
 30
0.0
 10
8.426359
 20
-83.205214
 30
0.0
 10
8.887313
 20
-83.896650
 30
0.0
 10
8.426359
 20
-84.587556
 30
0.0
 10
8.418091
 20
-84.714159
 30
0.0
 10
8.524028
 20
-84.784962
 30
0.0
 10
8.637716
 20
-84.728632
 30
0.0
 10
9.039758
 20
-84.125567
 30
0.0
 10
9.441801
 20
-84.728632
 30
0.0
 10
9.522933
 20
-84.782898
 30
0.0
 10
9.618017
 20
-84.763769
 30
0.0
 10
9.672278
 20
-84.683150
 30
0.0
 10
9.653158
 20
-84.587556
 30
0.0
 10
9.192204
 20
-83.896650
 30
0.0
 10
9.653158
 20
-83.205214
 30
0.0
 10
9.660392
 20
-83.072923
 30
0.0
 10
9.545154
 20
-83.006247
 30
0.0
 10
9.441801
 20
-83.064138
 30
0.0
 10
9.039758
 20
-83.667203
 30
0.0
 10
8.637716
 20
-83.064138
 30
0.0
 10
8.530229
 20
-83.006247
 30
0.0
  0
LWPOLYLINE
  5
15d
100
AcDbEntity
  8
Merged
 62
7
100
AcDbPolyline
 90
45
 70
1
 10
-6.451803
 20
-83.006777
 30
0.0
 10
-6.480225
 20
-83.010904
 30
0.0
 10
-6.565491
 20
-83.072393
 30
0.0
 10
-6.780981
 20
-83.287367
 30
0.0
 10
-6.813021
 20
-83.324065
 30
0.0
 10
-6.816121
 20
-83.329754
 30
0.0
 10
-6.817155
 20
-83.332346
 30
0.0
 10
-6.830074
 20
-83.415531
 30
0.0
 10
-6.830074
 20
-84.386526
 30
0.0
 10
-6.828524
 20
-84.428383
 30
0.0
 10
-6.828524
 20
-84.430976
 30
0.0
 10
-6.828007
 20
-84.433569
 30
0.0
 10
-6.765995
 20
-84.521940
 30
0.0
 10
-6.564974
 20
-84.723473
 30
0.0
 10
-6.503479
 20
-84.777210
 30
0.0
 10
-6.502962
 20
-84.777210
 30
0.0
 10
-6.408394
 20
-84.786523
 30
0.0
 10
-5.982064
 20
-84.786523
 30
0.0
 10
-5.891630
 20
-84.778771
 30
0.0
 10
-5.887496
 20
-84.776178
 30
0.0
 10
-5.886979
 20
-84.776178
 30
0.0
 10
-5.826518
 20
-84.723473
 30
0.0
 10
-5.597591
 20
-84.495058
 30
0.0
 10
-5.561418
 20
-84.428912
 30
0.0
 10
-5.569169
 20
-84.354485
 30
0.0
 10
-5.617745
 20
-84.296620
 30
0.0
 10
-5.690092
 20
-84.276988
 30
0.0
 10
-5.777425
 20
-84.315750
 30
0.0
 10
-5.993949
 20
-84.532258
 30
0.0
 10
-6.397025
 20
-84.532258
 30
0.0
 10
-6.576343
 20
-84.352950
 30
0.0
 10
-6.576343
 20
-83.442413
 30
0.0
 10
-6.396509
 20
-83.262576
 30
0.0
 10
-5.993949
 20
-83.262576
 30
0.0
 10
-5.777425
 20
-83.479614
 30
0.0
 10
-5.654435
 20
-83.512686
 30
0.0
 10
-5.564518
 20
-83.422781
 30
0.0
 10
-5.597591
 20
-83.299776
 30
0.0
 10
-5.826518
 20
-83.071361
 30
0.0
 10
-5.914885
 20
-83.010401
 30
0.0
 10
-5.942790
 20
-83.007279
 30
0.0
 10
-5.961910
 20
-83.009872
 30
0.0
 10
-6.425964
 20
-83.009872
 30
0.0
 10
-6.451803
 20
-83.007279
 30
0.0
 10
-6.451803
 20
-83.006777
 30
0.0
  0
LWPOLYLINE
  5
15e
100
AcDbEntity
  8
Merged
 62
7
100
AcDbPolyline
 90
37
 70
1
 10
-9.752376
 20
-83.007279
 30
0.0
 10
-9.789583
 20
-83.013497
 30
0.0
 10
-9.868132
 20
-83.074986
 30
0.0
 10
-9.877433
 20
-83.174734
 30
0.0
 10
-9.877433
 20
-84.659893
 30
0.0
 10
-9.813871
 20
-84.769986
 30
0.0
 10
-9.686747
 20
-84.769986
 30
0.0
 10
-9.623185
 20
-84.659893
 30
0.0
 10
-9.623185
 20
-84.279052
 30
0.0
 10
-8.988599
 20
-84.279052
 30
0.0
 10
-8.977747
 20
-84.279052
 30
0.0
 10
-8.975679
 20
-84.279052
 30
0.0
 10
-8.974646
 20
-84.279052
 30
0.0
 10
-8.963277
 20
-84.276459
 30
0.0
 10
-8.958110
 20
-84.276459
 30
0.0
 10
-8.950875
 20
-84.273893
 30
0.0
 10
-8.950358
 20
-84.273893
 30
0.0
 10
-8.945707
 20
-84.273893
 30
0.0
 10
-8.938989
 20
-84.270771
 30
0.0
 10
-8.933822
 20
-84.268204
 30
0.0
 10
-8.927621
 20
-84.265109
 30
0.0
 10
-8.922969
 20
-84.262516
 30
0.0
 10
-8.898682
 20
-84.243386
 30
0.0
 10
-8.671822
 20
-84.016003
 30
0.0
 10
-8.607743
 20
-83.910593
 30
0.0
 10
-8.607743
 20
-83.885273
 30
0.0
 10
-8.607743
 20
-83.416061
 30
0.0
 10
-8.622730
 20
-83.330785
 30
0.0
 10
-8.625313
 20
-83.327161
 30
0.0
 10
-8.657869
 20
-83.289457
 30
0.0
 10
-8.872843
 20
-83.074484
 30
0.0
 10
-8.961727
 20
-83.012968
 30
0.0
 10
-8.989632
 20
-83.009872
 30
0.0
 10
-9.008752
 20
-83.012465
 30
0.0
 10
-9.726538
 20
-83.012465
 30
0.0
 10
-9.752376
 20
-83.009872
 30
0.0
 10
-9.752376
 20
-83.007279
 30
0.0
  0
LWPOLYLINE
  5
15f
100
AcDbEntity
  8
Merged
 62
7
100
AcDbPolyline
 90
16
 70
1
 10
3.959448
 20
-83.007279
 30
0.0
 10
3.959448
 20
-83.007809
 30
0.0
 10
3.870048
 20
-83.046570
 30
0.0
 10
3.834391
 20
-83.137005
 30
0.0
 10
3.834391
 20
-84.622190
 30
0.0
 10
3.865397
 20
-84.749825
 30
0.0
 10
3.927926
 20
-84.789089
 30
0.0
 10
4.001306
 20
-84.786523
 30
0.0
 10
4.976957
 20
-84.786523
 30
0.0
 10
5.092196
 20
-84.724505
 30
0.0
 10
5.092196
 20
-84.594277
 30
0.0
 10
4.976957
 20
-84.532787
 30
0.0
 10
4.088123
 20
-84.532787
 30
0.0
 10
4.088123
 20
-83.136475
 30
0.0
 10
4.050916
 20
-83.044506
 30
0.0
 10
3.959448
 20
-83.007279
 30
0.0
  0
LWPOLYLINE
  5
160
100
AcDbEntity
  8
Merged
 62
7
100
AcDbPolyline
 90
18
 70
1
 10
5.990849
 20
-83.007279
 30
0.0
 10
5.971728
 20
-83.009872
 30
0.0
 10
5.484937
 20
-83.009872
 30
0.0
 10
5.369698
 20
-83.071361
 30
0.0
 10
5.369698
 20
-83.202119
 30
0.0
 10
5.484937
 20
-83.263608
 30
0.0
 10
5.865792
 20
-83.263608
 30
0.0
 10
5.865792
 20
-84.660422
 30
0.0
 10
5.927287
 20
-84.775649
 30
0.0
 10
6.058028
 20
-84.775649
 30
0.0
 10
6.119523
 20
-84.660422
 30
0.0
 10
6.119523
 20
-83.263608
 30
0.0
 10
6.500378
 20
-83.263608
 30
0.0
 10
6.615617
 20
-83.202119
 30
0.0
 10
6.615617
 20
-83.071361
 30
0.0
 10
6.500378
 20
-83.009872
 30
0.0
 10
6.016170
 20
-83.009872
 30
0.0
 10
5.990849
 20
-83.007279
 30
0.0
  0
LWPOLYLINE
  5
161
100
AcDbEntity
  8
Merged
 62
7
100
AcDbPolyline
 90
25
 70
1
 10
0.912089
 20
-83.007809
 30
0.0
 10
0.912089
 20
-83.008338
 30
0.0
 10
0.822689
 20
-83.047073
 30
0.0
 10
0.787032
 20
-83.137507
 30
0.0
 10
0.787032
 20
-84.133849
 30
0.0
 10
0.797367
 20
-84.204122
 30
0.0
 10
0.802535
 20
-84.213938
 30
0.0
 10
0.824239
 20
-84.242884
 30
0.0
 10
1.314132
 20
-84.732257
 30
0.0
 10
1.423169
 20
-84.789619
 30
0.0
 10
1.530139
 20
-84.731728
 30
0.0
 10
1.993677
 20
-84.268707
 30
0.0
 10
2.055688
 20
-84.176738
 30
0.0
 10
2.056722
 20
-84.134881
 30
0.0
 10
2.056722
 20
-83.137507
 30
0.0
 10
2.019515
 20
-83.046041
 30
0.0
 10
1.928048
 20
-83.008338
 30
0.0
 10
1.838647
 20
-83.047073
 30
0.0
 10
1.802991
 20
-83.137507
 30
0.0
 10
1.802991
 20
-84.100247
 30
0.0
 10
1.422135
 20
-84.480585
 30
0.0
 10
1.041280
 20
-84.099744
 30
0.0
 10
1.041280
 20
-83.137005
 30
0.0
 10
1.004073
 20
-83.045009
 30
0.0
 10
0.912089
 20
-83.007809
 30
0.0
  0
LWPOLYLINE
  5
162
100
AcDbEntity
  8
Merged
 62
7
100
AcDbPolyline
 90
29
 70
1
 10
-3.658175
 20
-83.008338
 30
0.0
 10
-3.658175
 20
-83.009872
 30
0.0
 10
-3.695382
 20
-83.016064
 30
0.0
 10
-3.773930
 20
-83.078082
 30
0.0
 10
-3.783232
 20
-83.177301
 30
0.0
 10
-3.783232
 20
-83.862545
 30
0.0
 10
-3.783232
 20
-83.939010
 30
0.0
 10
-3.783232
 20
-84.624254
 30
0.0
 10
-3.752226
 20
-84.751889
 30
0.0
 10
-3.689697
 20
-84.791153
 30
0.0
 10
-3.616317
 20
-84.788587
 30
0.0
 10
-2.640666
 20
-84.788587
 30
0.0
 10
-2.525427
 20
-84.726568
 30
0.0
 10
-2.525427
 20
-84.596340
 30
0.0
 10
-2.640666
 20
-84.534851
 30
0.0
 10
-3.529500
 20
-84.534851
 30
0.0
 10
-3.529500
 20
-84.026878
 30
0.0
 10
-3.148645
 20
-84.026878
 30
0.0
 10
-3.033407
 20
-83.964859
 30
0.0
 10
-3.033407
 20
-83.834631
 30
0.0
 10
-3.148645
 20
-83.773142
 30
0.0
 10
-3.529500
 20
-83.773142
 30
0.0
 10
-3.529500
 20
-83.265169
 30
0.0
 10
-2.640666
 20
-83.265169
 30
0.0
 10
-2.525427
 20
-83.203150
 30
0.0
 10
-2.525427
 20
-83.072923
 30
0.0
 10
-2.640666
 20
-83.011433
 30
0.0
 10
-3.632853
 20
-83.011433
 30
0.0
 10
-3.658175
 20
-83.008338
 30
0.0
  0
LWPOLYLINE
  5
163
100
AcDbEntity
  8
Merged
 62
7
100
AcDbPolyline
 90
18
 70
1
 10
-1.626774
 20
-83.008338
 30
0.0
 10
-1.645894
 20
-83.011433
 30
0.0
 10
-2.132686
 20
-83.011433
 30
0.0
 10
-2.247925
 20
-83.072923
 30
0.0
 10
-2.247925
 20
-83.203150
 30
0.0
 10
-2.132686
 20
-83.265169
 30
0.0
 10
-1.751831
 20
-83.265169
 30
0.0
 10
-1.751831
 20
-84.661984
 30
0.0
 10
-1.690336
 20
-84.776680
 30
0.0
 10
-1.559595
 20
-84.776680
 30
0.0
 10
-1.498100
 20
-84.661984
 30
0.0
 10
-1.498100
 20
-83.265169
 30
0.0
 10
-1.117244
 20
-83.265169
 30
0.0
 10
-1.002006
 20
-83.203150
 30
0.0
 10
-1.002006
 20
-83.072923
 30
0.0
 10
-1.117244
 20
-83.011433
 30
0.0
 10
-1.601453
 20
-83.011433
 30
0.0
 10
-1.626774
 20
-83.008338
 30
0.0
  0
LWPOLYLINE
  5
164
100
AcDbEntity
  8
Merged
 62
7
100
AcDbPolyline
 90
31
 70
1
 10
-5.181596
 20
-83.009872
 30
0.0
 10
-5.270996
 20
-83.048634
 30
0.0
 10
-5.306653
 20
-83.139068
 30
0.0
 10
-5.306653
 20
-84.133320
 30
0.0
 10
-5.306653
 20
-84.180336
 30
0.0
 10
-5.306653
 20
-84.662486
 30
0.0
 10
-5.288049
 20
-84.735352
 30
0.0
 10
-5.280815
 20
-84.745698
 30
0.0
 10
-5.231205
 20
-84.784433
 30
0.0
 10
-5.219837
 20
-84.789089
 30
0.0
 10
-5.103048
 20
-84.769986
 30
0.0
 10
-5.052921
 20
-84.662486
 30
0.0
 10
-5.052921
 20
-84.207218
 30
0.0
 10
-4.925798
 20
-84.080085
 30
0.0
 10
-4.254004
 20
-84.751889
 30
0.0
 10
-4.130497
 20
-84.787026
 30
0.0
 10
-4.039547
 20
-84.696088
 30
0.0
 10
-4.074170
 20
-84.572581
 30
0.0
 10
-4.745964
 20
-83.900777
 30
0.0
 10
-4.074170
 20
-83.228471
 30
0.0
 10
-4.037996
 20
-83.162325
 30
0.0
 10
-4.045748
 20
-83.087898
 30
0.0
 10
-4.094324
 20
-83.030536
 30
0.0
 10
-4.166671
 20
-83.010401
 30
0.0
 10
-4.254004
 20
-83.049136
 30
0.0
 10
-4.999178
 20
-83.794335
 30
0.0
 10
-5.032251
 20
-83.827911
 30
0.0
 10
-5.052921
 20
-83.848072
 30
0.0
 10
-5.052921
 20
-83.139068
 30
0.0
 10
-5.090129
 20
-83.047073
 30
0.0
 10
-5.181596
 20
-83.009872
 30
0.0
  0
LWPOLYLINE
  5
165
100
AcDbEntity
  8
Merged
 62
7
100
AcDbPolyline
 90
7
 70
1
 10
-9.623185
 20
-83.261544
 30
0.0
 10
-9.041309
 20
-83.261544
 30
0.0
 10
-8.861475
 20
-83.441381
 30
0.0
 10
-8.861475
 20
-83.843945
 30
0.0
 10
-9.041309
 20
-84.023253
 30
0.0
 10
-9.623185
 20
-84.023253
 30
0.0
 10
-9.623185
 20
-83.261544
 30
0.0
  0
LWPOLYLINE
  5
166
100
AcDbEntity
  8
Merged
 62
7
100
AcDbPolyline
 90
9
 70
1
 10
-7.920447
 20
-83.261544
 30
0.0
 10
-7.517371
 20
-83.261544
 30
0.0
 10
-7.338053
 20
-83.441381
 30
0.0
 10
-7.338053
 20
-84.351918
 30
0.0
 10
-7.517371
 20
-84.531226
 30
0.0
 10
-7.920447
 20
-84.531226
 30
0.0
 10
-8.099764
 20
-84.351918
 30
0.0
 10
-8.099764
 20
-83.441381
 30
0.0
 10
-7.920447
 20
-83.261544
 30
0.0
  0
LWPOLYLINE
  5
167
100
AcDbEntity
  8
Merged
 62
7
100
AcDbPolyline
 90
9
 70
1
 10
2.744535
 20
-83.261544
 30
0.0
 10
3.147095
 20
-83.261544
 30
0.0
 10
3.326412
 20
-83.441381
 30
0.0
 10
3.326412
 20
-84.351918
 30
0.0
 10
3.147095
 20
-84.531226
 30
0.0
 10
2.744019
 20
-84.531226
 30
0.0
 10
2.564701
 20
-84.351918
 30
0.0
 10
2.564701
 20
-83.441381
 30
0.0
 10
2.744535
 20
-83.261544
 30
0.0
  0
ENDSEC
  0
SECTION
  2
OBJECTS
  0
DICTIONARY
  5
C
330
0
100
AcDbDictionary
  3
ACAD_GROUP
350
D
  3
ACAD_MLINESTYLE
350
17
  0
DICTIONARY
  5
D
330
C
100
AcDbDictionary
  0
DICTIONARY
  5
1A
330
C
100
AcDbDictionary
  0
DICTIONARY
  5
17
330
C
100
AcDbDictionary
  3
STANDARD
350
18
  0
DICTIONARY
  5
19
330
C
100
AcDbDictionary
  0
ENDSEC
  0
EOF
