  0
SECTION
  2
HEADER
  9
$ACADVER
  1
AC1014
  9
$HANDSEED
  5
FFFF
  9
$MEASUREMENT
 70
     1
  0
ENDSEC
  0
SECTION
  2
TABLES
  0
TABLE
  2
VPORT
  5
8
330
0
100
AcDbSymbolTable
 70
     4
  0
VPORT
  5
2E
330
8
100
AcDbSymbolTableRecord
100
AcDbViewportTableRecord
  2
*ACTIVE
 70
     0
 10
0.0
 20
0.0
 11
1.0
 21
1.0
 12
210.0
 22
148.5
 13
0.0
 23
0.0
 14
10.0
 24
10.0
 15
10.0
 25
10.0
 16
0.0
 26
0.0
 36
1.0
 17
0.0
 27
0.0
 37
0.0
 40
341.0
 41
1.24
 42
50.0
 43
0.0
 44
0.0
 50
0.0
 51
0.0
 71
     0
 72
   100
 73
     1
 74
     3
 75
     0
 76
     0
 77
     0
 78
     0
  0
ENDTAB
  0
TABLE
  2
LTYPE
  5
5
330
0
100
AcDbSymbolTable
 70
     1
  0
LTYPE
  5
14
330
5
100
AcDbSymbolTableRecord
100
AcDbLinetypeTableRecord
  2
BYBLOCK
 70
     0
  3

 72
    65
 73
     0
 40
0.0
  0
LTYPE
  5
15
330
5
100
AcDbSymbolTableRecord
100
AcDbLinetypeTableRecord
  2
BYLAYER
 70
     0
  3

 72
    65
 73
     0
 40
0.0
  0
LTYPE
  5
16
330
5
100
AcDbSymbolTableRecord
100
AcDbLinetypeTableRecord
  2
CONTINUOUS
 70
     0
  3
Solid line
 72
    65
 73
     0
 40
0.0
  0
ENDTAB
  0
TABLE
  2
LAYER
  5
2
100
AcDbSymbolTable
 70
3
  0
LAYER
  5
50
100
AcDbSymbolTableRecord
100
AcDbLayerTableRecord
  2
0
 70
0
  6
CONTINUOUS
  0
LAYER
  5
51
100
AcDbSymbolTableRecord
100
AcDbLayerTableRecord
  2
Mechanical11
 70
0
  6
CONTINUOUS
  0
LAYER
  5
52
100
AcDbSymbolTableRecord
100
AcDbLayerTableRecord
  2
Mechanical12
 70
0
  6
CONTINUOUS
  0
ENDTAB
  0
TABLE
  2
STYLE
  5
3
330
0
100
AcDbSymbolTable
 70
     1
  0
STYLE
  5
11
330
3
100
AcDbSymbolTableRecord
100
AcDbTextStyleTableRecord
  2
STANDARD
 70
     0
 40
0.0
 41
1.0
 50
0.0
 71
     0
 42
2.5
  3
txt
  4

  0
ENDTAB
  0
TABLE
  2
VIEW
  5
6
330
0
100
AcDbSymbolTable
 70
     0
  0
ENDTAB
  0
TABLE
  2
UCS
  5
7
330
0
100
AcDbSymbolTable
 70
     0
  0
ENDTAB
  0
TABLE
  2
APPID
  5
9
330
0
100
AcDbSymbolTable
 70
     2
  0
APPID
  5
12
330
9
100
AcDbSymbolTableRecord
100
AcDbRegAppTableRecord
  2
ACAD
 70
     0
  0
ENDTAB
  0
TABLE
  2
DIMSTYLE
  5
A
330
0
100
AcDbSymbolTable
 70
     1
  0
DIMSTYLE
105
27
330
A
100
AcDbSymbolTableRecord
100
AcDbDimStyleTableRecord
  2
ISO-25
 70
     0
  3

  4

  5

  6

  7

 40
1.0
 41
2.5
 42
0.625
 43
3.75
 44
1.25
 45
0.0
 46
0.0
 47
0.0
 48
0.0
140
2.5
141
2.5
142
0.0
143
0.03937007874016
144
1.0
145
0.0
146
1.0
147
0.625
 71
     0
 72
     0
 73
     0
 74
     0
 75
     0
 76
     0
 77
     1
 78
     8
170
     0
171
     3
172
     1
173
     0
174
     0
175
     0
176
     0
177
     0
178
     0
270
     2
271
     2
272
     2
273
     2
274
     3
340
11
275
     0
280
     0
281
     0
282
     0
283
     0
284
     8
285
     0
286
     0
287
     3
288
     0
  0
ENDTAB
  0
TABLE
  2
BLOCK_RECORD
  5
1
330
0
100
AcDbSymbolTable
 70
     1
  0
BLOCK_RECORD
  5
1F
330
1
100
AcDbSymbolTableRecord
100
AcDbBlockTableRecord
  2
*MODEL_SPACE
  0
BLOCK_RECORD
  5
1B
330
1
100
AcDbSymbolTableRecord
100
AcDbBlockTableRecord
  2
*PAPER_SPACE
  0
ENDTAB
  0
ENDSEC
  0
SECTION
  2
BLOCKS
  0
BLOCK
  5
20
330
1F
100
AcDbEntity
  8
0
100
AcDbBlockBegin
  2
*MODEL_SPACE
 70
     0
 10
0.0
 20
0.0
 30
0.0
  3
*MODEL_SPACE
  1

  0
ENDBLK
  5
21
330
1F
100
AcDbEntity
  8
0
100
AcDbBlockEnd
  0
BLOCK
  5
1C
330
1B
100
AcDbEntity
 67
     1
  8
0
100
AcDbBlockBegin
  2
*PAPER_SPACE
  1

  0
ENDBLK
  5
1D
330
1B
100
AcDbEntity
 67
     1
  8
0
100
AcDbBlockEnd
  0
ENDSEC
  0
SECTION
  2
ENTITIES
  0
LWPOLYLINE
  5
100
100
AcDbEntity
  8
Mechanical11
 62
7
100
AcDbPolyline
 90
150
 70
1
 10
-12.370304
 20
10.069195
 30
0.0
 10
-12.973663
 20
9.999213
 30
0.0
 10
-13.533902
 20
9.816121
 30
0.0
 10
-14.039152
 20
9.532144
 30
0.0
 10
-14.477544
 20
9.159478
 30
0.0
 10
-14.837210
 20
8.710348
 30
0.0
 10
-15.106281
 20
8.197003
 30
0.0
 10
-15.272889
 20
7.631642
 30
0.0
 10
-15.325163
 20
7.026487
 30
0.0
 10
-15.325163
 20
-10.491311
 30
0.0
 10
-15.352069
 20
-10.884403
 30
0.0
 10
-15.327446
 20
-11.275960
 30
0.0
 10
-15.251943
 20
-11.660955
 30
0.0
 10
-15.126210
 20
-12.034361
 30
0.0
 10
-15.083835
 20
-12.140300
 30
0.0
 10
-15.081242
 20
-12.146121
 30
0.0
 10
-14.906153
 20
-12.490873
 30
0.0
 10
-14.689156
 20
-12.808982
 30
0.0
 10
-14.433204
 20
-13.096690
 30
0.0
 10
-14.141248
 20
-13.350187
 30
0.0
 10
-3.000326
 20
-24.491103
 30
0.0
 10
-3.000326
 20
-51.173195
 30
0.0
 10
-31.653366
 20
-51.173195
 30
0.0
 10
-32.141268
 20
-51.139857
 30
0.0
 10
-32.624969
 20
-51.185683
 30
0.0
 10
-33.094930
 20
-51.308979
 30
0.0
 10
-33.541621
 20
-51.508051
 30
0.0
 10
-33.711121
 20
-51.604677
 30
0.0
 10
-33.722498
 20
-51.611292
 30
0.0
 10
-34.108837
 20
-51.889369
 30
0.0
 10
-34.444411
 20
-52.222850
 30
0.0
 10
-34.723403
 20
-52.604908
 30
0.0
 10
-34.939994
 20
-53.028797
 30
0.0
 10
-47.565064
 20
-73.828540
 30
0.0
 10
-47.752534
 20
-74.182393
 30
0.0
 10
-47.889684
 20
-74.553048
 30
0.0
 10
-47.976367
 20
-74.935345
 30
0.0
 10
-48.012445
 20
-75.324150
 30
0.0
 10
-47.997787
 20
-75.714357
 30
0.0
 10
-47.932232
 20
-76.100834
 30
0.0
 10
-47.815648
 20
-76.478447
 30
0.0
 10
-47.647897
 20
-76.842064
 30
0.0
 10
-47.433304
 20
-77.180175
 30
0.0
 10
-47.179217
 20
-77.482859
 30
0.0
 10
-46.890019
 20
-77.747469
 30
0.0
 10
-46.570096
 20
-77.971359
 30
0.0
 10
-46.223830
 20
-78.151858
 30
0.0
 10
-45.855607
 20
-78.286292
 30
0.0
 10
-45.469813
 20
-78.371991
 30
0.0
 10
-45.070832
 20
-78.406334
 30
0.0
 10
-44.670827
 20
-78.387284
 30
0.0
 10
-44.282029
 20
-78.316455
 30
0.0
 10
-43.908922
 20
-78.196228
 30
0.0
 10
-43.555989
 20
-78.029170
 30
0.0
 10
-43.227715
 20
-77.817715
 30
0.0
 10
-42.928580
 20
-77.564377
 30
0.0
 10
-42.663070
 20
-77.271642
 30
0.0
 10
-42.435669
 20
-76.942024
 30
0.0
 10
-30.436918
 20
-57.173204
 30
0.0
 10
-0.490926
 20
-57.173204
 30
0.0
 10
-0.004909
 20
-57.212839
 30
0.0
 10
0.481108
 20
-57.173204
 30
0.0
 10
30.435868
 20
-57.173204
 30
0.0
 10
42.435137
 20
-76.942024
 30
0.0
 10
42.662531
 20
-77.271668
 30
0.0
 10
42.928037
 20
-77.564403
 30
0.0
 10
43.227170
 20
-77.817768
 30
0.0
 10
43.555449
 20
-78.029223
 30
0.0
 10
43.908387
 20
-78.196308
 30
0.0
 10
44.281500
 20
-78.316534
 30
0.0
 10
44.670308
 20
-78.387390
 30
0.0
 10
45.070324
 20
-78.406440
 30
0.0
 10
45.469318
 20
-78.372123
 30
0.0
 10
45.855125
 20
-78.286398
 30
0.0
 10
46.223359
 20
-78.151964
 30
0.0
 10
46.569633
 20
-77.971491
 30
0.0
 10
46.889567
 20
-77.747601
 30
0.0
 10
47.178770
 20
-77.482965
 30
0.0
 10
47.432862
 20
-77.180255
 30
0.0
 10
47.647458
 20
-76.842144
 30
0.0
 10
47.815206
 20
-76.478500
 30
0.0
 10
47.931784
 20
-76.100861
 30
0.0
 10
47.997332
 20
-75.714384
 30
0.0
 10
48.011990
 20
-75.324176
 30
0.0
 10
47.975896
 20
-74.935345
 30
0.0
 10
47.889197
 20
-74.553048
 30
0.0
 10
47.752029
 20
-74.182393
 30
0.0
 10
47.564537
 20
-73.828540
 30
0.0
 10
34.934303
 20
-53.020516
 30
0.0
 10
34.710097
 20
-52.586572
 30
0.0
 10
34.420540
 20
-52.197132
 30
0.0
 10
34.071991
 20
-51.859445
 30
0.0
 10
33.670814
 20
-51.580812
 30
0.0
 10
33.509582
 20
-51.491409
 30
0.0
 10
33.483230
 20
-51.476857
 30
0.0
 10
33.045358
 20
-51.291464
 30
0.0
 10
32.586586
 20
-51.178063
 30
0.0
 10
32.115699
 20
-51.138085
 30
0.0
 10
31.641481
 20
-51.173010
 30
0.0
 10
2.999817
 20
-51.173010
 30
0.0
 10
2.999817
 20
-24.490971
 30
0.0
 10
14.141773
 20
-13.349023
 30
0.0
 10
14.437974
 20
-13.090472
 30
0.0
 10
14.696805
 20
-12.796732
 30
0.0
 10
14.915185
 20
-12.471797
 30
0.0
 10
15.090035
 20
-12.119636
 30
0.0
 10
15.136544
 20
-12.011634
 30
0.0
 10
15.137073
 20
-12.011634
 30
0.0
 10
15.137602
 20
-12.008988
 30
0.0
 10
15.257915
 20
-11.640794
 30
0.0
 10
15.329590
 20
-11.261725
 30
0.0
 10
15.352040
 20
-10.876624
 30
0.0
 10
15.324672
 20
-10.490226
 30
0.0
 10
15.324672
 20
7.026540
 30
0.0
 10
15.304886
 20
7.429024
 30
0.0
 10
15.232633
 20
7.820025
 30
0.0
 10
15.110470
 20
8.194993
 30
0.0
 10
14.940955
 20
8.549349
 30
0.0
 10
14.726645
 20
8.878544
 30
0.0
 10
14.470098
 20
9.178052
 30
0.0
 10
14.173872
 20
9.443270
 30
0.0
 10
13.840524
 20
9.669701
 30
0.0
 10
13.479890
 20
9.849511
 30
0.0
 10
13.103585
 20
9.977940
 30
0.0
 10
12.716832
 20
10.055013
 30
0.0
 10
12.324855
 20
10.080678
 30
0.0
 10
11.932878
 20
10.055013
 30
0.0
 10
11.546125
 20
9.977940
 30
0.0
 10
11.169820
 20
9.849511
 30
0.0
 10
10.809186
 20
9.669701
 30
0.0
 10
10.475838
 20
9.443270
 30
0.0
 10
10.179612
 20
9.178052
 30
0.0
 10
9.923065
 20
8.878544
 30
0.0
 10
9.708755
 20
8.549349
 30
0.0
 10
9.539240
 20
8.194993
 30
0.0
 10
9.417077
 20
7.820025
 30
0.0
 10
9.344824
 20
7.429024
 30
0.0
 10
9.325038
 20
7.026540
 30
0.0
 10
9.325038
 20
-9.680443
 30
0.0
 10
0.000000
 20
-19.005524
 30
0.0
 10
-9.325529
 20
-9.680496
 30
0.0
 10
-9.325529
 20
7.026487
 30
0.0
 10
-9.377367
 20
7.626218
 30
0.0
 10
-9.545692
 20
8.198088
 30
0.0
 10
-9.823732
 20
8.725403
 30
0.0
 10
-10.204712
 20
9.191493
 30
0.0
 10
-10.671049
 20
9.572149
 30
0.0
 10
-11.198550
 20
9.849829
 30
0.0
 10
-11.770529
 20
10.017760
 30
0.0
 10
-12.370304
 20
10.069195
 30
0.0
  0
ENDSEC
  0
SECTION
  2
OBJECTS
  0
DICTIONARY
  5
C
330
0
100
AcDbDictionary
  3
ACAD_GROUP
350
D
  3
ACAD_MLINESTYLE
350
17
  0
DICTIONARY
  5
D
330
C
100
AcDbDictionary
  0
DICTIONARY
  5
1A
330
C
100
AcDbDictionary
  0
DICTIONARY
  5
17
330
C
100
AcDbDictionary
  3
STANDARD
350
18
  0
DICTIONARY
  5
19
330
C
100
AcDbDictionary
  0
ENDSEC
  0
EOF
