  0
SECTION
  2
HEADER
  9
$ACADVER
  1
AC1014
  9
$HANDSEED
  5
FFFF
  9
$MEASUREMENT
 70
     1
  0
ENDSEC
  0
SECTION
  2
TABLES
  0
TABLE
  2
VPORT
  5
8
330
0
100
AcDbSymbolTable
 70
     4
  0
VPORT
  5
2E
330
8
100
AcDbSymbolTableRecord
100
AcDbViewportTableRecord
  2
*ACTIVE
 70
     0
 10
0.0
 20
0.0
 11
1.0
 21
1.0
 12
210.0
 22
148.5
 13
0.0
 23
0.0
 14
10.0
 24
10.0
 15
10.0
 25
10.0
 16
0.0
 26
0.0
 36
1.0
 17
0.0
 27
0.0
 37
0.0
 40
341.0
 41
1.24
 42
50.0
 43
0.0
 44
0.0
 50
0.0
 51
0.0
 71
     0
 72
   100
 73
     1
 74
     3
 75
     0
 76
     0
 77
     0
 78
     0
  0
ENDTAB
  0
TABLE
  2
LTYPE
  5
5
330
0
100
AcDbSymbolTable
 70
     1
  0
LTYPE
  5
14
330
5
100
AcDbSymbolTableRecord
100
AcDbLinetypeTableRecord
  2
BYBLOCK
 70
     0
  3

 72
    65
 73
     0
 40
0.0
  0
LTYPE
  5
15
330
5
100
AcDbSymbolTableRecord
100
AcDbLinetypeTableRecord
  2
BYLAYER
 70
     0
  3

 72
    65
 73
     0
 40
0.0
  0
LTYPE
  5
16
330
5
100
AcDbSymbolTableRecord
100
AcDbLinetypeTableRecord
  2
CONTINUOUS
 70
     0
  3
Solid line
 72
    65
 73
     0
 40
0.0
  0
ENDTAB
  0
TABLE
  2
LAYER
  5
2
100
AcDbSymbolTable
 70
3
  0
LAYER
  5
50
100
AcDbSymbolTableRecord
100
AcDbLayerTableRecord
  2
0
 70
0
  6
CONTINUOUS
  0
LAYER
  5
51
100
AcDbSymbolTableRecord
100
AcDbLayerTableRecord
  2
Mechanical11
 70
0
  6
CONTINUOUS
  0
LAYER
  5
52
100
AcDbSymbolTableRecord
100
AcDbLayerTableRecord
  2
Mechanical12
 70
0
  6
CONTINUOUS
  0
ENDTAB
  0
TABLE
  2
STYLE
  5
3
330
0
100
AcDbSymbolTable
 70
     1
  0
STYLE
  5
11
330
3
100
AcDbSymbolTableRecord
100
AcDbTextStyleTableRecord
  2
STANDARD
 70
     0
 40
0.0
 41
1.0
 50
0.0
 71
     0
 42
2.5
  3
txt
  4

  0
ENDTAB
  0
TABLE
  2
VIEW
  5
6
330
0
100
AcDbSymbolTable
 70
     0
  0
ENDTAB
  0
TABLE
  2
UCS
  5
7
330
0
100
AcDbSymbolTable
 70
     0
  0
ENDTAB
  0
TABLE
  2
APPID
  5
9
330
0
100
AcDbSymbolTable
 70
     2
  0
APPID
  5
12
330
9
100
AcDbSymbolTableRecord
100
AcDbRegAppTableRecord
  2
ACAD
 70
     0
  0
ENDTAB
  0
TABLE
  2
DIMSTYLE
  5
A
330
0
100
AcDbSymbolTable
 70
     1
  0
DIMSTYLE
105
27
330
A
100
AcDbSymbolTableRecord
100
AcDbDimStyleTableRecord
  2
ISO-25
 70
     0
  3

  4

  5

  6

  7

 40
1.0
 41
2.5
 42
0.625
 43
3.75
 44
1.25
 45
0.0
 46
0.0
 47
0.0
 48
0.0
140
2.5
141
2.5
142
0.0
143
0.03937007874016
144
1.0
145
0.0
146
1.0
147
0.625
 71
     0
 72
     0
 73
     0
 74
     0
 75
     0
 76
     0
 77
     1
 78
     8
170
     0
171
     3
172
     1
173
     0
174
     0
175
     0
176
     0
177
     0
178
     0
270
     2
271
     2
272
     2
273
     2
274
     3
340
11
275
     0
280
     0
281
     0
282
     0
283
     0
284
     8
285
     0
286
     0
287
     3
288
     0
  0
ENDTAB
  0
TABLE
  2
BLOCK_RECORD
  5
1
330
0
100
AcDbSymbolTable
 70
     1
  0
BLOCK_RECORD
  5
1F
330
1
100
AcDbSymbolTableRecord
100
AcDbBlockTableRecord
  2
*MODEL_SPACE
  0
BLOCK_RECORD
  5
1B
330
1
100
AcDbSymbolTableRecord
100
AcDbBlockTableRecord
  2
*PAPER_SPACE
  0
ENDTAB
  0
ENDSEC
  0
SECTION
  2
BLOCKS
  0
BLOCK
  5
20
330
1F
100
AcDbEntity
  8
0
100
AcDbBlockBegin
  2
*MODEL_SPACE
 70
     0
 10
0.0
 20
0.0
 30
0.0
  3
*MODEL_SPACE
  1

  0
ENDBLK
  5
21
330
1F
100
AcDbEntity
  8
0
100
AcDbBlockEnd
  0
BLOCK
  5
1C
330
1B
100
AcDbEntity
 67
     1
  8
0
100
AcDbBlockBegin
  2
*PAPER_SPACE
  1

  0
ENDBLK
  5
1D
330
1B
100
AcDbEntity
 67
     1
  8
0
100
AcDbBlockEnd
  0
ENDSEC
  0
SECTION
  2
ENTITIES
  0
LWPOLYLINE
  5
100
100
AcDbEntity
  8
Mechanical12
 62
7
100
AcDbPolyline
 90
73
 70
1
 10
-10.345622
 20
9.919335
 30
0.0
 10
-10.948980
 20
9.849359
 30
0.0
 10
-11.509219
 20
9.666265
 30
0.0
 10
-12.014469
 20
9.382274
 30
0.0
 10
-12.452862
 20
9.009607
 30
0.0
 10
-12.812528
 20
8.560488
 30
0.0
 10
-13.081599
 20
8.047137
 30
0.0
 10
-13.248206
 20
7.481776
 30
0.0
 10
-13.300480
 20
6.876627
 30
0.0
 10
-13.300480
 20
-8.206184
 30
0.0
 10
-30.493229
 20
-25.398412
 30
0.0
 10
-30.789917
 20
-25.657458
 30
0.0
 10
-31.049091
 20
-25.951809
 30
0.0
 10
-31.267659
 20
-26.277450
 30
0.0
 10
-31.442525
 20
-26.630365
 30
0.0
 10
-31.484901
 20
-26.728552
 30
0.0
 10
-31.491092
 20
-26.745486
 30
0.0
 10
-31.609861
 20
-27.111987
 30
0.0
 10
-31.680494
 20
-27.489129
 30
0.0
 10
-31.702419
 20
-27.872202
 30
0.0
 10
-31.675062
 20
-28.256495
 30
0.0
 10
-31.675062
 20
-47.488396
 30
0.0
 10
-47.569181
 20
-73.835630
 30
0.0
 10
-47.758500
 20
-74.190323
 30
0.0
 10
-47.897137
 20
-74.562050
 30
0.0
 10
-47.984943
 20
-74.945624
 30
0.0
 10
-48.021768
 20
-75.335857
 30
0.0
 10
-48.007463
 20
-75.727562
 30
0.0
 10
-47.941878
 20
-76.115553
 30
0.0
 10
-47.824864
 20
-76.494643
 30
0.0
 10
-47.656271
 20
-76.859643
 30
0.0
 10
-47.440484
 20
-77.198884
 30
0.0
 10
-47.184946
 20
-77.502366
 30
0.0
 10
-46.894100
 20
-77.767409
 30
0.0
 10
-46.572392
 20
-77.991332
 30
0.0
 10
-46.224263
 20
-78.171454
 30
0.0
 10
-45.854157
 20
-78.305097
 30
0.0
 10
-45.466518
 20
-78.389578
 30
0.0
 10
-45.065790
 20
-78.422219
 30
0.0
 10
-44.664289
 20
-78.401098
 30
0.0
 10
-44.274384
 20
-78.327781
 30
0.0
 10
-43.900594
 20
-78.204821
 30
0.0
 10
-43.547437
 20
-78.034769
 30
0.0
 10
-43.219431
 20
-77.820176
 30
0.0
 10
-42.921096
 20
-77.563593
 30
0.0
 10
-42.656949
 20
-77.267574
 30
0.0
 10
-42.431510
 20
-76.934669
 30
0.0
 10
-26.310014
 20
-50.210720
 30
0.0
 10
-25.980758
 20
-49.682949
 30
0.0
 10
-25.767412
 20
-49.098623
 30
0.0
 10
-25.665494
 20
-48.527424
 30
0.0
 10
-25.675428
 20
-47.947289
 30
0.0
 10
-25.675428
 20
-29.065749
 30
0.0
 10
-8.482678
 20
-11.873521
 30
0.0
 10
-8.185096
 20
-11.613701
 30
0.0
 10
-7.925262
 20
-11.318374
 30
0.0
 10
-7.706295
 20
-10.991594
 30
0.0
 10
-7.531315
 20
-10.637414
 30
0.0
 10
-7.491008
 20
-10.543355
 30
0.0
 10
-7.484806
 20
-10.525892
 30
0.0
 10
-7.366258
 20
-10.160284
 30
0.0
 10
-7.295613
 20
-9.784066
 30
0.0
 10
-7.273443
 20
-9.401915
 30
0.0
 10
-7.300321
 20
-9.018508
 30
0.0
 10
-7.300321
 20
6.876653
 30
0.0
 10
-7.352170
 20
7.476458
 30
0.0
 10
-7.520531
 20
8.048381
 30
0.0
 10
-7.798628
 20
8.575735
 30
0.0
 10
-8.179685
 20
9.041836
 30
0.0
 10
-8.646109
 20
9.422497
 30
0.0
 10
-9.173699
 20
9.700147
 30
0.0
 10
-9.745764
 20
9.868022
 30
0.0
 10
-10.345613
 20
9.919361
 30
0.0
  0
LWPOLYLINE
  5
101
100
AcDbEntity
  8
Mechanical12
 62
7
100
AcDbPolyline
 90
74
 70
1
 10
10.254671
 20
9.919335
 30
0.0
 10
9.651313
 20
9.849359
 30
0.0
 10
9.091074
 20
9.666265
 30
0.0
 10
8.585824
 20
9.382273
 30
0.0
 10
8.147431
 20
9.009607
 30
0.0
 10
7.787765
 20
8.560488
 30
0.0
 10
7.518694
 20
8.047137
 30
0.0
 10
7.352087
 20
7.481776
 30
0.0
 10
7.299813
 20
6.876627
 30
0.0
 10
7.299813
 20
-9.017503
 30
0.0
 10
7.273011
 20
-9.410329
 30
0.0
 10
7.297668
 20
-9.801623
 30
0.0
 10
7.373136
 20
-10.186361
 30
0.0
 10
7.498767
 20
-10.559521
 30
0.0
 10
7.541142
 20
-10.665460
 30
0.0
 10
7.543735
 20
-10.671281
 30
0.0
 10
7.718605
 20
-11.015500
 30
0.0
 10
7.935261
 20
-11.333167
 30
0.0
 10
8.190765
 20
-11.620517
 30
0.0
 10
8.482179
 20
-11.873786
 30
0.0
 10
25.674927
 20
-29.066014
 30
0.0
 10
25.674927
 20
-47.929985
 30
0.0
 10
25.665574
 20
-48.552737
 30
0.0
 10
25.784998
 20
-49.164002
 30
0.0
 10
25.992480
 20
-49.703881
 30
0.0
 10
26.299696
 20
-50.193919
 30
0.0
 10
42.431011
 20
-76.934933
 30
0.0
 10
42.656450
 20
-77.267838
 30
0.0
 10
42.920597
 20
-77.563858
 30
0.0
 10
43.218932
 20
-77.820440
 30
0.0
 10
43.546938
 20
-78.035033
 30
0.0
 10
43.900095
 20
-78.205086
 30
0.0
 10
44.273885
 20
-78.328046
 30
0.0
 10
44.663790
 20
-78.401363
 30
0.0
 10
45.065291
 20
-78.422484
 30
0.0
 10
45.466019
 20
-78.389843
 30
0.0
 10
45.853658
 20
-78.305361
 30
0.0
 10
46.223764
 20
-78.171719
 30
0.0
 10
46.571893
 20
-77.991596
 30
0.0
 10
46.893601
 20
-77.767674
 30
0.0
 10
47.184447
 20
-77.502631
 30
0.0
 10
47.439985
 20
-77.199149
 30
0.0
 10
47.655772
 20
-76.859908
 30
0.0
 10
47.824365
 20
-76.494907
 30
0.0
 10
47.941379
 20
-76.115818
 30
0.0
 10
48.006964
 20
-75.727827
 30
0.0
 10
48.021269
 20
-75.336121
 30
0.0
 10
47.984444
 20
-74.945888
 30
0.0
 10
47.896638
 20
-74.562315
 30
0.0
 10
47.758001
 20
-74.190588
 30
0.0
 10
47.568682
 20
-73.835895
 30
0.0
 10
31.674560
 20
-47.488660
 30
0.0
 10
31.674560
 20
-28.255727
 30
0.0
 10
31.701519
 20
-27.862508
 30
0.0
 10
31.676914
 20
-27.470813
 30
0.0
 10
31.601393
 20
-27.085680
 30
0.0
 10
31.475607
 20
-26.712148
 30
0.0
 10
31.433231
 20
-26.606209
 30
0.0
 10
31.432173
 20
-26.603563
 30
0.0
 10
31.430585
 20
-26.600388
 30
0.0
 10
31.255715
 20
-26.256169
 30
0.0
 10
31.039058
 20
-25.938502
 30
0.0
 10
30.783554
 20
-25.651152
 30
0.0
 10
30.492140
 20
-25.397883
 30
0.0
 10
13.299909
 20
-8.206184
 30
0.0
 10
13.299909
 20
6.876627
 30
0.0
 10
13.248060
 20
7.476432
 30
0.0
 10
13.079699
 20
8.048354
 30
0.0
 10
12.801602
 20
8.575708
 30
0.0
 10
12.420545
 20
9.041810
 30
0.0
 10
11.954121
 20
9.422471
 30
0.0
 10
11.426531
 20
9.700120
 30
0.0
 10
10.854466
 20
9.867996
 30
0.0
 10
10.254617
 20
9.919335
 30
0.0
  0
ENDSEC
  0
SECTION
  2
OBJECTS
  0
DICTIONARY
  5
C
330
0
100
AcDbDictionary
  3
ACAD_GROUP
350
D
  3
ACAD_MLINESTYLE
350
17
  0
DICTIONARY
  5
D
330
C
100
AcDbDictionary
  0
DICTIONARY
  5
1A
330
C
100
AcDbDictionary
  0
DICTIONARY
  5
17
330
C
100
AcDbDictionary
  3
STANDARD
350
18
  0
DICTIONARY
  5
19
330
C
100
AcDbDictionary
  0
ENDSEC
  0
EOF
